G04*
G04 #@! TF.GenerationSoftware,Altium Limited,Altium Designer,23.7.1 (13)*
G04*
G04 Layer_Color=6502151*
%FSLAX25Y25*%
%MOIN*%
G70*
G04*
G04 #@! TF.SameCoordinates,97747FA3-686D-44AE-B9B3-03A7D2E65678*
G04*
G04*
G04 #@! TF.FilePolarity,Negative*
G04*
G01*
G75*
%ADD30C,0.01968*%
%ADD34C,0.01772*%
G04:AMPARAMS|DCode=61|XSize=51.18mil|YSize=98.43mil|CornerRadius=25.59mil|HoleSize=0mil|Usage=FLASHONLY|Rotation=180.000|XOffset=0mil|YOffset=0mil|HoleType=Round|Shape=RoundedRectangle|*
%AMROUNDEDRECTD61*
21,1,0.05118,0.04724,0,0,180.0*
21,1,0.00000,0.09843,0,0,180.0*
1,1,0.05118,0.00000,0.02362*
1,1,0.05118,0.00000,0.02362*
1,1,0.05118,0.00000,-0.02362*
1,1,0.05118,0.00000,-0.02362*
%
%ADD61ROUNDEDRECTD61*%
G04:AMPARAMS|DCode=101|XSize=125.98mil|YSize=51.18mil|CornerRadius=25.59mil|HoleSize=0mil|Usage=FLASHONLY|Rotation=270.000|XOffset=0mil|YOffset=0mil|HoleType=Round|Shape=RoundedRectangle|*
%AMROUNDEDRECTD101*
21,1,0.12598,0.00000,0,0,270.0*
21,1,0.07480,0.05118,0,0,270.0*
1,1,0.05118,0.00000,-0.03740*
1,1,0.05118,0.00000,0.03740*
1,1,0.05118,0.00000,0.03740*
1,1,0.05118,0.00000,-0.03740*
%
%ADD101ROUNDEDRECTD101*%
%ADD102C,0.02756*%
G04:AMPARAMS|DCode=103|XSize=27.56mil|YSize=62.99mil|CornerRadius=13.78mil|HoleSize=0mil|Usage=FLASHONLY|Rotation=180.000|XOffset=0mil|YOffset=0mil|HoleType=Round|Shape=RoundedRectangle|*
%AMROUNDEDRECTD103*
21,1,0.02756,0.03543,0,0,180.0*
21,1,0.00000,0.06299,0,0,180.0*
1,1,0.02756,0.00000,0.01772*
1,1,0.02756,0.00000,0.01772*
1,1,0.02756,0.00000,-0.01772*
1,1,0.02756,0.00000,-0.01772*
%
%ADD103ROUNDEDRECTD103*%
%ADD105C,0.05118*%
G04:AMPARAMS|DCode=113|XSize=34.45mil|YSize=7.87mil|CornerRadius=1.18mil|HoleSize=0mil|Usage=FLASHONLY|Rotation=45.000|XOffset=0mil|YOffset=0mil|HoleType=Round|Shape=RoundedRectangle|*
%AMROUNDEDRECTD113*
21,1,0.03445,0.00551,0,0,45.0*
21,1,0.03209,0.00787,0,0,45.0*
1,1,0.00236,0.01329,0.00940*
1,1,0.00236,-0.00940,-0.01329*
1,1,0.00236,-0.01329,-0.00940*
1,1,0.00236,0.00940,0.01329*
%
%ADD113ROUNDEDRECTD113*%
G04:AMPARAMS|DCode=114|XSize=7.87mil|YSize=34.45mil|CornerRadius=1.18mil|HoleSize=0mil|Usage=FLASHONLY|Rotation=45.000|XOffset=0mil|YOffset=0mil|HoleType=Round|Shape=RoundedRectangle|*
%AMROUNDEDRECTD114*
21,1,0.00787,0.03209,0,0,45.0*
21,1,0.00551,0.03445,0,0,45.0*
1,1,0.00236,0.01329,-0.00940*
1,1,0.00236,0.00940,-0.01329*
1,1,0.00236,-0.01329,0.00940*
1,1,0.00236,-0.00940,0.01329*
%
%ADD114ROUNDEDRECTD114*%
%ADD198C,0.32296*%
%ADD199C,0.06312*%
%ADD200C,0.08465*%
%ADD201C,0.12284*%
%ADD202C,0.07795*%
%ADD203C,0.14173*%
%ADD204C,0.10000*%
%ADD205O,0.13386X0.28150*%
%ADD206C,0.32087*%
%ADD207C,0.06496*%
%ADD208O,0.04756X0.09118*%
G04:AMPARAMS|DCode=209|XSize=20.47mil|YSize=11.81mil|CornerRadius=2.95mil|HoleSize=0mil|Usage=FLASHONLY|Rotation=135.000|XOffset=0mil|YOffset=0mil|HoleType=Round|Shape=RoundedRectangle|*
%AMROUNDEDRECTD209*
21,1,0.02047,0.00591,0,0,135.0*
21,1,0.01457,0.01181,0,0,135.0*
1,1,0.00591,-0.00306,0.00724*
1,1,0.00591,0.00724,-0.00306*
1,1,0.00591,0.00306,-0.00724*
1,1,0.00591,-0.00724,0.00306*
%
%ADD209ROUNDEDRECTD209*%
G04:AMPARAMS|DCode=210|XSize=11.81mil|YSize=21.06mil|CornerRadius=2.95mil|HoleSize=0mil|Usage=FLASHONLY|Rotation=45.000|XOffset=0mil|YOffset=0mil|HoleType=Round|Shape=RoundedRectangle|*
%AMROUNDEDRECTD210*
21,1,0.01181,0.01516,0,0,45.0*
21,1,0.00591,0.02106,0,0,45.0*
1,1,0.00591,0.00745,-0.00327*
1,1,0.00591,0.00327,-0.00745*
1,1,0.00591,-0.00745,0.00327*
1,1,0.00591,-0.00327,0.00745*
%
%ADD210ROUNDEDRECTD210*%
G04:AMPARAMS|DCode=211|XSize=11.81mil|YSize=21.06mil|CornerRadius=2.95mil|HoleSize=0mil|Usage=FLASHONLY|Rotation=135.000|XOffset=0mil|YOffset=0mil|HoleType=Round|Shape=RoundedRectangle|*
%AMROUNDEDRECTD211*
21,1,0.01181,0.01516,0,0,135.0*
21,1,0.00591,0.02106,0,0,135.0*
1,1,0.00591,0.00327,0.00745*
1,1,0.00591,0.00745,0.00327*
1,1,0.00591,-0.00327,-0.00745*
1,1,0.00591,-0.00745,-0.00327*
%
%ADD211ROUNDEDRECTD211*%
G04:AMPARAMS|DCode=212|XSize=11.81mil|YSize=34.96mil|CornerRadius=2.95mil|HoleSize=0mil|Usage=FLASHONLY|Rotation=225.000|XOffset=0mil|YOffset=0mil|HoleType=Round|Shape=RoundedRectangle|*
%AMROUNDEDRECTD212*
21,1,0.01181,0.02906,0,0,225.0*
21,1,0.00591,0.03496,0,0,225.0*
1,1,0.00591,-0.01236,0.00819*
1,1,0.00591,-0.00819,0.01236*
1,1,0.00591,0.01236,-0.00819*
1,1,0.00591,0.00819,-0.01236*
%
%ADD212ROUNDEDRECTD212*%
G04:AMPARAMS|DCode=213|XSize=11.81mil|YSize=20.47mil|CornerRadius=2.95mil|HoleSize=0mil|Usage=FLASHONLY|Rotation=135.000|XOffset=0mil|YOffset=0mil|HoleType=Round|Shape=RoundedRectangle|*
%AMROUNDEDRECTD213*
21,1,0.01181,0.01457,0,0,135.0*
21,1,0.00591,0.02047,0,0,135.0*
1,1,0.00591,0.00306,0.00724*
1,1,0.00591,0.00724,0.00306*
1,1,0.00591,-0.00306,-0.00724*
1,1,0.00591,-0.00724,-0.00306*
%
%ADD213ROUNDEDRECTD213*%
G04:AMPARAMS|DCode=214|XSize=18.9mil|YSize=134.06mil|CornerRadius=4.72mil|HoleSize=0mil|Usage=FLASHONLY|Rotation=225.000|XOffset=0mil|YOffset=0mil|HoleType=Round|Shape=RoundedRectangle|*
%AMROUNDEDRECTD214*
21,1,0.01890,0.12461,0,0,225.0*
21,1,0.00945,0.13406,0,0,225.0*
1,1,0.00945,-0.04740,0.04071*
1,1,0.00945,-0.04071,0.04740*
1,1,0.00945,0.04740,-0.04071*
1,1,0.00945,0.04071,-0.04740*
%
%ADD214ROUNDEDRECTD214*%
G04:AMPARAMS|DCode=215|XSize=23.23mil|YSize=118.11mil|CornerRadius=5.81mil|HoleSize=0mil|Usage=FLASHONLY|Rotation=225.000|XOffset=0mil|YOffset=0mil|HoleType=Round|Shape=RoundedRectangle|*
%AMROUNDEDRECTD215*
21,1,0.02323,0.10650,0,0,225.0*
21,1,0.01161,0.11811,0,0,225.0*
1,1,0.01161,-0.04176,0.03355*
1,1,0.01161,-0.03355,0.04176*
1,1,0.01161,0.04176,-0.03355*
1,1,0.01161,0.03355,-0.04176*
%
%ADD215ROUNDEDRECTD215*%
%ADD216C,0.02953*%
G04:AMPARAMS|DCode=217|XSize=133.98mil|YSize=133.98mil|CornerRadius=7.15mil|HoleSize=0mil|Usage=FLASHONLY|Rotation=45.000|XOffset=0mil|YOffset=0mil|HoleType=Round|Shape=RoundedRectangle|*
%AMROUNDEDRECTD217*
21,1,0.13398,0.11969,0,0,45.0*
21,1,0.11969,0.13398,0,0,45.0*
1,1,0.01430,0.08463,0.00000*
1,1,0.01430,0.00000,-0.08463*
1,1,0.01430,-0.08463,0.00000*
1,1,0.01430,0.00000,0.08463*
%
%ADD217ROUNDEDRECTD217*%
G36*
X230361Y569584D02*
X230406Y569573D01*
X230437Y569560D01*
X230449Y569555D01*
X230489Y569531D01*
X230524Y569501D01*
X231705Y568320D01*
X231736Y568284D01*
X231760Y568245D01*
X231765Y568232D01*
X231778Y568202D01*
X231789Y568157D01*
X231792Y568110D01*
Y566535D01*
X231789Y566489D01*
X231778Y566444D01*
X231765Y566413D01*
X231760Y566401D01*
X231736Y566361D01*
X231705Y566326D01*
X230524Y565145D01*
X230489Y565115D01*
X230449Y565090D01*
X230437Y565085D01*
X230406Y565073D01*
X230361Y565062D01*
X230315Y565058D01*
X228740D01*
X228694Y565062D01*
X228649Y565073D01*
X228618Y565085D01*
X228606Y565090D01*
X228566Y565115D01*
X228531Y565145D01*
X227350Y566326D01*
X227319Y566361D01*
X227295Y566401D01*
X227290Y566413D01*
X227277Y566444D01*
X227267Y566489D01*
X227263Y566535D01*
Y568110D01*
X227267Y568157D01*
X227277Y568202D01*
X227290Y568232D01*
X227295Y568245D01*
X227319Y568284D01*
X227350Y568320D01*
X228531Y569501D01*
X228566Y569531D01*
X228606Y569555D01*
X228618Y569560D01*
X228649Y569573D01*
X228694Y569584D01*
X228740Y569588D01*
X230315D01*
X230361Y569584D01*
D02*
G37*
G36*
X224850D02*
X224895Y569573D01*
X224925Y569560D01*
X224938Y569555D01*
X224977Y569531D01*
X225013Y569501D01*
X226194Y568320D01*
X226224Y568284D01*
X226248Y568245D01*
X226253Y568232D01*
X226266Y568202D01*
X226277Y568157D01*
X226280Y568110D01*
Y566535D01*
X226277Y566489D01*
X226266Y566444D01*
X226253Y566413D01*
X226248Y566401D01*
X226224Y566361D01*
X226194Y566326D01*
X225013Y565145D01*
X224977Y565115D01*
X224938Y565090D01*
X224925Y565085D01*
X224895Y565073D01*
X224850Y565062D01*
X224803Y565058D01*
X223228D01*
X223182Y565062D01*
X223137Y565073D01*
X223106Y565085D01*
X223094Y565090D01*
X223054Y565115D01*
X223019Y565145D01*
X221838Y566326D01*
X221808Y566361D01*
X221783Y566401D01*
X221778Y566413D01*
X221765Y566444D01*
X221755Y566489D01*
X221751Y566535D01*
Y568110D01*
X221755Y568157D01*
X221765Y568202D01*
X221778Y568232D01*
X221783Y568245D01*
X221808Y568284D01*
X221838Y568320D01*
X223019Y569501D01*
X223054Y569531D01*
X223094Y569555D01*
X223106Y569560D01*
X223137Y569573D01*
X223182Y569584D01*
X223228Y569588D01*
X224803D01*
X224850Y569584D01*
D02*
G37*
G36*
X219338D02*
X219383Y569573D01*
X219413Y569560D01*
X219426Y569555D01*
X219465Y569531D01*
X219501Y569501D01*
X220682Y568320D01*
X220712Y568284D01*
X220736Y568245D01*
X220742Y568232D01*
X220754Y568202D01*
X220765Y568157D01*
X220769Y568110D01*
Y566535D01*
X220765Y566489D01*
X220754Y566444D01*
X220742Y566413D01*
X220736Y566401D01*
X220712Y566361D01*
X220682Y566326D01*
X219501Y565145D01*
X219465Y565115D01*
X219426Y565090D01*
X219413Y565085D01*
X219383Y565073D01*
X219338Y565062D01*
X219291Y565058D01*
X217717D01*
X217670Y565062D01*
X217625Y565073D01*
X217595Y565085D01*
X217582Y565090D01*
X217542Y565115D01*
X217507Y565145D01*
X216326Y566326D01*
X216296Y566361D01*
X216271Y566401D01*
X216266Y566413D01*
X216254Y566444D01*
X216243Y566489D01*
X216239Y566535D01*
Y568110D01*
X216243Y568157D01*
X216254Y568202D01*
X216266Y568232D01*
X216271Y568245D01*
X216296Y568284D01*
X216326Y568320D01*
X217507Y569501D01*
X217542Y569531D01*
X217582Y569555D01*
X217595Y569560D01*
X217625Y569573D01*
X217670Y569584D01*
X217717Y569588D01*
X219291D01*
X219338Y569584D01*
D02*
G37*
G36*
X210676D02*
X210721Y569573D01*
X210752Y569560D01*
X210764Y569555D01*
X210804Y569531D01*
X210839Y569501D01*
X212020Y568320D01*
X212051Y568284D01*
X212075Y568245D01*
X212080Y568232D01*
X212093Y568202D01*
X212104Y568157D01*
X212107Y568110D01*
Y566535D01*
X212104Y566489D01*
X212093Y566444D01*
X212080Y566413D01*
X212075Y566401D01*
X212051Y566361D01*
X212020Y566326D01*
X210839Y565145D01*
X210804Y565115D01*
X210764Y565090D01*
X210752Y565085D01*
X210721Y565073D01*
X210676Y565062D01*
X210630Y565058D01*
X209055D01*
X209009Y565062D01*
X208964Y565073D01*
X208933Y565085D01*
X208921Y565090D01*
X208881Y565115D01*
X208846Y565145D01*
X207665Y566326D01*
X207634Y566361D01*
X207610Y566401D01*
X207605Y566413D01*
X207592Y566444D01*
X207581Y566489D01*
X207578Y566535D01*
Y568110D01*
X207581Y568157D01*
X207592Y568202D01*
X207605Y568232D01*
X207610Y568245D01*
X207634Y568284D01*
X207665Y568320D01*
X208846Y569501D01*
X208881Y569531D01*
X208921Y569555D01*
X208933Y569560D01*
X208964Y569573D01*
X209009Y569584D01*
X209055Y569588D01*
X210630D01*
X210676Y569584D01*
D02*
G37*
G36*
X204377D02*
X204422Y569573D01*
X204453Y569560D01*
X204465Y569555D01*
X204505Y569531D01*
X204540Y569501D01*
X205721Y568320D01*
X205751Y568284D01*
X205776Y568245D01*
X205781Y568232D01*
X205793Y568202D01*
X205804Y568157D01*
X205808Y568110D01*
Y566535D01*
X205804Y566489D01*
X205793Y566444D01*
X205781Y566413D01*
X205776Y566401D01*
X205751Y566361D01*
X205721Y566326D01*
X204540Y565145D01*
X204505Y565115D01*
X204465Y565090D01*
X204453Y565085D01*
X204422Y565073D01*
X204377Y565062D01*
X204331Y565058D01*
X202756D01*
X202710Y565062D01*
X202664Y565073D01*
X202634Y565085D01*
X202621Y565090D01*
X202582Y565115D01*
X202547Y565145D01*
X201365Y566326D01*
X201335Y566361D01*
X201311Y566401D01*
X201306Y566413D01*
X201293Y566444D01*
X201282Y566489D01*
X201279Y566535D01*
Y568110D01*
X201282Y568157D01*
X201293Y568202D01*
X201306Y568232D01*
X201311Y568245D01*
X201335Y568284D01*
X201365Y568320D01*
X202547Y569501D01*
X202582Y569531D01*
X202621Y569555D01*
X202634Y569560D01*
X202664Y569573D01*
X202710Y569584D01*
X202756Y569588D01*
X204331D01*
X204377Y569584D01*
D02*
G37*
G36*
X728787Y564859D02*
X728832Y564849D01*
X728862Y564836D01*
X728875Y564831D01*
X728914Y564807D01*
X728950Y564776D01*
X730131Y563595D01*
X730161Y563560D01*
X730185Y563520D01*
X730190Y563508D01*
X730203Y563477D01*
X730214Y563432D01*
X730217Y563386D01*
Y561811D01*
X730214Y561765D01*
X730203Y561720D01*
X730190Y561689D01*
X730185Y561677D01*
X730161Y561637D01*
X730131Y561602D01*
X728950Y560421D01*
X728914Y560390D01*
X728875Y560366D01*
X728862Y560361D01*
X728832Y560348D01*
X728787Y560337D01*
X728740Y560334D01*
X727165D01*
X727119Y560337D01*
X727074Y560348D01*
X727043Y560361D01*
X727031Y560366D01*
X726991Y560390D01*
X726956Y560421D01*
X725775Y561602D01*
X725745Y561637D01*
X725720Y561677D01*
X725715Y561689D01*
X725702Y561720D01*
X725692Y561765D01*
X725688Y561811D01*
Y563386D01*
X725692Y563432D01*
X725702Y563477D01*
X725715Y563508D01*
X725720Y563520D01*
X725745Y563560D01*
X725775Y563595D01*
X726956Y564776D01*
X726991Y564807D01*
X727031Y564831D01*
X727043Y564836D01*
X727074Y564849D01*
X727119Y564859D01*
X727165Y564863D01*
X728740D01*
X728787Y564859D01*
D02*
G37*
G36*
X713826Y560529D02*
X713871Y560518D01*
X713901Y560505D01*
X713914Y560500D01*
X713954Y560476D01*
X713989Y560446D01*
X715170Y559265D01*
X715200Y559229D01*
X715225Y559190D01*
X715230Y559177D01*
X715242Y559147D01*
X715253Y559101D01*
X715257Y559055D01*
Y557480D01*
X715253Y557434D01*
X715242Y557389D01*
X715230Y557358D01*
X715225Y557346D01*
X715200Y557306D01*
X715170Y557271D01*
X713989Y556090D01*
X713954Y556060D01*
X713914Y556035D01*
X713901Y556030D01*
X713871Y556017D01*
X713826Y556007D01*
X713779Y556003D01*
X712205D01*
X712158Y556007D01*
X712113Y556017D01*
X712083Y556030D01*
X712070Y556035D01*
X712031Y556060D01*
X711995Y556090D01*
X710814Y557271D01*
X710784Y557306D01*
X710760Y557346D01*
X710754Y557358D01*
X710742Y557389D01*
X710731Y557434D01*
X710727Y557480D01*
Y559055D01*
X710731Y559101D01*
X710742Y559147D01*
X710754Y559177D01*
X710760Y559190D01*
X710784Y559229D01*
X710814Y559265D01*
X711995Y560446D01*
X712031Y560476D01*
X712070Y560500D01*
X712083Y560505D01*
X712113Y560518D01*
X712158Y560529D01*
X712205Y560532D01*
X713779D01*
X713826Y560529D01*
D02*
G37*
G36*
X257133Y550292D02*
X257178Y550282D01*
X257208Y550269D01*
X257221Y550264D01*
X257261Y550240D01*
X257296Y550209D01*
X258477Y549028D01*
X258507Y548993D01*
X258532Y548953D01*
X258537Y548941D01*
X258549Y548910D01*
X258560Y548865D01*
X258564Y548819D01*
Y547244D01*
X258560Y547198D01*
X258549Y547153D01*
X258537Y547122D01*
X258532Y547110D01*
X258507Y547070D01*
X258477Y547035D01*
X257296Y545854D01*
X257261Y545823D01*
X257221Y545799D01*
X257208Y545794D01*
X257178Y545781D01*
X257133Y545770D01*
X257087Y545767D01*
X255512D01*
X255466Y545770D01*
X255420Y545781D01*
X255390Y545794D01*
X255377Y545799D01*
X255338Y545823D01*
X255302Y545854D01*
X254121Y547035D01*
X254091Y547070D01*
X254067Y547110D01*
X254062Y547122D01*
X254049Y547153D01*
X254038Y547198D01*
X254034Y547244D01*
Y548819D01*
X254038Y548865D01*
X254049Y548910D01*
X254062Y548941D01*
X254067Y548953D01*
X254091Y548993D01*
X254121Y549028D01*
X255302Y550209D01*
X255338Y550240D01*
X255377Y550264D01*
X255390Y550269D01*
X255420Y550282D01*
X255466Y550293D01*
X255512Y550296D01*
X257087D01*
X257133Y550292D01*
D02*
G37*
G36*
X382330Y549899D02*
X382375Y549888D01*
X382405Y549875D01*
X382418Y549870D01*
X382458Y549846D01*
X382493Y549816D01*
X383674Y548635D01*
X383704Y548599D01*
X383729Y548560D01*
X383734Y548547D01*
X383746Y548517D01*
X383757Y548472D01*
X383761Y548425D01*
Y546850D01*
X383757Y546804D01*
X383746Y546759D01*
X383734Y546729D01*
X383729Y546716D01*
X383704Y546676D01*
X383674Y546641D01*
X382493Y545460D01*
X382458Y545430D01*
X382418Y545405D01*
X382405Y545400D01*
X382375Y545388D01*
X382330Y545377D01*
X382283Y545373D01*
X380709D01*
X380662Y545377D01*
X380617Y545388D01*
X380587Y545400D01*
X380574Y545405D01*
X380535Y545430D01*
X380499Y545460D01*
X379318Y546641D01*
X379288Y546676D01*
X379264Y546716D01*
X379258Y546729D01*
X379246Y546759D01*
X379235Y546804D01*
X379231Y546850D01*
Y548425D01*
X379235Y548472D01*
X379246Y548517D01*
X379258Y548547D01*
X379264Y548560D01*
X379288Y548599D01*
X379318Y548635D01*
X380499Y549816D01*
X380535Y549846D01*
X380574Y549870D01*
X380587Y549875D01*
X380617Y549888D01*
X380662Y549899D01*
X380709Y549902D01*
X382283D01*
X382330Y549899D01*
D02*
G37*
G36*
X898573Y542541D02*
X884026D01*
X887208Y548053D01*
X895391D01*
X899483Y555140D01*
X905847D01*
X898573Y542541D01*
D02*
G37*
G36*
X382367Y543637D02*
X382412Y543626D01*
X382443Y543614D01*
X382455Y543608D01*
X382495Y543584D01*
X382530Y543554D01*
X383711Y542373D01*
X383742Y542338D01*
X383766Y542298D01*
X383771Y542285D01*
X383784Y542255D01*
X383794Y542210D01*
X383798Y542163D01*
Y540589D01*
X383794Y540542D01*
X383784Y540497D01*
X383771Y540467D01*
X383766Y540454D01*
X383742Y540414D01*
X383711Y540379D01*
X382530Y539198D01*
X382495Y539168D01*
X382455Y539144D01*
X382443Y539138D01*
X382412Y539126D01*
X382367Y539115D01*
X382321Y539111D01*
X380746D01*
X380700Y539115D01*
X380655Y539126D01*
X380624Y539138D01*
X380612Y539144D01*
X380572Y539168D01*
X380537Y539198D01*
X379356Y540379D01*
X379325Y540414D01*
X379301Y540454D01*
X379296Y540467D01*
X379283Y540497D01*
X379272Y540542D01*
X379269Y540589D01*
Y542163D01*
X379272Y542210D01*
X379283Y542255D01*
X379296Y542285D01*
X379301Y542298D01*
X379325Y542338D01*
X379356Y542373D01*
X380537Y543554D01*
X380572Y543584D01*
X380612Y543608D01*
X380624Y543614D01*
X380655Y543626D01*
X380700Y543637D01*
X380746Y543641D01*
X382321D01*
X382367Y543637D01*
D02*
G37*
G36*
X196897Y529820D02*
X196942Y529809D01*
X196972Y529797D01*
X196985Y529791D01*
X197025Y529767D01*
X197060Y529737D01*
X198241Y528556D01*
X198271Y528521D01*
X198295Y528481D01*
X198301Y528468D01*
X198313Y528438D01*
X198324Y528393D01*
X198328Y528346D01*
Y526772D01*
X198324Y526725D01*
X198313Y526680D01*
X198301Y526650D01*
X198295Y526637D01*
X198271Y526597D01*
X198241Y526562D01*
X197060Y525381D01*
X197025Y525351D01*
X196985Y525327D01*
X196972Y525321D01*
X196942Y525309D01*
X196897Y525298D01*
X196850Y525294D01*
X195276D01*
X195229Y525298D01*
X195184Y525309D01*
X195154Y525321D01*
X195141Y525327D01*
X195101Y525351D01*
X195066Y525381D01*
X193885Y526562D01*
X193855Y526597D01*
X193831Y526637D01*
X193825Y526650D01*
X193813Y526680D01*
X193802Y526725D01*
X193798Y526772D01*
Y528346D01*
X193802Y528393D01*
X193813Y528438D01*
X193825Y528468D01*
X193831Y528481D01*
X193855Y528521D01*
X193885Y528556D01*
X195066Y529737D01*
X195101Y529767D01*
X195141Y529791D01*
X195154Y529797D01*
X195184Y529809D01*
X195229Y529820D01*
X195276Y529824D01*
X196850D01*
X196897Y529820D01*
D02*
G37*
G36*
X161070D02*
X161115Y529809D01*
X161145Y529797D01*
X161158Y529791D01*
X161198Y529767D01*
X161233Y529737D01*
X162414Y528556D01*
X162444Y528521D01*
X162469Y528481D01*
X162474Y528468D01*
X162486Y528438D01*
X162497Y528393D01*
X162501Y528346D01*
Y526772D01*
X162497Y526725D01*
X162486Y526680D01*
X162474Y526650D01*
X162469Y526637D01*
X162444Y526597D01*
X162414Y526562D01*
X161233Y525381D01*
X161198Y525351D01*
X161158Y525327D01*
X161145Y525321D01*
X161115Y525309D01*
X161070Y525298D01*
X161024Y525294D01*
X159449D01*
X159403Y525298D01*
X159357Y525309D01*
X159327Y525321D01*
X159314Y525327D01*
X159275Y525351D01*
X159239Y525381D01*
X158058Y526562D01*
X158028Y526597D01*
X158004Y526637D01*
X157999Y526650D01*
X157986Y526680D01*
X157975Y526725D01*
X157972Y526772D01*
Y528346D01*
X157975Y528393D01*
X157986Y528438D01*
X157999Y528468D01*
X158004Y528481D01*
X158028Y528521D01*
X158058Y528556D01*
X159239Y529737D01*
X159275Y529767D01*
X159314Y529791D01*
X159327Y529797D01*
X159357Y529809D01*
X159403Y529820D01*
X159449Y529824D01*
X161024D01*
X161070Y529820D01*
D02*
G37*
G36*
X887156Y522856D02*
X872609D01*
X875791Y528368D01*
X883974D01*
X888065Y535455D01*
X894430D01*
X887156Y522856D01*
D02*
G37*
G36*
X257133Y521946D02*
X257178Y521935D01*
X257208Y521923D01*
X257221Y521917D01*
X257261Y521893D01*
X257296Y521863D01*
X258477Y520682D01*
X258507Y520646D01*
X258532Y520607D01*
X258537Y520594D01*
X258549Y520564D01*
X258560Y520519D01*
X258564Y520472D01*
Y518898D01*
X258560Y518851D01*
X258549Y518806D01*
X258537Y518776D01*
X258532Y518763D01*
X258507Y518723D01*
X258477Y518688D01*
X257296Y517507D01*
X257261Y517477D01*
X257221Y517453D01*
X257208Y517447D01*
X257178Y517435D01*
X257133Y517424D01*
X257087Y517420D01*
X255512D01*
X255466Y517424D01*
X255420Y517435D01*
X255390Y517447D01*
X255377Y517453D01*
X255338Y517477D01*
X255302Y517507D01*
X254121Y518688D01*
X254091Y518723D01*
X254067Y518763D01*
X254062Y518776D01*
X254049Y518806D01*
X254038Y518851D01*
X254034Y518898D01*
Y520472D01*
X254038Y520519D01*
X254049Y520564D01*
X254062Y520594D01*
X254067Y520607D01*
X254091Y520646D01*
X254121Y520682D01*
X255302Y521863D01*
X255338Y521893D01*
X255377Y521917D01*
X255390Y521923D01*
X255420Y521935D01*
X255466Y521946D01*
X255512Y521950D01*
X257087D01*
X257133Y521946D01*
D02*
G37*
G36*
X220125D02*
X220170Y521935D01*
X220201Y521923D01*
X220213Y521917D01*
X220253Y521893D01*
X220288Y521863D01*
X221469Y520682D01*
X221499Y520646D01*
X221524Y520607D01*
X221529Y520594D01*
X221542Y520564D01*
X221552Y520519D01*
X221556Y520472D01*
Y518898D01*
X221552Y518851D01*
X221542Y518806D01*
X221529Y518776D01*
X221524Y518763D01*
X221499Y518723D01*
X221469Y518688D01*
X220288Y517507D01*
X220253Y517477D01*
X220213Y517453D01*
X220201Y517447D01*
X220170Y517435D01*
X220125Y517424D01*
X220079Y517420D01*
X218504D01*
X218458Y517424D01*
X218412Y517435D01*
X218382Y517447D01*
X218370Y517453D01*
X218330Y517477D01*
X218295Y517507D01*
X217113Y518688D01*
X217083Y518723D01*
X217059Y518763D01*
X217054Y518776D01*
X217041Y518806D01*
X217030Y518851D01*
X217027Y518898D01*
Y520472D01*
X217030Y520519D01*
X217041Y520564D01*
X217054Y520594D01*
X217059Y520607D01*
X217083Y520646D01*
X217113Y520682D01*
X218295Y521863D01*
X218330Y521893D01*
X218370Y521917D01*
X218382Y521923D01*
X218412Y521935D01*
X218458Y521946D01*
X218504Y521950D01*
X220079D01*
X220125Y521946D01*
D02*
G37*
G36*
X823619Y506641D02*
X823664Y506630D01*
X823695Y506618D01*
X823707Y506612D01*
X823747Y506588D01*
X823782Y506558D01*
X824963Y505377D01*
X824994Y505341D01*
X825018Y505302D01*
X825023Y505289D01*
X825036Y505259D01*
X825047Y505214D01*
X825050Y505167D01*
Y503592D01*
X825047Y503546D01*
X825036Y503501D01*
X825023Y503471D01*
X825018Y503458D01*
X824994Y503418D01*
X824963Y503383D01*
X823782Y502202D01*
X823747Y502172D01*
X823707Y502147D01*
X823695Y502142D01*
X823664Y502130D01*
X823619Y502119D01*
X823573Y502115D01*
X821998D01*
X821952Y502119D01*
X821906Y502130D01*
X821876Y502142D01*
X821863Y502147D01*
X821824Y502172D01*
X821789Y502202D01*
X820607Y503383D01*
X820577Y503418D01*
X820553Y503458D01*
X820548Y503471D01*
X820535Y503501D01*
X820524Y503546D01*
X820521Y503592D01*
Y505167D01*
X820524Y505214D01*
X820535Y505259D01*
X820548Y505289D01*
X820553Y505302D01*
X820577Y505341D01*
X820607Y505377D01*
X821789Y506558D01*
X821824Y506588D01*
X821863Y506612D01*
X821876Y506618D01*
X821906Y506630D01*
X821952Y506641D01*
X821998Y506645D01*
X823573D01*
X823619Y506641D01*
D02*
G37*
G36*
X635529D02*
X635574Y506630D01*
X635604Y506618D01*
X635617Y506612D01*
X635656Y506588D01*
X635692Y506558D01*
X636873Y505377D01*
X636903Y505341D01*
X636927Y505302D01*
X636933Y505289D01*
X636945Y505259D01*
X636956Y505214D01*
X636960Y505167D01*
Y503592D01*
X636956Y503546D01*
X636945Y503501D01*
X636933Y503471D01*
X636927Y503458D01*
X636903Y503418D01*
X636873Y503383D01*
X635692Y502202D01*
X635656Y502172D01*
X635617Y502147D01*
X635604Y502142D01*
X635574Y502130D01*
X635529Y502119D01*
X635482Y502115D01*
X633908D01*
X633861Y502119D01*
X633816Y502130D01*
X633786Y502142D01*
X633773Y502147D01*
X633733Y502172D01*
X633698Y502202D01*
X632517Y503383D01*
X632487Y503418D01*
X632462Y503458D01*
X632457Y503471D01*
X632445Y503501D01*
X632434Y503546D01*
X632430Y503592D01*
Y505167D01*
X632434Y505214D01*
X632445Y505259D01*
X632457Y505289D01*
X632462Y505302D01*
X632487Y505341D01*
X632517Y505377D01*
X633698Y506558D01*
X633733Y506588D01*
X633773Y506612D01*
X633786Y506618D01*
X633816Y506630D01*
X633861Y506641D01*
X633908Y506645D01*
X635482D01*
X635529Y506641D01*
D02*
G37*
G36*
X173668Y505804D02*
X173714Y505794D01*
X173744Y505781D01*
X173757Y505776D01*
X173796Y505751D01*
X173831Y505721D01*
X175013Y504540D01*
X175043Y504505D01*
X175067Y504465D01*
X175072Y504453D01*
X175085Y504422D01*
X175096Y504377D01*
X175099Y504331D01*
Y502756D01*
X175096Y502710D01*
X175085Y502664D01*
X175072Y502634D01*
X175067Y502621D01*
X175043Y502582D01*
X175013Y502547D01*
X173831Y501365D01*
X173796Y501335D01*
X173757Y501311D01*
X173744Y501306D01*
X173714Y501293D01*
X173668Y501282D01*
X173622Y501279D01*
X172047D01*
X172001Y501282D01*
X171956Y501293D01*
X171925Y501306D01*
X171913Y501311D01*
X171873Y501335D01*
X171838Y501365D01*
X170657Y502547D01*
X170626Y502582D01*
X170602Y502621D01*
X170597Y502634D01*
X170584Y502664D01*
X170574Y502710D01*
X170570Y502756D01*
Y504331D01*
X170574Y504377D01*
X170584Y504422D01*
X170597Y504453D01*
X170602Y504465D01*
X170626Y504505D01*
X170657Y504540D01*
X171838Y505721D01*
X171873Y505751D01*
X171913Y505776D01*
X171925Y505781D01*
X171956Y505794D01*
X172001Y505804D01*
X172047Y505808D01*
X173622D01*
X173668Y505804D01*
D02*
G37*
G36*
X567763Y505017D02*
X567808Y505006D01*
X567838Y504993D01*
X567851Y504988D01*
X567891Y504964D01*
X567926Y504934D01*
X569107Y503753D01*
X569137Y503717D01*
X569162Y503678D01*
X569167Y503665D01*
X569179Y503635D01*
X569190Y503590D01*
X569194Y503543D01*
Y501968D01*
X569190Y501922D01*
X569179Y501877D01*
X569167Y501847D01*
X569162Y501834D01*
X569137Y501794D01*
X569107Y501759D01*
X567926Y500578D01*
X567891Y500548D01*
X567851Y500524D01*
X567838Y500518D01*
X567808Y500506D01*
X567763Y500495D01*
X567717Y500491D01*
X566142D01*
X566095Y500495D01*
X566050Y500506D01*
X566020Y500518D01*
X566007Y500524D01*
X565968Y500548D01*
X565932Y500578D01*
X564751Y501759D01*
X564721Y501794D01*
X564697Y501834D01*
X564691Y501847D01*
X564679Y501877D01*
X564668Y501922D01*
X564664Y501968D01*
Y503543D01*
X564668Y503590D01*
X564679Y503635D01*
X564691Y503665D01*
X564697Y503678D01*
X564721Y503717D01*
X564751Y503753D01*
X565932Y504934D01*
X565968Y504964D01*
X566007Y504988D01*
X566020Y504993D01*
X566050Y505006D01*
X566095Y505017D01*
X566142Y505021D01*
X567717D01*
X567763Y505017D01*
D02*
G37*
G36*
X311070Y505017D02*
X311115Y505006D01*
X311145Y504993D01*
X311158Y504988D01*
X311198Y504964D01*
X311233Y504934D01*
X312414Y503753D01*
X312444Y503717D01*
X312469Y503678D01*
X312474Y503665D01*
X312486Y503635D01*
X312497Y503590D01*
X312501Y503543D01*
Y501968D01*
X312497Y501922D01*
X312486Y501877D01*
X312474Y501847D01*
X312469Y501834D01*
X312444Y501794D01*
X312414Y501759D01*
X311233Y500578D01*
X311198Y500548D01*
X311158Y500524D01*
X311145Y500518D01*
X311115Y500506D01*
X311070Y500495D01*
X311024Y500491D01*
X309449D01*
X309402Y500495D01*
X309357Y500506D01*
X309327Y500518D01*
X309314Y500524D01*
X309275Y500548D01*
X309239Y500578D01*
X308058Y501759D01*
X308028Y501794D01*
X308004Y501834D01*
X307999Y501847D01*
X307986Y501877D01*
X307975Y501922D01*
X307972Y501968D01*
Y503543D01*
X307975Y503590D01*
X307986Y503635D01*
X307999Y503665D01*
X308004Y503678D01*
X308028Y503717D01*
X308058Y503753D01*
X309239Y504934D01*
X309275Y504964D01*
X309314Y504988D01*
X309327Y504993D01*
X309357Y505006D01*
X309402Y505017D01*
X309449Y505021D01*
X311024D01*
X311070Y505017D01*
D02*
G37*
G36*
X123668D02*
X123714Y505006D01*
X123744Y504993D01*
X123757Y504988D01*
X123796Y504964D01*
X123831Y504934D01*
X125013Y503753D01*
X125043Y503717D01*
X125067Y503678D01*
X125072Y503665D01*
X125085Y503635D01*
X125096Y503590D01*
X125099Y503543D01*
Y501968D01*
X125096Y501922D01*
X125085Y501877D01*
X125072Y501847D01*
X125067Y501834D01*
X125043Y501794D01*
X125013Y501759D01*
X123831Y500578D01*
X123796Y500548D01*
X123757Y500524D01*
X123744Y500518D01*
X123714Y500506D01*
X123668Y500495D01*
X123622Y500491D01*
X122047D01*
X122001Y500495D01*
X121956Y500506D01*
X121925Y500518D01*
X121913Y500524D01*
X121873Y500548D01*
X121838Y500578D01*
X120657Y501759D01*
X120626Y501794D01*
X120602Y501834D01*
X120597Y501847D01*
X120584Y501877D01*
X120574Y501922D01*
X120570Y501968D01*
Y503543D01*
X120574Y503590D01*
X120584Y503635D01*
X120597Y503665D01*
X120602Y503678D01*
X120626Y503717D01*
X120657Y503753D01*
X121838Y504934D01*
X121873Y504964D01*
X121913Y504988D01*
X121925Y504993D01*
X121956Y505006D01*
X122001Y505017D01*
X122047Y505021D01*
X123622D01*
X123668Y505017D01*
D02*
G37*
G36*
X409101Y504230D02*
X409147Y504219D01*
X409177Y504206D01*
X409190Y504201D01*
X409229Y504177D01*
X409265Y504146D01*
X410446Y502965D01*
X410476Y502930D01*
X410500Y502890D01*
X410505Y502878D01*
X410518Y502847D01*
X410529Y502802D01*
X410532Y502756D01*
Y501181D01*
X410529Y501135D01*
X410518Y501090D01*
X410505Y501059D01*
X410500Y501047D01*
X410476Y501007D01*
X410446Y500972D01*
X409265Y499791D01*
X409229Y499760D01*
X409190Y499736D01*
X409177Y499731D01*
X409147Y499718D01*
X409101Y499708D01*
X409055Y499704D01*
X407480D01*
X407434Y499708D01*
X407389Y499718D01*
X407358Y499731D01*
X407346Y499736D01*
X407306Y499760D01*
X407271Y499791D01*
X406090Y500972D01*
X406060Y501007D01*
X406035Y501047D01*
X406030Y501059D01*
X406017Y501090D01*
X406007Y501135D01*
X406003Y501181D01*
Y502756D01*
X406007Y502802D01*
X406017Y502847D01*
X406030Y502878D01*
X406035Y502890D01*
X406060Y502930D01*
X406090Y502965D01*
X407271Y504146D01*
X407306Y504177D01*
X407346Y504201D01*
X407358Y504206D01*
X407389Y504219D01*
X407434Y504230D01*
X407480Y504233D01*
X409055D01*
X409101Y504230D01*
D02*
G37*
G36*
X823324Y501031D02*
X823369Y501020D01*
X823400Y501007D01*
X823412Y501002D01*
X823452Y500978D01*
X823487Y500948D01*
X824668Y499766D01*
X824698Y499731D01*
X824723Y499692D01*
X824728Y499679D01*
X824740Y499649D01*
X824751Y499603D01*
X824755Y499557D01*
Y497982D01*
X824751Y497936D01*
X824740Y497891D01*
X824728Y497860D01*
X824723Y497848D01*
X824698Y497808D01*
X824668Y497773D01*
X823487Y496592D01*
X823452Y496562D01*
X823412Y496537D01*
X823400Y496532D01*
X823369Y496520D01*
X823324Y496509D01*
X823278Y496505D01*
X821703D01*
X821656Y496509D01*
X821611Y496520D01*
X821581Y496532D01*
X821568Y496537D01*
X821529Y496562D01*
X821493Y496592D01*
X820312Y497773D01*
X820282Y497808D01*
X820258Y497848D01*
X820253Y497860D01*
X820240Y497891D01*
X820229Y497936D01*
X820225Y497982D01*
Y499557D01*
X820229Y499603D01*
X820240Y499649D01*
X820253Y499679D01*
X820258Y499692D01*
X820282Y499731D01*
X820312Y499766D01*
X821493Y500948D01*
X821529Y500978D01*
X821568Y501002D01*
X821581Y501007D01*
X821611Y501020D01*
X821656Y501031D01*
X821703Y501034D01*
X823278D01*
X823324Y501031D01*
D02*
G37*
G36*
X635824D02*
X635869Y501020D01*
X635899Y501007D01*
X635912Y501002D01*
X635952Y500978D01*
X635987Y500948D01*
X637168Y499766D01*
X637198Y499731D01*
X637223Y499692D01*
X637228Y499679D01*
X637240Y499649D01*
X637251Y499603D01*
X637255Y499557D01*
Y497982D01*
X637251Y497936D01*
X637240Y497891D01*
X637228Y497860D01*
X637223Y497848D01*
X637198Y497808D01*
X637168Y497773D01*
X635987Y496592D01*
X635952Y496562D01*
X635912Y496537D01*
X635899Y496532D01*
X635869Y496520D01*
X635824Y496509D01*
X635778Y496505D01*
X634203D01*
X634156Y496509D01*
X634111Y496520D01*
X634081Y496532D01*
X634068Y496537D01*
X634029Y496562D01*
X633993Y496592D01*
X632812Y497773D01*
X632782Y497808D01*
X632758Y497848D01*
X632753Y497860D01*
X632740Y497891D01*
X632729Y497936D01*
X632725Y497982D01*
Y499557D01*
X632729Y499603D01*
X632740Y499649D01*
X632753Y499679D01*
X632758Y499692D01*
X632782Y499731D01*
X632812Y499766D01*
X633993Y500948D01*
X634029Y500978D01*
X634068Y501002D01*
X634081Y501007D01*
X634111Y501020D01*
X634156Y501031D01*
X634203Y501034D01*
X635778D01*
X635824Y501031D01*
D02*
G37*
G36*
X567763Y499505D02*
X567808Y499494D01*
X567838Y499482D01*
X567851Y499476D01*
X567891Y499452D01*
X567926Y499422D01*
X569107Y498241D01*
X569137Y498206D01*
X569162Y498166D01*
X569167Y498153D01*
X569179Y498123D01*
X569190Y498078D01*
X569194Y498032D01*
Y496457D01*
X569190Y496410D01*
X569179Y496365D01*
X569167Y496335D01*
X569162Y496322D01*
X569137Y496283D01*
X569107Y496247D01*
X567926Y495066D01*
X567891Y495036D01*
X567851Y495012D01*
X567838Y495007D01*
X567808Y494994D01*
X567763Y494983D01*
X567717Y494979D01*
X566142D01*
X566095Y494983D01*
X566050Y494994D01*
X566020Y495007D01*
X566007Y495012D01*
X565968Y495036D01*
X565932Y495066D01*
X564751Y496247D01*
X564721Y496283D01*
X564697Y496322D01*
X564691Y496335D01*
X564679Y496365D01*
X564668Y496410D01*
X564664Y496457D01*
Y498032D01*
X564668Y498078D01*
X564679Y498123D01*
X564691Y498153D01*
X564697Y498166D01*
X564721Y498206D01*
X564751Y498241D01*
X565932Y499422D01*
X565968Y499452D01*
X566007Y499476D01*
X566020Y499482D01*
X566050Y499494D01*
X566095Y499505D01*
X566142Y499509D01*
X567717D01*
X567763Y499505D01*
D02*
G37*
G36*
X311070Y499505D02*
X311115Y499494D01*
X311145Y499482D01*
X311158Y499476D01*
X311198Y499452D01*
X311233Y499422D01*
X312414Y498241D01*
X312444Y498206D01*
X312469Y498166D01*
X312474Y498153D01*
X312486Y498123D01*
X312497Y498078D01*
X312501Y498032D01*
Y496457D01*
X312497Y496410D01*
X312486Y496365D01*
X312474Y496335D01*
X312469Y496322D01*
X312444Y496283D01*
X312414Y496247D01*
X311233Y495066D01*
X311198Y495036D01*
X311158Y495012D01*
X311145Y495007D01*
X311115Y494994D01*
X311070Y494983D01*
X311024Y494979D01*
X309449D01*
X309402Y494983D01*
X309357Y494994D01*
X309327Y495007D01*
X309314Y495012D01*
X309275Y495036D01*
X309239Y495066D01*
X308058Y496247D01*
X308028Y496283D01*
X308004Y496322D01*
X307999Y496335D01*
X307986Y496365D01*
X307975Y496410D01*
X307972Y496457D01*
Y498032D01*
X307975Y498078D01*
X307986Y498123D01*
X307999Y498153D01*
X308004Y498166D01*
X308028Y498206D01*
X308058Y498241D01*
X309239Y499422D01*
X309275Y499452D01*
X309314Y499476D01*
X309327Y499482D01*
X309357Y499494D01*
X309402Y499505D01*
X309449Y499509D01*
X311024D01*
X311070Y499505D01*
D02*
G37*
G36*
X123668D02*
X123714Y499494D01*
X123744Y499482D01*
X123757Y499476D01*
X123796Y499452D01*
X123831Y499422D01*
X125013Y498241D01*
X125043Y498206D01*
X125067Y498166D01*
X125072Y498153D01*
X125085Y498123D01*
X125096Y498078D01*
X125099Y498032D01*
Y496457D01*
X125096Y496410D01*
X125085Y496365D01*
X125072Y496335D01*
X125067Y496322D01*
X125043Y496283D01*
X125013Y496247D01*
X123831Y495066D01*
X123796Y495036D01*
X123757Y495012D01*
X123744Y495007D01*
X123714Y494994D01*
X123668Y494983D01*
X123622Y494979D01*
X122047D01*
X122001Y494983D01*
X121956Y494994D01*
X121925Y495007D01*
X121913Y495012D01*
X121873Y495036D01*
X121838Y495066D01*
X120657Y496247D01*
X120626Y496283D01*
X120602Y496322D01*
X120597Y496335D01*
X120584Y496365D01*
X120574Y496410D01*
X120570Y496457D01*
Y498032D01*
X120574Y498078D01*
X120584Y498123D01*
X120597Y498153D01*
X120602Y498166D01*
X120626Y498206D01*
X120657Y498241D01*
X121838Y499422D01*
X121873Y499452D01*
X121913Y499476D01*
X121925Y499482D01*
X121956Y499494D01*
X122001Y499505D01*
X122047Y499509D01*
X123622D01*
X123668Y499505D01*
D02*
G37*
G36*
X444928Y466828D02*
X444973Y466817D01*
X445004Y466805D01*
X445016Y466799D01*
X445056Y466775D01*
X445091Y466745D01*
X446272Y465564D01*
X446303Y465528D01*
X446327Y465489D01*
X446332Y465476D01*
X446345Y465446D01*
X446355Y465401D01*
X446359Y465354D01*
Y463780D01*
X446355Y463733D01*
X446345Y463688D01*
X446332Y463658D01*
X446327Y463645D01*
X446303Y463605D01*
X446272Y463570D01*
X445091Y462389D01*
X445056Y462359D01*
X445016Y462334D01*
X445004Y462329D01*
X444973Y462317D01*
X444928Y462306D01*
X444882Y462302D01*
X443307D01*
X443261Y462306D01*
X443216Y462317D01*
X443185Y462329D01*
X443173Y462334D01*
X443133Y462359D01*
X443098Y462389D01*
X441917Y463570D01*
X441886Y463605D01*
X441862Y463645D01*
X441857Y463658D01*
X441844Y463688D01*
X441833Y463733D01*
X441830Y463780D01*
Y465354D01*
X441833Y465401D01*
X441844Y465446D01*
X441857Y465476D01*
X441862Y465489D01*
X441886Y465528D01*
X441917Y465564D01*
X443098Y466745D01*
X443133Y466775D01*
X443173Y466799D01*
X443185Y466805D01*
X443216Y466817D01*
X443261Y466828D01*
X443307Y466832D01*
X444882D01*
X444928Y466828D01*
D02*
G37*
G36*
X1027314Y447265D02*
X1012766D01*
X1015948Y452777D01*
X1024131D01*
X1028223Y459864D01*
X1034587D01*
X1027314Y447265D01*
D02*
G37*
G36*
X1015896Y427580D02*
X1001349D01*
X1004531Y433092D01*
X1012714D01*
X1016805Y440179D01*
X1023170D01*
X1015896Y427580D01*
D02*
G37*
G36*
X733511Y431395D02*
X733556Y431384D01*
X733586Y431371D01*
X733599Y431366D01*
X733639Y431342D01*
X733674Y431312D01*
X734855Y430131D01*
X734885Y430095D01*
X734910Y430056D01*
X734915Y430043D01*
X734927Y430013D01*
X734938Y429968D01*
X734942Y429921D01*
Y428346D01*
X734938Y428300D01*
X734927Y428255D01*
X734915Y428225D01*
X734910Y428212D01*
X734885Y428172D01*
X734855Y428137D01*
X733674Y426956D01*
X733639Y426926D01*
X733599Y426901D01*
X733586Y426896D01*
X733556Y426884D01*
X733511Y426873D01*
X733465Y426869D01*
X731890D01*
X731843Y426873D01*
X731798Y426884D01*
X731768Y426896D01*
X731755Y426901D01*
X731716Y426926D01*
X731680Y426956D01*
X730499Y428137D01*
X730469Y428172D01*
X730445Y428212D01*
X730440Y428225D01*
X730427Y428255D01*
X730416Y428300D01*
X730412Y428346D01*
Y429921D01*
X730416Y429968D01*
X730427Y430013D01*
X730440Y430043D01*
X730445Y430056D01*
X730469Y430095D01*
X730499Y430131D01*
X731680Y431312D01*
X731716Y431342D01*
X731755Y431366D01*
X731768Y431371D01*
X731798Y431384D01*
X731843Y431395D01*
X731890Y431398D01*
X733465D01*
X733511Y431395D01*
D02*
G37*
G36*
X1027314Y407896D02*
X1012766D01*
X1015948Y413407D01*
X1024131D01*
X1028223Y420494D01*
X1034587D01*
X1027314Y407896D01*
D02*
G37*
G36*
X734692Y401474D02*
X734737Y401463D01*
X734768Y401450D01*
X734780Y401445D01*
X734820Y401421D01*
X734855Y401391D01*
X736036Y400209D01*
X736066Y400174D01*
X736091Y400135D01*
X736096Y400122D01*
X736108Y400092D01*
X736119Y400046D01*
X736123Y400000D01*
Y398425D01*
X736119Y398379D01*
X736108Y398334D01*
X736096Y398303D01*
X736091Y398291D01*
X736066Y398251D01*
X736036Y398216D01*
X734855Y397035D01*
X734820Y397005D01*
X734780Y396980D01*
X734768Y396975D01*
X734737Y396962D01*
X734692Y396952D01*
X734646Y396948D01*
X733071D01*
X733025Y396952D01*
X732979Y396962D01*
X732949Y396975D01*
X732936Y396980D01*
X732897Y397005D01*
X732861Y397035D01*
X731680Y398216D01*
X731650Y398251D01*
X731626Y398291D01*
X731621Y398303D01*
X731608Y398334D01*
X731597Y398379D01*
X731594Y398425D01*
Y400000D01*
X731597Y400046D01*
X731608Y400092D01*
X731621Y400122D01*
X731626Y400135D01*
X731650Y400174D01*
X731680Y400209D01*
X732861Y401391D01*
X732897Y401421D01*
X732936Y401445D01*
X732949Y401450D01*
X732979Y401463D01*
X733025Y401474D01*
X733071Y401477D01*
X734646D01*
X734692Y401474D01*
D02*
G37*
G36*
X723668Y394387D02*
X723714Y394376D01*
X723744Y394364D01*
X723757Y394358D01*
X723796Y394334D01*
X723832Y394304D01*
X725013Y393123D01*
X725043Y393088D01*
X725067Y393048D01*
X725072Y393035D01*
X725085Y393005D01*
X725096Y392960D01*
X725099Y392913D01*
Y391339D01*
X725096Y391292D01*
X725085Y391247D01*
X725072Y391217D01*
X725067Y391204D01*
X725043Y391164D01*
X725013Y391129D01*
X723832Y389948D01*
X723796Y389918D01*
X723757Y389894D01*
X723744Y389888D01*
X723714Y389876D01*
X723668Y389865D01*
X723622Y389861D01*
X722047D01*
X722001Y389865D01*
X721956Y389876D01*
X721925Y389888D01*
X721913Y389894D01*
X721873Y389918D01*
X721838Y389948D01*
X720657Y391129D01*
X720626Y391164D01*
X720602Y391204D01*
X720597Y391217D01*
X720584Y391247D01*
X720574Y391292D01*
X720570Y391339D01*
Y392913D01*
X720574Y392960D01*
X720584Y393005D01*
X720597Y393035D01*
X720602Y393048D01*
X720626Y393088D01*
X720657Y393123D01*
X721838Y394304D01*
X721873Y394334D01*
X721913Y394358D01*
X721925Y394364D01*
X721956Y394376D01*
X722001Y394387D01*
X722047Y394391D01*
X723622D01*
X723668Y394387D01*
D02*
G37*
G36*
X944928Y312104D02*
X944973Y312093D01*
X945004Y312080D01*
X945016Y312075D01*
X945056Y312051D01*
X945091Y312020D01*
X946272Y310839D01*
X946303Y310804D01*
X946327Y310764D01*
X946332Y310752D01*
X946345Y310721D01*
X946356Y310676D01*
X946359Y310630D01*
Y309055D01*
X946356Y309009D01*
X946345Y308964D01*
X946332Y308933D01*
X946327Y308921D01*
X946303Y308881D01*
X946272Y308846D01*
X945091Y307665D01*
X945056Y307634D01*
X945016Y307610D01*
X945004Y307605D01*
X944973Y307592D01*
X944928Y307581D01*
X944882Y307578D01*
X943307D01*
X943261Y307581D01*
X943215Y307592D01*
X943185Y307605D01*
X943173Y307610D01*
X943133Y307634D01*
X943098Y307665D01*
X941916Y308846D01*
X941886Y308881D01*
X941862Y308921D01*
X941857Y308933D01*
X941844Y308964D01*
X941833Y309009D01*
X941830Y309055D01*
Y310630D01*
X941833Y310676D01*
X941844Y310721D01*
X941857Y310752D01*
X941862Y310764D01*
X941886Y310804D01*
X941916Y310839D01*
X943098Y312020D01*
X943133Y312051D01*
X943173Y312075D01*
X943185Y312080D01*
X943215Y312093D01*
X943261Y312104D01*
X943307Y312107D01*
X944882D01*
X944928Y312104D01*
D02*
G37*
G36*
X907133D02*
X907178Y312093D01*
X907209Y312080D01*
X907221Y312075D01*
X907261Y312051D01*
X907296Y312020D01*
X908477Y310839D01*
X908507Y310804D01*
X908532Y310764D01*
X908537Y310752D01*
X908549Y310721D01*
X908560Y310676D01*
X908564Y310630D01*
Y309055D01*
X908560Y309009D01*
X908549Y308964D01*
X908537Y308933D01*
X908532Y308921D01*
X908507Y308881D01*
X908477Y308846D01*
X907296Y307665D01*
X907261Y307634D01*
X907221Y307610D01*
X907209Y307605D01*
X907178Y307592D01*
X907133Y307581D01*
X907087Y307578D01*
X905512D01*
X905466Y307581D01*
X905420Y307592D01*
X905390Y307605D01*
X905377Y307610D01*
X905338Y307634D01*
X905302Y307665D01*
X904121Y308846D01*
X904091Y308881D01*
X904067Y308921D01*
X904062Y308933D01*
X904049Y308964D01*
X904038Y309009D01*
X904035Y309055D01*
Y310630D01*
X904038Y310676D01*
X904049Y310721D01*
X904062Y310752D01*
X904067Y310764D01*
X904091Y310804D01*
X904121Y310839D01*
X905302Y312020D01*
X905338Y312051D01*
X905377Y312075D01*
X905390Y312080D01*
X905420Y312093D01*
X905466Y312104D01*
X905512Y312107D01*
X907087D01*
X907133Y312104D01*
D02*
G37*
G36*
X953590Y286513D02*
X953635Y286502D01*
X953665Y286490D01*
X953678Y286484D01*
X953717Y286460D01*
X953753Y286430D01*
X954934Y285249D01*
X954964Y285213D01*
X954988Y285174D01*
X954994Y285161D01*
X955006Y285131D01*
X955017Y285086D01*
X955021Y285039D01*
Y283465D01*
X955017Y283418D01*
X955006Y283373D01*
X954994Y283343D01*
X954988Y283330D01*
X954964Y283291D01*
X954934Y283255D01*
X953753Y282074D01*
X953717Y282044D01*
X953678Y282019D01*
X953665Y282014D01*
X953635Y282002D01*
X953590Y281991D01*
X953543Y281987D01*
X951968D01*
X951922Y281991D01*
X951877Y282002D01*
X951847Y282014D01*
X951834Y282019D01*
X951794Y282044D01*
X951759Y282074D01*
X950578Y283255D01*
X950548Y283291D01*
X950523Y283330D01*
X950518Y283343D01*
X950506Y283373D01*
X950495Y283418D01*
X950491Y283465D01*
Y285039D01*
X950495Y285086D01*
X950506Y285131D01*
X950518Y285161D01*
X950523Y285174D01*
X950548Y285213D01*
X950578Y285249D01*
X951759Y286430D01*
X951794Y286460D01*
X951834Y286484D01*
X951847Y286490D01*
X951877Y286502D01*
X951922Y286513D01*
X951968Y286517D01*
X953543D01*
X953590Y286513D01*
D02*
G37*
G36*
X1009889Y281395D02*
X1009934Y281384D01*
X1009964Y281371D01*
X1009977Y281366D01*
X1010017Y281342D01*
X1010052Y281312D01*
X1011233Y280131D01*
X1011263Y280095D01*
X1011287Y280056D01*
X1011293Y280043D01*
X1011305Y280013D01*
X1011316Y279968D01*
X1011320Y279921D01*
Y278346D01*
X1011316Y278300D01*
X1011305Y278255D01*
X1011293Y278224D01*
X1011287Y278212D01*
X1011263Y278172D01*
X1011233Y278137D01*
X1010052Y276956D01*
X1010017Y276926D01*
X1009977Y276901D01*
X1009964Y276896D01*
X1009934Y276884D01*
X1009889Y276873D01*
X1009842Y276869D01*
X1008268D01*
X1008221Y276873D01*
X1008176Y276884D01*
X1008146Y276896D01*
X1008133Y276901D01*
X1008094Y276926D01*
X1008058Y276956D01*
X1006877Y278137D01*
X1006847Y278172D01*
X1006823Y278212D01*
X1006818Y278224D01*
X1006805Y278255D01*
X1006794Y278300D01*
X1006790Y278346D01*
Y279921D01*
X1006794Y279968D01*
X1006805Y280013D01*
X1006818Y280043D01*
X1006823Y280056D01*
X1006847Y280095D01*
X1006877Y280131D01*
X1008058Y281312D01*
X1008094Y281342D01*
X1008133Y281366D01*
X1008146Y281371D01*
X1008176Y281384D01*
X1008221Y281395D01*
X1008268Y281399D01*
X1009842D01*
X1009889Y281395D01*
D02*
G37*
G36*
X1005952Y275096D02*
X1005997Y275085D01*
X1006027Y275072D01*
X1006040Y275067D01*
X1006080Y275043D01*
X1006115Y275013D01*
X1007296Y273832D01*
X1007326Y273796D01*
X1007351Y273757D01*
X1007356Y273744D01*
X1007368Y273714D01*
X1007379Y273668D01*
X1007383Y273622D01*
Y272047D01*
X1007379Y272001D01*
X1007368Y271956D01*
X1007356Y271925D01*
X1007351Y271913D01*
X1007326Y271873D01*
X1007296Y271838D01*
X1006115Y270657D01*
X1006080Y270626D01*
X1006040Y270602D01*
X1006027Y270597D01*
X1005997Y270584D01*
X1005952Y270574D01*
X1005906Y270570D01*
X1004331D01*
X1004284Y270574D01*
X1004239Y270584D01*
X1004209Y270597D01*
X1004196Y270602D01*
X1004157Y270626D01*
X1004121Y270657D01*
X1002940Y271838D01*
X1002910Y271873D01*
X1002886Y271913D01*
X1002880Y271925D01*
X1002868Y271956D01*
X1002857Y272001D01*
X1002853Y272047D01*
Y273622D01*
X1002857Y273668D01*
X1002868Y273714D01*
X1002880Y273744D01*
X1002886Y273757D01*
X1002910Y273796D01*
X1002940Y273832D01*
X1004121Y275013D01*
X1004157Y275043D01*
X1004196Y275067D01*
X1004209Y275072D01*
X1004239Y275085D01*
X1004284Y275096D01*
X1004331Y275099D01*
X1005906D01*
X1005952Y275096D01*
D02*
G37*
G36*
X950046Y252655D02*
X950091Y252644D01*
X950122Y252631D01*
X950134Y252626D01*
X950174Y252602D01*
X950209Y252572D01*
X951390Y251391D01*
X951421Y251355D01*
X951445Y251316D01*
X951450Y251303D01*
X951463Y251273D01*
X951474Y251227D01*
X951477Y251181D01*
Y249606D01*
X951474Y249560D01*
X951463Y249515D01*
X951450Y249484D01*
X951445Y249472D01*
X951421Y249432D01*
X951390Y249397D01*
X950209Y248216D01*
X950174Y248186D01*
X950134Y248161D01*
X950122Y248156D01*
X950091Y248144D01*
X950046Y248133D01*
X950000Y248129D01*
X948425D01*
X948379Y248133D01*
X948334Y248144D01*
X948303Y248156D01*
X948291Y248161D01*
X948251Y248186D01*
X948216Y248216D01*
X947035Y249397D01*
X947005Y249432D01*
X946980Y249472D01*
X946975Y249484D01*
X946962Y249515D01*
X946951Y249560D01*
X946948Y249606D01*
Y251181D01*
X946951Y251227D01*
X946962Y251273D01*
X946975Y251303D01*
X946980Y251316D01*
X947005Y251355D01*
X947035Y251391D01*
X948216Y252572D01*
X948251Y252602D01*
X948291Y252626D01*
X948303Y252631D01*
X948334Y252644D01*
X948379Y252655D01*
X948425Y252658D01*
X950000D01*
X950046Y252655D01*
D02*
G37*
G36*
X763472Y249151D02*
X763517Y249140D01*
X763547Y249127D01*
X763560Y249122D01*
X763599Y249098D01*
X763635Y249068D01*
X764816Y247887D01*
X764846Y247851D01*
X764870Y247812D01*
X764875Y247799D01*
X764888Y247769D01*
X764899Y247724D01*
X764902Y247677D01*
Y246102D01*
X764899Y246056D01*
X764888Y246011D01*
X764875Y245981D01*
X764870Y245968D01*
X764846Y245928D01*
X764816Y245893D01*
X763635Y244712D01*
X763599Y244682D01*
X763560Y244657D01*
X763547Y244652D01*
X763517Y244639D01*
X763472Y244629D01*
X763425Y244625D01*
X761850D01*
X761804Y244629D01*
X761759Y244639D01*
X761728Y244652D01*
X761716Y244657D01*
X761676Y244682D01*
X761641Y244712D01*
X760460Y245893D01*
X760430Y245928D01*
X760405Y245968D01*
X760400Y245981D01*
X760388Y246011D01*
X760377Y246056D01*
X760373Y246102D01*
Y247677D01*
X760377Y247724D01*
X760388Y247769D01*
X760400Y247799D01*
X760405Y247812D01*
X760430Y247851D01*
X760460Y247887D01*
X761641Y249068D01*
X761676Y249098D01*
X761716Y249122D01*
X761728Y249127D01*
X761759Y249140D01*
X761804Y249151D01*
X761850Y249154D01*
X763425D01*
X763472Y249151D01*
D02*
G37*
G36*
X576464D02*
X576509Y249140D01*
X576539Y249127D01*
X576552Y249122D01*
X576591Y249098D01*
X576627Y249068D01*
X577808Y247887D01*
X577838Y247851D01*
X577862Y247812D01*
X577868Y247799D01*
X577880Y247769D01*
X577891Y247724D01*
X577895Y247677D01*
Y246102D01*
X577891Y246056D01*
X577880Y246011D01*
X577868Y245981D01*
X577862Y245968D01*
X577838Y245928D01*
X577808Y245893D01*
X576627Y244712D01*
X576591Y244682D01*
X576552Y244657D01*
X576539Y244652D01*
X576509Y244639D01*
X576464Y244629D01*
X576417Y244625D01*
X574843D01*
X574796Y244629D01*
X574751Y244639D01*
X574721Y244652D01*
X574708Y244657D01*
X574668Y244682D01*
X574633Y244712D01*
X573452Y245893D01*
X573422Y245928D01*
X573397Y245968D01*
X573392Y245981D01*
X573380Y246011D01*
X573369Y246056D01*
X573365Y246102D01*
Y247677D01*
X573369Y247724D01*
X573380Y247769D01*
X573392Y247799D01*
X573397Y247812D01*
X573422Y247851D01*
X573452Y247887D01*
X574633Y249068D01*
X574668Y249098D01*
X574708Y249122D01*
X574721Y249127D01*
X574751Y249140D01*
X574796Y249151D01*
X574843Y249154D01*
X576417D01*
X576464Y249151D01*
D02*
G37*
G36*
X763472Y243639D02*
X763517Y243628D01*
X763547Y243616D01*
X763560Y243610D01*
X763599Y243586D01*
X763635Y243556D01*
X764816Y242375D01*
X764846Y242339D01*
X764870Y242300D01*
X764875Y242287D01*
X764888Y242257D01*
X764899Y242212D01*
X764902Y242165D01*
Y240591D01*
X764899Y240544D01*
X764888Y240499D01*
X764875Y240469D01*
X764870Y240456D01*
X764846Y240416D01*
X764816Y240381D01*
X763635Y239200D01*
X763599Y239170D01*
X763560Y239145D01*
X763547Y239140D01*
X763517Y239128D01*
X763472Y239117D01*
X763425Y239113D01*
X761850D01*
X761804Y239117D01*
X761759Y239128D01*
X761728Y239140D01*
X761716Y239145D01*
X761676Y239170D01*
X761641Y239200D01*
X760460Y240381D01*
X760430Y240416D01*
X760405Y240456D01*
X760400Y240469D01*
X760388Y240499D01*
X760377Y240544D01*
X760373Y240591D01*
Y242165D01*
X760377Y242212D01*
X760388Y242257D01*
X760400Y242287D01*
X760405Y242300D01*
X760430Y242339D01*
X760460Y242375D01*
X761641Y243556D01*
X761676Y243586D01*
X761716Y243610D01*
X761728Y243616D01*
X761759Y243628D01*
X761804Y243639D01*
X761850Y243643D01*
X763425D01*
X763472Y243639D01*
D02*
G37*
G36*
X576464D02*
X576509Y243628D01*
X576539Y243616D01*
X576552Y243610D01*
X576591Y243586D01*
X576627Y243556D01*
X577808Y242375D01*
X577838Y242339D01*
X577862Y242300D01*
X577868Y242287D01*
X577880Y242257D01*
X577891Y242212D01*
X577895Y242165D01*
Y240591D01*
X577891Y240544D01*
X577880Y240499D01*
X577868Y240469D01*
X577862Y240456D01*
X577838Y240416D01*
X577808Y240381D01*
X576627Y239200D01*
X576591Y239170D01*
X576552Y239145D01*
X576539Y239140D01*
X576509Y239128D01*
X576464Y239117D01*
X576417Y239113D01*
X574843D01*
X574796Y239117D01*
X574751Y239128D01*
X574721Y239140D01*
X574708Y239145D01*
X574668Y239170D01*
X574633Y239200D01*
X573452Y240381D01*
X573422Y240416D01*
X573397Y240456D01*
X573392Y240469D01*
X573380Y240499D01*
X573369Y240544D01*
X573365Y240591D01*
Y242165D01*
X573369Y242212D01*
X573380Y242257D01*
X573392Y242287D01*
X573397Y242300D01*
X573422Y242339D01*
X573452Y242375D01*
X574633Y243556D01*
X574668Y243586D01*
X574708Y243610D01*
X574721Y243616D01*
X574751Y243628D01*
X574796Y243639D01*
X574843Y243643D01*
X576417D01*
X576464Y243639D01*
D02*
G37*
G36*
X1005558Y239663D02*
X1005603Y239652D01*
X1005634Y239639D01*
X1005646Y239634D01*
X1005686Y239610D01*
X1005721Y239580D01*
X1006902Y238398D01*
X1006933Y238363D01*
X1006957Y238323D01*
X1006962Y238311D01*
X1006975Y238281D01*
X1006985Y238235D01*
X1006989Y238189D01*
Y236614D01*
X1006985Y236568D01*
X1006975Y236523D01*
X1006962Y236492D01*
X1006957Y236480D01*
X1006933Y236440D01*
X1006902Y236405D01*
X1005721Y235224D01*
X1005686Y235193D01*
X1005646Y235169D01*
X1005634Y235164D01*
X1005603Y235151D01*
X1005558Y235140D01*
X1005512Y235137D01*
X1003937D01*
X1003891Y235140D01*
X1003846Y235151D01*
X1003815Y235164D01*
X1003802Y235169D01*
X1003763Y235193D01*
X1003728Y235224D01*
X1002547Y236405D01*
X1002516Y236440D01*
X1002492Y236480D01*
X1002487Y236492D01*
X1002474Y236523D01*
X1002463Y236568D01*
X1002460Y236614D01*
Y238189D01*
X1002463Y238235D01*
X1002474Y238281D01*
X1002487Y238311D01*
X1002492Y238323D01*
X1002516Y238363D01*
X1002547Y238398D01*
X1003728Y239580D01*
X1003763Y239610D01*
X1003802Y239634D01*
X1003815Y239639D01*
X1003846Y239652D01*
X1003891Y239663D01*
X1003937Y239666D01*
X1005512D01*
X1005558Y239663D01*
D02*
G37*
G36*
X945322Y236119D02*
X945367Y236108D01*
X945397Y236096D01*
X945410Y236091D01*
X945450Y236066D01*
X945485Y236036D01*
X946666Y234855D01*
X946696Y234820D01*
X946721Y234780D01*
X946726Y234768D01*
X946738Y234737D01*
X946749Y234692D01*
X946753Y234646D01*
Y233071D01*
X946749Y233025D01*
X946738Y232979D01*
X946726Y232949D01*
X946721Y232936D01*
X946696Y232897D01*
X946666Y232861D01*
X945485Y231680D01*
X945450Y231650D01*
X945410Y231626D01*
X945397Y231621D01*
X945367Y231608D01*
X945322Y231597D01*
X945276Y231594D01*
X943701D01*
X943654Y231597D01*
X943609Y231608D01*
X943579Y231621D01*
X943566Y231626D01*
X943527Y231650D01*
X943491Y231680D01*
X942310Y232861D01*
X942280Y232897D01*
X942256Y232936D01*
X942251Y232949D01*
X942238Y232979D01*
X942227Y233025D01*
X942223Y233071D01*
Y234646D01*
X942227Y234692D01*
X942238Y234737D01*
X942251Y234768D01*
X942256Y234780D01*
X942280Y234820D01*
X942310Y234855D01*
X943491Y236036D01*
X943527Y236066D01*
X943566Y236091D01*
X943579Y236096D01*
X943609Y236108D01*
X943654Y236119D01*
X943701Y236123D01*
X945276D01*
X945322Y236119D01*
D02*
G37*
G36*
X939023D02*
X939068Y236108D01*
X939098Y236096D01*
X939111Y236091D01*
X939151Y236066D01*
X939186Y236036D01*
X940367Y234855D01*
X940397Y234820D01*
X940421Y234780D01*
X940427Y234768D01*
X940439Y234737D01*
X940450Y234692D01*
X940454Y234646D01*
Y233071D01*
X940450Y233025D01*
X940439Y232979D01*
X940427Y232949D01*
X940421Y232936D01*
X940397Y232897D01*
X940367Y232861D01*
X939186Y231680D01*
X939151Y231650D01*
X939111Y231626D01*
X939098Y231621D01*
X939068Y231608D01*
X939023Y231597D01*
X938976Y231594D01*
X937402D01*
X937355Y231597D01*
X937310Y231608D01*
X937280Y231621D01*
X937267Y231626D01*
X937228Y231650D01*
X937192Y231680D01*
X936011Y232861D01*
X935981Y232897D01*
X935957Y232936D01*
X935951Y232949D01*
X935939Y232979D01*
X935928Y233025D01*
X935924Y233071D01*
Y234646D01*
X935928Y234692D01*
X935939Y234737D01*
X935951Y234768D01*
X935957Y234780D01*
X935981Y234820D01*
X936011Y234855D01*
X937192Y236036D01*
X937228Y236066D01*
X937267Y236091D01*
X937280Y236096D01*
X937310Y236108D01*
X937355Y236119D01*
X937402Y236123D01*
X938976D01*
X939023Y236119D01*
D02*
G37*
G36*
X1001865Y232191D02*
X1001911Y232180D01*
X1001941Y232167D01*
X1001954Y232162D01*
X1001993Y232138D01*
X1002029Y232108D01*
X1003210Y230926D01*
X1003240Y230891D01*
X1003264Y230852D01*
X1003269Y230839D01*
X1003282Y230809D01*
X1003293Y230763D01*
X1003296Y230717D01*
Y229142D01*
X1003293Y229096D01*
X1003282Y229051D01*
X1003269Y229020D01*
X1003264Y229008D01*
X1003240Y228968D01*
X1003210Y228933D01*
X1002029Y227752D01*
X1001993Y227722D01*
X1001954Y227697D01*
X1001941Y227692D01*
X1001911Y227679D01*
X1001865Y227669D01*
X1001819Y227665D01*
X1000244D01*
X1000198Y227669D01*
X1000153Y227679D01*
X1000123Y227692D01*
X1000110Y227697D01*
X1000070Y227722D01*
X1000035Y227752D01*
X998854Y228933D01*
X998824Y228968D01*
X998799Y229008D01*
X998794Y229020D01*
X998781Y229051D01*
X998771Y229096D01*
X998767Y229142D01*
Y230717D01*
X998771Y230763D01*
X998781Y230809D01*
X998794Y230839D01*
X998799Y230852D01*
X998824Y230891D01*
X998854Y230926D01*
X1000035Y232108D01*
X1000070Y232138D01*
X1000110Y232162D01*
X1000123Y232167D01*
X1000153Y232180D01*
X1000198Y232191D01*
X1000244Y232194D01*
X1001819D01*
X1001865Y232191D01*
D02*
G37*
G36*
X915007Y224702D02*
X915052Y224691D01*
X915082Y224679D01*
X915095Y224673D01*
X915135Y224649D01*
X915170Y224619D01*
X916351Y223438D01*
X916381Y223402D01*
X916406Y223363D01*
X916411Y223350D01*
X916423Y223320D01*
X916434Y223275D01*
X916438Y223228D01*
Y221654D01*
X916434Y221607D01*
X916423Y221562D01*
X916411Y221532D01*
X916406Y221519D01*
X916381Y221479D01*
X916351Y221444D01*
X915170Y220263D01*
X915135Y220233D01*
X915095Y220209D01*
X915082Y220203D01*
X915052Y220191D01*
X915007Y220180D01*
X914961Y220176D01*
X913386D01*
X913340Y220180D01*
X913294Y220191D01*
X913264Y220203D01*
X913251Y220209D01*
X913212Y220233D01*
X913176Y220263D01*
X911995Y221444D01*
X911965Y221479D01*
X911941Y221519D01*
X911936Y221532D01*
X911923Y221562D01*
X911912Y221607D01*
X911909Y221654D01*
Y223228D01*
X911912Y223275D01*
X911923Y223320D01*
X911936Y223350D01*
X911941Y223363D01*
X911965Y223402D01*
X911995Y223438D01*
X913176Y224619D01*
X913212Y224649D01*
X913251Y224673D01*
X913264Y224679D01*
X913294Y224691D01*
X913340Y224702D01*
X913386Y224706D01*
X914961D01*
X915007Y224702D01*
D02*
G37*
G36*
X961070Y210135D02*
X961115Y210124D01*
X961145Y210112D01*
X961158Y210106D01*
X961198Y210082D01*
X961233Y210052D01*
X962414Y208871D01*
X962444Y208836D01*
X962469Y208796D01*
X962474Y208783D01*
X962486Y208753D01*
X962497Y208708D01*
X962501Y208661D01*
Y207087D01*
X962497Y207040D01*
X962486Y206995D01*
X962474Y206965D01*
X962469Y206952D01*
X962444Y206912D01*
X962414Y206877D01*
X961233Y205696D01*
X961198Y205666D01*
X961158Y205642D01*
X961145Y205636D01*
X961115Y205624D01*
X961070Y205613D01*
X961024Y205609D01*
X959449D01*
X959402Y205613D01*
X959357Y205624D01*
X959327Y205636D01*
X959314Y205642D01*
X959275Y205666D01*
X959239Y205696D01*
X958058Y206877D01*
X958028Y206912D01*
X958004Y206952D01*
X957999Y206965D01*
X957986Y206995D01*
X957975Y207040D01*
X957971Y207087D01*
Y208661D01*
X957975Y208708D01*
X957986Y208753D01*
X957999Y208783D01*
X958004Y208796D01*
X958028Y208836D01*
X958058Y208871D01*
X959239Y210052D01*
X959275Y210082D01*
X959314Y210106D01*
X959327Y210112D01*
X959357Y210124D01*
X959402Y210135D01*
X959449Y210139D01*
X961024D01*
X961070Y210135D01*
D02*
G37*
G36*
X959101Y201080D02*
X959147Y201069D01*
X959177Y201057D01*
X959190Y201051D01*
X959229Y201027D01*
X959265Y200997D01*
X960446Y199816D01*
X960476Y199780D01*
X960500Y199741D01*
X960505Y199728D01*
X960518Y199698D01*
X960529Y199653D01*
X960532Y199606D01*
Y198031D01*
X960529Y197985D01*
X960518Y197940D01*
X960505Y197910D01*
X960500Y197897D01*
X960476Y197857D01*
X960446Y197822D01*
X959265Y196641D01*
X959229Y196611D01*
X959190Y196587D01*
X959177Y196581D01*
X959147Y196569D01*
X959101Y196558D01*
X959055Y196554D01*
X957480D01*
X957434Y196558D01*
X957389Y196569D01*
X957358Y196581D01*
X957346Y196587D01*
X957306Y196611D01*
X957271Y196641D01*
X956090Y197822D01*
X956060Y197857D01*
X956035Y197897D01*
X956030Y197910D01*
X956017Y197940D01*
X956007Y197985D01*
X956003Y198031D01*
Y199606D01*
X956007Y199653D01*
X956017Y199698D01*
X956030Y199728D01*
X956035Y199741D01*
X956060Y199780D01*
X956090Y199816D01*
X957271Y200997D01*
X957306Y201027D01*
X957346Y201051D01*
X957358Y201057D01*
X957389Y201069D01*
X957434Y201080D01*
X957480Y201084D01*
X959055D01*
X959101Y201080D01*
D02*
G37*
G36*
X746936Y137733D02*
X746981Y137723D01*
X747012Y137710D01*
X747024Y137705D01*
X747064Y137681D01*
X747099Y137650D01*
X748280Y136469D01*
X748311Y136434D01*
X748335Y136394D01*
X748340Y136382D01*
X748353Y136351D01*
X748363Y136306D01*
X748367Y136260D01*
Y134685D01*
X748363Y134639D01*
X748353Y134593D01*
X748340Y134563D01*
X748335Y134550D01*
X748311Y134511D01*
X748280Y134476D01*
X747099Y133294D01*
X747064Y133264D01*
X747024Y133240D01*
X747012Y133235D01*
X746981Y133222D01*
X746936Y133211D01*
X746890Y133208D01*
X745315D01*
X745269Y133211D01*
X745223Y133222D01*
X745193Y133235D01*
X745181Y133240D01*
X745141Y133264D01*
X745106Y133294D01*
X743924Y134476D01*
X743894Y134511D01*
X743870Y134550D01*
X743865Y134563D01*
X743852Y134593D01*
X743841Y134639D01*
X743838Y134685D01*
Y136260D01*
X743841Y136306D01*
X743852Y136351D01*
X743865Y136382D01*
X743870Y136394D01*
X743894Y136434D01*
X743924Y136469D01*
X745106Y137650D01*
X745141Y137681D01*
X745181Y137705D01*
X745193Y137710D01*
X745223Y137723D01*
X745269Y137733D01*
X745315Y137737D01*
X746890D01*
X746936Y137733D01*
D02*
G37*
G36*
X656779Y136946D02*
X656824Y136935D01*
X656854Y136923D01*
X656867Y136917D01*
X656906Y136893D01*
X656942Y136863D01*
X658123Y135682D01*
X658153Y135646D01*
X658177Y135607D01*
X658182Y135594D01*
X658195Y135564D01*
X658206Y135519D01*
X658210Y135472D01*
Y133898D01*
X658206Y133851D01*
X658195Y133806D01*
X658182Y133776D01*
X658177Y133763D01*
X658153Y133723D01*
X658123Y133688D01*
X656942Y132507D01*
X656906Y132477D01*
X656867Y132453D01*
X656854Y132447D01*
X656824Y132435D01*
X656779Y132424D01*
X656732Y132420D01*
X655158D01*
X655111Y132424D01*
X655066Y132435D01*
X655036Y132447D01*
X655023Y132453D01*
X654983Y132477D01*
X654948Y132507D01*
X653767Y133688D01*
X653737Y133723D01*
X653712Y133763D01*
X653707Y133776D01*
X653695Y133806D01*
X653684Y133851D01*
X653680Y133898D01*
Y135472D01*
X653684Y135519D01*
X653695Y135564D01*
X653707Y135594D01*
X653712Y135607D01*
X653737Y135646D01*
X653767Y135682D01*
X654948Y136863D01*
X654983Y136893D01*
X655023Y136917D01*
X655036Y136923D01*
X655066Y136935D01*
X655111Y136946D01*
X655158Y136950D01*
X656732D01*
X656779Y136946D01*
D02*
G37*
D30*
X1001966Y560630D02*
Y565878D01*
Y563254D01*
X994094D01*
X1000654Y573749D02*
X1001966Y572437D01*
Y569813D01*
X1000654Y568501D01*
X999342D01*
X998030Y569813D01*
Y572437D01*
X996718Y573749D01*
X995406D01*
X994094Y572437D01*
Y569813D01*
X995406Y568501D01*
X1000654Y576373D02*
X1001966Y577685D01*
Y580309D01*
X1000654Y581621D01*
X999342D01*
X998030Y580309D01*
Y578997D01*
Y580309D01*
X996718Y581621D01*
X995406D01*
X994094Y580309D01*
Y577685D01*
X995406Y576373D01*
D34*
X899168Y400983D02*
X900348Y399802D01*
Y397441D01*
X899168Y396260D01*
X897987D01*
X896806Y397441D01*
Y399802D01*
X895626Y400983D01*
X894445D01*
X893264Y399802D01*
Y397441D01*
X894445Y396260D01*
X893264Y404525D02*
Y406886D01*
X894445Y408067D01*
X896806D01*
X897987Y406886D01*
Y404525D01*
X896806Y403344D01*
X894445D01*
X893264Y404525D01*
Y410428D02*
Y412790D01*
Y411609D01*
X900348D01*
Y410428D01*
X897987Y417513D02*
Y419874D01*
X896806Y421055D01*
X893264D01*
Y417513D01*
X894445Y416332D01*
X895626Y417513D01*
Y421055D01*
X897987Y423416D02*
X893264D01*
X895626D01*
X896806Y424597D01*
X897987Y425778D01*
Y426959D01*
X887595Y396260D02*
X880511D01*
Y399802D01*
X881692Y400983D01*
X882872D01*
X884053Y399802D01*
Y396260D01*
Y399802D01*
X885234Y400983D01*
X886415D01*
X887595Y399802D01*
Y396260D01*
X885234Y404525D02*
Y406886D01*
X884053Y408067D01*
X880511D01*
Y404525D01*
X881692Y403344D01*
X882872Y404525D01*
Y408067D01*
X886415Y411609D02*
X885234D01*
Y410428D01*
Y412790D01*
Y411609D01*
X881692D01*
X880511Y412790D01*
X886415Y417513D02*
X885234D01*
Y416332D01*
Y418693D01*
Y417513D01*
X881692D01*
X880511Y418693D01*
Y425778D02*
Y423416D01*
X881692Y422236D01*
X884053D01*
X885234Y423416D01*
Y425778D01*
X884053Y426959D01*
X882872D01*
Y422236D01*
X885234Y429320D02*
X880511D01*
X882872D01*
X884053Y430501D01*
X885234Y431681D01*
Y432862D01*
Y436404D02*
X881692D01*
X880511Y437585D01*
Y441127D01*
X879330D01*
X878150Y439947D01*
Y438766D01*
X880511Y441127D02*
X885234D01*
X886415Y455296D02*
X887595Y454115D01*
Y451754D01*
X886415Y450573D01*
X881692D01*
X880511Y451754D01*
Y454115D01*
X881692Y455296D01*
X887595Y457657D02*
X880511D01*
X884053D01*
X885234Y458838D01*
Y461199D01*
X884053Y462380D01*
X880511D01*
X885234Y465922D02*
Y468284D01*
X884053Y469464D01*
X880511D01*
Y465922D01*
X881692Y464742D01*
X882872Y465922D01*
Y469464D01*
X885234Y471826D02*
X880511D01*
X882872D01*
X884053Y473007D01*
X885234Y474187D01*
Y475368D01*
X878150Y481272D02*
Y482452D01*
X879330Y483633D01*
X885234D01*
Y480091D01*
X884053Y478910D01*
X881692D01*
X880511Y480091D01*
Y483633D01*
Y489537D02*
Y487175D01*
X881692Y485994D01*
X884053D01*
X885234Y487175D01*
Y489537D01*
X884053Y490717D01*
X882872D01*
Y485994D01*
X885234Y493079D02*
X880511D01*
X882872D01*
X884053Y494260D01*
X885234Y495440D01*
Y496621D01*
D61*
X860945Y321004D02*
D03*
X894961D02*
D03*
X989449D02*
D03*
X955433D02*
D03*
D101*
X894961Y304075D02*
D03*
X860945D02*
D03*
X955433D02*
D03*
X989449D02*
D03*
D102*
X889665Y302106D02*
D03*
X886319D02*
D03*
X882972D02*
D03*
X879626D02*
D03*
X876280D02*
D03*
X872933D02*
D03*
X869587D02*
D03*
X866240D02*
D03*
Y307421D02*
D03*
X869587D02*
D03*
X872933D02*
D03*
X876280D02*
D03*
X879626D02*
D03*
X882972D02*
D03*
X886319D02*
D03*
X889665D02*
D03*
X984153D02*
D03*
X980807D02*
D03*
X977461D02*
D03*
X974114D02*
D03*
X970768D02*
D03*
X967421D02*
D03*
X964075D02*
D03*
X960728D02*
D03*
Y302106D02*
D03*
X964075D02*
D03*
X967421D02*
D03*
X970768D02*
D03*
X974114D02*
D03*
X977461D02*
D03*
X980807D02*
D03*
X984153D02*
D03*
D103*
X894961Y320413D02*
D03*
X860945D02*
D03*
X955433D02*
D03*
X989449D02*
D03*
D105*
X610276Y112638D02*
D03*
X678780D02*
D03*
X722087D02*
D03*
D113*
X1000061Y485538D02*
D03*
X998947Y486652D02*
D03*
X1001174Y484425D02*
D03*
X1002288Y483311D02*
D03*
X1003401Y482198D02*
D03*
X1004515Y481084D02*
D03*
X1005629Y479971D02*
D03*
X1006742Y478857D02*
D03*
X1007856Y477743D02*
D03*
X1008969Y476630D02*
D03*
X1010083Y475516D02*
D03*
X1011196Y474403D02*
D03*
X1012310Y473289D02*
D03*
X1013424Y472176D02*
D03*
X1028095Y495755D02*
D03*
X1026981Y496869D02*
D03*
X1025867Y497982D02*
D03*
X1024754Y499096D02*
D03*
X1018073Y505777D02*
D03*
X1020300Y503550D02*
D03*
X1021413Y502436D02*
D03*
X1022527Y501323D02*
D03*
X1023640Y500209D02*
D03*
X1031435Y492415D02*
D03*
X1030322Y493528D02*
D03*
X1019186Y504664D02*
D03*
X1032549Y491301D02*
D03*
X1029208Y494642D02*
D03*
D114*
X998947Y491301D02*
D03*
X1000061Y492415D02*
D03*
X1001174Y493528D02*
D03*
X1002288Y494642D02*
D03*
X1003401Y495755D02*
D03*
X1004515Y496869D02*
D03*
X1005629Y497982D02*
D03*
X1006742Y499096D02*
D03*
X1007856Y500209D02*
D03*
X1008969Y501323D02*
D03*
X1010083Y502436D02*
D03*
X1011196Y503550D02*
D03*
X1012310Y504664D02*
D03*
X1013424Y505777D02*
D03*
X1018073Y472176D02*
D03*
X1019186Y473289D02*
D03*
X1020300Y474403D02*
D03*
X1021413Y475516D02*
D03*
X1022527Y476630D02*
D03*
X1023640Y477743D02*
D03*
X1024754Y478857D02*
D03*
X1025867Y479971D02*
D03*
X1026981Y481084D02*
D03*
X1028095Y482198D02*
D03*
X1029208Y483311D02*
D03*
X1030322Y484425D02*
D03*
X1031435Y485538D02*
D03*
X1032549Y486652D02*
D03*
D198*
X1023622Y374016D02*
D03*
Y570866D02*
D03*
X885827Y374016D02*
D03*
Y570866D02*
D03*
D199*
X1035039Y374016D02*
D03*
X1015549Y382089D02*
D03*
X1012205Y374016D02*
D03*
X1031695Y365943D02*
D03*
X1023622Y385433D02*
D03*
X1015549Y365943D02*
D03*
X1023622Y362598D02*
D03*
X1031695Y382089D02*
D03*
X1023622Y582283D02*
D03*
X1015549Y562793D02*
D03*
X1023622Y559449D02*
D03*
X1031695Y578939D02*
D03*
X1012205Y570866D02*
D03*
X1031695Y562793D02*
D03*
X1035039Y570866D02*
D03*
X1015549Y578939D02*
D03*
X893900Y365943D02*
D03*
X874409Y374016D02*
D03*
X877754Y382089D02*
D03*
X897244Y374016D02*
D03*
X877754Y365943D02*
D03*
X885827Y385433D02*
D03*
X893900Y382089D02*
D03*
X885827Y362598D02*
D03*
X877754Y562793D02*
D03*
X885827Y582283D02*
D03*
X893900Y578939D02*
D03*
X885827Y559449D02*
D03*
X877754Y578939D02*
D03*
X897244Y570866D02*
D03*
X893900Y562793D02*
D03*
X874409Y570866D02*
D03*
D200*
X520433Y205354D02*
D03*
Y148268D02*
D03*
X109488D02*
D03*
Y205354D02*
D03*
X109449Y404134D02*
D03*
Y461221D02*
D03*
X323622Y461221D02*
D03*
Y404134D02*
D03*
X579528Y461221D02*
D03*
Y404134D02*
D03*
X365354Y404134D02*
D03*
Y461221D02*
D03*
X835433Y461221D02*
D03*
Y404134D02*
D03*
X621260D02*
D03*
Y461221D02*
D03*
X776417Y205354D02*
D03*
Y148268D02*
D03*
X562244Y148268D02*
D03*
Y205354D02*
D03*
D201*
X109646Y237205D02*
D03*
Y266732D02*
D03*
X508071Y512795D02*
D03*
X478543D02*
D03*
D202*
X150197Y237205D02*
D03*
Y266732D02*
D03*
X508071Y472244D02*
D03*
X478543D02*
D03*
D203*
X218110Y232283D02*
D03*
X435433Y295276D02*
D03*
D204*
X185748D02*
D03*
D205*
X448779Y161457D02*
D03*
Y192165D02*
D03*
X181142D02*
D03*
Y161457D02*
D03*
X251969Y417323D02*
D03*
X181102Y448032D02*
D03*
Y417323D02*
D03*
X251969Y448032D02*
D03*
X507874Y448032D02*
D03*
X437008Y448032D02*
D03*
Y417323D02*
D03*
X507874D02*
D03*
X763779Y448032D02*
D03*
Y417323D02*
D03*
X692913D02*
D03*
Y448032D02*
D03*
X704764Y192165D02*
D03*
Y161457D02*
D03*
X633898D02*
D03*
Y192165D02*
D03*
D206*
X511811Y314961D02*
D03*
Y118110D02*
D03*
X118110Y314961D02*
D03*
Y118110D02*
D03*
X314961Y374016D02*
D03*
X118110D02*
D03*
Y570866D02*
D03*
X314961D02*
D03*
X570866Y374016D02*
D03*
X374016D02*
D03*
Y570866D02*
D03*
X570866D02*
D03*
X1023622Y314961D02*
D03*
X826772D02*
D03*
Y118110D02*
D03*
X1023622D02*
D03*
X826772Y374016D02*
D03*
X629921D02*
D03*
Y570866D02*
D03*
X826772D02*
D03*
X767717Y314961D02*
D03*
X570866D02*
D03*
Y118110D02*
D03*
X767717D02*
D03*
D207*
X1016929Y265827D02*
D03*
Y285827D02*
D03*
X996929D02*
D03*
Y265827D02*
D03*
X1016929Y224095D02*
D03*
Y244094D02*
D03*
X996929D02*
D03*
Y224095D02*
D03*
D208*
X610276Y132323D02*
D03*
X626024D02*
D03*
X596496D02*
D03*
X678780D02*
D03*
X694527D02*
D03*
X665000D02*
D03*
X722087D02*
D03*
X737835D02*
D03*
X708307D02*
D03*
D209*
X1022582Y531806D02*
D03*
X1021189Y530414D02*
D03*
X1019798Y529022D02*
D03*
X1018406Y527630D02*
D03*
D210*
X1024943Y534178D02*
D03*
D211*
X1024923Y534855D02*
D03*
D212*
X1016504Y526747D02*
D03*
D213*
X1015338Y527219D02*
D03*
X1023551Y536266D02*
D03*
X1013947Y528611D02*
D03*
X1022160Y537657D02*
D03*
X1012554Y530002D02*
D03*
X1019793Y540024D02*
D03*
X1011163Y531394D02*
D03*
X1018401Y541416D02*
D03*
X1009771Y532786D02*
D03*
X1017009Y542808D02*
D03*
X1008379Y534178D02*
D03*
X1015617Y544200D02*
D03*
X1006987Y535570D02*
D03*
X1014225Y545592D02*
D03*
X1005595Y536962D02*
D03*
X1012833Y546984D02*
D03*
X1004203Y538354D02*
D03*
D214*
X1012320Y538869D02*
D03*
D215*
X1015368Y543114D02*
D03*
X1008073Y535819D02*
D03*
D216*
X896850Y475591D02*
Y468504D01*
X907087Y458268D01*
X939764D01*
X942520Y461024D02*
X939764Y458268D01*
X942520Y461024D02*
X960236D01*
X963386Y457874D01*
X970473Y450787D01*
Y439764D01*
X977953Y432283D01*
X992913D01*
X996850Y428346D01*
Y425197D01*
X954724Y585433D02*
X954725Y566142D01*
X946850Y585433D02*
Y565748D01*
X986220Y364173D02*
Y359449D01*
X978347Y364173D02*
X978347Y359449D01*
X954725Y360236D02*
X954724Y359449D01*
X946850Y360236D02*
Y359449D01*
X925197Y364173D02*
X925197Y359449D01*
X917323Y360236D02*
X917323Y359449D01*
Y585433D02*
Y557087D01*
X925197Y585433D02*
Y561024D01*
X978347Y585433D02*
Y564961D01*
X986220Y585433D02*
Y568898D01*
D217*
X1015748Y488976D02*
D03*
M02*
