G04*
G04 #@! TF.GenerationSoftware,Altium Limited,Altium Designer,23.7.1 (13)*
G04*
G04 Layer_Color=16777215*
%FSLAX25Y25*%
%MOIN*%
G70*
G04*
G04 #@! TF.SameCoordinates,E357BF57-154A-44AE-955A-2B68D2739ED8*
G04*
G04*
G04 #@! TF.FilePolarity,Positive*
G04*
G01*
G75*
%ADD257C,0.00394*%
D257*
X98425Y113829D02*
X98458Y112821D01*
X98557Y111818D01*
X98721Y110824D01*
X98950Y109842D01*
X99243Y108877D01*
X99598Y107934D01*
X100014Y107016D01*
X100489Y106127D01*
X101021Y105271D01*
X101608Y104452D01*
X102248Y103672D01*
X102937Y102937D01*
X103672Y102248D01*
X104452Y101608D01*
X105271Y101021D01*
X106127Y100489D01*
X107016Y100014D01*
X107934Y99598D01*
X108877Y99243D01*
X109842Y98950D01*
X110824Y98721D01*
X111818Y98557D01*
X112821Y98458D01*
X113829Y98425D01*
X113877Y334646D02*
X112867Y334613D01*
X111860Y334513D01*
X110863Y334349D01*
X109878Y334119D01*
X108910Y333826D01*
X107964Y333470D01*
X107043Y333052D01*
X106151Y332575D01*
X105292Y332042D01*
X104471Y331453D01*
X103689Y330811D01*
X102951Y330120D01*
X102260Y329382D01*
X101618Y328600D01*
X101029Y327778D01*
X100495Y326920D01*
X100019Y326028D01*
X99601Y325107D01*
X99245Y324161D01*
X98952Y323193D01*
X98722Y322208D01*
X98557Y321211D01*
X98458Y320204D01*
X98425Y319194D01*
X531496Y319242D02*
X531463Y320250D01*
X531364Y321253D01*
X531200Y322247D01*
X530971Y323229D01*
X530679Y324194D01*
X530324Y325137D01*
X529908Y326055D01*
X529432Y326944D01*
X528900Y327800D01*
X528313Y328619D01*
X527674Y329398D01*
X526985Y330134D01*
X526249Y330823D01*
X525470Y331463D01*
X524650Y332050D01*
X523794Y332582D01*
X522905Y333057D01*
X521987Y333473D01*
X521044Y333828D01*
X520079Y334121D01*
X519098Y334350D01*
X518103Y334514D01*
X517100Y334613D01*
X516093Y334646D01*
X516044Y98425D02*
X517055Y98458D01*
X518061Y98557D01*
X519059Y98722D01*
X520043Y98952D01*
X521011Y99245D01*
X521957Y99601D01*
X522878Y100019D01*
X523770Y100495D01*
X524629Y101029D01*
X525451Y101618D01*
X526232Y102260D01*
X526970Y102951D01*
X527662Y103689D01*
X528303Y104471D01*
X528892Y105292D01*
X529426Y106151D01*
X529903Y107043D01*
X530320Y107964D01*
X530676Y108910D01*
X530969Y109878D01*
X531199Y110863D01*
X531364Y111860D01*
X531463Y112867D01*
X531496Y113877D01*
X551181Y113829D02*
X551214Y112821D01*
X551313Y111818D01*
X551477Y110824D01*
X551706Y109842D01*
X551999Y108877D01*
X552354Y107934D01*
X552770Y107016D01*
X553245Y106127D01*
X553777Y105271D01*
X554364Y104452D01*
X555004Y103672D01*
X555693Y102937D01*
X556428Y102248D01*
X557207Y101608D01*
X558027Y101021D01*
X558883Y100489D01*
X559772Y100014D01*
X560690Y99598D01*
X561633Y99243D01*
X562598Y98950D01*
X563579Y98721D01*
X564574Y98557D01*
X565577Y98458D01*
X566584Y98425D01*
X566633Y334646D02*
X565623Y334613D01*
X564616Y334513D01*
X563619Y334349D01*
X562634Y334119D01*
X561666Y333826D01*
X560720Y333470D01*
X559799Y333052D01*
X558907Y332575D01*
X558048Y332042D01*
X557227Y331453D01*
X556445Y330811D01*
X555707Y330120D01*
X555016Y329382D01*
X554374Y328600D01*
X553785Y327778D01*
X553251Y326920D01*
X552775Y326028D01*
X552357Y325107D01*
X552001Y324161D01*
X551708Y323193D01*
X551478Y322208D01*
X551313Y321211D01*
X551214Y320204D01*
X551181Y319194D01*
X787402Y319242D02*
X787369Y320250D01*
X787270Y321253D01*
X787106Y322247D01*
X786877Y323229D01*
X786584Y324194D01*
X786229Y325137D01*
X785813Y326055D01*
X785338Y326944D01*
X784806Y327800D01*
X784219Y328619D01*
X783579Y329398D01*
X782890Y330134D01*
X782154Y330823D01*
X781375Y331463D01*
X780556Y332050D01*
X779700Y332582D01*
X778811Y333057D01*
X777893Y333473D01*
X776950Y333828D01*
X775985Y334121D01*
X775003Y334350D01*
X774009Y334514D01*
X773006Y334613D01*
X771998Y334646D01*
X771950Y98425D02*
X772960Y98458D01*
X773967Y98557D01*
X774964Y98722D01*
X775949Y98952D01*
X776916Y99245D01*
X777863Y99601D01*
X778784Y100019D01*
X779676Y100495D01*
X780534Y101029D01*
X781356Y101618D01*
X782138Y102260D01*
X782876Y102951D01*
X783567Y103689D01*
X784208Y104471D01*
X784797Y105292D01*
X785331Y106151D01*
X785808Y107043D01*
X786225Y107964D01*
X786582Y108910D01*
X786875Y109878D01*
X787105Y110863D01*
X787269Y111860D01*
X787368Y112867D01*
X787402Y113877D01*
X807087Y113829D02*
X807120Y112821D01*
X807218Y111818D01*
X807383Y110824D01*
X807611Y109842D01*
X807904Y108877D01*
X808259Y107934D01*
X808675Y107016D01*
X809150Y106127D01*
X809682Y105271D01*
X810270Y104452D01*
X810909Y103672D01*
X811598Y102937D01*
X812334Y102248D01*
X813113Y101608D01*
X813932Y101021D01*
X814788Y100489D01*
X815677Y100014D01*
X816595Y99598D01*
X817539Y99243D01*
X818503Y98950D01*
X819485Y98721D01*
X820479Y98557D01*
X821482Y98458D01*
X822490Y98425D01*
X822539Y334646D02*
X821528Y334613D01*
X820522Y334513D01*
X819524Y334349D01*
X818539Y334119D01*
X817572Y333826D01*
X816625Y333470D01*
X815704Y333052D01*
X814813Y332575D01*
X813954Y332042D01*
X813132Y331453D01*
X812350Y330811D01*
X811612Y330120D01*
X810921Y329382D01*
X810280Y328600D01*
X809691Y327778D01*
X809157Y326920D01*
X808680Y326028D01*
X808263Y325107D01*
X807907Y324161D01*
X807613Y323193D01*
X807384Y322208D01*
X807219Y321211D01*
X807120Y320204D01*
X807087Y319194D01*
X1043307Y319242D02*
X1043274Y320250D01*
X1043175Y321253D01*
X1043011Y322247D01*
X1042782Y323229D01*
X1042490Y324194D01*
X1042135Y325137D01*
X1041719Y326055D01*
X1041243Y326944D01*
X1040711Y327800D01*
X1040124Y328619D01*
X1039485Y329398D01*
X1038795Y330134D01*
X1038060Y330823D01*
X1037281Y331463D01*
X1036461Y332050D01*
X1035605Y332582D01*
X1034717Y333057D01*
X1033798Y333473D01*
X1032855Y333828D01*
X1031890Y334121D01*
X1030909Y334350D01*
X1029914Y334514D01*
X1028911Y334613D01*
X1027904Y334646D01*
X1027855Y98425D02*
X1028866Y98458D01*
X1029872Y98557D01*
X1030870Y98722D01*
X1031854Y98952D01*
X1032822Y99245D01*
X1033768Y99601D01*
X1034689Y100019D01*
X1035581Y100495D01*
X1036440Y101029D01*
X1037262Y101618D01*
X1038043Y102260D01*
X1038781Y102951D01*
X1039472Y103689D01*
X1040114Y104471D01*
X1040703Y105292D01*
X1041237Y106151D01*
X1041714Y107043D01*
X1042131Y107964D01*
X1042487Y108910D01*
X1042781Y109878D01*
X1043010Y110863D01*
X1043175Y111860D01*
X1043274Y112867D01*
X1043307Y113877D01*
X610236Y369734D02*
X610269Y368727D01*
X610368Y367723D01*
X610532Y366729D01*
X610761Y365747D01*
X611054Y364783D01*
X611409Y363839D01*
X611825Y362921D01*
X612300Y362032D01*
X612832Y361176D01*
X613419Y360357D01*
X614059Y359578D01*
X614748Y358842D01*
X615483Y358153D01*
X616263Y357514D01*
X617082Y356927D01*
X617938Y356394D01*
X618827Y355919D01*
X619745Y355503D01*
X620688Y355148D01*
X621653Y354856D01*
X622635Y354627D01*
X623629Y354463D01*
X624632Y354364D01*
X625640Y354331D01*
X625688Y590551D02*
X624678Y590518D01*
X623671Y590419D01*
X622674Y590254D01*
X621689Y590025D01*
X620721Y589731D01*
X619775Y589375D01*
X618854Y588958D01*
X617962Y588481D01*
X617103Y587947D01*
X616282Y587358D01*
X615500Y586717D01*
X614762Y586025D01*
X614071Y585287D01*
X613429Y584506D01*
X612840Y583684D01*
X612306Y582825D01*
X611830Y581933D01*
X611412Y581012D01*
X611056Y580066D01*
X610763Y579098D01*
X610533Y578114D01*
X610368Y577116D01*
X610269Y576110D01*
X610236Y575099D01*
X846457Y575148D02*
X846424Y576155D01*
X846325Y577158D01*
X846161Y578153D01*
X845932Y579135D01*
X845639Y580099D01*
X845284Y581042D01*
X844868Y581960D01*
X844393Y582850D01*
X843861Y583706D01*
X843274Y584525D01*
X842634Y585304D01*
X841945Y586040D01*
X841210Y586729D01*
X840430Y587368D01*
X839611Y587955D01*
X838755Y588487D01*
X837866Y588963D01*
X836948Y589379D01*
X836005Y589734D01*
X835040Y590026D01*
X834058Y590255D01*
X833064Y590419D01*
X832061Y590518D01*
X831053Y590551D01*
X831005Y354331D02*
X832015Y354364D01*
X833022Y354463D01*
X834019Y354628D01*
X835004Y354857D01*
X835972Y355151D01*
X836918Y355507D01*
X837839Y355924D01*
X838731Y356401D01*
X839589Y356935D01*
X840411Y357524D01*
X841193Y358165D01*
X841931Y358857D01*
X842622Y359594D01*
X843264Y360376D01*
X843853Y361198D01*
X844386Y362057D01*
X844863Y362948D01*
X845280Y363870D01*
X845637Y364816D01*
X845930Y365783D01*
X846160Y366768D01*
X846325Y367766D01*
X846424Y368772D01*
X846457Y369783D01*
X354331Y369734D02*
X354364Y368727D01*
X354463Y367723D01*
X354627Y366729D01*
X354856Y365747D01*
X355148Y364783D01*
X355503Y363839D01*
X355919Y362921D01*
X356394Y362032D01*
X356927Y361176D01*
X357514Y360357D01*
X358153Y359578D01*
X358842Y358842D01*
X359578Y358153D01*
X360357Y357514D01*
X361176Y356927D01*
X362032Y356394D01*
X362921Y355919D01*
X363839Y355503D01*
X364783Y355148D01*
X365747Y354856D01*
X366729Y354627D01*
X367723Y354463D01*
X368727Y354364D01*
X369734Y354331D01*
X369783Y590551D02*
X368772Y590518D01*
X367766Y590419D01*
X366768Y590254D01*
X365783Y590025D01*
X364816Y589731D01*
X363870Y589375D01*
X362948Y588958D01*
X362057Y588481D01*
X361198Y587947D01*
X360376Y587358D01*
X359594Y586717D01*
X358857Y586025D01*
X358165Y585287D01*
X357524Y584506D01*
X356935Y583684D01*
X356401Y582825D01*
X355924Y581933D01*
X355507Y581012D01*
X355151Y580066D01*
X354857Y579098D01*
X354628Y578114D01*
X354463Y577116D01*
X354364Y576110D01*
X354331Y575099D01*
X590551Y575148D02*
X590518Y576155D01*
X590419Y577158D01*
X590255Y578153D01*
X590026Y579135D01*
X589734Y580099D01*
X589379Y581042D01*
X588963Y581960D01*
X588487Y582850D01*
X587955Y583706D01*
X587368Y584525D01*
X586729Y585304D01*
X586040Y586040D01*
X585304Y586729D01*
X584525Y587368D01*
X583706Y587955D01*
X582850Y588487D01*
X581960Y588963D01*
X581042Y589379D01*
X580099Y589734D01*
X579135Y590026D01*
X578153Y590255D01*
X577158Y590419D01*
X576155Y590518D01*
X575148Y590551D01*
X575099Y354331D02*
X576110Y354364D01*
X577116Y354463D01*
X578114Y354628D01*
X579098Y354857D01*
X580066Y355151D01*
X581012Y355507D01*
X581933Y355924D01*
X582825Y356401D01*
X583684Y356935D01*
X584506Y357524D01*
X585287Y358165D01*
X586025Y358857D01*
X586717Y359594D01*
X587358Y360376D01*
X587947Y361198D01*
X588481Y362057D01*
X588958Y362948D01*
X589375Y363870D01*
X589731Y364816D01*
X590025Y365783D01*
X590254Y366768D01*
X590419Y367766D01*
X590518Y368772D01*
X590551Y369783D01*
X319194Y354331D02*
X320204Y354364D01*
X321211Y354463D01*
X322208Y354628D01*
X323193Y354857D01*
X324161Y355151D01*
X325107Y355507D01*
X326028Y355924D01*
X326920Y356401D01*
X327778Y356935D01*
X328600Y357524D01*
X329382Y358165D01*
X330120Y358857D01*
X330811Y359594D01*
X331453Y360376D01*
X332042Y361198D01*
X332575Y362057D01*
X333052Y362948D01*
X333470Y363870D01*
X333826Y364816D01*
X334119Y365783D01*
X334349Y366768D01*
X334513Y367766D01*
X334613Y368772D01*
X334646Y369783D01*
Y575148D02*
X334613Y576155D01*
X334514Y577158D01*
X334350Y578153D01*
X334121Y579135D01*
X333828Y580099D01*
X333473Y581042D01*
X333057Y581960D01*
X332582Y582850D01*
X332050Y583706D01*
X331463Y584525D01*
X330823Y585304D01*
X330134Y586040D01*
X329398Y586729D01*
X328619Y587368D01*
X327800Y587955D01*
X326944Y588487D01*
X326055Y588963D01*
X325137Y589379D01*
X324194Y589734D01*
X323229Y590026D01*
X322247Y590255D01*
X321253Y590419D01*
X320250Y590518D01*
X319242Y590551D01*
X113877D02*
X112867Y590518D01*
X111860Y590419D01*
X110863Y590254D01*
X109878Y590025D01*
X108910Y589731D01*
X107964Y589375D01*
X107043Y588958D01*
X106151Y588481D01*
X105292Y587947D01*
X104471Y587358D01*
X103689Y586717D01*
X102951Y586025D01*
X102260Y585287D01*
X101618Y584506D01*
X101029Y583684D01*
X100495Y582825D01*
X100019Y581933D01*
X99601Y581012D01*
X99245Y580066D01*
X98952Y579098D01*
X98722Y578114D01*
X98557Y577116D01*
X98458Y576110D01*
X98425Y575099D01*
Y369734D02*
X98458Y368727D01*
X98557Y367723D01*
X98721Y366729D01*
X98950Y365747D01*
X99243Y364783D01*
X99598Y363839D01*
X100014Y362921D01*
X100489Y362032D01*
X101021Y361176D01*
X101608Y360357D01*
X102248Y359578D01*
X102937Y358842D01*
X103672Y358153D01*
X104452Y357514D01*
X105271Y356927D01*
X106127Y356394D01*
X107016Y355919D01*
X107934Y355503D01*
X108877Y355148D01*
X109842Y354856D01*
X110824Y354627D01*
X111818Y354463D01*
X112821Y354364D01*
X113829Y354331D01*
X334646Y452756D02*
X334696Y451760D01*
X334847Y450775D01*
X335097Y449809D01*
X335443Y448874D01*
X335882Y447979D01*
X336410Y447133D01*
X337020Y446345D01*
X337707Y445622D01*
X338463Y444973D01*
X339282Y444403D01*
X340154Y443919D01*
X341070Y443526D01*
X342021Y443228D01*
X342998Y443027D01*
X343990Y442926D01*
X344987D01*
X345979Y443027D01*
X346955Y443228D01*
X347907Y443526D01*
X348823Y443919D01*
X349694Y444403D01*
X350513Y444973D01*
X351269Y445622D01*
X351956Y446345D01*
X352567Y447133D01*
X353094Y447979D01*
X353533Y448875D01*
X353879Y449810D01*
X354129Y450775D01*
X354280Y451760D01*
X354331Y452756D01*
Y413386D02*
X354280Y414382D01*
X354129Y415367D01*
X353879Y416332D01*
X353533Y417267D01*
X353094Y418162D01*
X352567Y419009D01*
X351956Y419797D01*
X351269Y420520D01*
X350513Y421169D01*
X349694Y421739D01*
X348823Y422223D01*
X347907Y422616D01*
X346955Y422914D01*
X345979Y423115D01*
X344987Y423216D01*
X343990D01*
X342998Y423115D01*
X342021Y422914D01*
X341070Y422616D01*
X340154Y422223D01*
X339282Y421739D01*
X338463Y421169D01*
X337707Y420520D01*
X337020Y419797D01*
X336410Y419009D01*
X335882Y418162D01*
X335443Y417267D01*
X335097Y416332D01*
X334847Y415367D01*
X334696Y414382D01*
X334646Y413386D01*
X590551Y452756D02*
X590602Y451760D01*
X590753Y450775D01*
X591003Y449809D01*
X591349Y448874D01*
X591788Y447979D01*
X592315Y447133D01*
X592926Y446345D01*
X593612Y445622D01*
X594369Y444973D01*
X595187Y444403D01*
X596059Y443919D01*
X596975Y443526D01*
X597927Y443228D01*
X598903Y443027D01*
X599895Y442926D01*
X600892D01*
X601884Y443027D01*
X602861Y443228D01*
X603812Y443526D01*
X604728Y443919D01*
X605600Y444403D01*
X606418Y444973D01*
X607175Y445622D01*
X607862Y446345D01*
X608472Y447133D01*
X608999Y447979D01*
X609439Y448875D01*
X609785Y449810D01*
X610035Y450775D01*
X610186Y451760D01*
X610236Y452756D01*
Y413386D02*
X610186Y414382D01*
X610035Y415367D01*
X609785Y416332D01*
X609439Y417267D01*
X608999Y418162D01*
X608472Y419009D01*
X607862Y419797D01*
X607175Y420520D01*
X606418Y421169D01*
X605600Y421739D01*
X604728Y422223D01*
X603812Y422616D01*
X602861Y422914D01*
X601884Y423115D01*
X600892Y423216D01*
X599895D01*
X598903Y423115D01*
X597927Y422914D01*
X596975Y422616D01*
X596059Y422223D01*
X595187Y421739D01*
X594369Y421169D01*
X593612Y420520D01*
X592926Y419797D01*
X592315Y419009D01*
X591788Y418162D01*
X591349Y417267D01*
X591003Y416332D01*
X590753Y415367D01*
X590602Y414382D01*
X590551Y413386D01*
X787402Y196850D02*
X787452Y195855D01*
X787603Y194869D01*
X787853Y193904D01*
X788199Y192969D01*
X788638Y192074D01*
X789166Y191228D01*
X789776Y190439D01*
X790463Y189717D01*
X791219Y189067D01*
X792038Y188498D01*
X792909Y188014D01*
X793826Y187620D01*
X794777Y187322D01*
X795754Y187121D01*
X796746Y187021D01*
X797743D01*
X798735Y187121D01*
X799711Y187322D01*
X800663Y187621D01*
X801579Y188014D01*
X802450Y188498D01*
X803269Y189067D01*
X804025Y189717D01*
X804712Y190439D01*
X805322Y191228D01*
X805850Y192074D01*
X806289Y192969D01*
X806635Y193904D01*
X806885Y194869D01*
X807036Y195855D01*
X807087Y196850D01*
Y157480D02*
X807036Y158476D01*
X806885Y159462D01*
X806635Y160427D01*
X806289Y161362D01*
X805850Y162257D01*
X805322Y163103D01*
X804712Y163891D01*
X804025Y164614D01*
X803269Y165263D01*
X802450Y165833D01*
X801579Y166317D01*
X800662Y166710D01*
X799711Y167009D01*
X798735Y167209D01*
X797743Y167310D01*
X796746D01*
X795754Y167209D01*
X794777Y167009D01*
X793826Y166710D01*
X792909Y166317D01*
X792038Y165833D01*
X791219Y165263D01*
X790463Y164614D01*
X789776Y163891D01*
X789166Y163103D01*
X788638Y162257D01*
X788199Y161362D01*
X787853Y160427D01*
X787603Y159462D01*
X787452Y158476D01*
X787402Y157480D01*
X531496Y196850D02*
X531547Y195855D01*
X531698Y194869D01*
X531948Y193904D01*
X532294Y192969D01*
X532733Y192074D01*
X533260Y191228D01*
X533871Y190439D01*
X534557Y189717D01*
X535314Y189067D01*
X536132Y188498D01*
X537004Y188014D01*
X537920Y187620D01*
X538871Y187322D01*
X539848Y187121D01*
X540840Y187021D01*
X541837D01*
X542829Y187121D01*
X543806Y187322D01*
X544757Y187621D01*
X545673Y188014D01*
X546545Y188498D01*
X547363Y189067D01*
X548120Y189717D01*
X548807Y190439D01*
X549417Y191228D01*
X549944Y192074D01*
X550383Y192969D01*
X550730Y193904D01*
X550980Y194869D01*
X551131Y195855D01*
X551181Y196850D01*
Y157480D02*
X551131Y158476D01*
X550980Y159462D01*
X550730Y160427D01*
X550383Y161362D01*
X549944Y162257D01*
X549417Y163103D01*
X548807Y163891D01*
X548120Y164614D01*
X547363Y165263D01*
X546545Y165833D01*
X545673Y166317D01*
X544757Y166710D01*
X543806Y167009D01*
X542829Y167209D01*
X541837Y167310D01*
X540840D01*
X539848Y167209D01*
X538871Y167009D01*
X537920Y166710D01*
X537004Y166317D01*
X536132Y165833D01*
X535314Y165263D01*
X534557Y164614D01*
X533871Y163891D01*
X533260Y163103D01*
X532733Y162257D01*
X532294Y161362D01*
X531947Y160427D01*
X531698Y159462D01*
X531547Y158476D01*
X531496Y157480D01*
X183071Y334646D02*
X184067Y334696D01*
X185052Y334847D01*
X186017Y335097D01*
X186952Y335443D01*
X187847Y335882D01*
X188694Y336410D01*
X189482Y337020D01*
X190205Y337707D01*
X190854Y338463D01*
X191424Y339282D01*
X191908Y340154D01*
X192301Y341070D01*
X192599Y342021D01*
X192800Y342998D01*
X192901Y343990D01*
Y344987D01*
X192800Y345979D01*
X192599Y346955D01*
X192301Y347907D01*
X191908Y348823D01*
X191424Y349694D01*
X190854Y350513D01*
X190205Y351269D01*
X189482Y351956D01*
X188694Y352567D01*
X187847Y353094D01*
X186952Y353533D01*
X186017Y353879D01*
X185052Y354129D01*
X184067Y354280D01*
X183071Y354331D01*
X222441D02*
X221445Y354280D01*
X220460Y354129D01*
X219495Y353879D01*
X218560Y353533D01*
X217664Y353094D01*
X216818Y352567D01*
X216030Y351956D01*
X215307Y351269D01*
X214658Y350513D01*
X214088Y349694D01*
X213604Y348823D01*
X213211Y347906D01*
X212913Y346955D01*
X212712Y345979D01*
X212611Y344987D01*
Y343990D01*
X212712Y342998D01*
X212913Y342021D01*
X213211Y341070D01*
X213604Y340154D01*
X214088Y339282D01*
X214658Y338463D01*
X215307Y337707D01*
X216030Y337020D01*
X216818Y336410D01*
X217664Y335882D01*
X218560Y335443D01*
X219495Y335097D01*
X220460Y334847D01*
X221445Y334696D01*
X222441Y334646D01*
X452756D02*
X453752Y334696D01*
X454737Y334847D01*
X455702Y335097D01*
X456637Y335443D01*
X457533Y335882D01*
X458379Y336410D01*
X459167Y337020D01*
X459890Y337707D01*
X460539Y338463D01*
X461109Y339282D01*
X461593Y340154D01*
X461986Y341070D01*
X462284Y342021D01*
X462485Y342998D01*
X462586Y343990D01*
Y344987D01*
X462485Y345979D01*
X462284Y346955D01*
X461986Y347907D01*
X461593Y348823D01*
X461109Y349694D01*
X460539Y350513D01*
X459890Y351269D01*
X459167Y351956D01*
X458379Y352567D01*
X457533Y353094D01*
X456637Y353533D01*
X455702Y353879D01*
X454737Y354129D01*
X453752Y354280D01*
X452756Y354331D01*
X492126D02*
X491130Y354280D01*
X490145Y354129D01*
X489180Y353879D01*
X488244Y353533D01*
X487349Y353094D01*
X486503Y352567D01*
X485715Y351956D01*
X484992Y351269D01*
X484343Y350513D01*
X483773Y349694D01*
X483289Y348823D01*
X482896Y347906D01*
X482598Y346955D01*
X482397Y345979D01*
X482296Y344987D01*
Y343990D01*
X482397Y342998D01*
X482598Y342021D01*
X482896Y341070D01*
X483289Y340154D01*
X483773Y339282D01*
X484343Y338463D01*
X484992Y337707D01*
X485715Y337020D01*
X486503Y336410D01*
X487349Y335882D01*
X488244Y335443D01*
X489180Y335097D01*
X490145Y334847D01*
X491130Y334696D01*
X492126Y334646D01*
X710630D02*
X711626Y334696D01*
X712611Y334847D01*
X713576Y335097D01*
X714511Y335443D01*
X715407Y335882D01*
X716253Y336410D01*
X717041Y337020D01*
X717764Y337707D01*
X718413Y338463D01*
X718983Y339282D01*
X719467Y340154D01*
X719860Y341070D01*
X720158Y342021D01*
X720359Y342998D01*
X720460Y343990D01*
Y344987D01*
X720359Y345979D01*
X720158Y346955D01*
X719860Y347907D01*
X719467Y348823D01*
X718983Y349694D01*
X718413Y350513D01*
X717764Y351269D01*
X717041Y351956D01*
X716253Y352567D01*
X715407Y353094D01*
X714511Y353533D01*
X713576Y353879D01*
X712611Y354129D01*
X711626Y354280D01*
X710630Y354331D01*
X750000D02*
X749004Y354280D01*
X748019Y354129D01*
X747053Y353879D01*
X746118Y353533D01*
X745223Y353094D01*
X744377Y352567D01*
X743589Y351956D01*
X742866Y351269D01*
X742217Y350513D01*
X741647Y349694D01*
X741163Y348823D01*
X740770Y347906D01*
X740472Y346955D01*
X740271Y345979D01*
X740170Y344987D01*
Y343990D01*
X740271Y342998D01*
X740472Y342021D01*
X740770Y341070D01*
X741163Y340154D01*
X741647Y339282D01*
X742217Y338463D01*
X742866Y337707D01*
X743589Y337020D01*
X744377Y336410D01*
X745223Y335882D01*
X746119Y335443D01*
X747053Y335097D01*
X748019Y334847D01*
X749004Y334696D01*
X750000Y334646D01*
X822539D02*
X1027904D01*
X846457Y369783D02*
Y575148D01*
X807087Y113829D02*
Y157480D01*
X822490Y98425D02*
X1027855D01*
X1043307Y113877D02*
Y319242D01*
X807087Y196850D02*
Y319194D01*
X492126Y334646D02*
X516093D01*
X222441D02*
X452756D01*
X113877D02*
X183071D01*
X98425Y113829D02*
Y319194D01*
X113829Y98425D02*
X516044D01*
X531496Y113877D02*
Y157480D01*
Y196850D02*
Y319242D01*
X551181Y196850D02*
Y319194D01*
Y113829D02*
Y157480D01*
X566584Y98425D02*
X771950D01*
X787402Y113877D02*
Y157480D01*
Y196850D02*
Y319242D01*
X750000Y334646D02*
X771998D01*
X566633D02*
X710630D01*
X610236Y452756D02*
Y575099D01*
Y369734D02*
Y413386D01*
X625640Y354331D02*
X710630D01*
X750000D02*
X831005D01*
X625688Y590551D02*
X831053D01*
X354331Y452756D02*
Y575099D01*
Y369734D02*
Y413386D01*
X369734Y354331D02*
X452756D01*
X492126D02*
X575099D01*
X590551Y369783D02*
Y413386D01*
Y452756D02*
Y575148D01*
X369783Y590551D02*
X575148D01*
X222441Y354331D02*
X319194D01*
X334646Y369783D02*
Y413386D01*
Y452756D02*
Y575148D01*
X157480Y590551D02*
X319242D01*
X113877D02*
X157480D01*
X98425Y379921D02*
Y575099D01*
Y369734D02*
Y379921D01*
X113829Y354331D02*
X183071D01*
M02*
