M48
;Layer_Color=9474304
;FILE_FORMAT=2:5
INCH,TZ
;TYPE=PLATED
T05F00S00C0.02362
T06F00S00C0.02756
T11F00S00C0.04921
;TYPE=NON_PLATED
%
G90
G05
T05
G00X596496Y129961
M15
G01Y134685
M16
G00X610276Y129961
M15
G01Y134685
M16
G00X626024Y129961
M15
G01Y134685
M16
G00X665000Y129961
M15
G01Y134685
M16
G00X678780Y129961
M15
G01Y134685
M16
G00X694527Y129961
M15
G01Y134685
M16
G00X708307Y129961
M15
G01Y134685
M16
G00X722087Y129961
M15
G01Y134685
M16
G00X737835Y129961
M15
G01Y134685
M16
T06
G00X955433Y306634
M15
G01Y301516
M16
G00X989449Y306634
M15
G01Y301516
M16
G00X894961Y306634
M15
G01Y301516
M16
G00X860945Y306634
M15
G01Y301516
M16
G00X860945Y322185
M15
G01Y318642
M16
G00X894961Y322185
M15
G01Y318642
M16
G00X955433Y322185
M15
G01Y318642
M16
G00X989449Y322185
M15
G01Y318642
M16
T11
G00X633898Y168839
M15
G01Y154075
M16
G00X633898Y199547
M15
G01Y184783
M16
G00X704764Y184783
M15
G01Y199547
M16
G00X704764Y154075
M15
G01Y168839
M16
G00X448779Y154075
M15
G01Y168839
M16
G00X448779Y184783
M15
G01Y199547
M16
G00X181142Y199547
M15
G01Y184783
M16
G00X181142Y168839
M15
G01Y154075
M16
G00X181102Y424705
M15
G01Y409941
M16
G00X181102Y455413
M15
G01Y440650
M16
G00X251969Y440650
M15
G01Y455413
M16
G00X251969Y409941
M15
G01Y424705
M16
G00X437008Y424705
M15
G01Y409941
M16
G00X437008Y455413
M15
G01Y440650
M16
G00X507874Y440650
M15
G01Y455413
M16
G00X507874Y409941
M15
G01Y424705
M16
G00X692913Y424705
M15
G01Y409941
M16
G00X692913Y455413
M15
G01Y440650
M16
G00X763779Y440650
M15
G01Y455413
M16
G00X763779Y409941
M15
G01Y424705
M16
M17
M30
