G04*
G04 #@! TF.GenerationSoftware,Altium Limited,Altium Designer,23.7.1 (13)*
G04*
G04 Layer_Color=6502151*
%FSLAX25Y25*%
%MOIN*%
G70*
G04*
G04 #@! TF.SameCoordinates,E357BF57-154A-44AE-955A-2B68D2739ED8*
G04*
G04*
G04 #@! TF.FilePolarity,Negative*
G04*
G01*
G75*
%ADD30C,0.01968*%
%ADD34C,0.01772*%
G04:AMPARAMS|DCode=61|XSize=51.18mil|YSize=98.43mil|CornerRadius=25.59mil|HoleSize=0mil|Usage=FLASHONLY|Rotation=180.000|XOffset=0mil|YOffset=0mil|HoleType=Round|Shape=RoundedRectangle|*
%AMROUNDEDRECTD61*
21,1,0.05118,0.04724,0,0,180.0*
21,1,0.00000,0.09843,0,0,180.0*
1,1,0.05118,0.00000,0.02362*
1,1,0.05118,0.00000,0.02362*
1,1,0.05118,0.00000,-0.02362*
1,1,0.05118,0.00000,-0.02362*
%
%ADD61ROUNDEDRECTD61*%
G04:AMPARAMS|DCode=101|XSize=125.98mil|YSize=51.18mil|CornerRadius=25.59mil|HoleSize=0mil|Usage=FLASHONLY|Rotation=270.000|XOffset=0mil|YOffset=0mil|HoleType=Round|Shape=RoundedRectangle|*
%AMROUNDEDRECTD101*
21,1,0.12598,0.00000,0,0,270.0*
21,1,0.07480,0.05118,0,0,270.0*
1,1,0.05118,0.00000,-0.03740*
1,1,0.05118,0.00000,0.03740*
1,1,0.05118,0.00000,0.03740*
1,1,0.05118,0.00000,-0.03740*
%
%ADD101ROUNDEDRECTD101*%
%ADD102C,0.02756*%
G04:AMPARAMS|DCode=103|XSize=27.56mil|YSize=62.99mil|CornerRadius=13.78mil|HoleSize=0mil|Usage=FLASHONLY|Rotation=180.000|XOffset=0mil|YOffset=0mil|HoleType=Round|Shape=RoundedRectangle|*
%AMROUNDEDRECTD103*
21,1,0.02756,0.03543,0,0,180.0*
21,1,0.00000,0.06299,0,0,180.0*
1,1,0.02756,0.00000,0.01772*
1,1,0.02756,0.00000,0.01772*
1,1,0.02756,0.00000,-0.01772*
1,1,0.02756,0.00000,-0.01772*
%
%ADD103ROUNDEDRECTD103*%
%ADD105C,0.05118*%
G04:AMPARAMS|DCode=107|XSize=34.45mil|YSize=7.87mil|CornerRadius=1.18mil|HoleSize=0mil|Usage=FLASHONLY|Rotation=135.000|XOffset=0mil|YOffset=0mil|HoleType=Round|Shape=RoundedRectangle|*
%AMROUNDEDRECTD107*
21,1,0.03445,0.00551,0,0,135.0*
21,1,0.03209,0.00787,0,0,135.0*
1,1,0.00236,-0.00940,0.01329*
1,1,0.00236,0.01329,-0.00940*
1,1,0.00236,0.00940,-0.01329*
1,1,0.00236,-0.01329,0.00940*
%
%ADD107ROUNDEDRECTD107*%
G04:AMPARAMS|DCode=108|XSize=7.87mil|YSize=34.45mil|CornerRadius=1.18mil|HoleSize=0mil|Usage=FLASHONLY|Rotation=135.000|XOffset=0mil|YOffset=0mil|HoleType=Round|Shape=RoundedRectangle|*
%AMROUNDEDRECTD108*
21,1,0.00787,0.03209,0,0,135.0*
21,1,0.00551,0.03445,0,0,135.0*
1,1,0.00236,0.00940,0.01329*
1,1,0.00236,0.01329,0.00940*
1,1,0.00236,-0.00940,-0.01329*
1,1,0.00236,-0.01329,-0.00940*
%
%ADD108ROUNDEDRECTD108*%
G04:AMPARAMS|DCode=203|XSize=43.31mil|YSize=37.4mil|CornerRadius=6.1mil|HoleSize=0mil|Usage=FLASHONLY|Rotation=45.000|XOffset=0mil|YOffset=0mil|HoleType=Round|Shape=RoundedRectangle|*
%AMROUNDEDRECTD203*
21,1,0.04331,0.02520,0,0,45.0*
21,1,0.03110,0.03740,0,0,45.0*
1,1,0.01221,0.01991,0.00209*
1,1,0.01221,-0.00209,-0.01991*
1,1,0.01221,-0.01991,-0.00209*
1,1,0.01221,0.00209,0.01991*
%
%ADD203ROUNDEDRECTD203*%
G04:AMPARAMS|DCode=205|XSize=47.24mil|YSize=23.62mil|CornerRadius=5.61mil|HoleSize=0mil|Usage=FLASHONLY|Rotation=45.000|XOffset=0mil|YOffset=0mil|HoleType=Round|Shape=RoundedRectangle|*
%AMROUNDEDRECTD205*
21,1,0.04724,0.01240,0,0,45.0*
21,1,0.03602,0.02362,0,0,45.0*
1,1,0.01122,0.01712,0.00835*
1,1,0.01122,-0.00835,-0.01712*
1,1,0.01122,-0.01712,-0.00835*
1,1,0.01122,0.00835,0.01712*
%
%ADD205ROUNDEDRECTD205*%
G04:AMPARAMS|DCode=206|XSize=139.76mil|YSize=175.2mil|CornerRadius=8.31mil|HoleSize=0mil|Usage=FLASHONLY|Rotation=45.000|XOffset=0mil|YOffset=0mil|HoleType=Round|Shape=RoundedRectangle|*
%AMROUNDEDRECTD206*
21,1,0.13976,0.15858,0,0,45.0*
21,1,0.12315,0.17520,0,0,45.0*
1,1,0.01661,0.09961,-0.01253*
1,1,0.01661,0.01253,-0.09961*
1,1,0.01661,-0.09961,0.01253*
1,1,0.01661,-0.01253,0.09961*
%
%ADD206ROUNDEDRECTD206*%
%ADD215C,0.08465*%
%ADD216C,0.12284*%
%ADD217C,0.07795*%
%ADD218C,0.14173*%
%ADD219C,0.10000*%
%ADD220O,0.13386X0.28150*%
%ADD221C,0.32087*%
%ADD222C,0.06496*%
%ADD223O,0.04756X0.09118*%
G04:AMPARAMS|DCode=224|XSize=11.81mil|YSize=20.47mil|CornerRadius=2.95mil|HoleSize=0mil|Usage=FLASHONLY|Rotation=315.000|XOffset=0mil|YOffset=0mil|HoleType=Round|Shape=RoundedRectangle|*
%AMROUNDEDRECTD224*
21,1,0.01181,0.01457,0,0,315.0*
21,1,0.00591,0.02047,0,0,315.0*
1,1,0.00591,-0.00306,-0.00724*
1,1,0.00591,-0.00724,-0.00306*
1,1,0.00591,0.00306,0.00724*
1,1,0.00591,0.00724,0.00306*
%
%ADD224ROUNDEDRECTD224*%
G04:AMPARAMS|DCode=225|XSize=23.23mil|YSize=118.11mil|CornerRadius=5.81mil|HoleSize=0mil|Usage=FLASHONLY|Rotation=225.000|XOffset=0mil|YOffset=0mil|HoleType=Round|Shape=RoundedRectangle|*
%AMROUNDEDRECTD225*
21,1,0.02323,0.10650,0,0,225.0*
21,1,0.01161,0.11811,0,0,225.0*
1,1,0.01161,-0.04176,0.03355*
1,1,0.01161,-0.03355,0.04176*
1,1,0.01161,0.04176,-0.03355*
1,1,0.01161,0.03355,-0.04176*
%
%ADD225ROUNDEDRECTD225*%
G04:AMPARAMS|DCode=226|XSize=18.9mil|YSize=134.06mil|CornerRadius=4.72mil|HoleSize=0mil|Usage=FLASHONLY|Rotation=45.000|XOffset=0mil|YOffset=0mil|HoleType=Round|Shape=RoundedRectangle|*
%AMROUNDEDRECTD226*
21,1,0.01890,0.12461,0,0,45.0*
21,1,0.00945,0.13406,0,0,45.0*
1,1,0.00945,0.04740,-0.04071*
1,1,0.00945,0.04071,-0.04740*
1,1,0.00945,-0.04740,0.04071*
1,1,0.00945,-0.04071,0.04740*
%
%ADD226ROUNDEDRECTD226*%
G04:AMPARAMS|DCode=227|XSize=11.81mil|YSize=34.96mil|CornerRadius=2.95mil|HoleSize=0mil|Usage=FLASHONLY|Rotation=45.000|XOffset=0mil|YOffset=0mil|HoleType=Round|Shape=RoundedRectangle|*
%AMROUNDEDRECTD227*
21,1,0.01181,0.02906,0,0,45.0*
21,1,0.00591,0.03496,0,0,45.0*
1,1,0.00591,0.01236,-0.00819*
1,1,0.00591,0.00819,-0.01236*
1,1,0.00591,-0.01236,0.00819*
1,1,0.00591,-0.00819,0.01236*
%
%ADD227ROUNDEDRECTD227*%
G04:AMPARAMS|DCode=228|XSize=11.81mil|YSize=21.06mil|CornerRadius=2.95mil|HoleSize=0mil|Usage=FLASHONLY|Rotation=315.000|XOffset=0mil|YOffset=0mil|HoleType=Round|Shape=RoundedRectangle|*
%AMROUNDEDRECTD228*
21,1,0.01181,0.01516,0,0,315.0*
21,1,0.00591,0.02106,0,0,315.0*
1,1,0.00591,-0.00327,-0.00745*
1,1,0.00591,-0.00745,-0.00327*
1,1,0.00591,0.00327,0.00745*
1,1,0.00591,0.00745,0.00327*
%
%ADD228ROUNDEDRECTD228*%
G04:AMPARAMS|DCode=229|XSize=11.81mil|YSize=21.06mil|CornerRadius=2.95mil|HoleSize=0mil|Usage=FLASHONLY|Rotation=225.000|XOffset=0mil|YOffset=0mil|HoleType=Round|Shape=RoundedRectangle|*
%AMROUNDEDRECTD229*
21,1,0.01181,0.01516,0,0,225.0*
21,1,0.00591,0.02106,0,0,225.0*
1,1,0.00591,-0.00745,0.00327*
1,1,0.00591,-0.00327,0.00745*
1,1,0.00591,0.00745,-0.00327*
1,1,0.00591,0.00327,-0.00745*
%
%ADD229ROUNDEDRECTD229*%
G04:AMPARAMS|DCode=230|XSize=20.47mil|YSize=11.81mil|CornerRadius=2.95mil|HoleSize=0mil|Usage=FLASHONLY|Rotation=315.000|XOffset=0mil|YOffset=0mil|HoleType=Round|Shape=RoundedRectangle|*
%AMROUNDEDRECTD230*
21,1,0.02047,0.00591,0,0,315.0*
21,1,0.01457,0.01181,0,0,315.0*
1,1,0.00591,0.00306,-0.00724*
1,1,0.00591,-0.00724,0.00306*
1,1,0.00591,-0.00306,0.00724*
1,1,0.00591,0.00724,-0.00306*
%
%ADD230ROUNDEDRECTD230*%
%ADD231C,0.02953*%
%ADD232C,0.06299*%
G04:AMPARAMS|DCode=233|XSize=108.27mil|YSize=51.18mil|CornerRadius=7.48mil|HoleSize=0mil|Usage=FLASHONLY|Rotation=45.000|XOffset=0mil|YOffset=0mil|HoleType=Round|Shape=RoundedRectangle|*
%AMROUNDEDRECTD233*
21,1,0.10827,0.03622,0,0,45.0*
21,1,0.09331,0.05118,0,0,45.0*
1,1,0.01496,0.04580,0.02018*
1,1,0.01496,-0.02018,-0.04580*
1,1,0.01496,-0.04580,-0.02018*
1,1,0.01496,0.02018,0.04580*
%
%ADD233ROUNDEDRECTD233*%
G04:AMPARAMS|DCode=234|XSize=131.89mil|YSize=131.89mil|CornerRadius=6.1mil|HoleSize=0mil|Usage=FLASHONLY|Rotation=135.000|XOffset=0mil|YOffset=0mil|HoleType=Round|Shape=RoundedRectangle|*
%AMROUNDEDRECTD234*
21,1,0.13189,0.11969,0,0,135.0*
21,1,0.11969,0.13189,0,0,135.0*
1,1,0.01221,0.00000,0.08463*
1,1,0.01221,0.08463,0.00000*
1,1,0.01221,0.00000,-0.08463*
1,1,0.01221,-0.08463,0.00000*
%
%ADD234ROUNDEDRECTD234*%
G04:AMPARAMS|DCode=235|XSize=64.96mil|YSize=68.9mil|CornerRadius=11.81mil|HoleSize=0mil|Usage=FLASHONLY|Rotation=135.000|XOffset=0mil|YOffset=0mil|HoleType=Round|Shape=RoundedRectangle|*
%AMROUNDEDRECTD235*
21,1,0.06496,0.04528,0,0,135.0*
21,1,0.04134,0.06890,0,0,135.0*
1,1,0.02362,0.00139,0.03062*
1,1,0.02362,0.03062,0.00139*
1,1,0.02362,-0.00139,-0.03062*
1,1,0.02362,-0.03062,-0.00139*
%
%ADD235ROUNDEDRECTD235*%
G04:AMPARAMS|DCode=236|XSize=62.21mil|YSize=222.44mil|CornerRadius=8.58mil|HoleSize=0mil|Usage=FLASHONLY|Rotation=225.000|XOffset=0mil|YOffset=0mil|HoleType=Round|Shape=RoundedRectangle|*
%AMROUNDEDRECTD236*
21,1,0.06221,0.20528,0,0,225.0*
21,1,0.04504,0.22244,0,0,225.0*
1,1,0.01717,-0.08850,0.05665*
1,1,0.01717,-0.05665,0.08850*
1,1,0.01717,0.08850,-0.05665*
1,1,0.01717,0.05665,-0.08850*
%
%ADD236ROUNDEDRECTD236*%
G04:AMPARAMS|DCode=237|XSize=37.8mil|YSize=131.89mil|CornerRadius=6.14mil|HoleSize=0mil|Usage=FLASHONLY|Rotation=225.000|XOffset=0mil|YOffset=0mil|HoleType=Round|Shape=RoundedRectangle|*
%AMROUNDEDRECTD237*
21,1,0.03780,0.11961,0,0,225.0*
21,1,0.02551,0.13189,0,0,225.0*
1,1,0.01228,-0.05131,0.03327*
1,1,0.01228,-0.03327,0.05131*
1,1,0.01228,0.05131,-0.03327*
1,1,0.01228,0.03327,-0.05131*
%
%ADD237ROUNDEDRECTD237*%
G04:AMPARAMS|DCode=238|XSize=29.53mil|YSize=25.59mil|CornerRadius=4.92mil|HoleSize=0mil|Usage=FLASHONLY|Rotation=225.000|XOffset=0mil|YOffset=0mil|HoleType=Round|Shape=RoundedRectangle|*
%AMROUNDEDRECTD238*
21,1,0.02953,0.01575,0,0,225.0*
21,1,0.01968,0.02559,0,0,225.0*
1,1,0.00984,-0.01253,-0.00139*
1,1,0.00984,0.00139,0.01253*
1,1,0.00984,0.01253,0.00139*
1,1,0.00984,-0.00139,-0.01253*
%
%ADD238ROUNDEDRECTD238*%
G04:AMPARAMS|DCode=239|XSize=59.06mil|YSize=45.28mil|CornerRadius=6.89mil|HoleSize=0mil|Usage=FLASHONLY|Rotation=135.000|XOffset=0mil|YOffset=0mil|HoleType=Round|Shape=RoundedRectangle|*
%AMROUNDEDRECTD239*
21,1,0.05906,0.03150,0,0,135.0*
21,1,0.04528,0.04528,0,0,135.0*
1,1,0.01378,-0.00487,0.02714*
1,1,0.01378,0.02714,-0.00487*
1,1,0.01378,0.00487,-0.02714*
1,1,0.01378,-0.02714,0.00487*
%
%ADD239ROUNDEDRECTD239*%
G04:AMPARAMS|DCode=240|XSize=53.15mil|YSize=53.15mil|CornerRadius=7.68mil|HoleSize=0mil|Usage=FLASHONLY|Rotation=135.000|XOffset=0mil|YOffset=0mil|HoleType=Round|Shape=RoundedRectangle|*
%AMROUNDEDRECTD240*
21,1,0.05315,0.03780,0,0,135.0*
21,1,0.03780,0.05315,0,0,135.0*
1,1,0.01535,0.00000,0.02673*
1,1,0.01535,0.02673,0.00000*
1,1,0.01535,0.00000,-0.02673*
1,1,0.01535,-0.02673,0.00000*
%
%ADD240ROUNDEDRECTD240*%
G04:AMPARAMS|DCode=241|XSize=171.26mil|YSize=187.01mil|CornerRadius=7.09mil|HoleSize=0mil|Usage=FLASHONLY|Rotation=135.000|XOffset=0mil|YOffset=0mil|HoleType=Round|Shape=RoundedRectangle|*
%AMROUNDEDRECTD241*
21,1,0.17126,0.17284,0,0,135.0*
21,1,0.15709,0.18701,0,0,135.0*
1,1,0.01417,0.00557,0.11665*
1,1,0.01417,0.11665,0.00557*
1,1,0.01417,-0.00557,-0.11665*
1,1,0.01417,-0.11665,-0.00557*
%
%ADD241ROUNDEDRECTD241*%
G04:AMPARAMS|DCode=242|XSize=51.18mil|YSize=33.47mil|CornerRadius=5.71mil|HoleSize=0mil|Usage=FLASHONLY|Rotation=45.000|XOffset=0mil|YOffset=0mil|HoleType=Round|Shape=RoundedRectangle|*
%AMROUNDEDRECTD242*
21,1,0.05118,0.02205,0,0,45.0*
21,1,0.03976,0.03347,0,0,45.0*
1,1,0.01142,0.02185,0.00626*
1,1,0.01142,-0.00626,-0.02185*
1,1,0.01142,-0.02185,-0.00626*
1,1,0.01142,0.00626,0.02185*
%
%ADD242ROUNDEDRECTD242*%
G04:AMPARAMS|DCode=243|XSize=27.56mil|YSize=13.78mil|CornerRadius=2.76mil|HoleSize=0mil|Usage=FLASHONLY|Rotation=315.000|XOffset=0mil|YOffset=0mil|HoleType=Round|Shape=RoundedRectangle|*
%AMROUNDEDRECTD243*
21,1,0.02756,0.00827,0,0,315.0*
21,1,0.02205,0.01378,0,0,315.0*
1,1,0.00551,0.00487,-0.01072*
1,1,0.00551,-0.01072,0.00487*
1,1,0.00551,-0.00487,0.01072*
1,1,0.00551,0.01072,-0.00487*
%
%ADD243ROUNDEDRECTD243*%
G04:AMPARAMS|DCode=244|XSize=13.97mil|YSize=30.97mil|CornerRadius=2.18mil|HoleSize=0mil|Usage=FLASHONLY|Rotation=315.000|XOffset=0mil|YOffset=0mil|HoleType=Round|Shape=RoundedRectangle|*
%AMROUNDEDRECTD244*
21,1,0.01397,0.02660,0,0,315.0*
21,1,0.00960,0.03097,0,0,315.0*
1,1,0.00437,-0.00601,-0.01280*
1,1,0.00437,-0.01280,-0.00601*
1,1,0.00437,0.00601,0.01280*
1,1,0.00437,0.01280,0.00601*
%
%ADD244ROUNDEDRECTD244*%
G04:AMPARAMS|DCode=245|XSize=20.97mil|YSize=13.97mil|CornerRadius=2.18mil|HoleSize=0mil|Usage=FLASHONLY|Rotation=225.000|XOffset=0mil|YOffset=0mil|HoleType=Round|Shape=RoundedRectangle|*
%AMROUNDEDRECTD245*
21,1,0.02097,0.00960,0,0,225.0*
21,1,0.01660,0.01397,0,0,225.0*
1,1,0.00437,-0.00926,-0.00248*
1,1,0.00437,0.00248,0.00926*
1,1,0.00437,0.00926,0.00248*
1,1,0.00437,-0.00248,-0.00926*
%
%ADD245ROUNDEDRECTD245*%
G04:AMPARAMS|DCode=246|XSize=13.97mil|YSize=19.97mil|CornerRadius=2.18mil|HoleSize=0mil|Usage=FLASHONLY|Rotation=45.000|XOffset=0mil|YOffset=0mil|HoleType=Round|Shape=RoundedRectangle|*
%AMROUNDEDRECTD246*
21,1,0.01397,0.01560,0,0,45.0*
21,1,0.00960,0.01997,0,0,45.0*
1,1,0.00437,0.00891,-0.00212*
1,1,0.00437,0.00212,-0.00891*
1,1,0.00437,-0.00891,0.00212*
1,1,0.00437,-0.00212,0.00891*
%
%ADD246ROUNDEDRECTD246*%
G04:AMPARAMS|DCode=247|XSize=44.19mil|YSize=27.87mil|CornerRadius=5.15mil|HoleSize=0mil|Usage=FLASHONLY|Rotation=135.000|XOffset=0mil|YOffset=0mil|HoleType=Round|Shape=RoundedRectangle|*
%AMROUNDEDRECTD247*
21,1,0.04419,0.01758,0,0,135.0*
21,1,0.03389,0.02787,0,0,135.0*
1,1,0.01030,-0.00577,0.01819*
1,1,0.01030,0.01819,-0.00577*
1,1,0.01030,0.00577,-0.01819*
1,1,0.01030,-0.01819,0.00577*
%
%ADD247ROUNDEDRECTD247*%
G04:AMPARAMS|DCode=248|XSize=44.19mil|YSize=27.87mil|CornerRadius=5.15mil|HoleSize=0mil|Usage=FLASHONLY|Rotation=225.000|XOffset=0mil|YOffset=0mil|HoleType=Round|Shape=RoundedRectangle|*
%AMROUNDEDRECTD248*
21,1,0.04419,0.01758,0,0,225.0*
21,1,0.03389,0.02787,0,0,225.0*
1,1,0.01030,-0.01819,-0.00577*
1,1,0.01030,0.00577,0.01819*
1,1,0.01030,0.01819,0.00577*
1,1,0.01030,-0.00577,-0.01819*
%
%ADD248ROUNDEDRECTD248*%
G04:AMPARAMS|DCode=249|XSize=15.75mil|YSize=35.43mil|CornerRadius=3.74mil|HoleSize=0mil|Usage=FLASHONLY|Rotation=135.000|XOffset=0mil|YOffset=0mil|HoleType=Round|Shape=RoundedRectangle|*
%AMROUNDEDRECTD249*
21,1,0.01575,0.02795,0,0,135.0*
21,1,0.00827,0.03543,0,0,135.0*
1,1,0.00748,0.00696,0.01281*
1,1,0.00748,0.01281,0.00696*
1,1,0.00748,-0.00696,-0.01281*
1,1,0.00748,-0.01281,-0.00696*
%
%ADD249ROUNDEDRECTD249*%
G04:AMPARAMS|DCode=250|XSize=44.1mil|YSize=20.47mil|CornerRadius=3.15mil|HoleSize=0mil|Usage=FLASHONLY|Rotation=135.000|XOffset=0mil|YOffset=0mil|HoleType=Round|Shape=RoundedRectangle|*
%AMROUNDEDRECTD250*
21,1,0.04410,0.01417,0,0,135.0*
21,1,0.03780,0.02047,0,0,135.0*
1,1,0.00630,-0.00835,0.01837*
1,1,0.00630,0.01837,-0.00835*
1,1,0.00630,0.00835,-0.01837*
1,1,0.00630,-0.01837,0.00835*
%
%ADD250ROUNDEDRECTD250*%
G04:AMPARAMS|DCode=251|XSize=43.31mil|YSize=19.68mil|CornerRadius=2.76mil|HoleSize=0mil|Usage=FLASHONLY|Rotation=135.000|XOffset=0mil|YOffset=0mil|HoleType=Round|Shape=RoundedRectangle|*
%AMROUNDEDRECTD251*
21,1,0.04331,0.01417,0,0,135.0*
21,1,0.03780,0.01968,0,0,135.0*
1,1,0.00551,-0.00835,0.01837*
1,1,0.00551,0.01837,-0.00835*
1,1,0.00551,0.00835,-0.01837*
1,1,0.00551,-0.01837,0.00835*
%
%ADD251ROUNDEDRECTD251*%
G04:AMPARAMS|DCode=252|XSize=39.37mil|YSize=19.68mil|CornerRadius=4.33mil|HoleSize=0mil|Usage=FLASHONLY|Rotation=135.000|XOffset=0mil|YOffset=0mil|HoleType=Round|Shape=RoundedRectangle|*
%AMROUNDEDRECTD252*
21,1,0.03937,0.01102,0,0,135.0*
21,1,0.03071,0.01968,0,0,135.0*
1,1,0.00866,-0.00696,0.01476*
1,1,0.00866,0.01476,-0.00696*
1,1,0.00866,0.00696,-0.01476*
1,1,0.00866,-0.01476,0.00696*
%
%ADD252ROUNDEDRECTD252*%
G36*
X230361Y569584D02*
X230406Y569573D01*
X230437Y569560D01*
X230449Y569555D01*
X230489Y569531D01*
X230524Y569501D01*
X231705Y568320D01*
X231736Y568284D01*
X231760Y568245D01*
X231765Y568232D01*
X231778Y568202D01*
X231789Y568157D01*
X231792Y568110D01*
Y566535D01*
X231789Y566489D01*
X231778Y566444D01*
X231765Y566413D01*
X231760Y566401D01*
X231736Y566361D01*
X231705Y566326D01*
X230524Y565145D01*
X230489Y565115D01*
X230449Y565090D01*
X230437Y565085D01*
X230406Y565073D01*
X230361Y565062D01*
X230315Y565058D01*
X228740D01*
X228694Y565062D01*
X228649Y565073D01*
X228618Y565085D01*
X228606Y565090D01*
X228566Y565115D01*
X228531Y565145D01*
X227350Y566326D01*
X227319Y566361D01*
X227295Y566401D01*
X227290Y566413D01*
X227277Y566444D01*
X227267Y566489D01*
X227263Y566535D01*
Y568110D01*
X227267Y568157D01*
X227277Y568202D01*
X227290Y568232D01*
X227295Y568245D01*
X227319Y568284D01*
X227350Y568320D01*
X228531Y569501D01*
X228566Y569531D01*
X228606Y569555D01*
X228618Y569560D01*
X228649Y569573D01*
X228694Y569584D01*
X228740Y569588D01*
X230315D01*
X230361Y569584D01*
D02*
G37*
G36*
X224850D02*
X224895Y569573D01*
X224925Y569560D01*
X224938Y569555D01*
X224977Y569531D01*
X225013Y569501D01*
X226194Y568320D01*
X226224Y568284D01*
X226248Y568245D01*
X226253Y568232D01*
X226266Y568202D01*
X226277Y568157D01*
X226280Y568110D01*
Y566535D01*
X226277Y566489D01*
X226266Y566444D01*
X226253Y566413D01*
X226248Y566401D01*
X226224Y566361D01*
X226194Y566326D01*
X225013Y565145D01*
X224977Y565115D01*
X224938Y565090D01*
X224925Y565085D01*
X224895Y565073D01*
X224850Y565062D01*
X224803Y565058D01*
X223228D01*
X223182Y565062D01*
X223137Y565073D01*
X223106Y565085D01*
X223094Y565090D01*
X223054Y565115D01*
X223019Y565145D01*
X221838Y566326D01*
X221808Y566361D01*
X221783Y566401D01*
X221778Y566413D01*
X221765Y566444D01*
X221755Y566489D01*
X221751Y566535D01*
Y568110D01*
X221755Y568157D01*
X221765Y568202D01*
X221778Y568232D01*
X221783Y568245D01*
X221808Y568284D01*
X221838Y568320D01*
X223019Y569501D01*
X223054Y569531D01*
X223094Y569555D01*
X223106Y569560D01*
X223137Y569573D01*
X223182Y569584D01*
X223228Y569588D01*
X224803D01*
X224850Y569584D01*
D02*
G37*
G36*
X219338D02*
X219383Y569573D01*
X219413Y569560D01*
X219426Y569555D01*
X219465Y569531D01*
X219501Y569501D01*
X220682Y568320D01*
X220712Y568284D01*
X220736Y568245D01*
X220742Y568232D01*
X220754Y568202D01*
X220765Y568157D01*
X220769Y568110D01*
Y566535D01*
X220765Y566489D01*
X220754Y566444D01*
X220742Y566413D01*
X220736Y566401D01*
X220712Y566361D01*
X220682Y566326D01*
X219501Y565145D01*
X219465Y565115D01*
X219426Y565090D01*
X219413Y565085D01*
X219383Y565073D01*
X219338Y565062D01*
X219291Y565058D01*
X217717D01*
X217670Y565062D01*
X217625Y565073D01*
X217595Y565085D01*
X217582Y565090D01*
X217542Y565115D01*
X217507Y565145D01*
X216326Y566326D01*
X216296Y566361D01*
X216271Y566401D01*
X216266Y566413D01*
X216254Y566444D01*
X216243Y566489D01*
X216239Y566535D01*
Y568110D01*
X216243Y568157D01*
X216254Y568202D01*
X216266Y568232D01*
X216271Y568245D01*
X216296Y568284D01*
X216326Y568320D01*
X217507Y569501D01*
X217542Y569531D01*
X217582Y569555D01*
X217595Y569560D01*
X217625Y569573D01*
X217670Y569584D01*
X217717Y569588D01*
X219291D01*
X219338Y569584D01*
D02*
G37*
G36*
X210676D02*
X210721Y569573D01*
X210752Y569560D01*
X210764Y569555D01*
X210804Y569531D01*
X210839Y569501D01*
X212020Y568320D01*
X212051Y568284D01*
X212075Y568245D01*
X212080Y568232D01*
X212093Y568202D01*
X212104Y568157D01*
X212107Y568110D01*
Y566535D01*
X212104Y566489D01*
X212093Y566444D01*
X212080Y566413D01*
X212075Y566401D01*
X212051Y566361D01*
X212020Y566326D01*
X210839Y565145D01*
X210804Y565115D01*
X210764Y565090D01*
X210752Y565085D01*
X210721Y565073D01*
X210676Y565062D01*
X210630Y565058D01*
X209055D01*
X209009Y565062D01*
X208964Y565073D01*
X208933Y565085D01*
X208921Y565090D01*
X208881Y565115D01*
X208846Y565145D01*
X207665Y566326D01*
X207634Y566361D01*
X207610Y566401D01*
X207605Y566413D01*
X207592Y566444D01*
X207581Y566489D01*
X207578Y566535D01*
Y568110D01*
X207581Y568157D01*
X207592Y568202D01*
X207605Y568232D01*
X207610Y568245D01*
X207634Y568284D01*
X207665Y568320D01*
X208846Y569501D01*
X208881Y569531D01*
X208921Y569555D01*
X208933Y569560D01*
X208964Y569573D01*
X209009Y569584D01*
X209055Y569588D01*
X210630D01*
X210676Y569584D01*
D02*
G37*
G36*
X204377D02*
X204422Y569573D01*
X204453Y569560D01*
X204465Y569555D01*
X204505Y569531D01*
X204540Y569501D01*
X205721Y568320D01*
X205751Y568284D01*
X205776Y568245D01*
X205781Y568232D01*
X205793Y568202D01*
X205804Y568157D01*
X205808Y568110D01*
Y566535D01*
X205804Y566489D01*
X205793Y566444D01*
X205781Y566413D01*
X205776Y566401D01*
X205751Y566361D01*
X205721Y566326D01*
X204540Y565145D01*
X204505Y565115D01*
X204465Y565090D01*
X204453Y565085D01*
X204422Y565073D01*
X204377Y565062D01*
X204331Y565058D01*
X202756D01*
X202710Y565062D01*
X202664Y565073D01*
X202634Y565085D01*
X202621Y565090D01*
X202582Y565115D01*
X202547Y565145D01*
X201365Y566326D01*
X201335Y566361D01*
X201311Y566401D01*
X201306Y566413D01*
X201293Y566444D01*
X201282Y566489D01*
X201279Y566535D01*
Y568110D01*
X201282Y568157D01*
X201293Y568202D01*
X201306Y568232D01*
X201311Y568245D01*
X201335Y568284D01*
X201365Y568320D01*
X202547Y569501D01*
X202582Y569531D01*
X202621Y569555D01*
X202634Y569560D01*
X202664Y569573D01*
X202710Y569584D01*
X202756Y569588D01*
X204331D01*
X204377Y569584D01*
D02*
G37*
G36*
X728787Y564859D02*
X728832Y564849D01*
X728862Y564836D01*
X728875Y564831D01*
X728914Y564807D01*
X728950Y564776D01*
X730131Y563595D01*
X730161Y563560D01*
X730185Y563520D01*
X730190Y563508D01*
X730203Y563477D01*
X730214Y563432D01*
X730217Y563386D01*
Y561811D01*
X730214Y561765D01*
X730203Y561720D01*
X730190Y561689D01*
X730185Y561677D01*
X730161Y561637D01*
X730131Y561602D01*
X728950Y560421D01*
X728914Y560390D01*
X728875Y560366D01*
X728862Y560361D01*
X728832Y560348D01*
X728787Y560337D01*
X728740Y560334D01*
X727165D01*
X727119Y560337D01*
X727074Y560348D01*
X727043Y560361D01*
X727031Y560366D01*
X726991Y560390D01*
X726956Y560421D01*
X725775Y561602D01*
X725745Y561637D01*
X725720Y561677D01*
X725715Y561689D01*
X725702Y561720D01*
X725692Y561765D01*
X725688Y561811D01*
Y563386D01*
X725692Y563432D01*
X725702Y563477D01*
X725715Y563508D01*
X725720Y563520D01*
X725745Y563560D01*
X725775Y563595D01*
X726956Y564776D01*
X726991Y564807D01*
X727031Y564831D01*
X727043Y564836D01*
X727074Y564849D01*
X727119Y564859D01*
X727165Y564863D01*
X728740D01*
X728787Y564859D01*
D02*
G37*
G36*
X713826Y560529D02*
X713871Y560518D01*
X713901Y560505D01*
X713914Y560500D01*
X713954Y560476D01*
X713989Y560446D01*
X715170Y559265D01*
X715200Y559229D01*
X715225Y559190D01*
X715230Y559177D01*
X715242Y559147D01*
X715253Y559101D01*
X715257Y559055D01*
Y557480D01*
X715253Y557434D01*
X715242Y557389D01*
X715230Y557358D01*
X715225Y557346D01*
X715200Y557306D01*
X715170Y557271D01*
X713989Y556090D01*
X713954Y556060D01*
X713914Y556035D01*
X713901Y556030D01*
X713871Y556017D01*
X713826Y556007D01*
X713779Y556003D01*
X712205D01*
X712158Y556007D01*
X712113Y556017D01*
X712083Y556030D01*
X712070Y556035D01*
X712031Y556060D01*
X711995Y556090D01*
X710814Y557271D01*
X710784Y557306D01*
X710760Y557346D01*
X710754Y557358D01*
X710742Y557389D01*
X710731Y557434D01*
X710727Y557480D01*
Y559055D01*
X710731Y559101D01*
X710742Y559147D01*
X710754Y559177D01*
X710760Y559190D01*
X710784Y559229D01*
X710814Y559265D01*
X711995Y560446D01*
X712031Y560476D01*
X712070Y560500D01*
X712083Y560505D01*
X712113Y560518D01*
X712158Y560529D01*
X712205Y560532D01*
X713779D01*
X713826Y560529D01*
D02*
G37*
G36*
X257133Y550292D02*
X257178Y550282D01*
X257208Y550269D01*
X257221Y550264D01*
X257261Y550240D01*
X257296Y550209D01*
X258477Y549028D01*
X258507Y548993D01*
X258532Y548953D01*
X258537Y548941D01*
X258549Y548910D01*
X258560Y548865D01*
X258564Y548819D01*
Y547244D01*
X258560Y547198D01*
X258549Y547153D01*
X258537Y547122D01*
X258532Y547110D01*
X258507Y547070D01*
X258477Y547035D01*
X257296Y545854D01*
X257261Y545823D01*
X257221Y545799D01*
X257208Y545794D01*
X257178Y545781D01*
X257133Y545770D01*
X257087Y545767D01*
X255512D01*
X255466Y545770D01*
X255420Y545781D01*
X255390Y545794D01*
X255377Y545799D01*
X255338Y545823D01*
X255302Y545854D01*
X254121Y547035D01*
X254091Y547070D01*
X254067Y547110D01*
X254062Y547122D01*
X254049Y547153D01*
X254038Y547198D01*
X254034Y547244D01*
Y548819D01*
X254038Y548865D01*
X254049Y548910D01*
X254062Y548941D01*
X254067Y548953D01*
X254091Y548993D01*
X254121Y549028D01*
X255302Y550209D01*
X255338Y550240D01*
X255377Y550264D01*
X255390Y550269D01*
X255420Y550282D01*
X255466Y550293D01*
X255512Y550296D01*
X257087D01*
X257133Y550292D01*
D02*
G37*
G36*
X382330Y549899D02*
X382375Y549888D01*
X382405Y549875D01*
X382418Y549870D01*
X382458Y549846D01*
X382493Y549816D01*
X383674Y548635D01*
X383704Y548599D01*
X383729Y548560D01*
X383734Y548547D01*
X383746Y548517D01*
X383757Y548472D01*
X383761Y548425D01*
Y546850D01*
X383757Y546804D01*
X383746Y546759D01*
X383734Y546729D01*
X383729Y546716D01*
X383704Y546676D01*
X383674Y546641D01*
X382493Y545460D01*
X382458Y545430D01*
X382418Y545405D01*
X382405Y545400D01*
X382375Y545388D01*
X382330Y545377D01*
X382283Y545373D01*
X380709D01*
X380662Y545377D01*
X380617Y545388D01*
X380587Y545400D01*
X380574Y545405D01*
X380535Y545430D01*
X380499Y545460D01*
X379318Y546641D01*
X379288Y546676D01*
X379264Y546716D01*
X379258Y546729D01*
X379246Y546759D01*
X379235Y546804D01*
X379231Y546850D01*
Y548425D01*
X379235Y548472D01*
X379246Y548517D01*
X379258Y548547D01*
X379264Y548560D01*
X379288Y548599D01*
X379318Y548635D01*
X380499Y549816D01*
X380535Y549846D01*
X380574Y549870D01*
X380587Y549875D01*
X380617Y549888D01*
X380662Y549899D01*
X380709Y549902D01*
X382283D01*
X382330Y549899D01*
D02*
G37*
G36*
X382367Y543637D02*
X382412Y543626D01*
X382443Y543614D01*
X382455Y543608D01*
X382495Y543584D01*
X382530Y543554D01*
X383711Y542373D01*
X383742Y542338D01*
X383766Y542298D01*
X383771Y542285D01*
X383784Y542255D01*
X383794Y542210D01*
X383798Y542163D01*
Y540589D01*
X383794Y540542D01*
X383784Y540497D01*
X383771Y540467D01*
X383766Y540454D01*
X383742Y540414D01*
X383711Y540379D01*
X382530Y539198D01*
X382495Y539168D01*
X382455Y539144D01*
X382443Y539138D01*
X382412Y539126D01*
X382367Y539115D01*
X382321Y539111D01*
X380746D01*
X380700Y539115D01*
X380655Y539126D01*
X380624Y539138D01*
X380612Y539144D01*
X380572Y539168D01*
X380537Y539198D01*
X379356Y540379D01*
X379325Y540414D01*
X379301Y540454D01*
X379296Y540467D01*
X379283Y540497D01*
X379272Y540542D01*
X379269Y540589D01*
Y542163D01*
X379272Y542210D01*
X379283Y542255D01*
X379296Y542285D01*
X379301Y542298D01*
X379325Y542338D01*
X379356Y542373D01*
X380537Y543554D01*
X380572Y543584D01*
X380612Y543608D01*
X380624Y543614D01*
X380655Y543626D01*
X380700Y543637D01*
X380746Y543641D01*
X382321D01*
X382367Y543637D01*
D02*
G37*
G36*
X196897Y529820D02*
X196942Y529809D01*
X196972Y529797D01*
X196985Y529791D01*
X197025Y529767D01*
X197060Y529737D01*
X198241Y528556D01*
X198271Y528521D01*
X198295Y528481D01*
X198301Y528468D01*
X198313Y528438D01*
X198324Y528393D01*
X198328Y528346D01*
Y526772D01*
X198324Y526725D01*
X198313Y526680D01*
X198301Y526650D01*
X198295Y526637D01*
X198271Y526597D01*
X198241Y526562D01*
X197060Y525381D01*
X197025Y525351D01*
X196985Y525327D01*
X196972Y525321D01*
X196942Y525309D01*
X196897Y525298D01*
X196850Y525294D01*
X195276D01*
X195229Y525298D01*
X195184Y525309D01*
X195154Y525321D01*
X195141Y525327D01*
X195101Y525351D01*
X195066Y525381D01*
X193885Y526562D01*
X193855Y526597D01*
X193831Y526637D01*
X193825Y526650D01*
X193813Y526680D01*
X193802Y526725D01*
X193798Y526772D01*
Y528346D01*
X193802Y528393D01*
X193813Y528438D01*
X193825Y528468D01*
X193831Y528481D01*
X193855Y528521D01*
X193885Y528556D01*
X195066Y529737D01*
X195101Y529767D01*
X195141Y529791D01*
X195154Y529797D01*
X195184Y529809D01*
X195229Y529820D01*
X195276Y529824D01*
X196850D01*
X196897Y529820D01*
D02*
G37*
G36*
X161070D02*
X161115Y529809D01*
X161145Y529797D01*
X161158Y529791D01*
X161198Y529767D01*
X161233Y529737D01*
X162414Y528556D01*
X162444Y528521D01*
X162469Y528481D01*
X162474Y528468D01*
X162486Y528438D01*
X162497Y528393D01*
X162501Y528346D01*
Y526772D01*
X162497Y526725D01*
X162486Y526680D01*
X162474Y526650D01*
X162469Y526637D01*
X162444Y526597D01*
X162414Y526562D01*
X161233Y525381D01*
X161198Y525351D01*
X161158Y525327D01*
X161145Y525321D01*
X161115Y525309D01*
X161070Y525298D01*
X161024Y525294D01*
X159449D01*
X159403Y525298D01*
X159357Y525309D01*
X159327Y525321D01*
X159314Y525327D01*
X159275Y525351D01*
X159239Y525381D01*
X158058Y526562D01*
X158028Y526597D01*
X158004Y526637D01*
X157999Y526650D01*
X157986Y526680D01*
X157975Y526725D01*
X157972Y526772D01*
Y528346D01*
X157975Y528393D01*
X157986Y528438D01*
X157999Y528468D01*
X158004Y528481D01*
X158028Y528521D01*
X158058Y528556D01*
X159239Y529737D01*
X159275Y529767D01*
X159314Y529791D01*
X159327Y529797D01*
X159357Y529809D01*
X159403Y529820D01*
X159449Y529824D01*
X161024D01*
X161070Y529820D01*
D02*
G37*
G36*
X257133Y521946D02*
X257178Y521935D01*
X257208Y521923D01*
X257221Y521917D01*
X257261Y521893D01*
X257296Y521863D01*
X258477Y520682D01*
X258507Y520646D01*
X258532Y520607D01*
X258537Y520594D01*
X258549Y520564D01*
X258560Y520519D01*
X258564Y520472D01*
Y518898D01*
X258560Y518851D01*
X258549Y518806D01*
X258537Y518776D01*
X258532Y518763D01*
X258507Y518723D01*
X258477Y518688D01*
X257296Y517507D01*
X257261Y517477D01*
X257221Y517453D01*
X257208Y517447D01*
X257178Y517435D01*
X257133Y517424D01*
X257087Y517420D01*
X255512D01*
X255466Y517424D01*
X255420Y517435D01*
X255390Y517447D01*
X255377Y517453D01*
X255338Y517477D01*
X255302Y517507D01*
X254121Y518688D01*
X254091Y518723D01*
X254067Y518763D01*
X254062Y518776D01*
X254049Y518806D01*
X254038Y518851D01*
X254034Y518898D01*
Y520472D01*
X254038Y520519D01*
X254049Y520564D01*
X254062Y520594D01*
X254067Y520607D01*
X254091Y520646D01*
X254121Y520682D01*
X255302Y521863D01*
X255338Y521893D01*
X255377Y521917D01*
X255390Y521923D01*
X255420Y521935D01*
X255466Y521946D01*
X255512Y521950D01*
X257087D01*
X257133Y521946D01*
D02*
G37*
G36*
X220125D02*
X220170Y521935D01*
X220201Y521923D01*
X220213Y521917D01*
X220253Y521893D01*
X220288Y521863D01*
X221469Y520682D01*
X221499Y520646D01*
X221524Y520607D01*
X221529Y520594D01*
X221542Y520564D01*
X221552Y520519D01*
X221556Y520472D01*
Y518898D01*
X221552Y518851D01*
X221542Y518806D01*
X221529Y518776D01*
X221524Y518763D01*
X221499Y518723D01*
X221469Y518688D01*
X220288Y517507D01*
X220253Y517477D01*
X220213Y517453D01*
X220201Y517447D01*
X220170Y517435D01*
X220125Y517424D01*
X220079Y517420D01*
X218504D01*
X218458Y517424D01*
X218412Y517435D01*
X218382Y517447D01*
X218370Y517453D01*
X218330Y517477D01*
X218295Y517507D01*
X217113Y518688D01*
X217083Y518723D01*
X217059Y518763D01*
X217054Y518776D01*
X217041Y518806D01*
X217030Y518851D01*
X217027Y518898D01*
Y520472D01*
X217030Y520519D01*
X217041Y520564D01*
X217054Y520594D01*
X217059Y520607D01*
X217083Y520646D01*
X217113Y520682D01*
X218295Y521863D01*
X218330Y521893D01*
X218370Y521917D01*
X218382Y521923D01*
X218412Y521935D01*
X218458Y521946D01*
X218504Y521950D01*
X220079D01*
X220125Y521946D01*
D02*
G37*
G36*
X823619Y506641D02*
X823664Y506630D01*
X823695Y506618D01*
X823707Y506612D01*
X823747Y506588D01*
X823782Y506558D01*
X824963Y505377D01*
X824994Y505341D01*
X825018Y505302D01*
X825023Y505289D01*
X825036Y505259D01*
X825047Y505214D01*
X825050Y505167D01*
Y503592D01*
X825047Y503546D01*
X825036Y503501D01*
X825023Y503471D01*
X825018Y503458D01*
X824994Y503418D01*
X824963Y503383D01*
X823782Y502202D01*
X823747Y502172D01*
X823707Y502147D01*
X823695Y502142D01*
X823664Y502130D01*
X823619Y502119D01*
X823573Y502115D01*
X821998D01*
X821952Y502119D01*
X821906Y502130D01*
X821876Y502142D01*
X821863Y502147D01*
X821824Y502172D01*
X821789Y502202D01*
X820607Y503383D01*
X820577Y503418D01*
X820553Y503458D01*
X820548Y503471D01*
X820535Y503501D01*
X820524Y503546D01*
X820521Y503592D01*
Y505167D01*
X820524Y505214D01*
X820535Y505259D01*
X820548Y505289D01*
X820553Y505302D01*
X820577Y505341D01*
X820607Y505377D01*
X821789Y506558D01*
X821824Y506588D01*
X821863Y506612D01*
X821876Y506618D01*
X821906Y506630D01*
X821952Y506641D01*
X821998Y506645D01*
X823573D01*
X823619Y506641D01*
D02*
G37*
G36*
X635529D02*
X635574Y506630D01*
X635604Y506618D01*
X635617Y506612D01*
X635656Y506588D01*
X635692Y506558D01*
X636873Y505377D01*
X636903Y505341D01*
X636927Y505302D01*
X636933Y505289D01*
X636945Y505259D01*
X636956Y505214D01*
X636960Y505167D01*
Y503592D01*
X636956Y503546D01*
X636945Y503501D01*
X636933Y503471D01*
X636927Y503458D01*
X636903Y503418D01*
X636873Y503383D01*
X635692Y502202D01*
X635656Y502172D01*
X635617Y502147D01*
X635604Y502142D01*
X635574Y502130D01*
X635529Y502119D01*
X635482Y502115D01*
X633908D01*
X633861Y502119D01*
X633816Y502130D01*
X633786Y502142D01*
X633773Y502147D01*
X633733Y502172D01*
X633698Y502202D01*
X632517Y503383D01*
X632487Y503418D01*
X632462Y503458D01*
X632457Y503471D01*
X632445Y503501D01*
X632434Y503546D01*
X632430Y503592D01*
Y505167D01*
X632434Y505214D01*
X632445Y505259D01*
X632457Y505289D01*
X632462Y505302D01*
X632487Y505341D01*
X632517Y505377D01*
X633698Y506558D01*
X633733Y506588D01*
X633773Y506612D01*
X633786Y506618D01*
X633816Y506630D01*
X633861Y506641D01*
X633908Y506645D01*
X635482D01*
X635529Y506641D01*
D02*
G37*
G36*
X173668Y505804D02*
X173714Y505794D01*
X173744Y505781D01*
X173757Y505776D01*
X173796Y505751D01*
X173831Y505721D01*
X175013Y504540D01*
X175043Y504505D01*
X175067Y504465D01*
X175072Y504453D01*
X175085Y504422D01*
X175096Y504377D01*
X175099Y504331D01*
Y502756D01*
X175096Y502710D01*
X175085Y502664D01*
X175072Y502634D01*
X175067Y502621D01*
X175043Y502582D01*
X175013Y502547D01*
X173831Y501365D01*
X173796Y501335D01*
X173757Y501311D01*
X173744Y501306D01*
X173714Y501293D01*
X173668Y501282D01*
X173622Y501279D01*
X172047D01*
X172001Y501282D01*
X171956Y501293D01*
X171925Y501306D01*
X171913Y501311D01*
X171873Y501335D01*
X171838Y501365D01*
X170657Y502547D01*
X170626Y502582D01*
X170602Y502621D01*
X170597Y502634D01*
X170584Y502664D01*
X170574Y502710D01*
X170570Y502756D01*
Y504331D01*
X170574Y504377D01*
X170584Y504422D01*
X170597Y504453D01*
X170602Y504465D01*
X170626Y504505D01*
X170657Y504540D01*
X171838Y505721D01*
X171873Y505751D01*
X171913Y505776D01*
X171925Y505781D01*
X171956Y505794D01*
X172001Y505804D01*
X172047Y505808D01*
X173622D01*
X173668Y505804D01*
D02*
G37*
G36*
X567763Y505017D02*
X567808Y505006D01*
X567838Y504993D01*
X567851Y504988D01*
X567891Y504964D01*
X567926Y504934D01*
X569107Y503753D01*
X569137Y503717D01*
X569162Y503678D01*
X569167Y503665D01*
X569179Y503635D01*
X569190Y503590D01*
X569194Y503543D01*
Y501968D01*
X569190Y501922D01*
X569179Y501877D01*
X569167Y501847D01*
X569162Y501834D01*
X569137Y501794D01*
X569107Y501759D01*
X567926Y500578D01*
X567891Y500548D01*
X567851Y500524D01*
X567838Y500518D01*
X567808Y500506D01*
X567763Y500495D01*
X567717Y500491D01*
X566142D01*
X566095Y500495D01*
X566050Y500506D01*
X566020Y500518D01*
X566007Y500524D01*
X565968Y500548D01*
X565932Y500578D01*
X564751Y501759D01*
X564721Y501794D01*
X564697Y501834D01*
X564691Y501847D01*
X564679Y501877D01*
X564668Y501922D01*
X564664Y501968D01*
Y503543D01*
X564668Y503590D01*
X564679Y503635D01*
X564691Y503665D01*
X564697Y503678D01*
X564721Y503717D01*
X564751Y503753D01*
X565932Y504934D01*
X565968Y504964D01*
X566007Y504988D01*
X566020Y504993D01*
X566050Y505006D01*
X566095Y505017D01*
X566142Y505021D01*
X567717D01*
X567763Y505017D01*
D02*
G37*
G36*
X311070Y505017D02*
X311115Y505006D01*
X311145Y504993D01*
X311158Y504988D01*
X311198Y504964D01*
X311233Y504934D01*
X312414Y503753D01*
X312444Y503717D01*
X312469Y503678D01*
X312474Y503665D01*
X312486Y503635D01*
X312497Y503590D01*
X312501Y503543D01*
Y501968D01*
X312497Y501922D01*
X312486Y501877D01*
X312474Y501847D01*
X312469Y501834D01*
X312444Y501794D01*
X312414Y501759D01*
X311233Y500578D01*
X311198Y500548D01*
X311158Y500524D01*
X311145Y500518D01*
X311115Y500506D01*
X311070Y500495D01*
X311024Y500491D01*
X309449D01*
X309402Y500495D01*
X309357Y500506D01*
X309327Y500518D01*
X309314Y500524D01*
X309275Y500548D01*
X309239Y500578D01*
X308058Y501759D01*
X308028Y501794D01*
X308004Y501834D01*
X307999Y501847D01*
X307986Y501877D01*
X307975Y501922D01*
X307972Y501968D01*
Y503543D01*
X307975Y503590D01*
X307986Y503635D01*
X307999Y503665D01*
X308004Y503678D01*
X308028Y503717D01*
X308058Y503753D01*
X309239Y504934D01*
X309275Y504964D01*
X309314Y504988D01*
X309327Y504993D01*
X309357Y505006D01*
X309402Y505017D01*
X309449Y505021D01*
X311024D01*
X311070Y505017D01*
D02*
G37*
G36*
X123668D02*
X123714Y505006D01*
X123744Y504993D01*
X123757Y504988D01*
X123796Y504964D01*
X123831Y504934D01*
X125013Y503753D01*
X125043Y503717D01*
X125067Y503678D01*
X125072Y503665D01*
X125085Y503635D01*
X125096Y503590D01*
X125099Y503543D01*
Y501968D01*
X125096Y501922D01*
X125085Y501877D01*
X125072Y501847D01*
X125067Y501834D01*
X125043Y501794D01*
X125013Y501759D01*
X123831Y500578D01*
X123796Y500548D01*
X123757Y500524D01*
X123744Y500518D01*
X123714Y500506D01*
X123668Y500495D01*
X123622Y500491D01*
X122047D01*
X122001Y500495D01*
X121956Y500506D01*
X121925Y500518D01*
X121913Y500524D01*
X121873Y500548D01*
X121838Y500578D01*
X120657Y501759D01*
X120626Y501794D01*
X120602Y501834D01*
X120597Y501847D01*
X120584Y501877D01*
X120574Y501922D01*
X120570Y501968D01*
Y503543D01*
X120574Y503590D01*
X120584Y503635D01*
X120597Y503665D01*
X120602Y503678D01*
X120626Y503717D01*
X120657Y503753D01*
X121838Y504934D01*
X121873Y504964D01*
X121913Y504988D01*
X121925Y504993D01*
X121956Y505006D01*
X122001Y505017D01*
X122047Y505021D01*
X123622D01*
X123668Y505017D01*
D02*
G37*
G36*
X409101Y504230D02*
X409147Y504219D01*
X409177Y504206D01*
X409190Y504201D01*
X409229Y504177D01*
X409265Y504146D01*
X410446Y502965D01*
X410476Y502930D01*
X410500Y502890D01*
X410505Y502878D01*
X410518Y502847D01*
X410529Y502802D01*
X410532Y502756D01*
Y501181D01*
X410529Y501135D01*
X410518Y501090D01*
X410505Y501059D01*
X410500Y501047D01*
X410476Y501007D01*
X410446Y500972D01*
X409265Y499791D01*
X409229Y499760D01*
X409190Y499736D01*
X409177Y499731D01*
X409147Y499718D01*
X409101Y499708D01*
X409055Y499704D01*
X407480D01*
X407434Y499708D01*
X407389Y499718D01*
X407358Y499731D01*
X407346Y499736D01*
X407306Y499760D01*
X407271Y499791D01*
X406090Y500972D01*
X406060Y501007D01*
X406035Y501047D01*
X406030Y501059D01*
X406017Y501090D01*
X406007Y501135D01*
X406003Y501181D01*
Y502756D01*
X406007Y502802D01*
X406017Y502847D01*
X406030Y502878D01*
X406035Y502890D01*
X406060Y502930D01*
X406090Y502965D01*
X407271Y504146D01*
X407306Y504177D01*
X407346Y504201D01*
X407358Y504206D01*
X407389Y504219D01*
X407434Y504230D01*
X407480Y504233D01*
X409055D01*
X409101Y504230D01*
D02*
G37*
G36*
X823324Y501031D02*
X823369Y501020D01*
X823400Y501007D01*
X823412Y501002D01*
X823452Y500978D01*
X823487Y500948D01*
X824668Y499766D01*
X824698Y499731D01*
X824723Y499692D01*
X824728Y499679D01*
X824740Y499649D01*
X824751Y499603D01*
X824755Y499557D01*
Y497982D01*
X824751Y497936D01*
X824740Y497891D01*
X824728Y497860D01*
X824723Y497848D01*
X824698Y497808D01*
X824668Y497773D01*
X823487Y496592D01*
X823452Y496562D01*
X823412Y496537D01*
X823400Y496532D01*
X823369Y496520D01*
X823324Y496509D01*
X823278Y496505D01*
X821703D01*
X821656Y496509D01*
X821611Y496520D01*
X821581Y496532D01*
X821568Y496537D01*
X821529Y496562D01*
X821493Y496592D01*
X820312Y497773D01*
X820282Y497808D01*
X820258Y497848D01*
X820253Y497860D01*
X820240Y497891D01*
X820229Y497936D01*
X820225Y497982D01*
Y499557D01*
X820229Y499603D01*
X820240Y499649D01*
X820253Y499679D01*
X820258Y499692D01*
X820282Y499731D01*
X820312Y499766D01*
X821493Y500948D01*
X821529Y500978D01*
X821568Y501002D01*
X821581Y501007D01*
X821611Y501020D01*
X821656Y501031D01*
X821703Y501034D01*
X823278D01*
X823324Y501031D01*
D02*
G37*
G36*
X635824D02*
X635869Y501020D01*
X635899Y501007D01*
X635912Y501002D01*
X635952Y500978D01*
X635987Y500948D01*
X637168Y499766D01*
X637198Y499731D01*
X637223Y499692D01*
X637228Y499679D01*
X637240Y499649D01*
X637251Y499603D01*
X637255Y499557D01*
Y497982D01*
X637251Y497936D01*
X637240Y497891D01*
X637228Y497860D01*
X637223Y497848D01*
X637198Y497808D01*
X637168Y497773D01*
X635987Y496592D01*
X635952Y496562D01*
X635912Y496537D01*
X635899Y496532D01*
X635869Y496520D01*
X635824Y496509D01*
X635778Y496505D01*
X634203D01*
X634156Y496509D01*
X634111Y496520D01*
X634081Y496532D01*
X634068Y496537D01*
X634029Y496562D01*
X633993Y496592D01*
X632812Y497773D01*
X632782Y497808D01*
X632758Y497848D01*
X632753Y497860D01*
X632740Y497891D01*
X632729Y497936D01*
X632725Y497982D01*
Y499557D01*
X632729Y499603D01*
X632740Y499649D01*
X632753Y499679D01*
X632758Y499692D01*
X632782Y499731D01*
X632812Y499766D01*
X633993Y500948D01*
X634029Y500978D01*
X634068Y501002D01*
X634081Y501007D01*
X634111Y501020D01*
X634156Y501031D01*
X634203Y501034D01*
X635778D01*
X635824Y501031D01*
D02*
G37*
G36*
X567763Y499505D02*
X567808Y499494D01*
X567838Y499482D01*
X567851Y499476D01*
X567891Y499452D01*
X567926Y499422D01*
X569107Y498241D01*
X569137Y498206D01*
X569162Y498166D01*
X569167Y498153D01*
X569179Y498123D01*
X569190Y498078D01*
X569194Y498032D01*
Y496457D01*
X569190Y496410D01*
X569179Y496365D01*
X569167Y496335D01*
X569162Y496322D01*
X569137Y496283D01*
X569107Y496247D01*
X567926Y495066D01*
X567891Y495036D01*
X567851Y495012D01*
X567838Y495007D01*
X567808Y494994D01*
X567763Y494983D01*
X567717Y494979D01*
X566142D01*
X566095Y494983D01*
X566050Y494994D01*
X566020Y495007D01*
X566007Y495012D01*
X565968Y495036D01*
X565932Y495066D01*
X564751Y496247D01*
X564721Y496283D01*
X564697Y496322D01*
X564691Y496335D01*
X564679Y496365D01*
X564668Y496410D01*
X564664Y496457D01*
Y498032D01*
X564668Y498078D01*
X564679Y498123D01*
X564691Y498153D01*
X564697Y498166D01*
X564721Y498206D01*
X564751Y498241D01*
X565932Y499422D01*
X565968Y499452D01*
X566007Y499476D01*
X566020Y499482D01*
X566050Y499494D01*
X566095Y499505D01*
X566142Y499509D01*
X567717D01*
X567763Y499505D01*
D02*
G37*
G36*
X311070Y499505D02*
X311115Y499494D01*
X311145Y499482D01*
X311158Y499476D01*
X311198Y499452D01*
X311233Y499422D01*
X312414Y498241D01*
X312444Y498206D01*
X312469Y498166D01*
X312474Y498153D01*
X312486Y498123D01*
X312497Y498078D01*
X312501Y498032D01*
Y496457D01*
X312497Y496410D01*
X312486Y496365D01*
X312474Y496335D01*
X312469Y496322D01*
X312444Y496283D01*
X312414Y496247D01*
X311233Y495066D01*
X311198Y495036D01*
X311158Y495012D01*
X311145Y495007D01*
X311115Y494994D01*
X311070Y494983D01*
X311024Y494979D01*
X309449D01*
X309402Y494983D01*
X309357Y494994D01*
X309327Y495007D01*
X309314Y495012D01*
X309275Y495036D01*
X309239Y495066D01*
X308058Y496247D01*
X308028Y496283D01*
X308004Y496322D01*
X307999Y496335D01*
X307986Y496365D01*
X307975Y496410D01*
X307972Y496457D01*
Y498032D01*
X307975Y498078D01*
X307986Y498123D01*
X307999Y498153D01*
X308004Y498166D01*
X308028Y498206D01*
X308058Y498241D01*
X309239Y499422D01*
X309275Y499452D01*
X309314Y499476D01*
X309327Y499482D01*
X309357Y499494D01*
X309402Y499505D01*
X309449Y499509D01*
X311024D01*
X311070Y499505D01*
D02*
G37*
G36*
X123668D02*
X123714Y499494D01*
X123744Y499482D01*
X123757Y499476D01*
X123796Y499452D01*
X123831Y499422D01*
X125013Y498241D01*
X125043Y498206D01*
X125067Y498166D01*
X125072Y498153D01*
X125085Y498123D01*
X125096Y498078D01*
X125099Y498032D01*
Y496457D01*
X125096Y496410D01*
X125085Y496365D01*
X125072Y496335D01*
X125067Y496322D01*
X125043Y496283D01*
X125013Y496247D01*
X123831Y495066D01*
X123796Y495036D01*
X123757Y495012D01*
X123744Y495007D01*
X123714Y494994D01*
X123668Y494983D01*
X123622Y494979D01*
X122047D01*
X122001Y494983D01*
X121956Y494994D01*
X121925Y495007D01*
X121913Y495012D01*
X121873Y495036D01*
X121838Y495066D01*
X120657Y496247D01*
X120626Y496283D01*
X120602Y496322D01*
X120597Y496335D01*
X120584Y496365D01*
X120574Y496410D01*
X120570Y496457D01*
Y498032D01*
X120574Y498078D01*
X120584Y498123D01*
X120597Y498153D01*
X120602Y498166D01*
X120626Y498206D01*
X120657Y498241D01*
X121838Y499422D01*
X121873Y499452D01*
X121913Y499476D01*
X121925Y499482D01*
X121956Y499494D01*
X122001Y499505D01*
X122047Y499509D01*
X123622D01*
X123668Y499505D01*
D02*
G37*
G36*
X444928Y466828D02*
X444973Y466817D01*
X445004Y466805D01*
X445016Y466799D01*
X445056Y466775D01*
X445091Y466745D01*
X446272Y465564D01*
X446303Y465528D01*
X446327Y465489D01*
X446332Y465476D01*
X446345Y465446D01*
X446355Y465401D01*
X446359Y465354D01*
Y463780D01*
X446355Y463733D01*
X446345Y463688D01*
X446332Y463658D01*
X446327Y463645D01*
X446303Y463605D01*
X446272Y463570D01*
X445091Y462389D01*
X445056Y462359D01*
X445016Y462334D01*
X445004Y462329D01*
X444973Y462317D01*
X444928Y462306D01*
X444882Y462302D01*
X443307D01*
X443261Y462306D01*
X443216Y462317D01*
X443185Y462329D01*
X443173Y462334D01*
X443133Y462359D01*
X443098Y462389D01*
X441917Y463570D01*
X441886Y463605D01*
X441862Y463645D01*
X441857Y463658D01*
X441844Y463688D01*
X441833Y463733D01*
X441830Y463780D01*
Y465354D01*
X441833Y465401D01*
X441844Y465446D01*
X441857Y465476D01*
X441862Y465489D01*
X441886Y465528D01*
X441917Y465564D01*
X443098Y466745D01*
X443133Y466775D01*
X443173Y466799D01*
X443185Y466805D01*
X443216Y466817D01*
X443261Y466828D01*
X443307Y466832D01*
X444882D01*
X444928Y466828D01*
D02*
G37*
G36*
X733511Y431395D02*
X733556Y431384D01*
X733586Y431371D01*
X733599Y431366D01*
X733639Y431342D01*
X733674Y431312D01*
X734855Y430131D01*
X734885Y430095D01*
X734910Y430056D01*
X734915Y430043D01*
X734927Y430013D01*
X734938Y429968D01*
X734942Y429921D01*
Y428346D01*
X734938Y428300D01*
X734927Y428255D01*
X734915Y428225D01*
X734910Y428212D01*
X734885Y428172D01*
X734855Y428137D01*
X733674Y426956D01*
X733639Y426926D01*
X733599Y426901D01*
X733586Y426896D01*
X733556Y426884D01*
X733511Y426873D01*
X733465Y426869D01*
X731890D01*
X731843Y426873D01*
X731798Y426884D01*
X731768Y426896D01*
X731755Y426901D01*
X731716Y426926D01*
X731680Y426956D01*
X730499Y428137D01*
X730469Y428172D01*
X730445Y428212D01*
X730440Y428225D01*
X730427Y428255D01*
X730416Y428300D01*
X730412Y428346D01*
Y429921D01*
X730416Y429968D01*
X730427Y430013D01*
X730440Y430043D01*
X730445Y430056D01*
X730469Y430095D01*
X730499Y430131D01*
X731680Y431312D01*
X731716Y431342D01*
X731755Y431366D01*
X731768Y431371D01*
X731798Y431384D01*
X731843Y431395D01*
X731890Y431398D01*
X733465D01*
X733511Y431395D01*
D02*
G37*
G36*
X734692Y401474D02*
X734737Y401463D01*
X734768Y401450D01*
X734780Y401445D01*
X734820Y401421D01*
X734855Y401391D01*
X736036Y400209D01*
X736066Y400174D01*
X736091Y400135D01*
X736096Y400122D01*
X736108Y400092D01*
X736119Y400046D01*
X736123Y400000D01*
Y398425D01*
X736119Y398379D01*
X736108Y398334D01*
X736096Y398303D01*
X736091Y398291D01*
X736066Y398251D01*
X736036Y398216D01*
X734855Y397035D01*
X734820Y397005D01*
X734780Y396980D01*
X734768Y396975D01*
X734737Y396962D01*
X734692Y396952D01*
X734646Y396948D01*
X733071D01*
X733025Y396952D01*
X732979Y396962D01*
X732949Y396975D01*
X732936Y396980D01*
X732897Y397005D01*
X732861Y397035D01*
X731680Y398216D01*
X731650Y398251D01*
X731626Y398291D01*
X731621Y398303D01*
X731608Y398334D01*
X731597Y398379D01*
X731594Y398425D01*
Y400000D01*
X731597Y400046D01*
X731608Y400092D01*
X731621Y400122D01*
X731626Y400135D01*
X731650Y400174D01*
X731680Y400209D01*
X732861Y401391D01*
X732897Y401421D01*
X732936Y401445D01*
X732949Y401450D01*
X732979Y401463D01*
X733025Y401474D01*
X733071Y401477D01*
X734646D01*
X734692Y401474D01*
D02*
G37*
G36*
X723668Y394387D02*
X723714Y394376D01*
X723744Y394364D01*
X723757Y394358D01*
X723796Y394334D01*
X723832Y394304D01*
X725013Y393123D01*
X725043Y393088D01*
X725067Y393048D01*
X725072Y393035D01*
X725085Y393005D01*
X725096Y392960D01*
X725099Y392913D01*
Y391339D01*
X725096Y391292D01*
X725085Y391247D01*
X725072Y391217D01*
X725067Y391204D01*
X725043Y391164D01*
X725013Y391129D01*
X723832Y389948D01*
X723796Y389918D01*
X723757Y389894D01*
X723744Y389888D01*
X723714Y389876D01*
X723668Y389865D01*
X723622Y389861D01*
X722047D01*
X722001Y389865D01*
X721956Y389876D01*
X721925Y389888D01*
X721913Y389894D01*
X721873Y389918D01*
X721838Y389948D01*
X720657Y391129D01*
X720626Y391164D01*
X720602Y391204D01*
X720597Y391217D01*
X720584Y391247D01*
X720574Y391292D01*
X720570Y391339D01*
Y392913D01*
X720574Y392960D01*
X720584Y393005D01*
X720597Y393035D01*
X720602Y393048D01*
X720626Y393088D01*
X720657Y393123D01*
X721838Y394304D01*
X721873Y394334D01*
X721913Y394358D01*
X721925Y394364D01*
X721956Y394376D01*
X722001Y394387D01*
X722047Y394391D01*
X723622D01*
X723668Y394387D01*
D02*
G37*
G36*
X944928Y312104D02*
X944973Y312093D01*
X945004Y312080D01*
X945016Y312075D01*
X945056Y312051D01*
X945091Y312020D01*
X946272Y310839D01*
X946303Y310804D01*
X946327Y310764D01*
X946332Y310752D01*
X946345Y310721D01*
X946356Y310676D01*
X946359Y310630D01*
Y309055D01*
X946356Y309009D01*
X946345Y308964D01*
X946332Y308933D01*
X946327Y308921D01*
X946303Y308881D01*
X946272Y308846D01*
X945091Y307665D01*
X945056Y307634D01*
X945016Y307610D01*
X945004Y307605D01*
X944973Y307592D01*
X944928Y307581D01*
X944882Y307578D01*
X943307D01*
X943261Y307581D01*
X943215Y307592D01*
X943185Y307605D01*
X943173Y307610D01*
X943133Y307634D01*
X943098Y307665D01*
X941916Y308846D01*
X941886Y308881D01*
X941862Y308921D01*
X941857Y308933D01*
X941844Y308964D01*
X941833Y309009D01*
X941830Y309055D01*
Y310630D01*
X941833Y310676D01*
X941844Y310721D01*
X941857Y310752D01*
X941862Y310764D01*
X941886Y310804D01*
X941916Y310839D01*
X943098Y312020D01*
X943133Y312051D01*
X943173Y312075D01*
X943185Y312080D01*
X943215Y312093D01*
X943261Y312104D01*
X943307Y312107D01*
X944882D01*
X944928Y312104D01*
D02*
G37*
G36*
X907133D02*
X907178Y312093D01*
X907209Y312080D01*
X907221Y312075D01*
X907261Y312051D01*
X907296Y312020D01*
X908477Y310839D01*
X908507Y310804D01*
X908532Y310764D01*
X908537Y310752D01*
X908549Y310721D01*
X908560Y310676D01*
X908564Y310630D01*
Y309055D01*
X908560Y309009D01*
X908549Y308964D01*
X908537Y308933D01*
X908532Y308921D01*
X908507Y308881D01*
X908477Y308846D01*
X907296Y307665D01*
X907261Y307634D01*
X907221Y307610D01*
X907209Y307605D01*
X907178Y307592D01*
X907133Y307581D01*
X907087Y307578D01*
X905512D01*
X905466Y307581D01*
X905420Y307592D01*
X905390Y307605D01*
X905377Y307610D01*
X905338Y307634D01*
X905302Y307665D01*
X904121Y308846D01*
X904091Y308881D01*
X904067Y308921D01*
X904062Y308933D01*
X904049Y308964D01*
X904038Y309009D01*
X904035Y309055D01*
Y310630D01*
X904038Y310676D01*
X904049Y310721D01*
X904062Y310752D01*
X904067Y310764D01*
X904091Y310804D01*
X904121Y310839D01*
X905302Y312020D01*
X905338Y312051D01*
X905377Y312075D01*
X905390Y312080D01*
X905420Y312093D01*
X905466Y312104D01*
X905512Y312107D01*
X907087D01*
X907133Y312104D01*
D02*
G37*
G36*
X478325Y310384D02*
Y295837D01*
X472813Y299019D01*
Y307202D01*
X465727Y311294D01*
Y317658D01*
X478325Y310384D01*
D02*
G37*
G36*
X953590Y286513D02*
X953635Y286502D01*
X953665Y286490D01*
X953678Y286484D01*
X953717Y286460D01*
X953753Y286430D01*
X954934Y285249D01*
X954964Y285213D01*
X954988Y285174D01*
X954994Y285161D01*
X955006Y285131D01*
X955017Y285086D01*
X955021Y285039D01*
Y283465D01*
X955017Y283418D01*
X955006Y283373D01*
X954994Y283343D01*
X954988Y283330D01*
X954964Y283291D01*
X954934Y283255D01*
X953753Y282074D01*
X953717Y282044D01*
X953678Y282019D01*
X953665Y282014D01*
X953635Y282002D01*
X953590Y281991D01*
X953543Y281987D01*
X951968D01*
X951922Y281991D01*
X951877Y282002D01*
X951847Y282014D01*
X951834Y282019D01*
X951794Y282044D01*
X951759Y282074D01*
X950578Y283255D01*
X950548Y283291D01*
X950523Y283330D01*
X950518Y283343D01*
X950506Y283373D01*
X950495Y283418D01*
X950491Y283465D01*
Y285039D01*
X950495Y285086D01*
X950506Y285131D01*
X950518Y285161D01*
X950523Y285174D01*
X950548Y285213D01*
X950578Y285249D01*
X951759Y286430D01*
X951794Y286460D01*
X951834Y286484D01*
X951847Y286490D01*
X951877Y286502D01*
X951922Y286513D01*
X951968Y286517D01*
X953543D01*
X953590Y286513D01*
D02*
G37*
G36*
X1009889Y281395D02*
X1009934Y281384D01*
X1009964Y281371D01*
X1009977Y281366D01*
X1010017Y281342D01*
X1010052Y281312D01*
X1011233Y280131D01*
X1011263Y280095D01*
X1011287Y280056D01*
X1011293Y280043D01*
X1011305Y280013D01*
X1011316Y279968D01*
X1011320Y279921D01*
Y278346D01*
X1011316Y278300D01*
X1011305Y278255D01*
X1011293Y278224D01*
X1011287Y278212D01*
X1011263Y278172D01*
X1011233Y278137D01*
X1010052Y276956D01*
X1010017Y276926D01*
X1009977Y276901D01*
X1009964Y276896D01*
X1009934Y276884D01*
X1009889Y276873D01*
X1009842Y276869D01*
X1008268D01*
X1008221Y276873D01*
X1008176Y276884D01*
X1008146Y276896D01*
X1008133Y276901D01*
X1008094Y276926D01*
X1008058Y276956D01*
X1006877Y278137D01*
X1006847Y278172D01*
X1006823Y278212D01*
X1006818Y278224D01*
X1006805Y278255D01*
X1006794Y278300D01*
X1006790Y278346D01*
Y279921D01*
X1006794Y279968D01*
X1006805Y280013D01*
X1006818Y280043D01*
X1006823Y280056D01*
X1006847Y280095D01*
X1006877Y280131D01*
X1008058Y281312D01*
X1008094Y281342D01*
X1008133Y281366D01*
X1008146Y281371D01*
X1008176Y281384D01*
X1008221Y281395D01*
X1008268Y281399D01*
X1009842D01*
X1009889Y281395D01*
D02*
G37*
G36*
X478325Y287550D02*
Y273002D01*
X472813Y276185D01*
Y284367D01*
X465727Y288459D01*
Y294824D01*
X478325Y287550D01*
D02*
G37*
G36*
X1005952Y275096D02*
X1005997Y275085D01*
X1006027Y275072D01*
X1006040Y275067D01*
X1006080Y275043D01*
X1006115Y275013D01*
X1007296Y273832D01*
X1007326Y273796D01*
X1007351Y273757D01*
X1007356Y273744D01*
X1007368Y273714D01*
X1007379Y273668D01*
X1007383Y273622D01*
Y272047D01*
X1007379Y272001D01*
X1007368Y271956D01*
X1007356Y271925D01*
X1007351Y271913D01*
X1007326Y271873D01*
X1007296Y271838D01*
X1006115Y270657D01*
X1006080Y270626D01*
X1006040Y270602D01*
X1006027Y270597D01*
X1005997Y270584D01*
X1005952Y270574D01*
X1005906Y270570D01*
X1004331D01*
X1004284Y270574D01*
X1004239Y270584D01*
X1004209Y270597D01*
X1004196Y270602D01*
X1004157Y270626D01*
X1004121Y270657D01*
X1002940Y271838D01*
X1002910Y271873D01*
X1002886Y271913D01*
X1002880Y271925D01*
X1002868Y271956D01*
X1002857Y272001D01*
X1002853Y272047D01*
Y273622D01*
X1002857Y273668D01*
X1002868Y273714D01*
X1002880Y273744D01*
X1002886Y273757D01*
X1002910Y273796D01*
X1002940Y273832D01*
X1004121Y275013D01*
X1004157Y275043D01*
X1004196Y275067D01*
X1004209Y275072D01*
X1004239Y275085D01*
X1004284Y275096D01*
X1004331Y275099D01*
X1005906D01*
X1005952Y275096D01*
D02*
G37*
G36*
X498010Y276132D02*
Y261585D01*
X492498Y264767D01*
Y272950D01*
X485412Y277042D01*
Y283406D01*
X498010Y276132D01*
D02*
G37*
G36*
X458640D02*
Y261585D01*
X453128Y264767D01*
Y272950D01*
X446042Y277042D01*
Y283406D01*
X458640Y276132D01*
D02*
G37*
G36*
X478325Y264715D02*
Y250168D01*
X472813Y253350D01*
Y261533D01*
X465727Y265624D01*
Y271989D01*
X478325Y264715D01*
D02*
G37*
G36*
X950046Y252655D02*
X950091Y252644D01*
X950122Y252631D01*
X950134Y252626D01*
X950174Y252602D01*
X950209Y252572D01*
X951390Y251391D01*
X951421Y251355D01*
X951445Y251316D01*
X951450Y251303D01*
X951463Y251273D01*
X951474Y251227D01*
X951477Y251181D01*
Y249606D01*
X951474Y249560D01*
X951463Y249515D01*
X951450Y249484D01*
X951445Y249472D01*
X951421Y249432D01*
X951390Y249397D01*
X950209Y248216D01*
X950174Y248186D01*
X950134Y248161D01*
X950122Y248156D01*
X950091Y248144D01*
X950046Y248133D01*
X950000Y248129D01*
X948425D01*
X948379Y248133D01*
X948334Y248144D01*
X948303Y248156D01*
X948291Y248161D01*
X948251Y248186D01*
X948216Y248216D01*
X947035Y249397D01*
X947005Y249432D01*
X946980Y249472D01*
X946975Y249484D01*
X946962Y249515D01*
X946951Y249560D01*
X946948Y249606D01*
Y251181D01*
X946951Y251227D01*
X946962Y251273D01*
X946975Y251303D01*
X946980Y251316D01*
X947005Y251355D01*
X947035Y251391D01*
X948216Y252572D01*
X948251Y252602D01*
X948291Y252626D01*
X948303Y252631D01*
X948334Y252644D01*
X948379Y252655D01*
X948425Y252658D01*
X950000D01*
X950046Y252655D01*
D02*
G37*
G36*
X763472Y249151D02*
X763517Y249140D01*
X763547Y249127D01*
X763560Y249122D01*
X763599Y249098D01*
X763635Y249068D01*
X764816Y247887D01*
X764846Y247851D01*
X764870Y247812D01*
X764875Y247799D01*
X764888Y247769D01*
X764899Y247724D01*
X764902Y247677D01*
Y246102D01*
X764899Y246056D01*
X764888Y246011D01*
X764875Y245981D01*
X764870Y245968D01*
X764846Y245928D01*
X764816Y245893D01*
X763635Y244712D01*
X763599Y244682D01*
X763560Y244657D01*
X763547Y244652D01*
X763517Y244639D01*
X763472Y244629D01*
X763425Y244625D01*
X761850D01*
X761804Y244629D01*
X761759Y244639D01*
X761728Y244652D01*
X761716Y244657D01*
X761676Y244682D01*
X761641Y244712D01*
X760460Y245893D01*
X760430Y245928D01*
X760405Y245968D01*
X760400Y245981D01*
X760388Y246011D01*
X760377Y246056D01*
X760373Y246102D01*
Y247677D01*
X760377Y247724D01*
X760388Y247769D01*
X760400Y247799D01*
X760405Y247812D01*
X760430Y247851D01*
X760460Y247887D01*
X761641Y249068D01*
X761676Y249098D01*
X761716Y249122D01*
X761728Y249127D01*
X761759Y249140D01*
X761804Y249151D01*
X761850Y249154D01*
X763425D01*
X763472Y249151D01*
D02*
G37*
G36*
X576464D02*
X576509Y249140D01*
X576539Y249127D01*
X576552Y249122D01*
X576591Y249098D01*
X576627Y249068D01*
X577808Y247887D01*
X577838Y247851D01*
X577862Y247812D01*
X577868Y247799D01*
X577880Y247769D01*
X577891Y247724D01*
X577895Y247677D01*
Y246102D01*
X577891Y246056D01*
X577880Y246011D01*
X577868Y245981D01*
X577862Y245968D01*
X577838Y245928D01*
X577808Y245893D01*
X576627Y244712D01*
X576591Y244682D01*
X576552Y244657D01*
X576539Y244652D01*
X576509Y244639D01*
X576464Y244629D01*
X576417Y244625D01*
X574843D01*
X574796Y244629D01*
X574751Y244639D01*
X574721Y244652D01*
X574708Y244657D01*
X574668Y244682D01*
X574633Y244712D01*
X573452Y245893D01*
X573422Y245928D01*
X573397Y245968D01*
X573392Y245981D01*
X573380Y246011D01*
X573369Y246056D01*
X573365Y246102D01*
Y247677D01*
X573369Y247724D01*
X573380Y247769D01*
X573392Y247799D01*
X573397Y247812D01*
X573422Y247851D01*
X573452Y247887D01*
X574633Y249068D01*
X574668Y249098D01*
X574708Y249122D01*
X574721Y249127D01*
X574751Y249140D01*
X574796Y249151D01*
X574843Y249154D01*
X576417D01*
X576464Y249151D01*
D02*
G37*
G36*
X763472Y243639D02*
X763517Y243628D01*
X763547Y243616D01*
X763560Y243610D01*
X763599Y243586D01*
X763635Y243556D01*
X764816Y242375D01*
X764846Y242339D01*
X764870Y242300D01*
X764875Y242287D01*
X764888Y242257D01*
X764899Y242212D01*
X764902Y242165D01*
Y240591D01*
X764899Y240544D01*
X764888Y240499D01*
X764875Y240469D01*
X764870Y240456D01*
X764846Y240416D01*
X764816Y240381D01*
X763635Y239200D01*
X763599Y239170D01*
X763560Y239145D01*
X763547Y239140D01*
X763517Y239128D01*
X763472Y239117D01*
X763425Y239113D01*
X761850D01*
X761804Y239117D01*
X761759Y239128D01*
X761728Y239140D01*
X761716Y239145D01*
X761676Y239170D01*
X761641Y239200D01*
X760460Y240381D01*
X760430Y240416D01*
X760405Y240456D01*
X760400Y240469D01*
X760388Y240499D01*
X760377Y240544D01*
X760373Y240591D01*
Y242165D01*
X760377Y242212D01*
X760388Y242257D01*
X760400Y242287D01*
X760405Y242300D01*
X760430Y242339D01*
X760460Y242375D01*
X761641Y243556D01*
X761676Y243586D01*
X761716Y243610D01*
X761728Y243616D01*
X761759Y243628D01*
X761804Y243639D01*
X761850Y243643D01*
X763425D01*
X763472Y243639D01*
D02*
G37*
G36*
X576464D02*
X576509Y243628D01*
X576539Y243616D01*
X576552Y243610D01*
X576591Y243586D01*
X576627Y243556D01*
X577808Y242375D01*
X577838Y242339D01*
X577862Y242300D01*
X577868Y242287D01*
X577880Y242257D01*
X577891Y242212D01*
X577895Y242165D01*
Y240591D01*
X577891Y240544D01*
X577880Y240499D01*
X577868Y240469D01*
X577862Y240456D01*
X577838Y240416D01*
X577808Y240381D01*
X576627Y239200D01*
X576591Y239170D01*
X576552Y239145D01*
X576539Y239140D01*
X576509Y239128D01*
X576464Y239117D01*
X576417Y239113D01*
X574843D01*
X574796Y239117D01*
X574751Y239128D01*
X574721Y239140D01*
X574708Y239145D01*
X574668Y239170D01*
X574633Y239200D01*
X573452Y240381D01*
X573422Y240416D01*
X573397Y240456D01*
X573392Y240469D01*
X573380Y240499D01*
X573369Y240544D01*
X573365Y240591D01*
Y242165D01*
X573369Y242212D01*
X573380Y242257D01*
X573392Y242287D01*
X573397Y242300D01*
X573422Y242339D01*
X573452Y242375D01*
X574633Y243556D01*
X574668Y243586D01*
X574708Y243610D01*
X574721Y243616D01*
X574751Y243628D01*
X574796Y243639D01*
X574843Y243643D01*
X576417D01*
X576464Y243639D01*
D02*
G37*
G36*
X498010Y253298D02*
Y238750D01*
X492498Y241933D01*
Y250115D01*
X485412Y254207D01*
Y260572D01*
X498010Y253298D01*
D02*
G37*
G36*
X1005558Y239663D02*
X1005603Y239652D01*
X1005634Y239639D01*
X1005646Y239634D01*
X1005686Y239610D01*
X1005721Y239580D01*
X1006902Y238398D01*
X1006933Y238363D01*
X1006957Y238323D01*
X1006962Y238311D01*
X1006975Y238281D01*
X1006985Y238235D01*
X1006989Y238189D01*
Y236614D01*
X1006985Y236568D01*
X1006975Y236523D01*
X1006962Y236492D01*
X1006957Y236480D01*
X1006933Y236440D01*
X1006902Y236405D01*
X1005721Y235224D01*
X1005686Y235193D01*
X1005646Y235169D01*
X1005634Y235164D01*
X1005603Y235151D01*
X1005558Y235140D01*
X1005512Y235137D01*
X1003937D01*
X1003891Y235140D01*
X1003846Y235151D01*
X1003815Y235164D01*
X1003802Y235169D01*
X1003763Y235193D01*
X1003728Y235224D01*
X1002547Y236405D01*
X1002516Y236440D01*
X1002492Y236480D01*
X1002487Y236492D01*
X1002474Y236523D01*
X1002463Y236568D01*
X1002460Y236614D01*
Y238189D01*
X1002463Y238235D01*
X1002474Y238281D01*
X1002487Y238311D01*
X1002492Y238323D01*
X1002516Y238363D01*
X1002547Y238398D01*
X1003728Y239580D01*
X1003763Y239610D01*
X1003802Y239634D01*
X1003815Y239639D01*
X1003846Y239652D01*
X1003891Y239663D01*
X1003937Y239666D01*
X1005512D01*
X1005558Y239663D01*
D02*
G37*
G36*
X945322Y236119D02*
X945367Y236108D01*
X945397Y236096D01*
X945410Y236091D01*
X945450Y236066D01*
X945485Y236036D01*
X946666Y234855D01*
X946696Y234820D01*
X946721Y234780D01*
X946726Y234768D01*
X946738Y234737D01*
X946749Y234692D01*
X946753Y234646D01*
Y233071D01*
X946749Y233025D01*
X946738Y232979D01*
X946726Y232949D01*
X946721Y232936D01*
X946696Y232897D01*
X946666Y232861D01*
X945485Y231680D01*
X945450Y231650D01*
X945410Y231626D01*
X945397Y231621D01*
X945367Y231608D01*
X945322Y231597D01*
X945276Y231594D01*
X943701D01*
X943654Y231597D01*
X943609Y231608D01*
X943579Y231621D01*
X943566Y231626D01*
X943527Y231650D01*
X943491Y231680D01*
X942310Y232861D01*
X942280Y232897D01*
X942256Y232936D01*
X942251Y232949D01*
X942238Y232979D01*
X942227Y233025D01*
X942223Y233071D01*
Y234646D01*
X942227Y234692D01*
X942238Y234737D01*
X942251Y234768D01*
X942256Y234780D01*
X942280Y234820D01*
X942310Y234855D01*
X943491Y236036D01*
X943527Y236066D01*
X943566Y236091D01*
X943579Y236096D01*
X943609Y236108D01*
X943654Y236119D01*
X943701Y236123D01*
X945276D01*
X945322Y236119D01*
D02*
G37*
G36*
X939023D02*
X939068Y236108D01*
X939098Y236096D01*
X939111Y236091D01*
X939151Y236066D01*
X939186Y236036D01*
X940367Y234855D01*
X940397Y234820D01*
X940421Y234780D01*
X940427Y234768D01*
X940439Y234737D01*
X940450Y234692D01*
X940454Y234646D01*
Y233071D01*
X940450Y233025D01*
X940439Y232979D01*
X940427Y232949D01*
X940421Y232936D01*
X940397Y232897D01*
X940367Y232861D01*
X939186Y231680D01*
X939151Y231650D01*
X939111Y231626D01*
X939098Y231621D01*
X939068Y231608D01*
X939023Y231597D01*
X938976Y231594D01*
X937402D01*
X937355Y231597D01*
X937310Y231608D01*
X937280Y231621D01*
X937267Y231626D01*
X937228Y231650D01*
X937192Y231680D01*
X936011Y232861D01*
X935981Y232897D01*
X935957Y232936D01*
X935951Y232949D01*
X935939Y232979D01*
X935928Y233025D01*
X935924Y233071D01*
Y234646D01*
X935928Y234692D01*
X935939Y234737D01*
X935951Y234768D01*
X935957Y234780D01*
X935981Y234820D01*
X936011Y234855D01*
X937192Y236036D01*
X937228Y236066D01*
X937267Y236091D01*
X937280Y236096D01*
X937310Y236108D01*
X937355Y236119D01*
X937402Y236123D01*
X938976D01*
X939023Y236119D01*
D02*
G37*
G36*
X1001865Y232191D02*
X1001911Y232180D01*
X1001941Y232167D01*
X1001954Y232162D01*
X1001993Y232138D01*
X1002029Y232108D01*
X1003210Y230926D01*
X1003240Y230891D01*
X1003264Y230852D01*
X1003269Y230839D01*
X1003282Y230809D01*
X1003293Y230763D01*
X1003296Y230717D01*
Y229142D01*
X1003293Y229096D01*
X1003282Y229051D01*
X1003269Y229020D01*
X1003264Y229008D01*
X1003240Y228968D01*
X1003210Y228933D01*
X1002029Y227752D01*
X1001993Y227722D01*
X1001954Y227697D01*
X1001941Y227692D01*
X1001911Y227679D01*
X1001865Y227669D01*
X1001819Y227665D01*
X1000244D01*
X1000198Y227669D01*
X1000153Y227679D01*
X1000123Y227692D01*
X1000110Y227697D01*
X1000070Y227722D01*
X1000035Y227752D01*
X998854Y228933D01*
X998824Y228968D01*
X998799Y229008D01*
X998794Y229020D01*
X998781Y229051D01*
X998771Y229096D01*
X998767Y229142D01*
Y230717D01*
X998771Y230763D01*
X998781Y230809D01*
X998794Y230839D01*
X998799Y230852D01*
X998824Y230891D01*
X998854Y230926D01*
X1000035Y232108D01*
X1000070Y232138D01*
X1000110Y232162D01*
X1000123Y232167D01*
X1000153Y232180D01*
X1000198Y232191D01*
X1000244Y232194D01*
X1001819D01*
X1001865Y232191D01*
D02*
G37*
G36*
X915007Y224702D02*
X915052Y224691D01*
X915082Y224679D01*
X915095Y224673D01*
X915135Y224649D01*
X915170Y224619D01*
X916351Y223438D01*
X916381Y223402D01*
X916406Y223363D01*
X916411Y223350D01*
X916423Y223320D01*
X916434Y223275D01*
X916438Y223228D01*
Y221654D01*
X916434Y221607D01*
X916423Y221562D01*
X916411Y221532D01*
X916406Y221519D01*
X916381Y221479D01*
X916351Y221444D01*
X915170Y220263D01*
X915135Y220233D01*
X915095Y220209D01*
X915082Y220203D01*
X915052Y220191D01*
X915007Y220180D01*
X914961Y220176D01*
X913386D01*
X913340Y220180D01*
X913294Y220191D01*
X913264Y220203D01*
X913251Y220209D01*
X913212Y220233D01*
X913176Y220263D01*
X911995Y221444D01*
X911965Y221479D01*
X911941Y221519D01*
X911936Y221532D01*
X911923Y221562D01*
X911912Y221607D01*
X911909Y221654D01*
Y223228D01*
X911912Y223275D01*
X911923Y223320D01*
X911936Y223350D01*
X911941Y223363D01*
X911965Y223402D01*
X911995Y223438D01*
X913176Y224619D01*
X913212Y224649D01*
X913251Y224673D01*
X913264Y224679D01*
X913294Y224691D01*
X913340Y224702D01*
X913386Y224706D01*
X914961D01*
X915007Y224702D01*
D02*
G37*
G36*
X498404Y230857D02*
Y216309D01*
X492892Y219492D01*
Y227675D01*
X485805Y231766D01*
Y238130D01*
X498404Y230857D01*
D02*
G37*
G36*
X131081Y230463D02*
Y215916D01*
X125569Y219098D01*
Y227281D01*
X118482Y231372D01*
Y237737D01*
X131081Y230463D01*
D02*
G37*
G36*
X961070Y210135D02*
X961115Y210124D01*
X961145Y210112D01*
X961158Y210106D01*
X961198Y210082D01*
X961233Y210052D01*
X962414Y208871D01*
X962444Y208836D01*
X962469Y208796D01*
X962474Y208783D01*
X962486Y208753D01*
X962497Y208708D01*
X962501Y208661D01*
Y207087D01*
X962497Y207040D01*
X962486Y206995D01*
X962474Y206965D01*
X962469Y206952D01*
X962444Y206912D01*
X962414Y206877D01*
X961233Y205696D01*
X961198Y205666D01*
X961158Y205642D01*
X961145Y205636D01*
X961115Y205624D01*
X961070Y205613D01*
X961024Y205609D01*
X959449D01*
X959402Y205613D01*
X959357Y205624D01*
X959327Y205636D01*
X959314Y205642D01*
X959275Y205666D01*
X959239Y205696D01*
X958058Y206877D01*
X958028Y206912D01*
X958004Y206952D01*
X957999Y206965D01*
X957986Y206995D01*
X957975Y207040D01*
X957971Y207087D01*
Y208661D01*
X957975Y208708D01*
X957986Y208753D01*
X957999Y208783D01*
X958004Y208796D01*
X958028Y208836D01*
X958058Y208871D01*
X959239Y210052D01*
X959275Y210082D01*
X959314Y210106D01*
X959327Y210112D01*
X959357Y210124D01*
X959402Y210135D01*
X959449Y210139D01*
X961024D01*
X961070Y210135D01*
D02*
G37*
G36*
X959101Y201080D02*
X959147Y201069D01*
X959177Y201057D01*
X959190Y201051D01*
X959229Y201027D01*
X959265Y200997D01*
X960446Y199816D01*
X960476Y199780D01*
X960500Y199741D01*
X960505Y199728D01*
X960518Y199698D01*
X960529Y199653D01*
X960532Y199606D01*
Y198031D01*
X960529Y197985D01*
X960518Y197940D01*
X960505Y197910D01*
X960500Y197897D01*
X960476Y197857D01*
X960446Y197822D01*
X959265Y196641D01*
X959229Y196611D01*
X959190Y196587D01*
X959177Y196581D01*
X959147Y196569D01*
X959101Y196558D01*
X959055Y196554D01*
X957480D01*
X957434Y196558D01*
X957389Y196569D01*
X957358Y196581D01*
X957346Y196587D01*
X957306Y196611D01*
X957271Y196641D01*
X956090Y197822D01*
X956060Y197857D01*
X956035Y197897D01*
X956030Y197910D01*
X956017Y197940D01*
X956007Y197985D01*
X956003Y198031D01*
Y199606D01*
X956007Y199653D01*
X956017Y199698D01*
X956030Y199728D01*
X956035Y199741D01*
X956060Y199780D01*
X956090Y199816D01*
X957271Y200997D01*
X957306Y201027D01*
X957346Y201051D01*
X957358Y201057D01*
X957389Y201069D01*
X957434Y201080D01*
X957480Y201084D01*
X959055D01*
X959101Y201080D01*
D02*
G37*
G36*
X131081Y207628D02*
Y193081D01*
X125569Y196263D01*
Y204446D01*
X118482Y208538D01*
Y214902D01*
X131081Y207628D01*
D02*
G37*
G36*
X150766Y196211D02*
Y181664D01*
X145254Y184846D01*
Y193029D01*
X138168Y197120D01*
Y203485D01*
X150766Y196211D01*
D02*
G37*
G36*
X131081Y184794D02*
Y170247D01*
X125569Y173429D01*
Y181612D01*
X118482Y185703D01*
Y192068D01*
X131081Y184794D01*
D02*
G37*
G36*
X150766Y173377D02*
Y158829D01*
X145254Y162011D01*
Y170194D01*
X138168Y174286D01*
Y180650D01*
X150766Y173377D01*
D02*
G37*
G36*
X131081Y161959D02*
Y147412D01*
X125569Y150594D01*
Y158777D01*
X118482Y162868D01*
Y169233D01*
X131081Y161959D01*
D02*
G37*
G36*
X150766Y150542D02*
Y135995D01*
X145254Y139177D01*
Y147360D01*
X138168Y151451D01*
Y157816D01*
X150766Y150542D01*
D02*
G37*
G36*
X746936Y137733D02*
X746981Y137723D01*
X747012Y137710D01*
X747024Y137705D01*
X747064Y137681D01*
X747099Y137650D01*
X748280Y136469D01*
X748311Y136434D01*
X748335Y136394D01*
X748340Y136382D01*
X748353Y136351D01*
X748363Y136306D01*
X748367Y136260D01*
Y134685D01*
X748363Y134639D01*
X748353Y134593D01*
X748340Y134563D01*
X748335Y134550D01*
X748311Y134511D01*
X748280Y134476D01*
X747099Y133294D01*
X747064Y133264D01*
X747024Y133240D01*
X747012Y133235D01*
X746981Y133222D01*
X746936Y133211D01*
X746890Y133208D01*
X745315D01*
X745269Y133211D01*
X745223Y133222D01*
X745193Y133235D01*
X745181Y133240D01*
X745141Y133264D01*
X745106Y133294D01*
X743924Y134476D01*
X743894Y134511D01*
X743870Y134550D01*
X743865Y134563D01*
X743852Y134593D01*
X743841Y134639D01*
X743838Y134685D01*
Y136260D01*
X743841Y136306D01*
X743852Y136351D01*
X743865Y136382D01*
X743870Y136394D01*
X743894Y136434D01*
X743924Y136469D01*
X745106Y137650D01*
X745141Y137681D01*
X745181Y137705D01*
X745193Y137710D01*
X745223Y137723D01*
X745269Y137733D01*
X745315Y137737D01*
X746890D01*
X746936Y137733D01*
D02*
G37*
G36*
X656779Y136946D02*
X656824Y136935D01*
X656854Y136923D01*
X656867Y136917D01*
X656906Y136893D01*
X656942Y136863D01*
X658123Y135682D01*
X658153Y135646D01*
X658177Y135607D01*
X658182Y135594D01*
X658195Y135564D01*
X658206Y135519D01*
X658210Y135472D01*
Y133898D01*
X658206Y133851D01*
X658195Y133806D01*
X658182Y133776D01*
X658177Y133763D01*
X658153Y133723D01*
X658123Y133688D01*
X656942Y132507D01*
X656906Y132477D01*
X656867Y132453D01*
X656854Y132447D01*
X656824Y132435D01*
X656779Y132424D01*
X656732Y132420D01*
X655158D01*
X655111Y132424D01*
X655066Y132435D01*
X655036Y132447D01*
X655023Y132453D01*
X654983Y132477D01*
X654948Y132507D01*
X653767Y133688D01*
X653737Y133723D01*
X653712Y133763D01*
X653707Y133776D01*
X653695Y133806D01*
X653684Y133851D01*
X653680Y133898D01*
Y135472D01*
X653684Y135519D01*
X653695Y135564D01*
X653707Y135594D01*
X653712Y135607D01*
X653737Y135646D01*
X653767Y135682D01*
X654948Y136863D01*
X654983Y136893D01*
X655023Y136917D01*
X655036Y136923D01*
X655066Y136935D01*
X655111Y136946D01*
X655158Y136950D01*
X656732D01*
X656779Y136946D01*
D02*
G37*
G36*
X452341Y130069D02*
Y115522D01*
X446829Y118704D01*
Y126887D01*
X439742Y130979D01*
Y137343D01*
X452341Y130069D01*
D02*
G37*
G36*
X150766Y127707D02*
Y113160D01*
X145254Y116342D01*
Y124525D01*
X138168Y128616D01*
Y134981D01*
X150766Y127707D01*
D02*
G37*
G36*
X472026Y118652D02*
Y104105D01*
X466514Y107287D01*
Y115470D01*
X459427Y119561D01*
Y125926D01*
X472026Y118652D01*
D02*
G37*
G36*
X170845Y116290D02*
Y101742D01*
X165333Y104925D01*
Y113108D01*
X158246Y117199D01*
Y123564D01*
X170845Y116290D01*
D02*
G37*
D30*
X420472Y264567D02*
X451181Y233858D01*
X128347Y289761D02*
X123099D01*
X125723D01*
Y281890D01*
X115227Y288449D02*
X116539Y289761D01*
X119163D01*
X120475Y288449D01*
Y287137D01*
X119163Y285825D01*
X116539D01*
X115227Y284514D01*
Y283202D01*
X116539Y281890D01*
X119163D01*
X120475Y283202D01*
X112603Y288449D02*
X111292Y289761D01*
X108668D01*
X107356Y288449D01*
Y287137D01*
X108668Y285825D01*
X109980D01*
X108668D01*
X107356Y284514D01*
Y283202D01*
X108668Y281890D01*
X111292D01*
X112603Y283202D01*
D34*
X423427Y133420D02*
X424608Y134600D01*
X426969D01*
X428150Y133420D01*
Y132239D01*
X426969Y131058D01*
X424608D01*
X423427Y129878D01*
Y128697D01*
X424608Y127516D01*
X426969D01*
X428150Y128697D01*
X419885Y127516D02*
X417523D01*
X416342Y128697D01*
Y131058D01*
X417523Y132239D01*
X419885D01*
X421065Y131058D01*
Y128697D01*
X419885Y127516D01*
X413981D02*
X411620D01*
X412800D01*
Y134600D01*
X413981D01*
X406897Y132239D02*
X404535D01*
X403355Y131058D01*
Y127516D01*
X406897D01*
X408077Y128697D01*
X406897Y129878D01*
X403355D01*
X400993Y132239D02*
Y127516D01*
Y129878D01*
X399812Y131058D01*
X398632Y132239D01*
X397451D01*
X428150Y121847D02*
Y114763D01*
X424608D01*
X423427Y115944D01*
Y117124D01*
X424608Y118305D01*
X428150D01*
X424608D01*
X423427Y119486D01*
Y120667D01*
X424608Y121847D01*
X428150D01*
X419885Y119486D02*
X417523D01*
X416342Y118305D01*
Y114763D01*
X419885D01*
X421065Y115944D01*
X419885Y117124D01*
X416342D01*
X412800Y120667D02*
Y119486D01*
X413981D01*
X411620D01*
X412800D01*
Y115944D01*
X411620Y114763D01*
X406897Y120667D02*
Y119486D01*
X408077D01*
X405716D01*
X406897D01*
Y115944D01*
X405716Y114763D01*
X398632D02*
X400993D01*
X402174Y115944D01*
Y118305D01*
X400993Y119486D01*
X398632D01*
X397451Y118305D01*
Y117124D01*
X402174D01*
X395090Y119486D02*
Y114763D01*
Y117124D01*
X393909Y118305D01*
X392728Y119486D01*
X391547D01*
X388005D02*
Y115944D01*
X386824Y114763D01*
X383282D01*
Y113582D01*
X384463Y112402D01*
X385644D01*
X383282Y114763D02*
Y119486D01*
X369114Y120667D02*
X370294Y121847D01*
X372656D01*
X373836Y120667D01*
Y115944D01*
X372656Y114763D01*
X370294D01*
X369114Y115944D01*
X366752Y121847D02*
Y114763D01*
Y118305D01*
X365571Y119486D01*
X363210D01*
X362029Y118305D01*
Y114763D01*
X358487Y119486D02*
X356126D01*
X354945Y118305D01*
Y114763D01*
X358487D01*
X359668Y115944D01*
X358487Y117124D01*
X354945D01*
X352584Y119486D02*
Y114763D01*
Y117124D01*
X351403Y118305D01*
X350222Y119486D01*
X349041D01*
X343138Y112402D02*
X341957D01*
X340776Y113582D01*
Y119486D01*
X344319D01*
X345499Y118305D01*
Y115944D01*
X344319Y114763D01*
X340776D01*
X334873D02*
X337234D01*
X338415Y115944D01*
Y118305D01*
X337234Y119486D01*
X334873D01*
X333692Y118305D01*
Y117124D01*
X338415D01*
X331331Y119486D02*
Y114763D01*
Y117124D01*
X330150Y118305D01*
X328969Y119486D01*
X327788D01*
D61*
X860945Y321004D02*
D03*
X894961D02*
D03*
X989449D02*
D03*
X955433D02*
D03*
D101*
X894961Y304075D02*
D03*
X860945D02*
D03*
X955433D02*
D03*
X989449D02*
D03*
D102*
X889665Y302106D02*
D03*
X886319D02*
D03*
X882972D02*
D03*
X879626D02*
D03*
X876280D02*
D03*
X872933D02*
D03*
X869587D02*
D03*
X866240D02*
D03*
Y307421D02*
D03*
X869587D02*
D03*
X872933D02*
D03*
X876280D02*
D03*
X879626D02*
D03*
X882972D02*
D03*
X886319D02*
D03*
X889665D02*
D03*
X984153D02*
D03*
X980807D02*
D03*
X977461D02*
D03*
X974114D02*
D03*
X970768D02*
D03*
X967421D02*
D03*
X964075D02*
D03*
X960728D02*
D03*
Y302106D02*
D03*
X964075D02*
D03*
X967421D02*
D03*
X970768D02*
D03*
X974114D02*
D03*
X977461D02*
D03*
X980807D02*
D03*
X984153D02*
D03*
D103*
X894961Y320413D02*
D03*
X860945D02*
D03*
X955433D02*
D03*
X989449D02*
D03*
D105*
X610276Y112638D02*
D03*
X678780D02*
D03*
X722087D02*
D03*
D107*
X498666Y198893D02*
D03*
X502006Y202234D02*
D03*
X488644Y188871D02*
D03*
X499779Y200007D02*
D03*
X500893Y201120D02*
D03*
X493098Y193325D02*
D03*
X491984Y192212D02*
D03*
X490871Y191098D02*
D03*
X489757Y189985D02*
D03*
X487530Y187758D02*
D03*
X494211Y194439D02*
D03*
X495325Y195553D02*
D03*
X496438Y196666D02*
D03*
X497552Y197780D02*
D03*
X521132Y183108D02*
D03*
X520018Y181995D02*
D03*
X518904Y180881D02*
D03*
X517791Y179768D02*
D03*
X516677Y178654D02*
D03*
X515564Y177541D02*
D03*
X514450Y176427D02*
D03*
X513337Y175314D02*
D03*
X512223Y174200D02*
D03*
X511109Y173087D02*
D03*
X509996Y171973D02*
D03*
X508882Y170859D02*
D03*
X506655Y168632D02*
D03*
X507769Y169746D02*
D03*
D108*
X506655Y202234D02*
D03*
X507769Y201120D02*
D03*
X508882Y200007D02*
D03*
X509996Y198893D02*
D03*
X511109Y197780D02*
D03*
X512223Y196666D02*
D03*
X513337Y195553D02*
D03*
X514450Y194439D02*
D03*
X515564Y193325D02*
D03*
X516677Y192212D02*
D03*
X517791Y191098D02*
D03*
X518904Y189985D02*
D03*
X520018Y188871D02*
D03*
X521132Y187758D02*
D03*
X487530Y183108D02*
D03*
X488644Y181995D02*
D03*
X489757Y180881D02*
D03*
X490871Y179768D02*
D03*
X491984Y178654D02*
D03*
X493098Y177541D02*
D03*
X494211Y176427D02*
D03*
X495325Y175314D02*
D03*
X496438Y174200D02*
D03*
X497552Y173087D02*
D03*
X498666Y171973D02*
D03*
X499779Y170859D02*
D03*
X500893Y169746D02*
D03*
X502006Y168632D02*
D03*
D203*
X313644Y274938D02*
D03*
X309190Y279393D02*
D03*
D205*
X287241Y132314D02*
D03*
X290777Y128778D02*
D03*
X294312Y125243D02*
D03*
X297848Y121707D02*
D03*
X282007Y105867D02*
D03*
X278472Y109403D02*
D03*
X274936Y112938D02*
D03*
X271401Y116474D02*
D03*
D206*
X284624Y119090D02*
D03*
D215*
X520433Y205354D02*
D03*
Y148268D02*
D03*
X109488D02*
D03*
Y205354D02*
D03*
X109449Y404134D02*
D03*
Y461221D02*
D03*
X323622Y461221D02*
D03*
Y404134D02*
D03*
X579528Y461221D02*
D03*
Y404134D02*
D03*
X365354Y404134D02*
D03*
Y461221D02*
D03*
X835433Y461221D02*
D03*
Y404134D02*
D03*
X621260D02*
D03*
Y461221D02*
D03*
X776417Y205354D02*
D03*
Y148268D02*
D03*
X562244Y148268D02*
D03*
Y205354D02*
D03*
D216*
X109646Y237205D02*
D03*
Y266732D02*
D03*
X508071Y512795D02*
D03*
X478543D02*
D03*
D217*
X150197Y237205D02*
D03*
Y266732D02*
D03*
X508071Y472244D02*
D03*
X478543D02*
D03*
D218*
X218110Y232283D02*
D03*
X435433Y295276D02*
D03*
D219*
X185748D02*
D03*
D220*
X448779Y161457D02*
D03*
Y192165D02*
D03*
X181142D02*
D03*
Y161457D02*
D03*
X251969Y417323D02*
D03*
X181102Y448032D02*
D03*
Y417323D02*
D03*
X251969Y448032D02*
D03*
X507874Y448032D02*
D03*
X437008Y448032D02*
D03*
Y417323D02*
D03*
X507874D02*
D03*
X763779Y448032D02*
D03*
Y417323D02*
D03*
X692913D02*
D03*
Y448032D02*
D03*
X704764Y192165D02*
D03*
Y161457D02*
D03*
X633898D02*
D03*
Y192165D02*
D03*
D221*
X511811Y314961D02*
D03*
Y118110D02*
D03*
X118110Y314961D02*
D03*
Y118110D02*
D03*
X314961Y374016D02*
D03*
X118110D02*
D03*
Y570866D02*
D03*
X314961D02*
D03*
X570866Y374016D02*
D03*
X374016D02*
D03*
Y570866D02*
D03*
X570866D02*
D03*
X1023622Y314961D02*
D03*
X826772D02*
D03*
Y118110D02*
D03*
X1023622D02*
D03*
X826772Y374016D02*
D03*
X629921D02*
D03*
Y570866D02*
D03*
X826772D02*
D03*
X767717Y314961D02*
D03*
X570866D02*
D03*
Y118110D02*
D03*
X767717D02*
D03*
D222*
X1016929Y265827D02*
D03*
Y285827D02*
D03*
X996929D02*
D03*
Y265827D02*
D03*
X1016929Y224095D02*
D03*
Y244094D02*
D03*
X996929D02*
D03*
Y224095D02*
D03*
D223*
X610276Y132323D02*
D03*
X626024D02*
D03*
X596496D02*
D03*
X678780D02*
D03*
X694527D02*
D03*
X665000D02*
D03*
X722087D02*
D03*
X737835D02*
D03*
X708307D02*
D03*
D224*
X178868Y272276D02*
D03*
X170238Y263646D02*
D03*
X177476Y273668D02*
D03*
X168846Y265038D02*
D03*
X176084Y275060D02*
D03*
X167454Y266430D02*
D03*
X174692Y276452D02*
D03*
X166062Y267822D02*
D03*
X173300Y277844D02*
D03*
X164670Y269214D02*
D03*
X171908Y279236D02*
D03*
X163278Y270605D02*
D03*
X170516Y280627D02*
D03*
X160911Y272973D02*
D03*
X169124Y282019D02*
D03*
X159520Y274364D02*
D03*
X167733Y283411D02*
D03*
D225*
X174998Y274811D02*
D03*
X167703Y267516D02*
D03*
D226*
X170750Y271761D02*
D03*
D227*
X166567Y283883D02*
D03*
D228*
X158148Y275775D02*
D03*
D229*
X158128Y276452D02*
D03*
D230*
X164665Y283000D02*
D03*
X163273Y281608D02*
D03*
X161881Y280216D02*
D03*
X160489Y278823D02*
D03*
D231*
X429528Y144095D02*
X430315Y144095D01*
X425591Y205118D02*
X430315Y205118D01*
X425591Y212992D02*
X430315D01*
X425591Y151969D02*
X430315Y151969D01*
X429528Y173622D02*
X430315D01*
X429528Y181496D02*
X430315Y181496D01*
X312205Y123622D02*
X319291D01*
X329528Y133858D01*
Y166535D01*
X326772Y169291D02*
X329528Y166535D01*
X326772Y169291D02*
Y187008D01*
X329921Y190157D01*
X337008Y197244D01*
X348031D01*
X355512Y204724D01*
Y219685D01*
X359449Y223622D01*
X362598D01*
X202362Y181496D02*
X221654Y181496D01*
X202362Y173622D02*
X222047D01*
X202362Y144095D02*
X230709D01*
X202362Y151969D02*
X226772D01*
X202362Y205118D02*
X222835D01*
X202362Y212992D02*
X218898D01*
D232*
X383180Y314505D02*
X388428Y319753D01*
X398923D01*
X404171Y314505D01*
Y309257D01*
X398923Y304010D01*
X388428D01*
X383180Y298762D01*
Y293514D01*
X388428Y288267D01*
X398923D01*
X404171Y293514D01*
X372685Y319753D02*
Y293514D01*
X367437Y288267D01*
X356942D01*
X351694Y293514D01*
Y319753D01*
X341199Y288267D02*
Y319753D01*
X330704Y309257D01*
X320208Y319753D01*
Y288267D01*
X309713D02*
Y319753D01*
X299218Y309257D01*
X288722Y319753D01*
Y288267D01*
X257237Y319753D02*
X278227D01*
Y288267D01*
X257237D01*
X278227Y304010D02*
X267732D01*
X246741Y288267D02*
Y319753D01*
X230998D01*
X225751Y314505D01*
Y304010D01*
X230998Y298762D01*
X246741D01*
X236246D02*
X225751Y288267D01*
X351694Y235366D02*
X372685D01*
X351694Y256356D01*
Y261604D01*
X356942Y266851D01*
X367437D01*
X372685Y261604D01*
X341199D02*
X335951Y266851D01*
X325456D01*
X320208Y261604D01*
Y240613D01*
X325456Y235366D01*
X335951D01*
X341199Y240613D01*
Y261604D01*
X288722Y235366D02*
X309713D01*
X288722Y256356D01*
Y261604D01*
X293970Y266851D01*
X304465D01*
X309713Y261604D01*
X278227D02*
X272979Y266851D01*
X262484D01*
X257237Y261604D01*
Y256356D01*
X262484Y251109D01*
X267732D01*
X262484D01*
X257237Y245861D01*
Y240613D01*
X262484Y235366D01*
X272979D01*
X278227Y240613D01*
D233*
X483226Y145908D02*
D03*
X491577Y137556D02*
D03*
D234*
X504331Y185433D02*
D03*
D235*
X179623Y244015D02*
D03*
X185747Y237890D02*
D03*
X186694Y251086D02*
D03*
X192818Y244962D02*
D03*
D236*
X222159Y125702D02*
D03*
X210411Y113954D02*
D03*
D237*
X478490Y172584D02*
D03*
X473479Y167573D02*
D03*
D238*
X315354Y111024D02*
D03*
X318138Y108240D02*
D03*
D239*
X379671Y281246D02*
D03*
X374660Y276235D02*
D03*
D240*
X133560Y249658D02*
D03*
X121311Y261907D02*
D03*
X125765Y266361D02*
D03*
X130219Y270815D02*
D03*
X138014Y254112D02*
D03*
X142469Y258566D02*
D03*
D241*
X161417Y317717D02*
D03*
D242*
X156420Y302113D02*
D03*
X152885Y305648D02*
D03*
X145814Y312719D02*
D03*
X149349Y309184D02*
D03*
D243*
X247033Y124382D02*
D03*
X248425Y125774D02*
D03*
X249817Y127165D02*
D03*
X251209Y128557D02*
D03*
X255329Y124437D02*
D03*
X253937Y123045D02*
D03*
X252545Y121653D02*
D03*
X251153Y120262D02*
D03*
X280525Y277742D02*
D03*
X279134Y276350D02*
D03*
X277742Y274958D02*
D03*
X281862Y270838D02*
D03*
X283254Y272230D02*
D03*
X284646Y273622D02*
D03*
D244*
X173186Y135726D02*
D03*
X174578Y134334D02*
D03*
X177083Y136839D02*
D03*
X175691Y138231D02*
D03*
D245*
X174613Y139936D02*
D03*
X171481Y136805D02*
D03*
X175657Y132629D02*
D03*
X178789Y135761D02*
D03*
D246*
X172835Y138583D02*
D03*
X177435Y133983D02*
D03*
D247*
X454363Y328485D02*
D03*
X451719Y325840D02*
D03*
X449074Y323196D02*
D03*
X456660Y315610D02*
D03*
X459305Y318254D02*
D03*
X461949Y320899D02*
D03*
D248*
X470046Y215886D02*
D03*
X472690Y213242D02*
D03*
X475335Y210597D02*
D03*
X467749Y203011D02*
D03*
X462460Y208300D02*
D03*
D249*
X203825Y269235D02*
D03*
X205217Y267843D02*
D03*
X206609Y266452D02*
D03*
X208001Y265059D02*
D03*
X216353Y273411D02*
D03*
X214961Y274803D02*
D03*
X213569Y276195D02*
D03*
X212177Y277587D02*
D03*
D250*
X431559Y239478D02*
D03*
X429820Y237738D02*
D03*
X428010Y235928D02*
D03*
X426270Y234189D02*
D03*
X438519Y221939D02*
D03*
X440259Y223679D02*
D03*
X442069Y225489D02*
D03*
X443878Y227298D02*
D03*
D251*
X110663Y172868D02*
D03*
X103425Y180106D02*
D03*
X116022Y178227D02*
D03*
X114213Y176417D02*
D03*
X112403Y174608D02*
D03*
X105165Y181846D02*
D03*
X106974Y183655D02*
D03*
X108714Y185395D02*
D03*
D252*
X174250Y217558D02*
D03*
X172441Y215748D02*
D03*
X170631Y213938D02*
D03*
X165064Y219506D02*
D03*
X166873Y221316D02*
D03*
X168683Y223125D02*
D03*
M02*
