M48
;Layer_Color=9474304
;FILE_FORMAT=2:5
INCH,TZ
;TYPE=PLATED
T01F00S00C0.01181
T02F00S00C0.01575
T03F00S00C0.01968
T04F00S00C0.02362
T07F00S00C0.03150
T08F00S00C0.03937
T09F00S00C0.04724
T10F00S00C0.04803
T12F00S00C0.07795
T13F00S00C0.13386
;TYPE=NON_PLATED
T14F00S00C0.05118
T15F00S00C0.09409
T16F00S00C0.13583
%
T01
X137795Y118110
X147638Y137795
X127953
X167323
X187008
X206693
X226378
X246063
X265748
X285433
X305118
X295276Y118110
X275591
X255906
X236221
X216535
X196850
X177165
X157480
X314961
X334646
X354331
X364173Y137795
X383858
X403543
X423228
X442913
X462598
X344488
X324803
X482283
X501968
X521654
X565945Y137795
X580709Y147638
X600394
X610236
X615158Y137795
X605315
X620079Y127953
Y108268
X600394
X590551
X492126Y118110
X629921Y127953
X639764
X640197Y124843
X639409Y112244
X643347Y104764
X648858Y118543
X664370Y118110
X669291Y108268
X659449
X688976
X698819
X708661
X718504
X738189
X748032
X743110Y118110
X748032Y147638
X757874
X762795Y137795
X772638
X738189Y147638
X728346
X718504
X782480Y137795
X841535
X849213Y133071
X856299Y127953
X862205Y120079
X871063Y118110
X880906
X890748
X899606Y120079
X895669Y127953
X886614Y132677
X890748Y137795
X900591
X903925Y147563
X893701Y148622
X880906Y137795
X861220
X924803Y132677
X925984Y144488
X931496Y153150
X935039Y127953
X931496Y119685
X920276Y118110
X910433
X936220Y111024
X951083Y119685
X954724Y127953
X959646Y137795
X949803
X939961
X976378Y133071
X979331Y118110
X988189Y111811
X999016Y118110
X1003937Y127953
X994094
X999016Y137795
X1008858
X1003937Y147638
X1021653Y146850
X1029134Y151870
X1033465Y147638
X1028543Y137795
X1029921Y156693
Y161614
Y166535
X1033465Y167323
X1038386Y157480
X1012992Y159843
X1003347Y159941
X1007874Y167323
X1007874Y171260
X1017027Y167913
X994094Y167323
X984252
X988583Y159843
X989173Y177165
X1002756Y178740
X1003150Y185039
Y188583
X1003937Y198031
X1013780Y206693
X1023622
X1029921Y200984
Y196063
Y191142
X1023622Y187008
X1038386Y196850
Y216535
X1028543
X1033465Y226378
X1038386Y236221
X1028543
X1018701
Y255906
X1028543
X1038386
X1033465Y265748
X1038386Y275590
X1028543
X1018701
X1033465Y285433
X1038386Y295276
X1028543
X1033465Y246063
X989173Y255906
X979331
X979528Y272835
X979528Y279134
X964567Y285433
X959646Y295276
X945669Y300000
X942913Y283465
X940158
X939961Y275590
X949803
X959646
X964567Y265748
X954724
X949803Y255906
X959646Y236221
X969488
X979527Y237402
Y231102
X974409Y226378
X972835Y222835
X979380Y219291
X979353Y215551
X989173Y216535
X964567Y226378
X951181Y225590
Y219291
Y212992
X951575Y204331
Y196850
X951615Y188445
X951575Y181496
X943011Y181496
X942913Y196850
X942913Y204331
X945669Y207480
X938583
X944094Y227953
X950000Y159843
X963463Y159815
X973622Y164567
X969488Y177165
X935039Y175591
X926280Y177461
X921653Y177665
X917323Y177953
X917224Y184252
Y188583
X917323Y192520
X919291Y195276
X922441Y193307
X926691Y205875
X929134Y207480
X925984Y224409
X918898Y219291
X915354Y226378
X920276Y236221
X910433
X900591
X895669Y246063
X885827
X875984
X866142
X856299
X846457
X847047Y241634
X837401Y241732
X842520Y234252
X842520Y230315
X837598Y222933
X847638Y222835
X847638Y216535
X841535Y216535
X847638Y210236
X856299Y206693
X866142
X873228Y212598
X871063Y216535
X861220
X871063Y236221
X881890Y228346
X880906Y255906
X890748
X900591
X895669Y265748
X890748Y275590
X905906Y277559
X903937Y286508
X904724Y300000
X918914Y304134
X934252Y289764
X934646Y283465
X931890
X929134
X937402
X931102Y277165
X927953Y261024
X934252Y253543
Y247244
X871063Y255906
X861220
X841535
X846457Y265748
X847638Y285827
X842520Y293307
X846457Y305118
X856299
X861220Y295276
X871063
X880906
X874409Y282677
X871653
X868898
X866142
X863386
X860630
X820866Y266142
X821653Y230315
Y225394
Y220472
X782480Y216535
Y196850
Y177165
Y157480
X821653Y166929
Y171850
X824902Y180217
X837401Y178740
X847835Y178642
X847638Y185039
Y191339
X856299Y187008
X866142
X881890Y196063
X891054Y202468
X898819Y196063
X907480Y196730
X907339Y181496
X906780Y176889
X902756Y176878
X898819Y181496
X895833Y182513
X893307Y183858
X889764Y178740
X877953Y172047
X874016Y167323
X868701Y159941
X861220Y157480
X847638Y159843
X841535Y157480
X837598Y159941
X842520Y167323
X842520Y171260
X883071Y163386
X888922Y160295
X898032Y163779
X913780Y164567
X916929Y164173
X919776Y166838
X925197Y168504
X926772Y162992
X909055Y172835
X782480Y275590
Y295276
X772638
X762795
X752953
X748032Y305118
X738189
X728346
X718504
X708661
X698819
Y285433
X703740Y275590
X713583
X718504Y285433
X728346
X738189
Y265748
X748032
X757874
X767717
X772638Y275590
X777559Y285433
Y246063
X766772Y251516
X752953Y255906
X743110
X733268
X723425
X719331Y256339
X713583Y255906
X703740
X693898
X684055
X674213
X664370
X654528
X659449Y265748
X669291
X679134
X688976
X698819
X693898Y275590
X684055
X674213
X664370
X654528
X656732Y287441
X654528Y295276
X659449Y305118
X669291
X679134
X684055Y295276
X669291Y285433
X649606Y265748
Y246063
X640590Y237835
X644527Y230354
X644685Y216535
X644527Y209882
X647677
X650827
X654528Y216535
X664370
X674213
X684055
X693898
X694134Y209882
X690984
X687835
X679134Y206693
X669291
X659449
Y226378
X669291
X679134
X691772Y230354
X687835Y237835
X688976Y246063
X708661Y226378
X719331Y227992
X728346Y226378
X739016Y230354
X735079Y237835
X738189Y246063
X728346Y265748
X718504
X713583Y295276
Y216535
X723425
X733268
X743110
X752953
X762795
X757874Y226378
Y206693
X748032
X738189
X728346
X733268Y196850
X743110
X752953
X762795
X757874Y187008
X748032
X738189
X728346
X733268Y177165
X743110
X752953
X762795
X757874Y167323
X748032
X738189
X728346
X718504
X723425Y177165
Y196850
X713583
X723425Y157480
X733268
X743110
X752953
X762795
X777559Y167323
Y187008
X688976Y167323
X679134
X684055Y157480
X674213
X664370
X654528
X659488Y163573
X644685Y177165
X625000Y196850
X629921Y206693
X625000Y216535
X629921Y226378
Y246063
X625000Y255906
X629921Y265748
X625000Y275590
X629921Y285433
X625000Y295276
X629921Y305118
X641378Y302795
X620079Y305118
X615158Y295276
X620079Y285433
X615158Y275590
X620079Y265748
Y246063
Y226378
X610236
X615158Y216535
X605315
X595472
X585630
X575787
X565945
Y196850
X575787
X585630
X595472
X605315
X615158
X620079Y206693
X610236
X600394
Y187008
X610236
X620079
X615158Y177165
X605315
X595472
X585630
X575787
X580709Y187008
Y206693
Y226378
Y246063
X571890Y251516
X570866Y265748
X580709
X590551
X600394
X595472Y275590
X600394Y285433
X590551
X580709
X585630Y295276
X595472
X600394Y305118
X590551
X575787Y295276
X565945
X575787Y275590
X595472Y255906
X594134Y250433
Y244134
X593346Y237835
X597284Y230354
X600394Y246063
Y167323
X610236
X615158Y157480
X605315
X595472
X585630
X575787
X565945
X561024Y167323
X580709
X561024Y187008
X521654Y177165
X501968
X482283
X492126Y196850
X511811
X521654Y216535
X501968
X482283
X492126Y236221
X511811
X521654Y255906
X511811Y275591
X521654Y295276
X501968
X482283
X472441Y236221
Y196850
Y157480
X492126
X511811
X462598Y177165
Y216535
X442913
X423228
X403543
X383858
X364173
X344488
X324803
X334646Y236221
X354331
X374016
X393701
X413386
X433071
X452756
X462598Y255906
X442913
X423228
X403543
X383858
X364173
X344488
X324803
X334646Y275591
X354331
X374016
X393701
X413386
X433071
X452756
X462598Y295276
X423228
X403543
X383858
X364173
X344488
X324803
X314961Y275591
Y236221
Y157480
X334646
X354331
X374016
X393701
X413386
X433071
X295276
X275591
X255906
X236221
X216535
X196850
X157480
X167323Y177165
X157480Y196850
X167323Y216535
X177165Y236221
X196850
X206693Y255906
X226378
X246063
X265748
X285433
X305118
X295276Y275591
X275591
X255906
X236221
X216535
X196850
X206693Y295276
X226378
X246063
X265748
X285433
X305118
X295276Y236221
X275591
X255906
X236221
X246063Y216535
X265748
X285433
X305118
X226378
X206693
X167323Y295276
X127953
X137795Y275591
X118110
X127953Y255906
X147638
Y216535
X127953
X137795Y196850
X118110
X127953Y177165
X147638
X137795Y157480
X118110
X137795Y314961
X148425Y360236
X152559Y393701
X142717
X147638Y403543
X137795
X142717Y413386
X152559
X147638Y423228
X137795
X142717Y433071
X152559
X147638Y442913
X137795
X142717Y452756
X152559
X147638Y462598
X137795
X113189Y452756
X118110Y442913
X108268
X113189Y433071
X118110Y423228
X108268
X113189Y413386
Y393701
X162402
X172244
X182087
X191929
X201772
X211614
X216535Y383858
X226378
X231299Y374016
X228740Y360236
X255512
X260827Y374016
X255906Y383858
X250984Y393701
X241142
X231299
X226378Y403543
X236221
X231299Y413386
X236221Y423228
X231299Y433071
X221457
X211614
X216535Y442913
X226378
X236221
X241142Y452756
X236221Y462598
X265748
X275591
X285433
X295276
X290354Y452756
X280512
X270669
X260827
X265748Y442913
X275591
X285433
X295276
X290354Y433071
X280512
X270669
X260827
X265748Y423228
X275591
X285433
X295276
X290354Y413386
X280512
X270669
X265748Y403543
X275591
X285433
X295276
X290354Y393701
X280512
X270669
X260827
X282283Y360236
X275591Y314961
X295276
X255906
X236221
X216535
X196850
X177165
X157480
X175197Y360236
X177165Y383858
X206693
X201772Y374016
X201969Y360236
X196850Y403543
Y423228
X206693
X211614Y413386
X206693Y442913
X196850
X191929Y452756
X201772
X196850Y462598
X167323
X157480
X162402Y452756
X172244
X167323Y442913
X157480
X162402Y433071
X172244
X167323Y423228
X157480
X162402Y413386
X157480Y403543
X167323
X191929Y433071
X241142
X319882
X329724
X324803Y423228
X314961
X319882Y413386
X329724
Y393701
X319882
X369094Y393701
X374016Y403543
X369094Y413386
X374016Y423228
X364173
X369094Y433071
X374016Y442913
X364173
X369094Y452756
X374016Y462598
X393701
X403543
X413386
X423228
X433071
X428150Y452756
X418307
X408465
X398622
X403543Y442913
X413386
X423228
X428150Y433071
X418307
X408465
X398622
X403543Y423228
X413386
X423228
X428150Y413386
X418307
X408465
X398622
X403543Y403543
X413386
X423228
X428150Y393701
X437992
X447835
X457677
X452756Y403543
X442913
X447835Y413386
X452756Y423228
X457677Y433071
X447835
X453150Y458268
X458268Y464567
X462598Y454823
X467717Y418898
X467520Y413386
X452756Y383858
X448032Y371654
X451968Y364173
X437992Y374016
X408661Y371654
X412598Y364173
X393701Y364173
X413386Y383858
X418307Y393701
X408465
X393701Y403543
Y423228
Y442913
X324803Y442913
X314961
X319882Y452756
X329724
X334646Y314961
X354331
X374016
X393701
X413386
X433071
X452756
X314961
X472441
X492126
X491339Y364173
X487402Y371654
X477362Y374016
X472441Y383858
X492126
X497047Y393701
X506890
X516732
X526575
X536417
X541339Y403543
X551181
X556102Y413386
X546260
X536417
X526575
X516732
X521654Y423228
X531496
X541339
X551181
X556102Y433071
X546260
X536417
X526575
X516732
X521654Y442913
X531496
X541339
X551181
X556102Y452756
X546260
X536417
X526575
X516732
X521654Y462598
X531496
X541339
X551181
X585630Y452756
X580709Y442913
X585630Y433071
X580709Y423228
X585630Y413386
Y393701
X575787
X551181Y364173
X530709Y364173
X526772Y371654
X516732Y374016
X531496Y383858
Y403543
X521654
X501968
X492126
X497047Y413386
X492126Y423228
X497047Y433071
X487205
X492126Y442913
X482283
X472441
Y423228
X471654Y411417
X487205Y393701
Y452756
X491339Y461024
X501968Y462598
X478740Y456693
X620079Y442913
Y423228
X620079Y324803
X610236
X600394
X590551
X605315Y314961
X615158
X633898Y313819
X639764Y324803
X654528Y314961
X669331Y321102
X684055Y314961
X693898
X703740
X708661Y324803
X718504
X728346
X738189
X748032
X743110Y314961
X733268
X723425
X728346Y364173
X718504
X708661
X698819
X688976
X679134
X669291
X664370Y374016
X674213
X669291Y383858
X659449
X649606
X644685Y393701
X634842
X625000
Y413386
X634842
X644685
X654528
X664370
X674213
X669291Y403543
X679134
X684055Y393701
X693898
X703740
X713583
X708661Y383858
X718504
X728346
X734527Y385917
X736248Y389764
X728003Y392442
X730231Y395782
X733268Y374016
X743110
X748032Y364173
X757874
X767717
X777559
X780287Y389764
X777559Y423228
X772638Y433071
X777559Y442913
X772638Y452756
X767717Y462598
X777559
X755610Y461811
X748032Y467323
X745669Y465354
X738189Y462598
X728346
X718504
X710630Y465354
X708268Y467323
X700689Y461811
X688976Y462598
X679134
X669291
X659449
X649606
X639764
X634842Y452756
X625000
X629921Y442913
X639764
X649606
X659449
X669291
X679134
X684055Y433071
X674213
X664370
X654528
X644685
X634842
X625000
X629921Y423228
X639764
X649606
X659449
X669291
X679134
X704823Y418110
X708268Y413779
X738583Y414961
Y418898
Y423228
X736614Y426772
X745669Y430315
X752756
X748032Y423228
X738189Y364173
X723425Y374016
X713583
X703740
X693898
X698819Y383858
X688976
X674213Y393701
X664370
X654528
X649606Y403543
X639764
X659449
X649606Y364173
X654528Y452756
X644685
X664370
X674213
X684055
X782480
X792323
X797244Y462598
X816929
X821850Y452756
X831693
X841535
X836614Y442913
X826772
X816929
X821850Y433071
X831693
X841535
X836614Y423228
X826772
X816929
X821850Y413386
X831693
X841535
Y393701
X831693
X821850
X812008
X802165
X807087Y383858
X797244
X802165Y374016
X792323
X782480
X781693Y385917
X787402Y403543
X792323Y413386
X805104Y414581
X808896Y413004
X807087Y403543
X816929
X797244Y423228
X792323Y433071
X782480
X797244Y442913
Y364173
X787402
X807087
X846457Y324803
X856299
X866142
X875984
X885827
X905512
X905571Y320148
X915354Y324803
X925197
X937027Y320148
X851378Y314961
X944882Y324803
X964567
X984252
X841535Y472441
X831693
X821850
X815748Y476772
X826772Y482283
X797244
X792323Y472441
X782480
Y511811
X792323
X797244Y521654
X787402
X782480Y531496
X792323
X805104Y532269
X808874Y534011
X821850Y531496
X826772Y541339
X836614
X841535Y531496
Y551181
X831693
X821850
X802165
X807087Y561024
X802165Y570866
X807087Y580709
X797244
X787402
X782480Y570866
X787402Y541339
X816929Y521654
X826772
X821850Y511811
X777559Y521654
X772638Y531496
X767717Y541339
X777559
X772638Y551181
X762795
X752953
X743110
X733268
X723425
X703740
X693898
X688976Y541339
X679134
X669291
X659449
X649606
X639764
X629921
X625000Y551181
X634842
X644685
X654528
X664370
X674213
X669291Y561024
X659449
X649606
X664370Y570866
X669291Y580709
X679134
X688976
X698819
X703740Y570866
X693898
X684055
X688976Y561024
X698819
Y541339
X693898Y531496
X684055
X674213
X664370
X654528
X644685
X634842
X625000
X629921Y521654
X639764
X649606
X659449
X669291
X679134
X688976
X698819
X708661
X718504
X728346
X738189
X743110Y511811
X752953
X762795
X757874Y521654
X752953Y531496
X743110
X748032Y541339
X738189
X723425Y531496
Y511811
X733268
X713583
X703740
X693898
X684055
X674213
X664370
X654528
X644685
X634842
X649606Y501968
X648425Y486221
X639764Y482283
X629921
X625000Y472441
X634842
X644685
X654528
X664370
X674213
X669291Y482283
X659449
X679921Y486221
X679134Y501968
X708661
X711417Y486221
X708268Y474409
Y470866
X723425Y472441
X733268
X728346Y482283
X742913Y486221
X748032Y474409
Y470866
X757874Y482283
X767717
X774409Y486221
X748032Y501968
Y561024
X740945Y563779
X737795Y566142
X744980Y568898
X744882Y572992
X738189Y580709
X728346
X769944Y572941
X768293Y569080
X659449Y580709
X698819Y482283
X620079Y501968
Y541339
X580709Y541339
X570866
X561024
X565945Y551181
X575787
X585630
Y531496
X575787
X565945
X556102
X546260
X536417
X541339Y541339
X531496
X521654
X511811
X501968
X492126
X482283
X472441
X477362Y551181
X487205
X497047
X506890
X516732
X526575
X536417
X546260
X556102
X551181Y561024
X541339
X531496
X521654
X511811
X501968
X492126
X482283
X472441
X477362Y570866
X472441Y580709
X482283
X492126
X501968
X511811
X521654
X526575Y570866
X536417
X546260
X551181Y580709
X541339
X516732Y570866
Y531496
X506890
X497047
X487205
X477362
X472441Y521654
X492126
X501968
X511811
X521654
X526575Y511811
X536417
X546260
X556102
X565945
X569388Y507384
X577462Y507380
X575787Y511811
X580709Y521654
X570866
X561024
Y501968
X551181
X541339
X531496
X521654
X526575Y492126
X536417
X546260
X556102
X551181Y482283
X556102Y472441
X546260
X536417
X526575
X516732
X521654Y482283
X531496
X516732Y492126
Y511811
X497047
X501968Y501968
X497047Y492126
X501968Y482283
X492126
X497047Y472441
X472441Y482283
X541339Y521654
X580709Y501968
X585630Y492126
Y472441
X467520
X457677
X447835
X437992
X433219Y475000
X434646Y486221
X423228Y482283
X418307Y492126
X422693Y497779
X423228Y501968
X423228Y513386
X424409Y521654
X433858Y525197
X437992Y531496
X447835
X457677
X467520
X462598Y521654
X452756
X442913
X450787Y513386
X450151Y507087
X451181Y500787
X457677Y492126
X467520
X462598Y482283
X467520Y511811
X457677
X452756Y541339
X457677Y551181
X467520
X462598Y561024
X467520Y570866
X457677
X462598Y580709
X442913
X433071Y577461
X433067Y569386
X423138Y568011
X408465Y570866
X398622
X403543Y580709
X393701
X403543Y561024
X401551Y551157
X408465Y551181
X405488Y543677
X403543Y541339
X393701
X388779Y531496
X383858Y521654
X364173
X369094Y531496
X364173Y541339
X369094Y551181
X378937
X329724Y551181
X319882
X314961Y541339
X324803
X319882Y531496
X329724
X314961Y521654
X313386Y507087
X314961Y482283
X319882Y472441
X329724
X369094Y472441
X374016Y482283
X391339Y475197
X398622Y472441
X400787Y478740
X403543Y482283
X408268Y479921
X408465Y472441
X392913Y500000
X393307Y507087
X367418Y507386
X369094Y511811
X364173Y501968
X428150Y531496
Y551181
X447835
X442913Y561024
X310039Y551181
X298425Y548819
X298425Y543307
X298425Y537795
X298425Y532283
X298425Y526772
X298425Y521260
X298425Y515748
X298425Y510236
X298425Y504724
X298425Y499213
X298425Y493701
X298425Y488189
X298425Y482677
X297638Y477559
X294094Y473622
X289370Y472047
X283858Y472047
X278346Y472047
X272835Y472047
X267323Y472047
X261811Y472047
Y475197
Y478346
Y481496
Y484646
Y487795
Y490945
Y494095
Y497244
X258661
X255512
X252362
X249213
X246063
X242913
X239764
X236614
X233465
X230315
X227165
X224016
X218898Y497244
X214173
X209055
X205906
X202756
X199606
X196457
X193307
X190157
X187008
X183858
X180709
X177559
X174409
X171260Y497244
Y494095
Y490945
Y487795
Y484646
Y481496
Y478346
Y475197
Y472047
X165748Y472047
X160236Y472047
X162402Y492126
X174409Y490945
Y493701
X177165
Y490945
Y488189
X174409
Y485433
Y482677
X177165
Y485433
X179921Y485433
Y482677
X182677
Y485433
Y488189
X179921
Y490945
Y493701
X182677
Y490945
X183858Y505512
X182087Y511811
X172244
X162402
X167323Y503543
X167323Y521654
X157480
X163386Y531102
Y535827
X158661Y545276
X170472
X175591Y551968
X178740
X182283Y559382
X187795Y559382
X193307Y559382
X198819Y559382
X204331Y559382
X215354Y559382
X220866Y559382
X234252Y559382
X239764Y559382
X245276Y559382
X250787Y559382
X256299Y559382
X261811Y559382
X267323Y559382
X272835Y559382
X278346Y559382
X283858Y559382
X289370Y559382
X294094Y557874
X297638Y553937
X280512Y551181
X270669
X263779Y542126
X269685Y535827
Y531102
X280512Y531496
X285433Y541339
Y521654
X274410Y521654
X262598
X250394Y528346
X236221Y521654
X234646Y511417
X221457Y511811
X218110Y502658
X216535Y482283
X216535Y472047
X223228Y472047
X228740Y472047
X234252Y472047
X239764Y472047
X250394Y482677
Y485433
X253150
Y482677
X255906Y482677
Y485433
Y488189
X253150
X250394
Y490945
X253150
Y493701
X250394
X255906Y493701
Y490945
X258661
Y493701
Y488189
Y485433
Y482677
X250000Y501181
Y507480
X269291Y507087
X284646Y507480
X282136Y497244
Y493504
X284646Y487008
X305118Y521654
X310039Y531496
X305118Y541339
X290354Y570866
X280512
X270669
X265748Y580709
X275591
X285433
X295276
X246063
X250984Y570866
X241142
X226378Y580709
X214075Y576968
X206693Y580709
X187008
X177165
X182087Y570866
X191929
X172244
X171260Y559382
X165748Y559382
X160236Y559382
X181102Y541051
X198819Y541929
X206299Y550000
X208268Y551968
X208483Y548136
X215913Y549835
X216535Y541339
X209842Y531102
X204353Y517110
X196850Y521654
X172835Y528346
X234646Y540158
X235827Y548425
X209842Y472047
X204331Y472047
X198819Y472047
X193307Y472047
X154724Y472047
X149213Y472047
X143701Y472047
X138976Y473622
X135433Y477559
X134646Y482677
X134646Y488189
X134646Y493701
X134646Y499213
X134646Y504724
X134646Y510236
X134646Y515748
X134646Y521260
X134646Y526772
X134646Y532283
X134646Y537795
X134646Y543307
X134646Y548819
X135433Y553937
X138976Y557874
X143701Y559382
X149213Y559382
X154724Y559382
X152559Y551181
X142717
Y570866
X137795Y580709
X123031Y551181
X113189
X118110Y541339
X127953
X123031Y531496
X127953Y521654
X118110
X119291Y507087
X118110Y482283
X113189Y472441
X148425Y487008
X150935Y497244
Y500984
X151969Y511024
X147638Y521654
X152559Y531496
T02
X960728Y302106
X964075
X967421
X970768
X974114
X977461
X980807
X984153
Y307421
X980807
X977461
X974114
X970768
X967421
X964075
X960728
X889665
X886319
X882972
X879626
X876280
X872933
X869587
X866240
Y302106
X869587
X872933
X876280
X879626
X882972
X886319
X889665
T03
X788386Y161417
Y165354
Y169291
Y173228
Y177165
Y181102
Y185039
Y188976
Y192913
X806102
Y188976
Y185039
Y181102
Y177165
Y173228
Y169291
Y165354
Y161417
X550197
Y165354
Y169291
Y173228
Y177165
Y181102
Y185039
Y188976
Y192913
X532480
Y188976
Y185039
Y181102
Y177165
Y173228
Y169291
Y165354
Y161417
X218504Y335630
X214567
X210630
X206693
X202756
X198819
X194882
X190945
X187008
Y353346
X190945
X194882
X198819
X202756
X206693
X210630
X214567
X218504
X335630Y417323
Y421260
Y425197
Y429134
Y433071
Y437008
Y440945
Y444882
Y448819
X353346
Y444882
Y440945
Y437008
Y433071
Y429134
Y425197
Y421260
Y417323
X456693Y353346
X460630
X464567
X468504
Y335630
X464567
X460630
X456693
X472441
X476378
X480315
X484252
X488189
Y353346
X484252
X480315
X476378
X472441
X591535Y417323
Y421260
Y425197
Y429134
Y433071
Y437008
Y440945
Y444882
Y448819
X609252
Y444882
Y440945
Y437008
Y433071
Y429134
Y425197
Y421260
Y417323
X714567Y353346
X718504
X722441
X726378
X730315
X734252
X738189
X742126
X746063
Y335630
X742126
X738189
X734252
X730315
X726378
X722441
X718504
X714567
X909449
X913386
X917323
X921260
X925197
X929134
X933071
X937008
Y353346
X933071
X929134
X925197
X921260
X917323
X913386
X909449
X865158Y417323
Y421260
Y425197
Y429134
Y433071
Y437008
Y440945
Y444882
Y448819
X847441
Y444882
Y440945
Y437008
Y433071
Y429134
Y425197
Y421260
Y417323
X940945Y353346
Y335630
T04
X655945Y134685
X746102Y135472
X958268Y198819
X960236Y207874
X944488Y233858
X938189
X949213Y250394
X952756Y284252
X944094Y309842
X1009055Y279134
X1005118Y272835
X1004724Y237402
X1001032Y229930
X914173Y222441
X906299Y309842
X762638Y246890
Y241378
X575630
Y246890
X444095Y464567
X732677Y429134
X733858Y399213
X722835Y392126
X822490Y498770
X822785Y504380
X727953Y562598
X712992Y558268
X634695Y504380
X634990Y498770
X566929Y497244
Y502756
X408268Y501968
X381533Y541376
X381496Y547638
X310236Y502756
Y497244
X256299Y519685
Y548032
X229528Y567323
X224016
X218504
X209842
X203543
X196063Y527559
X219291Y519685
X172835Y503543
X160236Y527559
X122835Y502756
Y497244
T07
X996929Y224095
X1016929
Y244094
X996929
Y265827
X1016929
Y285827
X996929
T08
X110037Y110037
X118110Y106693
X126183Y110037
X129527Y118110
X126183Y126183
X118110Y129527
X110037Y126183
X106693Y118110
X500394
X503738Y126183
X511811Y129527
X519884Y126183
X523228Y118110
X519884Y110037
X511811Y106693
X503738Y110037
X562793Y110037
X570866Y106693
X578939Y110037
X582283Y118110
X578939Y126183
X570866Y129527
X562793Y126183
X559449Y118110
X756299
X759643Y126183
X767717Y129527
X775790Y126183
X779134Y118110
X775790Y110037
X767717Y106693
X759643Y110037
X818698
X826772Y106693
X834845Y110037
X838189Y118110
X834845Y126183
X826772Y129527
X818698Y126183
X815354Y118110
X1012205
X1015549Y126183
X1023622Y129527
X1031695Y126183
X1035039Y118110
X1031695Y110037
X1023622Y106693
X1015549Y110037
Y306887
X1023622Y303543
X1031695Y306887
X834845
X826772Y303543
X818698Y306887
X775790
X767717Y303543
X759643Y306887
X578939
X570866Y303543
X562793Y306887
X519884Y306887
X511811Y303543
X503738Y306887
X126183
X118110Y303543
X110037Y306887
X106693Y314961
X110037Y323034
X118110Y326378
X126183Y323034
X129527Y314961
X126183Y365943
X129527Y374016
X126183Y382089
X118110Y385433
X110037Y382089
X106693Y374016
X110037Y365943
X118110Y362598
X306887Y365943
X303543Y374016
X306887Y382089
X314961Y385433
X323034Y382089
X326378Y374016
X323034Y365943
X314961Y362598
X365943Y365943
X362598Y374016
X365943Y382089
X374016Y385433
X382089Y382089
X385433Y374016
X382089Y365943
X374016Y362598
X503738Y323034
X511811Y326378
X519884Y323034
X523228Y314961
X500394
X559449Y314961
X562793Y323034
X570866Y326378
X578939Y323034
X582283Y314961
X578939Y365943
X570866Y362598
X562793Y365943
X559449Y374016
X562793Y382089
X570866Y385433
X578939Y382089
X582283Y374016
X618504Y374016
X621848Y382089
Y365943
X629921Y362598
X637994Y365943
X641339Y374016
X637994Y382089
X629921Y385433
X759643Y323034
X767717Y326378
X775790Y323034
X779134Y314961
X756299
X815354
X818698Y323034
X826772Y326378
X834845Y323034
X838189Y314961
X834845Y365943
X826772Y362598
X818698Y365943
X815354Y374016
X818698Y382089
X826772Y385433
X834845Y382089
X838189Y374016
X874409Y374016
X877754Y382089
X885827Y385433
X893900Y382089
X897244Y374016
X893900Y365943
X885827Y362598
X877754Y365943
X1015549
X1012205Y374016
X1015549Y382089
X1023622Y385433
X1031695Y382089
X1035039Y374016
X1031695Y365943
X1023622Y362598
X1023622Y326378
X1031695Y323034
X1035039Y314961
X1012205
X1015549Y323034
X1015549Y562793
X1023622Y559449
X1031695Y562793
X1035039Y570866
X1031695Y578939
X1023622Y582283
X1015549Y578939
X1012205Y570866
X897244
X893900Y578939
X885827Y582283
X877754Y578939
X874409Y570866
X877754Y562793
X885827Y559449
X893900Y562793
X834845Y562793
X838189Y570866
X834845Y578939
X826772Y582283
X818698Y578939
X815354Y570866
X818698Y562793
X826772Y559449
X637994Y562793
X629921Y559449
Y582283
X637994Y578939
X641339Y570866
X618504
X621848Y562793
Y578939
X578939Y578939
X582283Y570866
X578939Y562793
X570866Y559449
X562793Y562793
X559449Y570866
X562793Y578939
X570866Y582283
X382089Y578939
X374016Y582283
X365943Y578939
X362598Y570866
X365943Y562793
X374016Y559449
X382089Y562793
X385433Y570866
X326378Y570866
X323034Y562793
X314961Y559449
Y582283
X323034Y578939
X306887
X303543Y570866
X306887Y562793
X126183
X118110Y559449
X110037Y562793
X106693Y570866
X110037Y578939
X118110Y582283
X126183Y578939
X129527Y570866
T09
X109488Y148268
X520433
X562244Y148268
X776417Y148268
Y205354
X562244Y205354
X520433Y205354
X109488
X109449Y404134
Y461221
X323622Y461221
X365354
Y404134
X323622
X579528Y404134
X621260Y404134
Y461221
X579528Y461221
X835433Y461221
Y404134
T10
X150197Y237205
Y266732
X478543Y472244
X508071
T12
X109646Y237205
Y266732
X478543Y512795
X508071
T13
X118110Y118110
X511811
X570866Y118110
X767717
X826772
X1023622
X118110Y314961
Y374016
X314961
X374016Y374016
X570866
Y314961
X511811Y314961
X629921Y374016
X767717Y314961
X826772
Y374016
X885827Y374016
X1023622
X1023622Y314961
X1023622Y570866
X885827
X826772Y570866
X629921
X570866Y570866
X374016
X314961Y570866
X118110
T14
X610276Y112638
X678780
X722087
T15
X185748Y295276
T16
X435433Y295276
X218110Y232283
M30
