%FSLAX25Y25*%
%MOIN*%
%SFA1B1*%

%IPPOS*%
%ADD30C,0.019680*%
%ADD31C,0.023620*%
%ADD32C,0.011810*%
%ADD33C,0.015750*%
%ADD35C,0.009840*%
%ADD36C,0.007870*%
%ADD79C,0.013780*%
%ADD134C,0.001970*%
%ADD135C,0.005000*%
%ADD136C,0.006890*%
%ADD137C,0.006300*%
%ADD138C,0.009840*%
%ADD139C,0.007870*%
%ADD140C,0.005910*%
%ADD141C,0.008860*%
%ADD142C,0.010000*%
%ADD143C,0.015750*%
%ADD144C,0.011810*%
%ADD145C,0.004920*%
%LNpanel-1*%
%LPD*%
G36*
X548435Y578223D02*
X541348Y574131D01*
Y565948*
X535836Y562766*
Y577314*
X548435Y584587*
Y578223*
G37*
G36*
X675994Y577829D02*
X668907Y573738D01*
Y565555*
X663395Y562372*
Y576920*
X675994Y584194*
Y577829*
G37*
G36*
X281899D02*
X274813Y573738D01*
Y565555*
X269301Y562372*
Y576920*
X281899Y584194*
Y577829*
G37*
G36*
X696466Y566018D02*
X689380Y561927D01*
Y553744*
X683868Y550561*
Y565109*
X696466Y572382*
Y566018*
G37*
G36*
X548435Y555388D02*
X541348Y551297D01*
Y543114*
X535836Y539931*
Y554479*
X548435Y561753*
Y555388*
G37*
G36*
X568513Y543577D02*
X561427Y539486D01*
Y531303*
X555915Y528121*
Y542668*
X568513Y549942*
Y543577*
G37*
G36*
X129537Y540034D02*
X122450Y535942D01*
Y527759*
X116939Y524577*
Y539125*
X129537Y546398*
Y540034*
G37*
G36*
X783474Y535703D02*
X776387Y531612D01*
Y523429*
X770876Y520247*
Y534794*
X783474Y542068*
Y535703*
G37*
G36*
X548041Y531766D02*
X540954Y527675D01*
Y519492*
X535442Y516309*
Y530857*
X548041Y538131*
Y531766*
G37*
G36*
X568120Y520349D02*
X561033Y516257D01*
Y508074*
X555521Y504892*
Y519440*
X568120Y526713*
Y520349*
G37*
G36*
X219301Y436490D02*
X212214Y432399D01*
Y424216*
X206702Y421034*
Y435581*
X219301Y442855*
Y436490*
G37*
G36*
X239773Y424286D02*
X232687Y420194D01*
Y412011*
X227175Y408829*
Y423377*
X239773Y430650*
Y424286*
G37*
G36*
X219301Y412868D02*
X212214Y408777D01*
Y400594*
X206702Y397412*
Y411959*
X219301Y419233*
Y412868*
G37*
G36*
X239773Y401057D02*
X232687Y396966D01*
Y388783*
X227175Y385601*
Y400148*
X239773Y407422*
Y401057*
G37*
G36*
X697254Y384128D02*
X690167Y380037D01*
Y371854*
X684655Y368672*
Y383219*
X697254Y390493*
Y384128*
G37*
G36*
X677175Y372711D02*
X670088Y368619D01*
Y360437*
X664576Y357254*
Y371802*
X677175Y379075*
Y372711*
G37*
G36*
X730462Y315270D02*
X723376Y311178D01*
Y302996*
X717864Y299813*
Y314361*
X730462Y321635*
Y315270*
G37*
G36*
X710580Y303557D02*
X703494Y299466D01*
Y291283*
X697982Y288101*
Y302648*
X710580Y309922*
Y303557*
G37*
G36*
X730659Y291648D02*
X723572Y287557D01*
Y279374*
X718061Y276191*
Y290739*
X730659Y298012*
Y291648*
G37*
G36*
X583218Y286431D02*
X576131Y282340D01*
Y274157*
X570620Y270975*
Y285522*
X583218Y292796*
Y286431*
G37*
G36*
X602903Y274817D02*
X595817Y270726D01*
Y262543*
X590305Y259361*
Y273908*
X602903Y281182*
Y274817*
G37*
G36*
X880718Y235309D02*
X873631Y231218D01*
Y223035*
X868120Y219853*
Y234400*
X880718Y241674*
Y235309*
G37*
G36*
X526387Y230979D02*
X519301Y226887D01*
Y218704*
X513789Y215522*
Y230069*
X526387Y237343*
Y230979*
G37*
G36*
X266939Y166805D02*
X259852Y162714D01*
Y154531*
X254340Y151349*
Y165896*
X266939Y173170*
Y166805*
G37*
G36*
X695521Y163302D02*
X688435Y159210D01*
Y151027*
X682923Y147845*
Y162392*
X695521Y169666*
Y163302*
G37*
G36*
X407490Y155388D02*
X400403Y151297D01*
Y143114*
X394891Y139931*
Y154479*
X407490Y161753*
Y155388*
G37*
G36*
X367332D02*
X360246Y151297D01*
Y143114*
X354734Y139931*
Y154479*
X367332Y161753*
Y155388*
G37*
G36*
X287017D02*
X279931Y151297D01*
Y143114*
X274419Y139931*
Y154479*
X287017Y161753*
Y155388*
G37*
G36*
X246860D02*
X239773Y151297D01*
Y143114*
X234261Y139931*
Y154479*
X246860Y161753*
Y155388*
G37*
G36*
X427568Y143971D02*
X420482Y139879D01*
Y131696*
X414970Y128514*
Y143062*
X427568Y150335*
Y143971*
G37*
G36*
X387411D02*
X380324Y139879D01*
Y131696*
X374813Y128514*
Y143062*
X387411Y150335*
Y143971*
G37*
G36*
X266939D02*
X259852Y139879D01*
Y131696*
X254340Y128514*
Y143062*
X266939Y150335*
Y143971*
G37*
G36*
X487805Y132554D02*
X480718Y128462D01*
Y120279*
X475206Y117097*
Y131644*
X487805Y138918*
Y132554*
G37*
G36*
X447647D02*
X440561Y128462D01*
Y120279*
X435049Y117097*
Y131644*
X447647Y138918*
Y132554*
G37*
G36*
X407490D02*
X400403Y128462D01*
Y120279*
X394891Y117097*
Y131644*
X407490Y138918*
Y132554*
G37*
G36*
X367332D02*
X360246Y128462D01*
Y120279*
X354734Y117097*
Y131644*
X367332Y138918*
Y132554*
G37*
G36*
X327175D02*
X320088Y128462D01*
Y120279*
X314576Y117097*
Y131644*
X327175Y138918*
Y132554*
G37*
G36*
X287017D02*
X279931Y128462D01*
Y120279*
X274419Y117097*
Y131644*
X287017Y138918*
Y132554*
G37*
G36*
X246860D02*
X239773Y128462D01*
Y120279*
X234261Y117097*
Y131644*
X246860Y138918*
Y132554*
G37*
G36*
X206702D02*
X199616Y128462D01*
Y120279*
X194104Y117097*
Y131644*
X206702Y138918*
Y132554*
G37*
G36*
X166545D02*
X159458Y128462D01*
Y120279*
X153946Y117097*
Y131644*
X166545Y138918*
Y132554*
G37*
G36*
X467726Y121136D02*
X460639Y117045D01*
Y108862*
X455128Y105680*
Y120227*
X467726Y127501*
Y121136*
G37*
G36*
X427568D02*
X420482Y117045D01*
Y108862*
X414970Y105680*
Y120227*
X427568Y127501*
Y121136*
G37*
G36*
X387411D02*
X380324Y117045D01*
Y108862*
X374813Y105680*
Y120227*
X387411Y127501*
Y121136*
G37*
G36*
X347253D02*
X340167Y117045D01*
Y108862*
X334655Y105680*
Y120227*
X347253Y127501*
Y121136*
G37*
G36*
X307096D02*
X300009Y117045D01*
Y108862*
X294498Y105680*
Y120227*
X307096Y127501*
Y121136*
G37*
G36*
X266939D02*
X259852Y117045D01*
Y108862*
X254340Y105680*
Y120227*
X266939Y127501*
Y121136*
G37*
G36*
X226781D02*
X219694Y117045D01*
Y108862*
X214183Y105680*
Y120227*
X226781Y127501*
Y121136*
G37*
G36*
X186624D02*
X179537Y117045D01*
Y108862*
X174025Y105680*
Y120227*
X186624Y127501*
Y121136*
G37*
G54D30*
X488189Y237795D02*
Y247244D01*
X483465Y285039D02*
X492913D01*
X165354Y280315D02*
Y289764D01*
X160630Y285039D02*
X170079D01*
X165354Y237795D02*
Y247244D01*
X160630Y242520D02*
X170079D01*
X912078Y332479D02*
Y324279D01*
X913718Y322639*
X916997*
X918637Y324279*
Y332479*
X928477Y330839D02*
X926837Y332479D01*
X923557*
X921917Y330839*
Y329199*
X923557Y327559*
X926837*
X928477Y325919*
Y324279*
X926837Y322639*
X923557*
X921917Y324279*
X931756Y332479D02*
Y322639D01*
X936676*
X938316Y324279*
Y325919*
X936676Y327559*
X931756*
X936676*
X938316Y329199*
Y330839*
X936676Y332479*
X931756*
G54D31*
X901575Y327559D02*
X908268D01*
X901575D02*
X904331Y330315D01*
Y327559D02*
Y330315D01*
Y324803D02*
Y327559D01*
X901575D02*
X904331Y324803D01*
X946063D02*
X948819Y327559D01*
X946063Y324803D02*
Y327559D01*
Y330315*
X948819Y327559*
X942126D02*
X948819D01*
X927961Y123033D02*
Y134841D01*
X933865*
X935833Y132873*
Y128937*
X933865Y126969*
X927961*
X939768Y134841D02*
Y123033D01*
X943704Y126969*
X947640Y123033*
Y134841*
X951575Y123033D02*
Y134841D01*
X955511Y130905*
X959447Y134841*
Y123033*
X889770Y135037D02*
Y123230D01*
X895674*
X897642Y125198*
Y133070*
X895674Y135037*
X889770*
X901577D02*
Y123230D01*
X907481*
X909449Y125198*
Y127166*
X907481Y129134*
X901577*
X907481*
X909449Y131102*
Y133070*
X907481Y135037*
X901577*
X988192Y133070D02*
X986224Y135037D01*
X982289*
X980321Y133070*
Y125198*
X982289Y123230*
X986224*
X988192Y125198*
X992128Y123230D02*
X996064D01*
X994096*
Y135037*
X992128Y133070*
X860240D02*
X858272Y135037D01*
X854336*
X852369Y133070*
Y125198*
X854336Y123230*
X858272*
X860240Y125198*
X864176Y133070D02*
X866144Y135037D01*
X870079*
X872047Y133070*
Y125198*
X870079Y123230*
X866144*
X864176Y125198*
Y133070*
X876782Y255510D02*
X878750Y257478D01*
X882685*
X884653Y255510*
Y253543*
X882685Y251575*
X880718*
X882685*
X884653Y249607*
Y247639*
X882685Y245671*
X878750*
X876782Y247639*
X888589Y257478D02*
Y249607D01*
X892525Y245671*
X896461Y249607*
Y257478*
X900396Y255510D02*
X902364Y257478D01*
X906300*
X908268Y255510*
Y253543*
X906300Y251575*
X904332*
X906300*
X908268Y249607*
Y247639*
X906300Y245671*
X902364*
X900396Y247639*
G54D32*
X119095Y511516D02*
X118504Y512106D01*
X117913Y511516*
X118504Y510925*
X119095Y511516*
X315158Y488484D02*
X314567Y489075D01*
X313976Y488484*
X314567Y487894*
X315158Y488484*
X233563Y570472D02*
X232972Y571063D01*
X232382Y570472*
X232972Y569882*
X233563Y570472*
X375000Y511516D02*
X374409Y512106D01*
X373819Y511516*
X374409Y510925*
X375000Y511516*
X447638Y570472D02*
X447047Y571063D01*
X446457Y570472*
X447047Y569882*
X447638Y570472*
X571063Y488484D02*
X570472Y489075D01*
X569882Y488484*
X570472Y487894*
X571063Y488484*
X827756Y285138D02*
X827165Y285728D01*
X826575Y285138*
X827165Y284547*
X827756Y285138*
X828543Y234547D02*
X827953Y235138D01*
X827362Y234547*
X827953Y233957*
X828543Y234547*
Y181004D02*
X827953Y181595D01*
X827362Y181004*
X827953Y180413*
X828543Y181004*
X891142Y118898D02*
X890551Y119488D01*
X889961Y118898*
X890551Y118307*
X891142Y118898*
X927854Y118504D02*
X927264Y119095D01*
X926673Y118504*
X927264Y117913*
X927854Y118504*
X979724Y118898D02*
X979134Y119488D01*
X978543Y118898*
X979134Y118307*
X979724Y118898*
X1023425Y142717D02*
X1022835Y143307D01*
X1022244Y142717*
X1022835Y142126*
X1023425Y142717*
Y187008D02*
X1022835Y187598D01*
X1022244Y187008*
X1022835Y186417*
X1023425Y187008*
X853740Y118898D02*
X853150Y119488D01*
X852559Y118898*
X853150Y118307*
X853740Y118898*
X630905Y511516D02*
X630315Y512106D01*
X629724Y511516*
X630315Y510925*
X630905Y511516*
X826968Y488484D02*
X826378Y489075D01*
X825787Y488484*
X826378Y487894*
X826968Y488484*
X746161Y568110D02*
X745571Y568701D01*
X744980Y568110*
X745571Y567520*
X746161Y568110*
X767953Y232618D02*
X767362Y233209D01*
X766772Y232618*
X767362Y232028*
X767953Y232618*
X571890Y255650D02*
X571299Y256240D01*
X570709Y255650*
X571299Y255059*
X571890Y255650*
X678976Y314606D02*
X678386Y315197D01*
X677795Y314606*
X678386Y314016*
X678976Y314606*
G54D33*
X129921Y231496D02*
X130925Y231545D01*
X131918Y231693*
X132893Y231937*
X133838Y232275*
X134747Y232705*
X135608Y233221*
X136415Y233820*
X137159Y234494*
X137834Y235239*
X138432Y236045*
X138949Y236907*
X139378Y237815*
X139717Y238761*
X139961Y239735*
X140108Y240729*
X140157Y241732*
X140108Y242736*
X139961Y243729*
X139717Y244704*
X139378Y245650*
X138949Y246558*
X138432Y247419*
X137834Y248226*
X137159Y248970*
X136415Y249645*
X135608Y250243*
X134747Y250760*
X133838Y251189*
X132893Y251528*
X131918Y251772*
X130925Y251919*
X129921Y251969*
Y272441D02*
X128918Y272392D01*
X127924Y272244*
X126950Y272000*
X126004Y271662*
X125096Y271232*
X124234Y270716*
X123427Y270117*
X122683Y269443*
X122009Y268699*
X121410Y267892*
X120894Y267030*
X120464Y266122*
X120126Y265176*
X119882Y264202*
X119734Y263208*
X119685Y262205*
X119734Y261201*
X119882Y260208*
X120126Y259233*
X120464Y258288*
X120894Y257379*
X121410Y256518*
X122009Y255711*
X122683Y254967*
X123427Y254292*
X124234Y253694*
X125096Y253177*
X126004Y252748*
X126950Y252409*
X127924Y252165*
X128918Y252018*
X129921Y251969*
X143835Y314566D02*
Y306694D01*
X147771*
X149083Y308006*
Y309318*
X147771Y310630*
X143835*
X147771*
X149083Y311942*
Y313254*
X147771Y314566*
X143835*
X151707Y306694D02*
Y311942D01*
X154331Y314566*
X156955Y311942*
Y306694*
Y310630*
X151707*
X159578Y314566D02*
X164826D01*
X162202*
Y306694*
X506420Y253949D02*
X505108Y255261D01*
X502484*
X501172Y253949*
Y248701*
X502484Y247389*
X505108*
X506420Y248701*
Y251325*
X503796*
X509044Y247389D02*
Y255261D01*
X514291Y247389*
Y255261*
X516915D02*
Y247389D01*
X520851*
X522163Y248701*
Y253949*
X520851Y255261*
X516915*
X173493Y579002D02*
X172181Y580314D01*
X169557*
X168245Y579002*
Y573754*
X169557Y572442*
X172181*
X173493Y573754*
Y576378*
X170869*
X176116Y572442D02*
Y580314D01*
X181364Y572442*
Y580314*
X183988D02*
Y572442D01*
X187924*
X189235Y573754*
Y579002*
X187924Y580314*
X183988*
X249346Y492518D02*
Y487271D01*
X251970Y484647*
X254594Y487271*
Y492518*
X261153D02*
X258529D01*
X257217Y491207*
Y485959*
X258529Y484647*
X261153*
X262465Y485959*
Y491207*
X261153Y492518*
X172705Y492125D02*
Y486877D01*
X175329Y484253*
X177953Y486877*
Y492125*
X180577D02*
X183200D01*
X181888*
Y484253*
X180577*
X183200*
X513779Y492520D02*
X513730Y493523D01*
X513583Y494517*
X513339Y495491*
X513000Y496437*
X512571Y497345*
X512054Y498207*
X511456Y499014*
X510781Y499758*
X510037Y500432*
X509230Y501031*
X508369Y501547*
X507460Y501977*
X506515Y502315*
X505540Y502559*
X504547Y502707*
X503543Y502756*
X502540Y502707*
X501546Y502559*
X500572Y502315*
X499626Y501977*
X498718Y501547*
X497856Y501031*
X497050Y500432*
X496305Y499758*
X495631Y499014*
X495032Y498207*
X494516Y497345*
X494086Y496437*
X493748Y495491*
X493504Y494517*
X493356Y493523*
X493307Y492520*
X472835D02*
X472884Y491516D01*
X473031Y490523*
X473275Y489548*
X473614Y488602*
X474043Y487694*
X474560Y486833*
X475158Y486026*
X475833Y485282*
X476577Y484607*
X477384Y484009*
X478245Y483492*
X479154Y483063*
X480099Y482724*
X481074Y482480*
X482067Y482333*
X483071Y482283*
X484074Y482333*
X485068Y482480*
X486042Y482724*
X486988Y483063*
X487896Y483492*
X488758Y484009*
X489565Y484607*
X490309Y485282*
X490984Y486026*
X491582Y486833*
X492098Y487694*
X492528Y488602*
X492866Y489548*
X493110Y490523*
X493258Y491516*
X493307Y492520*
X545540Y472703D02*
X544228Y474015D01*
X541604*
X540292Y472703*
Y467455*
X541604Y466143*
X544228*
X545540Y467455*
Y470079*
X542916*
X548164Y466143D02*
Y474015D01*
X553411Y466143*
Y474015*
X556035D02*
Y466143D01*
X559971*
X561283Y467455*
Y472703*
X559971Y474015*
X556035*
X392784Y473490D02*
X391472Y474802D01*
X388848*
X387536Y473490*
Y468242*
X388848Y466930*
X391472*
X392784Y468242*
X395408Y466930D02*
Y474802D01*
X398031Y472178*
X400655Y474802*
Y466930*
X403279D02*
Y474802D01*
X407215*
X408527Y473490*
Y470866*
X407215Y469554*
X403279*
X446458Y467850D02*
X454329D01*
Y471786*
X453018Y473098*
X451706*
X450394Y471786*
Y467850*
Y471786*
X449082Y473098*
X447770*
X446458Y471786*
Y467850*
Y475721D02*
X454329D01*
Y479657*
X453018Y480969*
X447770*
X446458Y479657*
Y475721*
X485566Y439762D02*
Y434515D01*
X488190Y431891*
X490814Y434515*
Y439762*
X497374D02*
X494750D01*
X493438Y438451*
Y433203*
X494750Y431891*
X497374*
X498686Y433203*
Y438451*
X497374Y439762*
X447508D02*
Y434515D01*
X450132Y431891*
X452756Y434515*
Y439762*
X455380D02*
X458004D01*
X456692*
Y431891*
X455380*
X458004*
X398878Y531216D02*
X402589Y527505D01*
X406299*
Y531215*
X402589Y534926*
X404444Y536782D02*
X410010Y531216D01*
X412793Y533998*
Y535854*
X409082Y539565*
X407227*
X404444Y536782*
X437271Y535301D02*
X435959Y536613D01*
X433335*
X432023Y535301*
Y533989*
X433335Y532677*
X435959*
X437271Y531365*
Y530053*
X435959Y528741*
X433335*
X432023Y530053*
X439895Y536613D02*
X445142D01*
X442518*
Y528741*
X453282Y551967D02*
X450658D01*
X449346Y550655*
Y545408*
X450658Y544096*
X453282*
X454594Y545408*
Y550655*
X453282Y551967*
X457217D02*
Y546720D01*
X459841Y544096*
X462465Y546720*
Y551967*
X868898Y129134D02*
X868353Y129883D01*
X867473Y129597*
Y128671*
X868353Y128385*
X868898Y129134*
X754464Y548426D02*
Y556298D01*
X758400*
X759712Y554986*
Y552362*
X758400Y551050*
X754464*
X762335Y548426D02*
Y553674D01*
X764959Y556298*
X767583Y553674*
Y548426*
Y552362*
X762335*
X781629Y475983D02*
Y470735D01*
X784253Y468112*
X786877Y470735*
Y475983*
X793437D02*
X790813D01*
X789501Y474671*
Y469423*
X790813Y468112*
X793437*
X794748Y469423*
Y474671*
X793437Y475983*
X664044Y475589D02*
Y470342D01*
X666668Y467718*
X669291Y470342*
Y475589*
X671915D02*
X674539D01*
X673227*
Y467718*
X671915*
X674539*
X708138Y522703D02*
X706826Y524015D01*
X704202*
X702890Y522703*
Y517455*
X704202Y516143*
X706826*
X708138Y517455*
Y520079*
X705514*
X710762Y516143D02*
Y524015D01*
X716010Y516143*
Y524015*
X718634D02*
Y516143D01*
X722569*
X723881Y517455*
Y522703*
X722569Y524015*
X718634*
X705381Y394750D02*
X704069Y396062D01*
X701445*
X700133Y394750*
Y393438*
X701445Y392126*
X704069*
X705381Y390814*
Y389502*
X704069Y388190*
X701445*
X700133Y389502*
X708005Y396062D02*
Y388190D01*
X710629Y390814*
X713252Y388190*
Y396062*
X778799Y549887D02*
X784365Y555453D01*
X787148Y552670*
Y550814*
X785293Y548959*
X783437*
X780654Y551742*
X789931Y549887D02*
X784365Y544321D01*
X787148Y541538*
X789003*
X789931Y542465*
Y544321*
X787148Y547104*
X789931Y544321*
X791786*
X792714Y545249*
Y547104*
X789931Y549887*
X742389Y548030D02*
X737141D01*
Y540159*
X742389*
X737141Y544095D02*
X739765D01*
X745013Y540159D02*
Y548030D01*
X750260Y540159*
Y548030*
X602961Y310143D02*
X601649Y311455D01*
X599025*
X597713Y310143*
Y304896*
X599025Y303584*
X601649*
X602961Y304896*
Y307520*
X600337*
X605585Y303584D02*
Y311455D01*
X610833Y303584*
Y311455*
X613456D02*
Y303584D01*
X617392*
X618704Y304896*
Y310143*
X617392Y311455*
X613456*
X713558Y220117D02*
Y214869D01*
X716182Y212245*
X718806Y214869*
Y220117*
X725366D02*
X722742D01*
X721430Y218805*
Y213557*
X722742Y212245*
X725366*
X726678Y213557*
Y218805*
X725366Y220117*
X614477Y219723D02*
Y214475D01*
X617101Y211852*
X619724Y214475*
Y219723*
X622348D02*
X624972D01*
X623660*
Y211852*
X622348*
X624972*
X651091Y277860D02*
X649779Y279172D01*
X647155*
X645843Y277860*
Y276548*
X647155Y275236*
X649779*
X651091Y273924*
Y272612*
X649779Y271301*
X647155*
X645843Y272612*
X657651Y279172D02*
X655027D01*
X653715Y277860*
Y272612*
X655027Y271301*
X657651*
X658962Y272612*
Y277860*
X657651Y279172*
X661586D02*
Y271301D01*
X666834*
X680224Y279172D02*
X674976D01*
Y271301*
X680224*
X674976Y275236D02*
X677600D01*
X682847Y271301D02*
Y279172D01*
X688095Y271301*
Y279172*
G54D35*
X272047Y384646D02*
X271260D01*
X272047*
X245276D02*
X244488D01*
X245276*
X218504D02*
X217717D01*
X218504*
X191732D02*
X190945D01*
X191732*
X164961D02*
X164173D01*
X164961*
X138189D02*
X137402D01*
X138189*
X520079Y388583D02*
X519291D01*
X520079*
X401968D02*
X401181D01*
X401968*
X441339D02*
X440551D01*
X441339*
X461024Y435827D02*
X460236D01*
X461024*
X480709Y388583D02*
X479921D01*
X480709*
X394858Y568086D02*
X394071D01*
X394858*
X854724Y205906D02*
X853937D01*
X854724*
X831102Y258661D02*
X830315D01*
X831102*
X854724Y268898D02*
X853937D01*
X854724*
X996457Y195669D02*
X995669D01*
X996457*
X1020079Y142913D02*
X1019291D01*
X1020079*
X957087D02*
X956299D01*
X957087*
X988583D02*
X987795D01*
X988583*
X886220D02*
X885433D01*
X886220*
X831102Y195669D02*
X830315D01*
X831102*
X854724Y142913D02*
X853937D01*
X854724*
X890256Y296457D02*
X889518Y296883D01*
Y296030*
X890256Y296457*
X984744D02*
X984006Y296883D01*
Y296030*
X984744Y296457*
X875029Y214308D02*
X874242D01*
X875029*
X937795Y200000D02*
X939764D01*
Y198110D02*
Y200000D01*
Y170866D02*
Y172835D01*
X937874Y170866D02*
X939764D01*
X910630D02*
X912598D01*
X910630D02*
Y172756D01*
Y198031D02*
Y200000D01*
X912520*
X907465Y161343D02*
X918488D01*
X907465Y140083D02*
X918488D01*
X890782Y200946D02*
X906928Y217092D01*
X875749Y215979D02*
X891895Y232125D01*
X733858Y462598D02*
X732935Y462898D01*
X731995Y463142*
X731043Y463330*
X730081Y463461*
X729113Y463534*
X728143Y463549*
X727173Y463507*
X726207Y463406*
X725250Y463248*
X724303Y463034*
X723371Y462763*
X722835Y433465D02*
X723758Y433165D01*
X724697Y432921*
X725650Y432733*
X726612Y432602*
X727580Y432529*
X728550Y432514*
X729520Y432556*
X730485Y432657*
X731443Y432815*
X732390Y433029*
X733322Y433300*
X638189Y510630D02*
X637402D01*
X638189*
X669685D02*
X668898D01*
X669685*
X701181D02*
X700394D01*
X701181*
X732677D02*
X731890D01*
X732677*
X764173D02*
X763386D01*
X764173*
X795669D02*
X794882D01*
X795669*
X714173Y435039D02*
Y461024D01*
X633110Y129173D02*
X632323D01*
X633110*
X587047Y254764D02*
X586260D01*
X587047*
X634291D02*
X633504D01*
X634291*
X681535D02*
X680748D01*
X681535*
X728780D02*
X727992D01*
X728780*
X627598Y330748D02*
X626811D01*
X627598*
G54D36*
X143701Y216142D02*
X150394D01*
Y227953*
X143701Y287795D02*
X150394D01*
Y275984D02*
Y287795D01*
X109449Y216142D02*
X116142D01*
X109449D02*
Y227953D01*
Y287795D02*
X116142D01*
X109449Y275984D02*
Y287795D01*
X197638Y516535D02*
X200000D01*
X197638Y518898D02*
X200000D01*
Y516535D02*
Y518898D01*
X197638Y516535D02*
Y518898D01*
X277953Y539764D02*
X280315D01*
X277953Y542126D02*
X280315D01*
Y539764D02*
Y542126D01*
X277953Y539764D02*
Y542126D01*
X214567Y542913D02*
X218504D01*
X214567Y551575D02*
X218504D01*
X169685Y538189D02*
X177559D01*
X169685Y528740D02*
X177559D01*
X255512D02*
X263386D01*
X255512Y538189D02*
X263386D01*
X112795Y482972D02*
X117717D01*
Y488878*
X99606Y482972D02*
Y517028D01*
X112795D02*
X117717D01*
Y513878D02*
Y517028D01*
X315354D02*
X320276D01*
X315354Y511122D02*
Y517028D01*
X333465Y482972D02*
Y517028D01*
X315354Y482972D02*
X320276D01*
X315354D02*
Y486122D01*
X235335Y571260D02*
X238484D01*
Y576181*
X194587Y589370D02*
X238484D01*
X194587Y571260D02*
X200492D01*
X194587D02*
Y576181D01*
X213779Y497244D02*
X219291D01*
X213779Y510630D02*
X219291D01*
X211417Y514173D02*
X221654D01*
X211417Y527559D02*
X221654D01*
X277559Y490551D02*
X283071D01*
X277559Y503937D02*
X283071D01*
X150000D02*
X155512D01*
X150000Y490551D02*
X155512D01*
X517323Y512992D02*
X529134D01*
Y506299D02*
Y512992D01*
X457480D02*
X469291D01*
X457480Y506299D02*
Y512992D01*
X517323Y472047D02*
X529134D01*
Y478740*
X457480Y472047D02*
X469291D01*
X457480D02*
Y478740D01*
X391044Y513732D02*
X392157Y512618D01*
X391044Y513732D02*
X398560Y521248D01*
X398839Y505937D02*
X399952Y504823D01*
X407469Y512340*
X368701Y482972D02*
X373622D01*
Y488878*
X355512Y482972D02*
Y517028D01*
X368701D02*
X373622D01*
Y513878D02*
Y517028D01*
X452559Y571260D02*
Y576181D01*
X449409Y571260D02*
X452559D01*
X413583Y589370D02*
X452559D01*
X413583Y571260D02*
Y576181D01*
Y571260D02*
X419488D01*
X571260Y517028D02*
X576181D01*
X571260Y511122D02*
Y517028D01*
X589370Y482972D02*
Y517028D01*
X571260Y482972D02*
X576181D01*
X571260D02*
Y486122D01*
X477559Y454331D02*
Y459055D01*
X467323Y454331D02*
Y459055D01*
X428739Y517716D02*
X432676D01*
X428739Y509054D02*
X432676D01*
X432677Y472047D02*
X438189D01*
X432677Y485433D02*
X438189D01*
X394092Y482677D02*
X399604D01*
X394092Y496062D02*
X399604D01*
X997480Y278976D02*
X996936Y279725D01*
X996056Y279439*
Y278514*
X996936Y278227*
X997480Y278976*
Y272677D02*
X996936Y273426D01*
X996056Y273140*
Y272214*
X996936Y271928*
X997480Y272677*
Y237244D02*
X996936Y237993D01*
X996056Y237707*
Y236781*
X996936Y236495*
X997480Y237244*
Y230945D02*
X996936Y231694D01*
X996056Y231408*
Y230482*
X996936Y230196*
X997480Y230945*
X826378Y287500D02*
Y290650D01*
X821457D02*
X826378D01*
X808268Y256594D02*
Y290650D01*
X826378Y256594D02*
Y262500D01*
X821457Y256594D02*
X826378D01*
X822244Y196161D02*
X827165D01*
Y202067*
X809055Y196161D02*
Y240059D01*
X822244D02*
X827165D01*
Y236909D02*
Y240059D01*
X822244Y142618D02*
X827165D01*
Y148524*
X809055Y142618D02*
Y186516D01*
X822244D02*
X827165D01*
Y183366D02*
Y186516D01*
X908268Y118110D02*
X914173D01*
Y113189D02*
Y118110D01*
X885039Y100000D02*
X914173D01*
X885039Y118110D02*
X888189D01*
X885039Y113189D02*
Y118110D01*
X965650Y112795D02*
Y117717D01*
X959744D02*
X965650D01*
X921752Y99606D02*
X965650D01*
X921752Y112795D02*
Y117717D01*
X924902*
X996850Y118110D02*
X1002756D01*
Y113189D02*
Y118110D01*
X973622Y100000D02*
X1002756D01*
X973622Y118110D02*
X976772D01*
X973622Y113189D02*
Y118110D01*
X1023622Y137205D02*
X1028543D01*
X1023622D02*
Y140354D01*
X1041732Y137205D02*
Y176181D01*
X1023622D02*
X1028543D01*
X1023622Y170276D02*
Y176181D01*
Y204724D02*
Y210630D01*
X1028543*
X1041732Y181496D02*
Y210630D01*
X1023622Y181496D02*
Y184646D01*
Y181496D02*
X1028543D01*
X870866Y118110D02*
X876772D01*
Y113189D02*
Y118110D01*
X847638Y100000D02*
X876772D01*
X847638Y118110D02*
X850787D01*
X847638Y113189D02*
Y118110D01*
X897638Y165748D02*
Y173622D01*
X888189Y165748D02*
Y173622D01*
X1005748Y256142D02*
X1028976D01*
X1005748Y295512D02*
X1028976D01*
X1034882Y288819D02*
X1036850D01*
X1034882D02*
Y290787D01*
Y262835D02*
X1036850D01*
X1034882Y260866D02*
Y262835D01*
X996693Y279764D02*
Y281732D01*
Y269921D02*
Y271890D01*
X997087Y278189D02*
X998791Y273757D01*
X1005748Y214409D02*
X1028976D01*
X1005748Y253780D02*
X1028976D01*
X1034882Y247087D02*
X1036850D01*
X1034882D02*
Y249055D01*
Y221102D02*
X1036850D01*
X1034882Y219134D02*
Y221102D01*
X996693Y238032D02*
Y240000D01*
Y228189D02*
Y230157D01*
X997087Y236457D02*
X998791Y232025D01*
X897244Y326378D02*
Y333465D01*
Y310630D02*
Y315748D01*
X858661Y326378D02*
Y333465D01*
X864980Y298287D02*
X890925D01*
X858661Y310630D02*
Y315748D01*
X953150Y310630D02*
Y315748D01*
X959468Y298287D02*
X985413D01*
X953150Y326378D02*
Y333465D01*
X991732Y310630D02*
Y315748D01*
Y326378D02*
Y333465D01*
X968504Y225984D02*
X974016D01*
X968504Y212598D02*
X974016D01*
X922047Y261417D02*
X928347D01*
X922047Y269291D02*
X928347D01*
X922047Y306299D02*
X928347D01*
X922047Y296063D02*
X928347D01*
X624606Y482972D02*
X629528D01*
Y488878*
X611417Y482972D02*
Y517028D01*
X624606D02*
X629528D01*
Y513878D02*
Y517028D01*
X827165D02*
X832087D01*
X827165Y511122D02*
Y517028D01*
X845276Y482972D02*
Y517028D01*
X827165Y482972D02*
X832087D01*
X827165D02*
Y486122D01*
X747933Y568898D02*
X751083D01*
Y573819*
X707185Y587008D02*
X751083D01*
X707185Y568898D02*
X713091D01*
X707185D02*
Y573819D01*
X626417Y138228D02*
X625630D01*
X626417*
X694921D02*
X694134D01*
X694921*
X738228D02*
X737441D01*
X738228*
X768150Y261161D02*
X773071D01*
X768150Y255256D02*
Y261161D01*
X786260Y227106D02*
Y261161D01*
X768150Y227106D02*
X773071D01*
X768150D02*
Y230256D01*
X592559Y100039D02*
X627992D01*
X592559D02*
Y125236D01*
X627992Y100039D02*
Y125236D01*
X661063Y100039D02*
X696496D01*
X661063D02*
Y125236D01*
X696496Y100039D02*
Y125236D01*
X704370Y100039D02*
X739803D01*
X704370D02*
Y125236D01*
X739803Y100039D02*
Y125236D01*
X666181Y169724D02*
Y175236D01*
X652795Y169724D02*
Y175236D01*
X565590Y227106D02*
X570512D01*
Y233012*
X552402Y227106D02*
Y261161D01*
X565590D02*
X570512D01*
Y258012D02*
Y261161D01*
X683898Y315394D02*
Y320315D01*
X680748Y315394D02*
X683898D01*
X654764Y333504D02*
X683898D01*
X654764Y315394D02*
Y320315D01*
Y315394D02*
X660669D01*
G54D79*
X858478Y184253D02*
Y191337D01*
X862020*
X863200Y190157*
Y187795*
X862020Y186615*
X858478*
X860839D02*
X863200Y184253D01*
X865562D02*
Y191337D01*
X869104*
X870285Y190157*
Y187795*
X869104Y186615*
X865562*
X877369Y184253D02*
X872646D01*
X877369Y188976*
Y190157*
X876188Y191337*
X873827*
X872646Y190157*
X879731D02*
X880911Y191337D01*
X883273*
X884453Y190157*
Y185434*
X883273Y184253*
X880911*
X879731Y185434*
Y190157*
X890357Y184253D02*
Y191337D01*
X886815Y187795*
X891538*
X893899Y190157D02*
X895080Y191337D01*
X897441*
X898622Y190157*
Y185434*
X897441Y184253*
X895080*
X893899Y185434*
Y190157*
X643504Y546654D02*
Y542062D01*
X645800Y539766*
X648096Y542062*
Y546654*
X650391D02*
X652687D01*
X651539*
Y539766*
X650391*
X652687*
X656131Y544358D02*
X657279D01*
Y543210*
X656131*
Y544358*
Y540914D02*
X657279D01*
Y539766*
X656131*
Y540914*
X665314Y539766D02*
X661871Y543210D01*
X665314Y546654*
X668758Y545506D02*
X669906Y546654D01*
X672202*
X673350Y545506*
Y544358*
X672202Y543210*
X673350Y542062*
Y540914*
X672202Y539766*
X669906*
X668758Y540914*
Y542062*
X669906Y543210*
X668758Y544358*
Y545506*
X669906Y543210D02*
X672202D01*
X675646Y545506D02*
X676794Y546654D01*
X679089*
X680237Y545506*
Y540914*
X679089Y539766*
X676794*
X675646Y540914*
Y545506*
X682533Y546654D02*
Y542062D01*
X684829Y539766*
X687125Y542062*
Y546654*
X643504Y535081D02*
Y528194D01*
Y531638*
X648096*
Y535081*
Y528194*
X654983Y533933D02*
X653835Y535081D01*
X651539*
X650391Y533933*
Y532786*
X651539Y531638*
X653835*
X654983Y530490*
Y529342*
X653835Y528194*
X651539*
X650391Y529342*
X657279Y532786D02*
X658427D01*
Y531638*
X657279*
Y532786*
Y529342D02*
X658427D01*
Y528194*
X657279*
Y529342*
X667610Y535081D02*
X665314Y533933D01*
X663019Y531638*
Y529342*
X664166Y528194*
X666462*
X667610Y529342*
Y530490*
X666462Y531638*
X663019*
X669906Y528194D02*
Y529342D01*
X671054*
Y528194*
X669906*
X680237Y535081D02*
X677942Y533933D01*
X675646Y531638*
Y529342*
X676794Y528194*
X679089*
X680237Y529342*
Y530490*
X679089Y531638*
X675646*
X682533Y528194D02*
Y532786D01*
X683681*
X684829Y531638*
Y528194*
Y531638*
X685977Y532786*
X687125Y531638*
Y528194*
X689421D02*
Y535081D01*
X692865*
X694012Y533933*
Y531638*
X692865Y530490*
X689421*
X691717D02*
X694012Y528194D01*
X643504Y523509D02*
Y516622D01*
X648096*
X654983Y522361D02*
X653835Y523509D01*
X651539*
X650391Y522361*
Y521213*
X651539Y520066*
X653835*
X654983Y518918*
Y517770*
X653835Y516622*
X651539*
X650391Y517770*
X657279Y521213D02*
X658427D01*
Y520066*
X657279*
Y521213*
Y517770D02*
X658427D01*
Y516622*
X657279*
Y517770*
X667610Y523509D02*
X665314Y522361D01*
X663019Y520066*
Y517770*
X664166Y516622*
X666462*
X667610Y517770*
Y518918*
X666462Y520066*
X663019*
X669906Y516622D02*
Y517770D01*
X671054*
Y516622*
X669906*
X680237Y523509D02*
X677942Y522361D01*
X675646Y520066*
Y517770*
X676794Y516622*
X679089*
X680237Y517770*
Y518918*
X679089Y520066*
X675646*
X682533Y516622D02*
Y521213D01*
X683681*
X684829Y520066*
Y516622*
Y520066*
X685977Y521213*
X687125Y520066*
Y516622*
X689421D02*
Y523509D01*
X692865*
X694012Y522361*
Y520066*
X692865Y518918*
X689421*
X691717D02*
X694012Y516622D01*
G54D134*
X520466Y241234D02*
X525978Y238052D01*
X513380Y237143D02*
X520466Y241234D01*
X513380Y230778D02*
X525978Y238052D01*
X500781D02*
X506293Y241234D01*
X500781Y238052D02*
X513380Y230778D01*
X506293Y241234D02*
X513380Y237143D01*
X381884Y162461D02*
X387396Y165644D01*
X381884Y162461D02*
X394482Y155188D01*
X407081Y162461*
X401569Y165644D02*
X407081Y162461D01*
X394482Y161552D02*
X401569Y165644D01*
X387396D02*
X394482Y161552D01*
X401963Y151044D02*
X407474Y154226D01*
X401963Y151044D02*
X414561Y143770D01*
X427159Y151044*
X421648Y154226D02*
X427159Y151044D01*
X414561Y150135D02*
X421648Y154226D01*
X407474D02*
X414561Y150135D01*
X341726Y162461D02*
X347238Y165644D01*
X341726Y162461D02*
X354325Y155188D01*
X366923Y162461*
X361411Y165644D02*
X366923Y162461D01*
X354325Y161552D02*
X361411Y165644D01*
X347238D02*
X354325Y161552D01*
X361805Y151044D02*
X367317Y154226D01*
X361805Y151044D02*
X374404Y143770D01*
X387002Y151044*
X381490Y154226D02*
X387002Y151044D01*
X374404Y150135D02*
X381490Y154226D01*
X367317D02*
X374404Y150135D01*
X241333Y173879D02*
X246844Y177061D01*
X241333Y173879D02*
X253931Y166605D01*
X266529Y173879*
X261018Y177061D02*
X266529Y173879D01*
X253931Y172969D02*
X261018Y177061D01*
X246844D02*
X253931Y172969D01*
X261411Y162461D02*
X266923Y165644D01*
X261411Y162461D02*
X274010Y155188D01*
X286608Y162461*
X281096Y165644D02*
X286608Y162461D01*
X274010Y161552D02*
X281096Y165644D01*
X266923D02*
X274010Y161552D01*
X221254Y162461D02*
X226766Y165644D01*
X221254Y162461D02*
X233852Y155188D01*
X246451Y162461*
X240939Y165644D02*
X246451Y162461D01*
X233852Y161552D02*
X240939Y165644D01*
X226766D02*
X233852Y161552D01*
X241333Y151044D02*
X246844Y154226D01*
X241333Y151044D02*
X253931Y143770D01*
X266529Y151044*
X261018Y154226D02*
X266529Y151044D01*
X253931Y150135D02*
X261018Y154226D01*
X246844D02*
X253931Y150135D01*
X462199Y139627D02*
X467710Y142809D01*
X462199Y139627D02*
X474797Y132353D01*
X487396Y139627*
X481884Y142809D02*
X487396Y139627D01*
X474797Y138717D02*
X481884Y142809D01*
X467710D02*
X474797Y138717D01*
X422041Y139627D02*
X427553Y142809D01*
X422041Y139627D02*
X434640Y132353D01*
X447238Y139627*
X441726Y142809D02*
X447238Y139627D01*
X434640Y138717D02*
X441726Y142809D01*
X427553D02*
X434640Y138717D01*
X442120Y128209D02*
X447632Y131392D01*
X442120Y128209D02*
X454718Y120936D01*
X467317Y128209*
X461805Y131392D02*
X467317Y128209D01*
X454718Y127300D02*
X461805Y131392D01*
X447632D02*
X454718Y127300D01*
X381884Y139627D02*
X387396Y142809D01*
X381884Y139627D02*
X394482Y132353D01*
X407081Y139627*
X401569Y142809D02*
X407081Y139627D01*
X394482Y138717D02*
X401569Y142809D01*
X387396D02*
X394482Y138717D01*
X401963Y128209D02*
X407474Y131392D01*
X401963Y128209D02*
X414561Y120936D01*
X427159Y128209*
X421648Y131392D02*
X427159Y128209D01*
X414561Y127300D02*
X421648Y131392D01*
X407474D02*
X414561Y127300D01*
X341726Y139627D02*
X347238Y142809D01*
X341726Y139627D02*
X354325Y132353D01*
X366923Y139627*
X361411Y142809D02*
X366923Y139627D01*
X354325Y138717D02*
X361411Y142809D01*
X347238D02*
X354325Y138717D01*
X361805Y128209D02*
X367317Y131392D01*
X361805Y128209D02*
X374404Y120936D01*
X387002Y128209*
X381490Y131392D02*
X387002Y128209D01*
X374404Y127300D02*
X381490Y131392D01*
X367317D02*
X374404Y127300D01*
X301569Y139627D02*
X307081Y142809D01*
X301569Y139627D02*
X314167Y132353D01*
X326766Y139627*
X321254Y142809D02*
X326766Y139627D01*
X314167Y138717D02*
X321254Y142809D01*
X307081D02*
X314167Y138717D01*
X321648Y128209D02*
X327159Y131392D01*
X321648Y128209D02*
X334246Y120936D01*
X346844Y128209*
X341333Y131392D02*
X346844Y128209D01*
X334246Y127300D02*
X341333Y131392D01*
X327159D02*
X334246Y127300D01*
X261411Y139627D02*
X266923Y142809D01*
X261411Y139627D02*
X274010Y132353D01*
X286608Y139627*
X281096Y142809D02*
X286608Y139627D01*
X274010Y138717D02*
X281096Y142809D01*
X266923D02*
X274010Y138717D01*
X281490Y128209D02*
X287002Y131392D01*
X281490Y128209D02*
X294089Y120936D01*
X306687Y128209*
X301175Y131392D02*
X306687Y128209D01*
X294089Y127300D02*
X301175Y131392D01*
X287002D02*
X294089Y127300D01*
X221254Y139627D02*
X226766Y142809D01*
X221254Y139627D02*
X233852Y132353D01*
X246451Y139627*
X240939Y142809D02*
X246451Y139627D01*
X233852Y138717D02*
X240939Y142809D01*
X226766D02*
X233852Y138717D01*
X241333Y128209D02*
X246844Y131392D01*
X241333Y128209D02*
X253931Y120936D01*
X266529Y128209*
X261018Y131392D02*
X266529Y128209D01*
X253931Y127300D02*
X261018Y131392D01*
X246844D02*
X253931Y127300D01*
X206687Y131392D02*
X213773Y127300D01*
X220860Y131392*
X226372Y128209*
X213773Y120936D02*
X226372Y128209D01*
X201175D02*
X213773Y120936D01*
X201175Y128209D02*
X206687Y131392D01*
X186608Y142809D02*
X193695Y138717D01*
X200781Y142809*
X206293Y139627*
X193695Y132353D02*
X206293Y139627D01*
X181096D02*
X193695Y132353D01*
X181096Y139627D02*
X186608Y142809D01*
X166529Y131392D02*
X173616Y127300D01*
X180703Y131392*
X186214Y128209*
X173616Y120936D02*
X186214Y128209D01*
X161018D02*
X173616Y120936D01*
X161018Y128209D02*
X166529Y131392D01*
X146451Y142809D02*
X153537Y138717D01*
X160624Y142809*
X166136Y139627*
X153537Y132353D02*
X166136Y139627D01*
X140939D02*
X153537Y132353D01*
X140939Y139627D02*
X146451Y142809D01*
X109443Y550289D02*
X116529Y546198D01*
X123616Y550289*
X129128Y547107*
X116529Y539833D02*
X129128Y547107D01*
X103931D02*
X116529Y539833D01*
X103931Y547107D02*
X109443Y550289D01*
X219679Y411313D02*
X226766Y407221D01*
X233852Y411313*
X239364Y408131*
X226766Y400857D02*
X239364Y408131D01*
X214167D02*
X226766Y400857D01*
X214167Y408131D02*
X219679Y411313D01*
X199207Y423124D02*
X206293Y419032D01*
X213380Y423124*
X218892Y419942*
X206293Y412668D02*
X218892Y419942D01*
X193695D02*
X206293Y412668D01*
X193695Y419942D02*
X199207Y423124D01*
X219679Y434541D02*
X226766Y430450D01*
X233852Y434541*
X239364Y431359*
X226766Y424085D02*
X239364Y431359D01*
X214167D02*
X226766Y424085D01*
X214167Y431359D02*
X219679Y434541D01*
X199207Y446746D02*
X206293Y442654D01*
X213380Y446746*
X218892Y443564*
X206293Y436290D02*
X218892Y443564D01*
X193695D02*
X206293Y436290D01*
X193695Y443564D02*
X199207Y446746D01*
X261805Y588085D02*
X268892Y583993D01*
X275978Y588085*
X281490Y584902*
X268892Y577629D02*
X281490Y584902D01*
X256293D02*
X268892Y577629D01*
X256293Y584902D02*
X261805Y588085D01*
X528340Y588478D02*
X535427Y584387D01*
X542514Y588478*
X548026Y585296*
X535427Y578022D02*
X548026Y585296D01*
X522829D02*
X535427Y578022D01*
X522829Y585296D02*
X528340Y588478D01*
X548026Y530604D02*
X555112Y526513D01*
X562199Y530604*
X567710Y527422*
X555112Y520148D02*
X567710Y527422D01*
X542514D02*
X555112Y520148D01*
X542514Y527422D02*
X548026Y530604D01*
X527947Y542022D02*
X535033Y537930D01*
X542120Y542022*
X547632Y538839*
X535033Y531566D02*
X547632Y538839D01*
X522435D02*
X535033Y531566D01*
X522435Y538839D02*
X527947Y542022D01*
X548419Y553832D02*
X555506Y549741D01*
X562592Y553832*
X568104Y550650*
X555506Y543377D02*
X568104Y550650D01*
X542907D02*
X555506Y543377D01*
X542907Y550650D02*
X548419Y553832D01*
X528340Y565644D02*
X535427Y561552D01*
X542514Y565644*
X548026Y562461*
X535427Y555188D02*
X548026Y562461D01*
X522829D02*
X535427Y555188D01*
X522829Y562461D02*
X528340Y565644D01*
X860624Y245565D02*
X867710Y241473D01*
X874797Y245565*
X880309Y242383*
X867710Y235109D02*
X880309Y242383D01*
X855112D02*
X867710Y235109D01*
X855112Y242383D02*
X860624Y245565D01*
X677159Y394384D02*
X684246Y390292D01*
X691333Y394384*
X696844Y391201*
X684246Y383928D02*
X696844Y391201D01*
X671648D02*
X684246Y383928D01*
X671648Y391201D02*
X677159Y394384D01*
X657081Y382966D02*
X664167Y378875D01*
X671254Y382966*
X676766Y379784*
X664167Y372510D02*
X676766Y379784D01*
X651569D02*
X664167Y372510D01*
X651569Y379784D02*
X657081Y382966D01*
X763380Y545959D02*
X770466Y541867D01*
X777553Y545959*
X783065Y542776*
X770466Y535502D02*
X783065Y542776D01*
X757868D02*
X770466Y535502D01*
X757868Y542776D02*
X763380Y545959D01*
X676372Y576273D02*
X683459Y572182D01*
X690545Y576273*
X696057Y573091*
X683459Y565817D02*
X696057Y573091D01*
X670860D02*
X683459Y565817D01*
X670860Y573091D02*
X676372Y576273D01*
X655899Y588085D02*
X662986Y583993D01*
X670073Y588085*
X675585Y584902*
X662986Y577629D02*
X675585Y584902D01*
X650388D02*
X662986Y577629D01*
X650388Y584902D02*
X655899Y588085D01*
X675427Y173557D02*
X682514Y169465D01*
X689600Y173557*
X695112Y170375*
X682514Y163101D02*
X695112Y170375D01*
X669915D02*
X682514Y163101D01*
X669915Y170375D02*
X675427Y173557D01*
X710565Y301903D02*
X717652Y297812D01*
X724738Y301903*
X730250Y298721*
X717652Y291447D02*
X730250Y298721D01*
X705053D02*
X717652Y291447D01*
X705053Y298721D02*
X710565Y301903D01*
X710368Y325525D02*
X717455Y321434D01*
X724541Y325525*
X730053Y322343*
X717455Y315069D02*
X730053Y322343D01*
X704856D02*
X717455Y315069D01*
X704856Y322343D02*
X710368Y325525D01*
X690486Y313813D02*
X697573Y309721D01*
X704659Y313813*
X710171Y310630*
X697573Y303357D02*
X710171Y310630D01*
X684974D02*
X697573Y303357D01*
X684974Y310630D02*
X690486Y313813D01*
X582809Y285073D02*
X589896Y280981D01*
X596982Y285073*
X602494Y281890*
X589896Y274617D02*
X602494Y281890D01*
X577297D02*
X589896Y274617D01*
X577297Y281890D02*
X582809Y285073D01*
X563124Y296687D02*
X570211Y292595D01*
X577297Y296687*
X582809Y293505*
X570211Y286231D02*
X582809Y293505D01*
X557612D02*
X570211Y286231D01*
X557612Y293505D02*
X563124Y296687D01*
G54D135*
X478445Y277756D02*
Y304429D01*
Y223130D02*
Y249803D01*
X175098Y277756D02*
Y304429D01*
Y223130D02*
Y249803D01*
Y223130D02*
X478445D01*
X175098Y304429D02*
X478445D01*
G54D136*
X149213Y302362D02*
Y304331D01*
X151181*
X160236Y302362D02*
Y304331D01*
X158268D02*
X160236D01*
X149213Y291732D02*
Y293701D01*
Y291732D02*
X151181D01*
X160236D02*
Y293701D01*
X158268Y291732D02*
X160236D01*
X506299Y268110D02*
Y270079D01*
X508268*
X517323Y268110D02*
Y270079D01*
X515354D02*
X517323D01*
X506299Y257480D02*
Y259449D01*
Y257480D02*
X508268D01*
X517323D02*
Y259449D01*
X515354Y257480D02*
X517323D01*
X164567Y579528D02*
Y581496D01*
X162598D02*
X164567D01*
Y570472D02*
Y572441D01*
X162598Y570472D02*
X164567D01*
X151969Y579528D02*
Y581496D01*
X153937*
X151969Y570472D02*
Y572441D01*
Y570472D02*
X153937D01*
X249213Y521260D02*
Y523228D01*
X247244D02*
X249213D01*
Y512205D02*
Y514173D01*
X247244Y512205D02*
X249213D01*
X236614Y521260D02*
Y523228D01*
X238583*
X236614Y512205D02*
Y514173D01*
Y512205D02*
X238583D01*
X249213Y540551D02*
Y542520D01*
X247244D02*
X249213D01*
Y531496D02*
Y533465D01*
X247244Y531496D02*
X249213D01*
X236614Y540551D02*
Y542520D01*
X238583*
X236614Y531496D02*
Y533465D01*
Y531496D02*
X238583D01*
X196457Y540551D02*
Y542520D01*
X194488D02*
X196457D01*
Y531496D02*
Y533465D01*
X194488Y531496D02*
X196457D01*
X183858Y540551D02*
Y542520D01*
X185827*
X183858Y531496D02*
Y533465D01*
Y531496D02*
X185827D01*
X183858Y512205D02*
Y514173D01*
Y512205D02*
X185827D01*
X183858Y521260D02*
Y523228D01*
X185827*
X196457Y512205D02*
Y514173D01*
X194488Y512205D02*
X196457D01*
Y521260D02*
Y523228D01*
X194488D02*
X196457D01*
X235433Y492520D02*
Y494488D01*
X237402*
X246457Y492520D02*
Y494488D01*
X244488D02*
X246457D01*
X235433Y481890D02*
Y483858D01*
Y481890D02*
X237402D01*
X246457D02*
Y483858D01*
X244488Y481890D02*
X246457D01*
X186614Y492520D02*
Y494488D01*
X188583*
X197638Y492520D02*
Y494488D01*
X195669D02*
X197638D01*
X186614Y481890D02*
Y483858D01*
Y481890D02*
X188583D01*
X197638D02*
Y483858D01*
X195669Y481890D02*
X197638D01*
X557480Y485827D02*
Y487795D01*
X555512D02*
X557480D01*
Y476772D02*
Y478740D01*
X555512Y476772D02*
X557480D01*
X544882Y485827D02*
Y487795D01*
X546850*
X544882Y476772D02*
Y478740D01*
Y476772D02*
X546850D01*
X443307Y550394D02*
X445276D01*
Y548425D02*
Y550394D01*
X443307Y539370D02*
X445276D01*
Y541339*
X432677Y550394D02*
X434646D01*
X432677Y548425D02*
Y550394D01*
Y539370D02*
X434646D01*
X432677D02*
Y541339D01*
X412908Y532053D02*
X414300Y530661D01*
X412908Y532053D02*
X414300Y533445D01*
X420703Y539848D02*
X422095Y538456D01*
X419311D02*
X420703Y539848D01*
X420425Y524536D02*
X421817Y523144D01*
X423209Y524536*
X428220Y532331D02*
X429611Y530939D01*
X428220Y529547D02*
X429611Y530939D01*
X450000Y554724D02*
X451968D01*
X450000D02*
Y556693D01*
Y565748D02*
X451968D01*
X450000Y563780D02*
Y565748D01*
X460630Y554724D02*
X462598D01*
Y556693*
X460630Y565748D02*
X462598D01*
Y563780D02*
Y565748D01*
X486614Y452362D02*
Y454331D01*
X488583*
X497638Y452362D02*
Y454331D01*
X495669D02*
X497638D01*
X486614Y441732D02*
Y443701D01*
Y441732D02*
X488583D01*
X497638D02*
Y443701D01*
X495669Y441732D02*
X497638D01*
X447244Y452362D02*
Y454331D01*
X449213*
X458268Y452362D02*
Y454331D01*
X456299D02*
X458268D01*
X447244Y441732D02*
Y443701D01*
Y441732D02*
X449213D01*
X458268D02*
Y443701D01*
X456299Y441732D02*
X458268D01*
X444095Y484252D02*
X446063D01*
X444095D02*
Y486221D01*
Y495276D02*
X446063D01*
X444095Y493307D02*
Y495276D01*
X454724Y484252D02*
X456693D01*
Y486221*
X454724Y495276D02*
X456693D01*
Y493307D02*
Y495276D01*
X411417Y472835D02*
X413386D01*
X411417D02*
Y474803D01*
Y483858D02*
X413386D01*
X411417Y481890D02*
Y483858D01*
X422047Y472835D02*
X424016D01*
Y474803*
X422047Y483858D02*
X424016D01*
Y481890D02*
Y483858D01*
X764961Y558268D02*
X766929D01*
Y560236*
X755905Y558268D02*
X757874D01*
X755905D02*
Y560236D01*
X764961Y570866D02*
X766929D01*
Y568898D02*
Y570866D01*
X755905D02*
X757874D01*
X755905Y568898D02*
Y570866D01*
X720079Y535827D02*
Y537795D01*
X718110D02*
X720079D01*
Y526772D02*
Y528740D01*
X718110Y526772D02*
X720079D01*
X707480Y535827D02*
Y537795D01*
X709449*
X707480Y526772D02*
Y528740D01*
Y526772D02*
X709449D01*
X702461Y425197D02*
X707185D01*
X710039Y417224D02*
X714764D01*
X713386Y407480D02*
Y409449D01*
X711417D02*
X713386D01*
Y398425D02*
Y400394D01*
X711417Y398425D02*
X713386D01*
X700787Y407480D02*
Y409449D01*
X702756*
X700787Y398425D02*
Y400394D01*
Y398425D02*
X702756D01*
X779528Y475197D02*
Y477165D01*
X777559D02*
X779528D01*
Y466142D02*
Y468110D01*
X777559Y466142D02*
X779528D01*
X766929Y475197D02*
Y477165D01*
X768898*
X766929Y466142D02*
Y468110D01*
Y466142D02*
X768898D01*
X750394Y437402D02*
X755118D01*
X743307D02*
X748032D01*
X689764Y475197D02*
Y477165D01*
X687795D02*
X689764D01*
Y466142D02*
Y468110D01*
X687795Y466142D02*
X689764D01*
X677165Y475197D02*
Y477165D01*
X679134*
X677165Y466142D02*
Y468110D01*
Y466142D02*
X679134D01*
X795045Y565832D02*
X796437Y564440D01*
X793653D02*
X795045Y565832D01*
X801448Y559429D02*
X802840Y558037D01*
X801448Y556645D02*
X802840Y558037D01*
X786136Y556923D02*
X787529Y555532D01*
X786136Y556923D02*
X787529Y558316D01*
X792540Y550521D02*
X793931Y549129D01*
X795323Y550521*
X738583Y562598D02*
X740551D01*
X738583Y560630D02*
Y562598D01*
X747638D02*
X749606D01*
Y560630D02*
Y562598D01*
X738583Y550000D02*
X740551D01*
X738583D02*
Y551968D01*
X747638Y550000D02*
X749606D01*
Y551968*
X614902Y323268D02*
Y325236D01*
X612933D02*
X614902D01*
Y314213D02*
Y316181D01*
X612933Y314213D02*
X614902D01*
X602303Y323268D02*
Y325236D01*
X604272*
X602303Y314213D02*
Y316181D01*
Y314213D02*
X604272D01*
X627598Y210276D02*
X629567D01*
X627598D02*
Y212244D01*
Y221299D02*
X629567D01*
X627598Y219331D02*
Y221299D01*
X638228Y210276D02*
X640197D01*
Y212244*
X638228Y221299D02*
X640197D01*
Y219331D02*
Y221299D01*
X698858Y210276D02*
X700827D01*
X698858D02*
Y212244D01*
Y221299D02*
X700827D01*
X698858Y219331D02*
Y221299D01*
X709488Y210276D02*
X711457D01*
Y212244*
X709488Y221299D02*
X711457D01*
Y219331D02*
Y221299D01*
X675630Y281929D02*
X677598D01*
X675630D02*
Y283898D01*
Y292953D02*
X677598D01*
X675630Y290984D02*
Y292953D01*
X686260Y281929D02*
X688228D01*
Y283898*
X686260Y292953D02*
X688228D01*
Y290984D02*
Y292953D01*
X650433Y281929D02*
X652402D01*
X650433D02*
Y283898D01*
Y292953D02*
X652402D01*
X650433Y290984D02*
Y292953D01*
X661063Y281929D02*
X663031D01*
Y283898*
X661063Y292953D02*
X663031D01*
Y290984D02*
Y292953D01*
G54D137*
X111811Y292519D02*
X109712D01*
Y290945*
X110761*
X109712*
Y289371*
X112861D02*
X113910D01*
X113385*
Y292519*
X112861Y291994*
X151576Y290157D02*
X153150D01*
X152363*
Y287796*
X153937D02*
Y290157D01*
X155118*
X155512Y289763*
Y288976*
X155118Y288583*
X153937*
X157873Y287796D02*
X156299D01*
X157873Y289370*
Y289763*
X157479Y290157*
X156692*
X156299Y289763*
X509056Y273622D02*
X510630D01*
X509843*
Y271260*
X511417D02*
Y273622D01*
X512598*
X512992Y273228*
Y272441*
X512598Y272047*
X511417*
X513779Y271260D02*
X514566D01*
X514173*
Y273622*
X513779Y273228*
X520079Y213385D02*
X519292D01*
X519685*
Y211418*
X519292Y211024*
X518898*
X518505Y211418*
X522440Y213385D02*
X521653Y212992D01*
X520866Y212205*
Y211418*
X521260Y211024*
X522047*
X522440Y211418*
Y211811*
X522047Y212205*
X520866*
X109055Y213385D02*
X108268D01*
X108662*
Y211418*
X108268Y211024*
X107875*
X107481Y211418*
X111417Y213385D02*
X109842D01*
Y212205*
X110629Y212598*
X111023*
X111417Y212205*
Y211418*
X111023Y211024*
X110236*
X109842Y211418*
X527559Y144094D02*
X526772D01*
X527166*
Y142126*
X526772Y141733*
X526378*
X525985Y142126*
X529527Y141733D02*
Y144094D01*
X528346Y142913*
X529921*
X101969Y144094D02*
X101181D01*
X101575*
Y142126*
X101181Y141733*
X100788*
X100394Y142126*
X102756Y143701D02*
X103149Y144094D01*
X103937*
X104330Y143701*
Y143307*
X103937Y142913*
X103543*
X103937*
X104330Y142520*
Y142126*
X103937Y141733*
X103149*
X102756Y142126*
X527559Y211417D02*
X526772D01*
X527166*
Y209449*
X526772Y209055*
X526378*
X525985Y209449*
X529921Y209055D02*
X528346D01*
X529921Y210630*
Y211023*
X529527Y211417*
X528740*
X528346Y211023*
X101575Y211811D02*
X100788D01*
X101181*
Y209843*
X100788Y209449*
X100394*
X100001Y209843*
X102362Y209449D02*
X103149D01*
X102755*
Y211811*
X102362Y211417*
X175197Y307874D02*
Y305512D01*
X176378*
X176772Y305906*
Y306299*
X176378Y306693*
X175197*
X176378*
X176772Y307086*
Y307480*
X176378Y307874*
X175197*
X177559Y305512D02*
X178346D01*
X177952*
Y307874*
X177559Y307480*
X278479Y535434D02*
Y538582D01*
X280053*
X280578Y538057*
Y537008*
X280053Y536483*
X278479*
X279528D02*
X280578Y535434D01*
X281627D02*
X282677D01*
X282152*
Y538582*
X281627Y538057*
X284251Y535434D02*
X285301D01*
X284776*
Y538582*
X284251Y538057*
X277954Y531103D02*
Y534251D01*
X279528*
X280053Y533727*
Y532677*
X279528Y532152*
X277954*
X279004D02*
X280053Y531103D01*
X281103D02*
X282152D01*
X281627*
Y534251*
X281103Y533727*
X283727D02*
X284251Y534251D01*
X285301*
X285825Y533727*
Y531628*
X285301Y531103*
X284251*
X283727Y531628*
Y533727*
X230053Y515749D02*
Y518897D01*
X231628*
X232152Y518372*
Y517323*
X231628Y516798*
X230053*
X231103D02*
X232152Y515749D01*
X233202Y516273D02*
X233727Y515749D01*
X234776*
X235301Y516273*
Y518372*
X234776Y518897*
X233727*
X233202Y518372*
Y517848*
X233727Y517323*
X235301*
X189896Y499213D02*
Y502362D01*
X191470*
X191995Y501837*
Y500787*
X191470Y500263*
X189896*
X190945D02*
X191995Y499213D01*
X193044Y501837D02*
X193569Y502362D01*
X194619*
X195143Y501837*
Y501312*
X194619Y500787*
X195143Y500263*
Y499738*
X194619Y499213*
X193569*
X193044Y499738*
Y500263*
X193569Y500787*
X193044Y501312*
Y501837*
X193569Y500787D02*
X194619D01*
X152495Y586220D02*
X154594D01*
X153545*
Y583071*
X155644D02*
Y586220D01*
X157218*
X157743Y585695*
Y584646*
X157218Y584121*
X155644*
X160892Y583071D02*
X158792D01*
X160892Y585170*
Y585695*
X160367Y586220*
X159317*
X158792Y585695*
X161941D02*
X162466Y586220D01*
X163515*
X164040Y585695*
Y583596*
X163515Y583071*
X162466*
X161941Y583596*
Y585695*
X181892Y528346D02*
X183991D01*
X182941*
Y525197*
X185040D02*
Y528346D01*
X186614*
X187139Y527821*
Y526772*
X186614Y526247*
X185040*
X188189Y525197D02*
X189238D01*
X188714*
Y528346*
X188189Y527821*
X192912Y528346D02*
X191862Y527821D01*
X190813Y526772*
Y525722*
X191337Y525197*
X192387*
X192912Y525722*
Y526247*
X192387Y526772*
X190813*
X237403Y547244D02*
X239502D01*
X238453*
Y544095*
X240552D02*
Y547244D01*
X242126*
X242651Y546719*
Y545669*
X242126Y545145*
X240552*
X243701Y544095D02*
X244750D01*
X244225*
Y547244*
X243701Y546719*
X248423Y547244D02*
X246324D01*
Y545669*
X247374Y546194*
X247899*
X248423Y545669*
Y544620*
X247899Y544095*
X246849*
X246324Y544620*
X184648Y547244D02*
X186747D01*
X185697*
Y544095*
X187796D02*
Y547244D01*
X189370*
X189895Y546719*
Y545669*
X189370Y545145*
X187796*
X190945Y544095D02*
X191994D01*
X191469*
Y547244*
X190945Y546719*
X195143Y544095D02*
Y547244D01*
X193569Y545669*
X195668*
X237403Y527952D02*
X239502D01*
X238453*
Y524804*
X240552D02*
Y527952D01*
X242126*
X242651Y527427*
Y526378*
X242126Y525853*
X240552*
X243701Y524804D02*
X244750D01*
X244225*
Y527952*
X243701Y527427*
X246324D02*
X246849Y527952D01*
X247899*
X248423Y527427*
Y526903*
X247899Y526378*
X247374*
X247899*
X248423Y525853*
Y525328*
X247899Y524804*
X246849*
X246324Y525328*
X259188Y549606D02*
X261287D01*
X260238*
Y546457*
X262336D02*
Y549606D01*
X263911*
X264436Y549081*
Y548032*
X263911Y547507*
X262336*
X265485Y546457D02*
X266535D01*
X266010*
Y549606*
X265485Y549081*
X268109Y546457D02*
X269159D01*
X268634*
Y549606*
X268109Y549081*
X148558Y529133D02*
X150657D01*
X149607*
Y525985*
X151706D02*
Y529133D01*
X153281*
X153805Y528609*
Y527559*
X153281Y527034*
X151706*
X154855Y526510D02*
X155380Y525985D01*
X156429*
X156954Y526510*
Y528609*
X156429Y529133*
X155380*
X154855Y528609*
Y528084*
X155380Y527559*
X156954*
X263124Y540552D02*
Y543700D01*
X264699*
X265223Y543176*
Y542126*
X264699Y541601*
X263124*
X264174D02*
X265223Y540552D01*
X266273Y543700D02*
X268372D01*
Y543176*
X266273Y541077*
Y540552*
X164699Y523229D02*
Y526377D01*
X166273*
X166798Y525853*
Y524803*
X166273Y524278*
X164699*
X165749D02*
X166798Y523229D01*
X169947Y526377D02*
X168897Y525853D01*
X167848Y524803*
Y523754*
X168372Y523229*
X169422*
X169947Y523754*
Y524278*
X169422Y524803*
X167848*
X121260Y485566D02*
Y487665D01*
Y486615*
X124409*
Y488714D02*
X121260D01*
Y490288*
X121785Y490813*
X122835*
X123359Y490288*
Y488714*
X121260Y493962D02*
Y491863D01*
X122835*
X122310Y492912*
Y493437*
X122835Y493962*
X123884*
X124409Y493437*
Y492388*
X123884Y491863*
X308662Y485566D02*
Y487665D01*
Y486615*
X311810*
Y488714D02*
X308662D01*
Y490288*
X309187Y490813*
X310236*
X310761Y490288*
Y488714*
X308662Y491863D02*
Y493962D01*
X309187*
X311286Y491863*
X311810*
X308268Y505644D02*
Y507744D01*
Y506694*
X311417*
Y508793D02*
X308268D01*
Y510367*
X308793Y510892*
X309842*
X310367Y510367*
Y508793*
X308793Y511942D02*
X308268Y512466D01*
Y513516*
X308793Y514041*
X309318*
X309842Y513516*
X310367Y514041*
X310892*
X311417Y513516*
Y512466*
X310892Y511942*
X310367*
X309842Y512466*
X309318Y511942*
X308793*
X309842Y512466D02*
Y513516D01*
X121260Y505644D02*
Y507744D01*
Y506694*
X124409*
Y508793D02*
X121260D01*
Y510367*
X121785Y510892*
X122835*
X123359Y510367*
Y508793*
X121260Y514041D02*
X121785Y512991D01*
X122835Y511942*
X123884*
X124409Y512466*
Y513516*
X123884Y514041*
X123359*
X122835Y513516*
Y511942*
X102231Y480708D02*
X101182D01*
X101706*
Y478084*
X101182Y477560*
X100657*
X100132Y478084*
X103281Y480183D02*
X103805Y480708D01*
X104855*
X105380Y480183*
Y479659*
X104855Y479134*
X105380Y478609*
Y478084*
X104855Y477560*
X103805*
X103281Y478084*
Y478609*
X103805Y479134*
X103281Y479659*
Y480183*
X103805Y479134D02*
X104855D01*
X329790Y481102D02*
X328741D01*
X329265*
Y478478*
X328741Y477953*
X328216*
X327691Y478478*
X330840D02*
X331364Y477953D01*
X332414*
X332939Y478478*
Y480577*
X332414Y481102*
X331364*
X330840Y480577*
Y480052*
X331364Y479528*
X332939*
X139877Y387726D02*
Y384577D01*
X141452*
X141976Y385102*
Y387201*
X141452Y387726*
X139877*
X143026Y384577D02*
X144075D01*
X143551*
Y387726*
X143026Y387201*
X193439Y387726D02*
Y384577D01*
X195014*
X195538Y385102*
Y387201*
X195014Y387726*
X193439*
X196588Y387201D02*
X197113Y387726D01*
X198162*
X198687Y387201*
Y386676*
X198162Y386152*
X197637*
X198162*
X198687Y385627*
Y385102*
X198162Y384577*
X197113*
X196588Y385102*
X273777Y387726D02*
Y384577D01*
X275352*
X275876Y385102*
Y387201*
X275352Y387726*
X273777*
X279025D02*
X277975Y387201D01*
X276926Y386152*
Y385102*
X277450Y384577*
X278500*
X279025Y385102*
Y385627*
X278500Y386152*
X276926*
X235565Y387795D02*
Y384646D01*
X237139*
X237664Y385171*
Y387270*
X237139Y387795*
X235565*
X240288Y384646D02*
Y387795D01*
X238714Y386221*
X240813*
X166639Y387726D02*
Y384577D01*
X168214*
X168739Y385102*
Y387201*
X168214Y387726*
X166639*
X171887Y384577D02*
X169788D01*
X171887Y386676*
Y387201*
X171362Y387726*
X170313*
X169788Y387201*
X247016Y387726D02*
Y384577D01*
X248590*
X249115Y385102*
Y387201*
X248590Y387726*
X247016*
X252263D02*
X250164D01*
Y386152*
X251214Y386676*
X251739*
X252263Y386152*
Y385102*
X251739Y384577*
X250689*
X250164Y385102*
X276641Y361286D02*
X276116Y361810D01*
X275067*
X274542Y361286*
Y359187*
X275067Y358662*
X276116*
X276641Y359187*
X279790Y358662D02*
X277691D01*
X279790Y360761*
Y361286*
X279265Y361810*
X278215*
X277691Y361286*
X282938Y358662D02*
X280839D01*
X282938Y360761*
Y361286*
X282414Y361810*
X281364*
X280839Y361286*
X250788D02*
X250263Y361810D01*
X249214*
X248689Y361286*
Y359187*
X249214Y358662*
X250263*
X250788Y359187*
X253937Y358662D02*
X251837D01*
X253937Y360761*
Y361286*
X253412Y361810*
X252362*
X251837Y361286*
X254986Y358662D02*
X256036D01*
X255511*
Y361810*
X254986Y361286*
X196982D02*
X196457Y361810D01*
X195408*
X194883Y361286*
Y359187*
X195408Y358662*
X196457*
X196982Y359187*
X198032Y358662D02*
X199081D01*
X198556*
Y361810*
X198032Y361286*
X200656Y359187D02*
X201180Y358662D01*
X202230*
X202755Y359187*
Y361286*
X202230Y361810*
X201180*
X200656Y361286*
Y360761*
X201180Y360236*
X202755*
X143439Y361286D02*
X142914Y361810D01*
X141865*
X141340Y361286*
Y359187*
X141865Y358662*
X142914*
X143439Y359187*
X144488Y358662D02*
X145538D01*
X145013*
Y361810*
X144488Y361286*
X147112Y361810D02*
X149211D01*
Y361286*
X147112Y359187*
Y358662*
X170211Y361286D02*
X169686Y361810D01*
X168636*
X168112Y361286*
Y359187*
X168636Y358662*
X169686*
X170211Y359187*
X171260Y358662D02*
X172310D01*
X171785*
Y361810*
X171260Y361286*
X173884D02*
X174409Y361810D01*
X175458*
X175983Y361286*
Y360761*
X175458Y360236*
X175983Y359712*
Y359187*
X175458Y358662*
X174409*
X173884Y359187*
Y359712*
X174409Y360236*
X173884Y360761*
Y361286*
X174409Y360236D02*
X175458D01*
X223098Y361680D02*
X222573Y362204D01*
X221523*
X220999Y361680*
Y359580*
X221523Y359056*
X222573*
X223098Y359580*
X226246Y359056D02*
X224147D01*
X226246Y361155*
Y361680*
X225722Y362204*
X224672*
X224147Y361680*
X227296D02*
X227821Y362204D01*
X228870*
X229395Y361680*
Y359580*
X228870Y359056*
X227821*
X227296Y359580*
Y361680*
X227952Y526904D02*
X224804D01*
Y528478*
X225328Y529003*
X226378*
X226903Y528478*
Y526904*
Y527953D02*
X227952Y529003D01*
X224804Y532151D02*
Y530052D01*
X226378*
X225853Y531102*
Y531627*
X226378Y532151*
X227428*
X227952Y531627*
Y530577*
X227428Y530052*
X285039Y540290D02*
X281890D01*
Y541864*
X282415Y542389*
X283465*
X283989Y541864*
Y540290*
Y541339D02*
X285039Y542389D01*
Y545012D02*
X281890D01*
X283465Y543438*
Y545537*
X249738Y499607D02*
Y502755D01*
X251313*
X251837Y502231*
Y501181*
X251313Y500656*
X249738*
X250788D02*
X251837Y499607D01*
X252887Y502231D02*
X253412Y502755D01*
X254461*
X254986Y502231*
Y501706*
X254461Y501181*
X253937*
X254461*
X254986Y500656*
Y500132*
X254461Y499607*
X253412*
X252887Y500132*
X230053Y511418D02*
Y514566D01*
X231628*
X232152Y514042*
Y512992*
X231628Y512467*
X230053*
X231103D02*
X232152Y511418D01*
X235301D02*
X233202D01*
X235301Y513517*
Y514042*
X234776Y514566*
X233727*
X233202Y514042*
X225328Y535959D02*
X224804Y535434D01*
Y534384*
X225328Y533859*
X227428*
X227952Y534384*
Y535434*
X227428Y535959*
X227952Y537008D02*
Y538058D01*
Y537533*
X224804*
X225328Y537008*
X224804Y541731D02*
X225328Y540682D01*
X226378Y539632*
X227428*
X227952Y540157*
Y541206*
X227428Y541731*
X226903*
X226378Y541206*
Y539632*
X200919Y545014D02*
X200394Y544489D01*
Y543439*
X200919Y542915*
X203018*
X203543Y543439*
Y544489*
X203018Y545014*
X203543Y546063D02*
Y547113D01*
Y546588*
X200394*
X200919Y546063*
X200394Y550786D02*
Y548687D01*
X201969*
X201444Y549737*
Y550261*
X201969Y550786*
X203018*
X203543Y550261*
Y549212*
X203018Y548687*
X251707Y508136D02*
X251182Y508661D01*
X250132*
X249608Y508136*
Y506037*
X250132Y505512*
X251182*
X251707Y506037*
X252756Y505512D02*
X253806D01*
X253281*
Y508661*
X252756Y508136*
X256954Y505512D02*
Y508661D01*
X255380Y507087*
X257479*
X133881Y556458D02*
X131655Y558684D01*
X133139*
Y560168*
X135365Y557942*
X136107Y558684D02*
X136849Y559426D01*
X136478Y559055*
X134252Y561281*
Y560539*
X108924Y470078D02*
X107875D01*
X108399*
Y467454*
X107875Y466930*
X107350*
X106825Y467454*
X109974Y470078D02*
X112073D01*
Y469554*
X109974Y467454*
Y466930*
X323097Y469685D02*
X322048D01*
X322572*
Y467061*
X322048Y466536*
X321523*
X320998Y467061*
X326246Y469685D02*
X325196Y469160D01*
X324147Y468110*
Y467061*
X324672Y466536*
X325721*
X326246Y467061*
Y467586*
X325721Y468110*
X324147*
X205250Y531889D02*
Y529265D01*
X205775Y528741*
X206824*
X207349Y529265*
Y531889*
X210498D02*
X209448Y531364D01*
X208399Y530315*
Y529265*
X208924Y528741*
X209973*
X210498Y529265*
Y529790*
X209973Y530315*
X208399*
X161811Y530841D02*
X164435D01*
X164960Y531365*
Y532415*
X164435Y532940*
X161811*
X162336Y533989D02*
X161811Y534514D01*
Y535564*
X162336Y536088*
X162861*
X163386Y535564*
Y535039*
Y535564*
X163911Y536088*
X164435*
X164960Y535564*
Y534514*
X164435Y533989*
X208400Y512992D02*
Y510368D01*
X208925Y509843*
X209974*
X210499Y510368*
Y512992*
X211548D02*
X213647D01*
Y512467*
X211548Y510368*
Y509843*
X268111Y530841D02*
X270735D01*
X271259Y531365*
Y532415*
X270735Y532940*
X268111*
Y536088D02*
Y533989D01*
X269685*
X269160Y535039*
Y535564*
X269685Y536088*
X270735*
X271259Y535564*
Y534514*
X270735Y533989*
X213912Y541732D02*
Y539108D01*
X214436Y538583*
X215486*
X216011Y539108*
Y541732*
X219159Y538583D02*
X217060D01*
X219159Y540682*
Y541207*
X218635Y541732*
X217585*
X217060Y541207*
X284121Y508267D02*
Y505643D01*
X284646Y505119*
X285696*
X286221Y505643*
Y508267*
X287270Y505119D02*
X288319D01*
X287795*
Y508267*
X287270Y507743*
X143439Y508267D02*
Y505643D01*
X143964Y505119*
X145013*
X145538Y505643*
Y508267*
X148162Y505119D02*
Y508267D01*
X146588Y506693*
X148687*
X187928Y498425D02*
X190027D01*
X188977*
Y495276*
X191076D02*
Y498425D01*
X192651*
X193175Y497900*
Y496850*
X192651Y496326*
X191076*
X195799Y495276D02*
Y498425D01*
X194225Y496850*
X196324*
X236747Y498425D02*
X238846D01*
X237796*
Y495276*
X239895D02*
Y498425D01*
X241470*
X241994Y497900*
Y496850*
X241470Y496326*
X239895*
X243044Y497900D02*
X243569Y498425D01*
X244618*
X245143Y497900*
Y497375*
X244618Y496850*
X244093*
X244618*
X245143Y496326*
Y495801*
X244618Y495276*
X243569*
X243044Y495801*
X254725Y509713D02*
Y511811D01*
Y510762*
X257874*
Y512861D02*
X254725D01*
Y514435*
X255250Y514960*
X256299*
X256824Y514435*
Y512861*
X257874Y516010D02*
Y517059D01*
Y516534*
X254725*
X255250Y516010*
X169030Y500393D02*
X171129D01*
X170080*
Y497245*
X172179D02*
Y500393D01*
X173753*
X174278Y499868*
Y498819*
X173753Y498294*
X172179*
X177427Y497245D02*
X175327D01*
X177427Y499344*
Y499868*
X176902Y500393*
X175852*
X175327Y499868*
X190157Y588976D02*
X189108D01*
X189633*
Y586352*
X189108Y585827*
X188583*
X188058Y586352*
X191207Y585827D02*
X192256D01*
X191732*
Y588976*
X191207Y588451*
X330184Y399999D02*
X329134D01*
X329659*
Y397376*
X329134Y396851*
X328610*
X328085Y397376*
X331233Y399475D02*
X331758Y399999D01*
X332808*
X333332Y399475*
Y398950*
X332808Y398425*
X332283*
X332808*
X333332Y397900*
Y397376*
X332808Y396851*
X331758*
X331233Y397376*
X101837Y468503D02*
X100788D01*
X101313*
Y465880*
X100788Y465355*
X100263*
X99738Y465880*
X104461Y465355D02*
Y468503D01*
X102887Y466929*
X104986*
X101837Y399606D02*
X100788D01*
X101313*
Y396982*
X100788Y396457*
X100263*
X99738Y396982*
X104986Y399606D02*
X102887D01*
Y398031*
X103937Y398556*
X104461*
X104986Y398031*
Y396982*
X104461Y396457*
X103412*
X102887Y396982*
X330184Y468110D02*
X329134D01*
X329659*
Y465486*
X329134Y464961*
X328610*
X328085Y465486*
X333332Y464961D02*
X331233D01*
X333332Y467060*
Y467585*
X332808Y468110*
X331758*
X331233Y467585*
X270735Y521522D02*
X270210Y522047D01*
X269161*
X268636Y521522*
Y519423*
X269161Y518898*
X270210*
X270735Y519423*
X271785D02*
X272309Y518898D01*
X273359*
X273884Y519423*
Y521522*
X273359Y522047*
X272309*
X271785Y521522*
Y520997*
X272309Y520472*
X273884*
X162730Y508924D02*
X162205Y508399D01*
Y507350*
X162730Y506825*
X164829*
X165354Y507350*
Y508399*
X164829Y508924*
X165354Y509974D02*
Y511023D01*
Y510499*
X162205*
X162730Y509974*
X165354Y512598D02*
Y513647D01*
Y513122*
X162205*
X162730Y512598*
X268242Y508924D02*
X267717Y508399D01*
Y507350*
X268242Y506825*
X270341*
X270866Y507350*
Y508399*
X270341Y508924*
X270866Y511548D02*
X267717D01*
X269291Y509974*
Y512073*
X286483Y488057D02*
X285958Y488582D01*
X284909*
X284384Y488057*
Y485958*
X284909Y485434*
X285958*
X286483Y485958*
X289632Y485434D02*
X287533D01*
X289632Y487533*
Y488057*
X289107Y488582*
X288057*
X287533Y488057*
X154593Y513648D02*
X154069Y514173D01*
X153019*
X152494Y513648*
Y511549*
X153019Y511024*
X154069*
X154593Y511549*
X155643Y513648D02*
X156168Y514173D01*
X157217*
X157742Y513648*
Y513123*
X157217Y512598*
X157742Y512074*
Y511549*
X157217Y511024*
X156168*
X155643Y511549*
Y512074*
X156168Y512598*
X155643Y513123*
Y513648*
X156168Y512598D02*
X157217D01*
X178872Y506561D02*
X178347Y507086D01*
X177298*
X176773Y506561*
Y504462*
X177298Y503937*
X178347*
X178872Y504462*
X179921Y503937D02*
X180971D01*
X180446*
Y507086*
X179921Y506561*
X182545D02*
X183070Y507086D01*
X184120*
X184644Y506561*
Y506037*
X184120Y505512*
X183595*
X184120*
X184644Y504987*
Y504462*
X184120Y503937*
X183070*
X182545Y504462*
X214699Y536876D02*
X214174Y537401D01*
X213124*
X212600Y536876*
Y534777*
X213124Y534253*
X214174*
X214699Y534777*
X215748Y534253D02*
X216798D01*
X216273*
Y537401*
X215748Y536876*
X220471Y534253D02*
X218372D01*
X220471Y536351*
Y536876*
X219946Y537401*
X218897*
X218372Y536876*
X173097Y547506D02*
X172573Y548031D01*
X171523*
X170998Y547506*
Y545407*
X171523Y544882*
X172573*
X173097Y545407*
X176246Y548031D02*
X175196Y547506D01*
X174147Y546457*
Y545407*
X174672Y544882*
X175721*
X176246Y545407*
Y545932*
X175721Y546457*
X174147*
X277953Y513648D02*
X277428Y514173D01*
X276378*
X275854Y513648*
Y511549*
X276378Y511024*
X277428*
X277953Y511549*
X279002Y511024D02*
X280052D01*
X279527*
Y514173*
X279002Y513648*
X228609Y554199D02*
X228084Y554724D01*
X227035*
X226510Y554199*
Y552100*
X227035Y551575*
X228084*
X228609Y552100*
X229659Y554199D02*
X230183Y554724D01*
X231233*
X231758Y554199*
Y553674*
X231233Y553150*
X230708*
X231233*
X231758Y552625*
Y552100*
X231233Y551575*
X230183*
X229659Y552100*
X145538Y488057D02*
X145013Y488582D01*
X143964*
X143439Y488057*
Y485958*
X143964Y485434*
X145013*
X145538Y485958*
X146588Y488582D02*
X148687D01*
Y488057*
X146588Y485958*
Y485434*
X261549Y521128D02*
X261024Y521653D01*
X259975*
X259450Y521128*
Y519029*
X259975Y518504*
X261024*
X261549Y519029*
X262599Y518504D02*
X263648D01*
X263123*
Y521653*
X262599Y521128*
X265223D02*
X265747Y521653D01*
X266797*
X267322Y521128*
Y519029*
X266797Y518504*
X265747*
X265223Y519029*
Y521128*
X161286Y547506D02*
X160761Y548031D01*
X159712*
X159187Y547506*
Y545407*
X159712Y544882*
X160761*
X161286Y545407*
X164435Y548031D02*
X162336D01*
Y546457*
X163385Y546981*
X163910*
X164435Y546457*
Y545407*
X163910Y544882*
X162861*
X162336Y545407*
X545672Y492520D02*
X547771D01*
X546722*
Y489371*
X548821D02*
Y492520D01*
X550395*
X550920Y491995*
Y490945*
X550395Y490421*
X548821*
X551969Y489371D02*
X553019D01*
X552494*
Y492520*
X551969Y491995*
X556167Y489371D02*
Y492520D01*
X554593Y490945*
X556692*
X429923Y466535D02*
X432022D01*
X430973*
Y463386*
X433072D02*
Y466535D01*
X434646*
X435171Y466010*
Y464961*
X434646Y464436*
X433072*
X436220Y463386D02*
X437270D01*
X436745*
Y466535*
X436220Y466010*
X438844D02*
X439369Y466535D01*
X440418*
X440943Y466010*
Y465485*
X440418Y464961*
X439894*
X440418*
X440943Y464436*
Y463911*
X440418Y463386*
X439369*
X438844Y463911*
X564961Y505514D02*
Y507613D01*
Y506563*
X568110*
Y508662D02*
X564961D01*
Y510237*
X565486Y510761*
X566535*
X567060Y510237*
Y508662*
X568110Y511811D02*
Y512860D01*
Y512336*
X564961*
X565486Y511811*
X568110Y516534D02*
Y514435D01*
X566011Y516534*
X565486*
X564961Y516009*
Y514959*
X565486Y514435*
X565355Y483991D02*
Y486090D01*
Y485041*
X568503*
Y487140D02*
X565355D01*
Y488714*
X565880Y489239*
X566929*
X567454Y488714*
Y487140*
X568503Y490288D02*
Y491338D01*
Y490813*
X565355*
X565880Y490288*
X568503Y492912D02*
Y493962D01*
Y493437*
X565355*
X565880Y492912*
X366931Y549212D02*
X369030D01*
X367980*
Y546064*
X370079D02*
Y549212D01*
X371654*
X372179Y548687*
Y547638*
X371654Y547113*
X370079*
X373228Y546064D02*
X374278D01*
X373753*
Y549212*
X373228Y548687*
X375852D02*
X376377Y549212D01*
X377426*
X377951Y548687*
Y546588*
X377426Y546064*
X376377*
X375852Y546588*
Y548687*
X369424Y542913D02*
X371523D01*
X370473*
Y539764*
X372572D02*
Y542913D01*
X374147*
X374672Y542388*
Y541339*
X374147Y540814*
X372572*
X375721Y540289D02*
X376246Y539764D01*
X377295*
X377820Y540289*
Y542388*
X377295Y542913*
X376246*
X375721Y542388*
Y541863*
X376246Y541339*
X377820*
X452363Y496983D02*
Y499082D01*
Y498033*
X455511*
Y500132D02*
X452363D01*
Y501706*
X452887Y502231*
X453937*
X454462Y501706*
Y500132*
X452887Y503280D02*
X452363Y503805D01*
Y504854*
X452887Y505379*
X453412*
X453937Y504854*
X454462Y505379*
X454986*
X455511Y504854*
Y503805*
X454986Y503280*
X454462*
X453937Y503805*
X453412Y503280*
X452887*
X453937Y503805D02*
Y504854D01*
X413780Y485959D02*
Y488058D01*
Y487009*
X416929*
Y489108D02*
X413780D01*
Y490682*
X414305Y491207*
X415354*
X415879Y490682*
Y489108*
X413780Y492257D02*
Y494356D01*
X414305*
X416404Y492257*
X416929*
X424916Y543452D02*
X426401Y541967D01*
X425658Y542710*
X423432Y540483*
X424916Y538999D02*
X427143Y541225D01*
X428256Y540112*
Y539370*
X427514Y538628*
X426772*
X425658Y539741*
X430853Y537515D02*
X429740Y537886D01*
X428256*
X427514Y537144*
Y536402*
X428256Y535659*
X428998*
X429369Y536030*
Y536773*
X428256Y537886*
X454463Y570472D02*
X456562D01*
X455513*
Y567323*
X457612D02*
Y570472D01*
X459186*
X459711Y569947*
Y568898*
X459186Y568373*
X457612*
X462859Y570472D02*
X460760D01*
Y568898*
X461810Y569422*
X462335*
X462859Y568898*
Y567848*
X462335Y567323*
X461285*
X460760Y567848*
X434778Y555118D02*
X436877D01*
X435828*
Y551969*
X437927D02*
Y555118D01*
X439501*
X440026Y554593*
Y553543*
X439501Y553019*
X437927*
X442650Y551969D02*
Y555118D01*
X441075Y553543*
X443175*
X585696Y480708D02*
X584646D01*
X585171*
Y478084*
X584646Y477560*
X584121*
X583597Y478084*
X586745D02*
X587270Y477560D01*
X588319*
X588844Y478084*
Y480183*
X588319Y480708*
X587270*
X586745Y480183*
Y479659*
X587270Y479134*
X588844*
X358137Y480708D02*
X357087D01*
X357612*
Y478084*
X357087Y477560*
X356562*
X356038Y478084*
X359186Y480183D02*
X359711Y480708D01*
X360760*
X361285Y480183*
Y479659*
X360760Y479134*
X361285Y478609*
Y478084*
X360760Y477560*
X359711*
X359186Y478084*
Y478609*
X359711Y479134*
X359186Y479659*
Y480183*
X359711Y479134D02*
X360760D01*
X521815Y392490D02*
Y389342D01*
X523389*
X523914Y389866*
Y391966*
X523389Y392490*
X521815*
X527063D02*
X526013Y391966D01*
X524964Y390916*
Y389866*
X525488Y389342*
X526538*
X527063Y389866*
Y390391*
X526538Y390916*
X524964*
X482372Y392490D02*
Y389342D01*
X483947*
X484472Y389866*
Y391966*
X483947Y392490*
X482372*
X487620D02*
X485521D01*
Y390916*
X486571Y391441*
X487095*
X487620Y390916*
Y389866*
X487095Y389342*
X486046*
X485521Y389866*
X462709Y439734D02*
Y436586D01*
X464283*
X464808Y437111*
Y439210*
X464283Y439734*
X462709*
X467431Y436586D02*
Y439734D01*
X465857Y438160*
X467956*
X443083Y392482D02*
Y389334D01*
X444657*
X445182Y389859*
Y391958*
X444657Y392482*
X443083*
X446231Y391958D02*
X446756Y392482D01*
X447806*
X448330Y391958*
Y391433*
X447806Y390908*
X447281*
X447806*
X448330Y390383*
Y389859*
X447806Y389334*
X446756*
X446231Y389859*
X403640Y392482D02*
Y389334D01*
X405215*
X405739Y389859*
Y391958*
X405215Y392482*
X403640*
X408888Y389334D02*
X406789D01*
X408888Y391433*
Y391958*
X408363Y392482*
X407314*
X406789Y391958*
X396557Y571986D02*
Y568838D01*
X398131*
X398656Y569362*
Y571461*
X398131Y571986*
X396557*
X399706Y568838D02*
X400755D01*
X400231*
Y571986*
X399706Y571461*
X524935Y365223D02*
X524410Y365747D01*
X523361*
X522836Y365223*
Y363124*
X523361Y362599*
X524410*
X524935Y363124*
X525984Y362599D02*
X527034D01*
X526509*
Y365747*
X525984Y365223*
X528608D02*
X529133Y365747D01*
X530183*
X530707Y365223*
Y364698*
X530183Y364173*
X529658*
X530183*
X530707Y363649*
Y363124*
X530183Y362599*
X529133*
X528608Y363124*
X485565Y365223D02*
X485040Y365747D01*
X483991*
X483466Y365223*
Y363124*
X483991Y362599*
X485040*
X485565Y363124*
X486614Y362599D02*
X487664D01*
X487139*
Y365747*
X486614Y365223*
X491337Y362599D02*
X489238D01*
X491337Y364698*
Y365223*
X490813Y365747*
X489763*
X489238Y365223*
X466798Y412467D02*
X466274Y412992D01*
X465224*
X464699Y412467*
Y410368*
X465224Y409843*
X466274*
X466798Y410368*
X467848Y409843D02*
X468897D01*
X468373*
Y412992*
X467848Y412467*
X470472Y409843D02*
X471521D01*
X470997*
Y412992*
X470472Y412467*
X446195Y365223D02*
X445670Y365747D01*
X444621*
X444096Y365223*
Y363124*
X444621Y362599*
X445670*
X446195Y363124*
X447244Y362599D02*
X448294D01*
X447769*
Y365747*
X447244Y365223*
X449868D02*
X450393Y365747D01*
X451442*
X451967Y365223*
Y363124*
X451442Y362599*
X450393*
X449868Y363124*
Y365223*
X409318D02*
X408793Y365747D01*
X407743*
X407219Y365223*
Y363124*
X407743Y362599*
X408793*
X409318Y363124*
X410367D02*
X410892Y362599D01*
X411942*
X412466Y363124*
Y365223*
X411942Y365747*
X410892*
X410367Y365223*
Y364698*
X410892Y364173*
X412466*
X402207Y544727D02*
X401683Y545251D01*
X400633*
X400108Y544727*
Y542627*
X400633Y542103*
X401683*
X402207Y542627*
X403257Y544727D02*
X403782Y545251D01*
X404831*
X405356Y544727*
Y544202*
X404831Y543677*
X405356Y543152*
Y542627*
X404831Y542103*
X403782*
X403257Y542627*
Y543152*
X403782Y543677*
X403257Y544202*
Y544727*
X403782Y543677D02*
X404831D01*
X432809Y470866D02*
Y468242D01*
X433334Y467717*
X434383*
X434908Y468242*
Y470866*
X437532Y467717D02*
Y470866D01*
X435958Y469291*
X438057*
X469817Y451968D02*
Y449344D01*
X470342Y448819*
X471391*
X471916Y449344*
Y451968*
X472966Y451443D02*
X473490Y451968D01*
X474540*
X475065Y451443*
Y450918*
X474540Y450394*
X474015*
X474540*
X475065Y449869*
Y449344*
X474540Y448819*
X473490*
X472966Y449344*
X428085Y507873D02*
Y505250D01*
X428610Y504725*
X429659*
X430184Y505250*
Y507873*
X433332Y504725D02*
X431233D01*
X433332Y506824*
Y507349*
X432808Y507873*
X431758*
X431233Y507349*
X388452Y500787D02*
Y498163D01*
X388977Y497638*
X390026*
X390551Y498163*
Y500787*
X391601Y497638D02*
X392650D01*
X392126*
Y500787*
X391601Y500262*
X476510Y446456D02*
X478610D01*
X477560*
Y443308*
X479659D02*
Y446456D01*
X481233*
X481758Y445931*
Y444882*
X481233Y444357*
X479659*
X482808Y445931D02*
X483332Y446456D01*
X484382*
X484907Y445931*
Y445407*
X484382Y444882*
X483857*
X484382*
X484907Y444357*
Y443832*
X484382Y443308*
X483332*
X482808Y443832*
X460369Y446456D02*
X462468D01*
X461418*
Y443308*
X463517D02*
Y446456D01*
X465092*
X465616Y445931*
Y444882*
X465092Y444357*
X463517*
X468765Y443308D02*
X466666D01*
X468765Y445407*
Y445931*
X468240Y446456*
X467191*
X466666Y445931*
X439371Y564174D02*
Y567322D01*
X440946*
X441470Y566798*
Y565748*
X440946Y565223*
X439371*
X440421D02*
X441470Y564174D01*
X442520D02*
X443569D01*
X443045*
Y567322*
X442520Y566798*
X445144D02*
X445669Y567322D01*
X446718*
X447243Y566798*
Y564699*
X446718Y564174*
X445669*
X445144Y564699*
Y566798*
X491077Y459449D02*
Y462598D01*
X492651*
X493176Y462073*
Y461024*
X492651Y460499*
X491077*
X492127D02*
X493176Y459449D01*
X494226Y459974D02*
X494750Y459449D01*
X495800*
X496325Y459974*
Y462073*
X495800Y462598*
X494750*
X494226Y462073*
Y461548*
X494750Y461024*
X496325*
X450526Y511811D02*
Y514960D01*
X452100*
X452625Y514435*
Y513386*
X452100Y512861*
X450526*
X451575D02*
X452625Y511811D01*
X453674Y514435D02*
X454199Y514960D01*
X455249*
X455773Y514435*
Y513911*
X455249Y513386*
X455773Y512861*
Y512336*
X455249Y511811*
X454199*
X453674Y512336*
Y512861*
X454199Y513386*
X453674Y513911*
Y514435*
X454199Y513386D02*
X455249D01*
X425984Y498557D02*
X422835D01*
Y500132*
X423360Y500656*
X424409*
X424934Y500132*
Y498557*
Y499607D02*
X425984Y500656D01*
X422835Y501706D02*
Y503805D01*
X423360*
X425459Y501706*
X425984*
X430314Y498557D02*
X427166D01*
Y500132*
X427691Y500656*
X428740*
X429265Y500132*
Y498557*
Y499607D02*
X430314Y500656D01*
X427166Y503805D02*
X427691Y502755D01*
X428740Y501706*
X429790*
X430314Y502231*
Y503280*
X429790Y503805*
X429265*
X428740Y503280*
Y501706*
X390203Y514748D02*
X387976Y516974D01*
X389090Y518088*
X389832*
X390574Y517346*
Y516603*
X389461Y515490*
X390203Y516232D02*
X391687D01*
Y520685D02*
X390203Y519201D01*
X391316Y518088*
X391687Y519201*
X392058Y519572*
X392800*
X393542Y518830*
Y518088*
X392800Y517346*
X392058*
X414305Y513780D02*
Y516929D01*
X415880*
X416404Y516404*
Y515354*
X415880Y514830*
X414305*
X415355D02*
X416404Y513780D01*
X419028D02*
Y516929D01*
X417454Y515354*
X419553*
X414305Y498032D02*
Y501181D01*
X415880*
X416404Y500656*
Y499606*
X415880Y499082*
X414305*
X415355D02*
X416404Y498032D01*
X417454Y500656D02*
X417979Y501181D01*
X419028*
X419553Y500656*
Y500131*
X419028Y499606*
X418503*
X419028*
X419553Y499082*
Y498557*
X419028Y498032*
X417979*
X417454Y498557*
X450526Y506693D02*
Y509842D01*
X452100*
X452625Y509317*
Y508268*
X452100Y507743*
X450526*
X451575D02*
X452625Y506693D01*
X455773D02*
X453674D01*
X455773Y508792*
Y509317*
X455249Y509842*
X454199*
X453674Y509317*
X433728Y499213D02*
Y502362D01*
X435302*
X435827Y501837*
Y500787*
X435302Y500263*
X433728*
X434777D02*
X435827Y499213D01*
X436876D02*
X437926D01*
X437401*
Y502362*
X436876Y501837*
X408137Y588976D02*
X407087D01*
X407612*
Y586352*
X407087Y585827*
X406562*
X406038Y586352*
X409186Y588976D02*
X411285D01*
Y588451*
X409186Y586352*
Y585827*
X586089Y399999D02*
X585040D01*
X585565*
Y397376*
X585040Y396851*
X584515*
X583990Y397376*
X589238Y399999D02*
X588189Y399475D01*
X587139Y398425*
Y397376*
X587664Y396851*
X588713*
X589238Y397376*
Y397901*
X588713Y398425*
X587139*
X357743Y399999D02*
X356693D01*
X357218*
Y397376*
X356693Y396851*
X356169*
X355644Y397376*
X360892Y399999D02*
X358792D01*
Y398425*
X359842Y398950*
X360367*
X360892Y398425*
Y397376*
X360367Y396851*
X359317*
X358792Y397376*
X586089Y468503D02*
X585040D01*
X585565*
Y465880*
X585040Y465355*
X584515*
X583990Y465880*
X588713Y465355D02*
Y468503D01*
X587139Y466929*
X589238*
X358137Y468503D02*
X357087D01*
X357612*
Y465880*
X357087Y465355*
X356562*
X356038Y465880*
X359186Y467979D02*
X359711Y468503D01*
X360760*
X361285Y467979*
Y467454*
X360760Y466929*
X360236*
X360760*
X361285Y466404*
Y465880*
X360760Y465355*
X359711*
X359186Y465880*
X579003Y469685D02*
X577953D01*
X578478*
Y467061*
X577953Y466536*
X577428*
X576904Y467061*
X582151Y466536D02*
X580052D01*
X582151Y468635*
Y469160*
X581627Y469685*
X580577*
X580052Y469160*
X365354Y470078D02*
X364305D01*
X364830*
Y467454*
X364305Y466930*
X363780*
X363255Y467454*
X366404Y466930D02*
X367453D01*
X366929*
Y470078*
X366404Y469554*
X455381Y465617D02*
X454856Y466141D01*
X453806*
X453282Y465617*
Y463517*
X453806Y462993*
X454856*
X455381Y463517*
X456430Y466141D02*
X458529D01*
Y465617*
X456430Y463517*
Y462993*
X437270Y495144D02*
X436746Y495669D01*
X435696*
X435171Y495144*
Y493045*
X435696Y492520*
X436746*
X437270Y493045*
X440419Y495669D02*
X439370Y495144D01*
X438320Y494095*
Y493045*
X438845Y492520*
X439894*
X440419Y493045*
Y493570*
X439894Y494095*
X438320*
X450263Y459317D02*
X449738Y459842D01*
X448688*
X448164Y459317*
Y457218*
X448688Y456693*
X449738*
X450263Y457218*
X453411Y459842D02*
X451312D01*
Y458268*
X452362Y458792*
X452886*
X453411Y458268*
Y457218*
X452886Y456693*
X451837*
X451312Y457218*
X438845Y522703D02*
X438320Y523228D01*
X437271*
X436746Y522703*
Y520604*
X437271Y520079*
X438320*
X438845Y520604*
X441469Y520079D02*
Y523228D01*
X439895Y521654*
X441994*
X407218Y494357D02*
X406693Y493832D01*
Y492783*
X407218Y492258*
X409317*
X409842Y492783*
Y493832*
X409317Y494357*
X407218Y495407D02*
X406693Y495931D01*
Y496981*
X407218Y497506*
X407743*
X408268Y496981*
Y496456*
Y496981*
X408792Y497506*
X409317*
X409842Y496981*
Y495931*
X409317Y495407*
X389633Y504593D02*
X389108Y505118D01*
X388058*
X387534Y504593*
Y502494*
X388058Y501969*
X389108*
X389633Y502494*
X392781Y501969D02*
X390682D01*
X392781Y504068*
Y504593*
X392256Y505118*
X391207*
X390682Y504593*
X402756Y479790D02*
X402231Y480314D01*
X401182*
X400657Y479790*
Y477691*
X401182Y477166*
X402231*
X402756Y477691*
X403805Y477166D02*
X404855D01*
X404330*
Y480314*
X403805Y479790*
X982768Y209675D02*
X980541Y211902D01*
X981654Y213015*
X982397*
X983139Y212273*
Y211530*
X982026Y210417*
X982768Y211159D02*
X984252D01*
Y215612D02*
X982768Y214128D01*
X983881Y213015*
X984252Y214128*
X984623Y214499*
X985365*
X986107Y213757*
Y213015*
X985365Y212273*
X984623*
X987220Y214128D02*
X987963Y214870D01*
X987591Y214499*
X985365Y216725*
Y215983*
X976885Y198674D02*
X974658Y200901D01*
X975772Y202014*
X976514*
X977256Y201272*
Y200530*
X976143Y199416*
X976885Y200158D02*
X978369D01*
Y204611D02*
X976885Y203127D01*
X977998Y202014*
X978369Y203127*
X978740Y203498*
X979482*
X980224Y202756*
Y202014*
X979482Y201272*
X978740*
X979482Y204982D02*
Y205724D01*
X980224Y206467*
X980966*
X982451Y204982*
Y204240*
X981709Y203498*
X980966*
X979482Y204982*
X994601Y197099D02*
X992375Y199326D01*
X993488Y200439*
X994230*
X994972Y199697*
Y198955*
X993859Y197842*
X994601Y198584D02*
X996086D01*
X997941Y200439D02*
X995715Y202665D01*
X995714Y200439*
X997199Y201923*
X998683D02*
X999425D01*
X1000167Y202665*
Y203408*
X998683Y204892*
X997941*
X997199Y204150*
Y203408*
X997570Y203036*
X998312*
X999425Y204150*
X989089Y186469D02*
X986863Y188696D01*
X987976Y189809*
X988719*
X989461Y189067*
Y188325*
X988347Y187212*
X989089Y187954D02*
X990574D01*
X992429Y189809D02*
X990203Y192035D01*
Y189809*
X991687Y191293*
Y192778D02*
Y193520D01*
X992429Y194262*
X993171*
X993542Y193891*
Y193149*
X994284*
X994656Y192778*
Y192035*
X993913Y191293*
X993171*
X992800Y191664*
Y192406*
X992058*
X991687Y192778*
X992800Y192406D02*
X993542Y193149D01*
X1024672Y180314D02*
X1023623D01*
X1024148*
Y177691*
X1023623Y177166*
X1023098*
X1022573Y177691*
X1025722Y177166D02*
X1026771D01*
X1026247*
Y180314*
X1025722Y179790*
X1028346Y177166D02*
X1029395D01*
X1028870*
Y180314*
X1028346Y179790*
X1035959Y135039D02*
X1034909D01*
X1035434*
Y132415*
X1034909Y131890*
X1034384*
X1033860Y132415*
X1037008Y131890D02*
X1038058D01*
X1037533*
Y135039*
X1037008Y134514*
X1039632D02*
X1040157Y135039D01*
X1041206*
X1041731Y134514*
Y132415*
X1041206Y131890*
X1040157*
X1039632Y132415*
Y134514*
X962467Y122047D02*
X961418D01*
X961943*
Y119423*
X961418Y118898*
X960893*
X960368Y119423*
X963517D02*
X964042Y118898D01*
X965091*
X965616Y119423*
Y121522*
X965091Y122047*
X964042*
X963517Y121522*
Y120997*
X964042Y120472*
X965616*
X831038Y236810D02*
Y233662D01*
X832612*
X833137Y234187*
Y236286*
X832612Y236810*
X831038*
X834186Y234187D02*
X834711Y233662D01*
X835760*
X836285Y234187*
Y236286*
X835760Y236810*
X834711*
X834186Y236286*
Y235761*
X834711Y235236*
X836285*
X995538Y259908D02*
X995014Y260433D01*
X993964*
X993439Y259908*
Y259383*
X993964Y258858*
X995014*
X995538Y258333*
Y257809*
X995014Y257284*
X993964*
X993439Y257809*
X998687Y257284D02*
X996588D01*
X998687Y259383*
Y259908*
X998162Y260433*
X997112*
X996588Y259908*
X996063Y252034D02*
X995538Y252558D01*
X994489*
X993964Y252034*
Y251509*
X994489Y250984*
X995538*
X996063Y250460*
Y249935*
X995538Y249410*
X994489*
X993964Y249935*
X997112Y249410D02*
X998162D01*
X997637*
Y252558*
X997112Y252034*
X912206Y135040D02*
Y138189D01*
X913780*
X914305Y137664*
Y136614*
X913780Y136089*
X912206*
X913256D02*
X914305Y135040D01*
X915355D02*
X916404D01*
X915879*
Y138189*
X915355Y137664*
X917978Y138189D02*
X920078D01*
Y137664*
X917978Y135565*
Y135040*
X924015Y311812D02*
X920867D01*
Y313387*
X921391Y313911*
X922441*
X922966Y313387*
Y311812*
Y312862D02*
X924015Y313911D01*
Y314961D02*
Y316010D01*
Y315486*
X920867*
X921391Y314961*
X920867Y319684D02*
X921391Y318634D01*
X922441Y317585*
X923490*
X924015Y318109*
Y319159*
X923490Y319684*
X922966*
X922441Y319159*
Y317585*
X971261Y242520D02*
Y245669D01*
X972835*
X973360Y245144*
Y244094*
X972835Y243570*
X971261*
X972311D02*
X973360Y242520D01*
X974410D02*
X975459D01*
X974934*
Y245669*
X974410Y245144*
X978608Y242520D02*
Y245669D01*
X977034Y244094*
X979133*
X859055Y137796D02*
X855906D01*
Y139371*
X856431Y139896*
X857480*
X858005Y139371*
Y137796*
Y138846D02*
X859055Y139896D01*
Y140945D02*
Y141995D01*
Y141470*
X855906*
X856431Y140945*
Y143569D02*
X855906Y144094D01*
Y145143*
X856431Y145668*
X856956*
X857480Y145143*
X858005Y145668*
X858530*
X859055Y145143*
Y144094*
X858530Y143569*
X858005*
X857480Y144094*
X856956Y143569*
X856431*
X857480Y144094D02*
Y145143D01*
X970078Y114962D02*
X966930D01*
Y116536*
X967454Y117061*
X968504*
X969029Y116536*
Y114962*
Y116011D02*
X970078Y117061D01*
Y118111D02*
Y119160D01*
Y118635*
X966930*
X967454Y118111*
X969553Y120734D02*
X970078Y121259D01*
Y122309*
X969553Y122833*
X967454*
X966930Y122309*
Y121259*
X967454Y120734*
X967979*
X968504Y121259*
Y122833*
X929133Y311812D02*
X925985D01*
Y313387*
X926509Y313911*
X927559*
X928084Y313387*
Y311812*
Y312862D02*
X929133Y313911D01*
Y314961D02*
Y316010D01*
Y315486*
X925985*
X926509Y314961*
X925985Y319684D02*
Y317585D01*
X927559*
X927034Y318634*
Y319159*
X927559Y319684*
X928609*
X929133Y319159*
Y318109*
X928609Y317585*
X878216Y194685D02*
Y197834D01*
X879791*
X880315Y197309*
Y196260*
X879791Y195735*
X878216*
X879266D02*
X880315Y194685D01*
X883464D02*
X881365D01*
X883464Y196785*
Y197309*
X882939Y197834*
X881890*
X881365Y197309*
X884514Y194685D02*
X885563D01*
X885038*
Y197834*
X884514Y197309*
X879527Y134385D02*
X876378D01*
Y135959*
X876903Y136484*
X877953*
X878477Y135959*
Y134385*
Y135434D02*
X879527Y136484D01*
Y139632D02*
Y137533D01*
X877428Y139632*
X876903*
X876378Y139107*
Y138058*
X876903Y137533*
Y140682D02*
X876378Y141207D01*
Y142256*
X876903Y142781*
X879002*
X879527Y142256*
Y141207*
X879002Y140682*
X876903*
X839371Y129922D02*
X842519D01*
Y131497*
X841994Y132022*
X839895*
X839371Y131497*
Y129922*
X842519Y133071D02*
Y134121D01*
Y133596*
X839371*
X839895Y133071*
X839371Y137794D02*
Y135695D01*
X840945*
X840420Y136744*
Y137269*
X840945Y137794*
X841994*
X842519Y137269*
Y136220*
X841994Y135695*
X880709Y113387D02*
X883858D01*
Y114961*
X883333Y115486*
X881234*
X880709Y114961*
Y113387*
X883858Y116536D02*
Y117585D01*
Y117060*
X880709*
X881234Y116536*
X880709Y119159D02*
Y121259D01*
X881234*
X883333Y119159*
X883858*
X915749Y121653D02*
Y118504D01*
X917324*
X917848Y119029*
Y121128*
X917324Y121653*
X915749*
X918898Y118504D02*
X919947D01*
X919423*
Y121653*
X918898Y121128*
X923096Y118504D02*
Y121653D01*
X921522Y120079*
X923621*
X999082Y122440D02*
X998032D01*
X998557*
Y119817*
X998032Y119292*
X997507*
X996982Y119817*
X1000131Y122440D02*
X1002230D01*
Y121916*
X1000131Y119817*
Y119292*
X873885Y122440D02*
X872835D01*
X873360*
Y119817*
X872835Y119292*
X872310*
X871786Y119817*
X877033Y122440D02*
X875984Y121916D01*
X874934Y120866*
Y119817*
X875459Y119292*
X876509*
X877033Y119817*
Y120341*
X876509Y120866*
X874934*
X898819Y314175D02*
X901968D01*
Y315749*
X901443Y316273*
X899344*
X898819Y315749*
Y314175*
X901968Y317323D02*
Y318373D01*
Y317848*
X898819*
X899344Y317323*
Y319947D02*
X898819Y320472D01*
Y321521*
X899344Y322046*
X899869*
X900394Y321521*
Y320996*
Y321521*
X900918Y322046*
X901443*
X901968Y321521*
Y320472*
X901443Y319947*
X962600Y138189D02*
Y135040D01*
X964174*
X964699Y135565*
Y137664*
X964174Y138189*
X962600*
X965748Y135040D02*
X966798D01*
X966273*
Y138189*
X965748Y137664*
X970471Y138189D02*
X969422Y137664D01*
X968372Y136614*
Y135565*
X968897Y135040*
X969946*
X970471Y135565*
Y136089*
X969946Y136614*
X968372*
X948426Y314175D02*
X951574D01*
Y315749*
X951050Y316273*
X948950*
X948426Y315749*
Y314175*
X951574Y317323D02*
Y318373D01*
Y317848*
X948426*
X948950Y317323*
X951574Y322046D02*
Y319947D01*
X949475Y322046*
X948950*
X948426Y321521*
Y320472*
X948950Y319947*
X830971Y200787D02*
X829922D01*
X830447*
Y198163*
X829922Y197638*
X829397*
X828872Y198163*
X832021Y200262D02*
X832546Y200787D01*
X833595*
X834120Y200262*
Y199737*
X833595Y199213*
X833070*
X833595*
X834120Y198688*
Y198163*
X833595Y197638*
X832546*
X832021Y198163*
X810893Y140551D02*
X809843D01*
X810368*
Y137927*
X809843Y137402*
X809318*
X808794Y137927*
X813516Y137402D02*
Y140551D01*
X811942Y138976*
X814041*
X910892Y122440D02*
X909843D01*
X910368*
Y119817*
X909843Y119292*
X909318*
X908794Y119817*
X914041Y122440D02*
X911942D01*
Y120866*
X912992Y121391*
X913516*
X914041Y120866*
Y119817*
X913516Y119292*
X912467*
X911942Y119817*
X810893Y254724D02*
X809843D01*
X810368*
Y252100*
X809843Y251575*
X809318*
X808794Y252100*
X811942Y254199D02*
X812467Y254724D01*
X813516*
X814041Y254199*
Y253674*
X813516Y253150*
X814041Y252625*
Y252100*
X813516Y251575*
X812467*
X811942Y252100*
Y252625*
X812467Y253150*
X811942Y253674*
Y254199*
X812467Y253150D02*
X813516D01*
X890683Y181496D02*
Y178872D01*
X891208Y178347*
X892258*
X892782Y178872*
Y181496*
X895931D02*
X894881Y180971D01*
X893832Y179921*
Y178872*
X894357Y178347*
X895406*
X895931Y178872*
Y179396*
X895406Y179921*
X893832*
X832219Y268307D02*
Y265158D01*
X833793*
X834318Y265683*
Y267782*
X833793Y268307*
X832219*
X835367Y265158D02*
X836417D01*
X835892*
Y268307*
X835367Y267782*
X837991Y265158D02*
X839041D01*
X838516*
Y268307*
X837991Y267782*
X863190Y142322D02*
Y139174D01*
X864764*
X865289Y139699*
Y141798*
X864764Y142322*
X863190*
X866339Y139174D02*
X867388D01*
X866864*
Y142322*
X866339Y141798*
X868963D02*
X869487Y142322D01*
X870537*
X871062Y141798*
Y139699*
X870537Y139174*
X869487*
X868963Y139699*
Y141798*
X936353Y142125D02*
Y138977D01*
X937927*
X938452Y139502*
Y141601*
X937927Y142125*
X936353*
X939501Y141601D02*
X940026Y142125D01*
X941075*
X941600Y141601*
Y141076*
X941075Y140551*
X941600Y140026*
Y139502*
X941075Y138977*
X940026*
X939501Y139502*
Y140026*
X940026Y140551*
X939501Y141076*
Y141601*
X940026Y140551D02*
X941075D01*
X832022Y205314D02*
Y202166D01*
X833596*
X834121Y202691*
Y204790*
X833596Y205314*
X832022*
X835170D02*
X837269D01*
Y204790*
X835170Y202691*
Y202166*
X965880Y142322D02*
Y139174D01*
X967454*
X967979Y139699*
Y141798*
X967454Y142322*
X965880*
X971128D02*
X970078Y141798D01*
X969029Y140748*
Y139699*
X969553Y139174*
X970603*
X971128Y139699*
Y140223*
X970603Y140748*
X969029*
X832022Y173818D02*
Y170670D01*
X833596*
X834121Y171195*
Y173294*
X833596Y173818*
X832022*
X837269D02*
X835170D01*
Y172244*
X836220Y172769*
X836745*
X837269Y172244*
Y171195*
X836745Y170670*
X835695*
X835170Y171195*
X997376Y142322D02*
Y139174D01*
X998950*
X999475Y139699*
Y141798*
X998950Y142322*
X997376*
X1002099Y139174D02*
Y142322D01*
X1000525Y140748*
X1002624*
X832022Y142322D02*
Y139174D01*
X833596*
X834121Y139699*
Y141798*
X833596Y142322*
X832022*
X835170Y141798D02*
X835695Y142322D01*
X836745*
X837269Y141798*
Y141273*
X836745Y140748*
X836220*
X836745*
X837269Y140223*
Y139699*
X836745Y139174*
X835695*
X835170Y139699*
X998557Y199212D02*
Y196063D01*
X1000132*
X1000656Y196588*
Y198687*
X1000132Y199212*
X998557*
X1003805Y196063D02*
X1001706D01*
X1003805Y198163*
Y198687*
X1003280Y199212*
X1002231*
X1001706Y198687*
X845342Y294357D02*
X844817Y294881D01*
X843768*
X843243Y294357*
Y292257*
X843768Y291733*
X844817*
X845342Y292257*
X846391Y294357D02*
X846916Y294881D01*
X847966*
X848491Y294357*
Y293832*
X847966Y293307*
X847441*
X847966*
X848491Y292782*
Y292257*
X847966Y291733*
X846916*
X846391Y292257*
X851639Y294881D02*
X849540D01*
Y293307*
X850589Y293832*
X851114*
X851639Y293307*
Y292257*
X851114Y291733*
X850065*
X849540Y292257*
X876838Y168372D02*
X876313Y168897D01*
X875264*
X874739Y168372*
Y166273*
X875264Y165749*
X876313*
X876838Y166273*
X877888Y168372D02*
X878412Y168897D01*
X879462*
X879986Y168372*
Y167848*
X879462Y167323*
X878937*
X879462*
X879986Y166798*
Y166273*
X879462Y165749*
X878412*
X877888Y166273*
X882610Y165749D02*
Y168897D01*
X881036Y167323*
X883135*
X853806Y230577D02*
X853282Y231102D01*
X852232*
X851707Y230577*
Y228478*
X852232Y227953*
X853282*
X853806Y228478*
X854856Y230577D02*
X855381Y231102D01*
X856430*
X856955Y230577*
Y230052*
X856430Y229528*
X855906*
X856430*
X856955Y229003*
Y228478*
X856430Y227953*
X855381*
X854856Y228478*
X858005Y230577D02*
X858529Y231102D01*
X859579*
X860104Y230577*
Y230052*
X859579Y229528*
X859054*
X859579*
X860104Y229003*
Y228478*
X859579Y227953*
X858529*
X858005Y228478*
X928610Y140813D02*
X928085Y141338D01*
X927035*
X926511Y140813*
Y138714*
X927035Y138189*
X928085*
X928610Y138714*
X929659Y140813D02*
X930184Y141338D01*
X931233*
X931758Y140813*
Y140288*
X931233Y139764*
X930709*
X931233*
X931758Y139239*
Y138714*
X931233Y138189*
X930184*
X929659Y138714*
X934907Y138189D02*
X932808D01*
X934907Y140288*
Y140813*
X934382Y141338*
X933333*
X932808Y140813*
X844882Y230380D02*
X844358Y230905D01*
X843308*
X842783Y230380*
Y228281*
X843308Y227756*
X844358*
X844882Y228281*
X845932Y230380D02*
X846457Y230905D01*
X847506*
X848031Y230380*
Y229855*
X847506Y229331*
X846982*
X847506*
X848031Y228806*
Y228281*
X847506Y227756*
X846457*
X845932Y228281*
X849080Y227756D02*
X850130D01*
X849605*
Y230905*
X849080Y230380*
X979200Y168372D02*
X978675Y168897D01*
X977626*
X977101Y168372*
Y166273*
X977626Y165749*
X978675*
X979200Y166273*
X980250Y168372D02*
X980774Y168897D01*
X981824*
X982349Y168372*
Y167848*
X981824Y167323*
X981299*
X981824*
X982349Y166798*
Y166273*
X981824Y165749*
X980774*
X980250Y166273*
X983398Y168372D02*
X983923Y168897D01*
X984973*
X985497Y168372*
Y166273*
X984973Y165749*
X983923*
X983398Y166273*
Y168372*
X892651Y141995D02*
X892126Y141471D01*
Y140421*
X892651Y139896*
X894750*
X895275Y140421*
Y141471*
X894750Y141995*
X895275Y145144D02*
Y143045D01*
X893176Y145144*
X892651*
X892126Y144619*
Y143570*
X892651Y143045*
X894750Y146194D02*
X895275Y146718D01*
Y147768*
X894750Y148293*
X892651*
X892126Y147768*
Y146718*
X892651Y146194*
X893176*
X893701Y146718*
Y148293*
X868373Y175853D02*
X867849Y176377D01*
X866799*
X866274Y175853*
Y173754*
X866799Y173229*
X867849*
X868373Y173754*
X871522Y173229D02*
X869423D01*
X871522Y175328*
Y175853*
X870997Y176377*
X869948*
X869423Y175853*
X872571D02*
X873096Y176377D01*
X874146*
X874671Y175853*
Y175328*
X874146Y174803*
X874671Y174278*
Y173754*
X874146Y173229*
X873096*
X872571Y173754*
Y174278*
X873096Y174803*
X872571Y175328*
Y175853*
X873096Y174803D02*
X874146D01*
X857153Y172309D02*
X856628Y172834D01*
X855579*
X855054Y172309*
Y170210*
X855579Y169685*
X856628*
X857153Y170210*
X860301Y169685D02*
X858202D01*
X860301Y171785*
Y172309*
X859777Y172834*
X858727*
X858202Y172309*
X861351Y172834D02*
X863450D01*
Y172309*
X861351Y170210*
Y169685*
X1010696Y167388D02*
X1010172Y167913D01*
X1009122*
X1008597Y167388*
Y165289*
X1009122Y164764*
X1010172*
X1010696Y165289*
X1013845Y164764D02*
X1011746D01*
X1013845Y166863*
Y167388*
X1013320Y167913*
X1012271*
X1011746Y167388*
X1016993Y167913D02*
X1015944Y167388D01*
X1014894Y166339*
Y165289*
X1015419Y164764*
X1016469*
X1016993Y165289*
Y165814*
X1016469Y166339*
X1014894*
X845342Y167388D02*
X844817Y167913D01*
X843768*
X843243Y167388*
Y165289*
X843768Y164764*
X844817*
X845342Y165289*
X848491Y164764D02*
X846391D01*
X848491Y166863*
Y167388*
X847966Y167913*
X846916*
X846391Y167388*
X851639Y167913D02*
X849540D01*
Y166339*
X850589Y166863*
X851114*
X851639Y166339*
Y165289*
X851114Y164764*
X850065*
X849540Y165289*
X1000854Y173294D02*
X1000329Y173818D01*
X999279*
X998755Y173294*
Y171195*
X999279Y170670*
X1000329*
X1000854Y171195*
X1004002Y170670D02*
X1001903D01*
X1004002Y172769*
Y173294*
X1003477Y173818*
X1002428*
X1001903Y173294*
X1006626Y170670D02*
Y173818D01*
X1005052Y172244*
X1007151*
X961419Y200787D02*
X963518D01*
X962469*
Y197638*
X964568D02*
Y200787D01*
X966142*
X966667Y200262*
Y199213*
X966142Y198688*
X964568*
X967716Y197638D02*
X968766D01*
X968241*
Y200787*
X967716Y200262*
X970340D02*
X970865Y200787D01*
X971914*
X972439Y200262*
Y198163*
X971914Y197638*
X970865*
X970340Y198163*
Y200262*
X936877Y290813D02*
X936353Y291338D01*
X935303*
X934778Y290813*
Y288714*
X935303Y288190*
X936353*
X936877Y288714*
X940026Y288190D02*
X937927D01*
X940026Y290288*
Y290813*
X939501Y291338*
X938452*
X937927Y290813*
X941075D02*
X941600Y291338D01*
X942650*
X943174Y290813*
Y290288*
X942650Y289764*
X942125*
X942650*
X943174Y289239*
Y288714*
X942650Y288190*
X941600*
X941075Y288714*
X922573Y273622D02*
Y270998D01*
X923098Y270473*
X924147*
X924672Y270998*
Y273622*
X927821D02*
X925722D01*
Y272047*
X926771Y272572*
X927296*
X927821Y272047*
Y270998*
X927296Y270473*
X926246*
X925722Y270998*
X885435Y281102D02*
X887534D01*
X886484*
Y277953*
X888583D02*
Y281102D01*
X890158*
X890683Y280577*
Y279528*
X890158Y279003*
X888583*
X891732Y277953D02*
X892782D01*
X892257*
Y281102*
X891732Y280577*
X894356D02*
X894881Y281102D01*
X895930*
X896455Y280577*
Y280052*
X895930Y279528*
X895405*
X895930*
X896455Y279003*
Y278478*
X895930Y277953*
X894881*
X894356Y278478*
X922440Y237009D02*
X919292D01*
Y238583*
X919817Y239108*
X920866*
X921391Y238583*
Y237009*
Y238059D02*
X922440Y239108D01*
Y240158D02*
Y241207D01*
Y240683*
X919292*
X919817Y240158*
X922440Y244881D02*
Y242782D01*
X920341Y244881*
X919817*
X919292Y244356*
Y243306*
X919817Y242782*
X898454Y275985D02*
Y279133D01*
X900028*
X900553Y278609*
Y277559*
X900028Y277034*
X898454*
X899503D02*
X900553Y275985D01*
X901602D02*
X902652D01*
X902127*
Y279133*
X901602Y278609*
X904226Y275985D02*
X905276D01*
X904751*
Y279133*
X904226Y278609*
X897404Y269686D02*
Y272834D01*
X898978*
X899503Y272309*
Y271260*
X898978Y270735*
X897404*
X898454D02*
X899503Y269686D01*
X900553D02*
X901602D01*
X901077*
Y272834*
X900553Y272309*
X903176D02*
X903701Y272834D01*
X904751*
X905276Y272309*
Y270210*
X904751Y269686*
X903701*
X903176Y270210*
Y272309*
X942389Y277165D02*
Y274016D01*
X944488*
X945538D02*
X946587D01*
X946062*
Y277165*
X945538Y276640*
X912599Y240027D02*
X915748D01*
Y241601*
X915223Y242126*
X913124*
X912599Y241601*
Y240027*
X915748Y243176D02*
Y244225D01*
Y243700*
X912599*
X913124Y243176*
X948688Y256168D02*
X948164Y256692D01*
X947114*
X946589Y256168*
Y254069*
X947114Y253544*
X948164*
X948688Y254069*
X951837Y253544D02*
X949738D01*
X951837Y255643*
Y256168*
X951312Y256692*
X950263*
X949738Y256168*
X954986Y253544D02*
X952886D01*
X954986Y255643*
Y256168*
X954461Y256692*
X953411*
X952886Y256168*
X948819Y246719D02*
X948295Y247244D01*
X947245*
X946720Y246719*
Y244620*
X947245Y244095*
X948295*
X948819Y244620*
X951968Y244095D02*
X949869D01*
X951968Y246194*
Y246719*
X951443Y247244*
X950394*
X949869Y246719*
X953018Y244095D02*
X954067D01*
X953542*
Y247244*
X953018Y246719*
X898978Y266010D02*
X898454Y266535D01*
X897404*
X896879Y266010*
Y263911*
X897404Y263386*
X898454*
X898978Y263911*
X902127Y263386D02*
X900028D01*
X902127Y265485*
Y266010*
X901602Y266535*
X900553*
X900028Y266010*
X903176D02*
X903701Y266535D01*
X904751*
X905276Y266010*
Y263911*
X904751Y263386*
X903701*
X903176Y263911*
Y266010*
X933596Y278215D02*
X933072Y278740D01*
X932022*
X931497Y278215*
Y276116*
X932022Y275591*
X933072*
X933596Y276116*
X934646Y275591D02*
X935695D01*
X935171*
Y278740*
X934646Y278215*
X937270Y276116D02*
X937794Y275591D01*
X938844*
X939369Y276116*
Y278215*
X938844Y278740*
X937794*
X937270Y278215*
Y277690*
X937794Y277165*
X939369*
X966274Y230314D02*
Y227691D01*
X966799Y227166*
X967848*
X968373Y227691*
Y230314*
X970997Y227166D02*
Y230314D01*
X969422Y228740*
X971521*
X963388Y209448D02*
X965487D01*
X964437*
Y206300*
X966536D02*
Y209448D01*
X968110*
X968635Y208924*
Y207874*
X968110Y207349*
X966536*
X969685Y206300D02*
X970734D01*
X970210*
Y209448*
X969685Y208924*
X974408Y206300D02*
X972309D01*
X974408Y208399*
Y208924*
X973883Y209448*
X972833*
X972309Y208924*
X898847Y285827D02*
Y288976D01*
X900421*
X900946Y288451*
Y287402*
X900421Y286877*
X898847*
X899896D02*
X900946Y285827D01*
X901995Y286352D02*
X902520Y285827D01*
X903570*
X904095Y286352*
Y288451*
X903570Y288976*
X902520*
X901995Y288451*
Y287926*
X902520Y287402*
X904095*
X962204Y170474D02*
X959056D01*
Y172048*
X959580Y172573*
X960630*
X961155Y172048*
Y170474*
Y171523D02*
X962204Y172573D01*
Y173622D02*
Y174672D01*
Y174147*
X959056*
X959580Y173622*
Y176246D02*
X959056Y176771D01*
Y177820*
X959580Y178345*
X960105*
X960630Y177820*
Y177296*
Y177820*
X961155Y178345*
X961679*
X962204Y177820*
Y176771*
X961679Y176246*
X898847Y292126D02*
Y295275D01*
X900421*
X900946Y294750*
Y293701*
X900421Y293176*
X898847*
X899896D02*
X900946Y292126D01*
X901995Y294750D02*
X902520Y295275D01*
X903570*
X904095Y294750*
Y294226*
X903570Y293701*
X904095Y293176*
Y292651*
X903570Y292126*
X902520*
X901995Y292651*
Y293176*
X902520Y293701*
X901995Y294226*
Y294750*
X902520Y293701D02*
X903570D01*
X944695Y220452D02*
X944170Y220977D01*
X943121*
X942596Y220452*
Y218353*
X943121Y217828*
X944170*
X944695Y218353*
X945745Y217828D02*
X946794D01*
X946269*
Y220977*
X945745Y220452*
X948368D02*
X948893Y220977D01*
X949943*
X950467Y220452*
Y219927*
X949943Y219403*
X950467Y218878*
Y218353*
X949943Y217828*
X948893*
X948368Y218353*
Y218878*
X948893Y219403*
X948368Y219927*
Y220452*
X948893Y219403D02*
X949943D01*
X944695Y214152D02*
X944170Y214677D01*
X943121*
X942596Y214152*
Y212053*
X943121Y211528*
X944170*
X944695Y212053*
X945745Y211528D02*
X946794D01*
X946269*
Y214677*
X945745Y214152*
X948368Y214677D02*
X950467D01*
Y214152*
X948368Y212053*
Y211528*
X944695Y226752D02*
X944170Y227277D01*
X943121*
X942596Y226752*
Y224653*
X943121Y224128*
X944170*
X944695Y224653*
X945745Y224128D02*
X946794D01*
X946269*
Y227277*
X945745Y226752*
X950467Y227277D02*
X949418Y226752D01*
X948368Y225703*
Y224653*
X948893Y224128*
X949943*
X950467Y224653*
Y225178*
X949943Y225703*
X948368*
X912599Y225723D02*
Y227822D01*
Y226773*
X915748*
Y228872D02*
X912599D01*
Y230446*
X913124Y230971*
X914173*
X914698Y230446*
Y228872*
X913124Y232020D02*
X912599Y232545D01*
Y233595*
X913124Y234119*
X913649*
X914173Y233595*
Y233070*
Y233595*
X914698Y234119*
X915223*
X915748Y233595*
Y232545*
X915223Y232020*
X947245Y304463D02*
Y306562D01*
Y305513*
X950393*
Y307612D02*
X947245D01*
Y309186*
X947769Y309711*
X948819*
X949344Y309186*
Y307612*
X947245Y312860D02*
Y310760D01*
X948819*
X948294Y311810*
Y312335*
X948819Y312860*
X949868*
X950393Y312335*
Y311285*
X949868Y310760*
X1004024Y231504D02*
X1006123D01*
X1005073*
Y228355*
X1007172D02*
Y231504D01*
X1008747*
X1009272Y230979*
Y229930*
X1008747Y229405*
X1007172*
X1012420Y231504D02*
X1011371Y230979D01*
X1010321Y229930*
Y228880*
X1010846Y228355*
X1011895*
X1012420Y228880*
Y229405*
X1011895Y229930*
X1010321*
X946983Y235826D02*
X949082D01*
X948032*
Y232678*
X950132D02*
Y235826D01*
X951706*
X952231Y235301*
Y234252*
X951706Y233727*
X950132*
X953280Y235826D02*
X955379D01*
Y235301*
X953280Y233202*
Y232678*
X926511Y235433D02*
X928610D01*
X927560*
Y232284*
X929659D02*
Y235433D01*
X931233*
X931758Y234908*
Y233858*
X931233Y233333*
X929659*
X932808Y234908D02*
X933333Y235433D01*
X934382*
X934907Y234908*
Y234383*
X934382Y233858*
X934907Y233333*
Y232809*
X934382Y232284*
X933333*
X932808Y232809*
Y233333*
X933333Y233858*
X932808Y234383*
Y234908*
X933333Y233858D02*
X934382D01*
X1007716Y238976D02*
X1009816D01*
X1008766*
Y235827*
X1010865D02*
Y238976D01*
X1012439*
X1012964Y238451*
Y237402*
X1012439Y236877*
X1010865*
X1015588Y235827D02*
Y238976D01*
X1014014Y237402*
X1016113*
X1008270Y274409D02*
X1010369D01*
X1009319*
Y271260*
X1011418D02*
Y274409D01*
X1012992*
X1013517Y273884*
Y272835*
X1012992Y272310*
X1011418*
X1014567Y271260D02*
X1015616D01*
X1015091*
Y274409*
X1014567Y273884*
X1017190Y274409D02*
X1019290D01*
Y273884*
X1017190Y271785*
Y271260*
X900000Y301183D02*
Y303282D01*
Y302232*
X903149*
Y304331D02*
X900000D01*
Y305906*
X900525Y306431*
X901575*
X902100Y305906*
Y304331*
X903149Y307480D02*
Y308530D01*
Y308005*
X900000*
X900525Y307480*
X900000Y312203D02*
X900525Y311153D01*
X901575Y310104*
X902624*
X903149Y310629*
Y311678*
X902624Y312203*
X902100*
X901575Y311678*
Y310104*
X956038Y285826D02*
X958137D01*
X957088*
Y282678*
X959187D02*
Y285826D01*
X960761*
X961286Y285301*
Y284252*
X960761Y283727*
X959187*
X964434Y282678D02*
X962335D01*
X964434Y284777*
Y285301*
X963910Y285826*
X962860*
X962335Y285301*
X951838Y251968D02*
X953938D01*
X952888*
Y248819*
X954987D02*
Y251968D01*
X956561*
X957086Y251443*
Y250394*
X956561Y249869*
X954987*
X958136Y248819D02*
X959185D01*
X958660*
Y251968*
X958136Y251443*
X1012206Y280708D02*
X1014306D01*
X1013256*
Y277560*
X1015355D02*
Y280708D01*
X1016929*
X1017454Y280183*
Y279134*
X1016929Y278609*
X1015355*
X1018504Y277560D02*
X1019553D01*
X1019028*
Y280708*
X1018504Y280183*
X1023227Y280708D02*
X1021128D01*
Y279134*
X1022177Y279659*
X1022702*
X1023227Y279134*
Y278084*
X1022702Y277560*
X1021652*
X1021128Y278084*
X922048Y138322D02*
Y140421D01*
Y139371*
X925196*
Y141470D02*
X922048D01*
Y143044*
X922573Y143569*
X923622*
X924147Y143044*
Y141470*
X924672Y144619D02*
X925196Y145143D01*
Y146193*
X924672Y146718*
X922573*
X922048Y146193*
Y145143*
X922573Y144619*
X923097*
X923622Y145143*
Y146718*
X921392Y310629D02*
Y308006D01*
X921917Y307481*
X922966*
X923491Y308006*
Y310629*
X924541Y310105D02*
X925065Y310629D01*
X926115*
X926640Y310105*
Y309580*
X926115Y309055*
X925590*
X926115*
X926640Y308530*
Y308006*
X926115Y307481*
X925065*
X924541Y308006*
X973754Y277560D02*
Y280708D01*
X975328*
X975853Y280183*
Y279134*
X975328Y278609*
X973754*
X974804D02*
X975853Y277560D01*
X976903Y280708D02*
X979002D01*
Y280183*
X976903Y278084*
Y277560*
X973754Y271260D02*
Y274409D01*
X975328*
X975853Y273884*
Y272835*
X975328Y272310*
X973754*
X974804D02*
X975853Y271260D01*
X979002Y274409D02*
X977952Y273884D01*
X976903Y272835*
Y271785*
X977427Y271260*
X978477*
X979002Y271785*
Y272310*
X978477Y272835*
X976903*
X893570Y296062D02*
X892520D01*
X893045*
Y293439*
X892520Y292914*
X891995*
X891471Y293439*
X896718Y292914D02*
X894619D01*
X896718Y295013*
Y295538*
X896194Y296062*
X895144*
X894619Y295538*
X937140Y306168D02*
X936615Y306692D01*
X935565*
X935041Y306168*
Y304069*
X935565Y303544*
X936615*
X937140Y304069*
X938189Y303544D02*
X939239D01*
X938714*
Y306692*
X938189Y306168*
X942912Y306692D02*
X940813D01*
Y305118*
X941863Y305643*
X942387*
X942912Y305118*
Y304069*
X942387Y303544*
X941338*
X940813Y304069*
X908399Y306168D02*
X907875Y306692D01*
X906825*
X906301Y306168*
Y304069*
X906825Y303544*
X907875*
X908399Y304069*
X909449Y303544D02*
X910499D01*
X909974*
Y306692*
X909449Y306168*
X913647Y303544D02*
Y306692D01*
X912073Y305118*
X914172*
X933858Y225039D02*
X930709D01*
Y226614*
X931234Y227138*
X932283*
X932808Y226614*
Y225039*
Y226089D02*
X933858Y227138D01*
Y230287D02*
Y228188D01*
X931759Y230287*
X931234*
X930709Y229762*
Y228713*
X931234Y228188*
X940157Y225039D02*
X937008D01*
Y226614*
X937533Y227138*
X938583*
X939107Y226614*
Y225039*
Y226089D02*
X940157Y227138D01*
Y228188D02*
Y229238D01*
Y228713*
X937008*
X937533Y228188*
X973754Y235827D02*
Y238976D01*
X975328*
X975853Y238451*
Y237402*
X975328Y236877*
X973754*
X974804D02*
X975853Y235827D01*
X979002Y238976D02*
X976903D01*
Y237402*
X977952Y237926*
X978477*
X979002Y237402*
Y236352*
X978477Y235827*
X977427*
X976903Y236352*
X973754Y229528D02*
Y232677D01*
X975328*
X975853Y232152*
Y231102*
X975328Y230578*
X973754*
X974804D02*
X975853Y229528D01*
X978477D02*
Y232677D01*
X976903Y231102*
X979002*
X865535Y214128D02*
X867762Y216354D01*
X868875Y215241*
Y214499*
X868133Y213757*
X867391*
X866278Y214870*
X867020Y214128D02*
Y212644D01*
X869617Y213757D02*
X870359D01*
X871101Y213015*
Y212273*
X870730Y211901*
X869988*
X869617Y212273*
X869988Y211901*
Y211159*
X869617Y210788*
X868875*
X868133Y211530*
Y212273*
X900132Y159187D02*
X899607Y158662D01*
Y157613*
X900132Y157088*
X902231*
X902755Y157613*
Y158662*
X902231Y159187*
X902755Y160237D02*
Y161286D01*
Y160761*
X899607*
X900132Y160237*
Y162860D02*
X899607Y163385D01*
Y164435*
X900132Y164959*
X900656*
X901181Y164435*
Y163910*
Y164435*
X901706Y164959*
X902231*
X902755Y164435*
Y163385*
X902231Y162860*
X891660Y239601D02*
X890918D01*
X890176Y238859*
Y238117*
X891660Y236632*
X892402*
X893144Y237374*
Y238117*
X894257Y238488D02*
X895000Y239230D01*
X894628Y238859*
X892402Y241085*
Y240343*
X897597Y241827D02*
X896113Y240343D01*
Y243312*
X895742Y243683*
X895000*
X894257Y242940*
Y242198*
X917848Y222310D02*
X917323Y221785D01*
Y220736*
X917848Y220211*
X919947*
X920472Y220736*
Y221785*
X919947Y222310*
X920472Y223360D02*
Y224409D01*
Y223884*
X917323*
X917848Y223360*
X920472Y225984D02*
Y227033D01*
Y226508*
X917323*
X917848Y225984*
X935171Y206561D02*
X934646Y207086D01*
X933597*
X933072Y206561*
Y204462*
X933597Y203938*
X934646*
X935171Y204462*
X936221Y203938D02*
X937270D01*
X936745*
Y207086*
X936221Y206561*
X938844D02*
X939369Y207086D01*
X940419*
X940944Y206561*
Y204462*
X940419Y203938*
X939369*
X938844Y204462*
Y206561*
X928084Y156168D02*
X927559Y155643D01*
Y154594*
X928084Y154069*
X930183*
X930708Y154594*
Y155643*
X930183Y156168*
Y157218D02*
X930708Y157742D01*
Y158792*
X930183Y159317*
X928084*
X927559Y158792*
Y157742*
X928084Y157218*
X928609*
X929134Y157742*
Y159317*
X924935Y227138D02*
X924410Y226614D01*
Y225564*
X924935Y225039*
X927034*
X927559Y225564*
Y226614*
X927034Y227138*
X924935Y228188D02*
X924410Y228713D01*
Y229762*
X924935Y230287*
X925459*
X925984Y229762*
X926509Y230287*
X927034*
X927559Y229762*
Y228713*
X927034Y228188*
X926509*
X925984Y228713*
X925459Y228188*
X924935*
X925984Y228713D02*
Y229762D01*
X926536Y206561D02*
X926012Y207086D01*
X924962*
X924437Y206561*
Y204462*
X924962Y203938*
X926012*
X926536Y204462*
X927586Y207086D02*
X929685D01*
Y206561*
X927586Y204462*
Y203938*
X953910Y205380D02*
X953385Y205905D01*
X952336*
X951811Y205380*
Y203281*
X952336Y202756*
X953385*
X953910Y203281*
X957059Y205905D02*
X956009Y205380D01*
X954960Y204331*
Y203281*
X955484Y202756*
X956534*
X957059Y203281*
Y203806*
X956534Y204331*
X954960*
X946824Y193963D02*
X946299Y194488D01*
X945249*
X944724Y193963*
Y191864*
X945249Y191339*
X946299*
X946824Y191864*
X949972Y194488D02*
X947873D01*
Y192913*
X948923Y193438*
X949447*
X949972Y192913*
Y191864*
X949447Y191339*
X948398*
X947873Y191864*
X946824Y178609D02*
X946299Y179133D01*
X945249*
X944724Y178609*
Y176509*
X945249Y175985*
X946299*
X946824Y176509*
X949447Y175985D02*
Y179133D01*
X947873Y177559*
X949972*
X923360Y156168D02*
X922835Y155643D01*
Y154594*
X923360Y154069*
X925459*
X925984Y154594*
Y155643*
X925459Y156168*
X923360Y157218D02*
X922835Y157742D01*
Y158792*
X923360Y159317*
X923885*
X924409Y158792*
Y158267*
Y158792*
X924934Y159317*
X925459*
X925984Y158792*
Y157742*
X925459Y157218*
X902127Y178609D02*
X901602Y179133D01*
X900553*
X900028Y178609*
Y176509*
X900553Y175985*
X901602*
X902127Y176509*
X905276Y175985D02*
X903176D01*
X905276Y178084*
Y178609*
X904751Y179133*
X903701*
X903176Y178609*
Y193175D02*
X902652Y193700D01*
X901602*
X901077Y193175*
Y191076*
X901602Y190552*
X902652*
X903176Y191076*
X904226Y190552D02*
X905276D01*
X904751*
Y193700*
X904226Y193175*
X906562Y166141D02*
Y165617D01*
X907612Y164567*
X908661Y165617*
Y166141*
X907612Y164567D02*
Y162993D01*
X909711D02*
X910760D01*
X910236*
Y166141*
X909711Y165617*
X872124Y219346D02*
X873979Y217491D01*
X874722*
X875464Y218233*
Y218975*
X873608Y220831*
X876577Y219346D02*
X877319Y220089D01*
X876948Y219717*
X874722Y221944*
Y221202*
X910353Y205287D02*
Y202663D01*
X910877Y202138*
X911927*
X912452Y202663*
Y205287*
X915600Y202138D02*
X913501D01*
X915600Y204237*
Y204762*
X915075Y205287*
X914026*
X913501Y204762*
X988976Y296062D02*
X987927D01*
X988452*
Y293439*
X987927Y292914*
X987402*
X986877Y293439*
X990026Y292914D02*
X991075D01*
X990551*
Y296062*
X990026Y295538*
X820867Y507482D02*
Y509581D01*
Y508532*
X824015*
Y510631D02*
X820867D01*
Y512205*
X821391Y512730*
X822441*
X822966Y512205*
Y510631*
X824015Y513779D02*
Y514829D01*
Y514304*
X820867*
X821391Y513779*
X820867Y518502D02*
X821391Y517453D01*
X822441Y516403*
X823491*
X824015Y516928*
Y517977*
X823491Y518502*
X822966*
X822441Y517977*
Y516403*
X820867Y484648D02*
Y486747D01*
Y485697*
X824015*
Y487796D02*
X820867D01*
Y489370*
X821391Y489895*
X822441*
X822966Y489370*
Y487796*
X824015Y490945D02*
Y491994D01*
Y491469*
X820867*
X821391Y490945*
X820867Y495668D02*
Y493569D01*
X822441*
X821916Y494618*
Y495143*
X822441Y495668*
X823491*
X824015Y495143*
Y494093*
X823491Y493569*
X633071Y507482D02*
Y509581D01*
Y508532*
X636220*
Y510631D02*
X633071D01*
Y512205*
X633596Y512730*
X634646*
X635170Y512205*
Y510631*
X636220Y513779D02*
Y514829D01*
Y514304*
X633071*
X633596Y513779*
X636220Y517977D02*
X633071D01*
X634646Y516403*
Y518502*
X633465Y484254D02*
Y486353D01*
Y485303*
X636614*
Y487402D02*
X633465D01*
Y488977*
X633990Y489501*
X635039*
X635564Y488977*
Y487402*
X636614Y490551D02*
Y491601D01*
Y491076*
X633465*
X633990Y490551*
Y493175D02*
X633465Y493700D01*
Y494749*
X633990Y495274*
X634515*
X635039Y494749*
Y494224*
Y494749*
X635564Y495274*
X636089*
X636614Y494749*
Y493700*
X636089Y493175*
X737374Y429812D02*
X738859Y428328D01*
X738117Y429070*
X735890Y426844*
X737374Y425360D02*
X739601Y427586D01*
X740714Y426473*
Y425731*
X739972Y424989*
X739230*
X738117Y426102*
X739601Y423133D02*
X740343Y422391D01*
X739972Y422762*
X742198Y424989*
X741456*
X742941Y419794D02*
X741456Y421278D01*
X744425*
X744796Y421649*
Y422391*
X744054Y423133*
X743312*
X731890Y385960D02*
Y388059D01*
Y387009*
X735039*
Y389108D02*
X731890D01*
Y390683*
X732415Y391207*
X733464*
X733989Y390683*
Y389108*
X735039Y392257D02*
Y393306D01*
Y392782*
X731890*
X732415Y392257*
X735039Y394881D02*
Y395930D01*
Y395405*
X731890*
X732415Y394881*
X841208Y480708D02*
X840158D01*
X840683*
Y478084*
X840158Y477560*
X839633*
X839108Y478084*
X842257D02*
X842782Y477560D01*
X843831*
X844356Y478084*
Y480183*
X843831Y480708*
X842782*
X842257Y480183*
Y479659*
X842782Y479134*
X844356*
X614436Y480708D02*
X613386D01*
X613911*
Y478084*
X613386Y477560*
X612862*
X612337Y478084*
X615485Y480183D02*
X616010Y480708D01*
X617060*
X617584Y480183*
Y479659*
X617060Y479134*
X617584Y478609*
Y478084*
X617060Y477560*
X616010*
X615485Y478084*
Y478609*
X616010Y479134*
X615485Y479659*
Y480183*
X616010Y479134D02*
X617060D01*
X733203Y488976D02*
Y485827D01*
X734777*
X735302Y486352*
Y488451*
X734777Y488976*
X733203*
X737926Y485827D02*
Y488976D01*
X736351Y487402*
X738451*
X701707Y488976D02*
Y485827D01*
X703281*
X703806Y486352*
Y488451*
X703281Y488976*
X701707*
X704855Y488451D02*
X705380Y488976D01*
X706430*
X706954Y488451*
Y487926*
X706430Y487402*
X705905*
X706430*
X706954Y486877*
Y486352*
X706430Y485827*
X705380*
X704855Y486352*
X796195Y488976D02*
Y485827D01*
X797769*
X798294Y486352*
Y488451*
X797769Y488976*
X796195*
X801443D02*
X800393Y488451D01*
X799344Y487402*
Y486352*
X799868Y485827*
X800918*
X801443Y486352*
Y486877*
X800918Y487402*
X799344*
X670211Y488976D02*
Y485827D01*
X671785*
X672310Y486352*
Y488451*
X671785Y488976*
X670211*
X675458Y485827D02*
X673359D01*
X675458Y487926*
Y488451*
X674934Y488976*
X673884*
X673359Y488451*
X764699Y488976D02*
Y485827D01*
X766273*
X766798Y486352*
Y488451*
X766273Y488976*
X764699*
X769947D02*
X767848D01*
Y487402*
X768897Y487926*
X769422*
X769947Y487402*
Y486352*
X769422Y485827*
X768372*
X767848Y486352*
X638846Y488976D02*
Y485827D01*
X640420*
X640945Y486352*
Y488451*
X640420Y488976*
X638846*
X641994Y485827D02*
X643044D01*
X642519*
Y488976*
X641994Y488451*
X779659Y482546D02*
X779135Y483070D01*
X778085*
X777560Y482546*
Y480446*
X778085Y479922*
X779135*
X779659Y480446*
X780709Y479922D02*
X781758D01*
X781234*
Y483070*
X780709Y482546*
X783333D02*
X783857Y483070D01*
X784907*
X785432Y482546*
Y482021*
X784907Y481496*
X785432Y480971*
Y480446*
X784907Y479922*
X783857*
X783333Y480446*
Y480971*
X783857Y481496*
X783333Y482021*
Y482546*
X783857Y481496D02*
X784907D01*
X653675Y482152D02*
X653150Y482677D01*
X652101*
X651576Y482152*
Y480053*
X652101Y479528*
X653150*
X653675Y480053*
X654725Y479528D02*
X655774D01*
X655249*
Y482677*
X654725Y482152*
X658923Y479528D02*
Y482677D01*
X657348Y481102*
X659447*
X716667Y482152D02*
X716143Y482677D01*
X715093*
X714568Y482152*
Y480053*
X715093Y479528*
X716143*
X716667Y480053*
X717717Y479528D02*
X718766D01*
X718242*
Y482677*
X717717Y482152*
X722440Y482677D02*
X721390Y482152D01*
X720341Y481102*
Y480053*
X720865Y479528*
X721915*
X722440Y480053*
Y480578*
X721915Y481102*
X720341*
X748163Y482546D02*
X747639Y483070D01*
X746589*
X746064Y482546*
Y480446*
X746589Y479922*
X747639*
X748163Y480446*
X749213Y479922D02*
X750262D01*
X749738*
Y483070*
X749213Y482546*
X751837Y483070D02*
X753936D01*
Y482546*
X751837Y480446*
Y479922*
X814699Y471785D02*
X814174Y471261D01*
Y470211*
X814699Y469686*
X816798*
X817322Y470211*
Y471261*
X816798Y471785*
X817322Y472835D02*
Y473884D01*
Y473360*
X814174*
X814699Y472835*
X816798Y475459D02*
X817322Y475983D01*
Y477033*
X816798Y477558*
X814699*
X814174Y477033*
Y475983*
X814699Y475459*
X815223*
X815748Y475983*
Y477558*
X685171Y482152D02*
X684646Y482677D01*
X683597*
X683072Y482152*
Y480053*
X683597Y479528*
X684646*
X685171Y480053*
X686221Y479528D02*
X687270D01*
X686746*
Y482677*
X686221Y482152*
X690944Y482677D02*
X688844D01*
Y481102*
X689894Y481627*
X690419*
X690944Y481102*
Y480053*
X690419Y479528*
X689369*
X688844Y480053*
X744620Y468242D02*
X744095Y467717D01*
Y466668*
X744620Y466143*
X746719*
X747244Y466668*
Y467717*
X746719Y468242*
X747244Y469292D02*
Y470341D01*
Y469816*
X744095*
X744620Y469292*
Y471915D02*
X744095Y472440D01*
Y473490*
X744620Y474015*
X745145*
X745669Y473490*
Y472965*
Y473490*
X746194Y474015*
X746719*
X747244Y473490*
Y472440*
X746719Y471915*
X709974Y468242D02*
X709449Y467717D01*
Y466668*
X709974Y466143*
X712073*
X712598Y466668*
Y467717*
X712073Y468242*
X712598Y469292D02*
Y470341D01*
Y469816*
X709449*
X709974Y469292*
X712598Y474015D02*
Y471915D01*
X710499Y474015*
X709974*
X709449Y473490*
Y472440*
X709974Y471915*
X703675Y434121D02*
X703150Y433596D01*
Y432547*
X703675Y432022*
X705774*
X706299Y432547*
Y433596*
X705774Y434121*
X703150Y437269D02*
X703675Y436220D01*
X704724Y435170*
X705774*
X706299Y435695*
Y436745*
X705774Y437269*
X705249*
X704724Y436745*
Y435170*
X744620Y427034D02*
X744095Y426510D01*
Y425460*
X744620Y424935*
X746719*
X747244Y425460*
Y426510*
X746719Y427034*
X744095Y428084D02*
Y430183D01*
X744620*
X746719Y428084*
X747244*
X697770Y480183D02*
X697245Y480708D01*
X696195*
X695671Y480183*
Y478084*
X696195Y477560*
X697245*
X697770Y478084*
X698819Y477560D02*
X699869D01*
X699344*
Y480708*
X698819Y480183*
X701443D02*
X701968Y480708D01*
X703017*
X703542Y480183*
Y478084*
X703017Y477560*
X701968*
X701443Y478084*
Y480183*
X751706Y427034D02*
X751182Y426510D01*
Y425460*
X751706Y424935*
X753805*
X754330Y425460*
Y426510*
X753805Y427034*
Y428084D02*
X754330Y428609D01*
Y429658*
X753805Y430183*
X751706*
X751182Y429658*
Y428609*
X751706Y428084*
X752231*
X752756Y428609*
Y430183*
X711155Y426247D02*
X710630Y425722D01*
Y424673*
X711155Y424148*
X713254*
X713779Y424673*
Y425722*
X713254Y426247*
X711155Y427296D02*
X710630Y427821D01*
Y428871*
X711155Y429395*
X711680*
X712205Y428871*
X712730Y429395*
X713254*
X713779Y428871*
Y427821*
X713254Y427296*
X712730*
X712205Y427821*
X711680Y427296*
X711155*
X712205Y427821D02*
Y428871D01*
X755775Y480183D02*
X755250Y480708D01*
X754200*
X753676Y480183*
Y478084*
X754200Y477560*
X755250*
X755775Y478084*
X756824Y477560D02*
X757874D01*
X757349*
Y480708*
X756824Y480183*
X759448Y477560D02*
X760498D01*
X759973*
Y480708*
X759448Y480183*
X714043Y468503D02*
Y465355D01*
X716142*
X717191D02*
X718241D01*
X717716*
Y468503*
X717191Y467979*
X688584Y399999D02*
X690684D01*
X689634*
Y396851*
X691733D02*
Y399999D01*
X693307*
X693832Y399475*
Y398425*
X693307Y397900*
X691733*
X694882Y396851D02*
X695931D01*
X695406*
Y399999*
X694882Y399475*
X697506D02*
X698030Y399999D01*
X699080*
X699605Y399475*
Y397376*
X699080Y396851*
X698030*
X697506Y397376*
Y399475*
X718637Y388976D02*
X720736D01*
X719686*
Y385827*
X721785D02*
Y388976D01*
X723359*
X723884Y388451*
Y387402*
X723359Y386877*
X721785*
X724934Y386352D02*
X725458Y385827D01*
X726508*
X727033Y386352*
Y388451*
X726508Y388976*
X725458*
X724934Y388451*
Y387926*
X725458Y387402*
X727033*
X672967Y482283D02*
X675066D01*
X674017*
Y479134*
X676116D02*
Y482283D01*
X677690*
X678215Y481758*
Y480709*
X677690Y480184*
X676116*
X679264Y481758D02*
X679789Y482283D01*
X680839*
X681363Y481758*
Y481233*
X680839Y480709*
X681363Y480184*
Y479659*
X680839Y479134*
X679789*
X679264Y479659*
Y480184*
X679789Y480709*
X679264Y481233*
Y481758*
X679789Y480709D02*
X680839D01*
X766668Y481889D02*
X768767D01*
X767718*
Y478741*
X769817D02*
Y481889D01*
X771391*
X771916Y481364*
Y480315*
X771391Y479790*
X769817*
X772965Y481889D02*
X775064D01*
Y481364*
X772965Y479265*
Y478741*
X756825Y575196D02*
X758925D01*
X757875*
Y572048*
X759974D02*
Y575196D01*
X761548*
X762073Y574672*
Y573622*
X761548Y573097*
X759974*
X765222Y575196D02*
X764172Y574672D01*
X763123Y573622*
Y572573*
X763648Y572048*
X764697*
X765222Y572573*
Y573097*
X764697Y573622*
X763123*
X709581Y542519D02*
X711681D01*
X710631*
Y539371*
X712730D02*
Y542519D01*
X714304*
X714829Y541994*
Y540945*
X714304Y540420*
X712730*
X717978Y542519D02*
X715879D01*
Y540945*
X716928Y541470*
X717453*
X717978Y540945*
Y539895*
X717453Y539371*
X716403*
X715879Y539895*
X799326Y568255D02*
X800810Y566771D01*
X800068Y567513*
X797842Y565286*
X799326Y563802D02*
X801552Y566028D01*
X802665Y564915*
Y564173*
X801923Y563431*
X801181*
X800068Y564544*
X802665Y560463D02*
X804892Y562689D01*
X802665*
X804150Y561205*
X739896Y566535D02*
X741995D01*
X740946*
Y563386*
X743045D02*
Y566535D01*
X744619*
X745144Y566010*
Y564961*
X744619Y564436*
X743045*
X746194Y566010D02*
X746718Y566535D01*
X747768*
X748293Y566010*
Y565485*
X747768Y564961*
X747243*
X747768*
X748293Y564436*
Y563911*
X747768Y563386*
X746718*
X746194Y563911*
X725985Y550920D02*
Y553019D01*
Y551969*
X729133*
Y554069D02*
X725985D01*
Y555643*
X726510Y556168*
X727559*
X728084Y555643*
Y554069*
X729133Y559316D02*
Y557217D01*
X727034Y559316*
X726510*
X725985Y558791*
Y557742*
X726510Y557217*
X702626Y559842D02*
X704725D01*
X703675*
Y556693*
X705774D02*
Y559842D01*
X707349*
X707873Y559317*
Y558268*
X707349Y557743*
X705774*
X708923Y556693D02*
X709973D01*
X709448*
Y559842*
X708923Y559317*
X734645Y549345D02*
X731497D01*
Y550919*
X732021Y551444*
X733071*
X733596Y550919*
Y549345*
Y550394D02*
X734645Y551444D01*
X732021Y552493D02*
X731497Y553018D01*
Y554068*
X732021Y554592*
X732546*
X733071Y554068*
Y553543*
Y554068*
X733596Y554592*
X734120*
X734645Y554068*
Y553018*
X734120Y552493*
X714699Y390158D02*
Y393307D01*
X716273*
X716798Y392782*
Y391732*
X716273Y391208*
X714699*
X715749D02*
X716798Y390158D01*
X719947D02*
X717848D01*
X719947Y392257*
Y392782*
X719422Y393307*
X718372*
X717848Y392782*
X748818Y411287D02*
X745670D01*
Y412861*
X746195Y413386*
X747244*
X747769Y412861*
Y411287*
Y412336D02*
X748818Y413386D01*
Y414435D02*
Y415485D01*
Y414960*
X745670*
X746195Y414435*
X723228Y426510D02*
Y428609D01*
X722704Y429133*
X721654*
X721129Y428609*
Y426510*
X721654Y425985*
X722704*
X722179Y427034D02*
X723228Y425985D01*
X722704D02*
X723228Y426510D01*
X724278Y425985D02*
X725327D01*
X724803*
Y429133*
X724278Y428609*
X612861Y399999D02*
X611811D01*
X612336*
Y397376*
X611811Y396851*
X611287*
X610762Y397376*
X613911Y399999D02*
X616010D01*
Y399475*
X613911Y397376*
Y396851*
X613255Y469291D02*
X612205D01*
X612730*
Y466667*
X612205Y466142*
X611681*
X611156Y466667*
X616403Y469291D02*
X615354Y468766D01*
X614304Y467717*
Y466667*
X614829Y466142*
X615879*
X616403Y466667*
Y467192*
X615879Y467717*
X614304*
X842389Y399212D02*
X841339D01*
X841864*
Y396588*
X841339Y396063*
X840814*
X840290Y396588*
X845537Y399212D02*
X843438D01*
Y397638*
X844488Y398163*
X845012*
X845537Y397638*
Y396588*
X845012Y396063*
X843963*
X843438Y396588*
X841995Y468503D02*
X840945D01*
X841470*
Y465880*
X840945Y465355*
X840421*
X839896Y465880*
X844619Y465355D02*
Y468503D01*
X843044Y466929*
X845144*
X834908Y398425D02*
X833859D01*
X834383*
Y395801*
X833859Y395276*
X833334*
X832809Y395801*
X835958Y397900D02*
X836483Y398425D01*
X837532*
X838057Y397900*
Y397375*
X837532Y396850*
X837007*
X837532*
X838057Y396326*
Y395801*
X837532Y395276*
X836483*
X835958Y395801*
X620735Y398818D02*
X619686D01*
X620210*
Y396195*
X619686Y395670*
X619161*
X618636Y396195*
X623884Y395670D02*
X621785D01*
X623884Y397769*
Y398294*
X623359Y398818*
X622309*
X621785Y398294*
X702756Y586614D02*
X701706D01*
X702231*
Y583990*
X701706Y583465*
X701182*
X700657Y583990*
X703805Y583465D02*
X704855D01*
X704330*
Y586614*
X703805Y586089*
X717061Y414042D02*
X716536Y413517D01*
Y412468*
X717061Y411943*
X719160*
X719685Y412468*
Y413517*
X719160Y414042*
X716536Y417191D02*
Y415092D01*
X718110*
X717586Y416141*
Y416666*
X718110Y417191*
X719160*
X719685Y416666*
Y415617*
X719160Y415092*
X749869Y397112D02*
X749344Y397637D01*
X748295*
X747770Y397112*
Y395013*
X748295Y394489*
X749344*
X749869Y395013*
X752493Y394489D02*
Y397637D01*
X750918Y396063*
X753018*
X739502Y415223D02*
X738977Y414699D01*
Y413649*
X739502Y413124*
X741601*
X742126Y413649*
Y414699*
X741601Y415223*
X739502Y416273D02*
X738977Y416798D01*
Y417847*
X739502Y418372*
X740026*
X740551Y417847*
Y417322*
Y417847*
X741076Y418372*
X741601*
X742126Y417847*
Y416798*
X741601Y416273*
X720998Y551444D02*
X720473Y550919D01*
Y549869*
X720998Y549345*
X723097*
X723622Y549869*
Y550919*
X723097Y551444*
X723622Y554592D02*
Y552493D01*
X721523Y554592*
X720998*
X720473Y554068*
Y553018*
X720998Y552493*
X704724Y564829D02*
X704200Y565354D01*
X703150*
X702625Y564829*
Y562730*
X703150Y562205*
X704200*
X704724Y562730*
X705774Y562205D02*
X706823D01*
X706299*
Y565354*
X705774Y564829*
X603519Y329862D02*
X605618D01*
X604568*
Y326713*
X606667D02*
Y329862D01*
X608242*
X608766Y329337*
Y328287*
X608242Y327763*
X606667*
X609816Y326713D02*
X610865D01*
X610341*
Y329862*
X609816Y329337*
X612440Y326713D02*
X613489D01*
X612964*
Y329862*
X612440Y329337*
X659488Y203321D02*
Y205420D01*
X658963Y205944*
X657914*
X657389Y205420*
Y203321*
X657914Y202796*
X658963*
X658439Y203845D02*
X659488Y202796D01*
X658963D02*
X659488Y203321D01*
X660538Y202796D02*
X661587D01*
X661062*
Y205944*
X660538Y205420*
X653058Y163818D02*
Y161195D01*
X653583Y160670*
X654633*
X655158Y161195*
Y163818*
X656207Y160670D02*
X657257D01*
X656732*
Y163818*
X656207Y163294*
X677731Y297283D02*
X679830D01*
X678781*
Y294134*
X680880D02*
Y297283D01*
X682454*
X682979Y296758*
Y295709*
X682454Y295184*
X680880*
X686127Y297283D02*
X684028D01*
Y295709*
X685078Y296233*
X685603*
X686127Y295709*
Y294659*
X685603Y294134*
X684553*
X684028Y294659*
X651222Y297283D02*
X653321D01*
X652272*
Y294134*
X654371D02*
Y297283D01*
X655945*
X656470Y296758*
Y295709*
X655945Y295184*
X654371*
X657519Y294134D02*
X658569D01*
X658044*
Y297283*
X657519Y296758*
X660143D02*
X660668Y297283D01*
X661718*
X662242Y296758*
Y294659*
X661718Y294134*
X660668*
X660143Y294659*
Y296758*
X761063Y250172D02*
Y252271D01*
Y251221*
X764212*
Y253321D02*
X761063D01*
Y254895*
X761588Y255420*
X762638*
X763163Y254895*
Y253321*
X763687Y256469D02*
X764212Y256994D01*
Y258043*
X763687Y258568*
X761588*
X761063Y258043*
Y256994*
X761588Y256469*
X762113*
X762638Y256994*
Y258568*
X761063Y229699D02*
Y231799D01*
Y230749*
X764212*
Y232848D02*
X761063D01*
Y234422*
X761588Y234947*
X762638*
X763163Y234422*
Y232848*
X761588Y235997D02*
X761063Y236522D01*
Y237571*
X761588Y238096*
X762113*
X762638Y237571*
X763163Y238096*
X763687*
X764212Y237571*
Y236522*
X763687Y235997*
X763163*
X762638Y236522*
X762113Y235997*
X761588*
X762638Y236522D02*
Y237571D01*
X574056Y249778D02*
Y251877D01*
Y250828*
X577204*
Y252927D02*
X574056D01*
Y254501*
X574580Y255026*
X575630*
X576155Y254501*
Y252927*
X574056Y256075D02*
Y258174D01*
X574580*
X576679Y256075*
X577204*
X574056Y229699D02*
Y231799D01*
Y230749*
X577204*
Y232848D02*
X574056D01*
Y234422*
X574580Y234947*
X575630*
X576155Y234422*
Y232848*
X574056Y238096D02*
X574580Y237046D01*
X575630Y235997*
X576679*
X577204Y236522*
Y237571*
X576679Y238096*
X576155*
X575630Y237571*
Y235997*
X748991Y137440D02*
X751090D01*
X750040*
Y134292*
X752139D02*
Y137440D01*
X753714*
X754239Y136916*
Y135866*
X753714Y135341*
X752139*
X756862Y134292D02*
Y137440D01*
X755288Y135866*
X757387*
X700566Y226023D02*
X702665D01*
X701615*
Y222874*
X703714D02*
Y226023D01*
X705289*
X705813Y225498*
Y224449*
X705289Y223924*
X703714*
X706863Y225498D02*
X707388Y226023D01*
X708437*
X708962Y225498*
Y224974*
X708437Y224449*
X707912*
X708437*
X708962Y223924*
Y223399*
X708437Y222874*
X707388*
X706863Y223399*
X629700Y226023D02*
X631799D01*
X630749*
Y222874*
X632848D02*
Y226023D01*
X634422*
X634947Y225498*
Y224449*
X634422Y223924*
X632848*
X638096Y222874D02*
X635997D01*
X638096Y224974*
Y225498*
X637571Y226023*
X636521*
X635997Y225498*
X645185Y136259D02*
X647284D01*
X646234*
Y133111*
X648334D02*
Y136259D01*
X649908*
X650433Y135735*
Y134685*
X649908Y134160*
X648334*
X651482Y133111D02*
X652532D01*
X652007*
Y136259*
X651482Y135735*
X779896Y225432D02*
X778846D01*
X779371*
Y222809*
X778846Y222284*
X778321*
X777797Y222809*
X780945Y222284D02*
X781995D01*
X781470*
Y225432*
X780945Y224908*
X785668Y222284D02*
X783569D01*
X785668Y224383*
Y224908*
X785143Y225432*
X784094*
X783569Y224908*
X554928Y225039D02*
X553879D01*
X554403*
Y222415*
X553879Y221890*
X553354*
X552829Y222415*
X555978Y221890D02*
X557027D01*
X556502*
Y225039*
X555978Y224514*
X558602Y221890D02*
X559651D01*
X559126*
Y225039*
X558602Y224514*
X689148Y333110D02*
X688098D01*
X688623*
Y330486*
X688098Y329961*
X687573*
X687048Y330486*
X690197Y329961D02*
X691247D01*
X690722*
Y333110*
X690197Y332585*
X692821D02*
X693346Y333110D01*
X694395*
X694920Y332585*
Y330486*
X694395Y329961*
X693346*
X692821Y330486*
Y332585*
X595971Y142165D02*
X594922D01*
X595446*
Y139541*
X594922Y139016*
X594397*
X593872Y139541*
X597021D02*
X597546Y139016D01*
X598595*
X599120Y139541*
Y141640*
X598595Y142165*
X597546*
X597021Y141640*
Y141115*
X597546Y140591*
X599120*
X707782Y142165D02*
X706733D01*
X707258*
Y139541*
X706733Y139016*
X706208*
X705683Y139541*
X708832Y141640D02*
X709357Y142165D01*
X710406*
X710931Y141640*
Y141115*
X710406Y140591*
X710931Y140066*
Y139541*
X710406Y139016*
X709357*
X708832Y139541*
Y140066*
X709357Y140591*
X708832Y141115*
Y141640*
X709357Y140591D02*
X710406D01*
X782979Y143346D02*
X781930D01*
X782454*
Y140722*
X781930Y140197*
X781405*
X780880Y140722*
X784029Y143346D02*
X786128D01*
Y142821*
X784029Y140722*
Y140197*
X554633Y144133D02*
X553583D01*
X554108*
Y141509*
X553583Y140985*
X553058*
X552534Y141509*
X557781Y144133D02*
X556732Y143609D01*
X555682Y142559*
Y141509*
X556207Y140985*
X557257*
X557781Y141509*
Y142034*
X557257Y142559*
X555682*
X782979Y212244D02*
X781930D01*
X782454*
Y209620*
X781930Y209095*
X781405*
X780880Y209620*
X786128Y212244D02*
X784029D01*
Y210669*
X785078Y211194*
X785603*
X786128Y210669*
Y209620*
X785603Y209095*
X784553*
X784029Y209620*
X554239Y213031D02*
X553190D01*
X553714*
Y210407*
X553190Y209882*
X552665*
X552140Y210407*
X556863Y209882D02*
Y213031D01*
X555289Y211457*
X557388*
X664475Y142165D02*
X663426D01*
X663950*
Y139541*
X663426Y139016*
X662901*
X662376Y139541*
X665525Y141640D02*
X666049Y142165D01*
X667099*
X667624Y141640*
Y141115*
X667099Y140591*
X666574*
X667099*
X667624Y140066*
Y139541*
X667099Y139016*
X666049*
X665525Y139541*
X775499Y213818D02*
X774449D01*
X774974*
Y211195*
X774449Y210670*
X773925*
X773400Y211195*
X778647Y210670D02*
X776548D01*
X778647Y212769*
Y213294*
X778123Y213818*
X777073*
X776548Y213294*
X562244Y213818D02*
X561195D01*
X561719*
Y211195*
X561195Y210670*
X560670*
X560145Y211195*
X563294Y210670D02*
X564343D01*
X563818*
Y213818*
X563294Y213294*
X730493Y258274D02*
Y255125D01*
X732067*
X732592Y255650*
Y257749*
X732067Y258274*
X730493*
X735741D02*
X734691Y257749D01*
X733641Y256699*
Y255650*
X734166Y255125*
X735216*
X735741Y255650*
Y256175*
X735216Y256699*
X733641*
X683268Y258274D02*
Y255125D01*
X684843*
X685368Y255650*
Y257749*
X684843Y258274*
X683268*
X688516D02*
X686417D01*
Y256699*
X687467Y257224*
X687991*
X688516Y256699*
Y255650*
X687991Y255125*
X686942*
X686417Y255650*
X635964Y258274D02*
Y255125D01*
X637538*
X638063Y255650*
Y257749*
X637538Y258274*
X635964*
X640687Y255125D02*
Y258274D01*
X639112Y256699*
X641211*
X628124Y309094D02*
Y305945D01*
X629699*
X630223Y306470*
Y308569*
X629699Y309094*
X628124*
X631273Y308569D02*
X631798Y309094D01*
X632847*
X633372Y308569*
Y308044*
X632847Y307520*
X632322*
X632847*
X633372Y306995*
Y306470*
X632847Y305945*
X631798*
X631273Y306470*
X588793Y258274D02*
Y255125D01*
X590367*
X590892Y255650*
Y257749*
X590367Y258274*
X588793*
X594041Y255125D02*
X591941D01*
X594041Y257224*
Y257749*
X593516Y258274*
X592466*
X591941Y257749*
X634793Y132674D02*
Y129525D01*
X636367*
X636892Y130050*
Y132149*
X636367Y132674*
X634793*
X637942Y129525D02*
X638991D01*
X638466*
Y132674*
X637942Y132149*
X736037Y231512D02*
X735512Y232037D01*
X734463*
X733938Y231512*
Y229413*
X734463Y228888*
X735512*
X736037Y229413*
X737086D02*
X737611Y228888D01*
X738661*
X739185Y229413*
Y231512*
X738661Y232037*
X737611*
X737086Y231512*
Y230987*
X737611Y230463*
X739185*
X688837Y231512D02*
X688312Y232037D01*
X687263*
X686738Y231512*
Y229413*
X687263Y228888*
X688312*
X688837Y229413*
X689886Y231512D02*
X690411Y232037D01*
X691461*
X691985Y231512*
Y230987*
X691461Y230463*
X691985Y229938*
Y229413*
X691461Y228888*
X690411*
X689886Y229413*
Y229938*
X690411Y230463*
X689886Y230987*
Y231512*
X690411Y230463D02*
X691461D01*
X641537Y231512D02*
X641012Y232037D01*
X639963*
X639438Y231512*
Y229413*
X639963Y228888*
X641012*
X641537Y229413*
X642586Y232037D02*
X644685D01*
Y231512*
X642586Y229413*
Y228888*
X652664Y307388D02*
X652140Y307913D01*
X651090*
X650565Y307388*
Y305289*
X651090Y304764*
X652140*
X652664Y305289*
X655813Y307913D02*
X654763Y307388D01*
X653714Y306339*
Y305289*
X654239Y304764*
X655288*
X655813Y305289*
Y305814*
X655288Y306339*
X653714*
X594337Y231512D02*
X593812Y232037D01*
X592763*
X592238Y231512*
Y229413*
X592763Y228888*
X593812*
X594337Y229413*
X597485Y232037D02*
X595386D01*
Y230463*
X596436Y230987*
X596961*
X597485Y230463*
Y229413*
X596961Y228888*
X595911*
X595386Y229413*
X640337Y105912D02*
X639812Y106437D01*
X638763*
X638238Y105912*
Y103813*
X638763Y103288*
X639812*
X640337Y103813*
X642961Y103288D02*
Y106437D01*
X641386Y104862*
X643485*
X647809Y180617D02*
X647284Y180092D01*
Y179043*
X647809Y178518*
X649908*
X650432Y179043*
Y180092*
X649908Y180617*
X647809Y181667D02*
X647284Y182191D01*
Y183241*
X647809Y183766*
X648334*
X648858Y183241*
Y182716*
Y183241*
X649383Y183766*
X649908*
X650432Y183241*
Y182191*
X649908Y181667*
X690459Y212506D02*
X689935Y213031D01*
X688885*
X688360Y212506*
Y210407*
X688885Y209882*
X689935*
X690459Y210407*
X693608Y209882D02*
X691509D01*
X693608Y211981*
Y212506*
X693083Y213031*
X692034*
X691509Y212506*
X647677D02*
X647152Y213031D01*
X646103*
X645578Y212506*
Y210407*
X646103Y209882*
X647152*
X647677Y210407*
X648727Y209882D02*
X649776D01*
X649252*
Y213031*
X648727Y212506*
G54D138*
X279138Y540945D03*
X198823Y517717D03*
X221850Y497638D03*
X208071Y527165D03*
X285630Y490945D03*
X147835Y503543D03*
X430512Y485039D03*
X391926Y495669D03*
X976575Y212992D03*
X653386Y167362D03*
G54D139*
X212795Y551575D03*
X167913Y538583D03*
X265551Y528346D03*
X467913Y453150D03*
X426967Y517716D03*
X887598Y122441D03*
X977362Y122835D03*
X925787Y122441D03*
X850197Y122835D03*
X947461Y320935D03*
X915965D03*
X887992Y163779D03*
X911220Y258268D03*
X929724Y261417D03*
X921063Y306299D03*
X725000Y401575D03*
G54D140*
X201575Y510433D02*
X203150D01*
X201575Y514764D02*
X203150D01*
X200787Y509252D02*
X202362D01*
X200787Y504921D02*
X202362D01*
X229134Y546850D02*
Y550000D01*
X256299Y539961D02*
X257874D01*
X256299Y544291D02*
X257874D01*
X284252Y377559D02*
X284669Y377141D01*
X284547Y378346D02*
X285138D01*
X281791D02*
X282382D01*
X283465Y379429D02*
Y380020D01*
X284252Y379134D02*
X284669Y379551D01*
X283465Y376673D02*
Y377264D01*
X282260Y377141D02*
X282677Y377559D01*
X282260Y379551D02*
X282677Y379134D01*
X284252Y368898D02*
X284669Y368480D01*
X284547Y369685D02*
X285138D01*
X281791D02*
X282382D01*
X283465Y370768D02*
Y371358D01*
X284252Y370472D02*
X284669Y370890D01*
X283465Y368012D02*
Y368602D01*
X282260Y368480D02*
X282677Y368898D01*
X282260Y370890D02*
X282677Y370472D01*
X279331Y373622D02*
X279724Y374016D01*
X278543D02*
X279724D01*
X279331Y374409D02*
X279724Y374016D01*
X279331Y379921D02*
X279724Y380315D01*
X278543D02*
X279724D01*
X279331Y380709D02*
X279724Y380315D01*
X287205Y374213D02*
X288386D01*
X287992Y373819D02*
X288386Y374213D01*
X287992Y374606D02*
X288386Y374213D01*
X287205Y380512D02*
X288386D01*
X287992Y380118D02*
X288386Y380512D01*
X287992Y380906D02*
X288386Y380512D01*
X284252Y373228D02*
X284669Y372811D01*
X284547Y374016D02*
X285138D01*
X281791D02*
X282382D01*
X283465Y375098D02*
Y375689D01*
X284252Y374803D02*
X284669Y375221D01*
X283465Y372342D02*
Y372933D01*
X282260Y372811D02*
X282677Y373228D01*
X282260Y375221D02*
X282677Y374803D01*
X287008Y367717D02*
X288583D01*
X287795Y366929D02*
Y368504D01*
X278346Y367717D02*
X279921D01*
X257480Y377559D02*
X257898Y377141D01*
X257776Y378346D02*
X258366D01*
X255020D02*
X255610D01*
X256693Y379429D02*
Y380020D01*
X257480Y379134D02*
X257898Y379551D01*
X256693Y376673D02*
Y377264D01*
X255488Y377141D02*
X255906Y377559D01*
X255488Y379551D02*
X255906Y379134D01*
X257480Y368898D02*
X257898Y368480D01*
X257776Y369685D02*
X258366D01*
X255020D02*
X255610D01*
X256693Y370768D02*
Y371358D01*
X257480Y370472D02*
X257898Y370890D01*
X256693Y368012D02*
Y368602D01*
X255488Y368480D02*
X255906Y368898D01*
X255488Y370890D02*
X255906Y370472D01*
X252559Y373622D02*
X252953Y374016D01*
X251772D02*
X252953D01*
X252559Y374409D02*
X252953Y374016D01*
X252559Y379921D02*
X252953Y380315D01*
X251772D02*
X252953D01*
X252559Y380709D02*
X252953Y380315D01*
X260433Y374213D02*
X261614D01*
X261221Y373819D02*
X261614Y374213D01*
X261221Y374606D02*
X261614Y374213D01*
X260433Y380512D02*
X261614D01*
X261221Y380118D02*
X261614Y380512D01*
X261221Y380906D02*
X261614Y380512D01*
X257480Y373228D02*
X257898Y372811D01*
X257776Y374016D02*
X258366D01*
X255020D02*
X255610D01*
X256693Y375098D02*
Y375689D01*
X257480Y374803D02*
X257898Y375221D01*
X256693Y372342D02*
Y372933D01*
X255488Y372811D02*
X255906Y373228D01*
X255488Y375221D02*
X255906Y374803D01*
X260236Y367717D02*
X261811D01*
X261024Y366929D02*
Y368504D01*
X251575Y367717D02*
X253150D01*
X230709Y377559D02*
X231126Y377141D01*
X231004Y378346D02*
X231594D01*
X228248D02*
X228839D01*
X229921Y379429D02*
Y380020D01*
X230709Y379134D02*
X231126Y379551D01*
X229921Y376673D02*
Y377264D01*
X228716Y377141D02*
X229134Y377559D01*
X228716Y379551D02*
X229134Y379134D01*
X230709Y368898D02*
X231126Y368480D01*
X231004Y369685D02*
X231594D01*
X228248D02*
X228839D01*
X229921Y370768D02*
Y371358D01*
X230709Y370472D02*
X231126Y370890D01*
X229921Y368012D02*
Y368602D01*
X228716Y368480D02*
X229134Y368898D01*
X228716Y370890D02*
X229134Y370472D01*
X225787Y373622D02*
X226181Y374016D01*
X225000D02*
X226181D01*
X225787Y374409D02*
X226181Y374016D01*
X225787Y379921D02*
X226181Y380315D01*
X225000D02*
X226181D01*
X225787Y380709D02*
X226181Y380315D01*
X233661Y374213D02*
X234842D01*
X234449Y373819D02*
X234842Y374213D01*
X234449Y374606D02*
X234842Y374213D01*
X233661Y380512D02*
X234842D01*
X234449Y380118D02*
X234842Y380512D01*
X234449Y380906D02*
X234842Y380512D01*
X230709Y373228D02*
X231126Y372811D01*
X231004Y374016D02*
X231594D01*
X228248D02*
X228839D01*
X229921Y375098D02*
Y375689D01*
X230709Y374803D02*
X231126Y375221D01*
X229921Y372342D02*
Y372933D01*
X228716Y372811D02*
X229134Y373228D01*
X228716Y375221D02*
X229134Y374803D01*
X233465Y367717D02*
X235039D01*
X234252Y366929D02*
Y368504D01*
X224803Y367717D02*
X226378D01*
X203937Y377559D02*
X204355Y377141D01*
X204232Y378346D02*
X204823D01*
X201476D02*
X202067D01*
X203150Y379429D02*
Y380020D01*
X203937Y379134D02*
X204355Y379551D01*
X203150Y376673D02*
Y377264D01*
X201945Y377141D02*
X202362Y377559D01*
X201945Y379551D02*
X202362Y379134D01*
X203937Y368898D02*
X204355Y368480D01*
X204232Y369685D02*
X204823D01*
X201476D02*
X202067D01*
X203150Y370768D02*
Y371358D01*
X203937Y370472D02*
X204355Y370890D01*
X203150Y368012D02*
Y368602D01*
X201945Y368480D02*
X202362Y368898D01*
X201945Y370890D02*
X202362Y370472D01*
X199016Y373622D02*
X199409Y374016D01*
X198228D02*
X199409D01*
X199016Y374409D02*
X199409Y374016D01*
X199016Y379921D02*
X199409Y380315D01*
X198228D02*
X199409D01*
X199016Y380709D02*
X199409Y380315D01*
X206890Y374213D02*
X208071D01*
X207677Y373819D02*
X208071Y374213D01*
X207677Y374606D02*
X208071Y374213D01*
X206890Y380512D02*
X208071D01*
X207677Y380118D02*
X208071Y380512D01*
X207677Y380906D02*
X208071Y380512D01*
X203937Y373228D02*
X204355Y372811D01*
X204232Y374016D02*
X204823D01*
X201476D02*
X202067D01*
X203150Y375098D02*
Y375689D01*
X203937Y374803D02*
X204355Y375221D01*
X203150Y372342D02*
Y372933D01*
X201945Y372811D02*
X202362Y373228D01*
X201945Y375221D02*
X202362Y374803D01*
X206693Y367717D02*
X208268D01*
X207480Y366929D02*
Y368504D01*
X198031Y367717D02*
X199606D01*
X177165Y377559D02*
X177583Y377141D01*
X177461Y378346D02*
X178051D01*
X174705D02*
X175295D01*
X176378Y379429D02*
Y380020D01*
X177165Y379134D02*
X177583Y379551D01*
X176378Y376673D02*
Y377264D01*
X175173Y377141D02*
X175591Y377559D01*
X175173Y379551D02*
X175591Y379134D01*
X177165Y368898D02*
X177583Y368480D01*
X177461Y369685D02*
X178051D01*
X174705D02*
X175295D01*
X176378Y370768D02*
Y371358D01*
X177165Y370472D02*
X177583Y370890D01*
X176378Y368012D02*
Y368602D01*
X175173Y368480D02*
X175591Y368898D01*
X175173Y370890D02*
X175591Y370472D01*
X172244Y373622D02*
X172638Y374016D01*
X171457D02*
X172638D01*
X172244Y374409D02*
X172638Y374016D01*
X172244Y379921D02*
X172638Y380315D01*
X171457D02*
X172638D01*
X172244Y380709D02*
X172638Y380315D01*
X180118Y374213D02*
X181299D01*
X180905Y373819D02*
X181299Y374213D01*
X180905Y374606D02*
X181299Y374213D01*
X180118Y380512D02*
X181299D01*
X180905Y380118D02*
X181299Y380512D01*
X180905Y380906D02*
X181299Y380512D01*
X177165Y373228D02*
X177583Y372811D01*
X177461Y374016D02*
X178051D01*
X174705D02*
X175295D01*
X176378Y375098D02*
Y375689D01*
X177165Y374803D02*
X177583Y375221D01*
X176378Y372342D02*
Y372933D01*
X175173Y372811D02*
X175591Y373228D01*
X175173Y375221D02*
X175591Y374803D01*
X179921Y367717D02*
X181496D01*
X180709Y366929D02*
Y368504D01*
X171260Y367717D02*
X172835D01*
X150394Y377559D02*
X150811Y377141D01*
X150689Y378346D02*
X151279D01*
X147933D02*
X148524D01*
X149606Y379429D02*
Y380020D01*
X150394Y379134D02*
X150811Y379551D01*
X149606Y376673D02*
Y377264D01*
X148401Y377141D02*
X148819Y377559D01*
X148401Y379551D02*
X148819Y379134D01*
X150394Y368898D02*
X150811Y368480D01*
X150689Y369685D02*
X151279D01*
X147933D02*
X148524D01*
X149606Y370768D02*
Y371358D01*
X150394Y370472D02*
X150811Y370890D01*
X149606Y368012D02*
Y368602D01*
X148401Y368480D02*
X148819Y368898D01*
X148401Y370890D02*
X148819Y370472D01*
X145472Y373622D02*
X145866Y374016D01*
X144685D02*
X145866D01*
X145472Y374409D02*
X145866Y374016D01*
X145472Y379921D02*
X145866Y380315D01*
X144685D02*
X145866D01*
X145472Y380709D02*
X145866Y380315D01*
X153347Y374213D02*
X154528D01*
X154134Y373819D02*
X154528Y374213D01*
X154134Y374606D02*
X154528Y374213D01*
X153347Y380512D02*
X154528D01*
X154134Y380118D02*
X154528Y380512D01*
X154134Y380906D02*
X154528Y380512D01*
X150394Y373228D02*
X150811Y372811D01*
X150689Y374016D02*
X151279D01*
X147933D02*
X148524D01*
X149606Y375098D02*
Y375689D01*
X150394Y374803D02*
X150811Y375221D01*
X149606Y372342D02*
Y372933D01*
X148401Y372811D02*
X148819Y373228D01*
X148401Y375221D02*
X148819Y374803D01*
X153150Y367717D02*
X154724D01*
X153937Y366929D02*
Y368504D01*
X144488Y367717D02*
X146063D01*
X288976Y358661D02*
Y361811D01*
X262205Y358661D02*
Y361811D01*
X235433Y358661D02*
Y361811D01*
X208661Y358661D02*
Y361811D01*
X181890Y358661D02*
Y361811D01*
X155118Y358661D02*
Y361811D01*
X200787Y499016D02*
X202362D01*
X200787Y503346D02*
X202362D01*
X216535Y529528D02*
Y532677D01*
X199803Y524409D02*
Y525984D01*
X204134Y524409D02*
Y525984D01*
X200394Y537008D02*
X203543D01*
X173622Y540158D02*
Y543307D01*
X161811Y540158D02*
Y543307D01*
X175197Y526968D02*
X176772D01*
X175197Y522638D02*
X176772D01*
X259449Y523622D02*
Y526772D01*
X271260Y523622D02*
Y526772D01*
X229528Y537008D02*
X232677D01*
X228937Y524409D02*
Y525984D01*
X233268Y524409D02*
Y525984D01*
X230709Y510039D02*
X232283D01*
X230709Y505709D02*
X232283D01*
X155118Y485433D02*
Y488583D01*
X162205Y500394D02*
X165354D01*
X155118Y505905D02*
Y509055D01*
X277953Y485433D02*
Y488583D01*
Y505905D02*
Y509055D01*
X267717Y500394D02*
X270866D01*
X243307Y505905D02*
Y509055D01*
X242520Y503346D02*
X244094D01*
X242520Y499016D02*
X244094D01*
X230709Y503346D02*
X232283D01*
X230709Y499016D02*
X232283D01*
X190551Y503937D02*
Y507087D01*
X432283Y563976D02*
X433858D01*
X432283Y568307D02*
X433858D01*
X484252Y463189D02*
X485827D01*
X484252Y458858D02*
X485827D01*
X464567Y462992D02*
Y466142D01*
X459449Y456693D02*
Y459842D01*
X416142Y506496D02*
X417717D01*
X416142Y502165D02*
X417717D01*
X430709Y520079D02*
Y523228D01*
X443701Y498622D02*
X445276D01*
X443701Y502953D02*
X445276D01*
X443701Y509252D02*
X445276D01*
X443701Y504921D02*
X445276D01*
X443701Y511221D02*
X445276D01*
X443701Y515551D02*
X445276D01*
X437795Y487795D02*
Y490945D01*
X430905Y491339D02*
Y492913D01*
X426575Y491339D02*
Y492913D01*
X419882Y491339D02*
Y492913D01*
X424213Y491339D02*
Y492913D01*
X394488Y477165D02*
Y480315D01*
X406693Y486221D02*
X409842D01*
X416142Y508465D02*
X417717D01*
X416142Y512795D02*
X417717D01*
X399213Y498425D02*
Y501575D01*
X526378Y371654D02*
X527953D01*
X535827Y370866D02*
Y372441D01*
X535039Y371654D02*
X536614D01*
X530291Y379158D02*
X530709Y378740D01*
X530291Y376748D02*
X530709Y377165D01*
X531496Y376279D02*
Y376870D01*
X532283Y378740D02*
X532701Y379158D01*
X531496Y379035D02*
Y379626D01*
X529823Y377953D02*
X530413D01*
X532579D02*
X533169D01*
X532283Y377165D02*
X532701Y376748D01*
X536024Y384842D02*
X536417Y384449D01*
X536024Y384055D02*
X536417Y384449D01*
X535236D02*
X536417D01*
X536024Y378543D02*
X536417Y378150D01*
X536024Y377756D02*
X536417Y378150D01*
X535236D02*
X536417D01*
X527362Y384646D02*
X527756Y384252D01*
X526575D02*
X527756D01*
X527362Y383858D02*
X527756Y384252D01*
X527362Y378346D02*
X527756Y377953D01*
X526575D02*
X527756D01*
X527362Y377559D02*
X527756Y377953D01*
X530291Y374827D02*
X530709Y374410D01*
X530291Y372417D02*
X530709Y372835D01*
X531496Y371949D02*
Y372539D01*
X532283Y374410D02*
X532701Y374827D01*
X531496Y374705D02*
Y375295D01*
X529823Y373622D02*
X530413D01*
X532579D02*
X533169D01*
X532283Y372835D02*
X532701Y372417D01*
X530291Y383488D02*
X530709Y383071D01*
X530291Y381079D02*
X530709Y381496D01*
X531496Y380610D02*
Y381201D01*
X532283Y383071D02*
X532701Y383488D01*
X531496Y383366D02*
Y383957D01*
X529823Y382283D02*
X530413D01*
X532579D02*
X533169D01*
X532283Y381496D02*
X532701Y381079D01*
X537008Y362598D02*
Y365748D01*
X418898Y362598D02*
Y365748D01*
X408268Y371654D02*
X409842D01*
X417717Y370866D02*
Y372441D01*
X416929Y371654D02*
X418504D01*
X412181Y379158D02*
X412598Y378740D01*
X412181Y376748D02*
X412598Y377165D01*
X413386Y376279D02*
Y376870D01*
X414173Y378740D02*
X414591Y379158D01*
X413386Y379035D02*
Y379626D01*
X411713Y377953D02*
X412303D01*
X414468D02*
X415059D01*
X414173Y377165D02*
X414591Y376748D01*
X417913Y384842D02*
X418307Y384449D01*
X417913Y384055D02*
X418307Y384449D01*
X417126D02*
X418307D01*
X417913Y378543D02*
X418307Y378150D01*
X417913Y377756D02*
X418307Y378150D01*
X417126D02*
X418307D01*
X409252Y384646D02*
X409646Y384252D01*
X408465D02*
X409646D01*
X409252Y383858D02*
X409646Y384252D01*
X409252Y378346D02*
X409646Y377953D01*
X408465D02*
X409646D01*
X409252Y377559D02*
X409646Y377953D01*
X412181Y374827D02*
X412598Y374410D01*
X412181Y372417D02*
X412598Y372835D01*
X413386Y371949D02*
Y372539D01*
X414173Y374410D02*
X414591Y374827D01*
X413386Y374705D02*
Y375295D01*
X411713Y373622D02*
X412303D01*
X414468D02*
X415059D01*
X414173Y372835D02*
X414591Y372417D01*
X412181Y383488D02*
X412598Y383071D01*
X412181Y381079D02*
X412598Y381496D01*
X413386Y380610D02*
Y381201D01*
X414173Y383071D02*
X414591Y383488D01*
X413386Y383366D02*
Y383957D01*
X411713Y382283D02*
X412303D01*
X414468D02*
X415059D01*
X414173Y381496D02*
X414591Y381079D01*
X447638Y371654D02*
X449213D01*
X457087Y370866D02*
Y372441D01*
X456299Y371654D02*
X457874D01*
X451551Y379158D02*
X451968Y378740D01*
X451551Y376748D02*
X451968Y377165D01*
X452756Y376279D02*
Y376870D01*
X453543Y378740D02*
X453961Y379158D01*
X452756Y379035D02*
Y379626D01*
X451083Y377953D02*
X451673D01*
X453839D02*
X454429D01*
X453543Y377165D02*
X453961Y376748D01*
X457283Y384842D02*
X457677Y384449D01*
X457283Y384055D02*
X457677Y384449D01*
X456496D02*
X457677D01*
X457283Y378543D02*
X457677Y378150D01*
X457283Y377756D02*
X457677Y378150D01*
X456496D02*
X457677D01*
X448622Y384646D02*
X449016Y384252D01*
X447835D02*
X449016D01*
X448622Y383858D02*
X449016Y384252D01*
X448622Y378346D02*
X449016Y377953D01*
X447835D02*
X449016D01*
X448622Y377559D02*
X449016Y377953D01*
X451551Y374827D02*
X451968Y374410D01*
X451551Y372417D02*
X451968Y372835D01*
X452756Y371949D02*
Y372539D01*
X453543Y374410D02*
X453961Y374827D01*
X452756Y374705D02*
Y375295D01*
X451083Y373622D02*
X451673D01*
X453839D02*
X454429D01*
X453543Y372835D02*
X453961Y372417D01*
X451551Y383488D02*
X451968Y383071D01*
X451551Y381079D02*
X451968Y381496D01*
X452756Y380610D02*
Y381201D01*
X453543Y383071D02*
X453961Y383488D01*
X452756Y383366D02*
Y383957D01*
X451083Y382283D02*
X451673D01*
X453839D02*
X454429D01*
X453543Y381496D02*
X453961Y381079D01*
X467323Y418898D02*
X468898D01*
X476772Y418110D02*
Y419685D01*
X475984Y418898D02*
X477559D01*
X471236Y426402D02*
X471654Y425984D01*
X471236Y423992D02*
X471654Y424409D01*
X472441Y423524D02*
Y424114D01*
X473228Y425984D02*
X473646Y426402D01*
X472441Y426280D02*
Y426870D01*
X470768Y425197D02*
X471358D01*
X473524D02*
X474114D01*
X473228Y424409D02*
X473646Y423992D01*
X476968Y432087D02*
X477362Y431693D01*
X476968Y431299D02*
X477362Y431693D01*
X476181D02*
X477362D01*
X476968Y425787D02*
X477362Y425394D01*
X476968Y425000D02*
X477362Y425394D01*
X476181D02*
X477362D01*
X468307Y431890D02*
X468701Y431496D01*
X467520D02*
X468701D01*
X468307Y431102D02*
X468701Y431496D01*
X468307Y425591D02*
X468701Y425197D01*
X467520D02*
X468701D01*
X468307Y424803D02*
X468701Y425197D01*
X471236Y422071D02*
X471654Y421654D01*
X471236Y419661D02*
X471654Y420079D01*
X472441Y419193D02*
Y419783D01*
X473228Y421654D02*
X473646Y422071D01*
X472441Y421949D02*
Y422539D01*
X470768Y420866D02*
X471358D01*
X473524D02*
X474114D01*
X473228Y420079D02*
X473646Y419661D01*
X471236Y430733D02*
X471654Y430315D01*
X471236Y428323D02*
X471654Y428740D01*
X472441Y427854D02*
Y428445D01*
X473228Y430315D02*
X473646Y430733D01*
X472441Y430610D02*
Y431201D01*
X470768Y429528D02*
X471358D01*
X473524D02*
X474114D01*
X473228Y428740D02*
X473646Y428323D01*
X477953Y409842D02*
Y412992D01*
X458268Y362598D02*
Y365748D01*
X487008Y371654D02*
X488583D01*
X496457Y370866D02*
Y372441D01*
X495669Y371654D02*
X497244D01*
X490921Y379158D02*
X491339Y378740D01*
X490921Y376748D02*
X491339Y377165D01*
X492126Y376279D02*
Y376870D01*
X492913Y378740D02*
X493331Y379158D01*
X492126Y379035D02*
Y379626D01*
X490453Y377953D02*
X491043D01*
X493209D02*
X493799D01*
X492913Y377165D02*
X493331Y376748D01*
X496654Y384842D02*
X497047Y384449D01*
X496654Y384055D02*
X497047Y384449D01*
X495866D02*
X497047D01*
X496654Y378543D02*
X497047Y378150D01*
X496654Y377756D02*
X497047Y378150D01*
X495866D02*
X497047D01*
X487992Y384646D02*
X488386Y384252D01*
X487205D02*
X488386D01*
X487992Y383858D02*
X488386Y384252D01*
X487992Y378346D02*
X488386Y377953D01*
X487205D02*
X488386D01*
X487992Y377559D02*
X488386Y377953D01*
X490921Y374827D02*
X491339Y374410D01*
X490921Y372417D02*
X491339Y372835D01*
X492126Y371949D02*
Y372539D01*
X492913Y374410D02*
X493331Y374827D01*
X492126Y374705D02*
Y375295D01*
X490453Y373622D02*
X491043D01*
X493209D02*
X493799D01*
X492913Y372835D02*
X493331Y372417D01*
X490921Y383488D02*
X491339Y383071D01*
X490921Y381079D02*
X491339Y381496D01*
X492126Y380610D02*
Y381201D01*
X492913Y383071D02*
X493331Y383488D01*
X492126Y383366D02*
Y383957D01*
X490453Y382283D02*
X491043D01*
X493209D02*
X493799D01*
X492913Y381496D02*
X493331Y381079D01*
X401157Y551157D02*
X402732D01*
X410606Y550370D02*
Y551945D01*
X409819Y551157D02*
X411393D01*
X405070Y558661D02*
X405488Y558244D01*
X405070Y556251D02*
X405488Y556669D01*
X406275Y555783D02*
Y556374D01*
X407063Y558244D02*
X407480Y558661D01*
X406275Y558539D02*
Y559130D01*
X404602Y557456D02*
X405193D01*
X407358D02*
X407948D01*
X407063Y556669D02*
X407480Y556251D01*
X410803Y564346D02*
X411197Y563952D01*
X410803Y563559D02*
X411197Y563952D01*
X410015D02*
X411197D01*
X410803Y558047D02*
X411197Y557653D01*
X410803Y557260D02*
X411197Y557653D01*
X410015D02*
X411197D01*
X402142Y564149D02*
X402535Y563756D01*
X401354D02*
X402535D01*
X402142Y563362D02*
X402535Y563756D01*
X402142Y557850D02*
X402535Y557456D01*
X401354D02*
X402535D01*
X402142Y557063D02*
X402535Y557456D01*
X405070Y554331D02*
X405488Y553913D01*
X405070Y551921D02*
X405488Y552338D01*
X406275Y551452D02*
Y552043D01*
X407063Y553913D02*
X407480Y554331D01*
X406275Y554208D02*
Y554799D01*
X404602Y553126D02*
X405193D01*
X407358D02*
X407948D01*
X407063Y552338D02*
X407480Y551921D01*
X405070Y562992D02*
X405488Y562575D01*
X405070Y560582D02*
X405488Y561000D01*
X406275Y560114D02*
Y560705D01*
X407063Y562575D02*
X407480Y562992D01*
X406275Y562870D02*
Y563460D01*
X404602Y561787D02*
X405193D01*
X407358D02*
X407948D01*
X407063Y561000D02*
X407480Y560582D01*
X497638Y362598D02*
Y365748D01*
X411787Y542102D02*
Y545252D01*
X941665Y272525D02*
X940672Y272800D01*
X939642*
X938649Y272525*
Y258184D02*
X939642Y257909D01*
X940673*
X941665Y258184*
X985314Y195069D02*
X986427Y196182D01*
X988376Y192007D02*
X989489Y193120D01*
X980196Y200187D02*
X981309Y201301D01*
X983258Y197125D02*
X984371Y198238D01*
X985707Y210817D02*
X986821Y211930D01*
X988770Y207755D02*
X989883Y208868D01*
X990825Y205699D02*
X991939Y206812D01*
X993888Y202637D02*
X995001Y203750D01*
X984646Y241929D02*
X986220D01*
X984646Y246260D02*
X986220D01*
X962795Y183465D02*
Y185039D01*
X958465Y183465D02*
Y185039D01*
X880118Y127559D02*
Y129134D01*
X875787Y127559D02*
Y129134D01*
X969882Y128347D02*
Y129921D01*
X965551Y128347D02*
Y129921D01*
X881102Y173228D02*
Y176378D01*
X892126Y154527D02*
X895276D01*
X934646Y309252D02*
X936220D01*
X934646Y313583D02*
X936220D01*
X913976Y127953D02*
Y129527D01*
X918307Y127953D02*
Y129527D01*
X927165Y147638D02*
X930315D01*
X848425Y141535D02*
X850000D01*
X848425Y137205D02*
X850000D01*
X913780Y313583D02*
X915354D01*
X913780Y309252D02*
X915354D01*
X890945Y198228D02*
X892520D01*
X890945Y193898D02*
X892520D01*
X846063Y222835D02*
X847638D01*
X838189Y222047D02*
Y223622D01*
X837402Y222835D02*
X838976D01*
X843307Y215748D02*
X843725Y215330D01*
X843307Y217323D02*
X843725Y217740D01*
X842520Y217618D02*
Y218209D01*
X841315Y215330D02*
X841732Y215748D01*
X842520Y214862D02*
Y215453D01*
X843602Y216535D02*
X844193D01*
X840846D02*
X841437D01*
X841315Y217740D02*
X841732Y217323D01*
X837598Y210039D02*
X837992Y209646D01*
X837598Y210039D02*
X837992Y210433D01*
X837598Y210039D02*
X838780D01*
X837598Y216339D02*
X837992Y215945D01*
X837598Y216339D02*
X837992Y216732D01*
X837598Y216339D02*
X838780D01*
X846260Y210236D02*
X846653Y209842D01*
X846260Y210236D02*
X847441D01*
X846260D02*
X846653Y210630D01*
X846260Y216535D02*
X846653Y216142D01*
X846260Y216535D02*
X847441D01*
X846260D02*
X846653Y216929D01*
X843307Y220079D02*
X843725Y219661D01*
X843307Y221654D02*
X843725Y222071D01*
X842520Y221949D02*
Y222539D01*
X841315Y219661D02*
X841732Y220079D01*
X842520Y219193D02*
Y219783D01*
X843602Y220866D02*
X844193D01*
X840846D02*
X841437D01*
X841315Y222071D02*
X841732Y221654D01*
X843307Y211417D02*
X843725Y211000D01*
X843307Y212992D02*
X843725Y213410D01*
X842520Y213287D02*
Y213878D01*
X841315Y211000D02*
X841732Y211417D01*
X842520Y210531D02*
Y211122D01*
X843602Y212205D02*
X844193D01*
X840846D02*
X841437D01*
X841315Y213410D02*
X841732Y212992D01*
X837402Y241732D02*
X838976D01*
X846850Y240945D02*
Y242520D01*
X846063Y241732D02*
X847638D01*
X841315Y249236D02*
X841732Y248819D01*
X841315Y246827D02*
X841732Y247244D01*
X842520Y246358D02*
Y246949D01*
X843307Y248819D02*
X843725Y249236D01*
X842520Y249114D02*
Y249705D01*
X840846Y248031D02*
X841437D01*
X843602D02*
X844193D01*
X843307Y247244D02*
X843725Y246827D01*
X847047Y254921D02*
X847441Y254527D01*
X847047Y254134D02*
X847441Y254527D01*
X846260D02*
X847441D01*
X847047Y248622D02*
X847441Y248228D01*
X847047Y247835D02*
X847441Y248228D01*
X846260D02*
X847441D01*
X838386Y254724D02*
X838780Y254331D01*
X837598D02*
X838780D01*
X838386Y253937D02*
X838780Y254331D01*
X838386Y248425D02*
X838780Y248031D01*
X837598D02*
X838780D01*
X838386Y247638D02*
X838780Y248031D01*
X841315Y244906D02*
X841732Y244488D01*
X841315Y242496D02*
X841732Y242913D01*
X842520Y242027D02*
Y242618D01*
X843307Y244488D02*
X843725Y244906D01*
X842520Y244783D02*
Y245374D01*
X840846Y243701D02*
X841437D01*
X843602D02*
X844193D01*
X843307Y242913D02*
X843725Y242496D01*
X841315Y253567D02*
X841732Y253150D01*
X841315Y251157D02*
X841732Y251575D01*
X842520Y250689D02*
Y251279D01*
X843307Y253150D02*
X843725Y253567D01*
X842520Y253445D02*
Y254035D01*
X840846Y252362D02*
X841437D01*
X843602D02*
X844193D01*
X843307Y251575D02*
X843725Y251157D01*
X846063Y285827D02*
X847638D01*
X838189Y285039D02*
Y286614D01*
X837402Y285827D02*
X838976D01*
X843307Y278740D02*
X843725Y278323D01*
X843307Y280315D02*
X843725Y280732D01*
X842520Y280610D02*
Y281201D01*
X841315Y278323D02*
X841732Y278740D01*
X842520Y277854D02*
Y278445D01*
X843602Y279528D02*
X844193D01*
X840846D02*
X841437D01*
X841315Y280732D02*
X841732Y280315D01*
X837598Y273031D02*
X837992Y272638D01*
X837598Y273031D02*
X837992Y273425D01*
X837598Y273031D02*
X838780D01*
X837598Y279331D02*
X837992Y278937D01*
X837598Y279331D02*
X837992Y279724D01*
X837598Y279331D02*
X838780D01*
X846260Y273228D02*
X846653Y272835D01*
X846260Y273228D02*
X847441D01*
X846260D02*
X846653Y273622D01*
X846260Y279528D02*
X846653Y279134D01*
X846260Y279528D02*
X847441D01*
X846260D02*
X846653Y279921D01*
X843307Y283071D02*
X843725Y282653D01*
X843307Y284646D02*
X843725Y285063D01*
X842520Y284941D02*
Y285531D01*
X841315Y282653D02*
X841732Y283071D01*
X842520Y282185D02*
Y282776D01*
X843602Y283858D02*
X844193D01*
X840846D02*
X841437D01*
X841315Y285063D02*
X841732Y284646D01*
X843307Y274409D02*
X843725Y273992D01*
X843307Y275984D02*
X843725Y276402D01*
X842520Y276279D02*
Y276870D01*
X841315Y273992D02*
X841732Y274409D01*
X842520Y273524D02*
Y274114D01*
X843602Y275197D02*
X844193D01*
X840846D02*
X841437D01*
X841315Y276402D02*
X841732Y275984D01*
X1002756Y178740D02*
X1004331D01*
X1012205Y177953D02*
Y179527D01*
X1011417Y178740D02*
X1012992D01*
X1006669Y186244D02*
X1007087Y185827D01*
X1006669Y183834D02*
X1007087Y184252D01*
X1007874Y183366D02*
Y183957D01*
X1008661Y185827D02*
X1009079Y186244D01*
X1007874Y186122D02*
Y186713D01*
X1006201Y185039D02*
X1006791D01*
X1008957D02*
X1009547D01*
X1008661Y184252D02*
X1009079Y183834D01*
X1012402Y191929D02*
X1012795Y191535D01*
X1012402Y191142D02*
X1012795Y191535D01*
X1011614D02*
X1012795D01*
X1012402Y185630D02*
X1012795Y185236D01*
X1012402Y184843D02*
X1012795Y185236D01*
X1011614D02*
X1012795D01*
X1003740Y191732D02*
X1004134Y191339D01*
X1002953D02*
X1004134D01*
X1003740Y190945D02*
X1004134Y191339D01*
X1003740Y185433D02*
X1004134Y185039D01*
X1002953D02*
X1004134D01*
X1003740Y184646D02*
X1004134Y185039D01*
X1006669Y181914D02*
X1007087Y181496D01*
X1006669Y179504D02*
X1007087Y179921D01*
X1007874Y179035D02*
Y179626D01*
X1008661Y181496D02*
X1009079Y181914D01*
X1007874Y181791D02*
Y182382D01*
X1006201Y180709D02*
X1006791D01*
X1008957D02*
X1009547D01*
X1008661Y179921D02*
X1009079Y179504D01*
X1006669Y190575D02*
X1007087Y190157D01*
X1006669Y188165D02*
X1007087Y188583D01*
X1007874Y187697D02*
Y188287D01*
X1008661Y190157D02*
X1009079Y190575D01*
X1007874Y190453D02*
Y191043D01*
X1006201Y189370D02*
X1006791D01*
X1008957D02*
X1009547D01*
X1008661Y188583D02*
X1009079Y188165D01*
X1013780Y169685D02*
Y172835D01*
X1001968Y165748D02*
Y168898D01*
X1011417Y159843D02*
X1012992D01*
X1003543Y159055D02*
Y160630D01*
X1002756Y159843D02*
X1004331D01*
X1008661Y152756D02*
X1009079Y152338D01*
X1008661Y154331D02*
X1009079Y154748D01*
X1007874Y154626D02*
Y155217D01*
X1006669Y152338D02*
X1007087Y152756D01*
X1007874Y151870D02*
Y152461D01*
X1008957Y153543D02*
X1009547D01*
X1006201D02*
X1006791D01*
X1006669Y154748D02*
X1007087Y154331D01*
X1002953Y147047D02*
X1003347Y146653D01*
X1002953Y147047D02*
X1003347Y147441D01*
X1002953Y147047D02*
X1004134D01*
X1002953Y153346D02*
X1003347Y152953D01*
X1002953Y153346D02*
X1003347Y153740D01*
X1002953Y153346D02*
X1004134D01*
X1011614Y147244D02*
X1012008Y146850D01*
X1011614Y147244D02*
X1012795D01*
X1011614D02*
X1012008Y147638D01*
X1011614Y153543D02*
X1012008Y153150D01*
X1011614Y153543D02*
X1012795D01*
X1011614D02*
X1012008Y153937D01*
X1008661Y157087D02*
X1009079Y156669D01*
X1008661Y158661D02*
X1009079Y159079D01*
X1007874Y158957D02*
Y159547D01*
X1006669Y156669D02*
X1007087Y157087D01*
X1007874Y156201D02*
Y156791D01*
X1008957Y157874D02*
X1009547D01*
X1006201D02*
X1006791D01*
X1006669Y159079D02*
X1007087Y158661D01*
X1008661Y148425D02*
X1009079Y148008D01*
X1008661Y150000D02*
X1009079Y150418D01*
X1007874Y150295D02*
Y150886D01*
X1006669Y148008D02*
X1007087Y148425D01*
X1007874Y147539D02*
Y148130D01*
X1008957Y149213D02*
X1009547D01*
X1006201D02*
X1006791D01*
X1006669Y150418D02*
X1007087Y150000D01*
X948425Y159843D02*
X950000D01*
X940551Y159055D02*
Y160630D01*
X939764Y159843D02*
X941339D01*
X945669Y152756D02*
X946087Y152338D01*
X945669Y154331D02*
X946087Y154748D01*
X944882Y154626D02*
Y155217D01*
X943677Y152338D02*
X944094Y152756D01*
X944882Y151870D02*
Y152461D01*
X945965Y153543D02*
X946555D01*
X943209D02*
X943799D01*
X943677Y154748D02*
X944094Y154331D01*
X939961Y147047D02*
X940354Y146653D01*
X939961Y147047D02*
X940354Y147441D01*
X939961Y147047D02*
X941142D01*
X939961Y153346D02*
X940354Y152953D01*
X939961Y153346D02*
X940354Y153740D01*
X939961Y153346D02*
X941142D01*
X948622Y147244D02*
X949016Y146850D01*
X948622Y147244D02*
X949803D01*
X948622D02*
X949016Y147638D01*
X948622Y153543D02*
X949016Y153150D01*
X948622Y153543D02*
X949803D01*
X948622D02*
X949016Y153937D01*
X945669Y157087D02*
X946087Y156669D01*
X945669Y158661D02*
X946087Y159079D01*
X944882Y158957D02*
Y159547D01*
X943677Y156669D02*
X944094Y157087D01*
X944882Y156201D02*
Y156791D01*
X945965Y157874D02*
X946555D01*
X943209D02*
X943799D01*
X943677Y159079D02*
X944094Y158661D01*
X945669Y148425D02*
X946087Y148008D01*
X945669Y150000D02*
X946087Y150418D01*
X944882Y150295D02*
Y150886D01*
X943677Y148008D02*
X944094Y148425D01*
X944882Y147539D02*
Y148130D01*
X945965Y149213D02*
X946555D01*
X943209D02*
X943799D01*
X943677Y150418D02*
X944094Y150000D01*
X979921Y159843D02*
X981496D01*
X972047Y159055D02*
Y160630D01*
X971260Y159843D02*
X972835D01*
X977165Y152756D02*
X977583Y152338D01*
X977165Y154331D02*
X977583Y154748D01*
X976378Y154626D02*
Y155217D01*
X975173Y152338D02*
X975591Y152756D01*
X976378Y151870D02*
Y152461D01*
X977461Y153543D02*
X978051D01*
X974705D02*
X975295D01*
X975173Y154748D02*
X975591Y154331D01*
X971457Y147047D02*
X971850Y146653D01*
X971457Y147047D02*
X971850Y147441D01*
X971457Y147047D02*
X972638D01*
X971457Y153346D02*
X971850Y152953D01*
X971457Y153346D02*
X971850Y153740D01*
X971457Y153346D02*
X972638D01*
X980118Y147244D02*
X980512Y146850D01*
X980118Y147244D02*
X981299D01*
X980118D02*
X980512Y147638D01*
X980118Y153543D02*
X980512Y153150D01*
X980118Y153543D02*
X981299D01*
X980118D02*
X980512Y153937D01*
X977165Y157087D02*
X977583Y156669D01*
X977165Y158661D02*
X977583Y159079D01*
X976378Y158957D02*
Y159547D01*
X975173Y156669D02*
X975591Y157087D01*
X976378Y156201D02*
Y156791D01*
X977461Y157874D02*
X978051D01*
X974705D02*
X975295D01*
X975173Y159079D02*
X975591Y158661D01*
X977165Y148425D02*
X977583Y148008D01*
X977165Y150000D02*
X977583Y150418D01*
X976378Y150295D02*
Y150886D01*
X975173Y148008D02*
X975591Y148425D01*
X976378Y147539D02*
Y148130D01*
X977461Y149213D02*
X978051D01*
X974705D02*
X975295D01*
X975173Y150418D02*
X975591Y150000D01*
X970472Y165748D02*
Y168898D01*
X868110Y165748D02*
Y168898D01*
X877559Y159843D02*
X879134D01*
X869685Y159055D02*
Y160630D01*
X868898Y159843D02*
X870472D01*
X874803Y152756D02*
X875221Y152338D01*
X874803Y154331D02*
X875221Y154748D01*
X874016Y154626D02*
Y155217D01*
X872811Y152338D02*
X873228Y152756D01*
X874016Y151870D02*
Y152461D01*
X875098Y153543D02*
X875689D01*
X872342D02*
X872933D01*
X872811Y154748D02*
X873228Y154331D01*
X869094Y147047D02*
X869488Y146653D01*
X869094Y147047D02*
X869488Y147441D01*
X869094Y147047D02*
X870276D01*
X869094Y153346D02*
X869488Y152953D01*
X869094Y153346D02*
X869488Y153740D01*
X869094Y153346D02*
X870276D01*
X877756Y147244D02*
X878150Y146850D01*
X877756Y147244D02*
X878937D01*
X877756D02*
X878150Y147638D01*
X877756Y153543D02*
X878150Y153150D01*
X877756Y153543D02*
X878937D01*
X877756D02*
X878150Y153937D01*
X874803Y157087D02*
X875221Y156669D01*
X874803Y158661D02*
X875221Y159079D01*
X874016Y158957D02*
Y159547D01*
X872811Y156669D02*
X873228Y157087D01*
X874016Y156201D02*
Y156791D01*
X875098Y157874D02*
X875689D01*
X872342D02*
X872933D01*
X872811Y159079D02*
X873228Y158661D01*
X874803Y148425D02*
X875221Y148008D01*
X874803Y150000D02*
X875221Y150418D01*
X874016Y150295D02*
Y150886D01*
X872811Y148008D02*
X873228Y148425D01*
X874016Y147539D02*
Y148130D01*
X875098Y149213D02*
X875689D01*
X872342D02*
X872933D01*
X872811Y150418D02*
X873228Y150000D01*
X837402Y178740D02*
X838976D01*
X846850Y177953D02*
Y179527D01*
X846063Y178740D02*
X847638D01*
X841315Y186244D02*
X841732Y185827D01*
X841315Y183834D02*
X841732Y184252D01*
X842520Y183366D02*
Y183957D01*
X843307Y185827D02*
X843725Y186244D01*
X842520Y186122D02*
Y186713D01*
X840846Y185039D02*
X841437D01*
X843602D02*
X844193D01*
X843307Y184252D02*
X843725Y183834D01*
X847047Y191929D02*
X847441Y191535D01*
X847047Y191142D02*
X847441Y191535D01*
X846260D02*
X847441D01*
X847047Y185630D02*
X847441Y185236D01*
X847047Y184843D02*
X847441Y185236D01*
X846260D02*
X847441D01*
X838386Y191732D02*
X838780Y191339D01*
X837598D02*
X838780D01*
X838386Y190945D02*
X838780Y191339D01*
X838386Y185433D02*
X838780Y185039D01*
X837598D02*
X838780D01*
X838386Y184646D02*
X838780Y185039D01*
X841315Y181914D02*
X841732Y181496D01*
X841315Y179504D02*
X841732Y179921D01*
X842520Y179035D02*
Y179626D01*
X843307Y181496D02*
X843725Y181914D01*
X842520Y181791D02*
Y182382D01*
X840846Y180709D02*
X841437D01*
X843602D02*
X844193D01*
X843307Y179921D02*
X843725Y179504D01*
X841315Y190575D02*
X841732Y190157D01*
X841315Y188165D02*
X841732Y188583D01*
X842520Y187697D02*
Y188287D01*
X843307Y190157D02*
X843725Y190575D01*
X842520Y190453D02*
Y191043D01*
X840846Y189370D02*
X841437D01*
X843602D02*
X844193D01*
X843307Y188583D02*
X843725Y188165D01*
X848425Y169685D02*
Y172835D01*
X846063Y159843D02*
X847638D01*
X838189Y159055D02*
Y160630D01*
X837402Y159843D02*
X838976D01*
X843307Y152756D02*
X843725Y152338D01*
X843307Y154331D02*
X843725Y154748D01*
X842520Y154626D02*
Y155217D01*
X841315Y152338D02*
X841732Y152756D01*
X842520Y151870D02*
Y152461D01*
X843602Y153543D02*
X844193D01*
X840846D02*
X841437D01*
X841315Y154748D02*
X841732Y154331D01*
X837598Y147047D02*
X837992Y146653D01*
X837598Y147047D02*
X837992Y147441D01*
X837598Y147047D02*
X838780D01*
X837598Y153346D02*
X837992Y152953D01*
X837598Y153346D02*
X837992Y153740D01*
X837598Y153346D02*
X838780D01*
X846260Y147244D02*
X846653Y146850D01*
X846260Y147244D02*
X847441D01*
X846260D02*
X846653Y147638D01*
X846260Y153543D02*
X846653Y153150D01*
X846260Y153543D02*
X847441D01*
X846260D02*
X846653Y153937D01*
X843307Y157087D02*
X843725Y156669D01*
X843307Y158661D02*
X843725Y159079D01*
X842520Y158957D02*
Y159547D01*
X841315Y156669D02*
X841732Y157087D01*
X842520Y156201D02*
Y156791D01*
X843602Y157874D02*
X844193D01*
X840846D02*
X841437D01*
X841315Y159079D02*
X841732Y158661D01*
X843307Y148425D02*
X843725Y148008D01*
X843307Y150000D02*
X843725Y150418D01*
X842520Y150295D02*
Y150886D01*
X841315Y148008D02*
X841732Y148425D01*
X842520Y147539D02*
Y148130D01*
X843602Y149213D02*
X844193D01*
X840846D02*
X841437D01*
X841315Y150418D02*
X841732Y150000D01*
X836614Y165748D02*
Y168898D01*
Y228740D02*
Y231890D01*
X848425Y232677D02*
Y235827D01*
X836614Y291732D02*
Y294882D01*
X984646Y228937D02*
X986220D01*
X984646Y233268D02*
X986220D01*
X984646Y235236D02*
X986220D01*
X984646Y239567D02*
X986220D01*
X984646Y276969D02*
X986220D01*
X984646Y281299D02*
X986220D01*
X984646Y270669D02*
X986220D01*
X984646Y275000D02*
X986220D01*
X928347Y288189D02*
Y291339D01*
X899402Y150713D02*
X902551D01*
X917323Y213386D02*
X920472D01*
X940158Y245669D02*
Y248819D01*
Y251969D02*
Y255118D01*
X933071Y259055D02*
Y271654D01*
X885107Y233791D02*
X887334Y231564D01*
X957087Y211417D02*
Y214567D01*
Y217717D02*
Y220866D01*
Y224016D02*
Y227165D01*
X873109Y205718D02*
X874222Y204605D01*
X876171Y208781D02*
X877285Y207667D01*
X919094Y250394D02*
Y251969D01*
X923425Y250394D02*
Y251969D01*
X911811Y263386D02*
Y266535D01*
X911024Y273425D02*
X912598D01*
X911024Y269094D02*
X912598D01*
X911024Y275394D02*
X912598D01*
X911024Y279724D02*
X912598D01*
X925197Y275590D02*
Y278740D01*
X939764Y298425D02*
Y301575D01*
X909842Y285236D02*
X911417D01*
X909842Y289567D02*
X911417D01*
X909842Y291535D02*
X911417D01*
X909842Y295866D02*
X911417D01*
X910630Y298425D02*
Y301575D01*
X940748Y217717D02*
Y219291D01*
X936417Y217717D02*
Y219291D01*
X924409Y218504D02*
X927559D01*
X934449Y217717D02*
Y219291D01*
X930118Y217717D02*
Y219291D01*
X686614Y484646D02*
Y487795D01*
X735821Y422830D02*
Y423815D01*
X720862Y422830D02*
Y423815D01*
X734837Y402958D02*
X735821D01*
Y405065*
X724897Y423815D02*
X726964D01*
X729720D02*
X731787D01*
X723677Y402949D02*
X725084D01*
X720862Y409710D02*
Y410960D01*
X738976Y407087D02*
X742126D01*
X745079Y404331D02*
Y405905D01*
X749409Y404331D02*
Y405905D01*
X741339Y394488D02*
Y397638D01*
X714961Y405512D02*
X718110D01*
X718898Y399016D02*
X720472D01*
X718898Y394685D02*
X720472D01*
X781102Y484646D02*
Y487795D01*
X749606Y484646D02*
Y487795D01*
X718110Y484646D02*
Y487795D01*
X655118Y484646D02*
Y487795D01*
X650394Y503543D02*
X650811Y503126D01*
X650689Y504331D02*
X651279D01*
X647933D02*
X648524D01*
X649606Y505413D02*
Y506004D01*
X650394Y505118D02*
X650811Y505536D01*
X649606Y502658D02*
Y503248D01*
X648401Y503126D02*
X648819Y503543D01*
X648401Y505536D02*
X648819Y505118D01*
X650394Y494882D02*
X650811Y494464D01*
X650689Y495669D02*
X651279D01*
X647933D02*
X648524D01*
X649606Y496752D02*
Y497342D01*
X650394Y496457D02*
X650811Y496874D01*
X649606Y493996D02*
Y494587D01*
X648401Y494464D02*
X648819Y494882D01*
X648401Y496874D02*
X648819Y496457D01*
X645472Y499606D02*
X645866Y500000D01*
X644685D02*
X645866D01*
X645472Y500394D02*
X645866Y500000D01*
X645472Y505905D02*
X645866Y506299D01*
X644685D02*
X645866D01*
X645472Y506693D02*
X645866Y506299D01*
X653346Y500197D02*
X654528D01*
X654134Y499803D02*
X654528Y500197D01*
X654134Y500591D02*
X654528Y500197D01*
X653346Y506496D02*
X654528D01*
X654134Y506102D02*
X654528Y506496D01*
X654134Y506890D02*
X654528Y506496D01*
X650394Y499213D02*
X650811Y498795D01*
X650689Y500000D02*
X651279D01*
X647933D02*
X648524D01*
X649606Y501083D02*
Y501673D01*
X650394Y500787D02*
X650811Y501205D01*
X649606Y498327D02*
Y498917D01*
X648401Y498795D02*
X648819Y499213D01*
X648401Y501205D02*
X648819Y500787D01*
X653150Y493701D02*
X654724D01*
X653937Y492913D02*
Y494488D01*
X644488Y493701D02*
X646063D01*
X681890Y503543D02*
X682307Y503126D01*
X682185Y504331D02*
X682776D01*
X679429D02*
X680020D01*
X681102Y505413D02*
Y506004D01*
X681890Y505118D02*
X682307Y505536D01*
X681102Y502658D02*
Y503248D01*
X679897Y503126D02*
X680315Y503543D01*
X679897Y505536D02*
X680315Y505118D01*
X681890Y494882D02*
X682307Y494464D01*
X682185Y495669D02*
X682776D01*
X679429D02*
X680020D01*
X681102Y496752D02*
Y497342D01*
X681890Y496457D02*
X682307Y496874D01*
X681102Y493996D02*
Y494587D01*
X679897Y494464D02*
X680315Y494882D01*
X679897Y496874D02*
X680315Y496457D01*
X676968Y499606D02*
X677362Y500000D01*
X676181D02*
X677362D01*
X676968Y500394D02*
X677362Y500000D01*
X676968Y505905D02*
X677362Y506299D01*
X676181D02*
X677362D01*
X676968Y506693D02*
X677362Y506299D01*
X684842Y500197D02*
X686024D01*
X685630Y499803D02*
X686024Y500197D01*
X685630Y500591D02*
X686024Y500197D01*
X684842Y506496D02*
X686024D01*
X685630Y506102D02*
X686024Y506496D01*
X685630Y506890D02*
X686024Y506496D01*
X681890Y499213D02*
X682307Y498795D01*
X682185Y500000D02*
X682776D01*
X679429D02*
X680020D01*
X681102Y501083D02*
Y501673D01*
X681890Y500787D02*
X682307Y501205D01*
X681102Y498327D02*
Y498917D01*
X679897Y498795D02*
X680315Y499213D01*
X679897Y501205D02*
X680315Y500787D01*
X684646Y493701D02*
X686220D01*
X685433Y492913D02*
Y494488D01*
X675984Y493701D02*
X677559D01*
X713386Y503543D02*
X713803Y503126D01*
X713681Y504331D02*
X714272D01*
X710925D02*
X711516D01*
X712598Y505413D02*
Y506004D01*
X713386Y505118D02*
X713803Y505536D01*
X712598Y502658D02*
Y503248D01*
X711393Y503126D02*
X711811Y503543D01*
X711393Y505536D02*
X711811Y505118D01*
X713386Y494882D02*
X713803Y494464D01*
X713681Y495669D02*
X714272D01*
X710925D02*
X711516D01*
X712598Y496752D02*
Y497342D01*
X713386Y496457D02*
X713803Y496874D01*
X712598Y493996D02*
Y494587D01*
X711393Y494464D02*
X711811Y494882D01*
X711393Y496874D02*
X711811Y496457D01*
X708464Y499606D02*
X708858Y500000D01*
X707677D02*
X708858D01*
X708464Y500394D02*
X708858Y500000D01*
X708464Y505905D02*
X708858Y506299D01*
X707677D02*
X708858D01*
X708464Y506693D02*
X708858Y506299D01*
X716339Y500197D02*
X717520D01*
X717126Y499803D02*
X717520Y500197D01*
X717126Y500591D02*
X717520Y500197D01*
X716339Y506496D02*
X717520D01*
X717126Y506102D02*
X717520Y506496D01*
X717126Y506890D02*
X717520Y506496D01*
X713386Y499213D02*
X713803Y498795D01*
X713681Y500000D02*
X714272D01*
X710925D02*
X711516D01*
X712598Y501083D02*
Y501673D01*
X713386Y500787D02*
X713803Y501205D01*
X712598Y498327D02*
Y498917D01*
X711393Y498795D02*
X711811Y499213D01*
X711393Y501205D02*
X711811Y500787D01*
X716142Y493701D02*
X717717D01*
X716929Y492913D02*
Y494488D01*
X707480Y493701D02*
X709055D01*
X744882Y503543D02*
X745299Y503126D01*
X745177Y504331D02*
X745768D01*
X742421D02*
X743012D01*
X744095Y505413D02*
Y506004D01*
X744882Y505118D02*
X745299Y505536D01*
X744095Y502658D02*
Y503248D01*
X742889Y503126D02*
X743307Y503543D01*
X742889Y505536D02*
X743307Y505118D01*
X744882Y494882D02*
X745299Y494464D01*
X745177Y495669D02*
X745768D01*
X742421D02*
X743012D01*
X744095Y496752D02*
Y497342D01*
X744882Y496457D02*
X745299Y496874D01*
X744095Y493996D02*
Y494587D01*
X742889Y494464D02*
X743307Y494882D01*
X742889Y496874D02*
X743307Y496457D01*
X739961Y499606D02*
X740354Y500000D01*
X739173D02*
X740354D01*
X739961Y500394D02*
X740354Y500000D01*
X739961Y505905D02*
X740354Y506299D01*
X739173D02*
X740354D01*
X739961Y506693D02*
X740354Y506299D01*
X747835Y500197D02*
X749016D01*
X748622Y499803D02*
X749016Y500197D01*
X748622Y500591D02*
X749016Y500197D01*
X747835Y506496D02*
X749016D01*
X748622Y506102D02*
X749016Y506496D01*
X748622Y506890D02*
X749016Y506496D01*
X744882Y499213D02*
X745299Y498795D01*
X745177Y500000D02*
X745768D01*
X742421D02*
X743012D01*
X744095Y501083D02*
Y501673D01*
X744882Y500787D02*
X745299Y501205D01*
X744095Y498327D02*
Y498917D01*
X742889Y498795D02*
X743307Y499213D01*
X742889Y501205D02*
X743307Y500787D01*
X747638Y493701D02*
X749213D01*
X748425Y492913D02*
Y494488D01*
X738976Y493701D02*
X740551D01*
X776378Y503543D02*
X776795Y503126D01*
X776673Y504331D02*
X777264D01*
X773917D02*
X774508D01*
X775591Y505413D02*
Y506004D01*
X776378Y505118D02*
X776795Y505536D01*
X775591Y502658D02*
Y503248D01*
X774385Y503126D02*
X774803Y503543D01*
X774385Y505536D02*
X774803Y505118D01*
X776378Y494882D02*
X776795Y494464D01*
X776673Y495669D02*
X777264D01*
X773917D02*
X774508D01*
X775591Y496752D02*
Y497342D01*
X776378Y496457D02*
X776795Y496874D01*
X775591Y493996D02*
Y494587D01*
X774385Y494464D02*
X774803Y494882D01*
X774385Y496874D02*
X774803Y496457D01*
X771457Y499606D02*
X771850Y500000D01*
X770669D02*
X771850D01*
X771457Y500394D02*
X771850Y500000D01*
X771457Y505905D02*
X771850Y506299D01*
X770669D02*
X771850D01*
X771457Y506693D02*
X771850Y506299D01*
X779331Y500197D02*
X780512D01*
X780118Y499803D02*
X780512Y500197D01*
X780118Y500591D02*
X780512Y500197D01*
X779331Y506496D02*
X780512D01*
X780118Y506102D02*
X780512Y506496D01*
X780118Y506890D02*
X780512Y506496D01*
X776378Y499213D02*
X776795Y498795D01*
X776673Y500000D02*
X777264D01*
X773917D02*
X774508D01*
X775591Y501083D02*
Y501673D01*
X776378Y500787D02*
X776795Y501205D01*
X775591Y498327D02*
Y498917D01*
X774385Y498795D02*
X774803Y499213D01*
X774385Y501205D02*
X774803Y500787D01*
X779134Y493701D02*
X780709D01*
X779921Y492913D02*
Y494488D01*
X770472Y493701D02*
X772047D01*
X807874Y503543D02*
X808292Y503126D01*
X808169Y504331D02*
X808760D01*
X805413D02*
X806004D01*
X807087Y505413D02*
Y506004D01*
X807874Y505118D02*
X808292Y505536D01*
X807087Y502658D02*
Y503248D01*
X805882Y503126D02*
X806299Y503543D01*
X805882Y505536D02*
X806299Y505118D01*
X807874Y494882D02*
X808292Y494464D01*
X808169Y495669D02*
X808760D01*
X805413D02*
X806004D01*
X807087Y496752D02*
Y497342D01*
X807874Y496457D02*
X808292Y496874D01*
X807087Y493996D02*
Y494587D01*
X805882Y494464D02*
X806299Y494882D01*
X805882Y496874D02*
X806299Y496457D01*
X802953Y499606D02*
X803346Y500000D01*
X802165D02*
X803346D01*
X802953Y500394D02*
X803346Y500000D01*
X802953Y505905D02*
X803346Y506299D01*
X802165D02*
X803346D01*
X802953Y506693D02*
X803346Y506299D01*
X810827Y500197D02*
X812008D01*
X811614Y499803D02*
X812008Y500197D01*
X811614Y500591D02*
X812008Y500197D01*
X810827Y506496D02*
X812008D01*
X811614Y506102D02*
X812008Y506496D01*
X811614Y506890D02*
X812008Y506496D01*
X807874Y499213D02*
X808292Y498795D01*
X808169Y500000D02*
X808760D01*
X805413D02*
X806004D01*
X807087Y501083D02*
Y501673D01*
X807874Y500787D02*
X808292Y501205D01*
X807087Y498327D02*
Y498917D01*
X805882Y498795D02*
X806299Y499213D01*
X805882Y501205D02*
X806299Y500787D01*
X810630Y493701D02*
X812205D01*
X811417Y492913D02*
Y494488D01*
X801968Y493701D02*
X803543D01*
X814173Y483465D02*
X817323D01*
X730905Y560236D02*
Y561811D01*
X735236Y560236D02*
Y561811D01*
X720472Y561024D02*
X723622D01*
X713386Y562205D02*
Y565354D01*
X647284Y172480D02*
X650433D01*
X650039Y103189D02*
Y106339D01*
X745709Y228780D02*
Y231929D01*
X698465Y228780D02*
Y231929D01*
X651221Y228780D02*
Y231929D01*
X603976Y228780D02*
Y231929D01*
X639409Y112244D02*
X640984D01*
X648858Y111457D02*
Y113031D01*
X648071Y112244D02*
X649646D01*
X643323Y119748D02*
X643740Y119331D01*
X643323Y117338D02*
X643740Y117756D01*
X644527Y116870D02*
Y117461D01*
X645315Y119331D02*
X645732Y119748D01*
X644527Y119626D02*
Y120217D01*
X642854Y118543D02*
X643445D01*
X645610D02*
X646201D01*
X645315Y117756D02*
X645732Y117338D01*
X649055Y125433D02*
X649449Y125039D01*
X649055Y124646D02*
X649449Y125039D01*
X648268D02*
X649449D01*
X649055Y119134D02*
X649449Y118740D01*
X649055Y118347D02*
X649449Y118740D01*
X648268D02*
X649449D01*
X640394Y125236D02*
X640787Y124843D01*
X639606D02*
X640787D01*
X640394Y124449D02*
X640787Y124843D01*
X640394Y118937D02*
X640787Y118543D01*
X639606D02*
X640787D01*
X640394Y118150D02*
X640787Y118543D01*
X643323Y115418D02*
X643740Y115000D01*
X643323Y113008D02*
X643740Y113425D01*
X644527Y112539D02*
Y113130D01*
X645315Y115000D02*
X645732Y115418D01*
X644527Y115295D02*
Y115886D01*
X642854Y114213D02*
X643445D01*
X645610D02*
X646201D01*
X645315Y113425D02*
X645732Y113008D01*
X643323Y124079D02*
X643740Y123661D01*
X643323Y121669D02*
X643740Y122087D01*
X644527Y121201D02*
Y121791D01*
X645315Y123661D02*
X645732Y124079D01*
X644527Y123957D02*
Y124547D01*
X642854Y122874D02*
X643445D01*
X645610D02*
X646201D01*
X645315Y122087D02*
X645732Y121669D01*
X593347Y237835D02*
X594921D01*
X602795Y237047D02*
Y238622D01*
X602008Y237835D02*
X603583D01*
X597260Y245339D02*
X597677Y244921D01*
X597260Y242929D02*
X597677Y243347D01*
X598465Y242461D02*
Y243051D01*
X599252Y244921D02*
X599670Y245339D01*
X598465Y245216D02*
Y245807D01*
X596791Y244134D02*
X597382D01*
X599547D02*
X600138D01*
X599252Y243347D02*
X599670Y242929D01*
X602992Y251024D02*
X603386Y250630D01*
X602992Y250236D02*
X603386Y250630D01*
X602205D02*
X603386D01*
X602992Y244724D02*
X603386Y244331D01*
X602992Y243937D02*
X603386Y244331D01*
X602205D02*
X603386D01*
X594331Y250827D02*
X594724Y250433D01*
X593543D02*
X594724D01*
X594331Y250039D02*
X594724Y250433D01*
X594331Y244528D02*
X594724Y244134D01*
X593543D02*
X594724D01*
X594331Y243740D02*
X594724Y244134D01*
X597260Y241008D02*
X597677Y240591D01*
X597260Y238598D02*
X597677Y239016D01*
X598465Y238130D02*
Y238720D01*
X599252Y240591D02*
X599670Y241008D01*
X598465Y240886D02*
Y241476D01*
X596791Y239803D02*
X597382D01*
X599547D02*
X600138D01*
X599252Y239016D02*
X599670Y238598D01*
X597260Y249670D02*
X597677Y249252D01*
X597260Y247260D02*
X597677Y247677D01*
X598465Y246791D02*
Y247382D01*
X599252Y249252D02*
X599670Y249670D01*
X598465Y249547D02*
Y250138D01*
X596791Y248465D02*
X597382D01*
X599547D02*
X600138D01*
X599252Y247677D02*
X599670Y247260D01*
X646496Y247677D02*
X646914Y247260D01*
X646791Y248465D02*
X647382D01*
X644035D02*
X644626D01*
X645709Y249547D02*
Y250138D01*
X646496Y249252D02*
X646914Y249670D01*
X645709Y246791D02*
Y247382D01*
X644504Y247260D02*
X644921Y247677D01*
X644504Y249670D02*
X644921Y249252D01*
X646496Y239016D02*
X646914Y238598D01*
X646791Y239803D02*
X647382D01*
X644035D02*
X644626D01*
X645709Y240886D02*
Y241476D01*
X646496Y240591D02*
X646914Y241008D01*
X645709Y238130D02*
Y238720D01*
X644504Y238598D02*
X644921Y239016D01*
X644504Y241008D02*
X644921Y240591D01*
X641575Y243740D02*
X641968Y244134D01*
X640787D02*
X641968D01*
X641575Y244528D02*
X641968Y244134D01*
X641575Y250039D02*
X641968Y250433D01*
X640787D02*
X641968D01*
X641575Y250827D02*
X641968Y250433D01*
X649449Y244331D02*
X650630D01*
X650236Y243937D02*
X650630Y244331D01*
X650236Y244724D02*
X650630Y244331D01*
X649449Y250630D02*
X650630D01*
X650236Y250236D02*
X650630Y250630D01*
X650236Y251024D02*
X650630Y250630D01*
X646496Y243347D02*
X646914Y242929D01*
X646791Y244134D02*
X647382D01*
X644035D02*
X644626D01*
X645709Y245216D02*
Y245807D01*
X646496Y244921D02*
X646914Y245339D01*
X645709Y242461D02*
Y243051D01*
X644504Y242929D02*
X644921Y243347D01*
X644504Y245339D02*
X644921Y244921D01*
X649252Y237835D02*
X650827D01*
X650039Y237047D02*
Y238622D01*
X640590Y237835D02*
X642165D01*
X687835D02*
X689409D01*
X697283Y237047D02*
Y238622D01*
X696496Y237835D02*
X698071D01*
X691748Y245339D02*
X692165Y244921D01*
X691748Y242929D02*
X692165Y243347D01*
X692953Y242461D02*
Y243051D01*
X693740Y244921D02*
X694158Y245339D01*
X692953Y245216D02*
Y245807D01*
X691280Y244134D02*
X691870D01*
X694035D02*
X694626D01*
X693740Y243347D02*
X694158Y242929D01*
X697480Y251024D02*
X697874Y250630D01*
X697480Y250236D02*
X697874Y250630D01*
X696693D02*
X697874D01*
X697480Y244724D02*
X697874Y244331D01*
X697480Y243937D02*
X697874Y244331D01*
X696693D02*
X697874D01*
X688819Y250827D02*
X689213Y250433D01*
X688031D02*
X689213D01*
X688819Y250039D02*
X689213Y250433D01*
X688819Y244528D02*
X689213Y244134D01*
X688031D02*
X689213D01*
X688819Y243740D02*
X689213Y244134D01*
X691748Y241008D02*
X692165Y240591D01*
X691748Y238598D02*
X692165Y239016D01*
X692953Y238130D02*
Y238720D01*
X693740Y240591D02*
X694158Y241008D01*
X692953Y240886D02*
Y241476D01*
X691280Y239803D02*
X691870D01*
X694035D02*
X694626D01*
X693740Y239016D02*
X694158Y238598D01*
X691748Y249670D02*
X692165Y249252D01*
X691748Y247260D02*
X692165Y247677D01*
X692953Y246791D02*
Y247382D01*
X693740Y249252D02*
X694158Y249670D01*
X692953Y249547D02*
Y250138D01*
X691280Y248465D02*
X691870D01*
X694035D02*
X694626D01*
X693740Y247677D02*
X694158Y247260D01*
X735079Y237835D02*
X736654D01*
X744527Y237047D02*
Y238622D01*
X743740Y237835D02*
X745315D01*
X738992Y245339D02*
X739409Y244921D01*
X738992Y242929D02*
X739409Y243347D01*
X740197Y242461D02*
Y243051D01*
X740984Y244921D02*
X741402Y245339D01*
X740197Y245216D02*
Y245807D01*
X738524Y244134D02*
X739114D01*
X741280D02*
X741870D01*
X740984Y243347D02*
X741402Y242929D01*
X744724Y251024D02*
X745118Y250630D01*
X744724Y250236D02*
X745118Y250630D01*
X743937D02*
X745118D01*
X744724Y244724D02*
X745118Y244331D01*
X744724Y243937D02*
X745118Y244331D01*
X743937D02*
X745118D01*
X736063Y250827D02*
X736457Y250433D01*
X735276D02*
X736457D01*
X736063Y250039D02*
X736457Y250433D01*
X736063Y244528D02*
X736457Y244134D01*
X735276D02*
X736457D01*
X736063Y243740D02*
X736457Y244134D01*
X738992Y241008D02*
X739409Y240591D01*
X738992Y238598D02*
X739409Y239016D01*
X740197Y238130D02*
Y238720D01*
X740984Y240591D02*
X741402Y241008D01*
X740197Y240886D02*
Y241476D01*
X738524Y239803D02*
X739114D01*
X741280D02*
X741870D01*
X740984Y239016D02*
X741402Y238598D01*
X738992Y249670D02*
X739409Y249252D01*
X738992Y247260D02*
X739409Y247677D01*
X740197Y246791D02*
Y247382D01*
X740984Y249252D02*
X741402Y249670D01*
X740197Y249547D02*
Y250138D01*
X738524Y248465D02*
X739114D01*
X741280D02*
X741870D01*
X740984Y247677D02*
X741402Y247260D01*
X644527Y304764D02*
Y307913D01*
X633898Y313819D02*
X635472D01*
X643347Y313032D02*
Y314606D01*
X642559Y313819D02*
X644134D01*
X637811Y321323D02*
X638228Y320905D01*
X637811Y318913D02*
X638228Y319331D01*
X639016Y318445D02*
Y319035D01*
X639803Y320905D02*
X640221Y321323D01*
X639016Y321201D02*
Y321791D01*
X637343Y320118D02*
X637933D01*
X640098D02*
X640689D01*
X639803Y319331D02*
X640221Y318913D01*
X643543Y327008D02*
X643937Y326614D01*
X643543Y326220D02*
X643937Y326614D01*
X642756D02*
X643937D01*
X643543Y320709D02*
X643937Y320315D01*
X643543Y319921D02*
X643937Y320315D01*
X642756D02*
X643937D01*
X634882Y326811D02*
X635276Y326417D01*
X634094D02*
X635276D01*
X634882Y326024D02*
X635276Y326417D01*
X634882Y320512D02*
X635276Y320118D01*
X634094D02*
X635276D01*
X634882Y319724D02*
X635276Y320118D01*
X637811Y316992D02*
X638228Y316575D01*
X637811Y314582D02*
X638228Y315000D01*
X639016Y314114D02*
Y314705D01*
X639803Y316575D02*
X640221Y316992D01*
X639016Y316870D02*
Y317461D01*
X637343Y315787D02*
X637933D01*
X640098D02*
X640689D01*
X639803Y315000D02*
X640221Y314582D01*
X637811Y325654D02*
X638228Y325236D01*
X637811Y323244D02*
X638228Y323661D01*
X639016Y322776D02*
Y323366D01*
X639803Y325236D02*
X640221Y325654D01*
X639016Y325532D02*
Y326122D01*
X637343Y324449D02*
X637933D01*
X640098D02*
X640689D01*
X639803Y323661D02*
X640221Y323244D01*
G54D141*
X210236Y495669D02*
X222835D01*
X210236Y480709D02*
X222835D01*
X702362Y457087D02*
X711811D01*
X707087D02*
Y458268D01*
X702362Y454724D02*
X711811D01*
X707087Y453543D02*
Y454724D01*
X744488Y457087D02*
X753937D01*
X749213D02*
Y458268D01*
X744488Y454724D02*
X753937D01*
X749213Y453543D02*
Y454724D01*
X756299Y466142D02*
Y475591D01*
X755118Y470866D02*
X756299D01*
X758661Y466142D02*
Y475591D01*
Y470866D02*
X759842D01*
X700394Y466142D02*
Y475591D01*
Y470866D02*
X701575D01*
X698032Y466142D02*
Y475591D01*
X696850Y470866D02*
X698032D01*
X642953Y201614D02*
X652402D01*
X647677D02*
Y202795D01*
X642953Y199252D02*
X652402D01*
X647677Y198071D02*
Y199252D01*
X686260Y201614D02*
X695709D01*
X690984D02*
Y202795D01*
X686260Y199252D02*
X695709D01*
X690984Y198071D02*
Y199252D01*
G54D142*
X462079Y527978D02*
X458080D01*
Y524979*
X460080*
X458080*
Y521980*
X464078D02*
X466078D01*
X465078*
Y527978*
X464078Y526979*
G54D143*
X909646Y201181D03*
G54D144*
X920654Y140476D03*
G54D145*
X923622Y163386D02*
X925197D01*
X928347D02*
X929921D01*
X936614Y209055D02*
Y210630D01*
X947244Y196063D02*
Y197638D01*
Y180709D02*
Y182283D01*
Y203543D02*
Y205118D01*
X902756Y180709D02*
Y182283D01*
X903150Y195276D02*
Y196850D01*
X927165Y209055D02*
Y210630D01*
M02*