%FSLAX25Y25*%
%MOIN*%
%SFA1B1*%

%IPPOS*%
%AMD61*
4,1,8,0.000000,-0.049200,0.000000,-0.049200,0.025600,-0.023600,0.025600,0.023600,0.000000,0.049200,0.000000,0.049200,-0.025600,0.023600,-0.025600,-0.023600,0.000000,-0.049200,0.0*
1,1,0.051180,0.000000,-0.023600*
1,1,0.051180,0.000000,-0.023600*
1,1,0.051180,0.000000,0.023600*
1,1,0.051180,0.000000,0.023600*
%
%AMD101*
4,1,8,0.025600,-0.037400,0.025600,0.037400,0.000000,0.063000,0.000000,0.063000,-0.025600,0.037400,-0.025600,-0.037400,0.000000,-0.063000,0.000000,-0.063000,0.025600,-0.037400,0.0*
1,1,0.051180,0.000000,-0.037400*
1,1,0.051180,0.000000,0.037400*
1,1,0.051180,0.000000,0.037400*
1,1,0.051180,0.000000,-0.037400*
%
%AMD103*
4,1,8,0.000000,-0.031500,0.000000,-0.031500,0.013800,-0.017700,0.013800,0.017700,0.000000,0.031500,0.000000,0.031500,-0.013800,0.017700,-0.013800,-0.017700,0.000000,-0.031500,0.0*
1,1,0.027560,0.000000,-0.017700*
1,1,0.027560,0.000000,-0.017700*
1,1,0.027560,0.000000,0.017700*
1,1,0.027560,0.000000,0.017700*
%
%AMD113*
4,1,8,0.008600,0.014100,-0.014100,-0.008600,-0.014100,-0.010200,-0.010200,-0.014100,-0.008600,-0.014100,0.014100,0.008600,0.014100,0.010200,0.010200,0.014100,0.008600,0.014100,0.0*
1,1,0.002360,0.009300,0.013300*
1,1,0.002360,-0.013300,-0.009300*
1,1,0.002360,-0.009300,-0.013300*
1,1,0.002360,0.013300,0.009300*
%
%AMD114*
4,1,8,-0.010200,0.014100,-0.014100,0.010200,-0.014100,0.008600,0.008600,-0.014100,0.010200,-0.014100,0.014100,-0.010200,0.014100,-0.008600,-0.008600,0.014100,-0.010200,0.014100,0.0*
1,1,0.002360,-0.009300,0.013300*
1,1,0.002360,-0.013300,0.009300*
1,1,0.002360,0.009300,-0.013300*
1,1,0.002360,0.013300,-0.009300*
%
%AMD209*
4,1,8,-0.009300,0.001000,0.001000,-0.009300,0.005100,-0.009300,0.009300,-0.005100,0.009300,-0.001000,-0.001000,0.009300,-0.005100,0.009300,-0.009300,0.005100,-0.009300,0.001000,0.0*
1,1,0.005900,-0.007300,0.003000*
1,1,0.005900,0.003000,-0.007300*
1,1,0.005900,0.007300,-0.003000*
1,1,0.005900,-0.003000,0.007300*
%
%AMD210*
4,1,8,-0.005300,0.009500,-0.009500,0.005300,-0.009500,0.001200,0.001200,-0.009500,0.005300,-0.009500,0.009500,-0.005300,0.009500,-0.001200,-0.001200,0.009500,-0.005300,0.009500,0.0*
1,1,0.005900,-0.003300,0.007500*
1,1,0.005900,-0.007500,0.003300*
1,1,0.005900,0.003300,-0.007500*
1,1,0.005900,0.007500,-0.003300*
%
%AMD211*
4,1,8,-0.009500,-0.005300,-0.005300,-0.009500,-0.001200,-0.009500,0.009500,0.001200,0.009500,0.005300,0.005300,0.009500,0.001200,0.009500,-0.009500,-0.001200,-0.009500,-0.005300,0.0*
1,1,0.005900,-0.007500,-0.003300*
1,1,0.005900,-0.003300,-0.007500*
1,1,0.005900,0.007500,0.003300*
1,1,0.005900,0.003300,0.007500*
%
%AMD212*
4,1,8,0.010300,-0.014500,0.014500,-0.010300,0.014400,-0.006100,-0.006100,0.014400,-0.010300,0.014500,-0.014500,0.010300,-0.014400,0.006100,0.006100,-0.014400,0.010300,-0.014500,0.0*
1,1,0.005900,0.008100,-0.012400*
1,1,0.005900,0.012400,-0.008100*
1,1,0.005900,-0.008100,0.012400*
1,1,0.005900,-0.012400,0.008100*
%
%AMD213*
4,1,8,-0.009300,-0.005100,-0.005100,-0.009300,-0.001000,-0.009300,0.009300,0.001000,0.009300,0.005100,0.005100,0.009300,0.001000,0.009300,-0.009300,-0.001000,-0.009300,-0.005100,0.0*
1,1,0.005900,-0.007300,-0.003000*
1,1,0.005900,-0.003000,-0.007300*
1,1,0.005900,0.007300,0.003000*
1,1,0.005900,0.003000,0.007300*
%
%AMD214*
4,1,8,0.044100,-0.050700,0.050700,-0.044100,0.050700,-0.037400,-0.037400,0.050700,-0.044100,0.050700,-0.050700,0.044100,-0.050700,0.037400,0.037400,-0.050700,0.044100,-0.050700,0.0*
1,1,0.009440,0.040700,-0.047400*
1,1,0.009440,0.047400,-0.040700*
1,1,0.009440,-0.040700,0.047400*
1,1,0.009440,-0.047400,0.040700*
%
%AMD215*
4,1,8,0.037700,-0.045900,0.045900,-0.037700,0.045800,-0.029400,-0.029400,0.045800,-0.037700,0.045900,-0.045900,0.037700,-0.045800,0.029400,0.029400,-0.045800,0.037700,-0.045900,0.0*
1,1,0.011620,0.033500,-0.041700*
1,1,0.011620,0.041700,-0.033500*
1,1,0.011620,-0.033500,0.041700*
1,1,0.011620,-0.041700,0.033500*
%
%AMD217*
4,1,8,-0.005100,0.089700,-0.089700,0.005100,-0.089700,-0.005100,-0.005100,-0.089700,0.005100,-0.089700,0.089700,-0.005100,0.089700,0.005100,0.005100,0.089700,-0.005100,0.089700,0.0*
1,1,0.014300,0.000000,0.084600*
1,1,0.014300,-0.084600,0.000000*
1,1,0.014300,0.000000,-0.084600*
1,1,0.014300,0.084600,0.000000*
%
%ADD30C,0.019680*%
%ADD34C,0.017720*%
G04~CAMADD=61~8~0.0~0.0~511.8~984.3~255.9~0.0~15~0.0~0.0~0.0~0.0~0~0.0~0.0~0.0~0.0~0~0.0~0.0~0.0~180.0~512.0~983.0*
%ADD61D61*%
G04~CAMADD=101~8~0.0~0.0~1259.8~511.8~255.9~0.0~15~0.0~0.0~0.0~0.0~0~0.0~0.0~0.0~0.0~0~0.0~0.0~0.0~270.0~512.0~1259.0*
%ADD101D101*%
%ADD102C,0.027560*%
G04~CAMADD=103~8~0.0~0.0~275.6~629.9~137.8~0.0~15~0.0~0.0~0.0~0.0~0~0.0~0.0~0.0~0.0~0~0.0~0.0~0.0~180.0~276.0~629.0*
%ADD103D103*%
%ADD105C,0.051180*%
G04~CAMADD=113~8~0.0~0.0~344.5~78.7~11.8~0.0~15~0.0~0.0~0.0~0.0~0~0.0~0.0~0.0~0.0~0~0.0~0.0~0.0~45.0~290.0~289.0*
%ADD113D113*%
G04~CAMADD=114~8~0.0~0.0~78.7~344.5~11.8~0.0~15~0.0~0.0~0.0~0.0~0~0.0~0.0~0.0~0.0~0~0.0~0.0~0.0~45.0~290.0~289.0*
%ADD114D114*%
%ADD198C,0.322960*%
%ADD199C,0.063120*%
%ADD200C,0.084650*%
%ADD201C,0.122840*%
%ADD202C,0.077950*%
%ADD203C,0.141730*%
%ADD204C,0.100000*%
%ADD205O,0.133860X0.281500*%
%ADD206C,0.320870*%
%ADD207C,0.064960*%
%ADD208O,0.047560X0.091180*%
G04~CAMADD=209~8~0.0~0.0~204.7~118.1~29.5~0.0~15~0.0~0.0~0.0~0.0~0~0.0~0.0~0.0~0.0~0~0.0~0.0~0.0~135.0~204.0~203.0*
%ADD209D209*%
G04~CAMADD=210~8~0.0~0.0~118.1~210.6~29.5~0.0~15~0.0~0.0~0.0~0.0~0~0.0~0.0~0.0~0.0~0~0.0~0.0~0.0~45.0~207.0~208.0*
%ADD210D210*%
G04~CAMADD=211~8~0.0~0.0~118.1~210.6~29.5~0.0~15~0.0~0.0~0.0~0.0~0~0.0~0.0~0.0~0.0~0~0.0~0.0~0.0~135.0~208.0~207.0*
%ADD211D211*%
G04~CAMADD=212~8~0.0~0.0~118.1~349.6~29.5~0.0~15~0.0~0.0~0.0~0.0~0~0.0~0.0~0.0~0.0~0~0.0~0.0~0.0~225.0~306.0~306.0*
%ADD212D212*%
G04~CAMADD=213~8~0.0~0.0~118.1~204.7~29.5~0.0~15~0.0~0.0~0.0~0.0~0~0.0~0.0~0.0~0.0~0~0.0~0.0~0.0~135.0~204.0~203.0*
%ADD213D213*%
G04~CAMADD=214~8~0.0~0.0~189.0~1340.6~47.2~0.0~15~0.0~0.0~0.0~0.0~0~0.0~0.0~0.0~0.0~0~0.0~0.0~0.0~225.0~1041.0~1041.0*
%ADD214D214*%
G04~CAMADD=215~8~0.0~0.0~232.3~1181.1~58.1~0.0~15~0.0~0.0~0.0~0.0~0~0.0~0.0~0.0~0.0~0~0.0~0.0~0.0~225.0~951.0~951.0*
%ADD215D215*%
%ADD216C,0.029530*%
G04~CAMADD=217~8~0.0~0.0~1339.8~1339.8~71.5~0.0~15~0.0~0.0~0.0~0.0~0~0.0~0.0~0.0~0.0~0~0.0~0.0~0.0~45.0~1836.0~1835.0*
%ADD217D217*%
%LNpanel-1*%
%LPD*%
G36*
X230361Y569584D02*
X230406Y569573D01*
X230437Y569560*
X230449Y569555*
X230489Y569531*
X230524Y569501*
X231705Y568320*
X231736Y568284*
X231760Y568245*
X231765Y568232*
X231778Y568202*
X231789Y568157*
X231792Y568110*
Y566535*
X231789Y566489*
X231778Y566444*
X231765Y566413*
X231760Y566401*
X231736Y566361*
X231705Y566326*
X230524Y565145*
X230489Y565115*
X230449Y565090*
X230437Y565085*
X230406Y565073*
X230361Y565062*
X230315Y565058*
X228740*
X228694Y565062*
X228649Y565073*
X228618Y565085*
X228606Y565090*
X228566Y565115*
X228531Y565145*
X227350Y566326*
X227319Y566361*
X227295Y566401*
X227290Y566413*
X227277Y566444*
X227267Y566489*
X227263Y566535*
Y568110*
X227267Y568157*
X227277Y568202*
X227290Y568232*
X227295Y568245*
X227319Y568284*
X227350Y568320*
X228531Y569501*
X228566Y569531*
X228606Y569555*
X228618Y569560*
X228649Y569573*
X228694Y569584*
X228740Y569588*
X230315*
X230361Y569584*
G37*
G36*
X224850D02*
X224895Y569573D01*
X224925Y569560*
X224938Y569555*
X224977Y569531*
X225013Y569501*
X226194Y568320*
X226224Y568284*
X226248Y568245*
X226253Y568232*
X226266Y568202*
X226277Y568157*
X226280Y568110*
Y566535*
X226277Y566489*
X226266Y566444*
X226253Y566413*
X226248Y566401*
X226224Y566361*
X226194Y566326*
X225013Y565145*
X224977Y565115*
X224938Y565090*
X224925Y565085*
X224895Y565073*
X224850Y565062*
X224803Y565058*
X223228*
X223182Y565062*
X223137Y565073*
X223106Y565085*
X223094Y565090*
X223054Y565115*
X223019Y565145*
X221838Y566326*
X221808Y566361*
X221783Y566401*
X221778Y566413*
X221765Y566444*
X221755Y566489*
X221751Y566535*
Y568110*
X221755Y568157*
X221765Y568202*
X221778Y568232*
X221783Y568245*
X221808Y568284*
X221838Y568320*
X223019Y569501*
X223054Y569531*
X223094Y569555*
X223106Y569560*
X223137Y569573*
X223182Y569584*
X223228Y569588*
X224803*
X224850Y569584*
G37*
G36*
X219338D02*
X219383Y569573D01*
X219413Y569560*
X219426Y569555*
X219465Y569531*
X219501Y569501*
X220682Y568320*
X220712Y568284*
X220736Y568245*
X220742Y568232*
X220754Y568202*
X220765Y568157*
X220769Y568110*
Y566535*
X220765Y566489*
X220754Y566444*
X220742Y566413*
X220736Y566401*
X220712Y566361*
X220682Y566326*
X219501Y565145*
X219465Y565115*
X219426Y565090*
X219413Y565085*
X219383Y565073*
X219338Y565062*
X219291Y565058*
X217717*
X217670Y565062*
X217625Y565073*
X217595Y565085*
X217582Y565090*
X217542Y565115*
X217507Y565145*
X216326Y566326*
X216296Y566361*
X216271Y566401*
X216266Y566413*
X216254Y566444*
X216243Y566489*
X216239Y566535*
Y568110*
X216243Y568157*
X216254Y568202*
X216266Y568232*
X216271Y568245*
X216296Y568284*
X216326Y568320*
X217507Y569501*
X217542Y569531*
X217582Y569555*
X217595Y569560*
X217625Y569573*
X217670Y569584*
X217717Y569588*
X219291*
X219338Y569584*
G37*
G36*
X210676D02*
X210721Y569573D01*
X210752Y569560*
X210764Y569555*
X210804Y569531*
X210839Y569501*
X212020Y568320*
X212051Y568284*
X212075Y568245*
X212080Y568232*
X212093Y568202*
X212104Y568157*
X212107Y568110*
Y566535*
X212104Y566489*
X212093Y566444*
X212080Y566413*
X212075Y566401*
X212051Y566361*
X212020Y566326*
X210839Y565145*
X210804Y565115*
X210764Y565090*
X210752Y565085*
X210721Y565073*
X210676Y565062*
X210630Y565058*
X209055*
X209009Y565062*
X208964Y565073*
X208933Y565085*
X208921Y565090*
X208881Y565115*
X208846Y565145*
X207665Y566326*
X207634Y566361*
X207610Y566401*
X207605Y566413*
X207592Y566444*
X207581Y566489*
X207578Y566535*
Y568110*
X207581Y568157*
X207592Y568202*
X207605Y568232*
X207610Y568245*
X207634Y568284*
X207665Y568320*
X208846Y569501*
X208881Y569531*
X208921Y569555*
X208933Y569560*
X208964Y569573*
X209009Y569584*
X209055Y569588*
X210630*
X210676Y569584*
G37*
G36*
X204377D02*
X204422Y569573D01*
X204453Y569560*
X204465Y569555*
X204505Y569531*
X204540Y569501*
X205721Y568320*
X205751Y568284*
X205776Y568245*
X205781Y568232*
X205793Y568202*
X205804Y568157*
X205808Y568110*
Y566535*
X205804Y566489*
X205793Y566444*
X205781Y566413*
X205776Y566401*
X205751Y566361*
X205721Y566326*
X204540Y565145*
X204505Y565115*
X204465Y565090*
X204453Y565085*
X204422Y565073*
X204377Y565062*
X204331Y565058*
X202756*
X202710Y565062*
X202664Y565073*
X202634Y565085*
X202621Y565090*
X202582Y565115*
X202547Y565145*
X201365Y566326*
X201335Y566361*
X201311Y566401*
X201306Y566413*
X201293Y566444*
X201282Y566489*
X201279Y566535*
Y568110*
X201282Y568157*
X201293Y568202*
X201306Y568232*
X201311Y568245*
X201335Y568284*
X201365Y568320*
X202547Y569501*
X202582Y569531*
X202621Y569555*
X202634Y569560*
X202664Y569573*
X202710Y569584*
X202756Y569588*
X204331*
X204377Y569584*
G37*
G36*
X728787Y564859D02*
X728832Y564849D01*
X728862Y564836*
X728875Y564831*
X728914Y564807*
X728950Y564776*
X730131Y563595*
X730161Y563560*
X730185Y563520*
X730190Y563508*
X730203Y563477*
X730214Y563432*
X730217Y563386*
Y561811*
X730214Y561765*
X730203Y561720*
X730190Y561689*
X730185Y561677*
X730161Y561637*
X730131Y561602*
X728950Y560421*
X728914Y560390*
X728875Y560366*
X728862Y560361*
X728832Y560348*
X728787Y560337*
X728740Y560334*
X727165*
X727119Y560337*
X727074Y560348*
X727043Y560361*
X727031Y560366*
X726991Y560390*
X726956Y560421*
X725775Y561602*
X725745Y561637*
X725720Y561677*
X725715Y561689*
X725702Y561720*
X725692Y561765*
X725688Y561811*
Y563386*
X725692Y563432*
X725702Y563477*
X725715Y563508*
X725720Y563520*
X725745Y563560*
X725775Y563595*
X726956Y564776*
X726991Y564807*
X727031Y564831*
X727043Y564836*
X727074Y564849*
X727119Y564859*
X727165Y564863*
X728740*
X728787Y564859*
G37*
G36*
X713826Y560529D02*
X713871Y560518D01*
X713901Y560505*
X713914Y560500*
X713954Y560476*
X713989Y560446*
X715170Y559265*
X715200Y559229*
X715225Y559190*
X715230Y559177*
X715242Y559147*
X715253Y559101*
X715257Y559055*
Y557480*
X715253Y557434*
X715242Y557389*
X715230Y557358*
X715225Y557346*
X715200Y557306*
X715170Y557271*
X713989Y556090*
X713954Y556060*
X713914Y556035*
X713901Y556030*
X713871Y556017*
X713826Y556007*
X713779Y556003*
X712205*
X712158Y556007*
X712113Y556017*
X712083Y556030*
X712070Y556035*
X712031Y556060*
X711995Y556090*
X710814Y557271*
X710784Y557306*
X710760Y557346*
X710754Y557358*
X710742Y557389*
X710731Y557434*
X710727Y557480*
Y559055*
X710731Y559101*
X710742Y559147*
X710754Y559177*
X710760Y559190*
X710784Y559229*
X710814Y559265*
X711995Y560446*
X712031Y560476*
X712070Y560500*
X712083Y560505*
X712113Y560518*
X712158Y560529*
X712205Y560532*
X713779*
X713826Y560529*
G37*
G36*
X257133Y550292D02*
X257178Y550282D01*
X257208Y550269*
X257221Y550264*
X257261Y550240*
X257296Y550209*
X258477Y549028*
X258507Y548993*
X258532Y548953*
X258537Y548941*
X258549Y548910*
X258560Y548865*
X258564Y548819*
Y547244*
X258560Y547198*
X258549Y547153*
X258537Y547122*
X258532Y547110*
X258507Y547070*
X258477Y547035*
X257296Y545854*
X257261Y545823*
X257221Y545799*
X257208Y545794*
X257178Y545781*
X257133Y545770*
X257087Y545767*
X255512*
X255466Y545770*
X255420Y545781*
X255390Y545794*
X255377Y545799*
X255338Y545823*
X255302Y545854*
X254121Y547035*
X254091Y547070*
X254067Y547110*
X254062Y547122*
X254049Y547153*
X254038Y547198*
X254034Y547244*
Y548819*
X254038Y548865*
X254049Y548910*
X254062Y548941*
X254067Y548953*
X254091Y548993*
X254121Y549028*
X255302Y550209*
X255338Y550240*
X255377Y550264*
X255390Y550269*
X255420Y550282*
X255466Y550293*
X255512Y550296*
X257087*
X257133Y550292*
G37*
G36*
X382330Y549899D02*
X382375Y549888D01*
X382405Y549875*
X382418Y549870*
X382458Y549846*
X382493Y549816*
X383674Y548635*
X383704Y548599*
X383729Y548560*
X383734Y548547*
X383746Y548517*
X383757Y548472*
X383761Y548425*
Y546850*
X383757Y546804*
X383746Y546759*
X383734Y546729*
X383729Y546716*
X383704Y546676*
X383674Y546641*
X382493Y545460*
X382458Y545430*
X382418Y545405*
X382405Y545400*
X382375Y545388*
X382330Y545377*
X382283Y545373*
X380709*
X380662Y545377*
X380617Y545388*
X380587Y545400*
X380574Y545405*
X380535Y545430*
X380499Y545460*
X379318Y546641*
X379288Y546676*
X379264Y546716*
X379258Y546729*
X379246Y546759*
X379235Y546804*
X379231Y546850*
Y548425*
X379235Y548472*
X379246Y548517*
X379258Y548547*
X379264Y548560*
X379288Y548599*
X379318Y548635*
X380499Y549816*
X380535Y549846*
X380574Y549870*
X380587Y549875*
X380617Y549888*
X380662Y549899*
X380709Y549902*
X382283*
X382330Y549899*
G37*
G36*
X898573Y542541D02*
X884026D01*
X887208Y548053*
X895391*
X899483Y555140*
X905847*
X898573Y542541*
G37*
G36*
X382367Y543637D02*
X382412Y543626D01*
X382443Y543614*
X382455Y543608*
X382495Y543584*
X382530Y543554*
X383711Y542373*
X383742Y542338*
X383766Y542298*
X383771Y542285*
X383784Y542255*
X383794Y542210*
X383798Y542163*
Y540589*
X383794Y540542*
X383784Y540497*
X383771Y540467*
X383766Y540454*
X383742Y540414*
X383711Y540379*
X382530Y539198*
X382495Y539168*
X382455Y539144*
X382443Y539138*
X382412Y539126*
X382367Y539115*
X382321Y539111*
X380746*
X380700Y539115*
X380655Y539126*
X380624Y539138*
X380612Y539144*
X380572Y539168*
X380537Y539198*
X379356Y540379*
X379325Y540414*
X379301Y540454*
X379296Y540467*
X379283Y540497*
X379272Y540542*
X379269Y540589*
Y542163*
X379272Y542210*
X379283Y542255*
X379296Y542285*
X379301Y542298*
X379325Y542338*
X379356Y542373*
X380537Y543554*
X380572Y543584*
X380612Y543608*
X380624Y543614*
X380655Y543626*
X380700Y543637*
X380746Y543641*
X382321*
X382367Y543637*
G37*
G36*
X196897Y529820D02*
X196942Y529809D01*
X196972Y529797*
X196985Y529791*
X197025Y529767*
X197060Y529737*
X198241Y528556*
X198271Y528521*
X198295Y528481*
X198301Y528468*
X198313Y528438*
X198324Y528393*
X198328Y528346*
Y526772*
X198324Y526725*
X198313Y526680*
X198301Y526650*
X198295Y526637*
X198271Y526597*
X198241Y526562*
X197060Y525381*
X197025Y525351*
X196985Y525327*
X196972Y525321*
X196942Y525309*
X196897Y525298*
X196850Y525294*
X195276*
X195229Y525298*
X195184Y525309*
X195154Y525321*
X195141Y525327*
X195101Y525351*
X195066Y525381*
X193885Y526562*
X193855Y526597*
X193831Y526637*
X193825Y526650*
X193813Y526680*
X193802Y526725*
X193798Y526772*
Y528346*
X193802Y528393*
X193813Y528438*
X193825Y528468*
X193831Y528481*
X193855Y528521*
X193885Y528556*
X195066Y529737*
X195101Y529767*
X195141Y529791*
X195154Y529797*
X195184Y529809*
X195229Y529820*
X195276Y529824*
X196850*
X196897Y529820*
G37*
G36*
X161070D02*
X161115Y529809D01*
X161145Y529797*
X161158Y529791*
X161198Y529767*
X161233Y529737*
X162414Y528556*
X162444Y528521*
X162469Y528481*
X162474Y528468*
X162486Y528438*
X162497Y528393*
X162501Y528346*
Y526772*
X162497Y526725*
X162486Y526680*
X162474Y526650*
X162469Y526637*
X162444Y526597*
X162414Y526562*
X161233Y525381*
X161198Y525351*
X161158Y525327*
X161145Y525321*
X161115Y525309*
X161070Y525298*
X161024Y525294*
X159449*
X159403Y525298*
X159357Y525309*
X159327Y525321*
X159314Y525327*
X159275Y525351*
X159239Y525381*
X158058Y526562*
X158028Y526597*
X158004Y526637*
X157999Y526650*
X157986Y526680*
X157975Y526725*
X157972Y526772*
Y528346*
X157975Y528393*
X157986Y528438*
X157999Y528468*
X158004Y528481*
X158028Y528521*
X158058Y528556*
X159239Y529737*
X159275Y529767*
X159314Y529791*
X159327Y529797*
X159357Y529809*
X159403Y529820*
X159449Y529824*
X161024*
X161070Y529820*
G37*
G36*
X887156Y522856D02*
X872609D01*
X875791Y528368*
X883974*
X888065Y535455*
X894430*
X887156Y522856*
G37*
G36*
X257133Y521946D02*
X257178Y521935D01*
X257208Y521923*
X257221Y521917*
X257261Y521893*
X257296Y521863*
X258477Y520682*
X258507Y520646*
X258532Y520607*
X258537Y520594*
X258549Y520564*
X258560Y520519*
X258564Y520472*
Y518898*
X258560Y518851*
X258549Y518806*
X258537Y518776*
X258532Y518763*
X258507Y518723*
X258477Y518688*
X257296Y517507*
X257261Y517477*
X257221Y517453*
X257208Y517447*
X257178Y517435*
X257133Y517424*
X257087Y517420*
X255512*
X255466Y517424*
X255420Y517435*
X255390Y517447*
X255377Y517453*
X255338Y517477*
X255302Y517507*
X254121Y518688*
X254091Y518723*
X254067Y518763*
X254062Y518776*
X254049Y518806*
X254038Y518851*
X254034Y518898*
Y520472*
X254038Y520519*
X254049Y520564*
X254062Y520594*
X254067Y520607*
X254091Y520646*
X254121Y520682*
X255302Y521863*
X255338Y521893*
X255377Y521917*
X255390Y521923*
X255420Y521935*
X255466Y521946*
X255512Y521950*
X257087*
X257133Y521946*
G37*
G36*
X220125D02*
X220170Y521935D01*
X220201Y521923*
X220213Y521917*
X220253Y521893*
X220288Y521863*
X221469Y520682*
X221499Y520646*
X221524Y520607*
X221529Y520594*
X221542Y520564*
X221552Y520519*
X221556Y520472*
Y518898*
X221552Y518851*
X221542Y518806*
X221529Y518776*
X221524Y518763*
X221499Y518723*
X221469Y518688*
X220288Y517507*
X220253Y517477*
X220213Y517453*
X220201Y517447*
X220170Y517435*
X220125Y517424*
X220079Y517420*
X218504*
X218458Y517424*
X218412Y517435*
X218382Y517447*
X218370Y517453*
X218330Y517477*
X218295Y517507*
X217113Y518688*
X217083Y518723*
X217059Y518763*
X217054Y518776*
X217041Y518806*
X217030Y518851*
X217027Y518898*
Y520472*
X217030Y520519*
X217041Y520564*
X217054Y520594*
X217059Y520607*
X217083Y520646*
X217113Y520682*
X218295Y521863*
X218330Y521893*
X218370Y521917*
X218382Y521923*
X218412Y521935*
X218458Y521946*
X218504Y521950*
X220079*
X220125Y521946*
G37*
G36*
X823619Y506641D02*
X823664Y506630D01*
X823695Y506618*
X823707Y506612*
X823747Y506588*
X823782Y506558*
X824963Y505377*
X824994Y505341*
X825018Y505302*
X825023Y505289*
X825036Y505259*
X825047Y505214*
X825050Y505167*
Y503592*
X825047Y503546*
X825036Y503501*
X825023Y503471*
X825018Y503458*
X824994Y503418*
X824963Y503383*
X823782Y502202*
X823747Y502172*
X823707Y502147*
X823695Y502142*
X823664Y502130*
X823619Y502119*
X823573Y502115*
X821998*
X821952Y502119*
X821906Y502130*
X821876Y502142*
X821863Y502147*
X821824Y502172*
X821789Y502202*
X820607Y503383*
X820577Y503418*
X820553Y503458*
X820548Y503471*
X820535Y503501*
X820524Y503546*
X820521Y503592*
Y505167*
X820524Y505214*
X820535Y505259*
X820548Y505289*
X820553Y505302*
X820577Y505341*
X820607Y505377*
X821789Y506558*
X821824Y506588*
X821863Y506612*
X821876Y506618*
X821906Y506630*
X821952Y506641*
X821998Y506645*
X823573*
X823619Y506641*
G37*
G36*
X635529D02*
X635574Y506630D01*
X635604Y506618*
X635617Y506612*
X635656Y506588*
X635692Y506558*
X636873Y505377*
X636903Y505341*
X636927Y505302*
X636933Y505289*
X636945Y505259*
X636956Y505214*
X636960Y505167*
Y503592*
X636956Y503546*
X636945Y503501*
X636933Y503471*
X636927Y503458*
X636903Y503418*
X636873Y503383*
X635692Y502202*
X635656Y502172*
X635617Y502147*
X635604Y502142*
X635574Y502130*
X635529Y502119*
X635482Y502115*
X633908*
X633861Y502119*
X633816Y502130*
X633786Y502142*
X633773Y502147*
X633733Y502172*
X633698Y502202*
X632517Y503383*
X632487Y503418*
X632462Y503458*
X632457Y503471*
X632445Y503501*
X632434Y503546*
X632430Y503592*
Y505167*
X632434Y505214*
X632445Y505259*
X632457Y505289*
X632462Y505302*
X632487Y505341*
X632517Y505377*
X633698Y506558*
X633733Y506588*
X633773Y506612*
X633786Y506618*
X633816Y506630*
X633861Y506641*
X633908Y506645*
X635482*
X635529Y506641*
G37*
G36*
X173668Y505804D02*
X173714Y505794D01*
X173744Y505781*
X173757Y505776*
X173796Y505751*
X173831Y505721*
X175013Y504540*
X175043Y504505*
X175067Y504465*
X175072Y504453*
X175085Y504422*
X175096Y504377*
X175099Y504331*
Y502756*
X175096Y502710*
X175085Y502664*
X175072Y502634*
X175067Y502621*
X175043Y502582*
X175013Y502547*
X173831Y501365*
X173796Y501335*
X173757Y501311*
X173744Y501306*
X173714Y501293*
X173668Y501282*
X173622Y501279*
X172047*
X172001Y501282*
X171956Y501293*
X171925Y501306*
X171913Y501311*
X171873Y501335*
X171838Y501365*
X170657Y502547*
X170626Y502582*
X170602Y502621*
X170597Y502634*
X170584Y502664*
X170574Y502710*
X170570Y502756*
Y504331*
X170574Y504377*
X170584Y504422*
X170597Y504453*
X170602Y504465*
X170626Y504505*
X170657Y504540*
X171838Y505721*
X171873Y505751*
X171913Y505776*
X171925Y505781*
X171956Y505794*
X172001Y505804*
X172047Y505808*
X173622*
X173668Y505804*
G37*
G36*
X567763Y505017D02*
X567808Y505006D01*
X567838Y504993*
X567851Y504988*
X567891Y504964*
X567926Y504934*
X569107Y503753*
X569137Y503717*
X569162Y503678*
X569167Y503665*
X569179Y503635*
X569190Y503590*
X569194Y503543*
Y501968*
X569190Y501922*
X569179Y501877*
X569167Y501847*
X569162Y501834*
X569137Y501794*
X569107Y501759*
X567926Y500578*
X567891Y500548*
X567851Y500524*
X567838Y500518*
X567808Y500506*
X567763Y500495*
X567717Y500491*
X566142*
X566095Y500495*
X566050Y500506*
X566020Y500518*
X566007Y500524*
X565968Y500548*
X565932Y500578*
X564751Y501759*
X564721Y501794*
X564697Y501834*
X564691Y501847*
X564679Y501877*
X564668Y501922*
X564664Y501968*
Y503543*
X564668Y503590*
X564679Y503635*
X564691Y503665*
X564697Y503678*
X564721Y503717*
X564751Y503753*
X565932Y504934*
X565968Y504964*
X566007Y504988*
X566020Y504993*
X566050Y505006*
X566095Y505017*
X566142Y505021*
X567717*
X567763Y505017*
G37*
G36*
X311070D02*
X311115Y505006D01*
X311145Y504993*
X311158Y504988*
X311198Y504964*
X311233Y504934*
X312414Y503753*
X312444Y503717*
X312469Y503678*
X312474Y503665*
X312486Y503635*
X312497Y503590*
X312501Y503543*
Y501968*
X312497Y501922*
X312486Y501877*
X312474Y501847*
X312469Y501834*
X312444Y501794*
X312414Y501759*
X311233Y500578*
X311198Y500548*
X311158Y500524*
X311145Y500518*
X311115Y500506*
X311070Y500495*
X311024Y500491*
X309449*
X309402Y500495*
X309357Y500506*
X309327Y500518*
X309314Y500524*
X309275Y500548*
X309239Y500578*
X308058Y501759*
X308028Y501794*
X308004Y501834*
X307999Y501847*
X307986Y501877*
X307975Y501922*
X307972Y501968*
Y503543*
X307975Y503590*
X307986Y503635*
X307999Y503665*
X308004Y503678*
X308028Y503717*
X308058Y503753*
X309239Y504934*
X309275Y504964*
X309314Y504988*
X309327Y504993*
X309357Y505006*
X309402Y505017*
X309449Y505021*
X311024*
X311070Y505017*
G37*
G36*
X123668D02*
X123714Y505006D01*
X123744Y504993*
X123757Y504988*
X123796Y504964*
X123831Y504934*
X125013Y503753*
X125043Y503717*
X125067Y503678*
X125072Y503665*
X125085Y503635*
X125096Y503590*
X125099Y503543*
Y501968*
X125096Y501922*
X125085Y501877*
X125072Y501847*
X125067Y501834*
X125043Y501794*
X125013Y501759*
X123831Y500578*
X123796Y500548*
X123757Y500524*
X123744Y500518*
X123714Y500506*
X123668Y500495*
X123622Y500491*
X122047*
X122001Y500495*
X121956Y500506*
X121925Y500518*
X121913Y500524*
X121873Y500548*
X121838Y500578*
X120657Y501759*
X120626Y501794*
X120602Y501834*
X120597Y501847*
X120584Y501877*
X120574Y501922*
X120570Y501968*
Y503543*
X120574Y503590*
X120584Y503635*
X120597Y503665*
X120602Y503678*
X120626Y503717*
X120657Y503753*
X121838Y504934*
X121873Y504964*
X121913Y504988*
X121925Y504993*
X121956Y505006*
X122001Y505017*
X122047Y505021*
X123622*
X123668Y505017*
G37*
G36*
X409101Y504230D02*
X409147Y504219D01*
X409177Y504206*
X409190Y504201*
X409229Y504177*
X409265Y504146*
X410446Y502965*
X410476Y502930*
X410500Y502890*
X410505Y502878*
X410518Y502847*
X410529Y502802*
X410532Y502756*
Y501181*
X410529Y501135*
X410518Y501090*
X410505Y501059*
X410500Y501047*
X410476Y501007*
X410446Y500972*
X409265Y499791*
X409229Y499760*
X409190Y499736*
X409177Y499731*
X409147Y499718*
X409101Y499708*
X409055Y499704*
X407480*
X407434Y499708*
X407389Y499718*
X407358Y499731*
X407346Y499736*
X407306Y499760*
X407271Y499791*
X406090Y500972*
X406060Y501007*
X406035Y501047*
X406030Y501059*
X406017Y501090*
X406007Y501135*
X406003Y501181*
Y502756*
X406007Y502802*
X406017Y502847*
X406030Y502878*
X406035Y502890*
X406060Y502930*
X406090Y502965*
X407271Y504146*
X407306Y504177*
X407346Y504201*
X407358Y504206*
X407389Y504219*
X407434Y504230*
X407480Y504233*
X409055*
X409101Y504230*
G37*
G36*
X823324Y501031D02*
X823369Y501020D01*
X823400Y501007*
X823412Y501002*
X823452Y500978*
X823487Y500948*
X824668Y499766*
X824698Y499731*
X824723Y499692*
X824728Y499679*
X824740Y499649*
X824751Y499603*
X824755Y499557*
Y497982*
X824751Y497936*
X824740Y497891*
X824728Y497860*
X824723Y497848*
X824698Y497808*
X824668Y497773*
X823487Y496592*
X823452Y496562*
X823412Y496537*
X823400Y496532*
X823369Y496520*
X823324Y496509*
X823278Y496505*
X821703*
X821656Y496509*
X821611Y496520*
X821581Y496532*
X821568Y496537*
X821529Y496562*
X821493Y496592*
X820312Y497773*
X820282Y497808*
X820258Y497848*
X820253Y497860*
X820240Y497891*
X820229Y497936*
X820225Y497982*
Y499557*
X820229Y499603*
X820240Y499649*
X820253Y499679*
X820258Y499692*
X820282Y499731*
X820312Y499766*
X821493Y500948*
X821529Y500978*
X821568Y501002*
X821581Y501007*
X821611Y501020*
X821656Y501031*
X821703Y501034*
X823278*
X823324Y501031*
G37*
G36*
X635824D02*
X635869Y501020D01*
X635899Y501007*
X635912Y501002*
X635952Y500978*
X635987Y500948*
X637168Y499766*
X637198Y499731*
X637223Y499692*
X637228Y499679*
X637240Y499649*
X637251Y499603*
X637255Y499557*
Y497982*
X637251Y497936*
X637240Y497891*
X637228Y497860*
X637223Y497848*
X637198Y497808*
X637168Y497773*
X635987Y496592*
X635952Y496562*
X635912Y496537*
X635899Y496532*
X635869Y496520*
X635824Y496509*
X635778Y496505*
X634203*
X634156Y496509*
X634111Y496520*
X634081Y496532*
X634068Y496537*
X634029Y496562*
X633993Y496592*
X632812Y497773*
X632782Y497808*
X632758Y497848*
X632753Y497860*
X632740Y497891*
X632729Y497936*
X632725Y497982*
Y499557*
X632729Y499603*
X632740Y499649*
X632753Y499679*
X632758Y499692*
X632782Y499731*
X632812Y499766*
X633993Y500948*
X634029Y500978*
X634068Y501002*
X634081Y501007*
X634111Y501020*
X634156Y501031*
X634203Y501034*
X635778*
X635824Y501031*
G37*
G36*
X567763Y499505D02*
X567808Y499494D01*
X567838Y499482*
X567851Y499476*
X567891Y499452*
X567926Y499422*
X569107Y498241*
X569137Y498206*
X569162Y498166*
X569167Y498153*
X569179Y498123*
X569190Y498078*
X569194Y498032*
Y496457*
X569190Y496410*
X569179Y496365*
X569167Y496335*
X569162Y496322*
X569137Y496283*
X569107Y496247*
X567926Y495066*
X567891Y495036*
X567851Y495012*
X567838Y495007*
X567808Y494994*
X567763Y494983*
X567717Y494979*
X566142*
X566095Y494983*
X566050Y494994*
X566020Y495007*
X566007Y495012*
X565968Y495036*
X565932Y495066*
X564751Y496247*
X564721Y496283*
X564697Y496322*
X564691Y496335*
X564679Y496365*
X564668Y496410*
X564664Y496457*
Y498032*
X564668Y498078*
X564679Y498123*
X564691Y498153*
X564697Y498166*
X564721Y498206*
X564751Y498241*
X565932Y499422*
X565968Y499452*
X566007Y499476*
X566020Y499482*
X566050Y499494*
X566095Y499505*
X566142Y499509*
X567717*
X567763Y499505*
G37*
G36*
X311070D02*
X311115Y499494D01*
X311145Y499482*
X311158Y499476*
X311198Y499452*
X311233Y499422*
X312414Y498241*
X312444Y498206*
X312469Y498166*
X312474Y498153*
X312486Y498123*
X312497Y498078*
X312501Y498032*
Y496457*
X312497Y496410*
X312486Y496365*
X312474Y496335*
X312469Y496322*
X312444Y496283*
X312414Y496247*
X311233Y495066*
X311198Y495036*
X311158Y495012*
X311145Y495007*
X311115Y494994*
X311070Y494983*
X311024Y494979*
X309449*
X309402Y494983*
X309357Y494994*
X309327Y495007*
X309314Y495012*
X309275Y495036*
X309239Y495066*
X308058Y496247*
X308028Y496283*
X308004Y496322*
X307999Y496335*
X307986Y496365*
X307975Y496410*
X307972Y496457*
Y498032*
X307975Y498078*
X307986Y498123*
X307999Y498153*
X308004Y498166*
X308028Y498206*
X308058Y498241*
X309239Y499422*
X309275Y499452*
X309314Y499476*
X309327Y499482*
X309357Y499494*
X309402Y499505*
X309449Y499509*
X311024*
X311070Y499505*
G37*
G36*
X123668D02*
X123714Y499494D01*
X123744Y499482*
X123757Y499476*
X123796Y499452*
X123831Y499422*
X125013Y498241*
X125043Y498206*
X125067Y498166*
X125072Y498153*
X125085Y498123*
X125096Y498078*
X125099Y498032*
Y496457*
X125096Y496410*
X125085Y496365*
X125072Y496335*
X125067Y496322*
X125043Y496283*
X125013Y496247*
X123831Y495066*
X123796Y495036*
X123757Y495012*
X123744Y495007*
X123714Y494994*
X123668Y494983*
X123622Y494979*
X122047*
X122001Y494983*
X121956Y494994*
X121925Y495007*
X121913Y495012*
X121873Y495036*
X121838Y495066*
X120657Y496247*
X120626Y496283*
X120602Y496322*
X120597Y496335*
X120584Y496365*
X120574Y496410*
X120570Y496457*
Y498032*
X120574Y498078*
X120584Y498123*
X120597Y498153*
X120602Y498166*
X120626Y498206*
X120657Y498241*
X121838Y499422*
X121873Y499452*
X121913Y499476*
X121925Y499482*
X121956Y499494*
X122001Y499505*
X122047Y499509*
X123622*
X123668Y499505*
G37*
G36*
X444928Y466828D02*
X444973Y466817D01*
X445004Y466805*
X445016Y466799*
X445056Y466775*
X445091Y466745*
X446272Y465564*
X446303Y465528*
X446327Y465489*
X446332Y465476*
X446345Y465446*
X446355Y465401*
X446359Y465354*
Y463780*
X446355Y463733*
X446345Y463688*
X446332Y463658*
X446327Y463645*
X446303Y463605*
X446272Y463570*
X445091Y462389*
X445056Y462359*
X445016Y462334*
X445004Y462329*
X444973Y462317*
X444928Y462306*
X444882Y462302*
X443307*
X443261Y462306*
X443216Y462317*
X443185Y462329*
X443173Y462334*
X443133Y462359*
X443098Y462389*
X441917Y463570*
X441886Y463605*
X441862Y463645*
X441857Y463658*
X441844Y463688*
X441833Y463733*
X441830Y463780*
Y465354*
X441833Y465401*
X441844Y465446*
X441857Y465476*
X441862Y465489*
X441886Y465528*
X441917Y465564*
X443098Y466745*
X443133Y466775*
X443173Y466799*
X443185Y466805*
X443216Y466817*
X443261Y466828*
X443307Y466832*
X444882*
X444928Y466828*
G37*
G36*
X1027314Y447265D02*
X1012766D01*
X1015948Y452777*
X1024131*
X1028223Y459864*
X1034587*
X1027314Y447265*
G37*
G36*
X1015896Y427580D02*
X1001349D01*
X1004531Y433092*
X1012714*
X1016805Y440179*
X1023170*
X1015896Y427580*
G37*
G36*
X733511Y431395D02*
X733556Y431384D01*
X733586Y431371*
X733599Y431366*
X733639Y431342*
X733674Y431312*
X734855Y430131*
X734885Y430095*
X734910Y430056*
X734915Y430043*
X734927Y430013*
X734938Y429968*
X734942Y429921*
Y428346*
X734938Y428300*
X734927Y428255*
X734915Y428225*
X734910Y428212*
X734885Y428172*
X734855Y428137*
X733674Y426956*
X733639Y426926*
X733599Y426901*
X733586Y426896*
X733556Y426884*
X733511Y426873*
X733465Y426869*
X731890*
X731843Y426873*
X731798Y426884*
X731768Y426896*
X731755Y426901*
X731716Y426926*
X731680Y426956*
X730499Y428137*
X730469Y428172*
X730445Y428212*
X730440Y428225*
X730427Y428255*
X730416Y428300*
X730412Y428346*
Y429921*
X730416Y429968*
X730427Y430013*
X730440Y430043*
X730445Y430056*
X730469Y430095*
X730499Y430131*
X731680Y431312*
X731716Y431342*
X731755Y431366*
X731768Y431371*
X731798Y431384*
X731843Y431395*
X731890Y431398*
X733465*
X733511Y431395*
G37*
G36*
X1027314Y407896D02*
X1012766D01*
X1015948Y413407*
X1024131*
X1028223Y420494*
X1034587*
X1027314Y407896*
G37*
G36*
X734692Y401474D02*
X734737Y401463D01*
X734768Y401450*
X734780Y401445*
X734820Y401421*
X734855Y401391*
X736036Y400209*
X736066Y400174*
X736091Y400135*
X736096Y400122*
X736108Y400092*
X736119Y400046*
X736123Y400000*
Y398425*
X736119Y398379*
X736108Y398334*
X736096Y398303*
X736091Y398291*
X736066Y398251*
X736036Y398216*
X734855Y397035*
X734820Y397005*
X734780Y396980*
X734768Y396975*
X734737Y396962*
X734692Y396952*
X734646Y396948*
X733071*
X733025Y396952*
X732979Y396962*
X732949Y396975*
X732936Y396980*
X732897Y397005*
X732861Y397035*
X731680Y398216*
X731650Y398251*
X731626Y398291*
X731621Y398303*
X731608Y398334*
X731597Y398379*
X731594Y398425*
Y400000*
X731597Y400046*
X731608Y400092*
X731621Y400122*
X731626Y400135*
X731650Y400174*
X731680Y400209*
X732861Y401391*
X732897Y401421*
X732936Y401445*
X732949Y401450*
X732979Y401463*
X733025Y401474*
X733071Y401477*
X734646*
X734692Y401474*
G37*
G36*
X723668Y394387D02*
X723714Y394376D01*
X723744Y394364*
X723757Y394358*
X723796Y394334*
X723832Y394304*
X725013Y393123*
X725043Y393088*
X725067Y393048*
X725072Y393035*
X725085Y393005*
X725096Y392960*
X725099Y392913*
Y391339*
X725096Y391292*
X725085Y391247*
X725072Y391217*
X725067Y391204*
X725043Y391164*
X725013Y391129*
X723832Y389948*
X723796Y389918*
X723757Y389894*
X723744Y389888*
X723714Y389876*
X723668Y389865*
X723622Y389861*
X722047*
X722001Y389865*
X721956Y389876*
X721925Y389888*
X721913Y389894*
X721873Y389918*
X721838Y389948*
X720657Y391129*
X720626Y391164*
X720602Y391204*
X720597Y391217*
X720584Y391247*
X720574Y391292*
X720570Y391339*
Y392913*
X720574Y392960*
X720584Y393005*
X720597Y393035*
X720602Y393048*
X720626Y393088*
X720657Y393123*
X721838Y394304*
X721873Y394334*
X721913Y394358*
X721925Y394364*
X721956Y394376*
X722001Y394387*
X722047Y394391*
X723622*
X723668Y394387*
G37*
G36*
X944928Y312104D02*
X944973Y312093D01*
X945004Y312080*
X945016Y312075*
X945056Y312051*
X945091Y312020*
X946272Y310839*
X946303Y310804*
X946327Y310764*
X946332Y310752*
X946345Y310721*
X946356Y310676*
X946359Y310630*
Y309055*
X946356Y309009*
X946345Y308964*
X946332Y308933*
X946327Y308921*
X946303Y308881*
X946272Y308846*
X945091Y307665*
X945056Y307634*
X945016Y307610*
X945004Y307605*
X944973Y307592*
X944928Y307581*
X944882Y307578*
X943307*
X943261Y307581*
X943215Y307592*
X943185Y307605*
X943173Y307610*
X943133Y307634*
X943098Y307665*
X941916Y308846*
X941886Y308881*
X941862Y308921*
X941857Y308933*
X941844Y308964*
X941833Y309009*
X941830Y309055*
Y310630*
X941833Y310676*
X941844Y310721*
X941857Y310752*
X941862Y310764*
X941886Y310804*
X941916Y310839*
X943098Y312020*
X943133Y312051*
X943173Y312075*
X943185Y312080*
X943215Y312093*
X943261Y312104*
X943307Y312107*
X944882*
X944928Y312104*
G37*
G36*
X907133D02*
X907178Y312093D01*
X907209Y312080*
X907221Y312075*
X907261Y312051*
X907296Y312020*
X908477Y310839*
X908507Y310804*
X908532Y310764*
X908537Y310752*
X908549Y310721*
X908560Y310676*
X908564Y310630*
Y309055*
X908560Y309009*
X908549Y308964*
X908537Y308933*
X908532Y308921*
X908507Y308881*
X908477Y308846*
X907296Y307665*
X907261Y307634*
X907221Y307610*
X907209Y307605*
X907178Y307592*
X907133Y307581*
X907087Y307578*
X905512*
X905466Y307581*
X905420Y307592*
X905390Y307605*
X905377Y307610*
X905338Y307634*
X905302Y307665*
X904121Y308846*
X904091Y308881*
X904067Y308921*
X904062Y308933*
X904049Y308964*
X904038Y309009*
X904035Y309055*
Y310630*
X904038Y310676*
X904049Y310721*
X904062Y310752*
X904067Y310764*
X904091Y310804*
X904121Y310839*
X905302Y312020*
X905338Y312051*
X905377Y312075*
X905390Y312080*
X905420Y312093*
X905466Y312104*
X905512Y312107*
X907087*
X907133Y312104*
G37*
G36*
X953590Y286513D02*
X953635Y286502D01*
X953665Y286490*
X953678Y286484*
X953717Y286460*
X953753Y286430*
X954934Y285249*
X954964Y285213*
X954988Y285174*
X954994Y285161*
X955006Y285131*
X955017Y285086*
X955021Y285039*
Y283465*
X955017Y283418*
X955006Y283373*
X954994Y283343*
X954988Y283330*
X954964Y283291*
X954934Y283255*
X953753Y282074*
X953717Y282044*
X953678Y282019*
X953665Y282014*
X953635Y282002*
X953590Y281991*
X953543Y281987*
X951968*
X951922Y281991*
X951877Y282002*
X951847Y282014*
X951834Y282019*
X951794Y282044*
X951759Y282074*
X950578Y283255*
X950548Y283291*
X950523Y283330*
X950518Y283343*
X950506Y283373*
X950495Y283418*
X950491Y283465*
Y285039*
X950495Y285086*
X950506Y285131*
X950518Y285161*
X950523Y285174*
X950548Y285213*
X950578Y285249*
X951759Y286430*
X951794Y286460*
X951834Y286484*
X951847Y286490*
X951877Y286502*
X951922Y286513*
X951968Y286517*
X953543*
X953590Y286513*
G37*
G36*
X1009889Y281395D02*
X1009934Y281384D01*
X1009964Y281371*
X1009977Y281366*
X1010017Y281342*
X1010052Y281312*
X1011233Y280131*
X1011263Y280095*
X1011287Y280056*
X1011293Y280043*
X1011305Y280013*
X1011316Y279968*
X1011320Y279921*
Y278346*
X1011316Y278300*
X1011305Y278255*
X1011293Y278224*
X1011287Y278212*
X1011263Y278172*
X1011233Y278137*
X1010052Y276956*
X1010017Y276926*
X1009977Y276901*
X1009964Y276896*
X1009934Y276884*
X1009889Y276873*
X1009842Y276869*
X1008268*
X1008221Y276873*
X1008176Y276884*
X1008146Y276896*
X1008133Y276901*
X1008094Y276926*
X1008058Y276956*
X1006877Y278137*
X1006847Y278172*
X1006823Y278212*
X1006818Y278224*
X1006805Y278255*
X1006794Y278300*
X1006790Y278346*
Y279921*
X1006794Y279968*
X1006805Y280013*
X1006818Y280043*
X1006823Y280056*
X1006847Y280095*
X1006877Y280131*
X1008058Y281312*
X1008094Y281342*
X1008133Y281366*
X1008146Y281371*
X1008176Y281384*
X1008221Y281395*
X1008268Y281399*
X1009842*
X1009889Y281395*
G37*
G36*
X1005952Y275096D02*
X1005997Y275085D01*
X1006027Y275072*
X1006040Y275067*
X1006080Y275043*
X1006115Y275013*
X1007296Y273832*
X1007326Y273796*
X1007351Y273757*
X1007356Y273744*
X1007368Y273714*
X1007379Y273668*
X1007383Y273622*
Y272047*
X1007379Y272001*
X1007368Y271956*
X1007356Y271925*
X1007351Y271913*
X1007326Y271873*
X1007296Y271838*
X1006115Y270657*
X1006080Y270626*
X1006040Y270602*
X1006027Y270597*
X1005997Y270584*
X1005952Y270574*
X1005906Y270570*
X1004331*
X1004284Y270574*
X1004239Y270584*
X1004209Y270597*
X1004196Y270602*
X1004157Y270626*
X1004121Y270657*
X1002940Y271838*
X1002910Y271873*
X1002886Y271913*
X1002880Y271925*
X1002868Y271956*
X1002857Y272001*
X1002853Y272047*
Y273622*
X1002857Y273668*
X1002868Y273714*
X1002880Y273744*
X1002886Y273757*
X1002910Y273796*
X1002940Y273832*
X1004121Y275013*
X1004157Y275043*
X1004196Y275067*
X1004209Y275072*
X1004239Y275085*
X1004284Y275096*
X1004331Y275099*
X1005906*
X1005952Y275096*
G37*
G36*
X950046Y252655D02*
X950091Y252644D01*
X950122Y252631*
X950134Y252626*
X950174Y252602*
X950209Y252572*
X951390Y251391*
X951421Y251355*
X951445Y251316*
X951450Y251303*
X951463Y251273*
X951474Y251227*
X951477Y251181*
Y249606*
X951474Y249560*
X951463Y249515*
X951450Y249484*
X951445Y249472*
X951421Y249432*
X951390Y249397*
X950209Y248216*
X950174Y248186*
X950134Y248161*
X950122Y248156*
X950091Y248144*
X950046Y248133*
X950000Y248129*
X948425*
X948379Y248133*
X948334Y248144*
X948303Y248156*
X948291Y248161*
X948251Y248186*
X948216Y248216*
X947035Y249397*
X947005Y249432*
X946980Y249472*
X946975Y249484*
X946962Y249515*
X946951Y249560*
X946948Y249606*
Y251181*
X946951Y251227*
X946962Y251273*
X946975Y251303*
X946980Y251316*
X947005Y251355*
X947035Y251391*
X948216Y252572*
X948251Y252602*
X948291Y252626*
X948303Y252631*
X948334Y252644*
X948379Y252655*
X948425Y252658*
X950000*
X950046Y252655*
G37*
G36*
X763472Y249151D02*
X763517Y249140D01*
X763547Y249127*
X763560Y249122*
X763599Y249098*
X763635Y249068*
X764816Y247887*
X764846Y247851*
X764870Y247812*
X764875Y247799*
X764888Y247769*
X764899Y247724*
X764902Y247677*
Y246102*
X764899Y246056*
X764888Y246011*
X764875Y245981*
X764870Y245968*
X764846Y245928*
X764816Y245893*
X763635Y244712*
X763599Y244682*
X763560Y244657*
X763547Y244652*
X763517Y244639*
X763472Y244629*
X763425Y244625*
X761850*
X761804Y244629*
X761759Y244639*
X761728Y244652*
X761716Y244657*
X761676Y244682*
X761641Y244712*
X760460Y245893*
X760430Y245928*
X760405Y245968*
X760400Y245981*
X760388Y246011*
X760377Y246056*
X760373Y246102*
Y247677*
X760377Y247724*
X760388Y247769*
X760400Y247799*
X760405Y247812*
X760430Y247851*
X760460Y247887*
X761641Y249068*
X761676Y249098*
X761716Y249122*
X761728Y249127*
X761759Y249140*
X761804Y249151*
X761850Y249154*
X763425*
X763472Y249151*
G37*
G36*
X576464D02*
X576509Y249140D01*
X576539Y249127*
X576552Y249122*
X576591Y249098*
X576627Y249068*
X577808Y247887*
X577838Y247851*
X577862Y247812*
X577868Y247799*
X577880Y247769*
X577891Y247724*
X577895Y247677*
Y246102*
X577891Y246056*
X577880Y246011*
X577868Y245981*
X577862Y245968*
X577838Y245928*
X577808Y245893*
X576627Y244712*
X576591Y244682*
X576552Y244657*
X576539Y244652*
X576509Y244639*
X576464Y244629*
X576417Y244625*
X574843*
X574796Y244629*
X574751Y244639*
X574721Y244652*
X574708Y244657*
X574668Y244682*
X574633Y244712*
X573452Y245893*
X573422Y245928*
X573397Y245968*
X573392Y245981*
X573380Y246011*
X573369Y246056*
X573365Y246102*
Y247677*
X573369Y247724*
X573380Y247769*
X573392Y247799*
X573397Y247812*
X573422Y247851*
X573452Y247887*
X574633Y249068*
X574668Y249098*
X574708Y249122*
X574721Y249127*
X574751Y249140*
X574796Y249151*
X574843Y249154*
X576417*
X576464Y249151*
G37*
G36*
X763472Y243639D02*
X763517Y243628D01*
X763547Y243616*
X763560Y243610*
X763599Y243586*
X763635Y243556*
X764816Y242375*
X764846Y242339*
X764870Y242300*
X764875Y242287*
X764888Y242257*
X764899Y242212*
X764902Y242165*
Y240591*
X764899Y240544*
X764888Y240499*
X764875Y240469*
X764870Y240456*
X764846Y240416*
X764816Y240381*
X763635Y239200*
X763599Y239170*
X763560Y239145*
X763547Y239140*
X763517Y239128*
X763472Y239117*
X763425Y239113*
X761850*
X761804Y239117*
X761759Y239128*
X761728Y239140*
X761716Y239145*
X761676Y239170*
X761641Y239200*
X760460Y240381*
X760430Y240416*
X760405Y240456*
X760400Y240469*
X760388Y240499*
X760377Y240544*
X760373Y240591*
Y242165*
X760377Y242212*
X760388Y242257*
X760400Y242287*
X760405Y242300*
X760430Y242339*
X760460Y242375*
X761641Y243556*
X761676Y243586*
X761716Y243610*
X761728Y243616*
X761759Y243628*
X761804Y243639*
X761850Y243643*
X763425*
X763472Y243639*
G37*
G36*
X576464D02*
X576509Y243628D01*
X576539Y243616*
X576552Y243610*
X576591Y243586*
X576627Y243556*
X577808Y242375*
X577838Y242339*
X577862Y242300*
X577868Y242287*
X577880Y242257*
X577891Y242212*
X577895Y242165*
Y240591*
X577891Y240544*
X577880Y240499*
X577868Y240469*
X577862Y240456*
X577838Y240416*
X577808Y240381*
X576627Y239200*
X576591Y239170*
X576552Y239145*
X576539Y239140*
X576509Y239128*
X576464Y239117*
X576417Y239113*
X574843*
X574796Y239117*
X574751Y239128*
X574721Y239140*
X574708Y239145*
X574668Y239170*
X574633Y239200*
X573452Y240381*
X573422Y240416*
X573397Y240456*
X573392Y240469*
X573380Y240499*
X573369Y240544*
X573365Y240591*
Y242165*
X573369Y242212*
X573380Y242257*
X573392Y242287*
X573397Y242300*
X573422Y242339*
X573452Y242375*
X574633Y243556*
X574668Y243586*
X574708Y243610*
X574721Y243616*
X574751Y243628*
X574796Y243639*
X574843Y243643*
X576417*
X576464Y243639*
G37*
G36*
X1005558Y239663D02*
X1005603Y239652D01*
X1005634Y239639*
X1005646Y239634*
X1005686Y239610*
X1005721Y239580*
X1006902Y238398*
X1006933Y238363*
X1006957Y238323*
X1006962Y238311*
X1006975Y238281*
X1006985Y238235*
X1006989Y238189*
Y236614*
X1006985Y236568*
X1006975Y236523*
X1006962Y236492*
X1006957Y236480*
X1006933Y236440*
X1006902Y236405*
X1005721Y235224*
X1005686Y235193*
X1005646Y235169*
X1005634Y235164*
X1005603Y235151*
X1005558Y235140*
X1005512Y235137*
X1003937*
X1003891Y235140*
X1003846Y235151*
X1003815Y235164*
X1003802Y235169*
X1003763Y235193*
X1003728Y235224*
X1002547Y236405*
X1002516Y236440*
X1002492Y236480*
X1002487Y236492*
X1002474Y236523*
X1002463Y236568*
X1002460Y236614*
Y238189*
X1002463Y238235*
X1002474Y238281*
X1002487Y238311*
X1002492Y238323*
X1002516Y238363*
X1002547Y238398*
X1003728Y239580*
X1003763Y239610*
X1003802Y239634*
X1003815Y239639*
X1003846Y239652*
X1003891Y239663*
X1003937Y239666*
X1005512*
X1005558Y239663*
G37*
G36*
X945322Y236119D02*
X945367Y236108D01*
X945397Y236096*
X945410Y236091*
X945450Y236066*
X945485Y236036*
X946666Y234855*
X946696Y234820*
X946721Y234780*
X946726Y234768*
X946738Y234737*
X946749Y234692*
X946753Y234646*
Y233071*
X946749Y233025*
X946738Y232979*
X946726Y232949*
X946721Y232936*
X946696Y232897*
X946666Y232861*
X945485Y231680*
X945450Y231650*
X945410Y231626*
X945397Y231621*
X945367Y231608*
X945322Y231597*
X945276Y231594*
X943701*
X943654Y231597*
X943609Y231608*
X943579Y231621*
X943566Y231626*
X943527Y231650*
X943491Y231680*
X942310Y232861*
X942280Y232897*
X942256Y232936*
X942251Y232949*
X942238Y232979*
X942227Y233025*
X942223Y233071*
Y234646*
X942227Y234692*
X942238Y234737*
X942251Y234768*
X942256Y234780*
X942280Y234820*
X942310Y234855*
X943491Y236036*
X943527Y236066*
X943566Y236091*
X943579Y236096*
X943609Y236108*
X943654Y236119*
X943701Y236123*
X945276*
X945322Y236119*
G37*
G36*
X939023D02*
X939068Y236108D01*
X939098Y236096*
X939111Y236091*
X939151Y236066*
X939186Y236036*
X940367Y234855*
X940397Y234820*
X940421Y234780*
X940427Y234768*
X940439Y234737*
X940450Y234692*
X940454Y234646*
Y233071*
X940450Y233025*
X940439Y232979*
X940427Y232949*
X940421Y232936*
X940397Y232897*
X940367Y232861*
X939186Y231680*
X939151Y231650*
X939111Y231626*
X939098Y231621*
X939068Y231608*
X939023Y231597*
X938976Y231594*
X937402*
X937355Y231597*
X937310Y231608*
X937280Y231621*
X937267Y231626*
X937228Y231650*
X937192Y231680*
X936011Y232861*
X935981Y232897*
X935957Y232936*
X935951Y232949*
X935939Y232979*
X935928Y233025*
X935924Y233071*
Y234646*
X935928Y234692*
X935939Y234737*
X935951Y234768*
X935957Y234780*
X935981Y234820*
X936011Y234855*
X937192Y236036*
X937228Y236066*
X937267Y236091*
X937280Y236096*
X937310Y236108*
X937355Y236119*
X937402Y236123*
X938976*
X939023Y236119*
G37*
G36*
X1001865Y232191D02*
X1001911Y232180D01*
X1001941Y232167*
X1001954Y232162*
X1001993Y232138*
X1002029Y232108*
X1003210Y230926*
X1003240Y230891*
X1003264Y230852*
X1003269Y230839*
X1003282Y230809*
X1003293Y230763*
X1003296Y230717*
Y229142*
X1003293Y229096*
X1003282Y229051*
X1003269Y229020*
X1003264Y229008*
X1003240Y228968*
X1003210Y228933*
X1002029Y227752*
X1001993Y227722*
X1001954Y227697*
X1001941Y227692*
X1001911Y227679*
X1001865Y227669*
X1001819Y227665*
X1000244*
X1000198Y227669*
X1000153Y227679*
X1000123Y227692*
X1000110Y227697*
X1000070Y227722*
X1000035Y227752*
X998854Y228933*
X998824Y228968*
X998799Y229008*
X998794Y229020*
X998781Y229051*
X998771Y229096*
X998767Y229142*
Y230717*
X998771Y230763*
X998781Y230809*
X998794Y230839*
X998799Y230852*
X998824Y230891*
X998854Y230926*
X1000035Y232108*
X1000070Y232138*
X1000110Y232162*
X1000123Y232167*
X1000153Y232180*
X1000198Y232191*
X1000244Y232194*
X1001819*
X1001865Y232191*
G37*
G36*
X915007Y224702D02*
X915052Y224691D01*
X915082Y224679*
X915095Y224673*
X915135Y224649*
X915170Y224619*
X916351Y223438*
X916381Y223402*
X916406Y223363*
X916411Y223350*
X916423Y223320*
X916434Y223275*
X916438Y223228*
Y221654*
X916434Y221607*
X916423Y221562*
X916411Y221532*
X916406Y221519*
X916381Y221479*
X916351Y221444*
X915170Y220263*
X915135Y220233*
X915095Y220209*
X915082Y220203*
X915052Y220191*
X915007Y220180*
X914961Y220176*
X913386*
X913340Y220180*
X913294Y220191*
X913264Y220203*
X913251Y220209*
X913212Y220233*
X913176Y220263*
X911995Y221444*
X911965Y221479*
X911941Y221519*
X911936Y221532*
X911923Y221562*
X911912Y221607*
X911909Y221654*
Y223228*
X911912Y223275*
X911923Y223320*
X911936Y223350*
X911941Y223363*
X911965Y223402*
X911995Y223438*
X913176Y224619*
X913212Y224649*
X913251Y224673*
X913264Y224679*
X913294Y224691*
X913340Y224702*
X913386Y224706*
X914961*
X915007Y224702*
G37*
G36*
X961070Y210135D02*
X961115Y210124D01*
X961145Y210112*
X961158Y210106*
X961198Y210082*
X961233Y210052*
X962414Y208871*
X962444Y208836*
X962469Y208796*
X962474Y208783*
X962486Y208753*
X962497Y208708*
X962501Y208661*
Y207087*
X962497Y207040*
X962486Y206995*
X962474Y206965*
X962469Y206952*
X962444Y206912*
X962414Y206877*
X961233Y205696*
X961198Y205666*
X961158Y205642*
X961145Y205636*
X961115Y205624*
X961070Y205613*
X961024Y205609*
X959449*
X959402Y205613*
X959357Y205624*
X959327Y205636*
X959314Y205642*
X959275Y205666*
X959239Y205696*
X958058Y206877*
X958028Y206912*
X958004Y206952*
X957999Y206965*
X957986Y206995*
X957975Y207040*
X957971Y207087*
Y208661*
X957975Y208708*
X957986Y208753*
X957999Y208783*
X958004Y208796*
X958028Y208836*
X958058Y208871*
X959239Y210052*
X959275Y210082*
X959314Y210106*
X959327Y210112*
X959357Y210124*
X959402Y210135*
X959449Y210139*
X961024*
X961070Y210135*
G37*
G36*
X959101Y201080D02*
X959147Y201069D01*
X959177Y201057*
X959190Y201051*
X959229Y201027*
X959265Y200997*
X960446Y199816*
X960476Y199780*
X960500Y199741*
X960505Y199728*
X960518Y199698*
X960529Y199653*
X960532Y199606*
Y198031*
X960529Y197985*
X960518Y197940*
X960505Y197910*
X960500Y197897*
X960476Y197857*
X960446Y197822*
X959265Y196641*
X959229Y196611*
X959190Y196587*
X959177Y196581*
X959147Y196569*
X959101Y196558*
X959055Y196554*
X957480*
X957434Y196558*
X957389Y196569*
X957358Y196581*
X957346Y196587*
X957306Y196611*
X957271Y196641*
X956090Y197822*
X956060Y197857*
X956035Y197897*
X956030Y197910*
X956017Y197940*
X956007Y197985*
X956003Y198031*
Y199606*
X956007Y199653*
X956017Y199698*
X956030Y199728*
X956035Y199741*
X956060Y199780*
X956090Y199816*
X957271Y200997*
X957306Y201027*
X957346Y201051*
X957358Y201057*
X957389Y201069*
X957434Y201080*
X957480Y201084*
X959055*
X959101Y201080*
G37*
G36*
X746936Y137733D02*
X746981Y137723D01*
X747012Y137710*
X747024Y137705*
X747064Y137681*
X747099Y137650*
X748280Y136469*
X748311Y136434*
X748335Y136394*
X748340Y136382*
X748353Y136351*
X748363Y136306*
X748367Y136260*
Y134685*
X748363Y134639*
X748353Y134593*
X748340Y134563*
X748335Y134550*
X748311Y134511*
X748280Y134476*
X747099Y133294*
X747064Y133264*
X747024Y133240*
X747012Y133235*
X746981Y133222*
X746936Y133211*
X746890Y133208*
X745315*
X745269Y133211*
X745223Y133222*
X745193Y133235*
X745181Y133240*
X745141Y133264*
X745106Y133294*
X743924Y134476*
X743894Y134511*
X743870Y134550*
X743865Y134563*
X743852Y134593*
X743841Y134639*
X743838Y134685*
Y136260*
X743841Y136306*
X743852Y136351*
X743865Y136382*
X743870Y136394*
X743894Y136434*
X743924Y136469*
X745106Y137650*
X745141Y137681*
X745181Y137705*
X745193Y137710*
X745223Y137723*
X745269Y137733*
X745315Y137737*
X746890*
X746936Y137733*
G37*
G36*
X656779Y136946D02*
X656824Y136935D01*
X656854Y136923*
X656867Y136917*
X656906Y136893*
X656942Y136863*
X658123Y135682*
X658153Y135646*
X658177Y135607*
X658182Y135594*
X658195Y135564*
X658206Y135519*
X658210Y135472*
Y133898*
X658206Y133851*
X658195Y133806*
X658182Y133776*
X658177Y133763*
X658153Y133723*
X658123Y133688*
X656942Y132507*
X656906Y132477*
X656867Y132453*
X656854Y132447*
X656824Y132435*
X656779Y132424*
X656732Y132420*
X655158*
X655111Y132424*
X655066Y132435*
X655036Y132447*
X655023Y132453*
X654983Y132477*
X654948Y132507*
X653767Y133688*
X653737Y133723*
X653712Y133763*
X653707Y133776*
X653695Y133806*
X653684Y133851*
X653680Y133898*
Y135472*
X653684Y135519*
X653695Y135564*
X653707Y135594*
X653712Y135607*
X653737Y135646*
X653767Y135682*
X654948Y136863*
X654983Y136893*
X655023Y136917*
X655036Y136923*
X655066Y136935*
X655111Y136946*
X655158Y136950*
X656732*
X656779Y136946*
G37*
G54D30*
X1001966Y560630D02*
Y565878D01*
Y563254*
X994094*
X1000654Y573749D02*
X1001966Y572437D01*
Y569813*
X1000654Y568501*
X999342*
X998030Y569813*
Y572437*
X996718Y573749*
X995406*
X994094Y572437*
Y569813*
X995406Y568501*
X1000654Y576373D02*
X1001966Y577685D01*
Y580309*
X1000654Y581621*
X999342*
X998030Y580309*
Y578997*
Y580309*
X996718Y581621*
X995406*
X994094Y580309*
Y577685*
X995406Y576373*
G54D34*
X899168Y400983D02*
X900348Y399802D01*
Y397441*
X899168Y396260*
X897987*
X896806Y397441*
Y399802*
X895626Y400983*
X894445*
X893264Y399802*
Y397441*
X894445Y396260*
X893264Y404525D02*
Y406886D01*
X894445Y408067*
X896806*
X897987Y406886*
Y404525*
X896806Y403344*
X894445*
X893264Y404525*
Y410428D02*
Y412790D01*
Y411609*
X900348*
Y410428*
X897987Y417513D02*
Y419874D01*
X896806Y421055*
X893264*
Y417513*
X894445Y416332*
X895626Y417513*
Y421055*
X897987Y423416D02*
X893264D01*
X895626*
X896806Y424597*
X897987Y425778*
Y426959*
X887595Y396260D02*
X880511D01*
Y399802*
X881692Y400983*
X882872*
X884053Y399802*
Y396260*
Y399802*
X885234Y400983*
X886415*
X887595Y399802*
Y396260*
X885234Y404525D02*
Y406886D01*
X884053Y408067*
X880511*
Y404525*
X881692Y403344*
X882872Y404525*
Y408067*
X886415Y411609D02*
X885234D01*
Y410428*
Y412790*
Y411609*
X881692*
X880511Y412790*
X886415Y417513D02*
X885234D01*
Y416332*
Y418693*
Y417513*
X881692*
X880511Y418693*
Y425778D02*
Y423416D01*
X881692Y422236*
X884053*
X885234Y423416*
Y425778*
X884053Y426959*
X882872*
Y422236*
X885234Y429320D02*
X880511D01*
X882872*
X884053Y430501*
X885234Y431681*
Y432862*
Y436404D02*
X881692D01*
X880511Y437585*
Y441127*
X879330*
X878150Y439947*
Y438766*
X880511Y441127D02*
X885234D01*
X886415Y455296D02*
X887595Y454115D01*
Y451754*
X886415Y450573*
X881692*
X880511Y451754*
Y454115*
X881692Y455296*
X887595Y457657D02*
X880511D01*
X884053*
X885234Y458838*
Y461199*
X884053Y462380*
X880511*
X885234Y465922D02*
Y468284D01*
X884053Y469464*
X880511*
Y465922*
X881692Y464742*
X882872Y465922*
Y469464*
X885234Y471826D02*
X880511D01*
X882872*
X884053Y473007*
X885234Y474187*
Y475368*
X878150Y481272D02*
Y482452D01*
X879330Y483633*
X885234*
Y480091*
X884053Y478910*
X881692*
X880511Y480091*
Y483633*
Y489537D02*
Y487175D01*
X881692Y485994*
X884053*
X885234Y487175*
Y489537*
X884053Y490717*
X882872*
Y485994*
X885234Y493079D02*
X880511D01*
X882872*
X884053Y494260*
X885234Y495440*
Y496621*
G54D61*
X860945Y321004D03*
X894961D03*
X989449D03*
X955433D03*
G54D101*
X894961Y304075D03*
X860945D03*
X955433D03*
X989449D03*
G54D102*
X889665Y302106D03*
X886319D03*
X882972D03*
X879626D03*
X876280D03*
X872933D03*
X869587D03*
X866240D03*
Y307421D03*
X869587D03*
X872933D03*
X876280D03*
X879626D03*
X882972D03*
X886319D03*
X889665D03*
X984153D03*
X980807D03*
X977461D03*
X974114D03*
X970768D03*
X967421D03*
X964075D03*
X960728D03*
Y302106D03*
X964075D03*
X967421D03*
X970768D03*
X974114D03*
X977461D03*
X980807D03*
X984153D03*
G54D103*
X894961Y320413D03*
X860945D03*
X955433D03*
X989449D03*
G54D105*
X610276Y112638D03*
X678780D03*
X722087D03*
G54D113*
X1000061Y485538D03*
X998947Y486652D03*
X1001174Y484425D03*
X1002288Y483311D03*
X1003401Y482198D03*
X1004515Y481084D03*
X1005629Y479971D03*
X1006742Y478857D03*
X1007856Y477743D03*
X1008969Y476630D03*
X1010083Y475516D03*
X1011196Y474403D03*
X1012310Y473289D03*
X1013424Y472176D03*
X1028095Y495755D03*
X1026981Y496869D03*
X1025867Y497982D03*
X1024754Y499096D03*
X1018073Y505777D03*
X1020300Y503550D03*
X1021413Y502436D03*
X1022527Y501323D03*
X1023640Y500209D03*
X1031435Y492415D03*
X1030322Y493528D03*
X1019186Y504664D03*
X1032549Y491301D03*
X1029208Y494642D03*
G54D114*
X998947Y491301D03*
X1000061Y492415D03*
X1001174Y493528D03*
X1002288Y494642D03*
X1003401Y495755D03*
X1004515Y496869D03*
X1005629Y497982D03*
X1006742Y499096D03*
X1007856Y500209D03*
X1008969Y501323D03*
X1010083Y502436D03*
X1011196Y503550D03*
X1012310Y504664D03*
X1013424Y505777D03*
X1018073Y472176D03*
X1019186Y473289D03*
X1020300Y474403D03*
X1021413Y475516D03*
X1022527Y476630D03*
X1023640Y477743D03*
X1024754Y478857D03*
X1025867Y479971D03*
X1026981Y481084D03*
X1028095Y482198D03*
X1029208Y483311D03*
X1030322Y484425D03*
X1031435Y485538D03*
X1032549Y486652D03*
G54D198*
X1023622Y374016D03*
Y570866D03*
X885827Y374016D03*
Y570866D03*
G54D199*
X1035039Y374016D03*
X1015549Y382089D03*
X1012205Y374016D03*
X1031695Y365943D03*
X1023622Y385433D03*
X1015549Y365943D03*
X1023622Y362598D03*
X1031695Y382089D03*
X1023622Y582283D03*
X1015549Y562793D03*
X1023622Y559449D03*
X1031695Y578939D03*
X1012205Y570866D03*
X1031695Y562793D03*
X1035039Y570866D03*
X1015549Y578939D03*
X893900Y365943D03*
X874409Y374016D03*
X877754Y382089D03*
X897244Y374016D03*
X877754Y365943D03*
X885827Y385433D03*
X893900Y382089D03*
X885827Y362598D03*
X877754Y562793D03*
X885827Y582283D03*
X893900Y578939D03*
X885827Y559449D03*
X877754Y578939D03*
X897244Y570866D03*
X893900Y562793D03*
X874409Y570866D03*
G54D200*
X520433Y205354D03*
Y148268D03*
X109488D03*
Y205354D03*
X109449Y404134D03*
Y461221D03*
X323622D03*
Y404134D03*
X579528Y461221D03*
Y404134D03*
X365354D03*
Y461221D03*
X835433D03*
Y404134D03*
X621260D03*
Y461221D03*
X776417Y205354D03*
Y148268D03*
X562244D03*
Y205354D03*
G54D201*
X109646Y237205D03*
Y266732D03*
X508071Y512795D03*
X478543D03*
G54D202*
X150197Y237205D03*
Y266732D03*
X508071Y472244D03*
X478543D03*
G54D203*
X218110Y232283D03*
X435433Y295276D03*
G54D204*
X185748Y295276D03*
G54D205*
X448779Y161457D03*
Y192165D03*
X181142D03*
Y161457D03*
X251969Y417323D03*
X181102Y448032D03*
Y417323D03*
X251969Y448032D03*
X507874D03*
X437008D03*
Y417323D03*
X507874D03*
X763779Y448032D03*
Y417323D03*
X692913D03*
Y448032D03*
X704764Y192165D03*
Y161457D03*
X633898D03*
Y192165D03*
G54D206*
X511811Y314961D03*
Y118110D03*
X118110Y314961D03*
Y118110D03*
X314961Y374016D03*
X118110D03*
Y570866D03*
X314961D03*
X570866Y374016D03*
X374016D03*
Y570866D03*
X570866D03*
X1023622Y314961D03*
X826772D03*
Y118110D03*
X1023622D03*
X826772Y374016D03*
X629921D03*
Y570866D03*
X826772D03*
X767717Y314961D03*
X570866D03*
Y118110D03*
X767717D03*
G54D207*
X1016929Y265827D03*
Y285827D03*
X996929D03*
Y265827D03*
X1016929Y224095D03*
Y244094D03*
X996929D03*
Y224095D03*
G54D208*
X610276Y132323D03*
X626024D03*
X596496D03*
X678780D03*
X694527D03*
X665000D03*
X722087D03*
X737835D03*
X708307D03*
G54D209*
X1022582Y531806D03*
X1021189Y530414D03*
X1019798Y529022D03*
X1018406Y527630D03*
G54D210*
X1024943Y534178D03*
G54D211*
X1024923Y534855D03*
G54D212*
X1016504Y526747D03*
G54D213*
X1015338Y527219D03*
X1023551Y536266D03*
X1013947Y528611D03*
X1022160Y537657D03*
X1012554Y530002D03*
X1019793Y540024D03*
X1011163Y531394D03*
X1018401Y541416D03*
X1009771Y532786D03*
X1017009Y542808D03*
X1008379Y534178D03*
X1015617Y544200D03*
X1006987Y535570D03*
X1014225Y545592D03*
X1005595Y536962D03*
X1012833Y546984D03*
X1004203Y538354D03*
G54D214*
X1012320Y538869D03*
G54D215*
X1015368Y543114D03*
X1008073Y535819D03*
G54D216*
X896850Y475591D02*
Y468504D01*
X907087Y458268*
X939764*
X942520Y461024D02*
X939764Y458268D01*
X942520Y461024D02*
X960236D01*
X963386Y457874*
X970473Y450787*
Y439764*
X977953Y432283*
X992913*
X996850Y428346*
Y425197*
X954724Y585433D02*
X954725Y566142D01*
X946850Y585433D02*
Y565748D01*
X986220Y364173D02*
Y359449D01*
X978347Y364173D02*
Y359449D01*
X954725Y360236D02*
X954724Y359449D01*
X946850Y360236D02*
Y359449D01*
X925197Y364173D02*
Y359449D01*
X917323Y360236D02*
Y359449D01*
Y585433D02*
Y557087D01*
X925197Y585433D02*
Y561024D01*
X978347Y585433D02*
Y564961D01*
X986220Y585433D02*
Y568898D01*
G54D217*
X1015748Y488976D03*
M02*