%FSLAX25Y25*%
%MOIN*%
%SFA1B1*%

%IPPOS*%
%AMD10*
4,1,8,-0.134100,-0.127400,0.134100,-0.127400,0.146800,-0.114600,0.146800,0.114600,0.134100,0.127400,-0.134100,0.127400,-0.146800,0.114600,-0.146800,-0.114600,-0.134100,-0.127400,0.0*
1,1,0.025480,-0.134100,-0.114600*
1,1,0.025480,0.134100,-0.114600*
1,1,0.025480,0.134100,0.114600*
1,1,0.025480,-0.134100,0.114600*
%
%AMD11*
4,1,8,-0.059100,0.026600,-0.059100,-0.026600,-0.056100,-0.029500,0.056100,-0.029500,0.059100,-0.026600,0.059100,0.026600,0.056100,0.029500,-0.056100,0.029500,-0.059100,0.026600,0.0*
1,1,0.005900,-0.056100,0.026600*
1,1,0.005900,-0.056100,-0.026600*
1,1,0.005900,0.056100,-0.026600*
1,1,0.005900,0.056100,0.026600*
%
%AMD15*
4,1,8,-0.026600,-0.059100,0.026600,-0.059100,0.029500,-0.056100,0.029500,0.056100,0.026600,0.059100,-0.026600,0.059100,-0.029500,0.056100,-0.029500,-0.056100,-0.026600,-0.059100,0.0*
1,1,0.005900,-0.026600,-0.056100*
1,1,0.005900,0.026600,-0.056100*
1,1,0.005900,0.026600,0.056100*
1,1,0.005900,-0.026600,0.056100*
%
%AMD16*
4,1,8,-0.015700,0.015500,-0.015700,-0.015500,-0.012600,-0.018700,0.012600,-0.018700,0.015700,-0.015500,0.015700,0.015500,0.012600,0.018700,-0.012600,0.018700,-0.015700,0.015500,0.0*
1,1,0.006300,-0.012600,0.015500*
1,1,0.006300,-0.012600,-0.015500*
1,1,0.006300,0.012600,-0.015500*
1,1,0.006300,0.012600,0.015500*
%
%AMD18*
4,1,8,0.015400,0.006900,-0.015400,0.006900,-0.016700,0.005500,-0.016700,-0.005500,-0.015400,-0.006900,0.015400,-0.006900,0.016700,-0.005500,0.016700,0.005500,0.015400,0.006900,0.0*
1,1,0.002760,0.015400,0.005500*
1,1,0.002760,-0.015400,0.005500*
1,1,0.002760,-0.015400,-0.005500*
1,1,0.002760,0.015400,-0.005500*
%
%AMD21*
4,1,8,-0.042300,0.020500,-0.042300,-0.020500,-0.037200,-0.025600,0.037200,-0.025600,0.042300,-0.020500,0.042300,0.020500,0.037200,0.025600,-0.037200,0.025600,-0.042300,0.020500,0.0*
1,1,0.010240,-0.037200,0.020500*
1,1,0.010240,-0.037200,-0.020500*
1,1,0.010240,0.037200,-0.020500*
1,1,0.010240,0.037200,0.020500*
%
%AMD22*
4,1,8,-0.023600,0.012600,-0.023600,-0.012600,-0.020500,-0.015700,0.020500,-0.015700,0.023600,-0.012600,0.023600,0.012600,0.020500,0.015700,-0.020500,0.015700,-0.023600,0.012600,0.0*
1,1,0.006300,-0.020500,0.012600*
1,1,0.006300,-0.020500,-0.012600*
1,1,0.006300,0.020500,-0.012600*
1,1,0.006300,0.020500,0.012600*
%
%AMD23*
4,1,8,0.018900,0.023600,-0.018900,0.023600,-0.023600,0.018900,-0.023600,-0.018900,-0.018900,-0.023600,0.018900,-0.023600,0.023600,-0.018900,0.023600,0.018900,0.018900,0.023600,0.0*
1,1,0.009440,0.018900,0.018900*
1,1,0.009440,-0.018900,0.018900*
1,1,0.009440,-0.018900,-0.018900*
1,1,0.009440,0.018900,-0.018900*
%
%AMD24*
4,1,8,0.012600,0.023600,-0.012600,0.023600,-0.015700,0.020500,-0.015700,-0.020500,-0.012600,-0.023600,0.012600,-0.023600,0.015700,-0.020500,0.015700,0.020500,0.012600,0.023600,0.0*
1,1,0.006300,0.012600,0.020500*
1,1,0.006300,-0.012600,0.020500*
1,1,0.006300,-0.012600,-0.020500*
1,1,0.006300,0.012600,-0.020500*
%
%AMD25*
4,1,8,0.020500,0.042300,-0.020500,0.042300,-0.025600,0.037200,-0.025600,-0.037200,-0.020500,-0.042300,0.020500,-0.042300,0.025600,-0.037200,0.025600,0.037200,0.020500,0.042300,0.0*
1,1,0.010240,0.020500,0.037200*
1,1,0.010240,-0.020500,0.037200*
1,1,0.010240,-0.020500,-0.037200*
1,1,0.010240,0.020500,-0.037200*
%
%AMD26*
4,1,8,-0.018900,-0.008900,0.018900,-0.008900,0.020700,-0.007100,0.020700,0.007100,0.018900,0.008900,-0.018900,0.008900,-0.020700,0.007100,-0.020700,-0.007100,-0.018900,-0.008900,0.0*
1,1,0.003540,-0.018900,-0.007100*
1,1,0.003540,0.018900,-0.007100*
1,1,0.003540,0.018900,0.007100*
1,1,0.003540,-0.018900,0.007100*
%
%AMD27*
4,1,8,-0.015500,-0.015700,0.015500,-0.015700,0.018700,-0.012600,0.018700,0.012600,0.015500,0.015700,-0.015500,0.015700,-0.018700,0.012600,-0.018700,-0.012600,-0.015500,-0.015700,0.0*
1,1,0.006300,-0.015500,-0.012600*
1,1,0.006300,0.015500,-0.012600*
1,1,0.006300,0.015500,0.012600*
1,1,0.006300,-0.015500,0.012600*
%
%AMD28*
4,1,8,-0.016900,-0.011000,0.016900,-0.011000,0.019100,-0.008800,0.019100,0.008800,0.016900,0.011000,-0.016900,0.011000,-0.019100,0.008800,-0.019100,-0.008800,-0.016900,-0.011000,0.0*
1,1,0.004400,-0.016900,-0.008800*
1,1,0.004400,0.016900,-0.008800*
1,1,0.004400,0.016900,0.008800*
1,1,0.004400,-0.016900,0.008800*
%
%AMD29*
4,1,8,-0.039400,0.066900,-0.039400,-0.066900,-0.035400,-0.070900,0.035400,-0.070900,0.039400,-0.066900,0.039400,0.066900,0.035400,0.070900,-0.035400,0.070900,-0.039400,0.066900,0.0*
1,1,0.007880,-0.035400,0.066900*
1,1,0.007880,-0.035400,-0.066900*
1,1,0.007880,0.035400,-0.066900*
1,1,0.007880,0.035400,0.066900*
%
%AMD41*
4,1,8,0.003300,-0.030100,0.030100,-0.003300,0.030100,0.003300,0.003300,0.030100,-0.003300,0.030100,-0.030100,0.003300,-0.030100,-0.003300,-0.003300,-0.030100,0.003300,-0.030100,0.0*
1,1,0.009440,0.000000,-0.026700*
1,1,0.009440,0.026700,0.000000*
1,1,0.009440,0.000000,0.026700*
1,1,0.009440,-0.026700,0.000000*
%
%AMD42*
4,1,8,-0.039000,-0.002800,-0.002800,-0.039000,0.005600,-0.039000,0.039000,-0.005600,0.039000,0.002800,0.002800,0.039000,-0.005600,0.039000,-0.039000,0.005600,-0.039000,-0.002800,0.0*
1,1,0.011820,-0.034800,0.001400*
1,1,0.011820,0.001400,-0.034800*
1,1,0.011820,0.034800,-0.001400*
1,1,0.011820,-0.001400,0.034800*
%
%AMD43*
4,1,8,-0.060600,-0.023000,-0.023000,-0.060600,-0.018800,-0.060500,0.060500,0.018800,0.060600,0.023000,0.023000,0.060600,0.018800,0.060500,-0.060500,-0.018800,-0.060600,-0.023000,0.0*
1,1,0.005900,-0.058500,-0.020900*
1,1,0.005900,-0.020900,-0.058500*
1,1,0.005900,0.058500,0.020900*
1,1,0.005900,0.020900,0.058500*
%
%AMD49*
4,1,8,-0.022100,-0.000100,-0.000100,-0.022100,0.004300,-0.022100,0.022100,-0.004300,0.022100,0.000100,0.000100,0.022100,-0.004300,0.022100,-0.022100,0.004300,-0.022100,-0.000100,0.0*
1,1,0.006300,-0.019900,0.002100*
1,1,0.006300,0.002100,-0.019900*
1,1,0.006300,0.019900,-0.002100*
1,1,0.006300,-0.002100,0.019900*
%
%AMD50*
4,1,8,-0.016700,0.018300,-0.016700,-0.018300,-0.013400,-0.021700,0.013400,-0.021700,0.016700,-0.018300,0.016700,0.018300,0.013400,0.021700,-0.013400,0.021700,-0.016700,0.018300,0.0*
1,1,0.006700,-0.013400,0.018300*
1,1,0.006700,-0.013400,-0.018300*
1,1,0.006700,0.013400,-0.018300*
1,1,0.006700,0.013400,0.018300*
%
%AMD51*
4,1,8,-0.009800,-0.009800,0.009800,-0.009800,0.011800,-0.007900,0.011800,0.007900,0.009800,0.009800,-0.009800,0.009800,-0.011800,0.007900,-0.011800,-0.007900,-0.009800,-0.009800,0.0*
1,1,0.003940,-0.009800,-0.007900*
1,1,0.003940,0.009800,-0.007900*
1,1,0.003940,0.009800,0.007900*
1,1,0.003940,-0.009800,0.007900*
%
%AMD53*
4,1,8,-0.018300,-0.016700,0.018300,-0.016700,0.021700,-0.013400,0.021700,0.013400,0.018300,0.016700,-0.018300,0.016700,-0.021700,0.013400,-0.021700,-0.013400,-0.018300,-0.016700,0.0*
1,1,0.006700,-0.018300,-0.013400*
1,1,0.006700,0.018300,-0.013400*
1,1,0.006700,0.018300,0.013400*
1,1,0.006700,-0.018300,0.013400*
%
%AMD54*
4,1,8,-0.004100,-0.015700,0.004100,-0.015700,0.005900,-0.014000,0.005900,0.014000,0.004100,0.015700,-0.004100,0.015700,-0.005900,0.014000,-0.005900,-0.014000,-0.004100,-0.015700,0.0*
1,1,0.003540,-0.004100,-0.014000*
1,1,0.003540,0.004100,-0.014000*
1,1,0.003540,0.004100,0.014000*
1,1,0.003540,-0.004100,0.014000*
%
%AMD59*
4,1,8,0.020700,0.031500,-0.020700,0.031500,-0.029500,0.022600,-0.029500,-0.022600,-0.020700,-0.031500,0.020700,-0.031500,0.029500,-0.022600,0.029500,0.022600,0.020700,0.031500,0.0*
1,1,0.017720,0.020700,0.022600*
1,1,0.017720,-0.020700,0.022600*
1,1,0.017720,-0.020700,-0.022600*
1,1,0.017720,0.020700,-0.022600*
%
%AMD60*
4,1,8,0.009800,-0.009800,0.009800,0.009800,0.007900,0.011800,-0.007900,0.011800,-0.009800,0.009800,-0.009800,-0.009800,-0.007900,-0.011800,0.007900,-0.011800,0.009800,-0.009800,0.0*
1,1,0.003940,0.007900,-0.009800*
1,1,0.003940,0.007900,0.009800*
1,1,0.003940,-0.007900,0.009800*
1,1,0.003940,-0.007900,-0.009800*
%
%AMD62*
4,1,8,-0.012800,-0.063000,0.012800,-0.063000,0.015900,-0.059800,0.015900,0.059800,0.012800,0.063000,-0.012800,0.063000,-0.015900,0.059800,-0.015900,-0.059800,-0.012800,-0.063000,0.0*
1,1,0.006380,-0.012800,-0.059800*
1,1,0.006380,0.012800,-0.059800*
1,1,0.006380,0.012800,0.059800*
1,1,0.006380,-0.012800,0.059800*
%
%AMD63*
4,1,8,-0.000100,0.022100,-0.022100,0.000100,-0.022100,-0.004300,-0.004300,-0.022100,0.000100,-0.022100,0.022100,-0.000100,0.022100,0.004300,0.004300,0.022100,-0.000100,0.022100,0.0*
1,1,0.006300,0.002100,0.019900*
1,1,0.006300,-0.019900,-0.002100*
1,1,0.006300,-0.002100,-0.019900*
1,1,0.006300,0.019900,0.002100*
%
%AMD64*
4,1,8,0.006400,0.019000,-0.019000,-0.006400,-0.019000,-0.010300,-0.010300,-0.019000,-0.006400,-0.019000,0.019000,0.006400,0.019000,0.010300,0.010300,0.019000,0.006400,0.019000,0.0*
1,1,0.005320,0.008300,0.017100*
1,1,0.005320,-0.017100,-0.008300*
1,1,0.005320,-0.008300,-0.017100*
1,1,0.005320,0.017100,0.008300*
%
%AMD67*
4,1,8,0.022500,0.108300,-0.022500,0.108300,-0.028100,0.102600,-0.028100,-0.102600,-0.022500,-0.108300,0.022500,-0.108300,0.028100,-0.102600,0.028100,0.102600,0.022500,0.108300,0.0*
1,1,0.011260,0.022500,0.102600*
1,1,0.011260,-0.022500,0.102600*
1,1,0.011260,-0.022500,-0.102600*
1,1,0.011260,0.022500,-0.102600*
%
%AMD68*
4,1,8,0.046600,0.022600,-0.046600,0.022600,-0.051200,0.018100,-0.051200,-0.018100,-0.046600,-0.022600,0.046600,-0.022600,0.051200,-0.018100,0.051200,0.018100,0.046600,0.022600,0.0*
1,1,0.009060,0.046600,0.018100*
1,1,0.009060,-0.046600,0.018100*
1,1,0.009060,-0.046600,-0.018100*
1,1,0.009060,0.046600,-0.018100*
%
%AMD69*
4,1,8,0.022600,0.019700,-0.022600,0.019700,-0.026600,0.015700,-0.026600,-0.015700,-0.022600,-0.019700,0.022600,-0.019700,0.026600,-0.015700,0.026600,0.015700,0.022600,0.019700,0.0*
1,1,0.007880,0.022600,0.015700*
1,1,0.007880,-0.022600,0.015700*
1,1,0.007880,-0.022600,-0.015700*
1,1,0.007880,0.022600,-0.015700*
%
%AMD77*
4,1,8,-0.022600,0.046600,-0.022600,-0.046600,-0.018100,-0.051200,0.018100,-0.051200,0.022600,-0.046600,0.022600,0.046600,0.018100,0.051200,-0.018100,0.051200,-0.022600,0.046600,0.0*
1,1,0.009060,-0.018100,0.046600*
1,1,0.009060,-0.018100,-0.046600*
1,1,0.009060,0.018100,-0.046600*
1,1,0.009060,0.018100,0.046600*
%
%AMD78*
4,1,8,0.023000,-0.060600,0.060600,-0.023000,0.060500,-0.018800,-0.018800,0.060500,-0.023000,0.060600,-0.060600,0.023000,-0.060500,0.018800,0.018800,-0.060500,0.023000,-0.060600,0.0*
1,1,0.005900,0.020900,-0.058500*
1,1,0.005900,0.058500,-0.020900*
1,1,0.005900,-0.020900,0.058500*
1,1,0.005900,-0.058500,0.020900*
%
%AMD83*
4,1,8,-0.011000,0.016900,-0.011000,-0.016900,-0.008800,-0.019100,0.008800,-0.019100,0.011000,-0.016900,0.011000,0.016900,0.008800,0.019100,-0.008800,0.019100,-0.011000,0.016900,0.0*
1,1,0.004400,-0.008800,0.016900*
1,1,0.004400,-0.008800,-0.016900*
1,1,0.004400,0.008800,-0.016900*
1,1,0.004400,0.008800,0.016900*
%
%AMD85*
4,1,8,0.019900,0.013800,-0.019900,0.013800,-0.022600,0.011000,-0.022600,-0.011000,-0.019900,-0.013800,0.019900,-0.013800,0.022600,-0.011000,0.022600,0.011000,0.019900,0.013800,0.0*
1,1,0.005520,0.019900,0.011000*
1,1,0.005520,-0.019900,0.011000*
1,1,0.005520,-0.019900,-0.011000*
1,1,0.005520,0.019900,-0.011000*
%
%AMD136*
4,1,8,0.005900,0.058100,-0.005900,0.058100,-0.011800,0.052200,-0.011800,-0.052200,-0.005900,-0.058100,0.005900,-0.058100,0.011800,-0.052200,0.011800,0.052200,0.005900,0.058100,0.0*
1,1,0.011820,0.005900,0.052200*
1,1,0.011820,-0.005900,0.052200*
1,1,0.011820,-0.005900,-0.052200*
1,1,0.011820,0.005900,-0.052200*
%
%AMD137*
4,1,8,-0.008500,0.061800,-0.008500,-0.061800,-0.004200,-0.066000,0.004200,-0.066000,0.008500,-0.061800,0.008500,0.061800,0.004200,0.066000,-0.004200,0.066000,-0.008500,0.061800,0.0*
1,1,0.008460,-0.004200,0.061800*
1,1,0.008460,-0.004200,-0.061800*
1,1,0.008460,0.004200,-0.061800*
1,1,0.008460,0.004200,0.061800*
%
%AMD138*
4,1,8,-0.007400,0.005200,-0.007400,-0.005200,-0.003700,-0.008900,0.003700,-0.008900,0.007400,-0.005200,0.007400,0.005200,0.003700,0.008900,-0.003700,0.008900,-0.007400,0.005200,0.0*
1,1,0.007380,-0.003700,0.005200*
1,1,0.007380,-0.003700,-0.005200*
1,1,0.007380,0.003700,-0.005200*
1,1,0.007380,0.003700,0.005200*
%
%AMD139*
4,1,8,-0.005400,-0.004900,0.005400,-0.004900,0.007900,-0.002500,0.007900,0.002500,0.005400,0.004900,-0.005400,0.004900,-0.007900,0.002500,-0.007900,-0.002500,-0.005400,-0.004900,0.0*
1,1,0.004920,-0.005400,-0.002500*
1,1,0.004920,0.005400,-0.002500*
1,1,0.004920,0.005400,0.002500*
1,1,0.004920,-0.005400,0.002500*
%
%AMD140*
4,1,8,-0.004900,0.005400,-0.004900,-0.005400,-0.002500,-0.007900,0.002500,-0.007900,0.004900,-0.005400,0.004900,0.005400,0.002500,0.007900,-0.002500,0.007900,-0.004900,0.005400,0.0*
1,1,0.004920,-0.002500,0.005400*
1,1,0.004920,-0.002500,-0.005400*
1,1,0.004920,0.002500,-0.005400*
1,1,0.004920,0.002500,0.005400*
%
%AMD141*
4,1,8,-0.005900,0.012700,-0.005900,-0.012700,-0.003000,-0.015600,0.003000,-0.015600,0.005900,-0.012700,0.005900,0.012700,0.003000,0.015600,-0.003000,0.015600,-0.005900,0.012700,0.0*
1,1,0.005900,-0.003000,0.012700*
1,1,0.005900,-0.003000,-0.012700*
1,1,0.005900,0.003000,-0.012700*
1,1,0.005900,0.003000,0.012700*
%
%AMD144*
4,1,8,0.040500,0.040500,-0.040500,0.040500,-0.040500,0.040500,-0.040500,-0.040500,-0.040500,-0.040500,0.040500,-0.040500,0.040500,-0.040500,0.040500,0.040500,0.040500,0.040500,0.0*
1,1,0.000000,0.040500,0.040500*
1,1,0.000000,-0.040500,0.040500*
1,1,0.000000,-0.040500,-0.040500*
1,1,0.000000,0.040500,-0.040500*
%
G04~CAMADD=10~8~0.0~0.0~2937.0~2547.2~127.4~0.0~15~0.0~0.0~0.0~0.0~0~0.0~0.0~0.0~0.0~0~0.0~0.0~0.0~180.0~2938.0~2547.0*
%ADD10D10*%
G04~CAMADD=11~8~0.0~0.0~590.6~1181.1~29.5~0.0~15~0.0~0.0~0.0~0.0~0~0.0~0.0~0.0~0.0~0~0.0~0.0~0.0~90.0~1182.0~591.0*
%ADD11D11*%
G04~CAMADD=15~8~0.0~0.0~590.6~1181.1~29.5~0.0~15~0.0~0.0~0.0~0.0~0~0.0~0.0~0.0~0.0~0~0.0~0.0~0.0~180.0~592.0~1181.0*
%ADD15D15*%
G04~CAMADD=16~8~0.0~0.0~374.0~315.0~31.5~0.0~15~0.0~0.0~0.0~0.0~0~0.0~0.0~0.0~0.0~0~0.0~0.0~0.0~90.0~314.0~374.0*
%ADD16D16*%
G04~CAMADD=18~8~0.0~0.0~334.7~137.8~13.8~0.0~15~0.0~0.0~0.0~0.0~0~0.0~0.0~0.0~0.0~0~0.0~0.0~0.0~0.0~334.7~137.8*
%ADD18D18*%
G04~CAMADD=21~8~0.0~0.0~511.8~846.5~51.2~0.0~15~0.0~0.0~0.0~0.0~0~0.0~0.0~0.0~0.0~0~0.0~0.0~0.0~90.0~847.0~512.0*
%ADD21D21*%
G04~CAMADD=22~8~0.0~0.0~315.0~472.4~31.5~0.0~15~0.0~0.0~0.0~0.0~0~0.0~0.0~0.0~0.0~0~0.0~0.0~0.0~90.0~472.0~315.0*
%ADD22D22*%
G04~CAMADD=23~8~0.0~0.0~472.4~472.4~47.2~0.0~15~0.0~0.0~0.0~0.0~0~0.0~0.0~0.0~0.0~0~0.0~0.0~0.0~0.0~472.4~472.4*
%ADD23D23*%
G04~CAMADD=24~8~0.0~0.0~315.0~472.4~31.5~0.0~15~0.0~0.0~0.0~0.0~0~0.0~0.0~0.0~0.0~0~0.0~0.0~0.0~0.0~315.0~472.4*
%ADD24D24*%
G04~CAMADD=25~8~0.0~0.0~511.8~846.5~51.2~0.0~15~0.0~0.0~0.0~0.0~0~0.0~0.0~0.0~0.0~0~0.0~0.0~0.0~0.0~511.8~846.5*
%ADD25D25*%
G04~CAMADD=26~8~0.0~0.0~413.4~177.2~17.7~0.0~15~0.0~0.0~0.0~0.0~0~0.0~0.0~0.0~0.0~0~0.0~0.0~0.0~180.0~414.0~178.0*
%ADD26D26*%
G04~CAMADD=27~8~0.0~0.0~374.0~315.0~31.5~0.0~15~0.0~0.0~0.0~0.0~0~0.0~0.0~0.0~0.0~0~0.0~0.0~0.0~180.0~374.0~314.0*
%ADD27D27*%
G04~CAMADD=28~8~0.0~0.0~382.8~219.7~22.0~0.0~15~0.0~0.0~0.0~0.0~0~0.0~0.0~0.0~0.0~0~0.0~0.0~0.0~180.0~383.0~220.0*
%ADD28D28*%
G04~CAMADD=29~8~0.0~0.0~1417.3~787.4~39.4~0.0~15~0.0~0.0~0.0~0.0~0~0.0~0.0~0.0~0.0~0~0.0~0.0~0.0~90.0~789.0~1418.0*
%ADD29D29*%
%ADD37C,0.027560*%
G04~CAMADD=41~8~0.0~0.0~472.4~472.4~47.2~0.0~15~0.0~0.0~0.0~0.0~0~0.0~0.0~0.0~0.0~0~0.0~0.0~0.0~225.0~628.0~628.0*
%ADD41D41*%
G04~CAMADD=42~8~0.0~0.0~629.9~590.6~59.1~0.0~15~0.0~0.0~0.0~0.0~0~0.0~0.0~0.0~0.0~0~0.0~0.0~0.0~135.0~814.0~814.0*
%ADD42D42*%
G04~CAMADD=43~8~0.0~0.0~590.6~1181.1~29.5~0.0~15~0.0~0.0~0.0~0.0~0~0.0~0.0~0.0~0.0~0~0.0~0.0~0.0~135.0~1228.0~1228.0*
%ADD43D43*%
G04~CAMADD=49~8~0.0~0.0~374.0~315.0~31.5~0.0~15~0.0~0.0~0.0~0.0~0~0.0~0.0~0.0~0.0~0~0.0~0.0~0.0~135.0~462.0~460.0*
%ADD49D49*%
G04~CAMADD=50~8~0.0~0.0~433.1~334.7~33.5~0.0~15~0.0~0.0~0.0~0.0~0~0.0~0.0~0.0~0.0~0~0.0~0.0~0.0~90.0~336.0~433.0*
%ADD50D50*%
G04~CAMADD=51~8~0.0~0.0~236.2~196.8~19.7~0.0~15~0.0~0.0~0.0~0.0~0~0.0~0.0~0.0~0.0~0~0.0~0.0~0.0~180.0~236.0~196.0*
%ADD51D51*%
G04~CAMADD=53~8~0.0~0.0~433.1~334.7~33.5~0.0~15~0.0~0.0~0.0~0.0~0~0.0~0.0~0.0~0.0~0~0.0~0.0~0.0~180.0~434.0~335.0*
%ADD53D53*%
G04~CAMADD=54~8~0.0~0.0~118.1~315.0~17.7~0.0~15~0.0~0.0~0.0~0.0~0~0.0~0.0~0.0~0.0~0~0.0~0.0~0.0~180.0~118.0~314.0*
%ADD54D54*%
G04~CAMADD=59~8~0.0~0.0~590.6~629.9~88.6~0.0~15~0.0~0.0~0.0~0.0~0~0.0~0.0~0.0~0.0~0~0.0~0.0~0.0~0.0~590.6~629.9*
%ADD59D59*%
G04~CAMADD=60~8~0.0~0.0~236.2~196.8~19.7~0.0~15~0.0~0.0~0.0~0.0~0~0.0~0.0~0.0~0.0~0~0.0~0.0~0.0~270.0~196.0~236.0*
%ADD60D60*%
G04~CAMADD=62~8~0.0~0.0~318.9~1259.8~31.9~0.0~15~0.0~0.0~0.0~0.0~0~0.0~0.0~0.0~0.0~0~0.0~0.0~0.0~180.0~320.0~1260.0*
%ADD62D62*%
G04~CAMADD=63~8~0.0~0.0~374.0~315.0~31.5~0.0~15~0.0~0.0~0.0~0.0~0~0.0~0.0~0.0~0.0~0~0.0~0.0~0.0~45.0~460.0~462.0*
%ADD63D63*%
G04~CAMADD=64~8~0.0~0.0~413.4~177.2~26.6~0.0~15~0.0~0.0~0.0~0.0~0~0.0~0.0~0.0~0.0~0~0.0~0.0~0.0~45.0~396.0~396.0*
%ADD64D64*%
G04~CAMADD=67~8~0.0~0.0~563.0~2165.4~56.3~0.0~15~0.0~0.0~0.0~0.0~0~0.0~0.0~0.0~0.0~0~0.0~0.0~0.0~0.0~563.0~2165.4*
%ADD67D67*%
G04~CAMADD=68~8~0.0~0.0~1023.6~452.8~45.3~0.0~15~0.0~0.0~0.0~0.0~0~0.0~0.0~0.0~0.0~0~0.0~0.0~0.0~0.0~1023.6~452.8*
%ADD68D68*%
G04~CAMADD=69~8~0.0~0.0~531.5~393.7~39.4~0.0~15~0.0~0.0~0.0~0.0~0~0.0~0.0~0.0~0.0~0~0.0~0.0~0.0~0.0~531.5~393.7*
%ADD69D69*%
G04~CAMADD=77~8~0.0~0.0~1023.6~452.8~45.3~0.0~15~0.0~0.0~0.0~0.0~0~0.0~0.0~0.0~0.0~0~0.0~0.0~0.0~90.0~454.0~1023.0*
%ADD77D77*%
G04~CAMADD=78~8~0.0~0.0~590.6~1181.1~29.5~0.0~15~0.0~0.0~0.0~0.0~0~0.0~0.0~0.0~0.0~0~0.0~0.0~0.0~225.0~1228.0~1228.0*
%ADD78D78*%
G04~CAMADD=83~8~0.0~0.0~382.8~219.7~22.0~0.0~15~0.0~0.0~0.0~0.0~0~0.0~0.0~0.0~0.0~0~0.0~0.0~0.0~90.0~220.0~383.0*
%ADD83D83*%
G04~CAMADD=85~8~0.0~0.0~452.8~275.6~27.6~0.0~15~0.0~0.0~0.0~0.0~0~0.0~0.0~0.0~0.0~0~0.0~0.0~0.0~0.0~452.8~275.6*
%ADD85D85*%
%ADD128R,0.023620X0.062990*%
%ADD129R,0.023620X0.070870*%
%ADD130R,0.012990X0.036080*%
%ADD131R,0.068900X0.016730*%
%ADD132R,0.019680X0.070870*%
%ADD133R,0.019680X0.051180*%
%ADD134R,0.019680X0.212600*%
%ADD135R,0.212600X0.019680*%
G04~CAMADD=136~8~0.0~0.0~236.2~1161.4~59.1~0.0~15~0.0~0.0~0.0~0.0~0~0.0~0.0~0.0~0.0~0~0.0~0.0~0.0~0.0~236.2~1161.4*
%ADD136D136*%
G04~CAMADD=137~8~0.0~0.0~1320.9~169.3~42.3~0.0~15~0.0~0.0~0.0~0.0~0~0.0~0.0~0.0~0.0~0~0.0~0.0~0.0~90.0~170.0~1321.0*
%ADD137D137*%
G04~CAMADD=138~8~0.0~0.0~177.2~147.6~36.9~0.0~15~0.0~0.0~0.0~0.0~0~0.0~0.0~0.0~0.0~0~0.0~0.0~0.0~90.0~149.0~178.0*
%ADD138D138*%
G04~CAMADD=139~8~0.0~0.0~157.5~98.4~24.6~0.0~15~0.0~0.0~0.0~0.0~0~0.0~0.0~0.0~0.0~0~0.0~0.0~0.0~180.0~158.0~98.0*
%ADD139D139*%
G04~CAMADD=140~8~0.0~0.0~157.5~98.4~24.6~0.0~15~0.0~0.0~0.0~0.0~0~0.0~0.0~0.0~0.0~0~0.0~0.0~0.0~90.0~99.0~158.0*
%ADD140D140*%
G04~CAMADD=141~8~0.0~0.0~313.0~118.1~29.5~0.0~15~0.0~0.0~0.0~0.0~0~0.0~0.0~0.0~0.0~0~0.0~0.0~0.0~90.0~118.0~313.0*
%ADD141D141*%
%ADD142R,0.035430X0.023620*%
%ADD143R,0.023620X0.035430*%
G04~CAMADD=144~8~0.0~0.0~811.0~811.0~0.0~0.0~15~0.0~0.0~0.0~0.0~0~0.0~0.0~0.0~0.0~0~0.0~0.0~0.0~0.0~811.0~811.0*
%ADD144D144*%
%LNpanel-1*%
%LPD*%
G36*
X289927Y560408D02*
X290427Y560359D01*
X290924Y560285*
X291417Y560187*
X291904Y560065*
X292385Y559919*
X292858Y559750*
X293323Y559558*
X293777Y559343*
X294220Y559106*
X294651Y558848*
X295069Y558568*
X295473Y558269*
X295861Y557950*
X296234Y557613*
X296589Y557257*
X296926Y556885*
X297245Y556496*
X297545Y556093*
X297824Y555675*
X298082Y555244*
X298319Y554801*
X298534Y554346*
X298726Y553882*
X298896Y553409*
X299042Y552928*
X299164Y552440*
X299262Y551947*
X299336Y551450*
X299385Y550950*
X299410Y550448*
Y550197*
Y516732*
X293504*
Y550197*
X293501Y550367*
X293474Y550706*
X293421Y551042*
X293341Y551372*
X293236Y551696*
X293106Y552010*
X292952Y552313*
X292774Y552603*
X292574Y552878*
X292353Y553136*
X292113Y553377*
X291854Y553598*
X291579Y553798*
X291289Y553975*
X290986Y554130*
X290672Y554260*
X290349Y554365*
X290018Y554444*
X289682Y554497*
X289343Y554524*
X289173Y554528*
X143898*
X143728Y554524*
X143389Y554497*
X143053Y554444*
X142722Y554365*
X142399Y554260*
X142085Y554130*
X141782Y553975*
X141492Y553798*
X141217Y553598*
X140958Y553377*
X140717Y553136*
X140497Y552878*
X140297Y552603*
X140119Y552313*
X139965Y552010*
X139835Y551696*
X139729Y551372*
X139650Y551042*
X139597Y550706*
X139570Y550367*
X139567Y550197*
Y516732*
X133661*
Y550197*
Y550448*
X133686Y550950*
X133735Y551450*
X133809Y551947*
X133907Y552440*
X134029Y552928*
X134175Y553409*
X134344Y553882*
X134537Y554346*
X134752Y554801*
X134988Y555244*
X135247Y555675*
X135526Y556093*
X135826Y556496*
X136144Y556885*
X136482Y557257*
X136837Y557613*
X137210Y557950*
X137598Y558269*
X138002Y558568*
X138420Y558848*
X138851Y559106*
X139294Y559343*
X139748Y559558*
X140213Y559750*
X140686Y559919*
X141167Y560065*
X141654Y560187*
X142147Y560285*
X142644Y560359*
X143144Y560408*
X143646Y560433*
X289424*
X289927Y560408*
G37*
G36*
X299410Y481299D02*
Y481048D01*
X299385Y480546*
X299336Y480046*
X299262Y479549*
X299164Y479056*
X299042Y478568*
X298896Y478087*
X298726Y477614*
X298534Y477150*
X298319Y476695*
X298082Y476252*
X297824Y475821*
X297545Y475403*
X297245Y475000*
X296926Y474611*
X296589Y474239*
X296234Y473883*
X295861Y473546*
X295473Y473227*
X295069Y472928*
X294651Y472648*
X294220Y472390*
X293777Y472153*
X293323Y471938*
X292858Y471746*
X292385Y471577*
X291904Y471431*
X291417Y471309*
X290924Y471211*
X290427Y471137*
X289927Y471088*
X289424Y471063*
X143646*
X143144Y471088*
X142644Y471137*
X142147Y471211*
X141654Y471309*
X141167Y471431*
X140686Y471577*
X140213Y471746*
X139748Y471938*
X139294Y472153*
X138851Y472390*
X138420Y472648*
X138002Y472928*
X137598Y473227*
X137210Y473546*
X136837Y473883*
X136482Y474239*
X136144Y474611*
X135826Y475000*
X135526Y475403*
X135247Y475821*
X134988Y476252*
X134752Y476695*
X134537Y477150*
X134344Y477614*
X134175Y478087*
X134029Y478568*
X133907Y479056*
X133809Y479549*
X133735Y480046*
X133686Y480546*
X133661Y481048*
Y481299*
Y514764*
X139567*
Y481299*
X139570Y481129*
X139597Y480790*
X139650Y480454*
X139729Y480124*
X139835Y479800*
X139965Y479486*
X140119Y479183*
X140297Y478893*
X140497Y478618*
X140717Y478360*
X140958Y478119*
X141217Y477898*
X141492Y477698*
X141782Y477521*
X142085Y477366*
X142399Y477236*
X142722Y477131*
X143053Y477052*
X143389Y476999*
X143728Y476972*
X143898Y476968*
X289173*
X289343Y476972*
X289682Y476999*
X290018Y477052*
X290349Y477131*
X290672Y477236*
X290986Y477366*
X291289Y477521*
X291579Y477698*
X291854Y477898*
X292113Y478119*
X292353Y478360*
X292574Y478618*
X292774Y478893*
X292952Y479183*
X293106Y479486*
X293236Y479800*
X293341Y480124*
X293421Y480454*
X293474Y480790*
X293501Y481129*
X293504Y481299*
Y514764*
X299410*
Y481299*
G37*
G36*
X896850Y275590D02*
Y274016D01*
X895669Y272835*
X894094*
X892913Y274016*
Y275590*
X894094Y276772*
X895669*
X896850Y275590*
G37*
G36*
X898131Y215756D02*
X892118Y209743D01*
X884546Y217315*
X890559Y223328*
X898131Y215756*
G37*
G36*
X924988Y150787D02*
Y149213D01*
X923807Y148031*
X922232*
X921051Y149213*
Y150787*
X922232Y151969*
X923807*
X924988Y150787*
G37*
G54D10*
X170591Y263779D03*
X482953D03*
G54D11*
X154724Y298031D03*
X511811Y263779D03*
X240945Y488189D03*
X192126D03*
X492126Y448032D03*
X452756D03*
X761417Y564567D03*
X744095Y556299D03*
G54D15*
X158268Y575984D03*
X242913Y517717D03*
Y537008D03*
X190157D03*
Y517717D03*
X551181Y482283D03*
X438976Y544882D03*
X456299Y560236D03*
X450394Y489764D03*
X417717Y478346D03*
X713779Y532283D03*
X707087Y403937D03*
X773228Y471654D03*
X683464D03*
X608602Y319724D03*
X633898Y215787D03*
X705158D03*
X681929Y287441D03*
X656732D03*
G54D16*
X205512Y512598D03*
X199213D03*
X198425Y507087D03*
X204724D03*
X232283Y548425D03*
X225984D03*
X260236Y542126D03*
X253937D03*
X285827Y360236D03*
X292126D03*
X259055D03*
X265354D03*
X232283D03*
X238583D03*
X205512D03*
X211811D03*
X178740D03*
X185039D03*
X151969D03*
X158268D03*
X204724Y501181D03*
X198425D03*
X213386Y531102D03*
X219685D03*
X176772Y541732D03*
X170472D03*
X164961D03*
X158661D03*
X172835Y524803D03*
X179134D03*
X256299Y525197D03*
X262598D03*
X268110D03*
X274410D03*
X228346Y507874D03*
X234646D03*
X151969Y487008D03*
X158268D03*
Y507480D03*
X151969D03*
X274803Y487008D03*
X281102D03*
Y507480D03*
X274803D03*
X246457D03*
X240158D03*
Y501181D03*
X246457D03*
X228346D03*
X234646D03*
X187402Y505512D03*
X193701D03*
X436221Y566142D03*
X429921D03*
X481890Y461024D03*
X488189D03*
X461417Y464567D03*
X467717D03*
X456299Y458268D03*
X462598D03*
X413779Y504331D03*
X420079D03*
X427559Y521654D03*
X433858D03*
X447638Y500787D03*
X441339D03*
Y507087D03*
X447638D03*
Y513386D03*
X441339D03*
X434646Y489370D03*
X440945D03*
X397638Y478740D03*
X391339D03*
X420079Y510630D03*
X413779D03*
X402362Y500000D03*
X396063D03*
X533858Y364173D03*
X540158D03*
X415748D03*
X422047D03*
X474803Y411417D03*
X481102D03*
X455118Y364173D03*
X461417D03*
X494488D03*
X500787D03*
X408638Y543677D03*
X414937D03*
X988583Y244094D03*
X982283D03*
X877953Y174803D03*
X884252D03*
X938583Y311417D03*
X932283D03*
X917717D03*
X846063Y139370D03*
X852362D03*
X911417Y311417D03*
X888583Y196063D03*
X894882D03*
X1010630Y171260D03*
X1016929D03*
X1005118Y167323D03*
X998819D03*
X973622D03*
X967323D03*
X871260D03*
X864961D03*
X845276Y171260D03*
X851575D03*
X839764Y167323D03*
X833465D03*
X839764Y230315D03*
X833465D03*
X845276Y234252D03*
X851575D03*
X839764Y293307D03*
X833465D03*
X988583Y231102D03*
X982283D03*
X988583Y237402D03*
X982283D03*
X988583Y279134D03*
X982283D03*
X988583Y272835D03*
X982283D03*
X931496Y289764D03*
X925197D03*
X937008Y247244D03*
X943307D03*
X937008Y253543D03*
X943307D03*
X960236Y212992D03*
X953937D03*
X960236Y219291D03*
X953937D03*
X960236Y225590D03*
X953937D03*
X908661Y264961D03*
X914961D03*
X908661Y271260D03*
X914961D03*
Y277559D03*
X908661D03*
X928347Y277165D03*
X922047D03*
X936614Y300000D03*
X942913D03*
X913780Y287402D03*
X907480D03*
X913780Y293701D03*
X907480D03*
X913780Y300000D03*
X907480D03*
X683464Y486221D03*
X689764D03*
X738189Y396063D03*
X744488D03*
X716535Y396850D03*
X722835D03*
X777953Y486221D03*
X784252D03*
X746457D03*
X752756D03*
X714961D03*
X721260D03*
X651968D03*
X658268D03*
X710236Y563779D03*
X716535D03*
X646890Y104764D03*
X653189D03*
X742559Y230354D03*
X748858D03*
X695315D03*
X701614D03*
X648071D03*
X654370D03*
X600827D03*
X607126D03*
X641378Y306339D03*
X647677D03*
G54D18*
X426770Y515944D03*
Y513385D03*
Y510826D03*
X434644D03*
Y513385D03*
Y515944D03*
G54D21*
X106516Y485138D03*
Y514862D03*
X326555D03*
Y485138D03*
X362421D03*
Y514862D03*
X582461D03*
Y485138D03*
X815177Y288484D03*
Y258760D03*
X815965Y198327D03*
Y237894D03*
Y144783D03*
Y184350D03*
X1034823Y139370D03*
Y174016D03*
Y208465D03*
Y183661D03*
X618327Y485138D03*
Y514862D03*
X838366D03*
Y485138D03*
X779350Y258996D03*
Y229272D03*
X559311D03*
Y258996D03*
G54D22*
X115551Y507382D03*
Y502461D03*
Y497539D03*
Y492618D03*
X317520D03*
Y497539D03*
Y502461D03*
Y507382D03*
X371457D03*
Y502461D03*
Y497539D03*
Y492618D03*
X573425D03*
Y497539D03*
Y502461D03*
Y507382D03*
X824213Y266240D03*
Y271161D03*
Y276083D03*
Y281004D03*
X825000Y230413D03*
Y225492D03*
Y220571D03*
Y215650D03*
Y210728D03*
Y205807D03*
Y176870D03*
Y171949D03*
Y167027D03*
Y162106D03*
Y157185D03*
Y152264D03*
X1025787Y151772D03*
Y146850D03*
Y166535D03*
Y161614D03*
Y156693D03*
Y200984D03*
Y191142D03*
Y196063D03*
X627362Y507382D03*
Y502461D03*
Y497539D03*
Y492618D03*
X829331D03*
Y497539D03*
Y502461D03*
Y507382D03*
X770315Y236752D03*
Y241673D03*
Y246595D03*
Y251516D03*
X568346D03*
Y246595D03*
Y241673D03*
Y236752D03*
G54D23*
X274803Y380315D03*
Y374016D03*
X292126Y380315D03*
Y374016D03*
Y367717D03*
X274803D03*
X248031Y380315D03*
Y374016D03*
X265354Y380315D03*
Y374016D03*
Y367717D03*
X248031D03*
X221260Y380315D03*
Y374016D03*
X238583Y380315D03*
Y374016D03*
Y367717D03*
X221260D03*
X194488Y380315D03*
Y374016D03*
X211811Y380315D03*
Y374016D03*
Y367717D03*
X194488D03*
X167717Y380315D03*
Y374016D03*
X185039Y380315D03*
Y374016D03*
Y367717D03*
X167717D03*
X140945Y380315D03*
Y374016D03*
X158268Y380315D03*
Y374016D03*
Y367717D03*
X140945D03*
X522835Y371654D03*
X540158D03*
Y377953D03*
Y384252D03*
X522835Y377953D03*
Y384252D03*
X404724Y371654D03*
X422047D03*
Y377953D03*
Y384252D03*
X404724Y377953D03*
Y384252D03*
X444095Y371654D03*
X461417D03*
Y377953D03*
Y384252D03*
X444095Y377953D03*
Y384252D03*
X463779Y418898D03*
X481102D03*
Y425197D03*
Y431496D03*
X463779Y425197D03*
Y431496D03*
X483464Y371654D03*
X500787D03*
Y377953D03*
Y384252D03*
X483464Y377953D03*
Y384252D03*
X397614Y551157D03*
X414937D03*
Y557456D03*
Y563756D03*
X397614Y557456D03*
Y563756D03*
X851181Y222835D03*
X833858D03*
Y216535D03*
Y210236D03*
X851181Y216535D03*
Y210236D03*
X833858Y241732D03*
X851181D03*
Y248031D03*
Y254331D03*
X833858Y248031D03*
Y254331D03*
X851181Y285827D03*
X833858D03*
Y279528D03*
Y273228D03*
X851181Y279528D03*
Y273228D03*
X999213Y178740D03*
X1016535D03*
Y185039D03*
Y191339D03*
X999213Y185039D03*
Y191339D03*
X1016535Y159843D03*
X999213D03*
Y153543D03*
Y147244D03*
X1016535Y153543D03*
Y147244D03*
X953543Y159843D03*
X936220D03*
Y153543D03*
Y147244D03*
X953543Y153543D03*
Y147244D03*
X985039Y159843D03*
X967717D03*
Y153543D03*
Y147244D03*
X985039Y153543D03*
Y147244D03*
X882677Y159843D03*
X865354D03*
Y153543D03*
Y147244D03*
X882677Y153543D03*
Y147244D03*
X833858Y178740D03*
X851181D03*
Y185039D03*
Y191339D03*
X833858Y185039D03*
Y191339D03*
X851181Y159843D03*
X833858D03*
Y153543D03*
Y147244D03*
X851181Y153543D03*
Y147244D03*
X640945Y506299D03*
Y500000D03*
X658268Y506299D03*
Y500000D03*
Y493701D03*
X640945D03*
X672441Y506299D03*
Y500000D03*
X689764Y506299D03*
Y500000D03*
Y493701D03*
X672441D03*
X703937Y506299D03*
Y500000D03*
X721260Y506299D03*
Y500000D03*
Y493701D03*
X703937D03*
X735433Y506299D03*
Y500000D03*
X752756Y506299D03*
Y500000D03*
Y493701D03*
X735433D03*
X766929Y506299D03*
Y500000D03*
X784252Y506299D03*
Y500000D03*
Y493701D03*
X766929D03*
X798425Y506299D03*
Y500000D03*
X815748Y506299D03*
Y500000D03*
Y493701D03*
X798425D03*
X635866Y112244D03*
X653189D03*
Y118543D03*
Y124843D03*
X635866Y118543D03*
Y124843D03*
X589803Y237835D03*
X607126D03*
Y244134D03*
Y250433D03*
X589803Y244134D03*
Y250433D03*
X637047D03*
Y244134D03*
X654370Y250433D03*
Y244134D03*
Y237835D03*
X637047D03*
X684291D03*
X701614D03*
Y244134D03*
Y250433D03*
X684291Y244134D03*
Y250433D03*
X731535Y237835D03*
X748858D03*
Y244134D03*
Y250433D03*
X731535Y244134D03*
Y250433D03*
X630354Y313819D03*
X647677D03*
Y320118D03*
Y326417D03*
X630354Y320118D03*
Y326417D03*
G54D24*
X204232Y573425D03*
X209154D03*
X214075D03*
X218996D03*
X223917D03*
X228839D03*
X437992D03*
X442913D03*
X423228D03*
X428150D03*
X433071D03*
X904527Y115945D03*
X894685D03*
X899606D03*
X931398Y115551D03*
X936319D03*
X941240D03*
X946161D03*
X951083D03*
X956004D03*
X993110Y115945D03*
X983268D03*
X988189D03*
X867126D03*
X857283D03*
X862205D03*
X716831Y571063D03*
X721752D03*
X726673D03*
X731595D03*
X736516D03*
X741437D03*
X669331Y317559D03*
X674252D03*
X664409D03*
G54D25*
X236319Y582461D03*
X196752D03*
X450394D03*
X415748D03*
X912008Y106909D03*
X887205D03*
X963484Y106516D03*
X923917D03*
X1000591Y106909D03*
X975787D03*
X874606D03*
X849803D03*
X748917Y580098D03*
X709350D03*
X681732Y326594D03*
X656929D03*
G54D26*
X211417Y500197D03*
Y502658D03*
Y505217D03*
X221654D03*
Y502658D03*
Y500098D03*
X211417Y507677D03*
X221654D03*
X225197Y524606D03*
Y522146D03*
Y519587D03*
Y517126D03*
X207874D03*
Y519587D03*
Y522146D03*
Y524705D03*
G54D27*
X201969Y522047D03*
Y528346D03*
Y540158D03*
Y533858D03*
X231102Y540158D03*
Y533858D03*
Y522047D03*
Y528346D03*
X163779Y497244D03*
Y503543D03*
X269291Y497244D03*
Y503543D03*
X428740Y495276D03*
Y488976D03*
X422047D03*
Y495276D03*
X408268Y489370D03*
Y483071D03*
X960630Y187402D03*
Y181102D03*
X877953Y131496D03*
Y125197D03*
X967717Y132283D03*
Y125984D03*
X893701Y151378D03*
Y157677D03*
X916142Y125591D03*
Y131890D03*
X928740Y144488D03*
Y150787D03*
X900976Y153862D03*
Y147563D03*
X918898Y210236D03*
Y216535D03*
X921260Y248031D03*
Y254331D03*
X938583Y221654D03*
Y215354D03*
X925984Y221654D03*
Y215354D03*
X932283Y221654D03*
Y215354D03*
X740551Y410236D03*
Y403937D03*
X747244Y401968D03*
Y408268D03*
X716535Y402362D03*
Y408661D03*
X815748Y480315D03*
Y486614D03*
X733071Y557874D03*
Y564173D03*
X722047Y557874D03*
Y564173D03*
X648858Y169331D03*
Y175630D03*
G54D28*
X274951Y493504D03*
Y497244D03*
Y500984D03*
X285679D03*
Y497244D03*
Y493504D03*
X158120Y500984D03*
Y497244D03*
Y493504D03*
X147392D03*
Y497244D03*
Y500984D03*
X430069Y482480D03*
Y478740D03*
Y475000D03*
X440797D03*
Y482480D03*
X391484Y493109D03*
Y489369D03*
Y485629D03*
X402212D03*
Y489369D03*
Y493109D03*
X976624Y215551D03*
Y219291D03*
Y223031D03*
X965896D03*
Y219291D03*
Y215551D03*
G54D29*
X204724Y488189D03*
X228346D03*
G54D37*
X866240Y302106D02*
X889665D01*
X866240Y307421D02*
X889665D01*
X960728Y302106D02*
X984153D01*
X960728Y307421D02*
X984153D01*
G54D41*
X408582Y516794D03*
X403015Y522362D03*
G54D42*
X396751Y510530D03*
G54D43*
X421260Y531496D03*
G54D49*
X985174Y191867D03*
X989629Y196322D03*
X980056Y196985D03*
X984511Y201440D03*
X985568Y207615D03*
X990022Y212070D03*
X990686Y202497D03*
X995140Y206951D03*
X883993Y230450D03*
X888448Y234904D03*
G54D50*
X883396Y124783D03*
Y132697D03*
X973159Y125177D03*
Y133090D03*
X921585Y132697D03*
Y124783D03*
X845994Y133090D03*
Y125177D03*
X915030Y248012D03*
Y255925D03*
G54D51*
X924409Y165354D03*
Y161417D03*
X929134Y165354D03*
Y161417D03*
G54D53*
X937008Y316929D03*
X944921D03*
X905512D03*
X913425D03*
G54D54*
X889961Y163779D03*
X891929D03*
X893898D03*
X895866D03*
Y175591D03*
X893898D03*
X891929D03*
X889961D03*
G54D59*
X917307Y145713D03*
X908646D03*
X917307Y155713D03*
X908646D03*
G54D60*
X938583Y209842D03*
X934646D03*
X949213Y196850D03*
X945276D03*
Y181496D03*
X949213D03*
X945276Y204331D03*
X949213D03*
X904724Y181496D03*
X900787D03*
X905118Y196063D03*
X901181D03*
X925197Y209842D03*
X929134D03*
G54D62*
X943701Y265354D03*
X936614D03*
G54D63*
X877424Y204466D03*
X872970Y208920D03*
G54D64*
X893955Y229759D03*
X897491Y226223D03*
X901027Y222688D03*
X904562Y219152D03*
X888722Y203312D03*
X885186Y206848D03*
X881651Y210383D03*
X878115Y213919D03*
G54D67*
X720394Y448032D03*
X737008D03*
G54D68*
X707087Y450000D03*
Y461811D03*
X749213Y450000D03*
Y461811D03*
X647677Y194527D03*
Y206339D03*
X690984Y194527D03*
Y206339D03*
G54D69*
X704823Y428740D03*
Y421654D03*
X712402Y420768D03*
Y413681D03*
X752756Y440945D03*
Y433858D03*
X745669Y440945D03*
Y433858D03*
G54D77*
X763386Y470866D03*
X751575D03*
X693307D03*
X705118D03*
G54D78*
X794488Y557480D03*
G54D83*
X655748Y167116D03*
X659488D03*
X663228D03*
Y177844D03*
X659488D03*
X655748D03*
G54D85*
X659488Y199665D03*
Y194665D03*
Y184665D03*
Y189665D03*
G54D128*
X220079Y547244D03*
X212992D03*
G54D129*
X168110Y533464D03*
X179134D03*
X253937D03*
X264961D03*
G54D130*
X469626Y455479D03*
X475256Y457906D03*
G54D131*
X472446Y454486D03*
X472441Y458908D03*
G54D132*
X922638Y301181D03*
X927756D03*
G54D133*
X922638Y265354D03*
X927756D03*
G54D134*
X937992Y185433D03*
X912402D03*
G54D135*
X925197Y172638D03*
Y198228D03*
G54D136*
X733756Y417456D03*
X722929D03*
G54D137*
X728341Y416620D03*
G54D138*
X722555Y404504D03*
G54D139*
X722240Y406787D03*
Y408754D03*
X734445Y410133D03*
X734446Y408165D03*
G54D140*
X726079Y404326D03*
X728047D03*
X730016D03*
X731984D03*
G54D141*
X734046Y405186D03*
G54D142*
X680354Y190065D03*
Y185866D03*
Y194264D03*
Y198464D03*
G54D143*
X673268Y187834D03*
X666969D03*
X670119D03*
X673268Y196495D03*
X666969D03*
X670119D03*
X673268Y192166D03*
X670119D03*
X666969D03*
G54D144*
X925197Y185433D03*
M02*