%FSLAX25Y25*%
%MOIN*%
%SFA1B1*%

%IPPOS*%
%AMD52*
4,1,8,0.016000,0.003900,-0.016000,0.003900,-0.017200,0.002800,-0.017200,-0.002800,-0.016000,-0.003900,0.016000,-0.003900,0.017200,-0.002800,0.017200,0.002800,0.016000,0.003900,0.0*
1,1,0.002360,0.016000,0.002800*
1,1,0.002360,-0.016000,0.002800*
1,1,0.002360,-0.016000,-0.002800*
1,1,0.002360,0.016000,-0.002800*
%
%AMD56*
4,1,8,0.002800,0.017200,-0.002800,0.017200,-0.003900,0.016000,-0.003900,-0.016000,-0.002800,-0.017200,0.002800,-0.017200,0.003900,-0.016000,0.003900,0.016000,0.002800,0.017200,0.0*
1,1,0.002360,0.002800,0.016000*
1,1,0.002360,-0.002800,0.016000*
1,1,0.002360,-0.002800,-0.016000*
1,1,0.002360,0.002800,-0.016000*
%
%AMD61*
4,1,8,0.000000,-0.049200,0.000000,-0.049200,0.025600,-0.023600,0.025600,0.023600,0.000000,0.049200,0.000000,0.049200,-0.025600,0.023600,-0.025600,-0.023600,0.000000,-0.049200,0.0*
1,1,0.051180,0.000000,-0.023600*
1,1,0.051180,0.000000,-0.023600*
1,1,0.051180,0.000000,0.023600*
1,1,0.051180,0.000000,0.023600*
%
%AMD101*
4,1,8,0.025600,-0.037400,0.025600,0.037400,0.000000,0.063000,0.000000,0.063000,-0.025600,0.037400,-0.025600,-0.037400,0.000000,-0.063000,0.000000,-0.063000,0.025600,-0.037400,0.0*
1,1,0.051180,0.000000,-0.037400*
1,1,0.051180,0.000000,0.037400*
1,1,0.051180,0.000000,0.037400*
1,1,0.051180,0.000000,-0.037400*
%
%AMD103*
4,1,8,0.000000,-0.031500,0.000000,-0.031500,0.013800,-0.017700,0.013800,0.017700,0.000000,0.031500,0.000000,0.031500,-0.013800,0.017700,-0.013800,-0.017700,0.000000,-0.031500,0.0*
1,1,0.027560,0.000000,-0.017700*
1,1,0.027560,0.000000,-0.017700*
1,1,0.027560,0.000000,0.017700*
1,1,0.027560,0.000000,0.017700*
%
%AMD146*
4,1,8,-0.005900,0.007300,-0.005900,-0.007300,-0.003000,-0.010200,0.003000,-0.010200,0.005900,-0.007300,0.005900,0.007300,0.003000,0.010200,-0.003000,0.010200,-0.005900,0.007300,0.0*
1,1,0.005900,-0.003000,0.007300*
1,1,0.005900,-0.003000,-0.007300*
1,1,0.005900,0.003000,-0.007300*
1,1,0.005900,0.003000,0.007300*
%
%AMD147*
4,1,8,-0.003000,-0.010500,0.003000,-0.010500,0.005900,-0.007600,0.005900,0.007600,0.003000,0.010500,-0.003000,0.010500,-0.005900,0.007600,-0.005900,-0.007600,-0.003000,-0.010500,0.0*
1,1,0.005900,-0.003000,-0.007600*
1,1,0.005900,0.003000,-0.007600*
1,1,0.005900,0.003000,0.007600*
1,1,0.005900,-0.003000,0.007600*
%
%AMD148*
4,1,8,-0.010500,0.003000,-0.010500,-0.003000,-0.007600,-0.005900,0.007600,-0.005900,0.010500,-0.003000,0.010500,0.003000,0.007600,0.005900,-0.007600,0.005900,-0.010500,0.003000,0.0*
1,1,0.005900,-0.007600,0.003000*
1,1,0.005900,-0.007600,-0.003000*
1,1,0.005900,0.007600,-0.003000*
1,1,0.005900,0.007600,0.003000*
%
%AMD149*
4,1,8,0.003000,0.017500,-0.003000,0.017500,-0.005900,0.014500,-0.005900,-0.014500,-0.003000,-0.017500,0.003000,-0.017500,0.005900,-0.014500,0.005900,0.014500,0.003000,0.017500,0.0*
1,1,0.005900,0.003000,0.014500*
1,1,0.005900,-0.003000,0.014500*
1,1,0.005900,-0.003000,-0.014500*
1,1,0.005900,0.003000,-0.014500*
%
%AMD150*
4,1,8,-0.010200,0.003000,-0.010200,-0.003000,-0.007300,-0.005900,0.007300,-0.005900,0.010200,-0.003000,0.010200,0.003000,0.007300,0.005900,-0.007300,0.005900,-0.010200,0.003000,0.0*
1,1,0.005900,-0.007300,0.003000*
1,1,0.005900,-0.007300,-0.003000*
1,1,0.005900,0.007300,-0.003000*
1,1,0.005900,0.007300,0.003000*
%
%AMD151*
4,1,8,0.004700,0.067000,-0.004700,0.067000,-0.009400,0.062300,-0.009400,-0.062300,-0.004700,-0.067000,0.004700,-0.067000,0.009400,-0.062300,0.009400,0.062300,0.004700,0.067000,0.0*
1,1,0.009440,0.004700,0.062300*
1,1,0.009440,-0.004700,0.062300*
1,1,0.009440,-0.004700,-0.062300*
1,1,0.009440,0.004700,-0.062300*
%
%AMD152*
4,1,8,0.005800,0.059100,-0.005800,0.059100,-0.011600,0.053200,-0.011600,-0.053200,-0.005800,-0.059100,0.005800,-0.059100,0.011600,-0.053200,0.011600,0.053200,0.005800,0.059100,0.0*
1,1,0.011620,0.005800,0.053200*
1,1,0.011620,-0.005800,0.053200*
1,1,0.011620,-0.005800,-0.053200*
1,1,0.011620,0.005800,-0.053200*
%
%AMD153*
4,1,8,-0.134100,-0.130300,0.134100,-0.130300,0.149800,-0.114600,0.149800,0.114600,0.134100,0.130300,-0.134100,0.130300,-0.149800,0.114600,-0.149800,-0.114600,-0.134100,-0.130300,0.0*
1,1,0.031380,-0.134100,-0.114600*
1,1,0.031380,0.134100,-0.114600*
1,1,0.031380,0.134100,0.114600*
1,1,0.031380,-0.134100,0.114600*
%
%AMD154*
4,1,8,-0.062000,0.026600,-0.062000,-0.026600,-0.056100,-0.032500,0.056100,-0.032500,0.062000,-0.026600,0.062000,0.026600,0.056100,0.032500,-0.056100,0.032500,-0.062000,0.026600,0.0*
1,1,0.011820,-0.056100,0.026600*
1,1,0.011820,-0.056100,-0.026600*
1,1,0.011820,0.056100,-0.026600*
1,1,0.011820,0.056100,0.026600*
%
%AMD155*
4,1,8,-0.026600,-0.062000,0.026600,-0.062000,0.032500,-0.056100,0.032500,0.056100,0.026600,0.062000,-0.026600,0.062000,-0.032500,0.056100,-0.032500,-0.056100,-0.026600,-0.062000,0.0*
1,1,0.011820,-0.026600,-0.056100*
1,1,0.011820,0.026600,-0.056100*
1,1,0.011820,0.026600,0.056100*
1,1,0.011820,-0.026600,0.056100*
%
%AMD156*
4,1,8,-0.018700,0.015600,-0.018700,-0.015600,-0.012600,-0.021700,0.012600,-0.021700,0.018700,-0.015600,0.018700,0.015600,0.012600,0.021700,-0.012600,0.021700,-0.018700,0.015600,0.0*
1,1,0.012200,-0.012600,0.015600*
1,1,0.012200,-0.012600,-0.015600*
1,1,0.012200,0.012600,-0.015600*
1,1,0.012200,0.012600,0.015600*
%
%AMD157*
4,1,8,0.015400,0.009800,-0.015400,0.009800,-0.019700,0.005500,-0.019700,-0.005500,-0.015400,-0.009800,0.015400,-0.009800,0.019700,-0.005500,0.019700,0.005500,0.015400,0.009800,0.0*
1,1,0.008660,0.015400,0.005500*
1,1,0.008660,-0.015400,0.005500*
1,1,0.008660,-0.015400,-0.005500*
1,1,0.008660,0.015400,-0.005500*
%
%AMD158*
4,1,8,-0.017700,0.004100,-0.017700,-0.004100,-0.014000,-0.007900,0.014000,-0.007900,0.017700,-0.004100,0.017700,0.004100,0.014000,0.007900,-0.014000,0.007900,-0.017700,0.004100,0.0*
1,1,0.007480,-0.014000,0.004100*
1,1,0.007480,-0.014000,-0.004100*
1,1,0.007480,0.014000,-0.004100*
1,1,0.007480,0.014000,0.004100*
%
%AMD159*
4,1,8,-0.045300,0.020500,-0.045300,-0.020500,-0.037200,-0.028600,0.037200,-0.028600,0.045300,-0.020500,0.045300,0.020500,0.037200,0.028600,-0.037200,0.028600,-0.045300,0.020500,0.0*
1,1,0.016240,-0.037200,0.020500*
1,1,0.016240,-0.037200,-0.020500*
1,1,0.016240,0.037200,-0.020500*
1,1,0.016240,0.037200,0.020500*
%
%AMD160*
4,1,8,-0.026600,0.012600,-0.026600,-0.012600,-0.020500,-0.018700,0.020500,-0.018700,0.026600,-0.012600,0.026600,0.012600,0.020500,0.018700,-0.020500,0.018700,-0.026600,0.012600,0.0*
1,1,0.012200,-0.020500,0.012600*
1,1,0.012200,-0.020500,-0.012600*
1,1,0.012200,0.020500,-0.012600*
1,1,0.012200,0.020500,0.012600*
%
%AMD161*
4,1,8,0.018900,0.026600,-0.018900,0.026600,-0.026600,0.018900,-0.026600,-0.018900,-0.018900,-0.026600,0.018900,-0.026600,0.026600,-0.018900,0.026600,0.018900,0.018900,0.026600,0.0*
1,1,0.015360,0.018900,0.018900*
1,1,0.015360,-0.018900,0.018900*
1,1,0.015360,-0.018900,-0.018900*
1,1,0.015360,0.018900,-0.018900*
%
%AMD162*
4,1,8,0.012600,0.026600,-0.012600,0.026600,-0.018700,0.020500,-0.018700,-0.020500,-0.012600,-0.026600,0.012600,-0.026600,0.018700,-0.020500,0.018700,0.020500,0.012600,0.026600,0.0*
1,1,0.012200,0.012600,0.020500*
1,1,0.012200,-0.012600,0.020500*
1,1,0.012200,-0.012600,-0.020500*
1,1,0.012200,0.012600,-0.020500*
%
%AMD163*
4,1,8,0.020500,0.045300,-0.020500,0.045300,-0.028600,0.037200,-0.028600,-0.037200,-0.020500,-0.045300,0.020500,-0.045300,0.028600,-0.037200,0.028600,0.037200,0.020500,0.045300,0.0*
1,1,0.016240,0.020500,0.037200*
1,1,0.016240,-0.020500,0.037200*
1,1,0.016240,-0.020500,-0.037200*
1,1,0.016240,0.020500,-0.037200*
%
%AMD164*
4,1,8,-0.018900,-0.009800,0.018900,-0.009800,0.021700,-0.007100,0.021700,0.007100,0.018900,0.009800,-0.018900,0.009800,-0.021700,0.007100,-0.021700,-0.007100,-0.018900,-0.009800,0.0*
1,1,0.005520,-0.018900,-0.007100*
1,1,0.005520,0.018900,-0.007100*
1,1,0.005520,0.018900,0.007100*
1,1,0.005520,-0.018900,0.007100*
%
%AMD165*
4,1,8,0.018900,0.010200,-0.018900,0.010200,-0.022000,0.007100,-0.022000,-0.007100,-0.018900,-0.010200,0.018900,-0.010200,0.022000,-0.007100,0.022000,0.007100,0.018900,0.010200,0.0*
1,1,0.006300,0.018900,0.007100*
1,1,0.006300,-0.018900,0.007100*
1,1,0.006300,-0.018900,-0.007100*
1,1,0.006300,0.018900,-0.007100*
%
%AMD166*
4,1,8,-0.015600,-0.018700,0.015600,-0.018700,0.021700,-0.012600,0.021700,0.012600,0.015600,0.018700,-0.015600,0.018700,-0.021700,0.012600,-0.021700,-0.012600,-0.015600,-0.018700,0.0*
1,1,0.012200,-0.015600,-0.012600*
1,1,0.012200,0.015600,-0.012600*
1,1,0.012200,0.015600,0.012600*
1,1,0.012200,-0.015600,0.012600*
%
%AMD167*
4,1,8,-0.016900,-0.013900,0.016900,-0.013900,0.022100,-0.008800,0.022100,0.008800,0.016900,0.013900,-0.016900,0.013900,-0.022100,0.008800,-0.022100,-0.008800,-0.016900,-0.013900,0.0*
1,1,0.010300,-0.016900,-0.008800*
1,1,0.010300,0.016900,-0.008800*
1,1,0.010300,0.016900,0.008800*
1,1,0.010300,-0.016900,0.008800*
%
%AMD168*
4,1,8,-0.042300,0.066900,-0.042300,-0.066900,-0.035400,-0.073800,0.035400,-0.073800,0.042300,-0.066900,0.042300,0.066900,0.035400,0.073800,-0.035400,0.073800,-0.042300,0.066900,0.0*
1,1,0.013780,-0.035400,0.066900*
1,1,0.013780,-0.035400,-0.066900*
1,1,0.013780,0.035400,-0.066900*
1,1,0.013780,0.035400,0.066900*
%
%AMD170*
4,1,8,0.005400,-0.032200,0.032200,-0.005400,0.032200,0.005400,0.005400,0.032200,-0.005400,0.032200,-0.032200,0.005400,-0.032200,-0.005400,-0.005400,-0.032200,0.005400,-0.032200,0.0*
1,1,0.015360,0.000000,-0.026700*
1,1,0.015360,0.026700,0.000000*
1,1,0.015360,0.000000,0.026700*
1,1,0.015360,-0.026700,0.000000*
%
%AMD171*
4,1,8,-0.041100,-0.004900,-0.004900,-0.041100,0.007600,-0.041000,0.041000,-0.007600,0.041100,0.004900,0.004900,0.041100,-0.007600,0.041000,-0.041000,0.007600,-0.041100,-0.004900,0.0*
1,1,0.017720,-0.034800,0.001400*
1,1,0.017720,0.001400,-0.034800*
1,1,0.017720,0.034800,-0.001400*
1,1,0.017720,-0.001400,0.034800*
%
%AMD172*
4,1,8,-0.062600,-0.025000,-0.025000,-0.062600,-0.016700,-0.062600,0.062600,0.016700,0.062600,0.025000,0.025000,0.062600,0.016700,0.062600,-0.062600,-0.016700,-0.062600,-0.025000,0.0*
1,1,0.011820,-0.058500,-0.020900*
1,1,0.011820,-0.020900,-0.058500*
1,1,0.011820,0.058500,0.020900*
1,1,0.011820,0.020900,0.058500*
%
%AMD173*
4,1,8,0.004800,0.015500,-0.004800,0.015500,-0.007000,0.013300,-0.007000,-0.013300,-0.004800,-0.015500,0.004800,-0.015500,0.007000,-0.013300,0.007000,0.013300,0.004800,0.015500,0.0*
1,1,0.004360,0.004800,0.013300*
1,1,0.004360,-0.004800,0.013300*
1,1,0.004360,-0.004800,-0.013300*
1,1,0.004360,0.004800,-0.013300*
%
%AMD174*
4,1,8,-0.007000,0.008300,-0.007000,-0.008300,-0.004800,-0.010500,0.004800,-0.010500,0.007000,-0.008300,0.007000,0.008300,0.004800,0.010500,-0.004800,0.010500,-0.007000,0.008300,0.0*
1,1,0.004360,-0.004800,0.008300*
1,1,0.004360,-0.004800,-0.008300*
1,1,0.004360,0.004800,-0.008300*
1,1,0.004360,0.004800,0.008300*
%
%AMD175*
4,1,8,0.010000,-0.004800,0.010000,0.004800,0.007800,0.007000,-0.007800,0.007000,-0.010000,0.004800,-0.010000,-0.004800,-0.007800,-0.007000,0.007800,-0.007000,0.010000,-0.004800,0.0*
1,1,0.004360,0.007800,-0.004800*
1,1,0.004360,0.007800,0.004800*
1,1,0.004360,-0.007800,0.004800*
1,1,0.004360,-0.007800,-0.004800*
%
%AMD176*
4,1,8,-0.024300,-0.002200,-0.002200,-0.024300,0.006400,-0.024300,0.024300,-0.006400,0.024300,0.002200,0.002200,0.024300,-0.006400,0.024300,-0.024300,0.006400,-0.024300,-0.002200,0.0*
1,1,0.012200,-0.019900,0.002100*
1,1,0.012200,0.002100,-0.019900*
1,1,0.012200,0.019900,-0.002100*
1,1,0.012200,-0.002100,0.019900*
%
%AMD177*
4,1,8,-0.019700,0.018300,-0.019700,-0.018300,-0.013400,-0.024600,0.013400,-0.024600,0.019700,-0.018300,0.019700,0.018300,0.013400,0.024600,-0.013400,0.024600,-0.019700,0.018300,0.0*
1,1,0.012600,-0.013400,0.018300*
1,1,0.012600,-0.013400,-0.018300*
1,1,0.012600,0.013400,-0.018300*
1,1,0.012600,0.013400,0.018300*
%
%AMD178*
4,1,8,-0.009800,-0.012800,0.009800,-0.012800,0.014800,-0.007900,0.014800,0.007900,0.009800,0.012800,-0.009800,0.012800,-0.014800,0.007900,-0.014800,-0.007900,-0.009800,-0.012800,0.0*
1,1,0.009840,-0.009800,-0.007900*
1,1,0.009840,0.009800,-0.007900*
1,1,0.009840,0.009800,0.007900*
1,1,0.009840,-0.009800,0.007900*
%
%AMD179*
4,1,8,-0.018300,-0.019700,0.018300,-0.019700,0.024600,-0.013400,0.024600,0.013400,0.018300,0.019700,-0.018300,0.019700,-0.024600,0.013400,-0.024600,-0.013400,-0.018300,-0.019700,0.0*
1,1,0.012600,-0.018300,-0.013400*
1,1,0.012600,0.018300,-0.013400*
1,1,0.012600,0.018300,0.013400*
1,1,0.012600,-0.018300,0.013400*
%
%AMD180*
4,1,8,-0.004100,-0.017700,0.004100,-0.017700,0.007900,-0.014000,0.007900,0.014000,0.004100,0.017700,-0.004100,0.017700,-0.007900,0.014000,-0.007900,-0.014000,-0.004100,-0.017700,0.0*
1,1,0.007540,-0.004100,-0.014000*
1,1,0.007540,0.004100,-0.014000*
1,1,0.007540,0.004100,0.014000*
1,1,0.007540,-0.004100,0.014000*
%
%AMD181*
4,1,8,0.011000,0.008900,-0.011000,0.008900,-0.015700,0.004100,-0.015700,-0.004100,-0.011000,-0.008900,0.011000,-0.008900,0.015700,-0.004100,0.015700,0.004100,0.011000,0.008900,0.0*
1,1,0.009440,0.011000,0.004100*
1,1,0.009440,-0.011000,0.004100*
1,1,0.009440,-0.011000,-0.004100*
1,1,0.009440,0.011000,-0.004100*
%
%AMD182*
4,1,8,0.059800,0.065900,-0.059800,0.065900,-0.065900,0.059800,-0.065900,-0.059800,-0.059800,-0.065900,0.059800,-0.065900,0.065900,-0.059800,0.065900,0.059800,0.059800,0.065900,0.0*
1,1,0.012200,0.059800,0.059800*
1,1,0.012200,-0.059800,0.059800*
1,1,0.012200,-0.059800,-0.059800*
1,1,0.012200,0.059800,-0.059800*
%
%AMD183*
4,1,8,0.020700,0.034400,-0.020700,0.034400,-0.032500,0.022600,-0.032500,-0.022600,-0.020700,-0.034400,0.020700,-0.034400,0.032500,-0.022600,0.032500,0.022600,0.020700,0.034400,0.0*
1,1,0.023620,0.020700,0.022600*
1,1,0.023620,-0.020700,0.022600*
1,1,0.023620,-0.020700,-0.022600*
1,1,0.023620,0.020700,-0.022600*
%
%AMD184*
4,1,8,0.012800,-0.009800,0.012800,0.009800,0.007900,0.014800,-0.007900,0.014800,-0.012800,0.009800,-0.012800,-0.009800,-0.007900,-0.014800,0.007900,-0.014800,0.012800,-0.009800,0.0*
1,1,0.009840,0.007900,-0.009800*
1,1,0.009840,0.007900,0.009800*
1,1,0.009840,-0.007900,0.009800*
1,1,0.009840,-0.007900,-0.009800*
%
%AMD185*
4,1,8,-0.012800,-0.065900,0.012800,-0.065900,0.018900,-0.059800,0.018900,0.059800,0.012800,0.065900,-0.012800,0.065900,-0.018900,0.059800,-0.018900,-0.059800,-0.012800,-0.065900,0.0*
1,1,0.012280,-0.012800,-0.059800*
1,1,0.012280,0.012800,-0.059800*
1,1,0.012280,0.012800,0.059800*
1,1,0.012280,-0.012800,0.059800*
%
%AMD186*
4,1,8,-0.002200,0.024300,-0.024300,0.002200,-0.024300,-0.006400,-0.006400,-0.024300,0.002200,-0.024300,0.024300,-0.002200,0.024300,0.006400,0.006400,0.024300,-0.002200,0.024300,0.0*
1,1,0.012200,0.002100,0.019900*
1,1,0.012200,-0.019900,-0.002100*
1,1,0.012200,-0.002100,-0.019900*
1,1,0.012200,0.019900,0.002100*
%
%AMD187*
4,1,8,-0.011000,-0.006900,0.011000,-0.006900,0.013800,-0.004100,0.013800,0.004100,0.011000,0.006900,-0.011000,0.006900,-0.013800,0.004100,-0.013800,-0.004100,-0.011000,-0.006900,0.0*
1,1,0.005520,-0.011000,-0.004100*
1,1,0.005520,0.011000,-0.004100*
1,1,0.005520,0.011000,0.004100*
1,1,0.005520,-0.011000,0.004100*
%
%AMD188*
4,1,8,0.004400,0.021100,-0.021100,-0.004400,-0.021100,-0.012300,-0.012300,-0.021100,-0.004400,-0.021100,0.021100,0.004400,0.021100,0.012300,0.012300,0.021100,0.004400,0.021100,0.0*
1,1,0.011220,0.008300,0.017100*
1,1,0.011220,-0.017100,-0.008300*
1,1,0.011220,-0.008300,-0.017100*
1,1,0.011220,0.017100,0.008300*
%
%AMD189*
4,1,8,-0.018400,0.105500,-0.105500,0.018400,-0.105500,0.006600,0.006600,-0.105500,0.018400,-0.105500,0.105500,-0.018400,0.105500,-0.006600,-0.006600,0.105500,-0.018400,0.105500,0.0*
1,1,0.016620,-0.012500,0.099600*
1,1,0.016620,-0.099600,0.012500*
1,1,0.016620,0.012500,-0.099600*
1,1,0.016620,0.099600,-0.012500*
%
%AMD190*
4,1,8,0.022500,0.111200,-0.022500,0.111200,-0.031100,0.102600,-0.031100,-0.102600,-0.022500,-0.111200,0.022500,-0.111200,0.031100,-0.102600,0.031100,0.102600,0.022500,0.111200,0.0*
1,1,0.017160,0.022500,0.102600*
1,1,0.017160,-0.022500,0.102600*
1,1,0.017160,-0.022500,-0.102600*
1,1,0.017160,0.022500,-0.102600*
%
%AMD191*
4,1,8,0.046700,0.025600,-0.046700,0.025600,-0.054100,0.018100,-0.054100,-0.018100,-0.046700,-0.025600,0.046700,-0.025600,0.054100,-0.018100,0.054100,0.018100,0.046700,0.025600,0.0*
1,1,0.014960,0.046700,0.018100*
1,1,0.014960,-0.046700,0.018100*
1,1,0.014960,-0.046700,-0.018100*
1,1,0.014960,0.046700,-0.018100*
%
%AMD192*
4,1,8,0.022600,0.022600,-0.022600,0.022600,-0.029500,0.015700,-0.029500,-0.015700,-0.022600,-0.022600,0.022600,-0.022600,0.029500,-0.015700,0.029500,0.015700,0.022600,0.022600,0.0*
1,1,0.013780,0.022600,0.015700*
1,1,0.013780,-0.022600,0.015700*
1,1,0.013780,-0.022600,-0.015700*
1,1,0.013780,0.022600,-0.015700*
%
%AMD193*
4,1,8,-0.025600,0.046700,-0.025600,-0.046700,-0.018100,-0.054100,0.018100,-0.054100,0.025600,-0.046700,0.025600,0.046700,0.018100,0.054100,-0.018100,0.054100,-0.025600,0.046700,0.0*
1,1,0.014960,-0.018100,0.046700*
1,1,0.014960,-0.018100,-0.046700*
1,1,0.014960,0.018100,-0.046700*
1,1,0.014960,0.018100,0.046700*
%
%AMD194*
4,1,8,0.025000,-0.062600,0.062600,-0.025000,0.062600,-0.016700,-0.016700,0.062600,-0.025000,0.062600,-0.062600,0.025000,-0.062600,0.016700,0.016700,-0.062600,0.025000,-0.062600,0.0*
1,1,0.011820,0.020900,-0.058500*
1,1,0.011820,0.058500,-0.020900*
1,1,0.011820,-0.020900,0.058500*
1,1,0.011820,-0.058500,0.020900*
%
%AMD195*
4,1,8,-0.013900,0.016900,-0.013900,-0.016900,-0.008800,-0.022100,0.008800,-0.022100,0.013900,-0.016900,0.013900,0.016900,0.008800,0.022100,-0.008800,0.022100,-0.013900,0.016900,0.0*
1,1,0.010300,-0.008800,0.016900*
1,1,0.010300,-0.008800,-0.016900*
1,1,0.010300,0.008800,-0.016900*
1,1,0.010300,0.008800,0.016900*
%
%AMD196*
4,1,8,0.093500,-0.078500,0.093500,0.078500,0.086400,0.085600,-0.086400,0.085600,-0.093500,0.078500,-0.093500,-0.078500,-0.086400,-0.085600,0.086400,-0.085600,0.093500,-0.078500,0.0*
1,1,0.014180,0.086400,-0.078500*
1,1,0.014180,0.086400,0.078500*
1,1,0.014180,-0.086400,0.078500*
1,1,0.014180,-0.086400,-0.078500*
%
%AMD197*
4,1,8,0.019900,0.016700,-0.019900,0.016700,-0.025600,0.011000,-0.025600,-0.011000,-0.019900,-0.016700,0.019900,-0.016700,0.025600,-0.011000,0.025600,0.011000,0.019900,0.016700,0.0*
1,1,0.011420,0.019900,0.011000*
1,1,0.011420,-0.019900,0.011000*
1,1,0.011420,-0.019900,-0.011000*
1,1,0.011420,0.019900,-0.011000*
%
%ADD30C,0.019680*%
%ADD31C,0.023620*%
%ADD33C,0.015750*%
%ADD35C,0.009840*%
G04~CAMADD=52~8~0.0~0.0~344.5~78.7~11.8~0.0~15~0.0~0.0~0.0~0.0~0~0.0~0.0~0.0~0.0~0~0.0~0.0~0.0~0.0~344.5~78.7*
%ADD52D52*%
G04~CAMADD=56~8~0.0~0.0~78.7~344.5~11.8~0.0~15~0.0~0.0~0.0~0.0~0~0.0~0.0~0.0~0.0~0~0.0~0.0~0.0~0.0~78.7~344.5*
%ADD56D56*%
G04~CAMADD=61~8~0.0~0.0~511.8~984.3~255.9~0.0~15~0.0~0.0~0.0~0.0~0~0.0~0.0~0.0~0.0~0~0.0~0.0~0.0~180.0~512.0~983.0*
%ADD61D61*%
G04~CAMADD=101~8~0.0~0.0~1259.8~511.8~255.9~0.0~15~0.0~0.0~0.0~0.0~0~0.0~0.0~0.0~0.0~0~0.0~0.0~0.0~270.0~512.0~1259.0*
%ADD101D101*%
%ADD102C,0.027560*%
G04~CAMADD=103~8~0.0~0.0~275.6~629.9~137.8~0.0~15~0.0~0.0~0.0~0.0~0~0.0~0.0~0.0~0.0~0~0.0~0.0~0.0~180.0~276.0~629.0*
%ADD103D103*%
%ADD105C,0.051180*%
%ADD145C,0.062990*%
G04~CAMADD=146~8~0.0~0.0~204.7~118.1~29.5~0.0~15~0.0~0.0~0.0~0.0~0~0.0~0.0~0.0~0.0~0~0.0~0.0~0.0~90.0~118.0~204.0*
%ADD146D146*%
G04~CAMADD=147~8~0.0~0.0~118.1~210.6~29.5~0.0~15~0.0~0.0~0.0~0.0~0~0.0~0.0~0.0~0.0~0~0.0~0.0~0.0~180.0~118.0~210.0*
%ADD147D147*%
G04~CAMADD=148~8~0.0~0.0~118.1~210.6~29.5~0.0~15~0.0~0.0~0.0~0.0~0~0.0~0.0~0.0~0.0~0~0.0~0.0~0.0~90.0~210.0~118.0*
%ADD148D148*%
G04~CAMADD=149~8~0.0~0.0~118.1~349.6~29.5~0.0~15~0.0~0.0~0.0~0.0~0~0.0~0.0~0.0~0.0~0~0.0~0.0~0.0~0.0~118.1~349.6*
%ADD149D149*%
G04~CAMADD=150~8~0.0~0.0~118.1~204.7~29.5~0.0~15~0.0~0.0~0.0~0.0~0~0.0~0.0~0.0~0.0~0~0.0~0.0~0.0~90.0~204.0~118.0*
%ADD150D150*%
G04~CAMADD=151~8~0.0~0.0~189.0~1340.6~47.2~0.0~15~0.0~0.0~0.0~0.0~0~0.0~0.0~0.0~0.0~0~0.0~0.0~0.0~0.0~189.0~1340.6*
%ADD151D151*%
G04~CAMADD=152~8~0.0~0.0~232.3~1181.1~58.1~0.0~15~0.0~0.0~0.0~0.0~0~0.0~0.0~0.0~0.0~0~0.0~0.0~0.0~0.0~232.3~1181.1*
%ADD152D152*%
G04~CAMADD=153~8~0.0~0.0~2996.1~2606.3~156.9~0.0~15~0.0~0.0~0.0~0.0~0~0.0~0.0~0.0~0.0~0~0.0~0.0~0.0~180.0~2996.0~2606.0*
%ADD153D153*%
G04~CAMADD=154~8~0.0~0.0~649.6~1240.2~59.1~0.0~15~0.0~0.0~0.0~0.0~0~0.0~0.0~0.0~0.0~0~0.0~0.0~0.0~90.0~1241.0~650.0*
%ADD154D154*%
G04~CAMADD=155~8~0.0~0.0~649.6~1240.2~59.1~0.0~15~0.0~0.0~0.0~0.0~0~0.0~0.0~0.0~0.0~0~0.0~0.0~0.0~180.0~650.0~1240.0*
%ADD155D155*%
G04~CAMADD=156~8~0.0~0.0~433.1~374.0~61.0~0.0~15~0.0~0.0~0.0~0.0~0~0.0~0.0~0.0~0.0~0~0.0~0.0~0.0~90.0~375.0~434.0*
%ADD156D156*%
G04~CAMADD=157~8~0.0~0.0~393.7~196.8~43.3~0.0~15~0.0~0.0~0.0~0.0~0~0.0~0.0~0.0~0.0~0~0.0~0.0~0.0~0.0~393.7~196.8*
%ADD157D157*%
G04~CAMADD=158~8~0.0~0.0~157.5~354.3~37.4~0.0~15~0.0~0.0~0.0~0.0~0~0.0~0.0~0.0~0.0~0~0.0~0.0~0.0~90.0~354.0~158.0*
%ADD158D158*%
G04~CAMADD=159~8~0.0~0.0~571.8~906.5~81.2~0.0~15~0.0~0.0~0.0~0.0~0~0.0~0.0~0.0~0.0~0~0.0~0.0~0.0~90.0~907.0~572.0*
%ADD159D159*%
G04~CAMADD=160~8~0.0~0.0~374.0~531.5~61.0~0.0~15~0.0~0.0~0.0~0.0~0~0.0~0.0~0.0~0.0~0~0.0~0.0~0.0~90.0~532.0~375.0*
%ADD160D160*%
G04~CAMADD=161~8~0.0~0.0~531.5~531.5~76.8~0.0~15~0.0~0.0~0.0~0.0~0~0.0~0.0~0.0~0.0~0~0.0~0.0~0.0~0.0~531.5~531.5*
%ADD161D161*%
G04~CAMADD=162~8~0.0~0.0~374.0~531.5~61.0~0.0~15~0.0~0.0~0.0~0.0~0~0.0~0.0~0.0~0.0~0~0.0~0.0~0.0~0.0~374.0~531.5*
%ADD162D162*%
G04~CAMADD=163~8~0.0~0.0~571.8~906.5~81.2~0.0~15~0.0~0.0~0.0~0.0~0~0.0~0.0~0.0~0.0~0~0.0~0.0~0.0~0.0~571.8~906.5*
%ADD163D163*%
G04~CAMADD=164~8~0.0~0.0~433.1~196.8~27.6~0.0~15~0.0~0.0~0.0~0.0~0~0.0~0.0~0.0~0.0~0~0.0~0.0~0.0~180.0~434.0~197.0*
%ADD164D164*%
G04~CAMADD=165~8~0.0~0.0~441.0~204.7~31.5~0.0~15~0.0~0.0~0.0~0.0~0~0.0~0.0~0.0~0.0~0~0.0~0.0~0.0~0.0~441.0~204.7*
%ADD165D165*%
G04~CAMADD=166~8~0.0~0.0~433.1~374.0~61.0~0.0~15~0.0~0.0~0.0~0.0~0~0.0~0.0~0.0~0.0~0~0.0~0.0~0.0~180.0~434.0~374.0*
%ADD166D166*%
G04~CAMADD=167~8~0.0~0.0~441.9~278.7~51.5~0.0~15~0.0~0.0~0.0~0.0~0~0.0~0.0~0.0~0.0~0~0.0~0.0~0.0~180.0~442.0~278.0*
%ADD167D167*%
G04~CAMADD=168~8~0.0~0.0~1476.4~846.5~68.9~0.0~15~0.0~0.0~0.0~0.0~0~0.0~0.0~0.0~0.0~0~0.0~0.0~0.0~90.0~846.0~1476.0*
%ADD168D168*%
%ADD169C,0.013780*%
G04~CAMADD=170~8~0.0~0.0~531.5~531.5~76.8~0.0~15~0.0~0.0~0.0~0.0~0~0.0~0.0~0.0~0.0~0~0.0~0.0~0.0~225.0~688.0~687.0*
%ADD170D170*%
G04~CAMADD=171~8~0.0~0.0~689.0~649.6~88.6~0.0~15~0.0~0.0~0.0~0.0~0~0.0~0.0~0.0~0.0~0~0.0~0.0~0.0~135.0~874.0~873.0*
%ADD171D171*%
G04~CAMADD=172~8~0.0~0.0~649.6~1240.2~59.1~0.0~15~0.0~0.0~0.0~0.0~0~0.0~0.0~0.0~0.0~0~0.0~0.0~0.0~135.0~1286.0~1287.0*
%ADD172D172*%
G04~CAMADD=173~8~0.0~0.0~139.7~309.7~21.8~0.0~15~0.0~0.0~0.0~0.0~0~0.0~0.0~0.0~0.0~0~0.0~0.0~0.0~0.0~139.7~309.7*
%ADD173D173*%
G04~CAMADD=174~8~0.0~0.0~209.7~139.7~21.8~0.0~15~0.0~0.0~0.0~0.0~0~0.0~0.0~0.0~0.0~0~0.0~0.0~0.0~90.0~140.0~210.0*
%ADD174D174*%
G04~CAMADD=175~8~0.0~0.0~139.7~199.7~21.8~0.0~15~0.0~0.0~0.0~0.0~0~0.0~0.0~0.0~0.0~0~0.0~0.0~0.0~270.0~200.0~140.0*
%ADD175D175*%
G04~CAMADD=176~8~0.0~0.0~433.1~374.0~61.0~0.0~15~0.0~0.0~0.0~0.0~0~0.0~0.0~0.0~0.0~0~0.0~0.0~0.0~135.0~520.0~520.0*
%ADD176D176*%
G04~CAMADD=177~8~0.0~0.0~492.1~393.7~63.0~0.0~15~0.0~0.0~0.0~0.0~0~0.0~0.0~0.0~0.0~0~0.0~0.0~0.0~90.0~394.0~492.0*
%ADD177D177*%
G04~CAMADD=178~8~0.0~0.0~295.3~255.9~49.2~0.0~15~0.0~0.0~0.0~0.0~0~0.0~0.0~0.0~0.0~0~0.0~0.0~0.0~180.0~296.0~256.0*
%ADD178D178*%
G04~CAMADD=179~8~0.0~0.0~492.1~393.7~63.0~0.0~15~0.0~0.0~0.0~0.0~0~0.0~0.0~0.0~0.0~0~0.0~0.0~0.0~180.0~492.0~394.0*
%ADD179D179*%
G04~CAMADD=180~8~0.0~0.0~158.1~355.0~37.7~0.0~15~0.0~0.0~0.0~0.0~0~0.0~0.0~0.0~0.0~0~0.0~0.0~0.0~180.0~158.0~354.0*
%ADD180D180*%
G04~CAMADD=181~8~0.0~0.0~315.0~177.2~47.2~0.0~15~0.0~0.0~0.0~0.0~0~0.0~0.0~0.0~0.0~0~0.0~0.0~0.0~0.0~315.0~177.2*
%ADD181D181*%
G04~CAMADD=182~8~0.0~0.0~1318.9~1318.9~61.0~0.0~15~0.0~0.0~0.0~0.0~0~0.0~0.0~0.0~0.0~0~0.0~0.0~0.0~0.0~1318.9~1318.9*
%ADD182D182*%
G04~CAMADD=183~8~0.0~0.0~649.6~689.0~118.1~0.0~15~0.0~0.0~0.0~0.0~0~0.0~0.0~0.0~0.0~0~0.0~0.0~0.0~0.0~649.6~689.0*
%ADD183D183*%
G04~CAMADD=184~8~0.0~0.0~295.3~255.9~49.2~0.0~15~0.0~0.0~0.0~0.0~0~0.0~0.0~0.0~0.0~0~0.0~0.0~0.0~270.0~256.0~296.0*
%ADD184D184*%
G04~CAMADD=185~8~0.0~0.0~378.0~1318.9~61.4~0.0~15~0.0~0.0~0.0~0.0~0~0.0~0.0~0.0~0.0~0~0.0~0.0~0.0~180.0~378.0~1318.0*
%ADD185D185*%
G04~CAMADD=186~8~0.0~0.0~433.1~374.0~61.0~0.0~15~0.0~0.0~0.0~0.0~0~0.0~0.0~0.0~0.0~0~0.0~0.0~0.0~45.0~521.0~520.0*
%ADD186D186*%
G04~CAMADD=187~8~0.0~0.0~275.6~137.8~27.6~0.0~15~0.0~0.0~0.0~0.0~0~0.0~0.0~0.0~0.0~0~0.0~0.0~0.0~180.0~276.0~138.0*
%ADD187D187*%
G04~CAMADD=188~8~0.0~0.0~472.4~236.2~56.1~0.0~15~0.0~0.0~0.0~0.0~0~0.0~0.0~0.0~0.0~0~0.0~0.0~0.0~45.0~456.0~455.0*
%ADD188D188*%
G04~CAMADD=189~8~0.0~0.0~1397.6~1752.0~83.1~0.0~15~0.0~0.0~0.0~0.0~0~0.0~0.0~0.0~0.0~0~0.0~0.0~0.0~45.0~2159.0~2157.0*
%ADD189D189*%
G04~CAMADD=190~8~0.0~0.0~622.1~2224.4~85.8~0.0~15~0.0~0.0~0.0~0.0~0~0.0~0.0~0.0~0.0~0~0.0~0.0~0.0~0.0~622.1~2224.4*
%ADD190D190*%
G04~CAMADD=191~8~0.0~0.0~1082.7~511.8~74.8~0.0~15~0.0~0.0~0.0~0.0~0~0.0~0.0~0.0~0.0~0~0.0~0.0~0.0~0.0~1082.7~511.8*
%ADD191D191*%
G04~CAMADD=192~8~0.0~0.0~590.6~452.8~68.9~0.0~15~0.0~0.0~0.0~0.0~0~0.0~0.0~0.0~0.0~0~0.0~0.0~0.0~0.0~590.6~452.8*
%ADD192D192*%
G04~CAMADD=193~8~0.0~0.0~1082.7~511.8~74.8~0.0~15~0.0~0.0~0.0~0.0~0~0.0~0.0~0.0~0.0~0~0.0~0.0~0.0~90.0~512.0~1083.0*
%ADD193D193*%
G04~CAMADD=194~8~0.0~0.0~649.6~1240.2~59.1~0.0~15~0.0~0.0~0.0~0.0~0~0.0~0.0~0.0~0.0~0~0.0~0.0~0.0~225.0~1287.0~1286.0*
%ADD194D194*%
G04~CAMADD=195~8~0.0~0.0~441.9~278.7~51.5~0.0~15~0.0~0.0~0.0~0.0~0~0.0~0.0~0.0~0.0~0~0.0~0.0~0.0~90.0~278.0~442.0*
%ADD195D195*%
G04~CAMADD=196~8~0.0~0.0~1712.6~1870.1~70.9~0.0~15~0.0~0.0~0.0~0.0~0~0.0~0.0~0.0~0.0~0~0.0~0.0~0.0~270.0~1870.0~1712.0*
%ADD196D196*%
G04~CAMADD=197~8~0.0~0.0~511.8~334.7~57.1~0.0~15~0.0~0.0~0.0~0.0~0~0.0~0.0~0.0~0.0~0~0.0~0.0~0.0~0.0~511.8~334.7*
%ADD197D197*%
%ADD198C,0.322960*%
%ADD199C,0.063120*%
%ADD200C,0.084650*%
%ADD201C,0.122840*%
%ADD202C,0.077950*%
%ADD203C,0.141730*%
%ADD204C,0.100000*%
%ADD205O,0.133860X0.281500*%
%ADD206C,0.320870*%
%ADD207C,0.064960*%
%ADD208O,0.047560X0.091180*%
%LNpanel-1*%
%LPD*%
G36*
X981644Y569706D02*
X967097D01*
X970279Y575218*
X978462*
X982553Y582305*
X988918*
X981644Y569706*
G37*
G36*
X958810D02*
X944262D01*
X947445Y575218*
X955627*
X959719Y582305*
X966083*
X958810Y569706*
G37*
G36*
X230361Y569584D02*
X230406Y569573D01*
X230437Y569560*
X230449Y569555*
X230489Y569531*
X230524Y569501*
X231705Y568320*
X231736Y568284*
X231760Y568245*
X231765Y568232*
X231778Y568202*
X231789Y568157*
X231792Y568110*
Y566535*
X231789Y566489*
X231778Y566444*
X231765Y566413*
X231760Y566401*
X231736Y566361*
X231705Y566326*
X230524Y565145*
X230489Y565115*
X230449Y565090*
X230437Y565085*
X230406Y565073*
X230361Y565062*
X230315Y565058*
X228740*
X228694Y565062*
X228649Y565073*
X228618Y565085*
X228606Y565090*
X228566Y565115*
X228531Y565145*
X227350Y566326*
X227319Y566361*
X227295Y566401*
X227290Y566413*
X227277Y566444*
X227267Y566489*
X227263Y566535*
Y568110*
X227267Y568157*
X227277Y568202*
X227290Y568232*
X227295Y568245*
X227319Y568284*
X227350Y568320*
X228531Y569501*
X228566Y569531*
X228606Y569555*
X228618Y569560*
X228649Y569573*
X228694Y569584*
X228740Y569588*
X230315*
X230361Y569584*
G37*
G36*
X224850D02*
X224895Y569573D01*
X224925Y569560*
X224938Y569555*
X224977Y569531*
X225013Y569501*
X226194Y568320*
X226224Y568284*
X226248Y568245*
X226253Y568232*
X226266Y568202*
X226277Y568157*
X226280Y568110*
Y566535*
X226277Y566489*
X226266Y566444*
X226253Y566413*
X226248Y566401*
X226224Y566361*
X226194Y566326*
X225013Y565145*
X224977Y565115*
X224938Y565090*
X224925Y565085*
X224895Y565073*
X224850Y565062*
X224803Y565058*
X223228*
X223182Y565062*
X223137Y565073*
X223106Y565085*
X223094Y565090*
X223054Y565115*
X223019Y565145*
X221838Y566326*
X221808Y566361*
X221783Y566401*
X221778Y566413*
X221765Y566444*
X221755Y566489*
X221751Y566535*
Y568110*
X221755Y568157*
X221765Y568202*
X221778Y568232*
X221783Y568245*
X221808Y568284*
X221838Y568320*
X223019Y569501*
X223054Y569531*
X223094Y569555*
X223106Y569560*
X223137Y569573*
X223182Y569584*
X223228Y569588*
X224803*
X224850Y569584*
G37*
G36*
X219338D02*
X219383Y569573D01*
X219413Y569560*
X219426Y569555*
X219465Y569531*
X219501Y569501*
X220682Y568320*
X220712Y568284*
X220736Y568245*
X220742Y568232*
X220754Y568202*
X220765Y568157*
X220769Y568110*
Y566535*
X220765Y566489*
X220754Y566444*
X220742Y566413*
X220736Y566401*
X220712Y566361*
X220682Y566326*
X219501Y565145*
X219465Y565115*
X219426Y565090*
X219413Y565085*
X219383Y565073*
X219338Y565062*
X219291Y565058*
X217717*
X217670Y565062*
X217625Y565073*
X217595Y565085*
X217582Y565090*
X217542Y565115*
X217507Y565145*
X216326Y566326*
X216296Y566361*
X216271Y566401*
X216266Y566413*
X216254Y566444*
X216243Y566489*
X216239Y566535*
Y568110*
X216243Y568157*
X216254Y568202*
X216266Y568232*
X216271Y568245*
X216296Y568284*
X216326Y568320*
X217507Y569501*
X217542Y569531*
X217582Y569555*
X217595Y569560*
X217625Y569573*
X217670Y569584*
X217717Y569588*
X219291*
X219338Y569584*
G37*
G36*
X210676D02*
X210721Y569573D01*
X210752Y569560*
X210764Y569555*
X210804Y569531*
X210839Y569501*
X212020Y568320*
X212051Y568284*
X212075Y568245*
X212080Y568232*
X212093Y568202*
X212104Y568157*
X212107Y568110*
Y566535*
X212104Y566489*
X212093Y566444*
X212080Y566413*
X212075Y566401*
X212051Y566361*
X212020Y566326*
X210839Y565145*
X210804Y565115*
X210764Y565090*
X210752Y565085*
X210721Y565073*
X210676Y565062*
X210630Y565058*
X209055*
X209009Y565062*
X208964Y565073*
X208933Y565085*
X208921Y565090*
X208881Y565115*
X208846Y565145*
X207665Y566326*
X207634Y566361*
X207610Y566401*
X207605Y566413*
X207592Y566444*
X207581Y566489*
X207578Y566535*
Y568110*
X207581Y568157*
X207592Y568202*
X207605Y568232*
X207610Y568245*
X207634Y568284*
X207665Y568320*
X208846Y569501*
X208881Y569531*
X208921Y569555*
X208933Y569560*
X208964Y569573*
X209009Y569584*
X209055Y569588*
X210630*
X210676Y569584*
G37*
G36*
X204377D02*
X204422Y569573D01*
X204453Y569560*
X204465Y569555*
X204505Y569531*
X204540Y569501*
X205721Y568320*
X205751Y568284*
X205776Y568245*
X205781Y568232*
X205793Y568202*
X205804Y568157*
X205808Y568110*
Y566535*
X205804Y566489*
X205793Y566444*
X205781Y566413*
X205776Y566401*
X205751Y566361*
X205721Y566326*
X204540Y565145*
X204505Y565115*
X204465Y565090*
X204453Y565085*
X204422Y565073*
X204377Y565062*
X204331Y565058*
X202756*
X202710Y565062*
X202664Y565073*
X202634Y565085*
X202621Y565090*
X202582Y565115*
X202547Y565145*
X201365Y566326*
X201335Y566361*
X201311Y566401*
X201306Y566413*
X201293Y566444*
X201282Y566489*
X201279Y566535*
Y568110*
X201282Y568157*
X201293Y568202*
X201306Y568232*
X201311Y568245*
X201335Y568284*
X201365Y568320*
X202547Y569501*
X202582Y569531*
X202621Y569555*
X202634Y569560*
X202664Y569573*
X202710Y569584*
X202756Y569588*
X204331*
X204377Y569584*
G37*
G36*
X535018Y577314D02*
Y562766D01*
X529506Y565948*
Y574131*
X522420Y578223*
Y584587*
X535018Y577314*
G37*
G36*
X662577Y576920D02*
Y562372D01*
X657065Y565555*
Y573738*
X649978Y577829*
Y584194*
X662577Y576920*
G37*
G36*
X268482D02*
Y562372D01*
X262971Y565555*
Y573738*
X255884Y577829*
Y584194*
X268482Y576920*
G37*
G36*
X289432Y560729D02*
X289439D01*
X289941Y560704*
X289948Y560703*
X289955*
X290456Y560654*
X290463Y560653*
X290470Y560652*
X290967Y560578*
X290974Y560577*
X290982Y560576*
X291474Y560478*
X291481Y560476*
X291489Y560475*
X291976Y560353*
X291983Y560350*
X291990Y560349*
X292471Y560203*
X292478Y560200*
X292485Y560198*
X292958Y560029*
X292965Y560026*
X292972Y560024*
X293436Y559831*
X293443Y559828*
X293449Y559826*
X293904Y559611*
X293910Y559607*
X293917Y559604*
X294360Y559367*
X294366Y559363*
X294372Y559360*
X294804Y559102*
X294809Y559097*
X294816Y559094*
X295234Y558815*
X295239Y558810*
X295246Y558806*
X295649Y558507*
X295655Y558502*
X295661Y558498*
X296049Y558179*
X296054Y558174*
X296060Y558170*
X296432Y557832*
X296438Y557827*
X296443Y557822*
X296798Y557467*
X296803Y557461*
X296809Y557456*
X297146Y557084*
X297150Y557078*
X297155Y557073*
X297474Y556684*
X297479Y556678*
X297483Y556673*
X297783Y556269*
X297786Y556263*
X297791Y556257*
X298070Y555839*
X298074Y555833*
X298078Y555827*
X298336Y555396*
X298340Y555389*
X298343Y555383*
X298580Y554940*
X298583Y554934*
X298587Y554927*
X298802Y554473*
X298804Y554466*
X298808Y554460*
X299000Y553995*
X299002Y553988*
X299005Y553982*
X299175Y553509*
X299177Y553502*
X299179Y553495*
X299325Y553014*
X299327Y553007*
X299329Y553000*
X299451Y552512*
X299452Y552505*
X299454Y552498*
X299552Y552005*
X299553Y551998*
X299555Y551991*
X299628Y551494*
X299629Y551486*
X299630Y551479*
X299680Y550979*
Y550972*
X299681Y550965*
X299705Y550463*
Y550455*
X299706Y550448*
Y550197*
Y514764*
Y481299*
Y481048*
X299705Y481041*
Y481033*
X299681Y480531*
X299680Y480524*
Y480517*
X299630Y480017*
X299629Y480010*
X299628Y480002*
X299555Y479505*
X299553Y479498*
X299552Y479491*
X299454Y478998*
X299452Y478991*
X299451Y478984*
X299329Y478496*
X299327Y478489*
X299325Y478482*
X299179Y478001*
X299177Y477995*
X299175Y477987*
X299005Y477514*
X299002Y477508*
X299000Y477501*
X298808Y477037*
X298804Y477030*
X298802Y477023*
X298587Y476569*
X298583Y476563*
X298580Y476556*
X298343Y476113*
X298340Y476107*
X298336Y476100*
X298078Y475669*
X298074Y475663*
X298070Y475657*
X297791Y475239*
X297786Y475233*
X297783Y475227*
X297483Y474823*
X297479Y474818*
X297474Y474812*
X297155Y474423*
X297150Y474418*
X297146Y474412*
X296809Y474040*
X296803Y474035*
X296798Y474029*
X296443Y473674*
X296438Y473669*
X296432Y473664*
X296060Y473326*
X296054Y473322*
X296049Y473317*
X295661Y472998*
X295655Y472994*
X295649Y472989*
X295246Y472690*
X295239Y472686*
X295234Y472681*
X294816Y472402*
X294809Y472399*
X294804Y472394*
X294372Y472136*
X294366Y472133*
X294360Y472129*
X293917Y471892*
X293910Y471889*
X293904Y471885*
X293449Y471671*
X293443Y471668*
X293436Y471665*
X292972Y471472*
X292965Y471470*
X292958Y471467*
X292485Y471298*
X292478Y471296*
X292471Y471293*
X291990Y471147*
X291983Y471146*
X291976Y471143*
X291489Y471021*
X291481Y471020*
X291474Y471018*
X290982Y470920*
X290974Y470919*
X290967Y470918*
X290470Y470844*
X290463Y470843*
X290456Y470842*
X289955Y470793*
X289948*
X289941Y470792*
X289439Y470767*
X289432*
X289424*
X143646*
X143639*
X143632*
X143130Y470792*
X143123Y470793*
X143115*
X142615Y470842*
X142608Y470843*
X142601Y470844*
X142104Y470918*
X142097Y470919*
X142089Y470920*
X141596Y471018*
X141589Y471020*
X141582Y471021*
X141095Y471143*
X141088Y471146*
X141081Y471147*
X140600Y471293*
X140593Y471296*
X140586Y471298*
X140113Y471467*
X140106Y471470*
X140099Y471472*
X139635Y471665*
X139628Y471668*
X139622Y471671*
X139167Y471885*
X139161Y471889*
X139154Y471892*
X138711Y472129*
X138705Y472133*
X138698Y472136*
X138267Y472394*
X138261Y472399*
X138255Y472402*
X137837Y472681*
X137831Y472686*
X137825Y472690*
X137422Y472989*
X137416Y472994*
X137410Y472998*
X137022Y473317*
X137016Y473322*
X137011Y473326*
X136638Y473664*
X136633Y473669*
X136628Y473674*
X136272Y474029*
X136268Y474035*
X136262Y474040*
X135925Y474412*
X135920Y474418*
X135915Y474423*
X135597Y474812*
X135592Y474818*
X135588Y474823*
X135288Y475227*
X135284Y475233*
X135280Y475239*
X135001Y475657*
X134997Y475663*
X134993Y475669*
X134734Y476100*
X134731Y476107*
X134727Y476113*
X134490Y476556*
X134487Y476563*
X134484Y476569*
X134269Y477023*
X134266Y477030*
X134263Y477037*
X134071Y477501*
X134069Y477508*
X134066Y477514*
X133896Y477987*
X133894Y477995*
X133892Y478001*
X133746Y478482*
X133744Y478489*
X133742Y478496*
X133620Y478984*
X133619Y478991*
X133617Y478998*
X133519Y479491*
X133518Y479498*
X133516Y479505*
X133442Y480002*
Y480010*
X133441Y480017*
X133391Y480517*
Y480524*
X133390Y480531*
X133366Y481033*
Y481041*
X133365Y481048*
Y481299*
Y511811*
Y514764*
Y550197*
Y550448*
X133366Y550455*
Y550463*
X133390Y550965*
X133391Y550972*
Y550979*
X133441Y551479*
X133442Y551486*
Y551494*
X133516Y551991*
X133518Y551998*
X133519Y552005*
X133617Y552498*
X133619Y552505*
X133620Y552512*
X133742Y553000*
X133744Y553007*
X133746Y553014*
X133892Y553495*
X133894Y553502*
X133896Y553509*
X134066Y553982*
X134069Y553988*
X134071Y553995*
X134263Y554460*
X134266Y554466*
X134269Y554473*
X134484Y554927*
X134487Y554934*
X134490Y554940*
X134727Y555383*
X134731Y555389*
X134734Y555396*
X134993Y555827*
X134997Y555833*
X135001Y555839*
X135280Y556257*
X135284Y556263*
X135288Y556269*
X135588Y556673*
X135592Y556678*
X135597Y556684*
X135915Y557073*
X135920Y557078*
X135925Y557084*
X136262Y557456*
X136268Y557461*
X136272Y557467*
X136628Y557822*
X136633Y557827*
X136638Y557832*
X137011Y558170*
X137016Y558174*
X137022Y558179*
X137410Y558498*
X137416Y558502*
X137422Y558507*
X137825Y558806*
X137831Y558810*
X137837Y558815*
X138255Y559094*
X138261Y559097*
X138267Y559102*
X138698Y559360*
X138705Y559363*
X138711Y559367*
X139154Y559604*
X139161Y559607*
X139167Y559611*
X139622Y559826*
X139628Y559828*
X139635Y559831*
X140099Y560024*
X140106Y560026*
X140113Y560029*
X140586Y560198*
X140593Y560200*
X140600Y560203*
X141081Y560349*
X141088Y560350*
X141095Y560353*
X141582Y560475*
X141589Y560476*
X141596Y560478*
X142089Y560576*
X142097Y560577*
X142104Y560578*
X142601Y560652*
X142608Y560653*
X142615Y560654*
X143115Y560703*
X143123*
X143130Y560704*
X143632Y560729*
X143639*
X143646*
X289424*
X289432*
G37*
G36*
X728787Y564859D02*
X728832Y564849D01*
X728862Y564836*
X728875Y564831*
X728914Y564807*
X728950Y564776*
X730131Y563595*
X730161Y563560*
X730185Y563520*
X730190Y563508*
X730203Y563477*
X730214Y563432*
X730217Y563386*
Y561811*
X730214Y561765*
X730203Y561720*
X730190Y561689*
X730185Y561677*
X730161Y561637*
X730131Y561602*
X728950Y560421*
X728914Y560390*
X728875Y560366*
X728862Y560361*
X728832Y560348*
X728787Y560337*
X728740Y560334*
X727165*
X727119Y560337*
X727074Y560348*
X727043Y560361*
X727031Y560366*
X726991Y560390*
X726956Y560421*
X725775Y561602*
X725745Y561637*
X725720Y561677*
X725715Y561689*
X725702Y561720*
X725692Y561765*
X725688Y561811*
Y563386*
X725692Y563432*
X725702Y563477*
X725715Y563508*
X725720Y563520*
X725745Y563560*
X725775Y563595*
X726956Y564776*
X726991Y564807*
X727031Y564831*
X727043Y564836*
X727074Y564849*
X727119Y564859*
X727165Y564863*
X728740*
X728787Y564859*
G37*
G36*
X713826Y560529D02*
X713871Y560518D01*
X713901Y560505*
X713914Y560500*
X713954Y560476*
X713989Y560446*
X715170Y559265*
X715200Y559229*
X715225Y559190*
X715230Y559177*
X715242Y559147*
X715253Y559101*
X715257Y559055*
Y557480*
X715253Y557434*
X715242Y557389*
X715230Y557358*
X715225Y557346*
X715200Y557306*
X715170Y557271*
X713989Y556090*
X713954Y556060*
X713914Y556035*
X713901Y556030*
X713871Y556017*
X713826Y556007*
X713779Y556003*
X712205*
X712158Y556007*
X712113Y556017*
X712083Y556030*
X712070Y556035*
X712031Y556060*
X711995Y556090*
X710814Y557271*
X710784Y557306*
X710760Y557346*
X710754Y557358*
X710742Y557389*
X710731Y557434*
X710727Y557480*
Y559055*
X710731Y559101*
X710742Y559147*
X710754Y559177*
X710760Y559190*
X710784Y559229*
X710814Y559265*
X711995Y560446*
X712031Y560476*
X712070Y560500*
X712083Y560505*
X712113Y560518*
X712158Y560529*
X712205Y560532*
X713779*
X713826Y560529*
G37*
G36*
X683049Y565109D02*
Y550561D01*
X677538Y553744*
Y561927*
X670451Y566018*
Y572382*
X683049Y565109*
G37*
G36*
X993062Y550021D02*
X978514D01*
X981697Y555533*
X989879*
X993971Y562620*
X1000335*
X993062Y550021*
G37*
G36*
X970227D02*
X955680D01*
X958862Y555533*
X967045*
X971136Y562620*
X977501*
X970227Y550021*
G37*
G36*
X947392D02*
X932845D01*
X936027Y555533*
X944210*
X948302Y562620*
X954666*
X947392Y550021*
G37*
G36*
X382330Y549899D02*
X382375Y549888D01*
X382405Y549875*
X382418Y549870*
X382458Y549846*
X382493Y549816*
X383674Y548635*
X383704Y548599*
X383729Y548560*
X383734Y548547*
X383746Y548517*
X383757Y548472*
X383761Y548425*
Y546850*
X383757Y546804*
X383746Y546759*
X383734Y546729*
X383729Y546716*
X383704Y546676*
X383674Y546641*
X382493Y545460*
X382458Y545430*
X382418Y545405*
X382405Y545400*
X382375Y545388*
X382330Y545377*
X382283Y545373*
X380709*
X380662Y545377*
X380617Y545388*
X380587Y545400*
X380574Y545405*
X380535Y545430*
X380499Y545460*
X379318Y546641*
X379288Y546676*
X379264Y546716*
X379258Y546729*
X379246Y546759*
X379235Y546804*
X379231Y546850*
Y548425*
X379235Y548472*
X379246Y548517*
X379258Y548547*
X379264Y548560*
X379288Y548599*
X379318Y548635*
X380499Y549816*
X380535Y549846*
X380574Y549870*
X380587Y549875*
X380617Y549888*
X380662Y549899*
X380709Y549902*
X382283*
X382330Y549899*
G37*
G36*
X535018Y554479D02*
Y539931D01*
X529506Y543114*
Y551297*
X522420Y555388*
Y561753*
X535018Y554479*
G37*
G36*
X382367Y543637D02*
X382412Y543626D01*
X382443Y543614*
X382455Y543608*
X382495Y543584*
X382530Y543554*
X383711Y542373*
X383742Y542338*
X383766Y542298*
X383771Y542285*
X383784Y542255*
X383794Y542210*
X383798Y542163*
Y540589*
X383794Y540542*
X383784Y540497*
X383771Y540467*
X383766Y540454*
X383742Y540414*
X383711Y540379*
X382530Y539198*
X382495Y539168*
X382455Y539144*
X382443Y539138*
X382412Y539126*
X382367Y539115*
X382321Y539111*
X380746*
X380700Y539115*
X380655Y539126*
X380624Y539138*
X380612Y539144*
X380572Y539168*
X380537Y539198*
X379356Y540379*
X379325Y540414*
X379301Y540454*
X379296Y540467*
X379283Y540497*
X379272Y540542*
X379269Y540589*
Y542163*
X379272Y542210*
X379283Y542255*
X379296Y542285*
X379301Y542298*
X379325Y542338*
X379356Y542373*
X380537Y543554*
X380572Y543584*
X380612Y543608*
X380624Y543614*
X380655Y543626*
X380700Y543637*
X380746Y543641*
X382321*
X382367Y543637*
G37*
G36*
X1027314Y530336D02*
X1012766D01*
X1015948Y535848*
X1024131*
X1028223Y542935*
X1034587*
X1027314Y530336*
G37*
G36*
X1004479D02*
X989931D01*
X993114Y535848*
X1001297*
X1005388Y542935*
X1011753*
X1004479Y530336*
G37*
G36*
X981644D02*
X967097D01*
X970279Y535848*
X978462*
X982553Y542935*
X988918*
X981644Y530336*
G37*
G36*
X555097Y542668D02*
Y528121D01*
X549585Y531303*
Y539486*
X542498Y543577*
Y549942*
X555097Y542668*
G37*
G36*
X116120Y539125D02*
Y524577D01*
X110608Y527759*
Y535942*
X103522Y540034*
Y546398*
X116120Y539125*
G37*
G36*
X770057Y534794D02*
Y520247D01*
X764545Y523429*
Y531612*
X757459Y535703*
Y542068*
X770057Y534794*
G37*
G36*
X534624Y530857D02*
Y516309D01*
X529112Y519492*
Y527675*
X522026Y531766*
Y538131*
X534624Y530857*
G37*
G36*
X554703Y519440D02*
Y504892D01*
X549191Y508074*
Y516257*
X542104Y520349*
Y526713*
X554703Y519440*
G37*
G36*
X823619Y506641D02*
X823664Y506630D01*
X823695Y506618*
X823707Y506612*
X823747Y506588*
X823782Y506558*
X824963Y505377*
X824994Y505341*
X825018Y505302*
X825023Y505289*
X825036Y505259*
X825047Y505214*
X825050Y505167*
Y503592*
X825047Y503546*
X825036Y503501*
X825023Y503471*
X825018Y503458*
X824994Y503418*
X824963Y503383*
X823782Y502202*
X823747Y502172*
X823707Y502147*
X823695Y502142*
X823664Y502130*
X823619Y502119*
X823573Y502115*
X821998*
X821952Y502119*
X821906Y502130*
X821876Y502142*
X821863Y502147*
X821824Y502172*
X821789Y502202*
X820607Y503383*
X820577Y503418*
X820553Y503458*
X820548Y503471*
X820535Y503501*
X820524Y503546*
X820521Y503592*
Y505167*
X820524Y505214*
X820535Y505259*
X820548Y505289*
X820553Y505302*
X820577Y505341*
X820607Y505377*
X821789Y506558*
X821824Y506588*
X821863Y506612*
X821876Y506618*
X821906Y506630*
X821952Y506641*
X821998Y506645*
X823573*
X823619Y506641*
G37*
G36*
X635529D02*
X635574Y506630D01*
X635604Y506618*
X635617Y506612*
X635656Y506588*
X635692Y506558*
X636873Y505377*
X636903Y505341*
X636927Y505302*
X636933Y505289*
X636945Y505259*
X636956Y505214*
X636960Y505167*
Y503592*
X636956Y503546*
X636945Y503501*
X636933Y503471*
X636927Y503458*
X636903Y503418*
X636873Y503383*
X635692Y502202*
X635656Y502172*
X635617Y502147*
X635604Y502142*
X635574Y502130*
X635529Y502119*
X635482Y502115*
X633908*
X633861Y502119*
X633816Y502130*
X633786Y502142*
X633773Y502147*
X633733Y502172*
X633698Y502202*
X632517Y503383*
X632487Y503418*
X632462Y503458*
X632457Y503471*
X632445Y503501*
X632434Y503546*
X632430Y503592*
Y505167*
X632434Y505214*
X632445Y505259*
X632457Y505289*
X632462Y505302*
X632487Y505341*
X632517Y505377*
X633698Y506558*
X633733Y506588*
X633773Y506612*
X633786Y506618*
X633816Y506630*
X633861Y506641*
X633908Y506645*
X635482*
X635529Y506641*
G37*
G36*
X567763Y505017D02*
X567808Y505006D01*
X567838Y504993*
X567851Y504988*
X567891Y504964*
X567926Y504934*
X569107Y503753*
X569137Y503717*
X569162Y503678*
X569167Y503665*
X569179Y503635*
X569190Y503590*
X569194Y503543*
Y501968*
X569190Y501922*
X569179Y501877*
X569167Y501847*
X569162Y501834*
X569137Y501794*
X569107Y501759*
X567926Y500578*
X567891Y500548*
X567851Y500524*
X567838Y500518*
X567808Y500506*
X567763Y500495*
X567717Y500491*
X566142*
X566095Y500495*
X566050Y500506*
X566020Y500518*
X566007Y500524*
X565968Y500548*
X565932Y500578*
X564751Y501759*
X564721Y501794*
X564697Y501834*
X564691Y501847*
X564679Y501877*
X564668Y501922*
X564664Y501968*
Y503543*
X564668Y503590*
X564679Y503635*
X564691Y503665*
X564697Y503678*
X564721Y503717*
X564751Y503753*
X565932Y504934*
X565968Y504964*
X566007Y504988*
X566020Y504993*
X566050Y505006*
X566095Y505017*
X566142Y505021*
X567717*
X567763Y505017*
G37*
G36*
X311070D02*
X311115Y505006D01*
X311145Y504993*
X311158Y504988*
X311198Y504964*
X311233Y504934*
X312414Y503753*
X312444Y503717*
X312469Y503678*
X312474Y503665*
X312486Y503635*
X312497Y503590*
X312501Y503543*
Y501968*
X312497Y501922*
X312486Y501877*
X312474Y501847*
X312469Y501834*
X312444Y501794*
X312414Y501759*
X311233Y500578*
X311198Y500548*
X311158Y500524*
X311145Y500518*
X311115Y500506*
X311070Y500495*
X311024Y500491*
X309449*
X309402Y500495*
X309357Y500506*
X309327Y500518*
X309314Y500524*
X309275Y500548*
X309239Y500578*
X308058Y501759*
X308028Y501794*
X308004Y501834*
X307999Y501847*
X307986Y501877*
X307975Y501922*
X307972Y501968*
Y503543*
X307975Y503590*
X307986Y503635*
X307999Y503665*
X308004Y503678*
X308028Y503717*
X308058Y503753*
X309239Y504934*
X309275Y504964*
X309314Y504988*
X309327Y504993*
X309357Y505006*
X309402Y505017*
X309449Y505021*
X311024*
X311070Y505017*
G37*
G36*
X123668D02*
X123714Y505006D01*
X123744Y504993*
X123757Y504988*
X123796Y504964*
X123831Y504934*
X125013Y503753*
X125043Y503717*
X125067Y503678*
X125072Y503665*
X125085Y503635*
X125096Y503590*
X125099Y503543*
Y501968*
X125096Y501922*
X125085Y501877*
X125072Y501847*
X125067Y501834*
X125043Y501794*
X125013Y501759*
X123831Y500578*
X123796Y500548*
X123757Y500524*
X123744Y500518*
X123714Y500506*
X123668Y500495*
X123622Y500491*
X122047*
X122001Y500495*
X121956Y500506*
X121925Y500518*
X121913Y500524*
X121873Y500548*
X121838Y500578*
X120657Y501759*
X120626Y501794*
X120602Y501834*
X120597Y501847*
X120584Y501877*
X120574Y501922*
X120570Y501968*
Y503543*
X120574Y503590*
X120584Y503635*
X120597Y503665*
X120602Y503678*
X120626Y503717*
X120657Y503753*
X121838Y504934*
X121873Y504964*
X121913Y504988*
X121925Y504993*
X121956Y505006*
X122001Y505017*
X122047Y505021*
X123622*
X123668Y505017*
G37*
G36*
X409101Y504230D02*
X409147Y504219D01*
X409177Y504206*
X409190Y504201*
X409229Y504177*
X409265Y504146*
X410446Y502965*
X410476Y502930*
X410500Y502890*
X410505Y502878*
X410518Y502847*
X410529Y502802*
X410532Y502756*
Y501181*
X410529Y501135*
X410518Y501090*
X410505Y501059*
X410500Y501047*
X410476Y501007*
X410446Y500972*
X409265Y499791*
X409229Y499760*
X409190Y499736*
X409177Y499731*
X409147Y499718*
X409101Y499708*
X409055Y499704*
X407480*
X407434Y499708*
X407389Y499718*
X407358Y499731*
X407346Y499736*
X407306Y499760*
X407271Y499791*
X406090Y500972*
X406060Y501007*
X406035Y501047*
X406030Y501059*
X406017Y501090*
X406007Y501135*
X406003Y501181*
Y502756*
X406007Y502802*
X406017Y502847*
X406030Y502878*
X406035Y502890*
X406060Y502930*
X406090Y502965*
X407271Y504146*
X407306Y504177*
X407346Y504201*
X407358Y504206*
X407389Y504219*
X407434Y504230*
X407480Y504233*
X409055*
X409101Y504230*
G37*
G36*
X823324Y501031D02*
X823369Y501020D01*
X823400Y501007*
X823412Y501002*
X823452Y500978*
X823487Y500948*
X824668Y499766*
X824698Y499731*
X824723Y499692*
X824728Y499679*
X824740Y499649*
X824751Y499603*
X824755Y499557*
Y497982*
X824751Y497936*
X824740Y497891*
X824728Y497860*
X824723Y497848*
X824698Y497808*
X824668Y497773*
X823487Y496592*
X823452Y496562*
X823412Y496537*
X823400Y496532*
X823369Y496520*
X823324Y496509*
X823278Y496505*
X821703*
X821656Y496509*
X821611Y496520*
X821581Y496532*
X821568Y496537*
X821529Y496562*
X821493Y496592*
X820312Y497773*
X820282Y497808*
X820258Y497848*
X820253Y497860*
X820240Y497891*
X820229Y497936*
X820225Y497982*
Y499557*
X820229Y499603*
X820240Y499649*
X820253Y499679*
X820258Y499692*
X820282Y499731*
X820312Y499766*
X821493Y500948*
X821529Y500978*
X821568Y501002*
X821581Y501007*
X821611Y501020*
X821656Y501031*
X821703Y501034*
X823278*
X823324Y501031*
G37*
G36*
X635824D02*
X635869Y501020D01*
X635899Y501007*
X635912Y501002*
X635952Y500978*
X635987Y500948*
X637168Y499766*
X637198Y499731*
X637223Y499692*
X637228Y499679*
X637240Y499649*
X637251Y499603*
X637255Y499557*
Y497982*
X637251Y497936*
X637240Y497891*
X637228Y497860*
X637223Y497848*
X637198Y497808*
X637168Y497773*
X635987Y496592*
X635952Y496562*
X635912Y496537*
X635899Y496532*
X635869Y496520*
X635824Y496509*
X635778Y496505*
X634203*
X634156Y496509*
X634111Y496520*
X634081Y496532*
X634068Y496537*
X634029Y496562*
X633993Y496592*
X632812Y497773*
X632782Y497808*
X632758Y497848*
X632753Y497860*
X632740Y497891*
X632729Y497936*
X632725Y497982*
Y499557*
X632729Y499603*
X632740Y499649*
X632753Y499679*
X632758Y499692*
X632782Y499731*
X632812Y499766*
X633993Y500948*
X634029Y500978*
X634068Y501002*
X634081Y501007*
X634111Y501020*
X634156Y501031*
X634203Y501034*
X635778*
X635824Y501031*
G37*
G36*
X567763Y499505D02*
X567808Y499494D01*
X567838Y499482*
X567851Y499476*
X567891Y499452*
X567926Y499422*
X569107Y498241*
X569137Y498206*
X569162Y498166*
X569167Y498153*
X569179Y498123*
X569190Y498078*
X569194Y498032*
Y496457*
X569190Y496410*
X569179Y496365*
X569167Y496335*
X569162Y496322*
X569137Y496283*
X569107Y496247*
X567926Y495066*
X567891Y495036*
X567851Y495012*
X567838Y495007*
X567808Y494994*
X567763Y494983*
X567717Y494979*
X566142*
X566095Y494983*
X566050Y494994*
X566020Y495007*
X566007Y495012*
X565968Y495036*
X565932Y495066*
X564751Y496247*
X564721Y496283*
X564697Y496322*
X564691Y496335*
X564679Y496365*
X564668Y496410*
X564664Y496457*
Y498032*
X564668Y498078*
X564679Y498123*
X564691Y498153*
X564697Y498166*
X564721Y498206*
X564751Y498241*
X565932Y499422*
X565968Y499452*
X566007Y499476*
X566020Y499482*
X566050Y499494*
X566095Y499505*
X566142Y499509*
X567717*
X567763Y499505*
G37*
G36*
X311070D02*
X311115Y499494D01*
X311145Y499482*
X311158Y499476*
X311198Y499452*
X311233Y499422*
X312414Y498241*
X312444Y498206*
X312469Y498166*
X312474Y498153*
X312486Y498123*
X312497Y498078*
X312501Y498032*
Y496457*
X312497Y496410*
X312486Y496365*
X312474Y496335*
X312469Y496322*
X312444Y496283*
X312414Y496247*
X311233Y495066*
X311198Y495036*
X311158Y495012*
X311145Y495007*
X311115Y494994*
X311070Y494983*
X311024Y494979*
X309449*
X309402Y494983*
X309357Y494994*
X309327Y495007*
X309314Y495012*
X309275Y495036*
X309239Y495066*
X308058Y496247*
X308028Y496283*
X308004Y496322*
X307999Y496335*
X307986Y496365*
X307975Y496410*
X307972Y496457*
Y498032*
X307975Y498078*
X307986Y498123*
X307999Y498153*
X308004Y498166*
X308028Y498206*
X308058Y498241*
X309239Y499422*
X309275Y499452*
X309314Y499476*
X309327Y499482*
X309357Y499494*
X309402Y499505*
X309449Y499509*
X311024*
X311070Y499505*
G37*
G36*
X123668D02*
X123714Y499494D01*
X123744Y499482*
X123757Y499476*
X123796Y499452*
X123831Y499422*
X125013Y498241*
X125043Y498206*
X125067Y498166*
X125072Y498153*
X125085Y498123*
X125096Y498078*
X125099Y498032*
Y496457*
X125096Y496410*
X125085Y496365*
X125072Y496335*
X125067Y496322*
X125043Y496283*
X125013Y496247*
X123831Y495066*
X123796Y495036*
X123757Y495012*
X123744Y495007*
X123714Y494994*
X123668Y494983*
X123622Y494979*
X122047*
X122001Y494983*
X121956Y494994*
X121925Y495007*
X121913Y495012*
X121873Y495036*
X121838Y495066*
X120657Y496247*
X120626Y496283*
X120602Y496322*
X120597Y496335*
X120584Y496365*
X120574Y496410*
X120570Y496457*
Y498032*
X120574Y498078*
X120584Y498123*
X120597Y498153*
X120602Y498166*
X120626Y498206*
X120657Y498241*
X121838Y499422*
X121873Y499452*
X121913Y499476*
X121925Y499482*
X121956Y499494*
X122001Y499505*
X122047Y499509*
X123622*
X123668Y499505*
G37*
G36*
X444928Y466828D02*
X444973Y466817D01*
X445004Y466805*
X445016Y466799*
X445056Y466775*
X445091Y466745*
X446272Y465564*
X446303Y465528*
X446327Y465489*
X446332Y465476*
X446345Y465446*
X446355Y465401*
X446359Y465354*
Y463780*
X446355Y463733*
X446345Y463688*
X446332Y463658*
X446327Y463645*
X446303Y463605*
X446272Y463570*
X445091Y462389*
X445056Y462359*
X445016Y462334*
X445004Y462329*
X444973Y462317*
X444928Y462306*
X444882Y462302*
X443307*
X443261Y462306*
X443216Y462317*
X443185Y462329*
X443173Y462334*
X443133Y462359*
X443098Y462389*
X441917Y463570*
X441886Y463605*
X441862Y463645*
X441857Y463658*
X441844Y463688*
X441833Y463733*
X441830Y463780*
Y465354*
X441833Y465401*
X441844Y465446*
X441857Y465476*
X441862Y465489*
X441886Y465528*
X441917Y465564*
X443098Y466745*
X443133Y466775*
X443173Y466799*
X443185Y466805*
X443216Y466817*
X443261Y466828*
X443307Y466832*
X444882*
X444928Y466828*
G37*
G36*
X884007Y437029D02*
X869459D01*
X872641Y442541*
X880824*
X884916Y449628*
X891280*
X884007Y437029*
G37*
G36*
X733511Y431395D02*
X733556Y431384D01*
X733586Y431371*
X733599Y431366*
X733639Y431342*
X733674Y431312*
X734855Y430131*
X734885Y430095*
X734910Y430056*
X734915Y430043*
X734927Y430013*
X734938Y429968*
X734942Y429921*
Y428346*
X734938Y428300*
X734927Y428255*
X734915Y428225*
X734910Y428212*
X734885Y428172*
X734855Y428137*
X733674Y426956*
X733639Y426926*
X733599Y426901*
X733586Y426896*
X733556Y426884*
X733511Y426873*
X733465Y426869*
X731890*
X731843Y426873*
X731798Y426884*
X731768Y426896*
X731755Y426901*
X731716Y426926*
X731680Y426956*
X730499Y428137*
X730469Y428172*
X730445Y428212*
X730440Y428225*
X730427Y428255*
X730416Y428300*
X730412Y428346*
Y429921*
X730416Y429968*
X730427Y430013*
X730440Y430043*
X730445Y430056*
X730469Y430095*
X730499Y430131*
X731680Y431312*
X731716Y431342*
X731755Y431366*
X731768Y431371*
X731798Y431384*
X731843Y431395*
X731890Y431398*
X733465*
X733511Y431395*
G37*
G36*
X205884Y435581D02*
Y421034D01*
X200372Y424216*
Y432399*
X193286Y436490*
Y442855*
X205884Y435581*
G37*
G36*
X895424Y417344D02*
X880876D01*
X884059Y422856*
X892242*
X896333Y429943*
X902697*
X895424Y417344*
G37*
G36*
X226357Y423377D02*
Y408829D01*
X220845Y412011*
Y420194*
X213758Y424286*
Y430650*
X226357Y423377*
G37*
G36*
X929676Y397659D02*
X915128D01*
X918311Y403171*
X926493*
X930585Y410258*
X936950*
X929676Y397659*
G37*
G36*
X906841D02*
X892294D01*
X895476Y403171*
X903659*
X907750Y410258*
X914115*
X906841Y397659*
G37*
G36*
X205884Y411959D02*
Y397412D01*
X200372Y400594*
Y408777*
X193286Y412868*
Y419233*
X205884Y411959*
G37*
G36*
X734692Y401474D02*
X734737Y401463D01*
X734768Y401450*
X734780Y401445*
X734820Y401421*
X734855Y401391*
X736036Y400209*
X736066Y400174*
X736091Y400135*
X736096Y400122*
X736108Y400092*
X736119Y400046*
X736123Y400000*
Y398425*
X736119Y398379*
X736108Y398334*
X736096Y398303*
X736091Y398291*
X736066Y398251*
X736036Y398216*
X734855Y397035*
X734820Y397005*
X734780Y396980*
X734768Y396975*
X734737Y396962*
X734692Y396952*
X734646Y396948*
X733071*
X733025Y396952*
X732979Y396962*
X732949Y396975*
X732936Y396980*
X732897Y397005*
X732861Y397035*
X731680Y398216*
X731650Y398251*
X731626Y398291*
X731621Y398303*
X731608Y398334*
X731597Y398379*
X731594Y398425*
Y400000*
X731597Y400046*
X731608Y400092*
X731621Y400122*
X731626Y400135*
X731650Y400174*
X731680Y400209*
X732861Y401391*
X732897Y401421*
X732936Y401445*
X732949Y401450*
X732979Y401463*
X733025Y401474*
X733071Y401477*
X734646*
X734692Y401474*
G37*
G36*
X723668Y394387D02*
X723714Y394376D01*
X723744Y394364*
X723757Y394358*
X723796Y394334*
X723832Y394304*
X725013Y393123*
X725043Y393088*
X725067Y393048*
X725072Y393035*
X725085Y393005*
X725096Y392960*
X725099Y392913*
Y391339*
X725096Y391292*
X725085Y391247*
X725072Y391217*
X725067Y391204*
X725043Y391164*
X725013Y391129*
X723832Y389948*
X723796Y389918*
X723757Y389894*
X723744Y389888*
X723714Y389876*
X723668Y389865*
X723622Y389861*
X722047*
X722001Y389865*
X721956Y389876*
X721925Y389888*
X721913Y389894*
X721873Y389918*
X721838Y389948*
X720657Y391129*
X720626Y391164*
X720602Y391204*
X720597Y391217*
X720584Y391247*
X720574Y391292*
X720570Y391339*
Y392913*
X720574Y392960*
X720584Y393005*
X720597Y393035*
X720602Y393048*
X720626Y393088*
X720657Y393123*
X721838Y394304*
X721873Y394334*
X721913Y394358*
X721925Y394364*
X721956Y394376*
X722001Y394387*
X722047Y394391*
X723622*
X723668Y394387*
G37*
G36*
X226357Y400148D02*
Y385601D01*
X220845Y388783*
Y396966*
X213758Y401057*
Y407422*
X226357Y400148*
G37*
G36*
X963928Y377974D02*
X949380D01*
X952563Y383486*
X960746*
X964837Y390573*
X971202*
X963928Y377974*
G37*
G36*
X941093D02*
X926546D01*
X929728Y383486*
X937911*
X942002Y390573*
X948367*
X941093Y377974*
G37*
G36*
X918258D02*
X903711D01*
X906893Y383486*
X915076*
X919168Y390573*
X925532*
X918258Y377974*
G37*
G36*
X683837Y383219D02*
Y368672D01*
X678325Y371854*
Y380037*
X671238Y384128*
Y390493*
X683837Y383219*
G37*
G36*
X663758Y371802D02*
Y357254D01*
X658246Y360437*
Y368619*
X651160Y372711*
Y379075*
X663758Y371802*
G37*
G36*
X944928Y312104D02*
X944973Y312093D01*
X945004Y312080*
X945016Y312075*
X945056Y312051*
X945091Y312020*
X946272Y310839*
X946303Y310804*
X946327Y310764*
X946332Y310752*
X946345Y310721*
X946356Y310676*
X946359Y310630*
Y309055*
X946356Y309009*
X946345Y308964*
X946332Y308933*
X946327Y308921*
X946303Y308881*
X946272Y308846*
X945091Y307665*
X945056Y307634*
X945016Y307610*
X945004Y307605*
X944973Y307592*
X944928Y307581*
X944882Y307578*
X943307*
X943261Y307581*
X943215Y307592*
X943185Y307605*
X943173Y307610*
X943133Y307634*
X943098Y307665*
X941916Y308846*
X941886Y308881*
X941862Y308921*
X941857Y308933*
X941844Y308964*
X941833Y309009*
X941830Y309055*
Y310630*
X941833Y310676*
X941844Y310721*
X941857Y310752*
X941862Y310764*
X941886Y310804*
X941916Y310839*
X943098Y312020*
X943133Y312051*
X943173Y312075*
X943185Y312080*
X943215Y312093*
X943261Y312104*
X943307Y312107*
X944882*
X944928Y312104*
G37*
G36*
X907133D02*
X907178Y312093D01*
X907209Y312080*
X907221Y312075*
X907261Y312051*
X907296Y312020*
X908477Y310839*
X908507Y310804*
X908532Y310764*
X908537Y310752*
X908549Y310721*
X908560Y310676*
X908564Y310630*
Y309055*
X908560Y309009*
X908549Y308964*
X908537Y308933*
X908532Y308921*
X908507Y308881*
X908477Y308846*
X907296Y307665*
X907261Y307634*
X907221Y307610*
X907209Y307605*
X907178Y307592*
X907133Y307581*
X907087Y307578*
X905512*
X905466Y307581*
X905420Y307592*
X905390Y307605*
X905377Y307610*
X905338Y307634*
X905302Y307665*
X904121Y308846*
X904091Y308881*
X904067Y308921*
X904062Y308933*
X904049Y308964*
X904038Y309009*
X904035Y309055*
Y310630*
X904038Y310676*
X904049Y310721*
X904062Y310752*
X904067Y310764*
X904091Y310804*
X904121Y310839*
X905302Y312020*
X905338Y312051*
X905377Y312075*
X905390Y312080*
X905420Y312093*
X905466Y312104*
X905512Y312107*
X907087*
X907133Y312104*
G37*
G36*
X717045Y314361D02*
Y299813D01*
X711534Y302996*
Y311178*
X704447Y315270*
Y321635*
X717045Y314361*
G37*
G36*
X697164Y302648D02*
Y288101D01*
X691652Y291283*
Y299466*
X684565Y303557*
Y309922*
X697164Y302648*
G37*
G36*
X953590Y286513D02*
X953635Y286502D01*
X953665Y286490*
X953678Y286484*
X953717Y286460*
X953753Y286430*
X954934Y285249*
X954964Y285213*
X954988Y285174*
X954994Y285161*
X955006Y285131*
X955017Y285086*
X955021Y285039*
Y283465*
X955017Y283418*
X955006Y283373*
X954994Y283343*
X954988Y283330*
X954964Y283291*
X954934Y283255*
X953753Y282074*
X953717Y282044*
X953678Y282019*
X953665Y282014*
X953635Y282002*
X953590Y281991*
X953543Y281987*
X951968*
X951922Y281991*
X951877Y282002*
X951847Y282014*
X951834Y282019*
X951794Y282044*
X951759Y282074*
X950578Y283255*
X950548Y283291*
X950523Y283330*
X950518Y283343*
X950506Y283373*
X950495Y283418*
X950491Y283465*
Y285039*
X950495Y285086*
X950506Y285131*
X950518Y285161*
X950523Y285174*
X950548Y285213*
X950578Y285249*
X951759Y286430*
X951794Y286460*
X951834Y286484*
X951847Y286490*
X951877Y286502*
X951922Y286513*
X951968Y286517*
X953543*
X953590Y286513*
G37*
G36*
X1009889Y281395D02*
X1009934Y281384D01*
X1009964Y281371*
X1009977Y281366*
X1010017Y281342*
X1010052Y281312*
X1011233Y280131*
X1011263Y280095*
X1011287Y280056*
X1011293Y280043*
X1011305Y280013*
X1011316Y279968*
X1011320Y279921*
Y278346*
X1011316Y278300*
X1011305Y278255*
X1011293Y278224*
X1011287Y278212*
X1011263Y278172*
X1011233Y278137*
X1010052Y276956*
X1010017Y276926*
X1009977Y276901*
X1009964Y276896*
X1009934Y276884*
X1009889Y276873*
X1009842Y276869*
X1008268*
X1008221Y276873*
X1008176Y276884*
X1008146Y276896*
X1008133Y276901*
X1008094Y276926*
X1008058Y276956*
X1006877Y278137*
X1006847Y278172*
X1006823Y278212*
X1006818Y278224*
X1006805Y278255*
X1006794Y278300*
X1006790Y278346*
Y279921*
X1006794Y279968*
X1006805Y280013*
X1006818Y280043*
X1006823Y280056*
X1006847Y280095*
X1006877Y280131*
X1008058Y281312*
X1008094Y281342*
X1008133Y281366*
X1008146Y281371*
X1008176Y281384*
X1008221Y281395*
X1008268Y281399*
X1009842*
X1009889Y281395*
G37*
G36*
X717242Y290739D02*
Y276191D01*
X711730Y279374*
Y287557*
X704644Y291648*
Y298012*
X717242Y290739*
G37*
G36*
X895716Y277064D02*
X895761Y277053D01*
X895791Y277041*
X895804Y277036*
X895843Y277011*
X895879Y276981*
X897060Y275800*
X897090Y275765*
X897114Y275725*
X897120Y275712*
X897132Y275682*
X897143Y275637*
X897147Y275590*
Y274016*
X897143Y273969*
X897132Y273924*
X897120Y273894*
X897114Y273881*
X897090Y273842*
X897060Y273806*
X895879Y272625*
X895843Y272595*
X895804Y272571*
X895791Y272566*
X895761Y272553*
X895716Y272542*
X895669Y272538*
X894094*
X894048Y272542*
X894003Y272553*
X893973Y272566*
X893960Y272571*
X893920Y272595*
X893885Y272625*
X892704Y273806*
X892674Y273842*
X892649Y273881*
X892644Y273894*
X892632Y273924*
X892621Y273969*
X892617Y274016*
Y275590*
X892621Y275637*
X892632Y275682*
X892644Y275712*
X892649Y275725*
X892674Y275765*
X892704Y275800*
X893885Y276981*
X893920Y277011*
X893960Y277036*
X893973Y277041*
X894003Y277053*
X894048Y277064*
X894094Y277068*
X895669*
X895716Y277064*
G37*
G36*
X569801Y285522D02*
Y270975D01*
X564290Y274157*
Y282340*
X557203Y286431*
Y292796*
X569801Y285522*
G37*
G36*
X1005952Y275096D02*
X1005997Y275085D01*
X1006027Y275072*
X1006040Y275067*
X1006080Y275043*
X1006115Y275013*
X1007296Y273832*
X1007326Y273796*
X1007351Y273757*
X1007356Y273744*
X1007368Y273714*
X1007379Y273668*
X1007383Y273622*
Y272047*
X1007379Y272001*
X1007368Y271956*
X1007356Y271925*
X1007351Y271913*
X1007326Y271873*
X1007296Y271838*
X1006115Y270657*
X1006080Y270626*
X1006040Y270602*
X1006027Y270597*
X1005997Y270584*
X1005952Y270574*
X1005906Y270570*
X1004331*
X1004284Y270574*
X1004239Y270584*
X1004209Y270597*
X1004196Y270602*
X1004157Y270626*
X1004121Y270657*
X1002940Y271838*
X1002910Y271873*
X1002886Y271913*
X1002880Y271925*
X1002868Y271956*
X1002857Y272001*
X1002853Y272047*
Y273622*
X1002857Y273668*
X1002868Y273714*
X1002880Y273744*
X1002886Y273757*
X1002910Y273796*
X1002940Y273832*
X1004121Y275013*
X1004157Y275043*
X1004196Y275067*
X1004209Y275072*
X1004239Y275085*
X1004284Y275096*
X1004331Y275099*
X1005906*
X1005952Y275096*
G37*
G36*
X589486Y273908D02*
Y259361D01*
X583975Y262543*
Y270726*
X576888Y274817*
Y281182*
X589486Y273908*
G37*
G36*
X950046Y252655D02*
X950091Y252644D01*
X950122Y252631*
X950134Y252626*
X950174Y252602*
X950209Y252572*
X951390Y251391*
X951421Y251355*
X951445Y251316*
X951450Y251303*
X951463Y251273*
X951474Y251227*
X951477Y251181*
Y249606*
X951474Y249560*
X951463Y249515*
X951450Y249484*
X951445Y249472*
X951421Y249432*
X951390Y249397*
X950209Y248216*
X950174Y248186*
X950134Y248161*
X950122Y248156*
X950091Y248144*
X950046Y248133*
X950000Y248129*
X948425*
X948379Y248133*
X948334Y248144*
X948303Y248156*
X948291Y248161*
X948251Y248186*
X948216Y248216*
X947035Y249397*
X947005Y249432*
X946980Y249472*
X946975Y249484*
X946962Y249515*
X946951Y249560*
X946948Y249606*
Y251181*
X946951Y251227*
X946962Y251273*
X946975Y251303*
X946980Y251316*
X947005Y251355*
X947035Y251391*
X948216Y252572*
X948251Y252602*
X948291Y252626*
X948303Y252631*
X948334Y252644*
X948379Y252655*
X948425Y252658*
X950000*
X950046Y252655*
G37*
G36*
X763472Y249151D02*
X763517Y249140D01*
X763547Y249127*
X763560Y249122*
X763599Y249098*
X763635Y249068*
X764816Y247887*
X764846Y247851*
X764870Y247812*
X764875Y247799*
X764888Y247769*
X764899Y247724*
X764902Y247677*
Y246102*
X764899Y246056*
X764888Y246011*
X764875Y245981*
X764870Y245968*
X764846Y245928*
X764816Y245893*
X763635Y244712*
X763599Y244682*
X763560Y244657*
X763547Y244652*
X763517Y244639*
X763472Y244629*
X763425Y244625*
X761850*
X761804Y244629*
X761759Y244639*
X761728Y244652*
X761716Y244657*
X761676Y244682*
X761641Y244712*
X760460Y245893*
X760430Y245928*
X760405Y245968*
X760400Y245981*
X760388Y246011*
X760377Y246056*
X760373Y246102*
Y247677*
X760377Y247724*
X760388Y247769*
X760400Y247799*
X760405Y247812*
X760430Y247851*
X760460Y247887*
X761641Y249068*
X761676Y249098*
X761716Y249122*
X761728Y249127*
X761759Y249140*
X761804Y249151*
X761850Y249154*
X763425*
X763472Y249151*
G37*
G36*
X576464D02*
X576509Y249140D01*
X576539Y249127*
X576552Y249122*
X576591Y249098*
X576627Y249068*
X577808Y247887*
X577838Y247851*
X577862Y247812*
X577868Y247799*
X577880Y247769*
X577891Y247724*
X577895Y247677*
Y246102*
X577891Y246056*
X577880Y246011*
X577868Y245981*
X577862Y245968*
X577838Y245928*
X577808Y245893*
X576627Y244712*
X576591Y244682*
X576552Y244657*
X576539Y244652*
X576509Y244639*
X576464Y244629*
X576417Y244625*
X574843*
X574796Y244629*
X574751Y244639*
X574721Y244652*
X574708Y244657*
X574668Y244682*
X574633Y244712*
X573452Y245893*
X573422Y245928*
X573397Y245968*
X573392Y245981*
X573380Y246011*
X573369Y246056*
X573365Y246102*
Y247677*
X573369Y247724*
X573380Y247769*
X573392Y247799*
X573397Y247812*
X573422Y247851*
X573452Y247887*
X574633Y249068*
X574668Y249098*
X574708Y249122*
X574721Y249127*
X574751Y249140*
X574796Y249151*
X574843Y249154*
X576417*
X576464Y249151*
G37*
G36*
X763472Y243639D02*
X763517Y243628D01*
X763547Y243616*
X763560Y243610*
X763599Y243586*
X763635Y243556*
X764816Y242375*
X764846Y242339*
X764870Y242300*
X764875Y242287*
X764888Y242257*
X764899Y242212*
X764902Y242165*
Y240591*
X764899Y240544*
X764888Y240499*
X764875Y240469*
X764870Y240456*
X764846Y240416*
X764816Y240381*
X763635Y239200*
X763599Y239170*
X763560Y239145*
X763547Y239140*
X763517Y239128*
X763472Y239117*
X763425Y239113*
X761850*
X761804Y239117*
X761759Y239128*
X761728Y239140*
X761716Y239145*
X761676Y239170*
X761641Y239200*
X760460Y240381*
X760430Y240416*
X760405Y240456*
X760400Y240469*
X760388Y240499*
X760377Y240544*
X760373Y240591*
Y242165*
X760377Y242212*
X760388Y242257*
X760400Y242287*
X760405Y242300*
X760430Y242339*
X760460Y242375*
X761641Y243556*
X761676Y243586*
X761716Y243610*
X761728Y243616*
X761759Y243628*
X761804Y243639*
X761850Y243643*
X763425*
X763472Y243639*
G37*
G36*
X576464D02*
X576509Y243628D01*
X576539Y243616*
X576552Y243610*
X576591Y243586*
X576627Y243556*
X577808Y242375*
X577838Y242339*
X577862Y242300*
X577868Y242287*
X577880Y242257*
X577891Y242212*
X577895Y242165*
Y240591*
X577891Y240544*
X577880Y240499*
X577868Y240469*
X577862Y240456*
X577838Y240416*
X577808Y240381*
X576627Y239200*
X576591Y239170*
X576552Y239145*
X576539Y239140*
X576509Y239128*
X576464Y239117*
X576417Y239113*
X574843*
X574796Y239117*
X574751Y239128*
X574721Y239140*
X574708Y239145*
X574668Y239170*
X574633Y239200*
X573452Y240381*
X573422Y240416*
X573397Y240456*
X573392Y240469*
X573380Y240499*
X573369Y240544*
X573365Y240591*
Y242165*
X573369Y242212*
X573380Y242257*
X573392Y242287*
X573397Y242300*
X573422Y242339*
X573452Y242375*
X574633Y243556*
X574668Y243586*
X574708Y243610*
X574721Y243616*
X574751Y243628*
X574796Y243639*
X574843Y243643*
X576417*
X576464Y243639*
G37*
G36*
X1005558Y239663D02*
X1005603Y239652D01*
X1005634Y239639*
X1005646Y239634*
X1005686Y239610*
X1005721Y239580*
X1006902Y238398*
X1006933Y238363*
X1006957Y238323*
X1006962Y238311*
X1006975Y238281*
X1006985Y238235*
X1006989Y238189*
Y236614*
X1006985Y236568*
X1006975Y236523*
X1006962Y236492*
X1006957Y236480*
X1006933Y236440*
X1006902Y236405*
X1005721Y235224*
X1005686Y235193*
X1005646Y235169*
X1005634Y235164*
X1005603Y235151*
X1005558Y235140*
X1005512Y235137*
X1003937*
X1003891Y235140*
X1003846Y235151*
X1003815Y235164*
X1003802Y235169*
X1003763Y235193*
X1003728Y235224*
X1002547Y236405*
X1002516Y236440*
X1002492Y236480*
X1002487Y236492*
X1002474Y236523*
X1002463Y236568*
X1002460Y236614*
Y238189*
X1002463Y238235*
X1002474Y238281*
X1002487Y238311*
X1002492Y238323*
X1002516Y238363*
X1002547Y238398*
X1003728Y239580*
X1003763Y239610*
X1003802Y239634*
X1003815Y239639*
X1003846Y239652*
X1003891Y239663*
X1003937Y239666*
X1005512*
X1005558Y239663*
G37*
G36*
X945322Y236119D02*
X945367Y236108D01*
X945397Y236096*
X945410Y236091*
X945450Y236066*
X945485Y236036*
X946666Y234855*
X946696Y234820*
X946721Y234780*
X946726Y234768*
X946738Y234737*
X946749Y234692*
X946753Y234646*
Y233071*
X946749Y233025*
X946738Y232979*
X946726Y232949*
X946721Y232936*
X946696Y232897*
X946666Y232861*
X945485Y231680*
X945450Y231650*
X945410Y231626*
X945397Y231621*
X945367Y231608*
X945322Y231597*
X945276Y231594*
X943701*
X943654Y231597*
X943609Y231608*
X943579Y231621*
X943566Y231626*
X943527Y231650*
X943491Y231680*
X942310Y232861*
X942280Y232897*
X942256Y232936*
X942251Y232949*
X942238Y232979*
X942227Y233025*
X942223Y233071*
Y234646*
X942227Y234692*
X942238Y234737*
X942251Y234768*
X942256Y234780*
X942280Y234820*
X942310Y234855*
X943491Y236036*
X943527Y236066*
X943566Y236091*
X943579Y236096*
X943609Y236108*
X943654Y236119*
X943701Y236123*
X945276*
X945322Y236119*
G37*
G36*
X939023D02*
X939068Y236108D01*
X939098Y236096*
X939111Y236091*
X939151Y236066*
X939186Y236036*
X940367Y234855*
X940397Y234820*
X940421Y234780*
X940427Y234768*
X940439Y234737*
X940450Y234692*
X940454Y234646*
Y233071*
X940450Y233025*
X940439Y232979*
X940427Y232949*
X940421Y232936*
X940397Y232897*
X940367Y232861*
X939186Y231680*
X939151Y231650*
X939111Y231626*
X939098Y231621*
X939068Y231608*
X939023Y231597*
X938976Y231594*
X937402*
X937355Y231597*
X937310Y231608*
X937280Y231621*
X937267Y231626*
X937228Y231650*
X937192Y231680*
X936011Y232861*
X935981Y232897*
X935957Y232936*
X935951Y232949*
X935939Y232979*
X935928Y233025*
X935924Y233071*
Y234646*
X935928Y234692*
X935939Y234737*
X935951Y234768*
X935957Y234780*
X935981Y234820*
X936011Y234855*
X937192Y236036*
X937228Y236066*
X937267Y236091*
X937280Y236096*
X937310Y236108*
X937355Y236119*
X937402Y236123*
X938976*
X939023Y236119*
G37*
G36*
X1001865Y232191D02*
X1001911Y232180D01*
X1001941Y232167*
X1001954Y232162*
X1001993Y232138*
X1002029Y232108*
X1003210Y230926*
X1003240Y230891*
X1003264Y230852*
X1003269Y230839*
X1003282Y230809*
X1003293Y230763*
X1003296Y230717*
Y229142*
X1003293Y229096*
X1003282Y229051*
X1003269Y229020*
X1003264Y229008*
X1003240Y228968*
X1003210Y228933*
X1002029Y227752*
X1001993Y227722*
X1001954Y227697*
X1001941Y227692*
X1001911Y227679*
X1001865Y227669*
X1001819Y227665*
X1000244*
X1000198Y227669*
X1000153Y227679*
X1000123Y227692*
X1000110Y227697*
X1000070Y227722*
X1000035Y227752*
X998854Y228933*
X998824Y228968*
X998799Y229008*
X998794Y229020*
X998781Y229051*
X998771Y229096*
X998767Y229142*
Y230717*
X998771Y230763*
X998781Y230809*
X998794Y230839*
X998799Y230852*
X998824Y230891*
X998854Y230926*
X1000035Y232108*
X1000070Y232138*
X1000110Y232162*
X1000123Y232167*
X1000153Y232180*
X1000198Y232191*
X1000244Y232194*
X1001819*
X1001865Y232191*
G37*
G36*
X915007Y224702D02*
X915052Y224691D01*
X915082Y224679*
X915095Y224673*
X915135Y224649*
X915170Y224619*
X916351Y223438*
X916381Y223402*
X916406Y223363*
X916411Y223350*
X916423Y223320*
X916434Y223275*
X916438Y223228*
Y221654*
X916434Y221607*
X916423Y221562*
X916411Y221532*
X916406Y221519*
X916381Y221479*
X916351Y221444*
X915170Y220263*
X915135Y220233*
X915095Y220209*
X915082Y220203*
X915052Y220191*
X915007Y220180*
X914961Y220176*
X913386*
X913340Y220180*
X913294Y220191*
X913264Y220203*
X913251Y220209*
X913212Y220233*
X913176Y220263*
X911995Y221444*
X911965Y221479*
X911941Y221519*
X911936Y221532*
X911923Y221562*
X911912Y221607*
X911909Y221654*
Y223228*
X911912Y223275*
X911923Y223320*
X911936Y223350*
X911941Y223363*
X911965Y223402*
X911995Y223438*
X913176Y224619*
X913212Y224649*
X913251Y224673*
X913264Y224679*
X913294Y224691*
X913340Y224702*
X913386Y224706*
X914961*
X915007Y224702*
G37*
G36*
X867301Y234400D02*
Y219853D01*
X861790Y223035*
Y231218*
X854703Y235309*
Y241674*
X867301Y234400*
G37*
G36*
X512971Y230069D02*
Y215522D01*
X507459Y218704*
Y226887*
X500372Y230979*
Y237343*
X512971Y230069*
G37*
G36*
X961070Y210135D02*
X961115Y210124D01*
X961145Y210112*
X961158Y210106*
X961198Y210082*
X961233Y210052*
X962414Y208871*
X962444Y208836*
X962469Y208796*
X962474Y208783*
X962486Y208753*
X962497Y208708*
X962501Y208661*
Y207087*
X962497Y207040*
X962486Y206995*
X962474Y206965*
X962469Y206952*
X962444Y206912*
X962414Y206877*
X961233Y205696*
X961198Y205666*
X961158Y205642*
X961145Y205636*
X961115Y205624*
X961070Y205613*
X961024Y205609*
X959449*
X959402Y205613*
X959357Y205624*
X959327Y205636*
X959314Y205642*
X959275Y205666*
X959239Y205696*
X958058Y206877*
X958028Y206912*
X958004Y206952*
X957999Y206965*
X957986Y206995*
X957975Y207040*
X957971Y207087*
Y208661*
X957975Y208708*
X957986Y208753*
X957999Y208783*
X958004Y208796*
X958028Y208836*
X958058Y208871*
X959239Y210052*
X959275Y210082*
X959314Y210106*
X959327Y210112*
X959357Y210124*
X959402Y210135*
X959449Y210139*
X961024*
X961070Y210135*
G37*
G36*
X959101Y201080D02*
X959147Y201069D01*
X959177Y201057*
X959190Y201051*
X959229Y201027*
X959265Y200997*
X960446Y199816*
X960476Y199780*
X960500Y199741*
X960505Y199728*
X960518Y199698*
X960529Y199653*
X960532Y199606*
Y198031*
X960529Y197985*
X960518Y197940*
X960505Y197910*
X960500Y197897*
X960476Y197857*
X960446Y197822*
X959265Y196641*
X959229Y196611*
X959190Y196587*
X959177Y196581*
X959147Y196569*
X959101Y196558*
X959055Y196554*
X957480*
X957434Y196558*
X957389Y196569*
X957358Y196581*
X957346Y196587*
X957306Y196611*
X957271Y196641*
X956090Y197822*
X956060Y197857*
X956035Y197897*
X956030Y197910*
X956017Y197940*
X956007Y197985*
X956003Y198031*
Y199606*
X956007Y199653*
X956017Y199698*
X956030Y199728*
X956035Y199741*
X956060Y199780*
X956090Y199816*
X957271Y200997*
X957306Y201027*
X957346Y201051*
X957358Y201057*
X957389Y201069*
X957434Y201080*
X957480Y201084*
X959055*
X959101Y201080*
G37*
G36*
X253522Y165896D02*
Y151349D01*
X248010Y154531*
Y162714*
X240923Y166805*
Y173170*
X253522Y165896*
G37*
G36*
X682104Y162392D02*
Y147845D01*
X676593Y151027*
Y159210*
X669506Y163302*
Y169666*
X682104Y162392*
G37*
G36*
X923853Y152261D02*
X923899Y152250D01*
X923929Y152238*
X923942Y152232*
X923981Y152208*
X924016Y152178*
X925198Y150997*
X925228Y150961*
X925252Y150922*
X925257Y150909*
X925270Y150879*
X925281Y150834*
X925284Y150787*
Y149213*
X925281Y149166*
X925270Y149121*
X925257Y149091*
X925252Y149078*
X925228Y149039*
X925198Y149003*
X924016Y147822*
X923981Y147792*
X923942Y147768*
X923929Y147762*
X923899Y147750*
X923853Y147739*
X923807Y147735*
X922232*
X922186Y147739*
X922141Y147750*
X922110Y147762*
X922098Y147768*
X922058Y147792*
X922023Y147822*
X920842Y149003*
X920812Y149039*
X920787Y149078*
X920782Y149091*
X920770Y149121*
X920759Y149166*
X920755Y149213*
Y150787*
X920759Y150834*
X920770Y150879*
X920782Y150909*
X920787Y150922*
X920812Y150961*
X920842Y150997*
X922023Y152178*
X922058Y152208*
X922098Y152232*
X922110Y152238*
X922141Y152250*
X922186Y152261*
X922232Y152265*
X923807*
X923853Y152261*
G37*
G36*
X394073Y154479D02*
Y139931D01*
X388561Y143114*
Y151297*
X381475Y155388*
Y161753*
X394073Y154479*
G37*
G36*
X353916D02*
Y139931D01*
X348404Y143114*
Y151297*
X341317Y155388*
Y161753*
X353916Y154479*
G37*
G36*
X273601D02*
Y139931D01*
X268089Y143114*
Y151297*
X261002Y155388*
Y161753*
X273601Y154479*
G37*
G36*
X233443D02*
Y139931D01*
X227931Y143114*
Y151297*
X220845Y155388*
Y161753*
X233443Y154479*
G37*
G36*
X746936Y137733D02*
X746981Y137723D01*
X747012Y137710*
X747024Y137705*
X747064Y137681*
X747099Y137650*
X748280Y136469*
X748311Y136434*
X748335Y136394*
X748340Y136382*
X748353Y136351*
X748363Y136306*
X748367Y136260*
Y134685*
X748363Y134639*
X748353Y134593*
X748340Y134563*
X748335Y134550*
X748311Y134511*
X748280Y134476*
X747099Y133294*
X747064Y133264*
X747024Y133240*
X747012Y133235*
X746981Y133222*
X746936Y133211*
X746890Y133208*
X745315*
X745269Y133211*
X745223Y133222*
X745193Y133235*
X745181Y133240*
X745141Y133264*
X745106Y133294*
X743924Y134476*
X743894Y134511*
X743870Y134550*
X743865Y134563*
X743852Y134593*
X743841Y134639*
X743838Y134685*
Y136260*
X743841Y136306*
X743852Y136351*
X743865Y136382*
X743870Y136394*
X743894Y136434*
X743924Y136469*
X745106Y137650*
X745141Y137681*
X745181Y137705*
X745193Y137710*
X745223Y137723*
X745269Y137733*
X745315Y137737*
X746890*
X746936Y137733*
G37*
G36*
X656779Y136946D02*
X656824Y136935D01*
X656854Y136923*
X656867Y136917*
X656906Y136893*
X656942Y136863*
X658123Y135682*
X658153Y135646*
X658177Y135607*
X658182Y135594*
X658195Y135564*
X658206Y135519*
X658210Y135472*
Y133898*
X658206Y133851*
X658195Y133806*
X658182Y133776*
X658177Y133763*
X658153Y133723*
X658123Y133688*
X656942Y132507*
X656906Y132477*
X656867Y132453*
X656854Y132447*
X656824Y132435*
X656779Y132424*
X656732Y132420*
X655158*
X655111Y132424*
X655066Y132435*
X655036Y132447*
X655023Y132453*
X654983Y132477*
X654948Y132507*
X653767Y133688*
X653737Y133723*
X653712Y133763*
X653707Y133776*
X653695Y133806*
X653684Y133851*
X653680Y133898*
Y135472*
X653684Y135519*
X653695Y135564*
X653707Y135594*
X653712Y135607*
X653737Y135646*
X653767Y135682*
X654948Y136863*
X654983Y136893*
X655023Y136917*
X655036Y136923*
X655066Y136935*
X655111Y136946*
X655158Y136950*
X656732*
X656779Y136946*
G37*
G36*
X414152Y143062D02*
Y128514D01*
X408640Y131696*
Y139879*
X401553Y143971*
Y150335*
X414152Y143062*
G37*
G36*
X373994D02*
Y128514D01*
X368482Y131696*
Y139879*
X361396Y143971*
Y150335*
X373994Y143062*
G37*
G36*
X253522D02*
Y128514D01*
X248010Y131696*
Y139879*
X240923Y143971*
Y150335*
X253522Y143062*
G37*
G36*
X474388Y131644D02*
Y117097D01*
X468876Y120279*
Y128462*
X461790Y132554*
Y138918*
X474388Y131644*
G37*
G36*
X434231D02*
Y117097D01*
X428719Y120279*
Y128462*
X421632Y132554*
Y138918*
X434231Y131644*
G37*
G36*
X394073D02*
Y117097D01*
X388561Y120279*
Y128462*
X381475Y132554*
Y138918*
X394073Y131644*
G37*
G36*
X353916D02*
Y117097D01*
X348404Y120279*
Y128462*
X341317Y132554*
Y138918*
X353916Y131644*
G37*
G36*
X313758D02*
Y117097D01*
X308246Y120279*
Y128462*
X301160Y132554*
Y138918*
X313758Y131644*
G37*
G36*
X273601D02*
Y117097D01*
X268089Y120279*
Y128462*
X261002Y132554*
Y138918*
X273601Y131644*
G37*
G36*
X233443D02*
Y117097D01*
X227931Y120279*
Y128462*
X220845Y132554*
Y138918*
X233443Y131644*
G37*
G36*
X193286D02*
Y117097D01*
X187774Y120279*
Y128462*
X180687Y132554*
Y138918*
X193286Y131644*
G37*
G36*
X153128D02*
Y117097D01*
X147616Y120279*
Y128462*
X140530Y132554*
Y138918*
X153128Y131644*
G37*
G36*
X454309Y120227D02*
Y105680D01*
X448798Y108862*
Y117045*
X441711Y121136*
Y127501*
X454309Y120227*
G37*
G36*
X414152D02*
Y105680D01*
X408640Y108862*
Y117045*
X401553Y121136*
Y127501*
X414152Y120227*
G37*
G36*
X373994D02*
Y105680D01*
X368482Y108862*
Y117045*
X361396Y121136*
Y127501*
X373994Y120227*
G37*
G36*
X333837D02*
Y105680D01*
X328325Y108862*
Y117045*
X321238Y121136*
Y127501*
X333837Y120227*
G37*
G36*
X293679D02*
Y105680D01*
X288168Y108862*
Y117045*
X281081Y121136*
Y127501*
X293679Y120227*
G37*
G36*
X253522D02*
Y105680D01*
X248010Y108862*
Y117045*
X240923Y121136*
Y127501*
X253522Y120227*
G37*
G36*
X213364D02*
Y105680D01*
X207853Y108862*
Y117045*
X200766Y121136*
Y127501*
X213364Y120227*
G37*
G36*
X173207D02*
Y105680D01*
X167695Y108862*
Y117045*
X160608Y121136*
Y127501*
X173207Y120227*
G37*
%LNpanel-2*%
%LPC*%
G36*
X289170Y554231D02*
X143900D01*
X143742Y554228*
X143423Y554203*
X143111Y554154*
X142803Y554080*
X142501Y553982*
X142209Y553861*
X141927Y553717*
X141656Y553551*
X141400Y553365*
X141159Y553159*
X140935Y552935*
X140729Y552694*
X140543Y552438*
X140378Y552168*
X140234Y551886*
X140113Y551593*
X140015Y551292*
X139941Y550984*
X139891Y550671*
X139866Y550352*
X139863Y550194*
Y514764*
Y481302*
X139866Y481144*
X139891Y480825*
X139941Y480512*
X140015Y480204*
X140113Y479903*
X140234Y479610*
X140378Y479328*
X140543Y479058*
X140729Y478802*
X140935Y478561*
X141159Y478337*
X141400Y478131*
X141656Y477945*
X141927Y477779*
X142209Y477635*
X142501Y477514*
X142803Y477416*
X143111Y477342*
X143423Y477293*
X143742Y477268*
X143900Y477265*
X289171*
X289329Y477268*
X289648Y477293*
X289960Y477342*
X290268Y477416*
X290569Y477514*
X290862Y477635*
X291144Y477779*
X291415Y477945*
X291671Y478131*
X291912Y478337*
X292136Y478561*
X292341Y478802*
X292528Y479058*
X292693Y479328*
X292837Y479610*
X292958Y479903*
X293056Y480204*
X293130Y480512*
X293179Y480825*
X293205Y481144*
X293208Y481302*
Y511811*
Y550194*
X293205Y550352*
X293179Y550671*
X293130Y550984*
X293056Y551292*
X292958Y551593*
X292837Y551886*
X292693Y552168*
X292528Y552438*
X292341Y552695*
X292136Y552935*
X291912Y553159*
X291671Y553365*
X291415Y553551*
X291144Y553717*
X290862Y553861*
X290569Y553982*
X290268Y554080*
X289960Y554154*
X289648Y554203*
X289329Y554228*
X289170Y554231*
G37*
%LNpanel-3*%
%LPD*%
G36*
X257133Y550292D02*
X257178Y550282D01*
X257208Y550269*
X257221Y550264*
X257261Y550240*
X257296Y550209*
X258477Y549028*
X258507Y548993*
X258532Y548953*
X258537Y548941*
X258549Y548910*
X258560Y548865*
X258564Y548819*
Y547244*
X258560Y547198*
X258549Y547153*
X258537Y547122*
X258532Y547110*
X258507Y547070*
X258477Y547035*
X257296Y545854*
X257261Y545823*
X257221Y545799*
X257208Y545794*
X257178Y545781*
X257133Y545770*
X257087Y545767*
X255512*
X255466Y545770*
X255420Y545781*
X255390Y545794*
X255377Y545799*
X255338Y545823*
X255302Y545854*
X254121Y547035*
X254091Y547070*
X254067Y547110*
X254062Y547122*
X254049Y547153*
X254038Y547198*
X254034Y547244*
Y548819*
X254038Y548865*
X254049Y548910*
X254062Y548941*
X254067Y548953*
X254091Y548993*
X254121Y549028*
X255302Y550209*
X255338Y550240*
X255377Y550264*
X255390Y550269*
X255420Y550282*
X255466Y550293*
X255512Y550296*
X257087*
X257133Y550292*
G37*
G36*
X196897Y529820D02*
X196942Y529809D01*
X196972Y529797*
X196985Y529791*
X197025Y529767*
X197060Y529737*
X198241Y528556*
X198271Y528521*
X198295Y528481*
X198301Y528468*
X198313Y528438*
X198324Y528393*
X198328Y528346*
Y526772*
X198324Y526725*
X198313Y526680*
X198301Y526650*
X198295Y526637*
X198271Y526597*
X198241Y526562*
X197060Y525381*
X197025Y525351*
X196985Y525327*
X196972Y525321*
X196942Y525309*
X196897Y525298*
X196850Y525294*
X195276*
X195229Y525298*
X195184Y525309*
X195154Y525321*
X195141Y525327*
X195101Y525351*
X195066Y525381*
X193885Y526562*
X193855Y526597*
X193831Y526637*
X193825Y526650*
X193813Y526680*
X193802Y526725*
X193798Y526772*
Y528346*
X193802Y528393*
X193813Y528438*
X193825Y528468*
X193831Y528481*
X193855Y528521*
X193885Y528556*
X195066Y529737*
X195101Y529767*
X195141Y529791*
X195154Y529797*
X195184Y529809*
X195229Y529820*
X195276Y529824*
X196850*
X196897Y529820*
G37*
G36*
X161070D02*
X161115Y529809D01*
X161145Y529797*
X161158Y529791*
X161198Y529767*
X161233Y529737*
X162414Y528556*
X162444Y528521*
X162469Y528481*
X162474Y528468*
X162486Y528438*
X162497Y528393*
X162501Y528346*
Y526772*
X162497Y526725*
X162486Y526680*
X162474Y526650*
X162469Y526637*
X162444Y526597*
X162414Y526562*
X161233Y525381*
X161198Y525351*
X161158Y525327*
X161145Y525321*
X161115Y525309*
X161070Y525298*
X161024Y525294*
X159449*
X159403Y525298*
X159357Y525309*
X159327Y525321*
X159314Y525327*
X159275Y525351*
X159239Y525381*
X158058Y526562*
X158028Y526597*
X158004Y526637*
X157999Y526650*
X157986Y526680*
X157975Y526725*
X157972Y526772*
Y528346*
X157975Y528393*
X157986Y528438*
X157999Y528468*
X158004Y528481*
X158028Y528521*
X158058Y528556*
X159239Y529737*
X159275Y529767*
X159314Y529791*
X159327Y529797*
X159357Y529809*
X159403Y529820*
X159449Y529824*
X161024*
X161070Y529820*
G37*
G36*
X257133Y521946D02*
X257178Y521935D01*
X257208Y521923*
X257221Y521917*
X257261Y521893*
X257296Y521863*
X258477Y520682*
X258507Y520646*
X258532Y520607*
X258537Y520594*
X258549Y520564*
X258560Y520519*
X258564Y520472*
Y518898*
X258560Y518851*
X258549Y518806*
X258537Y518776*
X258532Y518763*
X258507Y518723*
X258477Y518688*
X257296Y517507*
X257261Y517477*
X257221Y517453*
X257208Y517447*
X257178Y517435*
X257133Y517424*
X257087Y517420*
X255512*
X255466Y517424*
X255420Y517435*
X255390Y517447*
X255377Y517453*
X255338Y517477*
X255302Y517507*
X254121Y518688*
X254091Y518723*
X254067Y518763*
X254062Y518776*
X254049Y518806*
X254038Y518851*
X254034Y518898*
Y520472*
X254038Y520519*
X254049Y520564*
X254062Y520594*
X254067Y520607*
X254091Y520646*
X254121Y520682*
X255302Y521863*
X255338Y521893*
X255377Y521917*
X255390Y521923*
X255420Y521935*
X255466Y521946*
X255512Y521950*
X257087*
X257133Y521946*
G37*
G36*
X220125D02*
X220170Y521935D01*
X220201Y521923*
X220213Y521917*
X220253Y521893*
X220288Y521863*
X221469Y520682*
X221499Y520646*
X221524Y520607*
X221529Y520594*
X221542Y520564*
X221552Y520519*
X221556Y520472*
Y518898*
X221552Y518851*
X221542Y518806*
X221529Y518776*
X221524Y518763*
X221499Y518723*
X221469Y518688*
X220288Y517507*
X220253Y517477*
X220213Y517453*
X220201Y517447*
X220170Y517435*
X220125Y517424*
X220079Y517420*
X218504*
X218458Y517424*
X218412Y517435*
X218382Y517447*
X218370Y517453*
X218330Y517477*
X218295Y517507*
X217113Y518688*
X217083Y518723*
X217059Y518763*
X217054Y518776*
X217041Y518806*
X217030Y518851*
X217027Y518898*
Y520472*
X217030Y520519*
X217041Y520564*
X217054Y520594*
X217059Y520607*
X217083Y520646*
X217113Y520682*
X218295Y521863*
X218330Y521893*
X218370Y521917*
X218382Y521923*
X218412Y521935*
X218458Y521946*
X218504Y521950*
X220079*
X220125Y521946*
G37*
G36*
X173668Y505804D02*
X173714Y505794D01*
X173744Y505781*
X173757Y505776*
X173796Y505751*
X173831Y505721*
X175013Y504540*
X175043Y504505*
X175067Y504465*
X175072Y504453*
X175085Y504422*
X175096Y504377*
X175099Y504331*
Y502756*
X175096Y502710*
X175085Y502664*
X175072Y502634*
X175067Y502621*
X175043Y502582*
X175013Y502547*
X173831Y501365*
X173796Y501335*
X173757Y501311*
X173744Y501306*
X173714Y501293*
X173668Y501282*
X173622Y501279*
X172047*
X172001Y501282*
X171956Y501293*
X171925Y501306*
X171913Y501311*
X171873Y501335*
X171838Y501365*
X170657Y502547*
X170626Y502582*
X170602Y502621*
X170597Y502634*
X170584Y502664*
X170574Y502710*
X170570Y502756*
Y504331*
X170574Y504377*
X170584Y504422*
X170597Y504453*
X170602Y504465*
X170626Y504505*
X170657Y504540*
X171838Y505721*
X171873Y505751*
X171913Y505776*
X171925Y505781*
X171956Y505794*
X172001Y505804*
X172047Y505808*
X173622*
X173668Y505804*
G37*
G54D30*
X1005906Y507874D02*
X1036614Y477165D01*
G54D31*
X299218Y167321D02*
X307089D01*
X303153*
Y155514*
X318896Y165353D02*
X316929Y167321D01*
X312993*
X311025Y165353*
Y163385*
X312993Y161417*
X316929*
X318896Y159450*
Y157482*
X316929Y155514*
X312993*
X311025Y157482*
X322832Y165353D02*
X324800Y167321D01*
X328736*
X330704Y165353*
Y163385*
X328736Y161417*
X326768*
X328736*
X330704Y159450*
Y157482*
X328736Y155514*
X324800*
X322832Y157482*
X200793Y462597D02*
X208664D01*
X204728*
Y450789*
X220471Y460629D02*
X218503Y462597D01*
X214568*
X212600Y460629*
Y458661*
X214568Y456693*
X218503*
X220471Y454725*
Y452757*
X218503Y450789*
X214568*
X212600Y452757*
X224407Y460629D02*
X226375Y462597D01*
X230311*
X232278Y460629*
Y458661*
X230311Y456693*
X228343*
X230311*
X232278Y454725*
Y452757*
X230311Y450789*
X226375*
X224407Y452757*
X476777Y576376D02*
X484648D01*
X480713*
Y564569*
X496455Y574408D02*
X494487Y576376D01*
X490552*
X488584Y574408*
Y572440*
X490552Y570472*
X494487*
X496455Y568505*
Y566537*
X494487Y564569*
X490552*
X488584Y566537*
X500391Y574408D02*
X502359Y576376D01*
X506295*
X508263Y574408*
Y572440*
X506295Y570472*
X504327*
X506295*
X508263Y568505*
Y566537*
X506295Y564569*
X502359*
X500391Y566537*
X858268Y274406D02*
X866139D01*
X862203*
Y262598*
X877946Y272438D02*
X875978Y274406D01*
X872043*
X870075Y272438*
Y270470*
X872043Y268502*
X875978*
X877946Y266534*
Y264566*
X875978Y262598*
X872043*
X870075Y264566*
X881882Y272438D02*
X883850Y274406D01*
X887786*
X889754Y272438*
Y270470*
X887786Y268502*
X885818*
X887786*
X889754Y266534*
Y264566*
X887786Y262598*
X883850*
X881882Y264566*
X744095Y379917D02*
X751966D01*
X748030*
Y368110*
X763773Y377950D02*
X761805Y379917D01*
X757869*
X755902Y377950*
Y375982*
X757869Y374014*
X761805*
X763773Y372046*
Y370078*
X761805Y368110*
X757869*
X755902Y370078*
X767709Y377950D02*
X769677Y379917D01*
X773612*
X775580Y377950*
Y375982*
X773612Y374014*
X771645*
X773612*
X775580Y372046*
Y370078*
X773612Y368110*
X769677*
X767709Y370078*
X741285Y290589D02*
X749156D01*
X745220*
Y278781*
X760963Y288621D02*
X758995Y290589D01*
X755060*
X753092Y288621*
Y286653*
X755060Y284685*
X758995*
X760963Y282717*
Y280749*
X758995Y278781*
X755060*
X753092Y280749*
X764899Y288621D02*
X766867Y290589D01*
X770803*
X772771Y288621*
Y286653*
X770803Y284685*
X768835*
X770803*
X772771Y282717*
Y280749*
X770803Y278781*
X766867*
X764899Y280749*
G54D33*
X524069Y259090D02*
X527612Y262633D01*
X524069D02*
X527612D01*
X520526D02*
X524069D01*
X520526D02*
X524069Y259090D01*
Y262633D02*
Y267358D01*
X146260Y575088D02*
Y579813D01*
Y571545D02*
X149803Y575088D01*
X146260D02*
X149803D01*
X142717D02*
X146260D01*
X142717D02*
X146260Y571545D01*
X535630Y481387D02*
X539173Y477844D01*
X535630Y481387D02*
X539173D01*
X542717*
X539173Y477844D02*
X542717Y481387D01*
X539173D02*
Y486112D01*
X701772Y531387D02*
Y536112D01*
Y527844D02*
X705315Y531387D01*
X701772D02*
X705315D01*
X698228D02*
X701772D01*
X698228D02*
X701772Y527844D01*
X593051Y318828D02*
X596594Y315285D01*
X593051Y318828D02*
X596594D01*
X600138*
X596594Y315285D02*
X600138Y318828D01*
X596594D02*
Y323553D01*
G54D35*
X101201Y523719D02*
Y519783D01*
X103825*
X107760Y523719D02*
X105137D01*
Y519783*
X107760*
X105137Y521751D02*
X106448D01*
X109072Y523719D02*
Y519783D01*
X111040*
X111696Y520439*
Y523063*
X111040Y523719*
X109072*
X113008D02*
X114320D01*
X113664*
Y519783*
X113008*
X114320*
X317815Y524015D02*
Y520079D01*
X320439*
X324375Y524015D02*
X321751D01*
Y520079*
X324375*
X321751Y522047D02*
X323063D01*
X325686Y524015D02*
Y520079D01*
X327654*
X328310Y520735*
Y523358*
X327654Y524015*
X325686*
X331590D02*
X330278D01*
X329622Y523358*
Y520735*
X330278Y520079*
X331590*
X332246Y520735*
Y523358*
X331590Y524015*
X241929Y583268D02*
Y585891D01*
X243241Y587203*
X244553Y585891*
Y583268*
Y585236*
X241929*
X245865Y587203D02*
Y583268D01*
X247833*
X248489Y583924*
Y586548*
X247833Y587203*
X245865*
X252424Y586548D02*
X251768Y587203D01*
X250457*
X249801Y586548*
Y583924*
X250457Y583268*
X251768*
X252424Y583924*
X457677Y587597D02*
X456365D01*
X455709Y586941*
Y584317*
X456365Y583661*
X457677*
X458332Y584317*
Y586941*
X457677Y587597*
X459644D02*
Y584973D01*
X460956Y583661*
X462268Y584973*
Y587597*
X463580Y583661D02*
Y587597D01*
X465548*
X466204Y586941*
Y585629*
X465548Y584973*
X463580*
X357106Y523719D02*
Y519783D01*
X359730*
X363666Y523719D02*
X361042D01*
Y519783*
X363666*
X361042Y521751D02*
X362354D01*
X364978Y523719D02*
Y519783D01*
X366946*
X367602Y520439*
Y523063*
X366946Y523719*
X364978*
X368914D02*
X370225D01*
X369569*
Y519783*
X368914*
X370225*
X573720Y524015D02*
Y520079D01*
X576344*
X580280Y524015D02*
X577656D01*
Y520079*
X580280*
X577656Y522047D02*
X578968D01*
X581592Y524015D02*
Y520079D01*
X583560*
X584216Y520735*
Y523358*
X583560Y524015*
X581592*
X587496D02*
X586184D01*
X585528Y523358*
Y520735*
X586184Y520079*
X587496*
X588152Y520735*
Y523358*
X587496Y524015*
X978673Y249016D02*
Y252952D01*
X980641*
X981297Y252295*
Y250984*
X980641Y250328*
X978673*
X979985D02*
X981297Y249016D01*
X982609Y252952D02*
Y249672D01*
X983265Y249016*
X984577*
X985233Y249672*
Y252952*
X986545Y249016D02*
Y252952D01*
X989169Y249016*
Y252952*
X975394Y290353D02*
Y286417D01*
X977361*
X978018Y287073*
Y287729*
X977361Y288385*
X975394*
X977361*
X978018Y289041*
Y289697*
X977361Y290353*
X975394*
X981297D02*
X979985D01*
X979329Y289697*
Y287073*
X979985Y286417*
X981297*
X981953Y287073*
Y289697*
X981297Y290353*
X985233D02*
X983921D01*
X983265Y289697*
Y287073*
X983921Y286417*
X985233*
X985889Y287073*
Y289697*
X985233Y290353*
X987201D02*
X989825D01*
X988513*
Y286417*
X1007677Y200983D02*
Y198359D01*
X1008989Y197047*
X1010301Y198359*
Y200983*
X1011613D02*
X1012925D01*
X1012269*
Y197047*
X1011613*
X1012925*
X1014893D02*
Y200983D01*
X1017517Y197047*
Y200983*
X1018828Y197047D02*
Y200983D01*
X1020796*
X1021452Y200327*
Y199015*
X1020796Y198359*
X1018828*
X916602Y103608D02*
X915946Y102952D01*
Y101640*
X916602Y100984*
X917258*
X917914Y101640*
Y102952*
X918570Y103608*
X919226*
X919882Y102952*
Y101640*
X919226Y100984*
X919882Y104920D02*
X915946D01*
X917258Y106232*
X915946Y107544*
X919882*
Y108856D02*
X915946D01*
Y110824*
X916602Y111479*
X917914*
X918570Y110824*
Y108856*
X916602Y115415D02*
X915946Y114759D01*
Y113447*
X916602Y112792*
X917258*
X917914Y113447*
Y114759*
X918570Y115415*
X919226*
X919882Y114759*
Y113447*
X919226Y112792*
X968571Y103608D02*
X967915Y102952D01*
Y101640*
X968571Y100984*
X971194*
X971850Y101640*
Y102952*
X971194Y103608*
X971850Y104920D02*
Y106232D01*
Y105576*
X967915*
X968571Y104920*
X842193Y103608D02*
X841537Y102952D01*
Y101640*
X842193Y100984*
X844816*
X845472Y101640*
Y102952*
X844816Y103608*
X842193Y104920D02*
X841537Y105576D01*
Y106888*
X842193Y107544*
X844816*
X845472Y106888*
Y105576*
X844816Y104920*
X842193*
X879988Y103608D02*
X879332Y102952D01*
Y101640*
X879988Y100984*
X880644*
X881300Y101640*
Y102952*
X881956Y103608*
X882612*
X883268Y102952*
Y101640*
X882612Y100984*
X879332Y104920D02*
X883268D01*
X881956Y106232*
X883268Y107544*
X879332*
Y108856D02*
X883268D01*
Y110824*
X882612Y111479*
X879988*
X879332Y110824*
Y108856*
X1013188Y139959D02*
X1011876D01*
X1011220Y139303*
Y136680*
X1011876Y136024*
X1013188*
X1013844Y136680*
Y139303*
X1013188Y139959*
X1015156D02*
Y137336D01*
X1016468Y136024*
X1017780Y137336*
Y139959*
X1019092Y136024D02*
Y139959D01*
X1021060*
X1021716Y139303*
Y137991*
X1021060Y137336*
X1019092*
X810039Y297440D02*
Y293504D01*
X812663*
X816599Y297440D02*
X813975D01*
Y293504*
X816599*
X813975Y295472D02*
X815287D01*
X817911Y297440D02*
Y293504D01*
X819879*
X820535Y294160*
Y296784*
X819879Y297440*
X817911*
X810827Y189173D02*
Y191797D01*
X812139Y193109*
X813451Y191797*
Y189173*
Y191141*
X810827*
X814762Y193109D02*
Y189173D01*
X816730*
X817386Y189829*
Y192453*
X816730Y193109*
X814762*
X821322Y192453D02*
X820666Y193109D01*
X819354*
X818698Y192453*
Y189829*
X819354Y189173*
X820666*
X821322Y189829*
X822634Y189173D02*
X823946D01*
X823290*
Y193109*
X822634Y192453*
X810827Y243110D02*
Y245734D01*
X812139Y247046*
X813451Y245734*
Y243110*
Y245078*
X810827*
X814762Y247046D02*
Y243110D01*
X816730*
X817386Y243766*
Y246390*
X816730Y247046*
X814762*
X821322Y246390D02*
X820666Y247046D01*
X819354*
X818698Y246390*
Y243766*
X819354Y243110*
X820666*
X821322Y243766*
X822634Y246390D02*
X823290Y247046D01*
X824602*
X825258Y246390*
Y243766*
X824602Y243110*
X823290*
X822634Y243766*
Y246390*
X756758Y581429D02*
X756102Y582085D01*
X754790*
X754134Y581429*
Y580773*
X754790Y580118*
X756102*
X756758Y579461*
Y578806*
X756102Y578150*
X754790*
X754134Y578806*
X758070Y578150D02*
Y582085D01*
X759381Y580773*
X760693Y582085*
Y578150*
X762005D02*
Y582085D01*
X763973*
X764629Y581429*
Y580118*
X763973Y579461*
X762005*
X768565Y581429D02*
X767909Y582085D01*
X766597*
X765941Y581429*
Y580773*
X766597Y580118*
X767909*
X768565Y579461*
Y578806*
X767909Y578150*
X766597*
X765941Y578806*
X613012Y523719D02*
Y519783D01*
X615636*
X619571Y523719D02*
X616948D01*
Y519783*
X619571*
X616948Y521751D02*
X618259D01*
X620883Y523719D02*
Y519783D01*
X622851*
X623507Y520439*
Y523063*
X622851Y523719*
X620883*
X624819D02*
X626131D01*
X625475*
Y519783*
X624819*
X626131*
X829626Y524015D02*
Y520079D01*
X832250*
X836185Y524015D02*
X833562D01*
Y520079*
X836185*
X833562Y522047D02*
X834874D01*
X837497Y524015D02*
Y520079D01*
X839465*
X840121Y520735*
Y523358*
X839465Y524015*
X837497*
X843401D02*
X842089D01*
X841433Y523358*
Y520735*
X842089Y520079*
X843401*
X844057Y520735*
Y523358*
X843401Y524015*
X687146Y326908D02*
Y324284D01*
X688458Y322972*
X689770Y324284*
Y326908*
X691081D02*
X692393D01*
X691737*
Y322972*
X691081*
X692393*
X694361D02*
Y326908D01*
X696985Y322972*
Y326908*
X698297Y322972D02*
Y326908D01*
X700265*
X700921Y326252*
Y324940*
X700265Y324284*
X698297*
X770610Y268148D02*
Y264213D01*
X773234*
X777170Y268148D02*
X774546D01*
Y264213*
X777170*
X774546Y266180D02*
X775858D01*
X778482Y268148D02*
Y264213D01*
X780450*
X781106Y264868*
Y267492*
X780450Y268148*
X778482*
X784385D02*
X783073D01*
X782417Y267492*
Y264868*
X783073Y264213*
X784385*
X785041Y264868*
Y267492*
X784385Y268148*
X553996Y267853D02*
Y263917D01*
X556620*
X560556Y267853D02*
X557932D01*
Y263917*
X560556*
X557932Y265885D02*
X559244D01*
X561868Y267853D02*
Y263917D01*
X563835*
X564491Y264573*
Y267197*
X563835Y267853*
X561868*
X565803D02*
X567115D01*
X566459*
Y263917*
X565803*
X567115*
G54D52*
X938721Y183071D03*
Y184646D03*
Y190945D03*
Y195669D03*
Y176772D03*
Y192520D03*
Y194095D03*
Y181496D03*
Y179921D03*
Y178347D03*
Y175197D03*
Y186221D03*
Y187795D03*
Y189370D03*
X911673Y195669D03*
Y194095D03*
Y192520D03*
Y190945D03*
Y189370D03*
Y187795D03*
Y186221D03*
Y184646D03*
Y183071D03*
Y181496D03*
Y179921D03*
Y178347D03*
Y175197D03*
Y176772D03*
G54D56*
X935433Y198957D03*
X933858D03*
X932283D03*
X930709D03*
X929134D03*
X927559D03*
X925984D03*
X924409D03*
X922835D03*
X921260D03*
X919685D03*
X918110D03*
X916535D03*
X914961D03*
X935433Y171909D03*
X933858D03*
X932283D03*
X930709D03*
X929134D03*
X927559D03*
X925984D03*
X924409D03*
X922835D03*
X921260D03*
X919685D03*
X918110D03*
X916535D03*
X914961D03*
G54D61*
X860945Y321004D03*
X894961D03*
X989449D03*
X955433D03*
G54D101*
X894961Y304075D03*
X860945D03*
X955433D03*
X989449D03*
G54D102*
X889665Y302106D03*
X886319D03*
X882972D03*
X879626D03*
X876280D03*
X872933D03*
X869587D03*
X866240D03*
Y307421D03*
X869587D03*
X872933D03*
X876280D03*
X879626D03*
X882972D03*
X886319D03*
X889665D03*
X984153D03*
X980807D03*
X977461D03*
X974114D03*
X970768D03*
X967421D03*
X964075D03*
X960728D03*
Y302106D03*
X964075D03*
X967421D03*
X970768D03*
X974114D03*
X977461D03*
X980807D03*
X984153D03*
G54D103*
X894961Y320413D03*
X860945D03*
X955433D03*
X989449D03*
G54D105*
X610276Y112638D03*
X678780D03*
X722087D03*
G54D145*
X924343Y540111D02*
Y547532D01*
X916922Y554954*
X909500*
X905790Y551243*
Y543822*
X913211Y536401*
Y528979*
X909500Y525269*
X902079*
X894658Y532690*
Y540111*
X935475Y536401D02*
X916922Y517847D01*
Y510426*
X924343Y503005*
X931764*
X950317Y521558*
X935475Y491873D02*
X957739Y514137D01*
Y499294*
X972581*
X950317Y477030*
X957739Y469609D02*
X980003Y491873D01*
Y477030*
X994845*
X972581Y454766*
X1017109D02*
X1002267Y469609D01*
X980003Y447345*
X994845Y432502*
X991135Y458477D02*
X998556Y451056D01*
X1002267Y425081D02*
X1024531Y447345D01*
X1035662Y436213*
Y428792*
X1028241Y421370*
X1020820*
X1009688Y432502*
X1017109Y425081D02*
Y410239D01*
X890647Y461887D02*
X875804Y476730D01*
X905490*
X909200Y480441*
Y487862*
X901779Y495283*
X894357*
X916621Y473019D02*
X924043D01*
X931464Y465598*
Y458177*
X916621Y443334*
X909200*
X901779Y450755*
Y458177*
X916621Y473019*
X935175Y417359D02*
X920332Y432202D01*
X950017*
X953728Y435913*
Y443334*
X946307Y450755*
X938885*
X961149Y428491D02*
X968571D01*
X975992Y421070*
Y413649*
X972281Y409938*
X964860*
X961149Y413649*
X964860Y409938*
Y402517*
X961149Y398806*
X953728*
X946307Y406227*
Y413649*
G54D146*
X726079Y404319D03*
X728048D03*
X730017D03*
X731985D03*
G54D147*
X722732Y404326D03*
G54D148*
X722267Y404819D03*
G54D149*
X733954Y405039D03*
G54D150*
X734445Y406197D03*
X722240Y406787D03*
X734445Y408165D03*
X722240Y408754D03*
X734445Y410134D03*
X722240Y412102D03*
X734445D03*
X722240Y414071D03*
X734445D03*
X722240Y416039D03*
X734445D03*
X722240Y418008D03*
X734445D03*
X722240Y419976D03*
X734445D03*
X722240Y421945D03*
X734445D03*
G54D151*
X728340Y416569D03*
G54D152*
X723184Y417415D03*
X733501D03*
G54D153*
X170591Y263779D03*
X482953D03*
G54D154*
X154724Y298031D03*
X511811Y263779D03*
X240945Y488189D03*
X192126D03*
X492126Y448032D03*
X452756D03*
X761417Y564567D03*
X744095Y556299D03*
G54D155*
X158268Y575984D03*
X242913Y517717D03*
Y537008D03*
X190157D03*
Y517717D03*
X551181Y482283D03*
X438976Y544882D03*
X456299Y560236D03*
X450394Y489764D03*
X417717Y478346D03*
X713779Y532283D03*
X707087Y403937D03*
X773228Y471654D03*
X683464D03*
X608602Y319724D03*
X633898Y215787D03*
X705158D03*
X681929Y287441D03*
X656732D03*
G54D156*
X205512Y512598D03*
X199213D03*
X198425Y507087D03*
X204724D03*
X232283Y548425D03*
X225984D03*
X260236Y542126D03*
X253937D03*
X285827Y360236D03*
X292126D03*
X259055D03*
X265354D03*
X232283D03*
X238583D03*
X205512D03*
X211811D03*
X178740D03*
X185039D03*
X151969D03*
X158268D03*
X204724Y501181D03*
X198425D03*
X213386Y531102D03*
X219685D03*
X176772Y541732D03*
X170472D03*
X164961D03*
X158661D03*
X172835Y524803D03*
X179134D03*
X256299Y525197D03*
X262598D03*
X268110D03*
X274410D03*
X228346Y507874D03*
X234646D03*
X151969Y487008D03*
X158268D03*
Y507480D03*
X151969D03*
X274803Y487008D03*
X281102D03*
Y507480D03*
X274803D03*
X246457D03*
X240158D03*
Y501181D03*
X246457D03*
X228346D03*
X234646D03*
X187402Y505512D03*
X193701D03*
X436221Y566142D03*
X429921D03*
X481890Y461024D03*
X488189D03*
X461417Y464567D03*
X467717D03*
X456299Y458268D03*
X462598D03*
X413779Y504331D03*
X420079D03*
X427559Y521654D03*
X433858D03*
X447638Y500787D03*
X441339D03*
Y507087D03*
X447638D03*
Y513386D03*
X441339D03*
X434646Y489370D03*
X440945D03*
X397638Y478740D03*
X391339D03*
X420079Y510630D03*
X413779D03*
X402362Y500000D03*
X396063D03*
X533858Y364173D03*
X540158D03*
X415748D03*
X422047D03*
X474803Y411417D03*
X481102D03*
X455118Y364173D03*
X461417D03*
X494488D03*
X500787D03*
X408638Y543677D03*
X414937D03*
X988583Y244094D03*
X982283D03*
X877953Y174803D03*
X884252D03*
X938583Y311417D03*
X932283D03*
X917717D03*
X846063Y139370D03*
X852362D03*
X911417Y311417D03*
X888583Y196063D03*
X894882D03*
X1010630Y171260D03*
X1016929D03*
X1005118Y167323D03*
X998819D03*
X973622D03*
X967323D03*
X871260D03*
X864961D03*
X845276Y171260D03*
X851575D03*
X839764Y167323D03*
X833465D03*
X839764Y230315D03*
X833465D03*
X845276Y234252D03*
X851575D03*
X839764Y293307D03*
X833465D03*
X988583Y231102D03*
X982283D03*
X988583Y237402D03*
X982283D03*
X988583Y279134D03*
X982283D03*
X988583Y272835D03*
X982283D03*
X931496Y289764D03*
X925197D03*
X937008Y247244D03*
X943307D03*
X937008Y253543D03*
X943307D03*
X960236Y212992D03*
X953937D03*
X960236Y219291D03*
X953937D03*
X960236Y225590D03*
X953937D03*
X908661Y264961D03*
X914961D03*
X908661Y271260D03*
X914961D03*
Y277559D03*
X908661D03*
X928347Y277165D03*
X922047D03*
X936614Y300000D03*
X942913D03*
X913780Y287402D03*
X907480D03*
X913780Y293701D03*
X907480D03*
X913780Y300000D03*
X907480D03*
X683464Y486221D03*
X689764D03*
X738189Y396063D03*
X744488D03*
X716535Y396850D03*
X722835D03*
X777953Y486221D03*
X784252D03*
X746457D03*
X752756D03*
X714961D03*
X721260D03*
X651968D03*
X658268D03*
X710236Y563779D03*
X716535D03*
X646890Y104764D03*
X653189D03*
X742559Y230354D03*
X748858D03*
X695315D03*
X701614D03*
X648071D03*
X654370D03*
X600827D03*
X607126D03*
X641378Y306339D03*
X647677D03*
G54D157*
X220472Y549803D03*
Y547244D03*
Y544685D03*
X212598D03*
Y547244D03*
Y549803D03*
X426770Y515944D03*
Y513385D03*
Y510826D03*
X434644D03*
Y513385D03*
Y515944D03*
G54D158*
X179527Y536417D03*
Y534449D03*
Y532480D03*
Y530512D03*
X167717D03*
Y532480D03*
Y534449D03*
Y536417D03*
X253543Y530512D03*
Y532480D03*
Y534449D03*
Y536417D03*
X265354D03*
Y534449D03*
Y532480D03*
Y530512D03*
G54D159*
X106516Y485138D03*
Y514862D03*
X326555D03*
Y485138D03*
X362421D03*
Y514862D03*
X582461D03*
Y485138D03*
X815177Y288484D03*
Y258760D03*
X815965Y198327D03*
Y237894D03*
Y144783D03*
Y184350D03*
X1034823Y139370D03*
Y174016D03*
Y208465D03*
Y183661D03*
X618327Y485138D03*
Y514862D03*
X838366D03*
Y485138D03*
X779350Y258996D03*
Y229272D03*
X559311D03*
Y258996D03*
G54D160*
X115551Y507382D03*
Y502461D03*
Y497539D03*
Y492618D03*
X317520D03*
Y497539D03*
Y502461D03*
Y507382D03*
X371457D03*
Y502461D03*
Y497539D03*
Y492618D03*
X573425D03*
Y497539D03*
Y502461D03*
Y507382D03*
X824213Y266240D03*
Y271161D03*
Y276083D03*
Y281004D03*
X825000Y230413D03*
Y225492D03*
Y220571D03*
Y215650D03*
Y210728D03*
Y205807D03*
Y176870D03*
Y171949D03*
Y167027D03*
Y162106D03*
Y157185D03*
Y152264D03*
X1025787Y151772D03*
Y146850D03*
Y166535D03*
Y161614D03*
Y156693D03*
Y200984D03*
Y191142D03*
Y196063D03*
X627362Y507382D03*
Y502461D03*
Y497539D03*
Y492618D03*
X829331D03*
Y497539D03*
Y502461D03*
Y507382D03*
X770315Y236752D03*
Y241673D03*
Y246595D03*
Y251516D03*
X568346D03*
Y246595D03*
Y241673D03*
Y236752D03*
G54D161*
X274803Y380315D03*
Y374016D03*
X292126Y380315D03*
Y374016D03*
Y367717D03*
X274803D03*
X248031Y380315D03*
Y374016D03*
X265354Y380315D03*
Y374016D03*
Y367717D03*
X248031D03*
X221260Y380315D03*
Y374016D03*
X238583Y380315D03*
Y374016D03*
Y367717D03*
X221260D03*
X194488Y380315D03*
Y374016D03*
X211811Y380315D03*
Y374016D03*
Y367717D03*
X194488D03*
X167717Y380315D03*
Y374016D03*
X185039Y380315D03*
Y374016D03*
Y367717D03*
X167717D03*
X140945Y380315D03*
Y374016D03*
X158268Y380315D03*
Y374016D03*
Y367717D03*
X140945D03*
X522835Y371654D03*
X540158D03*
Y377953D03*
Y384252D03*
X522835Y377953D03*
Y384252D03*
X404724Y371654D03*
X422047D03*
Y377953D03*
Y384252D03*
X404724Y377953D03*
Y384252D03*
X444095Y371654D03*
X461417D03*
Y377953D03*
Y384252D03*
X444095Y377953D03*
Y384252D03*
X463779Y418898D03*
X481102D03*
Y425197D03*
Y431496D03*
X463779Y425197D03*
Y431496D03*
X483464Y371654D03*
X500787D03*
Y377953D03*
Y384252D03*
X483464Y377953D03*
Y384252D03*
X397614Y551157D03*
X414937D03*
Y557456D03*
Y563756D03*
X397614Y557456D03*
Y563756D03*
X851181Y222835D03*
X833858D03*
Y216535D03*
Y210236D03*
X851181Y216535D03*
Y210236D03*
X833858Y241732D03*
X851181D03*
Y248031D03*
Y254331D03*
X833858Y248031D03*
Y254331D03*
X851181Y285827D03*
X833858D03*
Y279528D03*
Y273228D03*
X851181Y279528D03*
Y273228D03*
X999213Y178740D03*
X1016535D03*
Y185039D03*
Y191339D03*
X999213Y185039D03*
Y191339D03*
X1016535Y159843D03*
X999213D03*
Y153543D03*
Y147244D03*
X1016535Y153543D03*
Y147244D03*
X953543Y159843D03*
X936220D03*
Y153543D03*
Y147244D03*
X953543Y153543D03*
Y147244D03*
X985039Y159843D03*
X967717D03*
Y153543D03*
Y147244D03*
X985039Y153543D03*
Y147244D03*
X882677Y159843D03*
X865354D03*
Y153543D03*
Y147244D03*
X882677Y153543D03*
Y147244D03*
X833858Y178740D03*
X851181D03*
Y185039D03*
Y191339D03*
X833858Y185039D03*
Y191339D03*
X851181Y159843D03*
X833858D03*
Y153543D03*
Y147244D03*
X851181Y153543D03*
Y147244D03*
X640945Y506299D03*
Y500000D03*
X658268Y506299D03*
Y500000D03*
Y493701D03*
X640945D03*
X672441Y506299D03*
Y500000D03*
X689764Y506299D03*
Y500000D03*
Y493701D03*
X672441D03*
X703937Y506299D03*
Y500000D03*
X721260Y506299D03*
Y500000D03*
Y493701D03*
X703937D03*
X735433Y506299D03*
Y500000D03*
X752756Y506299D03*
Y500000D03*
Y493701D03*
X735433D03*
X766929Y506299D03*
Y500000D03*
X784252Y506299D03*
Y500000D03*
Y493701D03*
X766929D03*
X798425Y506299D03*
Y500000D03*
X815748Y506299D03*
Y500000D03*
Y493701D03*
X798425D03*
X635866Y112244D03*
X653189D03*
Y118543D03*
Y124843D03*
X635866Y118543D03*
Y124843D03*
X589803Y237835D03*
X607126D03*
Y244134D03*
Y250433D03*
X589803Y244134D03*
Y250433D03*
X637047D03*
Y244134D03*
X654370Y250433D03*
Y244134D03*
Y237835D03*
X637047D03*
X684291D03*
X701614D03*
Y244134D03*
Y250433D03*
X684291Y244134D03*
Y250433D03*
X731535Y237835D03*
X748858D03*
Y244134D03*
Y250433D03*
X731535Y244134D03*
Y250433D03*
X630354Y313819D03*
X647677D03*
Y320118D03*
Y326417D03*
X630354Y320118D03*
Y326417D03*
G54D162*
X204232Y573425D03*
X209154D03*
X214075D03*
X218996D03*
X223917D03*
X228839D03*
X437992D03*
X442913D03*
X423228D03*
X428150D03*
X433071D03*
X904527Y115945D03*
X894685D03*
X899606D03*
X931398Y115551D03*
X936319D03*
X941240D03*
X946161D03*
X951083D03*
X956004D03*
X993110Y115945D03*
X983268D03*
X988189D03*
X867126D03*
X857283D03*
X862205D03*
X716831Y571063D03*
X721752D03*
X726673D03*
X731595D03*
X736516D03*
X741437D03*
X669331Y317559D03*
X674252D03*
X664409D03*
G54D163*
X236319Y582461D03*
X196752D03*
X450394D03*
X415748D03*
X912008Y106909D03*
X887205D03*
X963484Y106516D03*
X923917D03*
X1000591Y106909D03*
X975787D03*
X874606D03*
X849803D03*
X748917Y580098D03*
X709350D03*
X681732Y326594D03*
X656929D03*
G54D164*
X211417Y500197D03*
Y502658D03*
Y505217D03*
X221654D03*
Y502658D03*
Y500098D03*
X211417Y507677D03*
X221654D03*
G54D165*
X225197Y524606D03*
Y522146D03*
Y519587D03*
Y517126D03*
X207874D03*
Y519587D03*
Y522146D03*
Y524705D03*
G54D166*
X201969Y522047D03*
Y528346D03*
Y540158D03*
Y533858D03*
X231102Y540158D03*
Y533858D03*
Y522047D03*
Y528346D03*
X163779Y497244D03*
Y503543D03*
X269291Y497244D03*
Y503543D03*
X428740Y495276D03*
Y488976D03*
X422047D03*
Y495276D03*
X408268Y489370D03*
Y483071D03*
X960630Y187402D03*
Y181102D03*
X877953Y131496D03*
Y125197D03*
X967717Y132283D03*
Y125984D03*
X893701Y151378D03*
Y157677D03*
X916142Y125591D03*
Y131890D03*
X928740Y144488D03*
Y150787D03*
X900976Y153862D03*
Y147563D03*
X918898Y210236D03*
Y216535D03*
X921260Y248031D03*
Y254331D03*
X938583Y221654D03*
Y215354D03*
X925984Y221654D03*
Y215354D03*
X932283Y221654D03*
Y215354D03*
X740551Y410236D03*
Y403937D03*
X747244Y401968D03*
Y408268D03*
X716535Y402362D03*
Y408661D03*
X815748Y480315D03*
Y486614D03*
X733071Y557874D03*
Y564173D03*
X722047Y557874D03*
Y564173D03*
X648858Y169331D03*
Y175630D03*
G54D167*
X274951Y493504D03*
Y497244D03*
Y500984D03*
X285679D03*
Y497244D03*
Y493504D03*
X158120Y500984D03*
Y497244D03*
Y493504D03*
X147392D03*
Y497244D03*
Y500984D03*
X430069Y482480D03*
Y478740D03*
Y475000D03*
X440797D03*
Y482480D03*
X391484Y493109D03*
Y489369D03*
Y485629D03*
X402212D03*
Y489369D03*
Y493109D03*
X976624Y215551D03*
Y219291D03*
Y223031D03*
X965896D03*
Y219291D03*
Y215551D03*
G54D168*
X204724Y488189D03*
X228346D03*
G54D169*
X253937Y542126D02*
X260236D01*
X198425Y501181D02*
X204724D01*
X172835Y524803D02*
X179134D01*
X228346Y507874D02*
X234646D01*
X985174Y191867D02*
X989629Y196322D01*
X980056Y196985D02*
X984511Y201440D01*
X985568Y207615D02*
X990022Y212070D01*
X990686Y202497D02*
X995140Y206951D01*
X747244Y401968D02*
Y408268D01*
X716535Y396850D02*
X722835D01*
G54D170*
X408582Y516794D03*
X403015Y522362D03*
G54D171*
X396751Y510530D03*
G54D172*
X421260Y531496D03*
G54D173*
X471457Y458465D03*
X473425D03*
Y454921D03*
X471457D03*
G54D174*
X469488Y454478D03*
Y458908D03*
X475394D03*
Y454478D03*
G54D175*
X469188Y456693D03*
X475694D03*
G54D176*
X985174Y191867D03*
X989629Y196322D03*
X980056Y196985D03*
X984511Y201440D03*
X985568Y207615D03*
X990022Y212070D03*
X990686Y202497D03*
X995140Y206951D03*
X883993Y230450D03*
X888448Y234904D03*
G54D177*
X883396Y124783D03*
Y132697D03*
X973159Y125177D03*
Y133090D03*
X921585Y132697D03*
Y124783D03*
X845994Y133090D03*
Y125177D03*
X915030Y248012D03*
Y255925D03*
G54D178*
X924409Y165354D03*
Y161417D03*
X929134Y165354D03*
Y161417D03*
G54D179*
X937008Y316929D03*
X944921D03*
X905512D03*
X913425D03*
G54D180*
X889961Y163779D03*
X891929D03*
X893898D03*
X895866D03*
Y175591D03*
X893898D03*
X891929D03*
X889961D03*
G54D181*
X928110Y298228D03*
X922283Y304134D03*
Y302165D03*
Y300197D03*
Y298228D03*
X928110Y300197D03*
Y302165D03*
Y304134D03*
G54D182*
X925197Y185433D03*
G54D183*
X917307Y145713D03*
X908646D03*
X917307Y155713D03*
X908646D03*
G54D184*
X938583Y209842D03*
X934646D03*
X949213Y196850D03*
X945276D03*
Y181496D03*
X949213D03*
X945276Y204331D03*
X949213D03*
X904724Y181496D03*
X900787D03*
X905118Y196063D03*
X901181D03*
X925197Y209842D03*
X929134D03*
G54D185*
X943701Y265354D03*
X936614D03*
G54D186*
X877424Y204466D03*
X872970Y208920D03*
G54D187*
X928110Y263386D03*
Y265354D03*
Y267323D03*
X922283D03*
Y265354D03*
Y263386D03*
G54D188*
X893955Y229759D03*
X897491Y226223D03*
X901027Y222688D03*
X904562Y219152D03*
X888722Y203312D03*
X885186Y206848D03*
X881651Y210383D03*
X878115Y213919D03*
G54D189*
X891339Y216535D03*
G54D190*
X720394Y448032D03*
X737008D03*
G54D191*
X707087Y450000D03*
Y461811D03*
X749213Y450000D03*
Y461811D03*
X647677Y194527D03*
Y206339D03*
X690984Y194527D03*
Y206339D03*
G54D192*
X704823Y428740D03*
Y421654D03*
X712402Y420768D03*
Y413681D03*
X752756Y440945D03*
Y433858D03*
X745669Y440945D03*
Y433858D03*
G54D193*
X763386Y470866D03*
X751575D03*
X693307D03*
X705118D03*
G54D194*
X794488Y557480D03*
G54D195*
X655748Y167116D03*
X659488D03*
X663228D03*
Y177844D03*
X659488D03*
X655748D03*
G54D196*
X674055Y192165D03*
G54D197*
X659488Y199665D03*
Y194665D03*
Y184665D03*
Y189665D03*
G54D198*
X1023622Y374016D03*
Y570866D03*
X885827Y374016D03*
Y570866D03*
G54D199*
X1035039Y374016D03*
X1015549Y382089D03*
X1012205Y374016D03*
X1031695Y365943D03*
X1023622Y385433D03*
X1015549Y365943D03*
X1023622Y362598D03*
X1031695Y382089D03*
X1023622Y582283D03*
X1015549Y562793D03*
X1023622Y559449D03*
X1031695Y578939D03*
X1012205Y570866D03*
X1031695Y562793D03*
X1035039Y570866D03*
X1015549Y578939D03*
X893900Y365943D03*
X874409Y374016D03*
X877754Y382089D03*
X897244Y374016D03*
X877754Y365943D03*
X885827Y385433D03*
X893900Y382089D03*
X885827Y362598D03*
X877754Y562793D03*
X885827Y582283D03*
X893900Y578939D03*
X885827Y559449D03*
X877754Y578939D03*
X897244Y570866D03*
X893900Y562793D03*
X874409Y570866D03*
G54D200*
X520433Y205354D03*
Y148268D03*
X109488D03*
Y205354D03*
X109449Y404134D03*
Y461221D03*
X323622D03*
Y404134D03*
X579528Y461221D03*
Y404134D03*
X365354D03*
Y461221D03*
X835433D03*
Y404134D03*
X621260D03*
Y461221D03*
X776417Y205354D03*
Y148268D03*
X562244D03*
Y205354D03*
G54D201*
X109646Y237205D03*
Y266732D03*
X508071Y512795D03*
X478543D03*
G54D202*
X150197Y237205D03*
Y266732D03*
X508071Y472244D03*
X478543D03*
G54D203*
X218110Y232283D03*
X435433Y295276D03*
G54D204*
X185748Y295276D03*
G54D205*
X448779Y161457D03*
Y192165D03*
X181142D03*
Y161457D03*
X251969Y417323D03*
X181102Y448032D03*
Y417323D03*
X251969Y448032D03*
X507874D03*
X437008D03*
Y417323D03*
X507874D03*
X763779Y448032D03*
Y417323D03*
X692913D03*
Y448032D03*
X704764Y192165D03*
Y161457D03*
X633898D03*
Y192165D03*
G54D206*
X511811Y314961D03*
Y118110D03*
X118110Y314961D03*
Y118110D03*
X314961Y374016D03*
X118110D03*
Y570866D03*
X314961D03*
X570866Y374016D03*
X374016D03*
Y570866D03*
X570866D03*
X1023622Y314961D03*
X826772D03*
Y118110D03*
X1023622D03*
X826772Y374016D03*
X629921D03*
Y570866D03*
X826772D03*
X767717Y314961D03*
X570866D03*
Y118110D03*
X767717D03*
G54D207*
X1016929Y265827D03*
Y285827D03*
X996929D03*
Y265827D03*
X1016929Y224095D03*
Y244094D03*
X996929D03*
Y224095D03*
G54D208*
X610276Y132323D03*
X626024D03*
X596496D03*
X678780D03*
X694527D03*
X665000D03*
X722087D03*
X737835D03*
X708307D03*
M02*