%FSLAX25Y25*%
%MOIN*%
%SFA1B1*%

%IPPOS*%
%ADD9500C,0.011810*%
%ADD9501C,0.015750*%
%ADD9502C,0.019680*%
%ADD9503C,0.023620*%
%ADD9504C,0.031500*%
%ADD9505C,0.039370*%
%ADD9506C,0.047240*%
%ADD9507C,0.048030*%
%ADD9508C,0.077950*%
%ADD9509C,0.133860*%
%ADD9510C,0.051180*%
%ADD9511C,0.094090*%
%ADD9512C,0.135830*%
%LNpanel-roundholes-1*%
%LPD*%
G54D9500*
X137795Y118110D03*
X147638Y137795D03*
X127953D03*
X167323D03*
X187008D03*
X206693D03*
X226378D03*
X246063D03*
X265748D03*
X285433D03*
X305118D03*
X295276Y118110D03*
X275591D03*
X255906D03*
X236221D03*
X216535D03*
X196850D03*
X177165D03*
X157480D03*
X314961D03*
X334646D03*
X354331D03*
X364173Y137795D03*
X383858D03*
X403543D03*
X423228D03*
X442913D03*
X462598D03*
X344488D03*
X324803D03*
X482283D03*
X501968D03*
X521654D03*
X565945D03*
X580709Y147638D03*
X600394D03*
X610236D03*
X615158Y137795D03*
X605315D03*
X620079Y127953D03*
Y108268D03*
X600394D03*
X590551D03*
X492126Y118110D03*
X629921Y127953D03*
X639764D03*
X640197Y124843D03*
X639409Y112244D03*
X643347Y104764D03*
X648858Y118543D03*
X664370Y118110D03*
X669291Y108268D03*
X659449D03*
X688976D03*
X698819D03*
X708661D03*
X718504D03*
X738189D03*
X748032D03*
X743110Y118110D03*
X748032Y147638D03*
X757874D03*
X762795Y137795D03*
X772638D03*
X738189Y147638D03*
X728346D03*
X718504D03*
X782480Y137795D03*
X841535D03*
X849213Y133071D03*
X856299Y127953D03*
X862205Y120079D03*
X871063Y118110D03*
X880906D03*
X890748D03*
X899606Y120079D03*
X895669Y127953D03*
X886614Y132677D03*
X890748Y137795D03*
X900591D03*
X903925Y147563D03*
X893701Y148622D03*
X880906Y137795D03*
X861220D03*
X924803Y132677D03*
X925984Y144488D03*
X931496Y153150D03*
X935039Y127953D03*
X931496Y119685D03*
X920276Y118110D03*
X910433D03*
X936220Y111024D03*
X951083Y119685D03*
X954724Y127953D03*
X959646Y137795D03*
X949803D03*
X939961D03*
X976378Y133071D03*
X979331Y118110D03*
X988189Y111811D03*
X999016Y118110D03*
X1003937Y127953D03*
X994094D03*
X999016Y137795D03*
X1008858D03*
X1003937Y147638D03*
X1021653Y146850D03*
X1029134Y151870D03*
X1033465Y147638D03*
X1028543Y137795D03*
X1029921Y156693D03*
Y161614D03*
Y166535D03*
X1033465Y167323D03*
X1038386Y157480D03*
X1012992Y159843D03*
X1003347Y159941D03*
X1007874Y167323D03*
Y171260D03*
X1017027Y167913D03*
X994094Y167323D03*
X984252D03*
X988583Y159843D03*
X989173Y177165D03*
X1002756Y178740D03*
X1003150Y185039D03*
Y188583D03*
X1003937Y198031D03*
X1013780Y206693D03*
X1023622D03*
X1029921Y200984D03*
Y196063D03*
Y191142D03*
X1023622Y187008D03*
X1038386Y196850D03*
Y216535D03*
X1028543D03*
X1033465Y226378D03*
X1038386Y236221D03*
X1028543D03*
X1018701D03*
Y255906D03*
X1028543D03*
X1038386D03*
X1033465Y265748D03*
X1038386Y275590D03*
X1028543D03*
X1018701D03*
X1033465Y285433D03*
X1038386Y295276D03*
X1028543D03*
X1033465Y246063D03*
X989173Y255906D03*
X979331D03*
X979528Y272835D03*
Y279134D03*
X964567Y285433D03*
X959646Y295276D03*
X945669Y300000D03*
X942913Y283465D03*
X940158D03*
X939961Y275590D03*
X949803D03*
X959646D03*
X964567Y265748D03*
X954724D03*
X949803Y255906D03*
X959646Y236221D03*
X969488D03*
X979527Y237402D03*
Y231102D03*
X974409Y226378D03*
X972835Y222835D03*
X979380Y219291D03*
X979353Y215551D03*
X989173Y216535D03*
X964567Y226378D03*
X951181Y225590D03*
Y219291D03*
Y212992D03*
X951575Y204331D03*
Y196850D03*
X951615Y188445D03*
X951575Y181496D03*
X943011D03*
X942913Y196850D03*
Y204331D03*
X945669Y207480D03*
X938583D03*
X944094Y227953D03*
X950000Y159843D03*
X963463Y159815D03*
X973622Y164567D03*
X969488Y177165D03*
X935039Y175591D03*
X926280Y177461D03*
X921653Y177665D03*
X917323Y177953D03*
X917224Y184252D03*
Y188583D03*
X917323Y192520D03*
X919291Y195276D03*
X922441Y193307D03*
X926691Y205875D03*
X929134Y207480D03*
X925984Y224409D03*
X918898Y219291D03*
X915354Y226378D03*
X920276Y236221D03*
X910433D03*
X900591D03*
X895669Y246063D03*
X885827D03*
X875984D03*
X866142D03*
X856299D03*
X846457D03*
X847047Y241634D03*
X837401Y241732D03*
X842520Y234252D03*
Y230315D03*
X837598Y222933D03*
X847638Y222835D03*
Y216535D03*
X841535D03*
X847638Y210236D03*
X856299Y206693D03*
X866142D03*
X873228Y212598D03*
X871063Y216535D03*
X861220D03*
X871063Y236221D03*
X881890Y228346D03*
X880906Y255906D03*
X890748D03*
X900591D03*
X895669Y265748D03*
X890748Y275590D03*
X905906Y277559D03*
X903937Y286508D03*
X904724Y300000D03*
X918914Y304134D03*
X934252Y289764D03*
X934646Y283465D03*
X931890D03*
X929134D03*
X937402D03*
X931102Y277165D03*
X927953Y261024D03*
X934252Y253543D03*
Y247244D03*
X871063Y255906D03*
X861220D03*
X841535D03*
X846457Y265748D03*
X847638Y285827D03*
X842520Y293307D03*
X846457Y305118D03*
X856299D03*
X861220Y295276D03*
X871063D03*
X880906D03*
X874409Y282677D03*
X871653D03*
X868898D03*
X866142D03*
X863386D03*
X860630D03*
X820866Y266142D03*
X821653Y230315D03*
Y225394D03*
Y220472D03*
X782480Y216535D03*
Y196850D03*
Y177165D03*
Y157480D03*
X821653Y166929D03*
Y171850D03*
X824902Y180217D03*
X837401Y178740D03*
X847835Y178642D03*
X847638Y185039D03*
Y191339D03*
X856299Y187008D03*
X866142D03*
X881890Y196063D03*
X891054Y202468D03*
X898819Y196063D03*
X907480Y196730D03*
X907339Y181496D03*
X906780Y176889D03*
X902756Y176878D03*
X898819Y181496D03*
X895833Y182513D03*
X893307Y183858D03*
X889764Y178740D03*
X877953Y172047D03*
X874016Y167323D03*
X868701Y159941D03*
X861220Y157480D03*
X847638Y159843D03*
X841535Y157480D03*
X837598Y159941D03*
X842520Y167323D03*
Y171260D03*
X883071Y163386D03*
X888922Y160295D03*
X898032Y163779D03*
X913780Y164567D03*
X916929Y164173D03*
X919776Y166838D03*
X925197Y168504D03*
X926772Y162992D03*
X909055Y172835D03*
X782480Y275590D03*
Y295276D03*
X772638D03*
X762795D03*
X752953D03*
X748032Y305118D03*
X738189D03*
X728346D03*
X718504D03*
X708661D03*
X698819D03*
Y285433D03*
X703740Y275590D03*
X713583D03*
X718504Y285433D03*
X728346D03*
X738189D03*
Y265748D03*
X748032D03*
X757874D03*
X767717D03*
X772638Y275590D03*
X777559Y285433D03*
Y246063D03*
X766772Y251516D03*
X752953Y255906D03*
X743110D03*
X733268D03*
X723425D03*
X719331Y256339D03*
X713583Y255906D03*
X703740D03*
X693898D03*
X684055D03*
X674213D03*
X664370D03*
X654528D03*
X659449Y265748D03*
X669291D03*
X679134D03*
X688976D03*
X698819D03*
X693898Y275590D03*
X684055D03*
X674213D03*
X664370D03*
X654528D03*
X656732Y287441D03*
X654528Y295276D03*
X659449Y305118D03*
X669291D03*
X679134D03*
X684055Y295276D03*
X669291Y285433D03*
X649606Y265748D03*
Y246063D03*
X640590Y237835D03*
X644527Y230354D03*
X644685Y216535D03*
X644527Y209882D03*
X647677D03*
X650827D03*
X654528Y216535D03*
X664370D03*
X674213D03*
X684055D03*
X693898D03*
X694134Y209882D03*
X690984D03*
X687835D03*
X679134Y206693D03*
X669291D03*
X659449D03*
Y226378D03*
X669291D03*
X679134D03*
X691772Y230354D03*
X687835Y237835D03*
X688976Y246063D03*
X708661Y226378D03*
X719331Y227992D03*
X728346Y226378D03*
X739016Y230354D03*
X735079Y237835D03*
X738189Y246063D03*
X728346Y265748D03*
X718504D03*
X713583Y295276D03*
Y216535D03*
X723425D03*
X733268D03*
X743110D03*
X752953D03*
X762795D03*
X757874Y226378D03*
Y206693D03*
X748032D03*
X738189D03*
X728346D03*
X733268Y196850D03*
X743110D03*
X752953D03*
X762795D03*
X757874Y187008D03*
X748032D03*
X738189D03*
X728346D03*
X733268Y177165D03*
X743110D03*
X752953D03*
X762795D03*
X757874Y167323D03*
X748032D03*
X738189D03*
X728346D03*
X718504D03*
X723425Y177165D03*
Y196850D03*
X713583D03*
X723425Y157480D03*
X733268D03*
X743110D03*
X752953D03*
X762795D03*
X777559Y167323D03*
Y187008D03*
X688976Y167323D03*
X679134D03*
X684055Y157480D03*
X674213D03*
X664370D03*
X654528D03*
X659488Y163573D03*
X644685Y177165D03*
X625000Y196850D03*
X629921Y206693D03*
X625000Y216535D03*
X629921Y226378D03*
Y246063D03*
X625000Y255906D03*
X629921Y265748D03*
X625000Y275590D03*
X629921Y285433D03*
X625000Y295276D03*
X629921Y305118D03*
X641378Y302795D03*
X620079Y305118D03*
X615158Y295276D03*
X620079Y285433D03*
X615158Y275590D03*
X620079Y265748D03*
Y246063D03*
Y226378D03*
X610236D03*
X615158Y216535D03*
X605315D03*
X595472D03*
X585630D03*
X575787D03*
X565945D03*
Y196850D03*
X575787D03*
X585630D03*
X595472D03*
X605315D03*
X615158D03*
X620079Y206693D03*
X610236D03*
X600394D03*
Y187008D03*
X610236D03*
X620079D03*
X615158Y177165D03*
X605315D03*
X595472D03*
X585630D03*
X575787D03*
X580709Y187008D03*
Y206693D03*
Y226378D03*
Y246063D03*
X571890Y251516D03*
X570866Y265748D03*
X580709D03*
X590551D03*
X600394D03*
X595472Y275590D03*
X600394Y285433D03*
X590551D03*
X580709D03*
X585630Y295276D03*
X595472D03*
X600394Y305118D03*
X590551D03*
X575787Y295276D03*
X565945D03*
X575787Y275590D03*
X595472Y255906D03*
X594134Y250433D03*
Y244134D03*
X593346Y237835D03*
X597284Y230354D03*
X600394Y246063D03*
Y167323D03*
X610236D03*
X615158Y157480D03*
X605315D03*
X595472D03*
X585630D03*
X575787D03*
X565945D03*
X561024Y167323D03*
X580709D03*
X561024Y187008D03*
X521654Y177165D03*
X501968D03*
X482283D03*
X492126Y196850D03*
X511811D03*
X521654Y216535D03*
X501968D03*
X482283D03*
X492126Y236221D03*
X511811D03*
X521654Y255906D03*
X511811Y275591D03*
X521654Y295276D03*
X501968D03*
X482283D03*
X472441Y236221D03*
Y196850D03*
Y157480D03*
X492126D03*
X511811D03*
X462598Y177165D03*
Y216535D03*
X442913D03*
X423228D03*
X403543D03*
X383858D03*
X364173D03*
X344488D03*
X324803D03*
X334646Y236221D03*
X354331D03*
X374016D03*
X393701D03*
X413386D03*
X433071D03*
X452756D03*
X462598Y255906D03*
X442913D03*
X423228D03*
X403543D03*
X383858D03*
X364173D03*
X344488D03*
X324803D03*
X334646Y275591D03*
X354331D03*
X374016D03*
X393701D03*
X413386D03*
X433071D03*
X452756D03*
X462598Y295276D03*
X423228D03*
X403543D03*
X383858D03*
X364173D03*
X344488D03*
X324803D03*
X314961Y275591D03*
Y236221D03*
Y157480D03*
X334646D03*
X354331D03*
X374016D03*
X393701D03*
X413386D03*
X433071D03*
X295276D03*
X275591D03*
X255906D03*
X236221D03*
X216535D03*
X196850D03*
X157480D03*
X167323Y177165D03*
X157480Y196850D03*
X167323Y216535D03*
X177165Y236221D03*
X196850D03*
X206693Y255906D03*
X226378D03*
X246063D03*
X265748D03*
X285433D03*
X305118D03*
X295276Y275591D03*
X275591D03*
X255906D03*
X236221D03*
X216535D03*
X196850D03*
X206693Y295276D03*
X226378D03*
X246063D03*
X265748D03*
X285433D03*
X305118D03*
X295276Y236221D03*
X275591D03*
X255906D03*
X236221D03*
X246063Y216535D03*
X265748D03*
X285433D03*
X305118D03*
X226378D03*
X206693D03*
X167323Y295276D03*
X127953D03*
X137795Y275591D03*
X118110D03*
X127953Y255906D03*
X147638D03*
Y216535D03*
X127953D03*
X137795Y196850D03*
X118110D03*
X127953Y177165D03*
X147638D03*
X137795Y157480D03*
X118110D03*
X137795Y314961D03*
X148425Y360236D03*
X152559Y393701D03*
X142717D03*
X147638Y403543D03*
X137795D03*
X142717Y413386D03*
X152559D03*
X147638Y423228D03*
X137795D03*
X142717Y433071D03*
X152559D03*
X147638Y442913D03*
X137795D03*
X142717Y452756D03*
X152559D03*
X147638Y462598D03*
X137795D03*
X113189Y452756D03*
X118110Y442913D03*
X108268D03*
X113189Y433071D03*
X118110Y423228D03*
X108268D03*
X113189Y413386D03*
Y393701D03*
X162402D03*
X172244D03*
X182087D03*
X191929D03*
X201772D03*
X211614D03*
X216535Y383858D03*
X226378D03*
X231299Y374016D03*
X228740Y360236D03*
X255512D03*
X260827Y374016D03*
X255906Y383858D03*
X250984Y393701D03*
X241142D03*
X231299D03*
X226378Y403543D03*
X236221D03*
X231299Y413386D03*
X236221Y423228D03*
X231299Y433071D03*
X221457D03*
X211614D03*
X216535Y442913D03*
X226378D03*
X236221D03*
X241142Y452756D03*
X236221Y462598D03*
X265748D03*
X275591D03*
X285433D03*
X295276D03*
X290354Y452756D03*
X280512D03*
X270669D03*
X260827D03*
X265748Y442913D03*
X275591D03*
X285433D03*
X295276D03*
X290354Y433071D03*
X280512D03*
X270669D03*
X260827D03*
X265748Y423228D03*
X275591D03*
X285433D03*
X295276D03*
X290354Y413386D03*
X280512D03*
X270669D03*
X265748Y403543D03*
X275591D03*
X285433D03*
X295276D03*
X290354Y393701D03*
X280512D03*
X270669D03*
X260827D03*
X282283Y360236D03*
X275591Y314961D03*
X295276D03*
X255906D03*
X236221D03*
X216535D03*
X196850D03*
X177165D03*
X157480D03*
X175197Y360236D03*
X177165Y383858D03*
X206693D03*
X201772Y374016D03*
X201969Y360236D03*
X196850Y403543D03*
Y423228D03*
X206693D03*
X211614Y413386D03*
X206693Y442913D03*
X196850D03*
X191929Y452756D03*
X201772D03*
X196850Y462598D03*
X167323D03*
X157480D03*
X162402Y452756D03*
X172244D03*
X167323Y442913D03*
X157480D03*
X162402Y433071D03*
X172244D03*
X167323Y423228D03*
X157480D03*
X162402Y413386D03*
X157480Y403543D03*
X167323D03*
X191929Y433071D03*
X241142D03*
X319882D03*
X329724D03*
X324803Y423228D03*
X314961D03*
X319882Y413386D03*
X329724D03*
Y393701D03*
X319882D03*
X369094D03*
X374016Y403543D03*
X369094Y413386D03*
X374016Y423228D03*
X364173D03*
X369094Y433071D03*
X374016Y442913D03*
X364173D03*
X369094Y452756D03*
X374016Y462598D03*
X393701D03*
X403543D03*
X413386D03*
X423228D03*
X433071D03*
X428150Y452756D03*
X418307D03*
X408465D03*
X398622D03*
X403543Y442913D03*
X413386D03*
X423228D03*
X428150Y433071D03*
X418307D03*
X408465D03*
X398622D03*
X403543Y423228D03*
X413386D03*
X423228D03*
X428150Y413386D03*
X418307D03*
X408465D03*
X398622D03*
X403543Y403543D03*
X413386D03*
X423228D03*
X428150Y393701D03*
X437992D03*
X447835D03*
X457677D03*
X452756Y403543D03*
X442913D03*
X447835Y413386D03*
X452756Y423228D03*
X457677Y433071D03*
X447835D03*
X453150Y458268D03*
X458268Y464567D03*
X462598Y454823D03*
X467717Y418898D03*
X467520Y413386D03*
X452756Y383858D03*
X448032Y371654D03*
X451968Y364173D03*
X437992Y374016D03*
X408661Y371654D03*
X412598Y364173D03*
X393701D03*
X413386Y383858D03*
X418307Y393701D03*
X408465D03*
X393701Y403543D03*
Y423228D03*
Y442913D03*
X324803D03*
X314961D03*
X319882Y452756D03*
X329724D03*
X334646Y314961D03*
X354331D03*
X374016D03*
X393701D03*
X413386D03*
X433071D03*
X452756D03*
X314961D03*
X472441D03*
X492126D03*
X491339Y364173D03*
X487402Y371654D03*
X477362Y374016D03*
X472441Y383858D03*
X492126D03*
X497047Y393701D03*
X506890D03*
X516732D03*
X526575D03*
X536417D03*
X541339Y403543D03*
X551181D03*
X556102Y413386D03*
X546260D03*
X536417D03*
X526575D03*
X516732D03*
X521654Y423228D03*
X531496D03*
X541339D03*
X551181D03*
X556102Y433071D03*
X546260D03*
X536417D03*
X526575D03*
X516732D03*
X521654Y442913D03*
X531496D03*
X541339D03*
X551181D03*
X556102Y452756D03*
X546260D03*
X536417D03*
X526575D03*
X516732D03*
X521654Y462598D03*
X531496D03*
X541339D03*
X551181D03*
X585630Y452756D03*
X580709Y442913D03*
X585630Y433071D03*
X580709Y423228D03*
X585630Y413386D03*
Y393701D03*
X575787D03*
X551181Y364173D03*
X530709D03*
X526772Y371654D03*
X516732Y374016D03*
X531496Y383858D03*
Y403543D03*
X521654D03*
X501968D03*
X492126D03*
X497047Y413386D03*
X492126Y423228D03*
X497047Y433071D03*
X487205D03*
X492126Y442913D03*
X482283D03*
X472441D03*
Y423228D03*
X471654Y411417D03*
X487205Y393701D03*
Y452756D03*
X491339Y461024D03*
X501968Y462598D03*
X478740Y456693D03*
X620079Y442913D03*
Y423228D03*
Y324803D03*
X610236D03*
X600394D03*
X590551D03*
X605315Y314961D03*
X615158D03*
X633898Y313819D03*
X639764Y324803D03*
X654528Y314961D03*
X669331Y321102D03*
X684055Y314961D03*
X693898D03*
X703740D03*
X708661Y324803D03*
X718504D03*
X728346D03*
X738189D03*
X748032D03*
X743110Y314961D03*
X733268D03*
X723425D03*
X728346Y364173D03*
X718504D03*
X708661D03*
X698819D03*
X688976D03*
X679134D03*
X669291D03*
X664370Y374016D03*
X674213D03*
X669291Y383858D03*
X659449D03*
X649606D03*
X644685Y393701D03*
X634842D03*
X625000D03*
Y413386D03*
X634842D03*
X644685D03*
X654528D03*
X664370D03*
X674213D03*
X669291Y403543D03*
X679134D03*
X684055Y393701D03*
X693898D03*
X703740D03*
X713583D03*
X708661Y383858D03*
X718504D03*
X728346D03*
X734527Y385917D03*
X736248Y389764D03*
X728003Y392442D03*
X730231Y395782D03*
X733268Y374016D03*
X743110D03*
X748032Y364173D03*
X757874D03*
X767717D03*
X777559D03*
X780287Y389764D03*
X777559Y423228D03*
X772638Y433071D03*
X777559Y442913D03*
X772638Y452756D03*
X767717Y462598D03*
X777559D03*
X755610Y461811D03*
X748032Y467323D03*
X745669Y465354D03*
X738189Y462598D03*
X728346D03*
X718504D03*
X710630Y465354D03*
X708268Y467323D03*
X700689Y461811D03*
X688976Y462598D03*
X679134D03*
X669291D03*
X659449D03*
X649606D03*
X639764D03*
X634842Y452756D03*
X625000D03*
X629921Y442913D03*
X639764D03*
X649606D03*
X659449D03*
X669291D03*
X679134D03*
X684055Y433071D03*
X674213D03*
X664370D03*
X654528D03*
X644685D03*
X634842D03*
X625000D03*
X629921Y423228D03*
X639764D03*
X649606D03*
X659449D03*
X669291D03*
X679134D03*
X704823Y418110D03*
X708268Y413779D03*
X738583Y414961D03*
Y418898D03*
Y423228D03*
X736614Y426772D03*
X745669Y430315D03*
X752756D03*
X748032Y423228D03*
X738189Y364173D03*
X723425Y374016D03*
X713583D03*
X703740D03*
X693898D03*
X698819Y383858D03*
X688976D03*
X674213Y393701D03*
X664370D03*
X654528D03*
X649606Y403543D03*
X639764D03*
X659449D03*
X649606Y364173D03*
X654528Y452756D03*
X644685D03*
X664370D03*
X674213D03*
X684055D03*
X782480D03*
X792323D03*
X797244Y462598D03*
X816929D03*
X821850Y452756D03*
X831693D03*
X841535D03*
X836614Y442913D03*
X826772D03*
X816929D03*
X821850Y433071D03*
X831693D03*
X841535D03*
X836614Y423228D03*
X826772D03*
X816929D03*
X821850Y413386D03*
X831693D03*
X841535D03*
Y393701D03*
X831693D03*
X821850D03*
X812008D03*
X802165D03*
X807087Y383858D03*
X797244D03*
X802165Y374016D03*
X792323D03*
X782480D03*
X781693Y385917D03*
X787402Y403543D03*
X792323Y413386D03*
X805104Y414581D03*
X808896Y413004D03*
X807087Y403543D03*
X816929D03*
X797244Y423228D03*
X792323Y433071D03*
X782480D03*
X797244Y442913D03*
Y364173D03*
X787402D03*
X807087D03*
X846457Y324803D03*
X856299D03*
X866142D03*
X875984D03*
X885827D03*
X905512D03*
X905571Y320148D03*
X915354Y324803D03*
X925197D03*
X937027Y320148D03*
X851378Y314961D03*
X944882Y324803D03*
X964567D03*
X984252D03*
X841535Y472441D03*
X831693D03*
X821850D03*
X815748Y476772D03*
X826772Y482283D03*
X797244D03*
X792323Y472441D03*
X782480D03*
Y511811D03*
X792323D03*
X797244Y521654D03*
X787402D03*
X782480Y531496D03*
X792323D03*
X805104Y532269D03*
X808874Y534011D03*
X821850Y531496D03*
X826772Y541339D03*
X836614D03*
X841535Y531496D03*
Y551181D03*
X831693D03*
X821850D03*
X802165D03*
X807087Y561024D03*
X802165Y570866D03*
X807087Y580709D03*
X797244D03*
X787402D03*
X782480Y570866D03*
X787402Y541339D03*
X816929Y521654D03*
X826772D03*
X821850Y511811D03*
X777559Y521654D03*
X772638Y531496D03*
X767717Y541339D03*
X777559D03*
X772638Y551181D03*
X762795D03*
X752953D03*
X743110D03*
X733268D03*
X723425D03*
X703740D03*
X693898D03*
X688976Y541339D03*
X679134D03*
X669291D03*
X659449D03*
X649606D03*
X639764D03*
X629921D03*
X625000Y551181D03*
X634842D03*
X644685D03*
X654528D03*
X664370D03*
X674213D03*
X669291Y561024D03*
X659449D03*
X649606D03*
X664370Y570866D03*
X669291Y580709D03*
X679134D03*
X688976D03*
X698819D03*
X703740Y570866D03*
X693898D03*
X684055D03*
X688976Y561024D03*
X698819D03*
Y541339D03*
X693898Y531496D03*
X684055D03*
X674213D03*
X664370D03*
X654528D03*
X644685D03*
X634842D03*
X625000D03*
X629921Y521654D03*
X639764D03*
X649606D03*
X659449D03*
X669291D03*
X679134D03*
X688976D03*
X698819D03*
X708661D03*
X718504D03*
X728346D03*
X738189D03*
X743110Y511811D03*
X752953D03*
X762795D03*
X757874Y521654D03*
X752953Y531496D03*
X743110D03*
X748032Y541339D03*
X738189D03*
X723425Y531496D03*
Y511811D03*
X733268D03*
X713583D03*
X703740D03*
X693898D03*
X684055D03*
X674213D03*
X664370D03*
X654528D03*
X644685D03*
X634842D03*
X649606Y501968D03*
X648425Y486221D03*
X639764Y482283D03*
X629921D03*
X625000Y472441D03*
X634842D03*
X644685D03*
X654528D03*
X664370D03*
X674213D03*
X669291Y482283D03*
X659449D03*
X679921Y486221D03*
X679134Y501968D03*
X708661D03*
X711417Y486221D03*
X708268Y474409D03*
Y470866D03*
X723425Y472441D03*
X733268D03*
X728346Y482283D03*
X742913Y486221D03*
X748032Y474409D03*
Y470866D03*
X757874Y482283D03*
X767717D03*
X774409Y486221D03*
X748032Y501968D03*
Y561024D03*
X740945Y563779D03*
X737795Y566142D03*
X744980Y568898D03*
X744882Y572992D03*
X738189Y580709D03*
X728346D03*
X769944Y572941D03*
X768293Y569080D03*
X659449Y580709D03*
X698819Y482283D03*
X620079Y501968D03*
Y541339D03*
X580709D03*
X570866D03*
X561024D03*
X565945Y551181D03*
X575787D03*
X585630D03*
Y531496D03*
X575787D03*
X565945D03*
X556102D03*
X546260D03*
X536417D03*
X541339Y541339D03*
X531496D03*
X521654D03*
X511811D03*
X501968D03*
X492126D03*
X482283D03*
X472441D03*
X477362Y551181D03*
X487205D03*
X497047D03*
X506890D03*
X516732D03*
X526575D03*
X536417D03*
X546260D03*
X556102D03*
X551181Y561024D03*
X541339D03*
X531496D03*
X521654D03*
X511811D03*
X501968D03*
X492126D03*
X482283D03*
X472441D03*
X477362Y570866D03*
X472441Y580709D03*
X482283D03*
X492126D03*
X501968D03*
X511811D03*
X521654D03*
X526575Y570866D03*
X536417D03*
X546260D03*
X551181Y580709D03*
X541339D03*
X516732Y570866D03*
Y531496D03*
X506890D03*
X497047D03*
X487205D03*
X477362D03*
X472441Y521654D03*
X492126D03*
X501968D03*
X511811D03*
X521654D03*
X526575Y511811D03*
X536417D03*
X546260D03*
X556102D03*
X565945D03*
X569388Y507384D03*
X577462Y507380D03*
X575787Y511811D03*
X580709Y521654D03*
X570866D03*
X561024D03*
Y501968D03*
X551181D03*
X541339D03*
X531496D03*
X521654D03*
X526575Y492126D03*
X536417D03*
X546260D03*
X556102D03*
X551181Y482283D03*
X556102Y472441D03*
X546260D03*
X536417D03*
X526575D03*
X516732D03*
X521654Y482283D03*
X531496D03*
X516732Y492126D03*
Y511811D03*
X497047D03*
X501968Y501968D03*
X497047Y492126D03*
X501968Y482283D03*
X492126D03*
X497047Y472441D03*
X472441Y482283D03*
X541339Y521654D03*
X580709Y501968D03*
X585630Y492126D03*
Y472441D03*
X467520D03*
X457677D03*
X447835D03*
X437992D03*
X433219Y475000D03*
X434646Y486221D03*
X423228Y482283D03*
X418307Y492126D03*
X422693Y497779D03*
X423228Y501968D03*
Y513386D03*
X424409Y521654D03*
X433858Y525197D03*
X437992Y531496D03*
X447835D03*
X457677D03*
X467520D03*
X462598Y521654D03*
X452756D03*
X442913D03*
X450787Y513386D03*
X450151Y507087D03*
X451181Y500787D03*
X457677Y492126D03*
X467520D03*
X462598Y482283D03*
X467520Y511811D03*
X457677D03*
X452756Y541339D03*
X457677Y551181D03*
X467520D03*
X462598Y561024D03*
X467520Y570866D03*
X457677D03*
X462598Y580709D03*
X442913D03*
X433071Y577461D03*
X433067Y569386D03*
X423138Y568011D03*
X408465Y570866D03*
X398622D03*
X403543Y580709D03*
X393701D03*
X403543Y561024D03*
X401551Y551157D03*
X408465Y551181D03*
X405488Y543677D03*
X403543Y541339D03*
X393701D03*
X388779Y531496D03*
X383858Y521654D03*
X364173D03*
X369094Y531496D03*
X364173Y541339D03*
X369094Y551181D03*
X378937D03*
X329724D03*
X319882D03*
X314961Y541339D03*
X324803D03*
X319882Y531496D03*
X329724D03*
X314961Y521654D03*
X313386Y507087D03*
X314961Y482283D03*
X319882Y472441D03*
X329724D03*
X369094D03*
X374016Y482283D03*
X391339Y475197D03*
X398622Y472441D03*
X400787Y478740D03*
X403543Y482283D03*
X408268Y479921D03*
X408465Y472441D03*
X392913Y500000D03*
X393307Y507087D03*
X367418Y507386D03*
X369094Y511811D03*
X364173Y501968D03*
X428150Y531496D03*
Y551181D03*
X447835D03*
X442913Y561024D03*
X310039Y551181D03*
X298425Y548819D03*
Y543307D03*
Y537795D03*
Y532283D03*
Y526772D03*
Y521260D03*
Y515748D03*
Y510236D03*
Y504724D03*
Y499213D03*
Y493701D03*
Y488189D03*
Y482677D03*
X297638Y477559D03*
X294094Y473622D03*
X289370Y472047D03*
X283858D03*
X278346D03*
X272835D03*
X267323D03*
X261811D03*
Y475197D03*
Y478346D03*
Y481496D03*
Y484646D03*
Y487795D03*
Y490945D03*
Y494095D03*
Y497244D03*
X258661D03*
X255512D03*
X252362D03*
X249213D03*
X246063D03*
X242913D03*
X239764D03*
X236614D03*
X233465D03*
X230315D03*
X227165D03*
X224016D03*
X218898D03*
X214173D03*
X209055D03*
X205906D03*
X202756D03*
X199606D03*
X196457D03*
X193307D03*
X190157D03*
X187008D03*
X183858D03*
X180709D03*
X177559D03*
X174409D03*
X171260D03*
Y494095D03*
Y490945D03*
Y487795D03*
Y484646D03*
Y481496D03*
Y478346D03*
Y475197D03*
Y472047D03*
X165748D03*
X160236D03*
X162402Y492126D03*
X174409Y490945D03*
Y493701D03*
X177165D03*
Y490945D03*
Y488189D03*
X174409D03*
Y485433D03*
Y482677D03*
X177165D03*
Y485433D03*
X179921D03*
Y482677D03*
X182677D03*
Y485433D03*
Y488189D03*
X179921D03*
Y490945D03*
Y493701D03*
X182677D03*
Y490945D03*
X183858Y505512D03*
X182087Y511811D03*
X172244D03*
X162402D03*
X167323Y503543D03*
Y521654D03*
X157480D03*
X163386Y531102D03*
Y535827D03*
X158661Y545276D03*
X170472D03*
X175591Y551968D03*
X178740D03*
X182283Y559382D03*
X187795D03*
X193307D03*
X198819D03*
X204331D03*
X215354D03*
X220866D03*
X234252D03*
X239764D03*
X245276D03*
X250787D03*
X256299D03*
X261811D03*
X267323D03*
X272835D03*
X278346D03*
X283858D03*
X289370D03*
X294094Y557874D03*
X297638Y553937D03*
X280512Y551181D03*
X270669D03*
X263779Y542126D03*
X269685Y535827D03*
Y531102D03*
X280512Y531496D03*
X285433Y541339D03*
Y521654D03*
X274410D03*
X262598D03*
X250394Y528346D03*
X236221Y521654D03*
X234646Y511417D03*
X221457Y511811D03*
X218110Y502658D03*
X216535Y482283D03*
Y472047D03*
X223228D03*
X228740D03*
X234252D03*
X239764D03*
X250394Y482677D03*
Y485433D03*
X253150D03*
Y482677D03*
X255906D03*
Y485433D03*
Y488189D03*
X253150D03*
X250394D03*
Y490945D03*
X253150D03*
Y493701D03*
X250394D03*
X255906D03*
Y490945D03*
X258661D03*
Y493701D03*
Y488189D03*
Y485433D03*
Y482677D03*
X250000Y501181D03*
Y507480D03*
X269291Y507087D03*
X284646Y507480D03*
X282136Y497244D03*
Y493504D03*
X284646Y487008D03*
X305118Y521654D03*
X310039Y531496D03*
X305118Y541339D03*
X290354Y570866D03*
X280512D03*
X270669D03*
X265748Y580709D03*
X275591D03*
X285433D03*
X295276D03*
X246063D03*
X250984Y570866D03*
X241142D03*
X226378Y580709D03*
X214075Y576968D03*
X206693Y580709D03*
X187008D03*
X177165D03*
X182087Y570866D03*
X191929D03*
X172244D03*
X171260Y559382D03*
X165748D03*
X160236D03*
X181102Y541051D03*
X198819Y541929D03*
X206299Y550000D03*
X208268Y551968D03*
X208483Y548136D03*
X215913Y549835D03*
X216535Y541339D03*
X209842Y531102D03*
X204353Y517110D03*
X196850Y521654D03*
X172835Y528346D03*
X234646Y540158D03*
X235827Y548425D03*
X209842Y472047D03*
X204331D03*
X198819D03*
X193307D03*
X154724D03*
X149213D03*
X143701D03*
X138976Y473622D03*
X135433Y477559D03*
X134646Y482677D03*
Y488189D03*
Y493701D03*
Y499213D03*
Y504724D03*
Y510236D03*
Y515748D03*
Y521260D03*
Y526772D03*
Y532283D03*
Y537795D03*
Y543307D03*
Y548819D03*
X135433Y553937D03*
X138976Y557874D03*
X143701Y559382D03*
X149213D03*
X154724D03*
X152559Y551181D03*
X142717D03*
Y570866D03*
X137795Y580709D03*
X123031Y551181D03*
X113189D03*
X118110Y541339D03*
X127953D03*
X123031Y531496D03*
X127953Y521654D03*
X118110D03*
X119291Y507087D03*
X118110Y482283D03*
X113189Y472441D03*
X148425Y487008D03*
X150935Y497244D03*
Y500984D03*
X151969Y511024D03*
X147638Y521654D03*
X152559Y531496D03*
G54D9501*
X960728Y302106D03*
X964075D03*
X967421D03*
X970768D03*
X974114D03*
X977461D03*
X980807D03*
X984153D03*
Y307421D03*
X980807D03*
X977461D03*
X974114D03*
X970768D03*
X967421D03*
X964075D03*
X960728D03*
X889665D03*
X886319D03*
X882972D03*
X879626D03*
X876280D03*
X872933D03*
X869587D03*
X866240D03*
Y302106D03*
X869587D03*
X872933D03*
X876280D03*
X879626D03*
X882972D03*
X886319D03*
X889665D03*
G54D9502*
X788386Y161417D03*
Y165354D03*
Y169291D03*
Y173228D03*
Y177165D03*
Y181102D03*
Y185039D03*
Y188976D03*
Y192913D03*
X806102D03*
Y188976D03*
Y185039D03*
Y181102D03*
Y177165D03*
Y173228D03*
Y169291D03*
Y165354D03*
Y161417D03*
X550197D03*
Y165354D03*
Y169291D03*
Y173228D03*
Y177165D03*
Y181102D03*
Y185039D03*
Y188976D03*
Y192913D03*
X532480D03*
Y188976D03*
Y185039D03*
Y181102D03*
Y177165D03*
Y173228D03*
Y169291D03*
Y165354D03*
Y161417D03*
X218504Y335630D03*
X214567D03*
X210630D03*
X206693D03*
X202756D03*
X198819D03*
X194882D03*
X190945D03*
X187008D03*
Y353346D03*
X190945D03*
X194882D03*
X198819D03*
X202756D03*
X206693D03*
X210630D03*
X214567D03*
X218504D03*
X335630Y417323D03*
Y421260D03*
Y425197D03*
Y429134D03*
Y433071D03*
Y437008D03*
Y440945D03*
Y444882D03*
Y448819D03*
X353346D03*
Y444882D03*
Y440945D03*
Y437008D03*
Y433071D03*
Y429134D03*
Y425197D03*
Y421260D03*
Y417323D03*
X456693Y353346D03*
X460630D03*
X464567D03*
X468504D03*
Y335630D03*
X464567D03*
X460630D03*
X456693D03*
X472441D03*
X476378D03*
X480315D03*
X484252D03*
X488189D03*
Y353346D03*
X484252D03*
X480315D03*
X476378D03*
X472441D03*
X591535Y417323D03*
Y421260D03*
Y425197D03*
Y429134D03*
Y433071D03*
Y437008D03*
Y440945D03*
Y444882D03*
Y448819D03*
X609252D03*
Y444882D03*
Y440945D03*
Y437008D03*
Y433071D03*
Y429134D03*
Y425197D03*
Y421260D03*
Y417323D03*
X714567Y353346D03*
X718504D03*
X722441D03*
X726378D03*
X730315D03*
X734252D03*
X738189D03*
X742126D03*
X746063D03*
Y335630D03*
X742126D03*
X738189D03*
X734252D03*
X730315D03*
X726378D03*
X722441D03*
X718504D03*
X714567D03*
X909449D03*
X913386D03*
X917323D03*
X921260D03*
X925197D03*
X929134D03*
X933071D03*
X937008D03*
Y353346D03*
X933071D03*
X929134D03*
X925197D03*
X921260D03*
X917323D03*
X913386D03*
X909449D03*
X865158Y417323D03*
Y421260D03*
Y425197D03*
Y429134D03*
Y433071D03*
Y437008D03*
Y440945D03*
Y444882D03*
Y448819D03*
X847441D03*
Y444882D03*
Y440945D03*
Y437008D03*
Y433071D03*
Y429134D03*
Y425197D03*
Y421260D03*
Y417323D03*
X940945Y353346D03*
Y335630D03*
G54D9503*
X655945Y134685D03*
X746102Y135472D03*
X958268Y198819D03*
X960236Y207874D03*
X944488Y233858D03*
X938189D03*
X949213Y250394D03*
X952756Y284252D03*
X944094Y309842D03*
X1009055Y279134D03*
X1005118Y272835D03*
X1004724Y237402D03*
X1001032Y229930D03*
X914173Y222441D03*
X906299Y309842D03*
X762638Y246890D03*
Y241378D03*
X575630D03*
Y246890D03*
X444095Y464567D03*
X732677Y429134D03*
X733858Y399213D03*
X722835Y392126D03*
X822490Y498770D03*
X822785Y504380D03*
X727953Y562598D03*
X712992Y558268D03*
X634695Y504380D03*
X634990Y498770D03*
X566929Y497244D03*
Y502756D03*
X408268Y501968D03*
X381533Y541376D03*
X381496Y547638D03*
X310236Y502756D03*
Y497244D03*
X256299Y519685D03*
Y548032D03*
X229528Y567323D03*
X224016D03*
X218504D03*
X209842D03*
X203543D03*
X196063Y527559D03*
X219291Y519685D03*
X172835Y503543D03*
X160236Y527559D03*
X122835Y502756D03*
Y497244D03*
G54D9504*
X996929Y224095D03*
X1016929D03*
Y244094D03*
X996929D03*
Y265827D03*
X1016929D03*
Y285827D03*
X996929D03*
G54D9505*
X110037Y110037D03*
X118110Y106693D03*
X126183Y110037D03*
X129527Y118110D03*
X126183Y126183D03*
X118110Y129527D03*
X110037Y126183D03*
X106693Y118110D03*
X500394D03*
X503738Y126183D03*
X511811Y129527D03*
X519884Y126183D03*
X523228Y118110D03*
X519884Y110037D03*
X511811Y106693D03*
X503738Y110037D03*
X562793D03*
X570866Y106693D03*
X578939Y110037D03*
X582283Y118110D03*
X578939Y126183D03*
X570866Y129527D03*
X562793Y126183D03*
X559449Y118110D03*
X756299D03*
X759643Y126183D03*
X767717Y129527D03*
X775790Y126183D03*
X779134Y118110D03*
X775790Y110037D03*
X767717Y106693D03*
X759643Y110037D03*
X818698D03*
X826772Y106693D03*
X834845Y110037D03*
X838189Y118110D03*
X834845Y126183D03*
X826772Y129527D03*
X818698Y126183D03*
X815354Y118110D03*
X1012205D03*
X1015549Y126183D03*
X1023622Y129527D03*
X1031695Y126183D03*
X1035039Y118110D03*
X1031695Y110037D03*
X1023622Y106693D03*
X1015549Y110037D03*
Y306887D03*
X1023622Y303543D03*
X1031695Y306887D03*
X834845D03*
X826772Y303543D03*
X818698Y306887D03*
X775790D03*
X767717Y303543D03*
X759643Y306887D03*
X578939D03*
X570866Y303543D03*
X562793Y306887D03*
X519884D03*
X511811Y303543D03*
X503738Y306887D03*
X126183D03*
X118110Y303543D03*
X110037Y306887D03*
X106693Y314961D03*
X110037Y323034D03*
X118110Y326378D03*
X126183Y323034D03*
X129527Y314961D03*
X126183Y365943D03*
X129527Y374016D03*
X126183Y382089D03*
X118110Y385433D03*
X110037Y382089D03*
X106693Y374016D03*
X110037Y365943D03*
X118110Y362598D03*
X306887Y365943D03*
X303543Y374016D03*
X306887Y382089D03*
X314961Y385433D03*
X323034Y382089D03*
X326378Y374016D03*
X323034Y365943D03*
X314961Y362598D03*
X365943Y365943D03*
X362598Y374016D03*
X365943Y382089D03*
X374016Y385433D03*
X382089Y382089D03*
X385433Y374016D03*
X382089Y365943D03*
X374016Y362598D03*
X503738Y323034D03*
X511811Y326378D03*
X519884Y323034D03*
X523228Y314961D03*
X500394D03*
X559449D03*
X562793Y323034D03*
X570866Y326378D03*
X578939Y323034D03*
X582283Y314961D03*
X578939Y365943D03*
X570866Y362598D03*
X562793Y365943D03*
X559449Y374016D03*
X562793Y382089D03*
X570866Y385433D03*
X578939Y382089D03*
X582283Y374016D03*
X618504D03*
X621848Y382089D03*
Y365943D03*
X629921Y362598D03*
X637994Y365943D03*
X641339Y374016D03*
X637994Y382089D03*
X629921Y385433D03*
X759643Y323034D03*
X767717Y326378D03*
X775790Y323034D03*
X779134Y314961D03*
X756299D03*
X815354D03*
X818698Y323034D03*
X826772Y326378D03*
X834845Y323034D03*
X838189Y314961D03*
X834845Y365943D03*
X826772Y362598D03*
X818698Y365943D03*
X815354Y374016D03*
X818698Y382089D03*
X826772Y385433D03*
X834845Y382089D03*
X838189Y374016D03*
X874409D03*
X877754Y382089D03*
X885827Y385433D03*
X893900Y382089D03*
X897244Y374016D03*
X893900Y365943D03*
X885827Y362598D03*
X877754Y365943D03*
X1015549D03*
X1012205Y374016D03*
X1015549Y382089D03*
X1023622Y385433D03*
X1031695Y382089D03*
X1035039Y374016D03*
X1031695Y365943D03*
X1023622Y362598D03*
Y326378D03*
X1031695Y323034D03*
X1035039Y314961D03*
X1012205D03*
X1015549Y323034D03*
Y562793D03*
X1023622Y559449D03*
X1031695Y562793D03*
X1035039Y570866D03*
X1031695Y578939D03*
X1023622Y582283D03*
X1015549Y578939D03*
X1012205Y570866D03*
X897244D03*
X893900Y578939D03*
X885827Y582283D03*
X877754Y578939D03*
X874409Y570866D03*
X877754Y562793D03*
X885827Y559449D03*
X893900Y562793D03*
X834845D03*
X838189Y570866D03*
X834845Y578939D03*
X826772Y582283D03*
X818698Y578939D03*
X815354Y570866D03*
X818698Y562793D03*
X826772Y559449D03*
X637994Y562793D03*
X629921Y559449D03*
Y582283D03*
X637994Y578939D03*
X641339Y570866D03*
X618504D03*
X621848Y562793D03*
Y578939D03*
X578939D03*
X582283Y570866D03*
X578939Y562793D03*
X570866Y559449D03*
X562793Y562793D03*
X559449Y570866D03*
X562793Y578939D03*
X570866Y582283D03*
X382089Y578939D03*
X374016Y582283D03*
X365943Y578939D03*
X362598Y570866D03*
X365943Y562793D03*
X374016Y559449D03*
X382089Y562793D03*
X385433Y570866D03*
X326378D03*
X323034Y562793D03*
X314961Y559449D03*
Y582283D03*
X323034Y578939D03*
X306887D03*
X303543Y570866D03*
X306887Y562793D03*
X126183D03*
X118110Y559449D03*
X110037Y562793D03*
X106693Y570866D03*
X110037Y578939D03*
X118110Y582283D03*
X126183Y578939D03*
X129527Y570866D03*
G54D9506*
X109488Y148268D03*
X520433D03*
X562244D03*
X776417D03*
Y205354D03*
X562244D03*
X520433D03*
X109488D03*
X109449Y404134D03*
Y461221D03*
X323622D03*
X365354D03*
Y404134D03*
X323622D03*
X579528D03*
X621260D03*
Y461221D03*
X579528D03*
X835433D03*
Y404134D03*
G54D9507*
X150197Y237205D03*
Y266732D03*
X478543Y472244D03*
X508071D03*
G54D9508*
X109646Y237205D03*
Y266732D03*
X478543Y512795D03*
X508071D03*
G54D9509*
X118110Y118110D03*
X511811D03*
X570866D03*
X767717D03*
X826772D03*
X1023622D03*
X118110Y314961D03*
Y374016D03*
X314961D03*
X374016D03*
X570866D03*
Y314961D03*
X511811D03*
X629921Y374016D03*
X767717Y314961D03*
X826772D03*
Y374016D03*
X885827D03*
X1023622D03*
Y314961D03*
Y570866D03*
X885827D03*
X826772D03*
X629921D03*
X570866D03*
X374016D03*
X314961D03*
X118110D03*
G54D9510*
X610276Y112638D03*
X678780D03*
X722087D03*
G54D9511*
X185748Y295276D03*
G54D9512*
X435433Y295276D03*
X218110Y232283D03*
M02*