%FSLAX25Y25*%
%MOIN*%
%SFA1B1*%

%IPPOS*%
%ADD33C,0.015750*%
%ADD35C,0.009840*%
%ADD36C,0.007870*%
%ADD116C,0.001970*%
%ADD121C,0.007870*%
%ADD122C,0.005910*%
%ADD125C,0.015750*%
%ADD216C,0.029530*%
%ADD218C,0.055120*%
%LNpanel-1*%
%LPD*%
G36*
X872609Y522038D02*
X887156D01*
X894430Y509439*
X888065*
X883974Y516526*
X875791*
X872609Y522038*
G37*
G36*
X884026Y541723D02*
X898573D01*
X905847Y529124*
X899483*
X895391Y536211*
X887208*
X884026Y541723*
G37*
G36*
X1001349Y426762D02*
X1015896D01*
X1023170Y414164*
X1016805*
X1012714Y421250*
X1004531*
X1001349Y426762*
G37*
G36*
X1012766Y446447D02*
X1027314D01*
X1034587Y433849*
X1028223*
X1024131Y440935*
X1015948*
X1012766Y446447*
G37*
G36*
Y407077D02*
X1027314D01*
X1034587Y394479*
X1028223*
X1024131Y401565*
X1015948*
X1012766Y407077*
G37*
G54D33*
X274503Y284252D02*
X279751D01*
Y276380*
X274503*
X279751Y280316D02*
X277127D01*
X266632Y284252D02*
X271880D01*
Y276380*
X266632*
X271880Y280316D02*
X269256D01*
X250889Y282940D02*
X252201Y284252D01*
X254825*
X256137Y282940*
Y281628*
X254825Y280316*
X252201*
X250889Y279004*
Y277692*
X252201Y276380*
X254825*
X256137Y277692*
X244330Y276380D02*
X246953D01*
X248265Y277692*
Y280316*
X246953Y281628*
X244330*
X243018Y280316*
Y279004*
X248265*
X240394Y276380D02*
Y281628D01*
X236458*
X235146Y280316*
Y276380*
X232522D02*
X229898D01*
X231210*
Y281628*
X232522*
X224651Y276380D02*
X222027D01*
X220715Y277692*
Y280316*
X222027Y281628*
X224651*
X225963Y280316*
Y277692*
X224651Y276380*
X218091Y281628D02*
Y276380D01*
Y279004*
X216779Y280316*
X215467Y281628*
X214156*
X202348Y284252D02*
Y276380D01*
X198413*
X197101Y277692*
Y282940*
X198413Y284252*
X202348*
X190541Y276380D02*
X193165D01*
X194477Y277692*
Y280316*
X193165Y281628*
X190541*
X189229Y280316*
Y279004*
X194477*
X186605Y276380D02*
X182670D01*
X181358Y277692*
X182670Y279004*
X185293*
X186605Y280316*
X185293Y281628*
X181358*
X178734Y276380D02*
X176110D01*
X177422*
Y281628*
X178734*
X169550Y273757D02*
X168238D01*
X166927Y275069*
Y281628*
X170862*
X172174Y280316*
Y277692*
X170862Y276380*
X166927*
X164303D02*
Y281628D01*
X160367*
X159055Y280316*
Y276380*
X240394Y268403D02*
Y260531D01*
X237770Y263155*
X235146Y260531*
Y268403*
X232522Y260531D02*
X229898D01*
X231210*
Y265779*
X232522*
X225963Y260531D02*
Y265779D01*
X222027*
X220715Y264467*
Y260531*
X216779Y267091D02*
Y265779D01*
X218091*
X215467*
X216779*
Y261843*
X215467Y260531*
X207596D02*
X210220D01*
X211532Y261843*
Y264467*
X210220Y265779*
X207596*
X206284Y264467*
Y263155*
X211532*
X203660Y265779D02*
Y260531D01*
Y263155*
X202348Y264467*
X201036Y265779*
X199724*
X182670Y260531D02*
X187917D01*
X182670Y265779*
Y267091*
X183982Y268403*
X186605*
X187917Y267091*
X180046D02*
X178734Y268403D01*
X176110*
X174798Y267091*
Y261843*
X176110Y260531*
X178734*
X180046Y261843*
Y267091*
X166927Y260531D02*
X172174D01*
X166927Y265779*
Y267091*
X168238Y268403*
X170862*
X172174Y267091*
X164303D02*
X162991Y268403D01*
X160367*
X159055Y267091*
Y265779*
X160367Y264467*
X161679*
X160367*
X159055Y263155*
Y261843*
X160367Y260531*
X162991*
X164303Y261843*
X244330Y255178D02*
Y247306D01*
X240394*
X239082Y248618*
Y249930*
X240394Y251242*
X244330*
X240394*
X239082Y252554*
Y253866*
X240394Y255178*
X244330*
X235146Y252554D02*
X232522D01*
X231210Y251242*
Y247306*
X235146*
X236458Y248618*
X235146Y249930*
X231210*
X227275Y253866D02*
Y252554D01*
X228587*
X225963*
X227275*
Y248618*
X225963Y247306*
X220715Y253866D02*
Y252554D01*
X222027*
X219403*
X220715*
Y248618*
X219403Y247306*
X211532D02*
X214156D01*
X215467Y248618*
Y251242*
X214156Y252554*
X211532*
X210220Y251242*
Y249930*
X215467*
X207596Y252554D02*
Y247306D01*
Y249930*
X206284Y251242*
X204972Y252554*
X203660*
X199724D02*
Y248618D01*
X198413Y247306*
X194477*
Y245994*
X195789Y244682*
X197101*
X194477Y247306D02*
Y252554D01*
X178734Y253866D02*
X180046Y255178D01*
X182670*
X183982Y253866*
Y248618*
X182670Y247306*
X180046*
X178734Y248618*
X172174Y247306D02*
X174798D01*
X176110Y248618*
Y251242*
X174798Y252554*
X172174*
X170862Y251242*
Y249930*
X176110*
X168238Y247306D02*
X165615D01*
X166927*
Y255178*
X168238*
X161679Y247306D02*
X159055D01*
X160367*
Y255178*
X161679*
X224503Y544882D02*
X229751D01*
Y537010*
X224503*
X229751Y540946D02*
X227127D01*
X216632Y544882D02*
X221880D01*
Y537010*
X216632*
X221880Y540946D02*
X219256D01*
X200889Y543570D02*
X202201Y544882D01*
X204825*
X206137Y543570*
Y542258*
X204825Y540946*
X202201*
X200889Y539634*
Y538322*
X202201Y537010*
X204825*
X206137Y538322*
X194330Y537010D02*
X196953D01*
X198265Y538322*
Y540946*
X196953Y542258*
X194330*
X193018Y540946*
Y539634*
X198265*
X190394Y537010D02*
Y542258D01*
X186458*
X185146Y540946*
Y537010*
X182522D02*
X179898D01*
X181210*
Y542258*
X182522*
X174651Y537010D02*
X172027D01*
X170715Y538322*
Y540946*
X172027Y542258*
X174651*
X175963Y540946*
Y538322*
X174651Y537010*
X168091Y542258D02*
Y537010D01*
Y539634*
X166779Y540946*
X165467Y542258*
X164155*
X152348Y544882D02*
Y537010D01*
X148413*
X147101Y538322*
Y543570*
X148413Y544882*
X152348*
X140541Y537010D02*
X143165D01*
X144477Y538322*
Y540946*
X143165Y542258*
X140541*
X139229Y540946*
Y539634*
X144477*
X136605Y537010D02*
X132669D01*
X131358Y538322*
X132669Y539634*
X135293*
X136605Y540946*
X135293Y542258*
X131358*
X128734Y537010D02*
X126110D01*
X127422*
Y542258*
X128734*
X119550Y534387D02*
X118238D01*
X116927Y535699*
Y542258*
X120862*
X122174Y540946*
Y538322*
X120862Y537010*
X116927*
X114303D02*
Y542258D01*
X110367*
X109055Y540946*
Y537010*
X190394Y529033D02*
Y521161D01*
X187770Y523785*
X185146Y521161*
Y529033*
X182522Y521161D02*
X179898D01*
X181210*
Y526409*
X182522*
X175963Y521161D02*
Y526409D01*
X172027*
X170715Y525097*
Y521161*
X166779Y527721D02*
Y526409D01*
X168091*
X165467*
X166779*
Y522473*
X165467Y521161*
X157596D02*
X160220D01*
X161532Y522473*
Y525097*
X160220Y526409*
X157596*
X156284Y525097*
Y523785*
X161532*
X153660Y526409D02*
Y521161D01*
Y523785*
X152348Y525097*
X151036Y526409*
X149724*
X132670Y521161D02*
X137917D01*
X132670Y526409*
Y527721*
X133982Y529033*
X136605*
X137917Y527721*
X130046D02*
X128734Y529033D01*
X126110*
X124798Y527721*
Y522473*
X126110Y521161*
X128734*
X130046Y522473*
Y527721*
X116927Y521161D02*
X122174D01*
X116927Y526409*
Y527721*
X118238Y529033*
X120862*
X122174Y527721*
X114303D02*
X112991Y529033D01*
X110367*
X109055Y527721*
Y526409*
X110367Y525097*
X111679*
X110367*
X109055Y523785*
Y522473*
X110367Y521161*
X112991*
X114303Y522473*
X198265Y515807D02*
Y510560D01*
X195641Y507936*
X193018Y510560*
Y515807*
X177275Y507936D02*
X178586Y509248D01*
X179898Y507936*
X181210*
X182522Y509248*
Y510560*
X181210Y511872*
X182522Y513184*
Y514496*
X181210Y515807*
X179898*
X178586Y514496*
Y513184*
X179898Y511872*
X178586Y510560*
Y509248*
X177275Y511872D02*
X178586Y510560D01*
X181210Y511872D02*
X179898D01*
X166779Y515807D02*
X164155D01*
X165467*
Y507936*
X166779*
X164155*
X147101Y514496D02*
X148413Y515807D01*
X151036*
X152348Y514496*
Y513184*
X151036Y511872*
X148413*
X147101Y510560*
Y509248*
X148413Y507936*
X151036*
X152348Y509248*
X140541Y507936D02*
X143165D01*
X144477Y509248*
Y511872*
X143165Y513184*
X140541*
X139229Y511872*
Y510560*
X144477*
X136605Y507936D02*
Y513184D01*
X132670*
X131358Y511872*
Y507936*
X128734D02*
X124798D01*
X123486Y509248*
X124798Y510560*
X127422*
X128734Y511872*
X127422Y513184*
X123486*
X119550Y507936D02*
X116927D01*
X115615Y509248*
Y511872*
X116927Y513184*
X119550*
X120862Y511872*
Y509248*
X119550Y507936*
X112991Y513184D02*
Y507936D01*
Y510560*
X111679Y511872*
X110367Y513184*
X109055*
X480409Y544882D02*
X485657D01*
Y537010*
X480409*
X485657Y540946D02*
X483033D01*
X472538Y544882D02*
X477785D01*
Y537010*
X472538*
X477785Y540946D02*
X475161D01*
X456795Y543570D02*
X458106Y544882D01*
X460730*
X462042Y543570*
Y542258*
X460730Y540946*
X458106*
X456795Y539634*
Y538322*
X458106Y537010*
X460730*
X462042Y538322*
X450235Y537010D02*
X452859D01*
X454171Y538322*
Y540946*
X452859Y542258*
X450235*
X448923Y540946*
Y539634*
X454171*
X446299Y537010D02*
Y542258D01*
X442364*
X441052Y540946*
Y537010*
X438428D02*
X435804D01*
X437116*
Y542258*
X438428*
X430556Y537010D02*
X427932D01*
X426620Y538322*
Y540946*
X427932Y542258*
X430556*
X431868Y540946*
Y538322*
X430556Y537010*
X423997Y542258D02*
Y537010D01*
Y539634*
X422685Y540946*
X421373Y542258*
X420061*
X408254Y544882D02*
Y537010D01*
X404318*
X403006Y538322*
Y543570*
X404318Y544882*
X408254*
X396446Y537010D02*
X399070D01*
X400382Y538322*
Y540946*
X399070Y542258*
X396446*
X395135Y540946*
Y539634*
X400382*
X392511Y537010D02*
X388575D01*
X387263Y538322*
X388575Y539634*
X391199*
X392511Y540946*
X391199Y542258*
X387263*
X384639Y537010D02*
X382015D01*
X383327*
Y542258*
X384639*
X375456Y534387D02*
X374144D01*
X372832Y535699*
Y542258*
X376768*
X378080Y540946*
Y538322*
X376768Y537010*
X372832*
X370208D02*
Y542258D01*
X366272*
X364961Y540946*
Y537010*
X446299Y529033D02*
Y521161D01*
X443675Y523785*
X441052Y521161*
Y529033*
X438428Y521161D02*
X435804D01*
X437116*
Y526409*
X438428*
X431868Y521161D02*
Y526409D01*
X427932*
X426620Y525097*
Y521161*
X422685Y527721D02*
Y526409D01*
X423997*
X421373*
X422685*
Y522473*
X421373Y521161*
X413501D02*
X416125D01*
X417437Y522473*
Y525097*
X416125Y526409*
X413501*
X412189Y525097*
Y523785*
X417437*
X409566Y526409D02*
Y521161D01*
Y523785*
X408254Y525097*
X406942Y526409*
X405630*
X388575Y521161D02*
X393823D01*
X388575Y526409*
Y527721*
X389887Y529033*
X392511*
X393823Y527721*
X385951D02*
X384639Y529033D01*
X382015*
X380704Y527721*
Y522473*
X382015Y521161*
X384639*
X385951Y522473*
Y527721*
X372832Y521161D02*
X378080D01*
X372832Y526409*
Y527721*
X374144Y529033*
X376768*
X378080Y527721*
X370208D02*
X368896Y529033D01*
X366272*
X364961Y527721*
Y526409*
X366272Y525097*
X367584*
X366272*
X364961Y523785*
Y522473*
X366272Y521161*
X368896*
X370208Y522473*
X446299Y515807D02*
Y507936D01*
X442364*
X441052Y509248*
Y510560*
X442364Y511872*
X446299*
X442364*
X441052Y513184*
Y514496*
X442364Y515807*
X446299*
X437116Y513184D02*
X434492D01*
X433180Y511872*
Y507936*
X437116*
X438428Y509248*
X437116Y510560*
X433180*
X429244Y514496D02*
Y513184D01*
X430556*
X427932*
X429244*
Y509248*
X427932Y507936*
X422685Y514496D02*
Y513184D01*
X423997*
X421373*
X422685*
Y509248*
X421373Y507936*
X413501D02*
X416125D01*
X417437Y509248*
Y511872*
X416125Y513184*
X413501*
X412189Y511872*
Y510560*
X417437*
X409566Y513184D02*
Y507936D01*
Y510560*
X408254Y511872*
X406942Y513184*
X405630*
X401694D02*
Y509248D01*
X400382Y507936*
X396446*
Y506624*
X397758Y505312*
X399070*
X396446Y507936D02*
Y513184D01*
X382015Y515807D02*
X384639D01*
X385951Y514496*
Y509248*
X384639Y507936*
X382015*
X380704Y509248*
Y514496*
X382015Y515807*
X378080D02*
Y510560D01*
X375456Y507936*
X372832Y510560*
Y515807*
X370208Y507936D02*
Y515807D01*
X366272*
X364961Y514496*
Y511872*
X366272Y510560*
X370208*
X933165Y288976D02*
X938412D01*
Y281105*
X933165*
X938412Y285041D02*
X935789D01*
X925293Y288976D02*
X930541D01*
Y281105*
X925293*
X930541Y285041D02*
X927917D01*
X909550Y287664D02*
X910862Y288976D01*
X913486*
X914798Y287664*
Y286352*
X913486Y285041*
X910862*
X909550Y283729*
Y282417*
X910862Y281105*
X913486*
X914798Y282417*
X902991Y281105D02*
X905615D01*
X906927Y282417*
Y285041*
X905615Y286352*
X902991*
X901679Y285041*
Y283729*
X906927*
X899055Y281105D02*
Y286352D01*
X895119*
X893808Y285041*
Y281105*
X891184D02*
X888560D01*
X889872*
Y286352*
X891184*
X883312Y281105D02*
X880688D01*
X879376Y282417*
Y285041*
X880688Y286352*
X883312*
X884624Y285041*
Y282417*
X883312Y281105*
X876753Y286352D02*
Y281105D01*
Y283729*
X875441Y285041*
X874129Y286352*
X872817*
X861010Y288976D02*
Y281105D01*
X857074*
X855762Y282417*
Y287664*
X857074Y288976*
X861010*
X849202Y281105D02*
X851826D01*
X853138Y282417*
Y285041*
X851826Y286352*
X849202*
X847890Y285041*
Y283729*
X853138*
X845267Y281105D02*
X841331D01*
X840019Y282417*
X841331Y283729*
X843955*
X845267Y285041*
X843955Y286352*
X840019*
X837395Y281105D02*
X834771D01*
X836083*
Y286352*
X837395*
X828212Y278481D02*
X826900D01*
X825588Y279793*
Y286352*
X829524*
X830836Y285041*
Y282417*
X829524Y281105*
X825588*
X822964D02*
Y286352D01*
X819028*
X817717Y285041*
Y281105*
X899055Y273127D02*
Y265256D01*
X896431Y267880*
X893808Y265256*
Y273127*
X891184Y265256D02*
X888560D01*
X889872*
Y270503*
X891184*
X884624Y265256D02*
Y270503D01*
X880688*
X879376Y269192*
Y265256*
X875441Y271815D02*
Y270503D01*
X876753*
X874129*
X875441*
Y266568*
X874129Y265256*
X866257D02*
X868881D01*
X870193Y266568*
Y269192*
X868881Y270503*
X866257*
X864945Y269192*
Y267880*
X870193*
X862322Y270503D02*
Y265256D01*
Y267880*
X861010Y269192*
X859698Y270503*
X858386*
X841331Y265256D02*
X846579D01*
X841331Y270503*
Y271815*
X842643Y273127*
X845267*
X846579Y271815*
X838707D02*
X837395Y273127D01*
X834771*
X833459Y271815*
Y266568*
X834771Y265256*
X837395*
X838707Y266568*
Y271815*
X825588Y265256D02*
X830836D01*
X825588Y270503*
Y271815*
X826900Y273127*
X829524*
X830836Y271815*
X822964D02*
X821652Y273127D01*
X819028*
X817717Y271815*
Y270503*
X819028Y269192*
X820340*
X819028*
X817717Y267880*
Y266568*
X819028Y265256*
X821652*
X822964Y266568*
X901679Y252030D02*
Y259902D01*
X897743*
X896431Y258590*
Y255966*
X897743Y254654*
X901679*
X899055D02*
X896431Y252030D01*
X893808D02*
Y259902D01*
X889872*
X888560Y258590*
Y255966*
X889872Y254654*
X893808*
X880688Y252030D02*
X885936D01*
X880688Y257278*
Y258590*
X882000Y259902*
X884624*
X885936Y258590*
X878065D02*
X876753Y259902D01*
X874129*
X872817Y258590*
Y253342*
X874129Y252030*
X876753*
X878065Y253342*
Y258590*
X866257Y252030D02*
Y259902D01*
X870193Y255966*
X864945*
X862322Y258590D02*
X861010Y259902D01*
X858386*
X857074Y258590*
Y253342*
X858386Y252030*
X861010*
X862322Y253342*
Y258590*
X841331D02*
X842643Y259902D01*
X845267*
X846579Y258590*
Y253342*
X845267Y252030*
X842643*
X841331Y253342*
X837395Y252030D02*
X834771D01*
X833459Y253342*
Y255966*
X834771Y257278*
X837395*
X838707Y255966*
Y253342*
X837395Y252030*
X830836Y257278D02*
Y252030D01*
Y254654*
X829524Y255966*
X828212Y257278*
X826900*
X819028Y252030D02*
X821652D01*
X822964Y253342*
Y255966*
X821652Y257278*
X819028*
X817717Y255966*
Y254654*
X822964*
X736314Y544882D02*
X741562D01*
Y537010*
X736314*
X741562Y540946D02*
X738938D01*
X728443Y544882D02*
X733691D01*
Y537010*
X728443*
X733691Y540946D02*
X731067D01*
X712700Y543570D02*
X714012Y544882D01*
X716636*
X717948Y543570*
Y542258*
X716636Y540946*
X714012*
X712700Y539634*
Y538322*
X714012Y537010*
X716636*
X717948Y538322*
X706141Y537010D02*
X708764D01*
X710076Y538322*
Y540946*
X708764Y542258*
X706141*
X704829Y540946*
Y539634*
X710076*
X702205Y537010D02*
Y542258D01*
X698269*
X696957Y540946*
Y537010*
X694333D02*
X691709D01*
X693021*
Y542258*
X694333*
X686462Y537010D02*
X683838D01*
X682526Y538322*
Y540946*
X683838Y542258*
X686462*
X687774Y540946*
Y538322*
X686462Y537010*
X679902Y542258D02*
Y537010D01*
Y539634*
X678590Y540946*
X677278Y542258*
X675967*
X664159Y544882D02*
Y537010D01*
X660223*
X658912Y538322*
Y543570*
X660223Y544882*
X664159*
X652352Y537010D02*
X654976D01*
X656288Y538322*
Y540946*
X654976Y542258*
X652352*
X651040Y540946*
Y539634*
X656288*
X648416Y537010D02*
X644481D01*
X643169Y538322*
X644481Y539634*
X647104*
X648416Y540946*
X647104Y542258*
X643169*
X640545Y537010D02*
X637921D01*
X639233*
Y542258*
X640545*
X631361Y534387D02*
X630050D01*
X628738Y535699*
Y542258*
X632673*
X633985Y540946*
Y538322*
X632673Y537010*
X628738*
X626114D02*
Y542258D01*
X622178*
X620866Y540946*
Y537010*
X702205Y529033D02*
Y521161D01*
X699581Y523785*
X696957Y521161*
Y529033*
X694333Y521161D02*
X691709D01*
X693021*
Y526409*
X694333*
X687774Y521161D02*
Y526409D01*
X683838*
X682526Y525097*
Y521161*
X678590Y527721D02*
Y526409D01*
X679902*
X677278*
X678590*
Y522473*
X677278Y521161*
X669407D02*
X672031D01*
X673343Y522473*
Y525097*
X672031Y526409*
X669407*
X668095Y525097*
Y523785*
X673343*
X665471Y526409D02*
Y521161D01*
Y523785*
X664159Y525097*
X662847Y526409*
X661535*
X644481Y521161D02*
X649728D01*
X644481Y526409*
Y527721*
X645792Y529033*
X648416*
X649728Y527721*
X641857D02*
X640545Y529033D01*
X637921*
X636609Y527721*
Y522473*
X637921Y521161*
X640545*
X641857Y522473*
Y527721*
X628738Y521161D02*
X633985D01*
X628738Y526409*
Y527721*
X630050Y529033*
X632673*
X633985Y527721*
X626114D02*
X624802Y529033D01*
X622178*
X620866Y527721*
Y526409*
X622178Y525097*
X623490*
X622178*
X620866Y523785*
Y522473*
X622178Y521161*
X624802*
X626114Y522473*
X683838Y514496D02*
X685150Y515807D01*
X687774*
X689086Y514496*
Y513184*
X687774Y511872*
X685150*
X683838Y510560*
Y509248*
X685150Y507936*
X687774*
X689086Y509248*
X681214Y507936D02*
Y515807D01*
X678590Y513184*
X675967Y515807*
Y507936*
X673343D02*
Y515807D01*
X669407*
X668095Y514496*
Y511872*
X669407Y510560*
X673343*
X660223Y514496D02*
X661535Y515807D01*
X664159*
X665471Y514496*
Y513184*
X664159Y511872*
X661535*
X660223Y510560*
Y509248*
X661535Y507936*
X664159*
X665471Y509248*
X644481Y514496D02*
X645792Y515807D01*
X648416*
X649728Y514496*
Y509248*
X648416Y507936*
X645792*
X644481Y509248*
X640545Y507936D02*
X637921D01*
X636609Y509248*
Y511872*
X637921Y513184*
X640545*
X641857Y511872*
Y509248*
X640545Y507936*
X633985Y513184D02*
Y507936D01*
Y510560*
X632673Y511872*
X631361Y513184*
X630050*
X622178Y507936D02*
X624802D01*
X626114Y509248*
Y511872*
X624802Y513184*
X622178*
X620866Y511872*
Y510560*
X626114*
X677259Y288976D02*
X682507D01*
Y281105*
X677259*
X682507Y285041D02*
X679883D01*
X669388Y288976D02*
X674636D01*
Y281105*
X669388*
X674636Y285041D02*
X672012D01*
X653645Y287664D02*
X654957Y288976D01*
X657581*
X658893Y287664*
Y286352*
X657581Y285041*
X654957*
X653645Y283729*
Y282417*
X654957Y281105*
X657581*
X658893Y282417*
X647085Y281105D02*
X649709D01*
X651021Y282417*
Y285041*
X649709Y286352*
X647085*
X645773Y285041*
Y283729*
X651021*
X643150Y281105D02*
Y286352D01*
X639214*
X637902Y285041*
Y281105*
X635278D02*
X632654D01*
X633966*
Y286352*
X635278*
X627407Y281105D02*
X624783D01*
X623471Y282417*
Y285041*
X624783Y286352*
X627407*
X628719Y285041*
Y282417*
X627407Y281105*
X620847Y286352D02*
Y281105D01*
Y283729*
X619535Y285041*
X618223Y286352*
X616911*
X605104Y288976D02*
Y281105D01*
X601168*
X599857Y282417*
Y287664*
X601168Y288976*
X605104*
X593297Y281105D02*
X595921D01*
X597233Y282417*
Y285041*
X595921Y286352*
X593297*
X591985Y285041*
Y283729*
X597233*
X589361Y281105D02*
X585425D01*
X584114Y282417*
X585425Y283729*
X588049*
X589361Y285041*
X588049Y286352*
X584114*
X581490Y281105D02*
X578866D01*
X580178*
Y286352*
X581490*
X572306Y278481D02*
X570994D01*
X569683Y279793*
Y286352*
X573618*
X574930Y285041*
Y282417*
X573618Y281105*
X569683*
X567059D02*
Y286352D01*
X563123*
X561811Y285041*
Y281105*
X643150Y273127D02*
Y265256D01*
X640526Y267880*
X637902Y265256*
Y273127*
X635278Y265256D02*
X632654D01*
X633966*
Y270503*
X635278*
X628719Y265256D02*
Y270503D01*
X624783*
X623471Y269192*
Y265256*
X619535Y271815D02*
Y270503D01*
X620847*
X618223*
X619535*
Y266568*
X618223Y265256*
X610352D02*
X612976D01*
X614288Y266568*
Y269192*
X612976Y270503*
X610352*
X609040Y269192*
Y267880*
X614288*
X606416Y270503D02*
Y265256D01*
Y267880*
X605104Y269192*
X603792Y270503*
X602480*
X585426Y265256D02*
X590673D01*
X585426Y270503*
Y271815*
X586737Y273127*
X589361*
X590673Y271815*
X582802D02*
X581490Y273127D01*
X578866*
X577554Y271815*
Y266568*
X578866Y265256*
X581490*
X582802Y266568*
Y271815*
X569683Y265256D02*
X574930D01*
X569683Y270503*
Y271815*
X570994Y273127*
X573618*
X574930Y271815*
X567059D02*
X565747Y273127D01*
X563123*
X561811Y271815*
Y270503*
X563123Y269192*
X564435*
X563123*
X561811Y267880*
Y266568*
X563123Y265256*
X565747*
X567059Y266568*
X635278Y258590D02*
X636590Y259902D01*
X639214*
X640526Y258590*
Y257278*
X639214Y255966*
X636590*
X635278Y254654*
Y253342*
X636590Y252030*
X639214*
X640526Y253342*
X631342Y252030D02*
X628719D01*
X627407Y253342*
Y255966*
X628719Y257278*
X631342*
X632654Y255966*
Y253342*
X631342Y252030*
X624783D02*
X622159D01*
X623471*
Y259902*
X624783*
X616911Y257278D02*
X614288D01*
X612976Y255966*
Y252030*
X616911*
X618223Y253342*
X616911Y254654*
X612976*
X610352Y257278D02*
Y252030D01*
Y254654*
X609040Y255966*
X607728Y257278*
X606416*
X594609Y259902D02*
X591985D01*
X593297*
Y252030*
X594609*
X591985*
X588049D02*
Y257278D01*
X584114*
X582802Y255966*
Y252030*
X580178Y249407D02*
Y257278D01*
X576242*
X574930Y255966*
Y253342*
X576242Y252030*
X580178*
X572306Y257278D02*
Y253342D01*
X570994Y252030*
X567059*
Y257278*
X563123Y258590D02*
Y257278D01*
X564435*
X561811*
X563123*
Y253342*
X561811Y252030*
G54D35*
X1017084Y469712D02*
X1015748Y468376D01*
X1014356Y469768D02*
X1015748Y468376D01*
X995147Y488976D02*
X996484Y487640D01*
X996539Y490368D02*
X995147Y488976D01*
X1015748Y509577D02*
X1014412Y508241D01*
X1015748Y509577D02*
X1017140Y508185D01*
X1035013Y490313D02*
X1036349Y488976D01*
X1034957Y487584*
G54D36*
X314929Y144881D02*
X311780D01*
X313354*
Y140158*
X310206Y143307D02*
Y140158D01*
Y141732*
X309419Y142519*
X308632Y143307*
X307844*
X303122Y140158D02*
X304696D01*
X305483Y140945*
Y142519*
X304696Y143307*
X303122*
X302334Y142519*
Y141732*
X305483*
X300760Y143307D02*
Y140945D01*
X299973Y140158*
X297611*
Y139371*
X298399Y138584*
X299186*
X297611Y140158D02*
Y143307D01*
X288166Y144094D02*
X288953Y144881D01*
X290527*
X291314Y144094*
Y143307*
X290527Y142519*
X288953*
X288166Y141732*
Y140945*
X288953Y140158*
X290527*
X291314Y140945*
X286592Y138584D02*
Y143307D01*
X284230*
X283443Y142519*
Y140945*
X284230Y140158*
X286592*
X281869Y143307D02*
Y140158D01*
Y141732*
X281082Y142519*
X280294Y143307*
X279507*
X274784Y140158D02*
X276359D01*
X277146Y140945*
Y142519*
X276359Y143307*
X274784*
X273997Y142519*
Y141732*
X277146*
X269274Y143307D02*
X271636D01*
X272423Y142519*
Y140945*
X271636Y140158*
X269274*
X267700Y144881D02*
Y140158D01*
Y142519*
X266913Y143307*
X265338*
X264551Y142519*
Y140158*
X260616D02*
X262190D01*
X262977Y140945*
Y142519*
X262190Y143307*
X260616*
X259828Y142519*
Y141732*
X262977*
X258254Y143307D02*
Y140158D01*
Y141732*
X257467Y142519*
X256680Y143307*
X255893*
X252744Y139371D02*
X251957Y140158D01*
Y140945*
X252744*
Y140158*
X251957*
X252744Y139371*
X253531Y138584*
X244086Y140158D02*
Y143307D01*
X242511Y144881*
X240937Y143307*
Y140158*
Y142519*
X244086*
X239363Y140158D02*
Y143307D01*
X237001*
X236214Y142519*
Y140158*
X233066Y138584D02*
X232278D01*
X231491Y139371*
Y143307*
X233853*
X234640Y142519*
Y140945*
X233853Y140158*
X231491*
X227555D02*
X229130D01*
X229917Y140945*
Y142519*
X229130Y143307*
X227555*
X226768Y142519*
Y141732*
X229917*
X225194Y140158D02*
X223620D01*
X224407*
Y144881*
X225194*
X220471Y143307D02*
X218897D01*
X218110Y142519*
Y140158*
X220471*
X221258Y140945*
X220471Y141732*
X218110*
X211813Y144881D02*
Y140158D01*
X209451*
X208664Y140945*
Y144094*
X209451Y144881*
X211813*
X206302Y140158D02*
X204728D01*
X203941Y140945*
Y142519*
X204728Y143307*
X206302*
X207090Y142519*
Y140945*
X206302Y140158*
X202367D02*
Y143307D01*
X200005*
X199218Y142519*
Y140158*
X194495Y143307D02*
X196857D01*
X197644Y142519*
Y140945*
X196857Y140158*
X194495*
X192921D02*
X191347D01*
X192134*
Y143307*
X192921*
X185837D02*
X188198D01*
X188985Y142519*
Y140945*
X188198Y140158*
X185837*
X183475Y139371D02*
X182688Y140158D01*
Y140945*
X183475*
Y140158*
X182688*
X183475Y139371*
X184262Y138584*
X171668Y144881D02*
X173242D01*
X172455*
Y140945*
X173242Y140158*
X174030*
X174817Y140945*
X170094Y143307D02*
Y140945D01*
X169307Y140158*
X166945*
Y143307*
X165371Y140158D02*
X163010D01*
X162222Y140945*
X163010Y141732*
X164584*
X165371Y142519*
X164584Y143307*
X162222*
X159861Y144094D02*
Y143307D01*
X160648*
X159074*
X159861*
Y140945*
X159074Y140158*
X156712D02*
X155138D01*
X155925*
Y143307*
X156712*
X152777Y140158D02*
Y143307D01*
X150415*
X149628Y142519*
Y140158*
X140182Y144094D02*
X140969Y144881D01*
X142544*
X143331Y144094*
Y140945*
X142544Y140158*
X140969*
X140182Y140945*
X137821Y143307D02*
X136247D01*
X135459Y142519*
Y140158*
X137821*
X138608Y140945*
X137821Y141732*
X135459*
X133885Y143307D02*
Y140158D01*
Y141732*
X133098Y142519*
X132311Y143307*
X131524*
X128375Y144094D02*
Y143307D01*
X129162*
X127588*
X128375*
Y140945*
X127588Y140158*
X122865D02*
X124439D01*
X125226Y140945*
Y142519*
X124439Y143307*
X122865*
X122078Y142519*
Y141732*
X125226*
X120503Y143307D02*
Y140158D01*
Y141732*
X119716Y142519*
X118929Y143307*
X118142*
X314929Y400786D02*
X311780D01*
X313354*
Y396063*
X310206Y399212D02*
Y396063D01*
Y397638*
X309419Y398425*
X308632Y399212*
X307844*
X303122Y396063D02*
X304696D01*
X305483Y396851*
Y398425*
X304696Y399212*
X303122*
X302334Y398425*
Y397638*
X305483*
X300760Y399212D02*
Y396851D01*
X299973Y396063*
X297611*
Y395276*
X298399Y394489*
X299186*
X297611Y396063D02*
Y399212D01*
X288166Y399999D02*
X288953Y400786D01*
X290527*
X291314Y399999*
Y399212*
X290527Y398425*
X288953*
X288166Y397638*
Y396851*
X288953Y396063*
X290527*
X291314Y396851*
X286592Y394489D02*
Y399212D01*
X284230*
X283443Y398425*
Y396851*
X284230Y396063*
X286592*
X281869Y399212D02*
Y396063D01*
Y397638*
X281082Y398425*
X280294Y399212*
X279507*
X274784Y396063D02*
X276359D01*
X277146Y396851*
Y398425*
X276359Y399212*
X274784*
X273997Y398425*
Y397638*
X277146*
X269274Y399212D02*
X271636D01*
X272423Y398425*
Y396851*
X271636Y396063*
X269274*
X267700Y400786D02*
Y396063D01*
Y398425*
X266913Y399212*
X265338*
X264551Y398425*
Y396063*
X260616D02*
X262190D01*
X262977Y396851*
Y398425*
X262190Y399212*
X260616*
X259828Y398425*
Y397638*
X262977*
X258254Y399212D02*
Y396063D01*
Y397638*
X257467Y398425*
X256680Y399212*
X255893*
X252744Y395276D02*
X251957Y396063D01*
Y396851*
X252744*
Y396063*
X251957*
X252744Y395276*
X253531Y394489*
X244086Y396063D02*
Y399212D01*
X242511Y400786*
X240937Y399212*
Y396063*
Y398425*
X244086*
X239363Y396063D02*
Y399212D01*
X237001*
X236214Y398425*
Y396063*
X233066Y394489D02*
X232278D01*
X231491Y395276*
Y399212*
X233853*
X234640Y398425*
Y396851*
X233853Y396063*
X231491*
X227555D02*
X229130D01*
X229917Y396851*
Y398425*
X229130Y399212*
X227555*
X226768Y398425*
Y397638*
X229917*
X225194Y396063D02*
X223620D01*
X224407*
Y400786*
X225194*
X220471Y399212D02*
X218897D01*
X218110Y398425*
Y396063*
X220471*
X221258Y396851*
X220471Y397638*
X218110*
X211813Y400786D02*
Y396063D01*
X209451*
X208664Y396851*
Y399999*
X209451Y400786*
X211813*
X206302Y396063D02*
X204728D01*
X203941Y396851*
Y398425*
X204728Y399212*
X206302*
X207090Y398425*
Y396851*
X206302Y396063*
X202367D02*
Y399212D01*
X200005*
X199218Y398425*
Y396063*
X194495Y399212D02*
X196857D01*
X197644Y398425*
Y396851*
X196857Y396063*
X194495*
X192921D02*
X191347D01*
X192134*
Y399212*
X192921*
X185837D02*
X188198D01*
X188985Y398425*
Y396851*
X188198Y396063*
X185837*
X183475Y395276D02*
X182688Y396063D01*
Y396851*
X183475*
Y396063*
X182688*
X183475Y395276*
X184262Y394489*
X171668Y400786D02*
X173242D01*
X172455*
Y396851*
X173242Y396063*
X174030*
X174817Y396851*
X170094Y399212D02*
Y396851D01*
X169307Y396063*
X166945*
Y399212*
X165371Y396063D02*
X163010D01*
X162222Y396851*
X163010Y397638*
X164584*
X165371Y398425*
X164584Y399212*
X162222*
X159861Y399999D02*
Y399212D01*
X160648*
X159074*
X159861*
Y396851*
X159074Y396063*
X156712D02*
X155138D01*
X155925*
Y399212*
X156712*
X152777Y396063D02*
Y399212D01*
X150415*
X149628Y398425*
Y396063*
X140182Y399999D02*
X140969Y400786D01*
X142544*
X143331Y399999*
Y396851*
X142544Y396063*
X140969*
X140182Y396851*
X137821Y399212D02*
X136247D01*
X135459Y398425*
Y396063*
X137821*
X138608Y396851*
X137821Y397638*
X135459*
X133885Y399212D02*
Y396063D01*
Y397638*
X133098Y398425*
X132311Y399212*
X131524*
X128375Y399999D02*
Y399212D01*
X129162*
X127588*
X128375*
Y396851*
X127588Y396063*
X122865D02*
X124439D01*
X125226Y396851*
Y398425*
X124439Y399212*
X122865*
X122078Y398425*
Y397638*
X125226*
X120503Y399212D02*
Y396063D01*
Y397638*
X119716Y398425*
X118929Y399212*
X118142*
X570834Y400786D02*
X567686D01*
X569260*
Y396063*
X566111Y399212D02*
Y396063D01*
Y397638*
X565324Y398425*
X564537Y399212*
X563750*
X559027Y396063D02*
X560601D01*
X561388Y396851*
Y398425*
X560601Y399212*
X559027*
X558240Y398425*
Y397638*
X561388*
X556666Y399212D02*
Y396851D01*
X555878Y396063*
X553517*
Y395276*
X554304Y394489*
X555091*
X553517Y396063D02*
Y399212D01*
X544071Y399999D02*
X544858Y400786D01*
X546433*
X547220Y399999*
Y399212*
X546433Y398425*
X544858*
X544071Y397638*
Y396851*
X544858Y396063*
X546433*
X547220Y396851*
X542497Y394489D02*
Y399212D01*
X540136*
X539348Y398425*
Y396851*
X540136Y396063*
X542497*
X537774Y399212D02*
Y396063D01*
Y397638*
X536987Y398425*
X536200Y399212*
X535413*
X530690Y396063D02*
X532264D01*
X533051Y396851*
Y398425*
X532264Y399212*
X530690*
X529903Y398425*
Y397638*
X533051*
X525180Y399212D02*
X527541D01*
X528328Y398425*
Y396851*
X527541Y396063*
X525180*
X523605Y400786D02*
Y396063D01*
Y398425*
X522818Y399212*
X521244*
X520457Y398425*
Y396063*
X516521D02*
X518095D01*
X518883Y396851*
Y398425*
X518095Y399212*
X516521*
X515734Y398425*
Y397638*
X518883*
X514160Y399212D02*
Y396063D01*
Y397638*
X513373Y398425*
X512585Y399212*
X511798*
X508650Y395276D02*
X507863Y396063D01*
Y396851*
X508650*
Y396063*
X507863*
X508650Y395276*
X509437Y394489*
X499991Y396063D02*
Y399212D01*
X498417Y400786*
X496842Y399212*
Y396063*
Y398425*
X499991*
X495268Y396063D02*
Y399212D01*
X492907*
X492120Y398425*
Y396063*
X488971Y394489D02*
X488184D01*
X487397Y395276*
Y399212*
X489758*
X490545Y398425*
Y396851*
X489758Y396063*
X487397*
X483461D02*
X485035D01*
X485822Y396851*
Y398425*
X485035Y399212*
X483461*
X482674Y398425*
Y397638*
X485822*
X481100Y396063D02*
X479525D01*
X480312*
Y400786*
X481100*
X476377Y399212D02*
X474802D01*
X474015Y398425*
Y396063*
X476377*
X477164Y396851*
X476377Y397638*
X474015*
X467718Y400786D02*
Y396063D01*
X465357*
X464570Y396851*
Y399999*
X465357Y400786*
X467718*
X462208Y396063D02*
X460634D01*
X459847Y396851*
Y398425*
X460634Y399212*
X462208*
X462995Y398425*
Y396851*
X462208Y396063*
X458272D02*
Y399212D01*
X455911*
X455124Y398425*
Y396063*
X450401Y399212D02*
X452762D01*
X453549Y398425*
Y396851*
X452762Y396063*
X450401*
X448827D02*
X447252D01*
X448039*
Y399212*
X448827*
X441742D02*
X444104D01*
X444891Y398425*
Y396851*
X444104Y396063*
X441742*
X439381Y395276D02*
X438594Y396063D01*
Y396851*
X439381*
Y396063*
X438594*
X439381Y395276*
X440168Y394489*
X427574Y400786D02*
X429148D01*
X428361*
Y396851*
X429148Y396063*
X429935*
X430722Y396851*
X425999Y399212D02*
Y396851D01*
X425212Y396063*
X422851*
Y399212*
X421276Y396063D02*
X418915D01*
X418128Y396851*
X418915Y397638*
X420489*
X421276Y398425*
X420489Y399212*
X418128*
X415766Y399999D02*
Y399212D01*
X416553*
X414979*
X415766*
Y396851*
X414979Y396063*
X412618D02*
X411044D01*
X411831*
Y399212*
X412618*
X408682Y396063D02*
Y399212D01*
X406321*
X405533Y398425*
Y396063*
X396088Y399999D02*
X396875Y400786D01*
X398449*
X399236Y399999*
Y396851*
X398449Y396063*
X396875*
X396088Y396851*
X393726Y399212D02*
X392152D01*
X391365Y398425*
Y396063*
X393726*
X394513Y396851*
X393726Y397638*
X391365*
X389791Y399212D02*
Y396063D01*
Y397638*
X389003Y398425*
X388216Y399212*
X387429*
X384280Y399999D02*
Y399212D01*
X385068*
X383493*
X384280*
Y396851*
X383493Y396063*
X378770D02*
X380345D01*
X381132Y396851*
Y398425*
X380345Y399212*
X378770*
X377983Y398425*
Y397638*
X381132*
X376409Y399212D02*
Y396063D01*
Y397638*
X375622Y398425*
X374835Y399212*
X374048*
X826740Y400786D02*
X823591D01*
X825165*
Y396063*
X822017Y399212D02*
Y396063D01*
Y397638*
X821230Y398425*
X820443Y399212*
X819656*
X814933Y396063D02*
X816507D01*
X817294Y396851*
Y398425*
X816507Y399212*
X814933*
X814145Y398425*
Y397638*
X817294*
X812571Y399212D02*
Y396851D01*
X811784Y396063*
X809423*
Y395276*
X810210Y394489*
X810997*
X809423Y396063D02*
Y399212D01*
X799977Y399999D02*
X800764Y400786D01*
X802338*
X803125Y399999*
Y399212*
X802338Y398425*
X800764*
X799977Y397638*
Y396851*
X800764Y396063*
X802338*
X803125Y396851*
X798403Y394489D02*
Y399212D01*
X796041*
X795254Y398425*
Y396851*
X796041Y396063*
X798403*
X793680Y399212D02*
Y396063D01*
Y397638*
X792893Y398425*
X792105Y399212*
X791318*
X786595Y396063D02*
X788170D01*
X788957Y396851*
Y398425*
X788170Y399212*
X786595*
X785808Y398425*
Y397638*
X788957*
X781085Y399212D02*
X783447D01*
X784234Y398425*
Y396851*
X783447Y396063*
X781085*
X779511Y400786D02*
Y396063D01*
Y398425*
X778724Y399212*
X777149*
X776362Y398425*
Y396063*
X772427D02*
X774001D01*
X774788Y396851*
Y398425*
X774001Y399212*
X772427*
X771639Y398425*
Y397638*
X774788*
X770065Y399212D02*
Y396063D01*
Y397638*
X769278Y398425*
X768491Y399212*
X767704*
X764555Y395276D02*
X763768Y396063D01*
Y396851*
X764555*
Y396063*
X763768*
X764555Y395276*
X765342Y394489*
X755897Y396063D02*
Y399212D01*
X754322Y400786*
X752748Y399212*
Y396063*
Y398425*
X755897*
X751174Y396063D02*
Y399212D01*
X748812*
X748025Y398425*
Y396063*
X744876Y394489D02*
X744089D01*
X743302Y395276*
Y399212*
X745664*
X746451Y398425*
Y396851*
X745664Y396063*
X743302*
X739366D02*
X740941D01*
X741728Y396851*
Y398425*
X740941Y399212*
X739366*
X738579Y398425*
Y397638*
X741728*
X737005Y396063D02*
X735431D01*
X736218*
Y400786*
X737005*
X732282Y399212D02*
X730708D01*
X729921Y398425*
Y396063*
X732282*
X733069Y396851*
X732282Y397638*
X729921*
X723624Y400786D02*
Y396063D01*
X721262*
X720475Y396851*
Y399999*
X721262Y400786*
X723624*
X718114Y396063D02*
X716539D01*
X715752Y396851*
Y398425*
X716539Y399212*
X718114*
X718901Y398425*
Y396851*
X718114Y396063*
X714178D02*
Y399212D01*
X711816*
X711029Y398425*
Y396063*
X706306Y399212D02*
X708668D01*
X709455Y398425*
Y396851*
X708668Y396063*
X706306*
X704732D02*
X703158D01*
X703945*
Y399212*
X704732*
X697648D02*
X700009D01*
X700796Y398425*
Y396851*
X700009Y396063*
X697648*
X695286Y395276D02*
X694499Y396063D01*
Y396851*
X695286*
Y396063*
X694499*
X695286Y395276*
X696073Y394489*
X683479Y400786D02*
X685053D01*
X684266*
Y396851*
X685053Y396063*
X685841*
X686628Y396851*
X681905Y399212D02*
Y396851D01*
X681118Y396063*
X678756*
Y399212*
X677182Y396063D02*
X674821D01*
X674033Y396851*
X674821Y397638*
X676395*
X677182Y398425*
X676395Y399212*
X674033*
X671672Y399999D02*
Y399212D01*
X672459*
X670885*
X671672*
Y396851*
X670885Y396063*
X668523D02*
X666949D01*
X667736*
Y399212*
X668523*
X664588Y396063D02*
Y399212D01*
X662226*
X661439Y398425*
Y396063*
X651993Y399999D02*
X652780Y400786D01*
X654355*
X655142Y399999*
Y396851*
X654355Y396063*
X652780*
X651993Y396851*
X649632Y399212D02*
X648058D01*
X647270Y398425*
Y396063*
X649632*
X650419Y396851*
X649632Y397638*
X647270*
X645696Y399212D02*
Y396063D01*
Y397638*
X644909Y398425*
X644122Y399212*
X643335*
X640186Y399999D02*
Y399212D01*
X640973*
X639399*
X640186*
Y396851*
X639399Y396063*
X634676D02*
X636250D01*
X637037Y396851*
Y398425*
X636250Y399212*
X634676*
X633889Y398425*
Y397638*
X637037*
X632314Y399212D02*
Y396063D01*
Y397638*
X631527Y398425*
X630740Y399212*
X629953*
X767685Y144881D02*
X764536D01*
X766110*
Y140158*
X762962Y143307D02*
Y140158D01*
Y141732*
X762175Y142519*
X761387Y143307*
X760600*
X755877Y140158D02*
X757452D01*
X758239Y140945*
Y142519*
X757452Y143307*
X755877*
X755090Y142519*
Y141732*
X758239*
X753516Y143307D02*
Y140945D01*
X752729Y140158*
X750367*
Y139371*
X751155Y138584*
X751942*
X750367Y140158D02*
Y143307D01*
X740922Y144094D02*
X741709Y144881D01*
X743283*
X744070Y144094*
Y143307*
X743283Y142519*
X741709*
X740922Y141732*
Y140945*
X741709Y140158*
X743283*
X744070Y140945*
X739347Y138584D02*
Y143307D01*
X736986*
X736199Y142519*
Y140945*
X736986Y140158*
X739347*
X734624Y143307D02*
Y140158D01*
Y141732*
X733837Y142519*
X733050Y143307*
X732263*
X727540Y140158D02*
X729114D01*
X729902Y140945*
Y142519*
X729114Y143307*
X727540*
X726753Y142519*
Y141732*
X729902*
X722030Y143307D02*
X724392D01*
X725179Y142519*
Y140945*
X724392Y140158*
X722030*
X720456Y144881D02*
Y140158D01*
Y142519*
X719669Y143307*
X718094*
X717307Y142519*
Y140158*
X713372D02*
X714946D01*
X715733Y140945*
Y142519*
X714946Y143307*
X713372*
X712584Y142519*
Y141732*
X715733*
X711010Y143307D02*
Y140158D01*
Y141732*
X710223Y142519*
X709436Y143307*
X708649*
X705500Y139371D02*
X704713Y140158D01*
Y140945*
X705500*
Y140158*
X704713*
X705500Y139371*
X706287Y138584*
X696841Y140158D02*
Y143307D01*
X695267Y144881*
X693693Y143307*
Y140158*
Y142519*
X696841*
X692119Y140158D02*
Y143307D01*
X689757*
X688970Y142519*
Y140158*
X685821Y138584D02*
X685034D01*
X684247Y139371*
Y143307*
X686609*
X687396Y142519*
Y140945*
X686609Y140158*
X684247*
X680311D02*
X681886D01*
X682673Y140945*
Y142519*
X681886Y143307*
X680311*
X679524Y142519*
Y141732*
X682673*
X677950Y140158D02*
X676376D01*
X677163*
Y144881*
X677950*
X673227Y143307D02*
X671653D01*
X670866Y142519*
Y140158*
X673227*
X674014Y140945*
X673227Y141732*
X670866*
X664569Y144881D02*
Y140158D01*
X662207*
X661420Y140945*
Y144094*
X662207Y144881*
X664569*
X659058Y140158D02*
X657484D01*
X656697Y140945*
Y142519*
X657484Y143307*
X659058*
X659846Y142519*
Y140945*
X659058Y140158*
X655123D02*
Y143307D01*
X652761*
X651974Y142519*
Y140158*
X647251Y143307D02*
X649613D01*
X650400Y142519*
Y140945*
X649613Y140158*
X647251*
X645677D02*
X644103D01*
X644890*
Y143307*
X645677*
X638593D02*
X640954D01*
X641741Y142519*
Y140945*
X640954Y140158*
X638593*
X636231Y139371D02*
X635444Y140158D01*
Y140945*
X636231*
Y140158*
X635444*
X636231Y139371*
X637018Y138584*
X624424Y144881D02*
X625998D01*
X625211*
Y140945*
X625998Y140158*
X626785*
X627573Y140945*
X622850Y143307D02*
Y140945D01*
X622062Y140158*
X619701*
Y143307*
X618127Y140158D02*
X615765D01*
X614978Y140945*
X615765Y141732*
X617340*
X618127Y142519*
X617340Y143307*
X614978*
X612617Y144094D02*
Y143307D01*
X613404*
X611830*
X612617*
Y140945*
X611830Y140158*
X609468D02*
X607894D01*
X608681*
Y143307*
X609468*
X605532Y140158D02*
Y143307D01*
X603171*
X602384Y142519*
Y140158*
X592938Y144094D02*
X593725Y144881D01*
X595299*
X596087Y144094*
Y140945*
X595299Y140158*
X593725*
X592938Y140945*
X590577Y143307D02*
X589002D01*
X588215Y142519*
Y140158*
X590577*
X591364Y140945*
X590577Y141732*
X588215*
X586641Y143307D02*
Y140158D01*
Y141732*
X585854Y142519*
X585067Y143307*
X584279*
X581131Y144094D02*
Y143307D01*
X581918*
X580344*
X581131*
Y140945*
X580344Y140158*
X575621D02*
X577195D01*
X577982Y140945*
Y142519*
X577195Y143307*
X575621*
X574834Y142519*
Y141732*
X577982*
X573259Y143307D02*
Y140158D01*
Y141732*
X572472Y142519*
X571685Y143307*
X570898*
G54D116*
X887865Y522447D02*
X895138Y509848D01*
X898321Y529534D02*
X894229Y522447D01*
X895138Y535045D02*
X898321Y529534D01*
X895138Y535045D02*
X887865Y522447D01*
X894229D02*
X898321Y515360D01*
X895138Y509848*
X899282Y542132D02*
X906556Y529534D01*
X909738Y549219D02*
X905647Y542132D01*
X906556Y554730D02*
X909738Y549219D01*
X906556Y554730D02*
X899282Y542132D01*
X905647D02*
X909738Y535045D01*
X906556Y529534*
X1028022Y446856D02*
X1035296Y434258D01*
X1038478Y453943D02*
X1034387Y446856D01*
X1035296Y459455D02*
X1038478Y453943D01*
X1035296Y459455D02*
X1028022Y446856D01*
X1034387D02*
X1038478Y439770D01*
X1035296Y434258*
X1016605Y427171D02*
X1023879Y414573D01*
X1027061Y434258D02*
X1022969Y427171D01*
X1023879Y439770D02*
X1027061Y434258D01*
X1023879Y439770D02*
X1016605Y427171D01*
X1022969D02*
X1027061Y420085D01*
X1023879Y414573*
X1028022Y407486D02*
X1035296Y394888D01*
X1038478Y414573D02*
X1034387Y407486D01*
X1035296Y420085D02*
X1038478Y414573D01*
X1035296Y420085D02*
X1028022Y407486D01*
X1034387D02*
X1038478Y400400D01*
X1035296Y394888*
G54D121*
X1025424Y530571D03*
G54D122*
X1001907Y538703D02*
X1002603Y538007D01*
X1012485Y549281D02*
X1013181Y548585D01*
X1017351Y524651D02*
X1016655Y523955D01*
X1015165Y525445D02*
X1016655Y523955D01*
X1009632Y546427D02*
X1008170Y544966D01*
X1006221Y543017D02*
X1004760Y541556D01*
X1025249Y532536D02*
X1024254Y531540D01*
X1021574Y540192D02*
X1022458Y539308D01*
G54D125*
X1015748Y466508D03*
G54D216*
X993822Y365158D02*
Y375653D01*
Y370405*
X978079*
X988574Y380900D02*
X978079D01*
X983326*
X985950Y383524*
X988574Y386148*
Y388772*
X978079Y404515D02*
Y399267D01*
X980703Y396643*
X985950*
X988574Y399267*
Y404515*
X985950Y407139*
X983326*
Y396643*
X988574Y412386D02*
X980703D01*
X978079Y415010*
Y422882*
X975455*
X972831Y420258*
Y417634*
X978079Y422882D02*
X988574D01*
X991198Y454367D02*
X993822Y451744D01*
Y446496*
X991198Y443872*
X988574*
X985950Y446496*
Y451744*
X983326Y454367*
X980703*
X978079Y451744*
Y446496*
X980703Y443872*
X972831Y459615D02*
X988574D01*
Y467487*
X985950Y470110*
X980703*
X978079Y467487*
Y459615*
X988574Y475358D02*
X978079D01*
X983326*
X985950Y477982*
X988574Y480606*
Y483229*
X978079Y498973D02*
Y493725D01*
X980703Y491101*
X985950*
X988574Y493725*
Y498973*
X985950Y501596*
X983326*
Y491101*
X988574Y517339D02*
Y509468D01*
X985950Y506844*
X980703*
X978079Y509468*
Y517339*
X993822Y522587D02*
X978079D01*
X985950*
X988574Y525211*
Y530458*
X985950Y533082*
X978079*
Y546201D02*
Y540954D01*
X980703Y538330*
X985950*
X988574Y540954*
Y546201*
X985950Y548825*
X983326*
Y538330*
X988574Y554073D02*
X978079D01*
X983326*
X985950Y556697*
X988574Y559320*
Y561944*
X946853Y365158D02*
X957348D01*
X962596Y370405*
X957348Y375653*
X946853*
X954725*
Y365158*
X946853Y380900D02*
X957348D01*
Y388772*
X954725Y391396*
X946853*
X941605Y401891D02*
Y404515D01*
X944229Y407139*
X957348*
Y399267*
X954725Y396643*
X949477*
X946853Y399267*
Y407139*
Y420258D02*
Y415010D01*
X949477Y412386*
X954725*
X957348Y415010*
Y420258*
X954725Y422882*
X952101*
Y412386*
X946853Y428129D02*
Y433377D01*
Y430753*
X962596*
Y428129*
X957348Y443872D02*
Y449120D01*
X954725Y451744*
X946853*
Y443872*
X949477Y441248*
X952101Y443872*
Y451744*
X962596Y472734D02*
X946853D01*
Y480606*
X949477Y483229*
X959972*
X962596Y480606*
Y472734*
X946853Y491101D02*
Y496349D01*
X949477Y498973*
X954725*
X957348Y496349*
Y491101*
X954725Y488477*
X949477*
X946853Y491101*
Y504220D02*
X957348D01*
Y512092*
X954725Y514715*
X946853*
X957348Y530458D02*
Y522587D01*
X954725Y519963*
X949477*
X946853Y522587*
Y530458*
Y535706D02*
Y540954D01*
Y538330*
X957348*
Y535706*
Y559320D02*
Y551449D01*
X954725Y548825*
X949477*
X946853Y551449*
Y559320*
X931370Y375653D02*
Y370405D01*
Y373029*
X918251*
X915627Y370405*
Y367781*
X918251Y365158*
X926122Y380900D02*
X918251D01*
X915627Y383524*
Y391396*
X926122*
X915627Y396643D02*
Y404515D01*
X918251Y407139*
X920875Y404515*
Y399267*
X923499Y396643*
X926122Y399267*
Y407139*
X928746Y415010D02*
X926122D01*
Y412386*
Y417634*
Y415010*
X918251*
X915627Y417634*
Y425505D02*
Y430753D01*
Y428129*
X926122*
Y425505*
X915627Y438624D02*
X926122D01*
Y446496*
X923499Y449120*
X915627*
X928746Y480606D02*
X931370Y477982D01*
Y472734*
X928746Y470110*
X918251*
X915627Y472734*
Y477982*
X918251Y480606*
X926122Y488477D02*
Y493725D01*
X923499Y496349*
X915627*
Y488477*
X918251Y485853*
X920875Y488477*
Y496349*
X926122Y501596D02*
X915627D01*
X920875*
X923499Y504220*
X926122Y506844*
Y509468*
X928746Y519963D02*
X926122D01*
Y517339*
Y522587*
Y519963*
X918251*
X915627Y522587*
Y538330D02*
Y533082D01*
X918251Y530458*
X923499*
X926122Y533082*
Y538330*
X923499Y540954*
X920875*
Y530458*
X926122Y546201D02*
X915627D01*
X920875*
X923499Y548825*
X926122Y551449*
Y554073*
G54D218*
X517195Y260974D02*
X502353Y275817D01*
X509774Y268396*
X487510Y246132*
X476378Y294370D02*
X483799D01*
X491221Y286949*
Y279528*
X487510Y275817*
X480089*
X472667Y283238*
X465246*
X461535Y279528*
Y272106*
X468957Y264685*
X476378*
X468957Y301791D02*
Y309213D01*
X461535Y316634*
X454114*
X450403Y312923*
Y305502*
X454114Y301791*
X450403Y305502*
X442982*
X439271Y301791*
Y294370*
X446693Y286949*
X454114*
X320345Y516880D02*
X305502Y531722D01*
X312923Y524301*
X290659Y502037*
X279528Y550276D02*
X286949D01*
X294370Y542854*
Y535433*
X290659Y531722*
X283238*
X275817Y539144*
X268396*
X264685Y535433*
Y528012*
X272106Y520590*
X279528*
X272106Y557697D02*
Y565118D01*
X264685Y572540*
X257264*
X253553Y568829*
Y561408*
X257264Y557697*
X253553Y561408*
X246132*
X242421Y557697*
Y550276*
X249842Y542854*
X257264*
X576250Y516880D02*
X561408Y531722D01*
X568829Y524301*
X546565Y502037*
X535433Y550276D02*
X542854D01*
X550276Y542854*
Y535433*
X546565Y531722*
X539144*
X531722Y539144*
X524301*
X520590Y535433*
Y528012*
X528012Y520590*
X535433*
X528012Y557697D02*
Y565118D01*
X520590Y572540*
X513169*
X509458Y568829*
Y561408*
X513169Y557697*
X509458Y561408*
X502037*
X498327Y557697*
Y550276*
X505748Y542854*
X513169*
X903022Y134990D02*
X888179Y149833D01*
X895601Y142411*
X873337Y120148*
X862205Y168386D02*
X869626D01*
X877047Y160965*
Y153543*
X873337Y149833*
X865915*
X858494Y157254*
X851073*
X847362Y153543*
Y146122*
X854783Y138701*
X862205*
X854783Y175807D02*
Y183229D01*
X847362Y190650*
X839941*
X836230Y186939*
Y179518*
X839941Y175807*
X836230Y179518*
X828809*
X825098Y175807*
Y168386*
X832520Y160965*
X839941*
X832156Y516880D02*
X817313Y531722D01*
X824734Y524301*
X802470Y502037*
X791339Y550276D02*
X798760D01*
X806181Y542854*
Y535433*
X802470Y531722*
X795049*
X787628Y539144*
X780207*
X776496Y535433*
Y528012*
X783917Y520590*
X791339*
X783917Y557697D02*
Y565118D01*
X776496Y572540*
X769075*
X765364Y568829*
Y561408*
X769075Y557697*
X765364Y561408*
X757943*
X754232Y557697*
Y550276*
X761653Y542854*
X769075*
X773101Y260974D02*
X758258Y275817D01*
X765679Y268396*
X743415Y246132*
X732283Y294370D02*
X739705D01*
X747126Y286949*
Y279528*
X743415Y275817*
X735994*
X728573Y283238*
X721151*
X717441Y279528*
Y272106*
X724862Y264685*
X732283*
X724862Y301791D02*
Y309213D01*
X717441Y316634*
X710020*
X706309Y312923*
Y305502*
X710020Y301791*
X706309Y305502*
X698888*
X695177Y301791*
Y294370*
X702598Y286949*
X710020*
M02*