%FSLAX25Y25*%
%MOIN*%
%SFA1B1*%

%IPPOS*%
%ADD9503C,0.023620*%
%ADD9513C,0.027560*%
%ADD9514C,0.049210*%
%LNpanel-slotholes-1*%
%LPD*%
G54D9503*
X596496Y129961D02*
Y134685D01*
X610276Y129961D02*
Y134685D01*
X626024Y129961D02*
Y134685D01*
X665000Y129961D02*
Y134685D01*
X678780Y129961D02*
Y134685D01*
X694527Y129961D02*
Y134685D01*
X708307Y129961D02*
Y134685D01*
X722087Y129961D02*
Y134685D01*
X737835Y129961D02*
Y134685D01*
G54D9513*
X955433Y306634D02*
Y301516D01*
X989449Y306634D02*
Y301516D01*
X894961Y306634D02*
Y301516D01*
X860945Y306634D02*
Y301516D01*
Y322185D02*
Y318642D01*
X894961Y322185D02*
Y318642D01*
X955433Y322185D02*
Y318642D01*
X989449Y322185D02*
Y318642D01*
G54D9514*
X633898Y168839D02*
Y154075D01*
Y199547D02*
Y184783D01*
X704764D02*
Y199547D01*
Y154075D02*
Y168839D01*
X448779Y154075D02*
Y168839D01*
Y184783D02*
Y199547D01*
X181142D02*
Y184783D01*
Y168839D02*
Y154075D01*
X181102Y424705D02*
Y409941D01*
Y455413D02*
Y440650D01*
X251969D02*
Y455413D01*
Y409941D02*
Y424705D01*
X437008D02*
Y409941D01*
Y455413D02*
Y440650D01*
X507874D02*
Y455413D01*
Y409941D02*
Y424705D01*
X692913D02*
Y409941D01*
Y455413D02*
Y440650D01*
X763779D02*
Y455413D01*
Y409941D02*
Y424705D01*
M02*